<?xml version="1.0" encoding="UTF-8"?>
<svg id="Layer_1" data-name="Layer 1" xmlns="http://www.w3.org/2000/svg" viewBox="0 0 230 160">
  <defs>
    <style>
      .cls-1 {
        fill: #fff;
      }

      .cls-2 {
        fill: #ffec4f;
      }

      .cls-3 {
        fill: #241f20;
      }

      .cls-4 {
        fill: #ffa8ff;
      }

      .cls-5 {
        fill: #ff5e00;
      }
    </style>
  </defs>
  <rect class="cls-4" y="0" width="230" height="160"/>
  <ellipse class="cls-1" cx="59.43" cy="109.87" rx="14.83" ry="49.54" transform="translate(-65.44 113.13) rotate(-63.08)"/>
  <g>
    <path class="cls-3" d="M40.88,54.03c-.06,0-.13,0-.19-.02l-11.19-2.15c-.54-.1-.9-.63-.79-1.17.1-.54.63-.9,1.17-.79l11.19,2.15c.54.1.9.63.79,1.17-.09.48-.51.81-.98.81Z"/>
    <path class="cls-3" d="M34.21,58.55c-.06,0-.13,0-.19-.02-.54-.1-.9-.63-.79-1.17l1.08-5.66c.1-.54.63-.9,1.17-.79.54.1.9.63.79,1.17l-1.08,5.66c-.09.48-.51.81-.98.81Z"/>
    <path class="cls-3" d="M30.57,56.15c-.32,0-.63-.15-.83-.44-.31-.46-.19-1.08.27-1.39l9.43-6.4c.46-.31,1.08-.19,1.39.27.31.46.19,1.08-.27,1.39l-9.43,6.4c-.17.12-.37.17-.56.17Z"/>
    <path class="cls-3" d="M38.48,57.67c-.32,0-.63-.15-.83-.44l-6.4-9.43c-.31-.46-.19-1.08.27-1.39s1.08-.19,1.39.27l6.4,9.43c.31.46.19,1.08-.27,1.39-.17.12-.37.17-.56.17Z"/>
  </g>
  <path class="cls-3" d="M35.28,51.26c-.11,0-.22-.02-.33-.06-.52-.18-.79-.75-.61-1.27,3.26-9.29,10.66-21.53,27.38-27.13.53-.17,1.09.11,1.27.63.18.52-.11,1.09-.63,1.27-12.8,4.29-21.59,13-26.12,25.89-.14.41-.53.67-.94.67Z"/>
  <g>
    <ellipse class="cls-1" cx="117.55" cy="44.97" rx="55.34" ry="18.6" transform="translate(-8.31 45.57) rotate(-21.21)"/>
    <path class="cls-3" d="M82.95,72.46c-9.81,0-16.13-2.48-17.92-7.1-.2-.52.06-1.09.57-1.29.51-.2,1.09.06,1.29.57,1.61,4.14,8.49,6.24,18.89,5.76,10.91-.5,24.45-3.7,38.14-9.01,13.68-5.31,25.84-12.08,34.23-19.07,8-6.66,11.67-12.86,10.06-17-2.38-6.13-16.36-7.56-34.78-3.54-.54.12-1.07-.22-1.19-.76-.12-.54.22-1.07.76-1.19,20.03-4.37,34.23-2.54,37.07,4.77,1.96,5.06-1.82,11.9-10.65,19.26-8.55,7.12-20.91,14.01-34.79,19.4-13.88,5.39-27.65,8.63-38.77,9.15-1.01.05-1.98.07-2.93.07Z"/>
    <circle class="cls-5" cx="81.08" cy="49.36" r="7.72"/>
    <circle class="cls-5" cx="90.43" cy="39.27" r="7.72"/>
    <circle class="cls-5" cx="102.35" cy="42.15" r="7.72"/>
    <circle class="cls-5" cx="94.38" cy="52.48" r="7.72"/>
    <path class="cls-3" d="M76.63,56.4c-.22,0-.44-.07-.62-.22-3.75-3.01-4.36-8.51-1.35-12.26,1.46-1.82,3.53-2.96,5.85-3.22,2.32-.25,4.59.41,6.41,1.86.43.35.5.97.16,1.41-.34.43-.97.5-1.41.16-1.4-1.12-3.16-1.63-4.94-1.43-1.78.2-3.38,1.08-4.51,2.48-2.32,2.89-1.85,7.13,1.04,9.45.43.35.5.97.16,1.41-.2.25-.49.38-.78.38Z"/>
    <path class="cls-3" d="M89.54,59.32c-.22,0-.44-.07-.62-.22-3.75-3.01-4.36-8.51-1.35-12.26,3-3.75,8.51-4.36,12.26-1.35.43.35.5.97.16,1.41-.34.43-.97.5-1.41.16-2.89-2.32-7.13-1.85-9.45,1.04-2.32,2.89-1.85,7.13,1.04,9.45.43.35.5.97.16,1.41-.2.25-.49.38-.78.38Z"/>
    <path class="cls-3" d="M82.83,38.92c-.06,0-.12,0-.19-.02-.54-.1-.9-.63-.8-1.17.26-1.39.87-2.7,1.76-3.81,1.46-1.82,3.53-2.96,5.85-3.22,2.32-.26,4.59.41,6.41,1.86.43.35.5.97.16,1.41-.34.43-.97.5-1.41.16-1.4-1.12-3.16-1.63-4.94-1.43-1.78.2-3.38,1.08-4.51,2.48-.68.85-1.15,1.87-1.36,2.94-.09.48-.51.81-.98.81Z"/>
    <path class="cls-3" d="M95.14,42.09c-.06,0-.12,0-.19-.02-.54-.1-.9-.63-.79-1.17.26-1.39.87-2.7,1.76-3.81,3.01-3.75,8.51-4.36,12.26-1.35.43.35.5.97.16,1.41-.34.43-.97.5-1.41.16-2.89-2.32-7.13-1.85-9.45,1.04-.68.85-1.15,1.87-1.36,2.94-.09.48-.51.81-.98.81Z"/>
    <path class="cls-2" d="M98.93,51.86l25.46-25.77s9.01,11.66-3.55,23.67c0,0-9.91,9.71-21.91,2.1Z"/>
    <path class="cls-2" d="M110.86,49.36l25.46-25.77s9.01,11.66-3.55,23.67c0,0-9.91,9.71-21.91,2.1Z"/>
    <path class="cls-2" d="M123.8,47.99l25.46-25.77s9.01,11.66-3.55,23.67c0,0-9.91,9.71-21.91,2.1Z"/>
    <path class="cls-3" d="M128.84,43.9c-.25,0-.51-.1-.7-.29-.39-.39-.4-1.02,0-1.41l13.05-13.21c.39-.39,1.02-.4,1.41,0,.39.39.4,1.02,0,1.41l-13.05,13.21c-.2.2-.45.3-.71.3Z"/>
    <path class="cls-3" d="M133.21,51.89c-3.03,0-6.41-.81-9.94-3.05-.47-.3-.6-.91-.31-1.38.3-.47.91-.6,1.38-.31,11.17,7.08,20.29-1.6,20.68-1.97,11.74-11.23,3.8-21.9,3.46-22.35-.33-.44-.25-1.07.18-1.4.44-.34,1.06-.26,1.4.18.1.12,9.41,12.52-3.65,25.01-.07.07-5.5,5.27-13.19,5.27Z"/>
    <path class="cls-3" d="M120.37,53.3c-3.41,0-6.76-1.03-9.98-3.07-.47-.3-.6-.91-.31-1.38.3-.47.91-.6,1.38-.31,3.89,2.47,7.96,3.29,12.09,2.43.54-.11,1.07.23,1.18.78.11.54-.24,1.07-.78,1.18-1.2.25-2.4.38-3.59.38Z"/>
    <path class="cls-3" d="M114.78,46.64c-.25,0-.51-.1-.7-.29-.39-.39-.4-1.02,0-1.41l13.05-13.21c.39-.39,1.02-.4,1.41,0,.39.39.4,1.02,0,1.41l-13.05,13.21c-.2.2-.45.3-.71.3Z"/>
    <path class="cls-3" d="M109.14,55.7c-3.41,0-6.76-1.03-9.98-3.07-.47-.3-.6-.91-.31-1.38s.91-.6,1.38-.31c3.89,2.47,7.96,3.29,12.09,2.43.54-.11,1.07.23,1.18.78.11.54-.24,1.07-.78,1.18-1.2.25-2.4.38-3.59.38Z"/>
    <path class="cls-3" d="M105.73,46.85c-.25,0-.51-.1-.7-.29-.39-.39-.4-1.02,0-1.41l10.89-11.02c.39-.39,1.02-.4,1.41,0,.39.39.4,1.02,0,1.41l-10.89,11.02c-.2.2-.45.3-.71.3Z"/>
  </g>
  <g>
    <path class="cls-1" d="M207.13,96.87c.35-1.38.5-2.83.43-4.35l-.22-4.74c.43-1.85-4.89-4.65-11.87-6.27s-12.99-1.43-13.42.42l-2.28,4.16c-1.9,3.46-2.24,7.25-1.37,10.71,1.65-1.7,7.43-2.96,14.34-2.96s12.85,1.29,14.4,3.03Z"/>
    <path class="cls-5" d="M189.41,107.66c8.1,1.87,15.81-3.24,17.72-10.79-1.56-1.73-7.4-3.03-14.4-3.03s-12.69,1.26-14.34,2.96c1.29,5.15,5.29,9.54,11.02,10.86Z"/>
  </g>
  <g>
    <path class="cls-1" d="M165.65,105.01c-.42-1.36-1.04-2.68-1.88-3.94l-2.65-3.94c-.59-1.8-6.59-1.45-13.4.78-6.81,2.23-11.86,5.5-11.27,7.3l.2,4.74c.17,3.94,1.84,7.36,4.37,9.87,3.77,3.74,9.47,5.42,15.05,3.59,7.9-2.59,11.86-10.95,9.57-18.4Z"/>
    <path class="cls-5" d="M151.26,110.06c-6.8,0-12.51,1.22-14.25,2.88.25,1,.61,1.96,1.05,2.86.74,1.5,1.71,2.86,2.87,4.02,3.77,3.74,9.47,5.42,15.05,3.59,4.11-1.35,7.14-4.26,8.79-7.79.37-.8.68-1.63.91-2.48-1.5-1.76-7.38-3.07-14.43-3.07Z"/>
  </g>
  <g>
    <path class="cls-3" d="M201.81,90.3c-2.5,0-5.57-.39-8.74-1.13-5.06-1.17-13.41-4.06-12.62-7.47.33-1.42,2.08-2.18,5.19-2.28,2.62-.08,5.97.31,9.42,1.12,3.46.8,6.64,1.91,8.96,3.14,2.76,1.46,3.99,2.91,3.67,4.33h0c-.33,1.42-2.08,2.18-5.19,2.28-.22,0-.45.01-.69.01ZM186.31,81.42c-2.31,0-3.7.35-3.91.75.03.83,3.97,3.4,11.13,5.06,7.12,1.65,11.78,1.09,12.22.33-.06-.87-4-3.42-11.12-5.07-3.39-.79-6.23-1.07-8.31-1.07ZM205.75,87.54h0Z"/>
    <path class="cls-3" d="M192.19,109.05c-1.2,0-2.41-.14-3.62-.42-5.75-1.33-10.25-5.71-11.75-11.43-.14-.53.18-1.08.71-1.22.53-.14,1.08.18,1.22.71,1.31,5,5.24,8.82,10.26,9.99,4.25.98,8.62-.06,11.97-2.85,3.35-2.8,5.16-6.9,4.95-11.27l-.22-4.74c-.03-.55.4-1.02.95-1.05.51-.02,1.02.4,1.05.95l.22,4.74c.24,4.99-1.83,9.69-5.67,12.9-2.89,2.41-6.43,3.68-10.09,3.68Z"/>
  </g>
  <ellipse class="cls-1" cx="161.29" cy="138.03" rx="9.5" ry="3.43" transform="translate(-36.91 61.99) rotate(-19.57)"/>
  <g>
    <path class="cls-3" d="M139.15,107.86c-2.03,0-3.59-.47-4.05-1.75-.49-1.37.57-2.96,3.15-4.72,2.16-1.48,5.2-2.95,8.54-4.14,4.89-1.74,13.48-3.8,14.66-.51h0c1.17,3.29-6.8,7.12-11.69,8.86-3,1.07-7.39,2.25-10.61,2.25ZM157.54,97.01c-2.08,0-5.62.55-10.08,2.13-6.92,2.46-10.55,5.46-10.47,6.31.47.68,5.18.73,12.1-1.74,6.88-2.45,10.51-5.43,10.47-6.3-.18-.25-.89-.41-2.02-.41ZM159.57,97.43h0,0Z"/>
    <path class="cls-3" d="M155.82,143.56h-.06c-3.03-.01-4.05-1.11-4.37-2.02-.55-1.56.61-3.4,3.27-5.17.46-.31,1.08-.18,1.39.28.31.46.18,1.08-.28,1.39-2.14,1.43-2.61,2.53-2.5,2.84.1.27.84.68,2.5.69,1.84,0,4.04-.43,6.33-1.25,3.02-1.07,5.6-2.62,6.73-4.05.34-.43.97-.5,1.41-.16.43.34.5.97.16,1.41-1.37,1.73-4.23,3.48-7.63,4.69-2.47.88-4.94,1.36-6.95,1.36Z"/>
    <path class="cls-3" d="M161.29,139.03c-.41,0-.8-.26-.94-.67l-5.17-14.54c-.18-.52.09-1.09.61-1.28.52-.18,1.09.09,1.28.61l5.17,14.54c.18.52-.09,1.09-.61,1.28-.11.04-.22.06-.33.06Z"/>
    <path class="cls-3" d="M151.12,125.35c-3.03,0-6.03-.88-8.66-2.61-4.18-2.74-6.77-7.18-7.1-12.17l-.32-4.74c-.04-.55.38-1.03.93-1.06.55-.04,1.03.38,1.06.93l.32,4.74c.29,4.36,2.55,8.23,6.2,10.63,3.65,2.4,8.1,2.93,12.22,1.47,5.1-1.81,8.69-6.48,9.15-11.89.05-.55.54-.96,1.08-.91.55.05.96.53.91,1.08-.52,6.19-4.63,11.53-10.47,13.6-1.75.62-3.54.93-5.33.93Z"/>
  </g>
  <ellipse class="cls-1" cx="185.32" cy="122.7" rx="3.43" ry="9.5" transform="translate(24 275.59) rotate(-76.97)"/>
  <path class="cls-3" d="M189.65,127.67c-1.63,0-3.47-.22-5.33-.65-3.68-.85-6.87-2.39-8.34-4.03-.37-.41-.33-1.04.08-1.41.41-.37,1.04-.34,1.41.08,1.19,1.32,4.05,2.66,7.3,3.42,2.36.55,4.64.73,6.43.52,1.64-.2,2.34-.69,2.4-.97.07-.32-.42-1.15-2.07-2.13-.47-.28-.63-.9-.35-1.37.28-.47.9-.63,1.37-.35,2.26,1.35,3.32,2.88,3,4.3-.22.94-1.11,2.14-4.11,2.5-.56.07-1.16.1-1.78.1Z"/>
  <path class="cls-3" d="M185.32,123.7c-.08,0-.15,0-.23-.03-.54-.12-.87-.66-.75-1.2l3.48-15.04c.12-.54.66-.87,1.2-.75.54.12.87.66.75,1.2l-3.48,15.04c-.11.46-.52.77-.97.77Z"/>
  <g>
    <path class="cls-3" d="M94.17,137.44c-10.54,0-27-5.35-41.91-12.92-11.88-6.03-22.36-13.1-29.5-19.9-7.42-7.07-10.4-13.14-8.39-17.1.25-.49.85-.69,1.34-.44.49.25.69.85.44,1.34-1.55,3.06,1.36,8.43,7.99,14.75,7.01,6.67,17.32,13.62,29.03,19.56,25.89,13.14,46.52,15.59,49.54,9.64.75-1.48.46-3.5-.85-5.99-.26-.49-.07-1.09.42-1.35.49-.26,1.09-.07,1.35.42,1.64,3.1,1.93,5.74.87,7.83-1.47,2.89-5.2,4.16-10.33,4.16Z"/>
    <circle class="cls-2" cx="35.5" cy="90.17" r="7.5"/>
    <path class="cls-2" d="M70.93,109.98c.92,2.01.95,4.41-.13,6.53-1.88,3.69-6.39,5.17-10.08,3.29s-5.17-6.39-3.29-10.08c1.88-3.69,6.39-5.17,10.08-3.29,1.57.8,2.74,2.07,3.42,3.55"/>
    <rect class="cls-2" x="75.29" y="101.28" width="13.93" height="13.93" rx="6.28" ry="6.28" transform="translate(57.91 -25.51) rotate(26.92)"/>
    <path class="cls-3" d="M35.39,88.79c-.52,0-.96-.41-1-.94l-.72-11.35c-.04-.55.38-1.03.93-1.06.54-.04,1.03.38,1.06.94l.72,11.35c.04.55-.38,1.03-.93,1.06-.02,0-.04,0-.06,0Z"/>
    <path class="cls-3" d="M65.37,111.12c-.12,0-.23-.02-.35-.06-.52-.19-.78-.77-.59-1.28l4.59-12.44c.19-.52.77-.78,1.28-.59.52.19.78.77.59,1.28l-4.59,12.44c-.15.4-.53.65-.94.65Z"/>
    <path class="cls-3" d="M35.48,98.33c-1.32,0-2.63-.31-3.84-.93-2.7-1.37-4.48-4.1-4.64-7.13-.03-.55.39-1.02.94-1.05.53-.04,1.02.39,1.05.94.13,2.31,1.49,4.4,3.55,5.45,1.55.79,3.31.92,4.96.38,1.65-.54,2.99-1.69,3.78-3.24,1.04-2.04.92-4.5-.31-6.44-.3-.47-.16-1.08.31-1.38.46-.29,1.08-.16,1.38.31,1.6,2.52,1.76,5.75.41,8.41-1.03,2.02-2.78,3.53-4.94,4.23-.87.28-1.76.42-2.65.42Z"/>
    <rect class="cls-2" x="34.67" y="93.36" width="14.01" height="14.01" rx="7" ry="7" transform="translate(49.94 -7.99) rotate(26.92)"/>
    <path class="cls-3" d="M41.67,108.36c-1.96,0-3.92-.71-5.46-2.15-3.22-3.01-3.4-8.09-.38-11.31,3.01-3.22,8.09-3.4,11.31-.38.4.38.42,1.01.05,1.41-.38.4-1.01.42-1.41.05-2.42-2.26-6.23-2.13-8.49.29-2.26,2.42-2.13,6.23.29,8.49,2.42,2.26,6.23,2.13,8.49-.29.38-.4,1.01-.42,1.41-.05.4.38.42,1.01.05,1.41-1.57,1.68-3.71,2.54-5.85,2.54Z"/>
    <path class="cls-3" d="M64.1,121.62c-1.32,0-2.63-.31-3.84-.93-4.18-2.12-5.85-7.25-3.73-11.43.25-.49.85-.69,1.34-.44.49.25.69.85.44,1.34-1.62,3.2-.34,7.12,2.86,8.74,1.55.79,3.31.92,4.96.38s2.99-1.69,3.78-3.24c.78-1.54.92-3.29.39-4.94-.17-.53.12-1.09.65-1.26.53-.17,1.09.12,1.26.65.69,2.15.51,4.44-.51,6.45-1.03,2.02-2.78,3.53-4.94,4.23-.87.28-1.76.42-2.65.42Z"/>
    <path class="cls-3" d="M82.25,116.22c-1.24,0-2.46-.29-3.6-.87-.49-.25-.69-.85-.44-1.34.25-.49.85-.69,1.34-.44,1.42.72,3.04.85,4.55.35,1.51-.49,2.75-1.55,3.47-2.97,1.49-2.93.31-6.53-2.62-8.02-1.42-.72-3.04-.85-4.55-.35s-2.75,1.55-3.47,2.97c-.25.49-.85.69-1.34.44-.49-.25-.69-.85-.44-1.34.96-1.9,2.61-3.31,4.63-3.97,2.02-.66,4.18-.49,6.08.47,3.92,1.99,5.49,6.79,3.5,10.71-.96,1.9-2.61,3.31-4.63,3.97-.81.27-1.65.4-2.48.4Z"/>
    <rect class="cls-2" x="82.41" y="110.5" width="14.66" height="14.66" rx="6.28" ry="6.28" transform="translate(96.77 -30.11) rotate(40.02)"/>
    <path class="cls-3" d="M92.5,117.66c-.3,0-.6-.14-.8-.39-.33-.44-.25-1.07.19-1.4l10.02-7.65c.44-.34,1.07-.25,1.4.19.33.44.25,1.07-.19,1.4l-10.02,7.65c-.18.14-.4.21-.61.21Z"/>
    <path class="cls-3" d="M85.02,124.44c-.23,0-.46-.08-.64-.23-1.71-1.43-2.75-3.44-2.94-5.66-.19-2.22.49-4.38,1.92-6.08s3.44-2.75,5.66-2.94c2.21-.19,4.38.49,6.08,1.92.42.36.48.99.12,1.41-.35.42-.99.48-1.41.12-1.3-1.09-2.95-1.61-4.62-1.46-1.68.15-3.21.94-4.3,2.24s-1.61,2.94-1.46,4.62c.15,1.68.94,3.21,2.24,4.3.42.36.48.99.12,1.41-.2.24-.48.36-.77.36Z"/>
    <path class="cls-3" d="M95.35,123.54c-.23,0-.45-.08-.64-.23-.42-.36-.48-.99-.12-1.41,1.09-1.29,1.6-2.94,1.46-4.62-.15-1.68-.94-3.21-2.24-4.3-.42-.36-.48-.99-.12-1.41.35-.42.98-.48,1.41-.12,1.7,1.43,2.75,3.44,2.94,5.66.19,2.22-.49,4.38-1.92,6.08-.2.24-.48.36-.77.36Z"/>
  </g>
  <g>
    <path class="cls-3" d="M161.7,85.99c-.21,0-.42-.06-.59-.2-.44-.33-.54-.96-.21-1.4l6.79-9.16c.33-.44.96-.54,1.4-.21.44.33.54.96.21,1.4l-6.79,9.16c-.2.27-.5.4-.8.4Z"/>
    <path class="cls-3" d="M169.74,84.86c-.21,0-.42-.06-.59-.2l-9.23-6.84c-.44-.33-.54-.96-.21-1.4.33-.44.96-.54,1.4-.21l9.23,6.84c.44.33.54.96.21,1.4-.2.26-.5.4-.8.4Z"/>
    <path class="cls-3" d="M165.93,87.05c-.49,0-.91-.36-.99-.85l-1.67-11.27c-.08-.55.3-1.06.84-1.14.54-.08,1.05.3,1.14.84l1.67,11.27c.08.55-.3,1.06-.84,1.14-.05,0-.1.01-.15.01Z"/>
    <path class="cls-3" d="M159.45,82.25c-.49,0-.91-.36-.99-.85-.08-.55.3-1.05.84-1.14l11.27-1.68c.55-.08,1.05.3,1.14.84.08.55-.3,1.05-.84,1.14l-11.27,1.68s-.1.01-.15.01Z"/>
  </g>
</svg>