<svg width="230" height="160" viewBox="0 0 230 160" fill="none" xmlns="http://www.w3.org/2000/svg">
<g clip-path="url(#clip0_1954_93978)">
<g clip-path="url(#clip1_1954_93978)">
<path d="M255 45.432C58.388 45.432 -101 62.928 -101 84.512V97.412C-101 102.848 -90.888 108.024 -72.62 112.728H-72.64L-71.16 213.176H-62.284L-60.844 115.46L-60.908 115.444C-1.54 127.952 117.64 136.492 255 136.492C392.36 136.492 511.54 127.952 570.908 115.444L570.844 115.46L572.284 213.176H581.16L582.64 112.724H582.62C600.888 108.024 611 102.848 611 97.412V84.512C611 62.928 451.612 45.432 255 45.432Z" fill="white"/>
<path d="M255 124.44C159.872 124.44 70.436 120.372 3.16 112.988C-29.584 109.392 -55.3 105.204 -73.276 100.54C-92.604 95.52 -102 90.228 -102 84.36C-102 78.492 -92.604 73.196 -73.276 68.18C-55.3 63.516 -29.584 59.328 3.16 55.732C70.436 48.344 159.872 44.28 255 44.28C350.128 44.28 439.564 48.348 506.84 55.732C539.58 59.328 565.3 63.516 583.276 68.18C602.604 73.196 612 78.488 612 84.36C612 90.232 602.604 95.524 583.276 100.54C565.3 105.204 539.584 109.392 506.84 112.988C439.564 120.372 350.128 124.44 255 124.44ZM255 46.28C233.7 46.28 212.688 46.484 192.148 46.884C121.012 48.268 55.524 51.996 3.38 57.72C-29.268 61.304 -54.888 65.476 -72.772 70.116C-96.464 76.264 -100 81.68 -100 84.36C-100 87.04 -96.464 92.456 -72.772 98.604C-54.888 103.244 -29.268 107.416 3.38 111C70.584 118.376 159.944 122.44 255 122.44C350.056 122.44 439.416 118.376 506.62 111C539.268 107.416 564.888 103.244 582.772 98.604C606.464 92.456 610 87.04 610 84.36C610 81.68 606.464 76.264 582.772 70.116C564.888 65.476 539.268 61.304 506.62 57.72C439.416 50.34 350.056 46.28 255 46.28Z" fill="#231F20"/>
<path d="M255 137.34C159.872 137.34 70.436 133.272 3.16 125.888C-29.584 122.292 -55.3 118.104 -73.276 113.44C-92.604 108.424 -102 103.132 -102 97.2601C-102 96.7081 -101.552 96.2601 -101 96.2601C-100.448 96.2601 -100 96.7081 -100 97.2601C-100 99.9401 -96.464 105.356 -72.772 111.504C-54.888 116.144 -29.268 120.316 3.38 123.9C70.584 131.276 159.944 135.34 255 135.34C350.056 135.34 439.416 131.276 506.62 123.9C539.268 120.316 564.888 116.144 582.772 111.504C606.464 105.356 610 99.9401 610 97.2601C610 96.7081 610.448 96.2601 611 96.2601C611.552 96.2601 612 96.7081 612 97.2601C612 103.132 602.604 108.424 583.276 113.44C565.3 118.104 539.584 122.292 506.84 125.888C439.564 133.272 350.128 137.34 255 137.34Z" fill="#231F20"/>
<path d="M167.104 74.4206C167.104 72.4046 172.492 70.7726 179.136 70.7726C185.78 70.7726 191.168 72.4046 191.168 74.4206" fill="white"/>
<path d="M186.171 80.4206C185.619 80.4206 185.171 79.9726 185.171 79.4206C185.171 78.6286 181.419 76.7726 174.139 76.7726C166.859 76.7726 163.107 78.6286 163.107 79.4206C163.107 79.9726 162.659 80.4206 162.107 80.4206C161.555 80.4206 161.107 79.9726 161.107 79.4206C161.107 76.2286 167.863 74.7726 174.139 74.7726C180.415 74.7726 187.171 76.2286 187.171 79.4206C187.171 79.9726 186.723 80.4206 186.171 80.4206Z" fill="#231F20"/>
<path d="M174.136 110.877C166.708 110.877 161.104 108.249 161.104 104.769V79.4205C161.104 78.8685 161.552 78.4205 162.104 78.4205C162.656 78.4205 163.104 78.8685 163.104 79.4205V104.769C163.104 106.709 167.824 108.877 174.136 108.877C180.448 108.877 185.168 106.709 185.168 104.769V79.4205C185.168 78.8685 185.616 78.4205 186.168 78.4205C186.72 78.4205 187.168 78.8685 187.168 79.4205V104.769C187.168 108.253 181.564 110.877 174.136 110.877Z" fill="#231F20"/>
<path d="M166.091 83.1325C165.631 83.1325 165.215 82.8125 165.115 82.3445L161.935 67.7485C161.819 67.2085 162.159 66.6765 162.699 66.5605C163.239 66.4445 163.771 66.7845 163.887 67.3245L167.067 81.9205C167.183 82.4605 166.843 82.9925 166.303 83.1085C166.231 83.1245 166.159 83.1325 166.091 83.1325Z" fill="#231F20"/>
<path d="M168.891 81.9645L167.123 61.7725L171.467 60.7765L173.063 82.3005" fill="white"/>
<path d="M173.063 83.3004C172.543 83.3004 172.107 82.9004 172.067 82.3764L170.555 62.0124L168.199 62.5524L169.891 81.8804C169.939 82.4324 169.531 82.9164 168.983 82.9644C168.431 83.0124 167.947 82.6044 167.899 82.0564L166.131 61.8604C166.087 61.3644 166.419 60.9084 166.903 60.8004L171.243 59.8044C171.527 59.7404 171.827 59.8044 172.059 59.9724C172.295 60.1444 172.443 60.4124 172.463 60.7044L174.063 82.2284C174.103 82.7804 173.691 83.2604 173.139 83.3004C173.115 83.3004 173.087 83.3004 173.063 83.3004Z" fill="#231F20"/>
<path d="M176.439 82.3005L176.731 67.5405L178.675 62.5925L180.623 67.5405L180.523 82.3005" fill="white"/>
<path d="M176.44 83.3005C176.44 83.3005 176.428 83.3005 176.42 83.3005C175.868 83.2885 175.428 82.8325 175.44 82.2805L175.732 67.5205C175.732 67.4005 175.756 67.2845 175.8 67.1725L177.748 62.2245C177.9 61.8405 178.268 61.5925 178.68 61.5925C179.092 61.5925 179.46 61.8445 179.612 62.2245L181.56 67.1725C181.608 67.2925 181.632 67.4165 181.628 67.5445L181.528 82.3045C181.528 82.8525 181.076 83.2965 180.528 83.2965H180.52C179.968 83.2965 179.524 82.8405 179.528 82.2885L179.624 67.7205L178.68 65.3205L177.732 67.7365L177.444 82.3165C177.432 82.8605 176.988 83.2965 176.444 83.2965L176.44 83.3005Z" fill="#231F20"/>
<path d="M174.136 84.0685C167.86 84.0685 161.104 82.6125 161.104 79.4205C161.104 78.8685 161.552 78.4205 162.104 78.4205C162.656 78.4205 163.104 78.8685 163.104 79.4205C163.104 80.2125 166.856 82.0685 174.136 82.0685C181.416 82.0685 185.168 80.2125 185.168 79.4205C185.168 78.8685 185.616 78.4205 186.168 78.4205C186.72 78.4205 187.168 78.8685 187.168 79.4205C187.168 82.6125 180.412 84.0685 174.136 84.0685Z" fill="#231F20"/>
<path d="M46.3879 91.5164C46.3879 91.5164 55.0559 81.4724 71.0919 83.1204L43.3119 74.7564C43.3119 74.7564 29.2959 73.8164 19.4199 82.2244L46.3919 91.5164H46.3879Z" fill="white"/>
<path d="M67.8443 74.9599C67.7443 74.9599 67.6483 74.9439 67.5523 74.9159L49.4203 69.3759C48.9803 69.2399 48.6883 68.8239 48.7123 68.3679C48.7363 67.9119 49.0683 67.5279 49.5203 67.4399L79.7403 61.5959C79.8803 61.5679 80.0203 61.5719 80.1603 61.6039L99.3963 66.1399C99.8523 66.2479 100.172 66.6559 100.168 67.1199C100.168 67.5879 99.8363 67.9879 99.3803 68.0879L68.0563 74.9359C67.9843 74.9519 67.9163 74.9599 67.8443 74.9599ZM53.8483 68.6399L67.8843 72.9279L94.6563 67.0759L79.9123 63.5999L53.8483 68.6399Z" fill="#231F20"/>
<path d="M67.8437 81.8599C67.6197 81.8599 67.3998 81.7839 67.2198 81.6439C66.9798 81.4559 66.8438 81.1679 66.8438 80.8599V73.9599C66.8438 73.4079 67.2917 72.9599 67.8437 72.9599C68.3957 72.9599 68.8437 73.4079 68.8437 73.9599V79.6039L98.1677 72.8439V67.1119C98.1677 66.5599 98.6157 66.1119 99.1677 66.1119C99.7197 66.1119 100.168 66.5599 100.168 67.1119V73.6399C100.168 74.1039 99.8477 74.5079 99.3917 74.6159L68.0677 81.8399C67.9917 81.8559 67.9197 81.8639 67.8437 81.8639V81.8599Z" fill="#231F20"/>
<path d="M67.8449 81.8598C67.7449 81.8598 67.6409 81.8438 67.5409 81.8118L49.4089 76.0478C48.9929 75.9158 48.7129 75.5318 48.7129 75.0958V68.4158C48.7129 67.8638 49.1609 67.4158 49.7129 67.4158C50.2649 67.4158 50.7129 67.8638 50.7129 68.4158V74.3638L68.1449 79.9038C68.6729 80.0718 68.9609 80.6318 68.7969 81.1598C68.6609 81.5838 68.2689 81.8558 67.8449 81.8558V81.8598Z" fill="#231F20"/>
<path d="M69.392 94.2959C69.288 94.2959 69.188 94.2799 69.088 94.2479L40.696 85.2439C40.28 85.1119 40 84.7279 40 84.2919V73.3159C40 72.8479 40.324 72.4399 40.784 72.3399L49.496 70.4119C50.036 70.2919 50.568 70.6319 50.688 71.1719C50.808 71.7119 50.468 72.2439 49.928 72.3639L42 74.1199V83.5639L69.424 92.2599L103.86 83.6079V73.3199L98.976 72.3719C98.432 72.2679 98.08 71.7399 98.184 71.1999C98.288 70.6559 98.816 70.3039 99.356 70.4079L105.048 71.5159C105.516 71.6079 105.856 72.0199 105.856 72.4959V84.3879C105.856 84.8479 105.544 85.2479 105.1 85.3559L69.632 94.2679C69.552 94.2879 69.468 94.2999 69.388 94.2999L69.392 94.2959Z" fill="#231F20"/>
<path d="M72.0439 89.2278C70.6199 89.2278 69.3239 88.2558 68.9719 86.8158C68.7719 85.9958 68.9039 85.1478 69.3439 84.4278C69.7839 83.7078 70.4759 83.1998 71.2959 82.9998L98.6119 76.3598C100.304 75.9478 102.016 76.9918 102.428 78.6838C102.84 80.3758 101.796 82.0878 100.104 82.4998L72.7879 89.1398C72.5399 89.1998 72.2879 89.2278 72.0439 89.2278ZM99.3599 78.2678C99.2679 78.2678 99.1759 78.2798 99.0879 78.2998L71.7719 84.9398C71.4719 85.0118 71.2159 85.1998 71.0559 85.4638C70.8959 85.7278 70.8479 86.0398 70.9199 86.3398C71.0719 86.9598 71.6999 87.3438 72.3199 87.1918L99.6359 80.5518C100.256 80.3998 100.64 79.7718 100.488 79.1518C100.36 78.6238 99.8839 78.2678 99.3599 78.2678Z" fill="#231F20"/>
<path d="M69.3926 101.184C69.1766 101.184 68.9646 101.112 68.7886 100.98C68.5406 100.792 68.3926 100.496 68.3926 100.184V93.2959C68.3926 92.7439 68.8406 92.2959 69.3926 92.2959C69.9446 92.2959 70.3926 92.7439 70.3926 93.2959V98.8719L107.445 88.6279V82.9559L104.573 82.0959C104.045 81.9359 103.745 81.3799 103.901 80.8519C104.061 80.3239 104.617 80.0239 105.145 80.1799L108.729 81.2559C109.153 81.3839 109.441 81.7719 109.441 82.2119V89.3879C109.441 89.8359 109.141 90.2319 108.709 90.3519L69.6566 101.148C69.5686 101.172 69.4806 101.184 69.3886 101.184H69.3926Z" fill="#231F20"/>
<path d="M69.3924 101.184C69.2884 101.184 69.1844 101.168 69.0844 101.136L43.0084 92.6518C42.5964 92.5198 42.3164 92.1358 42.3164 91.6998V84.8918C42.3164 84.3398 42.7644 83.8918 43.3164 83.8918C43.8684 83.8918 44.3164 84.3398 44.3164 84.8918V90.9718L69.7044 99.2318C70.2284 99.4038 70.5164 99.9678 70.3444 100.492C70.2084 100.916 69.8164 101.184 69.3924 101.184Z" fill="#231F20"/>
</g>
</g>
<defs>
<clipPath id="clip0_1954_93978">
<rect width="230" height="160" rx="8" fill="white"/>
</clipPath>
<clipPath id="clip1_1954_93978">
<rect width="720" height="170" fill="white" transform="translate(-105 45)"/>
</clipPath>
</defs>
</svg>
