<svg width="230" height="160" viewBox="0 0 230 160" fill="none" xmlns="http://www.w3.org/2000/svg">
<g clip-path="url(#clip0_1954_93899)">
<g clip-path="url(#clip1_1954_93899)">
<path d="M255 45.432C58.388 45.432 -101 62.928 -101 84.512V97.412C-101 102.848 -90.888 108.024 -72.62 112.728H-72.64L-71.16 213.176H-62.284L-60.844 115.46L-60.908 115.444C-1.53999 127.952 117.64 136.492 255 136.492C392.36 136.492 511.54 127.952 570.908 115.444L570.844 115.46L572.284 213.176H581.16L582.64 112.724H582.62C600.888 108.024 611 102.848 611 97.412V84.512C611 62.928 451.612 45.432 255 45.432Z" fill="white"/>
<path d="M255 124.44C159.872 124.44 70.436 120.372 3.16 112.988C-29.584 109.392 -55.3 105.204 -73.276 100.54C-92.604 95.52 -102 90.228 -102 84.36C-102 78.492 -92.604 73.196 -73.276 68.18C-55.3 63.516 -29.584 59.328 3.16 55.732C70.436 48.344 159.872 44.28 255 44.28C350.128 44.28 439.564 48.348 506.84 55.732C539.58 59.328 565.3 63.516 583.276 68.18C602.604 73.196 612 78.488 612 84.36C612 90.232 602.604 95.524 583.276 100.54C565.3 105.204 539.584 109.392 506.84 112.988C439.564 120.372 350.128 124.44 255 124.44ZM255 46.28C159.944 46.28 70.584 50.344 3.38 57.72C-29.268 61.304 -54.888 65.476 -72.772 70.116C-96.464 76.264 -100 81.68 -100 84.36C-100 87.04 -96.464 92.456 -72.772 98.604C-54.888 103.244 -29.268 107.416 3.38 111C70.584 118.376 159.944 122.44 255 122.44C350.056 122.44 439.416 118.376 506.62 111C539.268 107.416 564.888 103.244 582.772 98.604C606.464 92.456 610 87.04 610 84.36C610 81.68 606.464 76.264 582.772 70.116C564.888 65.476 539.268 61.304 506.62 57.72C439.416 50.34 350.056 46.28 255 46.28Z" fill="#231F20"/>
<path d="M255 137.34C159.872 137.34 70.436 133.272 3.16 125.888C-29.584 122.292 -55.3 118.104 -73.276 113.44C-92.604 108.424 -102 103.132 -102 97.2601C-102 96.7081 -101.552 96.2601 -101 96.2601C-100.448 96.2601 -100 96.7081 -100 97.2601C-100 99.9401 -96.464 105.356 -72.772 111.504C-54.888 116.144 -29.268 120.316 3.38 123.9C70.584 131.276 159.944 135.34 255 135.34C350.056 135.34 439.416 131.276 506.62 123.9C539.268 120.316 564.888 116.144 582.772 111.504C606.464 105.356 610 99.9401 610 97.2601C610 96.7081 610.448 96.2601 611 96.2601C611.552 96.2601 612 96.7081 612 97.2601C612 103.132 602.604 108.424 583.276 113.44C565.3 118.104 539.584 122.292 506.84 125.888C439.564 133.272 350.128 137.34 255 137.34Z" fill="#231F20"/>
<path d="M57.532 91.8557C47.136 91.8557 37.344 90.4917 29.968 88.0117C22.252 85.4197 18 81.8277 18 77.9077C18 73.9877 22.248 70.3957 29.968 67.8037C37.344 65.3237 47.136 63.9597 57.532 63.9597C67.928 63.9597 77.72 65.3237 85.096 67.8037C92.812 70.3957 97.064 73.9877 97.064 77.9077C97.064 81.8277 92.816 85.4197 85.096 88.0117C77.72 90.4917 67.928 91.8557 57.532 91.8557ZM57.532 65.9557C35.08 65.9557 20 72.1357 20 77.9077C20 83.6797 35.08 89.8597 57.532 89.8597C79.984 89.8597 95.064 83.6797 95.064 77.9077C95.064 72.1357 79.984 65.9557 57.532 65.9557Z" fill="#231F20"/>
<path d="M32.753 76.9399C35.722 76.9399 38.129 74.5329 38.129 71.5639C38.129 68.5948 35.722 66.1879 32.753 66.1879C29.7839 66.1879 27.377 68.5948 27.377 71.5639C27.377 74.5329 29.7839 76.9399 32.753 76.9399Z" fill="white"/>
<path d="M32.753 77.9399C29.237 77.9399 26.377 75.0799 26.377 71.5639C26.377 68.0479 29.237 65.1879 32.753 65.1879C36.269 65.1879 39.129 68.0479 39.129 71.5639C39.129 75.0799 36.269 77.9399 32.753 77.9399ZM32.753 67.1879C30.341 67.1879 28.377 69.1519 28.377 71.5639C28.377 73.9759 30.341 75.9399 32.753 75.9399C35.165 75.9399 37.129 73.9759 37.129 71.5639C37.129 69.1519 35.165 67.1879 32.753 67.1879Z" fill="#231F20"/>
<path d="M41.3682 72.752C44.3373 72.752 46.7442 70.3451 46.7442 67.376C46.7442 64.4069 44.3373 62 41.3682 62C38.3991 62 35.9922 64.4069 35.9922 67.376C35.9922 70.3451 38.3991 72.752 41.3682 72.752Z" fill="white"/>
<path d="M41.3682 73.752C37.8522 73.752 34.9922 70.892 34.9922 67.376C34.9922 63.86 37.8522 61 41.3682 61C44.8842 61 47.7442 63.86 47.7442 67.376C47.7442 70.892 44.8842 73.752 41.3682 73.752ZM41.3682 63C38.9562 63 36.9922 64.964 36.9922 67.376C36.9922 69.788 38.9562 71.752 41.3682 71.752C43.7802 71.752 45.7442 69.788 45.7442 67.376C45.7442 64.964 43.7802 63 41.3682 63Z" fill="#231F20"/>
<path d="M49.0889 76.9399C52.058 76.9399 54.4649 74.5329 54.4649 71.5639C54.4649 68.5948 52.058 66.1879 49.0889 66.1879C46.1198 66.1879 43.7129 68.5948 43.7129 71.5639C43.7129 74.5329 46.1198 76.9399 49.0889 76.9399Z" fill="white"/>
<path d="M49.0889 77.9399C45.5729 77.9399 42.7129 75.0799 42.7129 71.5639C42.7129 68.0479 45.5729 65.1879 49.0889 65.1879C52.6049 65.1879 55.4649 68.0479 55.4649 71.5639C55.4649 75.0799 52.6049 77.9399 49.0889 77.9399ZM49.0889 67.1879C46.6769 67.1879 44.7129 69.1519 44.7129 71.5639C44.7129 73.9759 46.6769 75.9399 49.0889 75.9399C51.5009 75.9399 53.4649 73.9759 53.4649 71.5639C53.4649 69.1519 51.5009 67.1879 49.0889 67.1879Z" fill="#231F20"/>
<path d="M40.6045 82.3162C43.5736 82.3162 45.9805 79.9093 45.9805 76.9402C45.9805 73.9711 43.5736 71.5642 40.6045 71.5642C37.6354 71.5642 35.2285 73.9711 35.2285 76.9402C35.2285 79.9093 37.6354 82.3162 40.6045 82.3162Z" fill="white"/>
<path d="M40.6045 83.3162C37.0885 83.3162 34.2285 80.4562 34.2285 76.9402C34.2285 73.4242 37.0885 70.5642 40.6045 70.5642C44.1205 70.5642 46.9805 73.4242 46.9805 76.9402C46.9805 80.4562 44.1205 83.3162 40.6045 83.3162ZM40.6045 72.5642C38.1925 72.5642 36.2285 74.5282 36.2285 76.9402C36.2285 79.3522 38.1925 81.3162 40.6045 81.3162C43.0165 81.3162 44.9805 79.3522 44.9805 76.9402C44.9805 74.5282 43.0165 72.5642 40.6045 72.5642Z" fill="#231F20"/>
<path d="M43.7129 77.6878L66.7329 67.3718C66.7329 67.3718 69.6449 77.2118 58.4649 81.8438C58.4649 81.8438 49.5849 85.6518 43.7129 77.6878Z" fill="white"/>
<path d="M53.4891 83.7318C50.2491 83.7318 46.1411 82.6638 42.9091 78.2838C42.7291 78.0398 42.6691 77.7278 42.7451 77.4358C42.8211 77.1438 43.0291 76.8998 43.3051 76.7758L66.3251 66.4598C66.5891 66.3398 66.8891 66.3438 67.1531 66.4598C67.4171 66.5798 67.6131 66.8078 67.6931 67.0838C67.7251 67.1918 70.7211 77.8438 58.8491 82.7638C58.8091 82.7798 56.5331 83.7238 53.4891 83.7238V83.7318ZM45.3051 78.0718C50.5811 83.9998 57.7531 81.0638 58.0691 80.9278C66.1891 77.5638 66.3251 71.3678 65.9891 68.8038L45.3011 78.0718H45.3051Z" fill="#231F20"/>
<path d="M52.084 79.0634L75.104 68.7474C75.104 68.7474 78.016 78.5874 66.836 83.2194C66.836 83.2194 57.956 87.0274 52.084 79.0634Z" fill="white"/>
<path d="M61.8602 85.1076C58.6202 85.1076 54.5122 84.0396 51.2802 79.6596C51.1002 79.4156 51.0402 79.1036 51.1162 78.8116C51.1922 78.5196 51.4002 78.2756 51.6762 78.1516L74.6962 67.8356C74.9602 67.7156 75.2602 67.7196 75.5242 67.8356C75.7882 67.9556 75.9842 68.1836 76.0642 68.4596C76.0962 68.5676 79.0922 79.2196 67.2202 84.1396C67.1802 84.1556 64.9042 85.0996 61.8602 85.0996V85.1076ZM53.6802 79.4476C58.9962 85.3956 66.3642 82.3396 66.4442 82.3036C74.5642 78.9396 74.7002 72.7436 74.3682 70.1796L53.6802 79.4476Z" fill="#231F20"/>
<path d="M60.8281 81.4398L83.8481 71.1238C83.8481 71.1238 86.7601 80.9638 75.5801 85.5958C75.5801 85.5958 66.7001 89.4038 60.8281 81.4398Z" fill="white"/>
<path d="M70.6043 87.4839C67.3683 87.4839 63.2563 86.4159 60.0243 82.0359C59.8443 81.7919 59.7843 81.4799 59.8603 81.1879C59.9363 80.8959 60.1443 80.6519 60.4203 80.5279L83.4403 70.2119C83.7043 70.0919 84.0043 70.0959 84.2683 70.2119C84.5323 70.3319 84.7283 70.5599 84.8083 70.8359C84.8403 70.9439 87.8363 81.5959 75.9643 86.5159C75.9243 86.5319 73.6483 87.4759 70.6043 87.4759V87.4839ZM62.4243 81.8199C67.7003 87.7479 74.8723 84.8119 75.1883 84.6759C83.3083 81.3119 83.4443 75.1159 83.1083 72.5519L62.4203 81.8199H62.4243Z" fill="#231F20"/>
<path d="M173.632 105.947C162.952 105.947 152.896 104.699 145.32 102.427C137.26 100.015 133 96.7788 133 93.0788C133 89.3788 137.26 86.1428 145.32 83.7308C152.896 81.4628 162.952 80.2148 173.632 80.2148C184.312 80.2148 194.368 81.4628 201.944 83.7308C210.004 86.1428 214.264 89.3788 214.264 93.0788C214.264 96.7788 210.004 100.015 201.944 102.427C194.368 104.695 184.312 105.947 173.632 105.947ZM173.632 82.2108C163.14 82.2108 153.288 83.4308 145.896 85.6428C139.076 87.6868 135 90.4628 135 93.0748C135 95.6868 139.072 98.4668 145.896 100.507C153.292 102.723 163.14 103.939 173.632 103.939C184.124 103.939 193.976 102.719 201.368 100.507C208.192 98.4628 212.264 95.6868 212.264 93.0748C212.264 90.4628 208.192 87.6828 201.368 85.6428C193.972 83.4268 184.124 82.2108 173.632 82.2108Z" fill="#231F20"/>
<path d="M149.047 91.7231C152.361 91.7231 155.047 89.0369 155.047 85.7231C155.047 82.4094 152.361 79.7231 149.047 79.7231C145.733 79.7231 143.047 82.4094 143.047 85.7231C143.047 89.0369 145.733 91.7231 149.047 91.7231Z" fill="white"/>
<path d="M149.047 92.7231C145.187 92.7231 142.047 89.5831 142.047 85.7231C142.047 81.8631 145.187 78.7231 149.047 78.7231C152.907 78.7231 156.047 81.8631 156.047 85.7231C156.047 89.5831 152.907 92.7231 149.047 92.7231ZM149.047 80.7191C146.291 80.7191 144.047 82.9631 144.047 85.7191C144.047 88.4751 146.291 90.7191 149.047 90.7191C151.803 90.7191 154.047 88.4751 154.047 85.7191C154.047 82.9631 151.803 80.7191 149.047 80.7191Z" fill="#231F20"/>
<path d="M177.768 97.7231C181.081 97.7231 183.768 95.0369 183.768 91.7231C183.768 88.4094 181.081 85.7231 177.768 85.7231C174.454 85.7231 171.768 88.4094 171.768 91.7231C171.768 95.0369 174.454 97.7231 177.768 97.7231Z" fill="white"/>
<path d="M177.768 98.7231C173.908 98.7231 170.768 95.5831 170.768 91.7231C170.768 87.8631 173.908 84.7231 177.768 84.7231C181.628 84.7231 184.768 87.8631 184.768 91.7231C184.768 95.5831 181.628 98.7231 177.768 98.7231ZM177.768 86.7231C175.012 86.7231 172.768 88.9671 172.768 91.7231C172.768 94.4791 175.012 96.7231 177.768 96.7231C180.524 96.7231 182.768 94.4791 182.768 91.7231C182.768 88.9671 180.524 86.7231 177.768 86.7231Z" fill="#231F20"/>
<path d="M160.536 86.6953H155.98C154.463 86.6953 153.232 87.9256 153.232 89.4433V93.9993C153.232 95.517 154.463 96.7473 155.98 96.7473H160.536C162.054 96.7473 163.284 95.517 163.284 93.9993V89.4433C163.284 87.9256 162.054 86.6953 160.536 86.6953Z" fill="white"/>
<path d="M160.536 97.7512H155.98C153.912 97.7512 152.232 96.0712 152.232 94.0032V89.4472C152.232 87.3792 153.912 85.6992 155.98 85.6992H160.536C162.604 85.6992 164.284 87.3792 164.284 89.4472V94.0032C164.284 96.0712 162.604 97.7512 160.536 97.7512ZM155.98 87.6952C155.016 87.6952 154.232 88.4792 154.232 89.4432V93.9992C154.232 94.9632 155.016 95.7472 155.98 95.7472H160.536C161.5 95.7472 162.284 94.9632 162.284 93.9992V89.4432C162.284 88.4792 161.5 87.6952 160.536 87.6952H155.98Z" fill="#231F20"/>
<path d="M191.966 76.7231H187.41C185.892 76.7231 184.662 77.9535 184.662 79.4711V84.0271C184.662 85.5448 185.892 86.7751 187.41 86.7751H191.966C193.484 86.7751 194.714 85.5448 194.714 84.0271V79.4711C194.714 77.9535 193.484 76.7231 191.966 76.7231Z" fill="white"/>
<path d="M191.966 87.779H187.41C185.342 87.779 183.662 86.0991 183.662 84.0311V79.4751C183.662 77.4071 185.342 75.7271 187.41 75.7271H191.966C194.034 75.7271 195.714 77.4071 195.714 79.4751V84.0311C195.714 86.0991 194.034 87.779 191.966 87.779ZM187.41 77.7231C186.446 77.7231 185.662 78.5071 185.662 79.4711V84.0271C185.662 84.9911 186.446 85.7751 187.41 85.7751H191.966C192.93 85.7751 193.714 84.9911 193.714 84.0271V79.4711C193.714 78.5071 192.93 77.7231 191.966 77.7231H187.41Z" fill="#231F20"/>
<path d="M199.556 81.3232H195C193.482 81.3232 192.252 82.5536 192.252 84.0712V88.6272C192.252 90.1449 193.482 91.3752 195 91.3752H199.556C201.074 91.3752 202.304 90.1449 202.304 88.6272V84.0712C202.304 82.5536 201.074 81.3232 199.556 81.3232Z" fill="white"/>
<path d="M199.56 92.3791H195.004C192.936 92.3791 191.256 90.6991 191.256 88.6311V84.0751C191.256 82.0071 192.936 80.3271 195.004 80.3271H199.56C201.628 80.3271 203.308 82.0071 203.308 84.0751V88.6311C203.308 90.6991 201.628 92.3791 199.56 92.3791ZM195 82.3231C194.036 82.3231 193.252 83.1071 193.252 84.0711V88.6271C193.252 89.5911 194.036 90.3751 195 90.3751H199.556C200.52 90.3751 201.304 89.5911 201.304 88.6271V84.0711C201.304 83.1071 200.52 82.3231 199.556 82.3231H195Z" fill="#231F20"/>
<path d="M148.107 85.0633C147.683 85.0633 147.291 84.7953 147.155 84.3713L143.583 73.3113C143.415 72.7873 143.703 72.2233 144.227 72.0513C144.751 71.8833 145.315 72.1713 145.487 72.6953L149.059 83.7553C149.227 84.2793 148.939 84.8433 148.415 85.0153C148.311 85.0473 148.211 85.0633 148.107 85.0633Z" fill="#231F20"/>
<path d="M198.216 85.5228C198.164 85.5228 198.116 85.5228 198.064 85.5108C197.52 85.4268 197.144 84.9188 197.224 84.3708L198.976 72.8508C199.06 72.3028 199.572 71.9308 200.116 72.0108C200.66 72.0948 201.036 72.6028 200.956 73.1508L199.204 84.6708C199.128 85.1668 198.704 85.5188 198.216 85.5188V85.5228Z" fill="#231F20"/>
<path d="M177.767 91.3273C177.239 91.3273 176.795 90.9113 176.771 90.3753L176.187 78.5793C176.159 78.0273 176.583 77.5593 177.135 77.5313C177.687 77.5073 178.155 77.9273 178.183 78.4793L178.767 90.2753C178.795 90.8273 178.371 91.2953 177.819 91.3233C177.803 91.3233 177.787 91.3233 177.767 91.3233V91.3273Z" fill="#231F20"/>
</g>
</g>
<defs>
<clipPath id="clip0_1954_93899">
<rect width="230" height="160" rx="8" fill="white"/>
</clipPath>
<clipPath id="clip1_1954_93899">
<rect width="720" height="170" fill="white" transform="translate(-105 45)"/>
</clipPath>
</defs>
</svg>
