<?xml version="1.0" encoding="UTF-8"?>
<svg id="Layer_1" data-name="Layer 1" xmlns="http://www.w3.org/2000/svg" viewBox="0 0 230 160">
  <defs>
    <style>
      .cls-1 {
        fill: #00e291;
      }

      .cls-2 {
        fill: #fff;
      }

      .cls-3 {
        fill: #ffec4f;
      }

      .cls-4 {
        fill: #241f20;
      }

      .cls-5 {
        fill: #ff5e00;
      }
    </style>
  </defs>
  <rect class="cls-3" y="0" width="230" height="160"/>
  <ellipse class="cls-2" cx="157.68" cy="118.42" rx="51.9" ry="17.44" transform="translate(-27.87 51.66) rotate(-17.12)"/>
  <path class="cls-4" d="M116.56,141.73c-.08,0-.15,0-.23-.03-5.53-1.29-9-3.73-10.02-7.06-1.42-4.64,1.9-10.24,9.6-16.2.44-.34,1.06-.26,1.4.18.34.44.26,1.06-.18,1.4-6.89,5.33-10.05,10.32-8.91,14.04,1.01,3.29,5.21,4.91,8.56,5.7.54.13.87.66.75,1.2-.11.46-.52.77-.97.77Z"/>
  <path class="cls-4" d="M142.62,141.51c-.48,0-.91-.35-.99-.85-.08-.55.29-1.06.83-1.14,6.46-1.01,13.17-2.58,19.95-4.66,26.72-8.2,47.06-22.43,44.41-31.06-.16-.53.13-1.09.66-1.25s1.09.14,1.25.66c3.07,10.01-17.02,24.75-45.74,33.56-6.87,2.11-13.67,3.7-20.22,4.73-.05,0-.11.01-.16.01Z"/>
  <ellipse class="cls-2" cx="69.33" cy="61.31" rx="17.44" ry="51.9" transform="translate(-2.55 119.62) rotate(-80.53)"/>
  <path class="cls-5" d="M36.84,52.95s-4.55-15.39,15.56-15.88c6.09-.15,12.11,1.25,17.61,3.88,6,2.87,15.63,7.16,23.01,8.9,0,0-3.36-.9-3.21-.87,15.77,3.51,10.27,15.48,1.62,15.58-2.26.03-11.92-1.94-15.41-2.75,0,0-8.93-1.79-15.81.58-2.74.94-5.6,1.49-8.48,1.33-5.5-.31-13.01-2.33-14.89-10.76"/>
  <path class="cls-2" d="M185.49,49.31c.74-2.36-4.69-6.16-12.14-8.51-7.44-2.34-14.08-2.33-14.82.02,0,0-2.96,6.6-1.78,13.04h0c-4.75-.07-8.19,1.09-8.91,3.37-1.24,3.93,6.05,9.73,16.27,12.95,10.22,3.22,19.52,2.64,20.75-1.3.7-2.23-1.34-5.06-5.1-7.68l-.35-.11c4.71-4.61,6.08-11.78,6.08-11.78Z"/>
  <path class="cls-4" d="M89.56,82.53c-7.09,0-14.98-.66-23.27-2.04-29.3-4.88-50.91-16.71-49.21-26.93.39-2.32,1.9-4.35,4.51-6.06.46-.3,1.08-.17,1.38.29.3.46.17,1.08-.29,1.38-2.12,1.39-3.34,2.97-3.63,4.72-1.47,8.81,20.32,20.08,47.57,24.62,27.25,4.54,51.52.94,52.99-7.86.75-4.5-4.93-10.12-15.2-15.02-.5-.24-.71-.83-.47-1.33.24-.5.83-.71,1.33-.47,11.45,5.47,17.25,11.56,16.32,17.15-1.22,7.32-14.06,11.54-32.02,11.54Z"/>
  <path class="cls-4" d="M91.39,65.56c-2.53,0-12.28-2.01-15.6-2.78-.06-.01-8.73-1.7-15.26.55-3.12,1.07-6.1,1.54-8.87,1.38-8.63-.48-14.24-4.57-15.8-11.51-.16-.57-1.71-6.45,1.79-11.24,2.72-3.73,7.67-5.71,14.72-5.88,6.08-.15,12.31,1.23,18.06,3.97,5.54,2.65,13.08,5.99,19.6,7.96.94.21,1.79.44,2.58.7.39.1.66.18.66.18.14.04.26.1.37.19,7.14,2.74,7.31,7.36,7.15,8.87-.43,4.15-4.63,7.56-9.35,7.61h-.05ZM68.73,60.15c4.05,0,7.26.63,7.49.67,4.08.95,13.08,2.74,15.16,2.74.01,0,.03,0,.04,0,3.74-.04,7.05-2.65,7.38-5.82.31-2.98-2.12-5.52-6.62-7.06-7.19-1.8-16.22-5.77-22.61-8.83-5.46-2.61-11.39-3.92-17.15-3.78-6.39.16-10.81,1.85-13.15,5.05-3.02,4.13-1.5,9.5-1.48,9.55,0,.02.01.04.02.06,1.72,7.7,8.54,9.68,13.97,9.98,2.54.14,5.19-.28,8.1-1.28,2.88-.99,6.06-1.29,8.85-1.29Z"/>
  <path class="cls-4" d="M56.32,56.96c-4.82,0-8.7-.93-11.62-2.79-3.75-2.4-4.37-5.5-4.4-5.63-.1-.54.25-1.07.8-1.17.55-.1,1.06.25,1.17.79.02.12.55,2.46,3.59,4.37,3.42,2.14,10.46,3.95,24.62.38.54-.13,1.08.19,1.21.73s-.19,1.08-.72,1.21c-5.57,1.41-10.47,2.11-14.66,2.11Z"/>
  <ellipse class="cls-1" cx="97.97" cy="64.16" rx="6.24" ry="10.5" transform="translate(18.56 150.25) rotate(-80.53)"/>
  <path class="cls-4" d="M99.78,71.56c-.98,0-1.99-.08-3.01-.25-2.94-.49-5.61-1.64-7.5-3.25-2.04-1.73-2.98-3.78-2.65-5.79.49-2.95,3.7-5.09,8.17-5.45.54-.04,1.03.36,1.08.92.04.55-.37,1.03-.92,1.08-3.48.28-6.03,1.81-6.36,3.79-.21,1.28.48,2.68,1.97,3.93,1.63,1.37,3.95,2.37,6.54,2.8,2.59.43,5.11.24,7.09-.53,1.81-.7,2.92-1.8,3.13-3.08.09-.54.61-.91,1.15-.82.54.09.91.61.82,1.15-.33,2.01-1.89,3.65-4.38,4.62-1.51.59-3.28.89-5.14.89Z"/>
  <ellipse class="cls-1" cx="86.12" cy="66.91" rx="6.24" ry="10.5" transform="translate(5.96 140.86) rotate(-80.53)"/>
  <path class="cls-4" d="M87.97,74.31c-.98,0-2-.08-3.04-.26-6.36-1.06-10.82-5.03-10.15-9.03.67-4.01,6.17-6.32,12.53-5.25,3.68.61,6.95,2.3,8.74,4.5h0c1.17,1.44,1.66,3.01,1.41,4.53-.56,3.35-4.5,5.51-9.49,5.51ZM84.33,61.52c-3.96,0-7.2,1.53-7.58,3.83-.47,2.8,3.43,5.89,8.5,6.73,5.08.85,9.76-.81,10.23-3.61.2-1.19-.42-2.26-.98-2.94h0c-1.5-1.84-4.31-3.26-7.52-3.79-.9-.15-1.79-.22-2.65-.22Z"/>
  <path class="cls-4" d="M82.86,61.58c-.13,0-.26-.03-.38-.08-.13-.05-.24-.12-.33-.21-.18-.19-.29-.45-.29-.71s.11-.52.29-.71c.09-.09.2-.16.33-.21.24-.1.52-.1.76,0,.12.05.23.12.33.21.18.19.29.45.29.71s-.11.52-.29.71c-.1.09-.21.16-.33.21s-.25.08-.38.08Z"/>
  <path class="cls-4" d="M95.4,66.05c-.33,0-.66-.17-.85-.47-.29-.47-.15-1.08.32-1.38.47-.29,1.09-.15,1.38.32s.15,1.08-.32,1.38h0c-.17.11-.35.15-.53.15Z"/>
  <g>
    <path class="cls-2" d="M131.2,124.31s20.82,12.51,46.66-5.9c0,0-8.47-16.13-23.73-17.79,0,0-25.23,11.84-22.93,23.7Z"/>
    <path class="cls-2" d="M170.71,89.75c-21.44.15-36.45,10.62-36.45,10.62-23.72,10.03-17.22,29.21-17.22,29.21,13.34,6.32,19.91,4.25,19.91,4.25,0,0-9-21.38,19.43-30.4.07-.02.18-.04.26-.06,5.28,1.81,18.88,7.71,21.16,21.14,0,0,16.19-7.39,19.32-17.16-.46-4.75-4.14-8.56-8.19-11.38,0,0-6.8-6.31-18.23-6.23Z"/>
  </g>
  <path class="cls-4" d="M117.61,130.43c-.42,0-.81-.26-.95-.68-.06-.19-6.1-19.01,15-28.96.5-.24,1.09-.02,1.33.48s.02,1.1-.48,1.33c-19.46,9.17-14.19,25.81-13.96,26.51.17.52-.11,1.09-.63,1.26-.11.04-.21.05-.32.05Z"/>
  <path class="cls-4" d="M123.93,131.87c-.42,0-.8-.26-.95-.68-.07-.2-6.5-19.88,15.38-28.75.51-.21,1.1.04,1.3.55.21.51-.04,1.1-.55,1.3-20.1,8.15-14.49,25.52-14.24,26.25.18.52-.1,1.09-.63,1.27-.11.04-.21.05-.32.05Z"/>
  <path class="cls-4" d="M130.26,133.3c-.39,0-.76-.23-.92-.62-.08-.19-7.43-18.69,15.61-28.94.51-.23,1.1,0,1.32.51.22.5,0,1.1-.51,1.32-21.22,9.44-14.86,25.66-14.57,26.35.21.51-.03,1.09-.54,1.3-.12.05-.25.08-.38.08Z"/>
  <path class="cls-4" d="M136.58,134.74c-.35,0-.69-.18-.87-.51-.14-.25-3.47-6.27-.98-13.91,2.31-7.07,8.74-13.03,19.12-17.72.5-.23,1.1,0,1.32.5.23.5,0,1.1-.5,1.32-9.83,4.44-15.89,9.98-18.03,16.48-2.23,6.79.78,12.29.81,12.34.27.48.1,1.09-.38,1.36-.16.09-.32.13-.49.13Z"/>
  <path class="cls-4" d="M148.21,129.6c-8.1,0-13.06-2.5-13.43-2.7-.49-.26-.68-.86-.42-1.35.25-.49.86-.68,1.35-.42.04.02,4.02,2.05,10.65,2.38,6.12.3,15.82-.82,27.26-7.91.47-.29,1.09-.15,1.38.32.29.47.15,1.09-.32,1.38-10.5,6.5-19.61,8.29-26.47,8.29Z"/>
  <path class="cls-4" d="M147.02,123.47c-5.26,0-9.02-1.03-10.64-1.83-.49-.25-.7-.85-.45-1.34.25-.49.85-.69,1.34-.45,4.25,2.12,18.16,3.63,33.97-5.23.48-.27,1.09-.1,1.36.38.27.48.1,1.09-.38,1.36-9.87,5.54-18.69,7.12-25.2,7.12Z"/>
  <path class="cls-4" d="M147.04,117.72c-3.58,0-6.43-.52-8.26-1.16-.52-.18-.8-.75-.62-1.27.18-.52.75-.8,1.27-.62,4.15,1.43,15.37,2.36,28.11-4.39.49-.26,1.09-.07,1.35.42.26.49.07,1.09-.42,1.35-8.18,4.33-15.73,5.66-21.43,5.66Z"/>
  <path class="cls-5" d="M137.32,93.23c2.06.02,4.04,1.15,5.05,3.1,1.46,2.82.36,6.29-2.46,7.75-2.82,1.46-6.29.36-7.75-2.46-1.46-2.82-.36-6.29,2.46-7.75.86-.45,1.79-.66,2.7-.65"/>
  <path class="cls-4" d="M149.56,111.75c-1.64,0-3.15-.13-4.57-.3-.55-.06-.94-.56-.88-1.11.06-.55.55-.95,1.11-.88,4.59.52,10.17.74,18.34-3.4.5-.25,1.09-.05,1.34.44.25.49.05,1.09-.44,1.34-6.14,3.11-10.91,3.9-14.9,3.9Z"/>
  <path class="cls-4" d="M176.1,121.27c-.39,0-.75-.23-.92-.6-8.73-20.1-32.46-18.07-32.7-18.05-.55.05-1.04-.35-1.09-.9-.05-.55.35-1.04.9-1.09.26-.02,25.41-2.21,34.73,19.24.22.51-.01,1.1-.52,1.32-.13.06-.26.08-.4.08Z"/>
  <path class="cls-4" d="M182.04,118.12c-.39,0-.76-.23-.92-.62-8.04-19.39-33.69-18.68-33.95-18.67-.58.04-1.02-.41-1.04-.96-.02-.55.41-1.02.96-1.04.26,0,27.3-.78,35.87,19.9.21.51-.03,1.1-.54,1.31-.12.05-.25.08-.38.08Z"/>
  <path class="cls-4" d="M185.15,110.25c-.32,0-.64-.15-.83-.44-7.21-10.65-23.38-13.94-28.16-14.7-.55-.09-.92-.6-.83-1.14.09-.55.6-.92,1.14-.83,6.39,1.01,22.05,4.54,29.5,15.55.31.46.19,1.08-.27,1.39-.17.12-.37.17-.56.17Z"/>
  <path class="cls-4" d="M192.34,113.26c-.43,0-.82-.28-.96-.71-3.96-12.9-16.76-18.67-24.64-18.67-.03,0-.06,0-.08,0-.55,0-1-.44-1-1,0-.55.44-1,1-1h.08c8.5,0,22.3,6.21,26.56,20.08.16.53-.13,1.09-.66,1.25-.1.03-.2.04-.29.04Z"/>
  <path class="cls-4" d="M196.75,108.26c-.43,0-.82-.28-.96-.71-3.91-12.73-18.22-18.79-26.36-17.37-.55.09-1.06-.27-1.16-.81-.09-.54.27-1.06.81-1.16,4.86-.84,10.97.56,16.37,3.76,6.03,3.58,10.38,8.91,12.25,15,.16.53-.13,1.09-.66,1.25-.1.03-.2.04-.29.04Z"/>
  <circle class="cls-5" cx="165.35" cy="91.48" r="5.75"/>
  <path class="cls-4" d="M137.28,105.73c-2.44,0-4.8-1.33-6-3.64-.42-.8-.66-1.66-.74-2.55-.04-.55.37-1.03.92-1.08.57-.05,1.03.36,1.08.92.05.63.23,1.23.52,1.8,1.21,2.33,4.08,3.24,6.4,2.03,1.13-.58,1.96-1.57,2.34-2.78s.27-2.5-.31-3.62c-.96-1.84-2.97-2.85-5.01-2.5-.55.1-1.06-.27-1.15-.82-.09-.54.27-1.06.82-1.15,2.91-.49,5.76.93,7.12,3.55.83,1.6.99,3.43.44,5.15-.54,1.72-1.73,3.12-3.33,3.95-.99.51-2.05.76-3.1.76Z"/>
  <path class="cls-4" d="M165.35,98.23c-1.09,0-2.17-.27-3.15-.79-1.59-.84-2.76-2.26-3.29-3.98-.53-1.72-.36-3.55.49-5.14s2.26-2.76,3.98-3.29c.53-.16,1.09.13,1.25.66.16.53-.13,1.09-.66,1.25-1.21.37-2.21,1.19-2.8,2.31-.59,1.12-.72,2.41-.34,3.62.37,1.21,1.19,2.21,2.31,2.8s2.4.72,3.62.34c2.5-.77,3.91-3.43,3.15-5.93-.2-.66-.54-1.25-.99-1.76-.37-.41-.33-1.04.08-1.41.41-.37,1.04-.33,1.41.08.65.73,1.12,1.57,1.41,2.51,1.09,3.56-.92,7.34-4.47,8.43-.65.2-1.32.3-1.99.3Z"/>
  <circle class="cls-5" cx="155.38" cy="90.46" r="5.92"/>
  <path class="cls-4" d="M155.37,97.38c-1.12,0-2.22-.27-3.23-.81-1.63-.87-2.83-2.32-3.37-4.08-.59-1.93-.31-4.02.76-5.72.3-.47.92-.61,1.38-.31.47.29.61.91.31,1.38-.77,1.21-.96,2.7-.54,4.07.39,1.26,1.24,2.29,2.4,2.9,1.16.62,2.49.74,3.75.36,1.26-.39,2.29-1.24,2.9-2.4.62-1.16.74-2.49.36-3.75-.29-.94-.85-1.77-1.61-2.38-.43-.35-.5-.98-.15-1.41.35-.43.97-.5,1.41-.15,1.08.87,1.86,2.03,2.27,3.35.54,1.77.36,3.64-.5,5.27s-2.32,2.83-4.08,3.37c-.67.21-1.36.31-2.04.31Z"/>
  <circle class="cls-5" cx="147.21" cy="98.6" r="6.46"/>
  <g>
    <path class="cls-1" d="M200.14,102c.5.9-1.13,2.31-1.2,3.34-.06.96,1.49,2.46,1,3.4-.45.85-2.61.52-3.37,1.26-.69.68-.35,2.84-1.27,3.36s-2.58-.92-3.52-.69c-1.03.25-1.89,2.26-2.85,2.19-1.06-.08-1.52-2.19-2.36-2.64-.9-.49-2.97.15-3.46-.74s1.13-2.31,1.2-3.34c.06-.96-1.49-2.46-1-3.4.45-.85,2.61-.52,3.37-1.26.69-.68.35-2.84,1.27-3.36s2.58.92,3.52.69c1.03-.25,1.89-2.26,2.85-2.19,1.06.08,1.52,2.19,2.36,2.64.9.49,2.97-.15,3.46.74Z"/>
    <path class="cls-4" d="M189,115.86s-.09,0-.13,0c-1.13-.08-1.72-1.1-2.2-1.92-.16-.28-.43-.75-.57-.84-.16-.08-.74-.09-1.09-.09-.98,0-2.2-.02-2.77-1.04s.06-2.06.57-2.9c.18-.3.49-.8.5-.98,0-.16-.26-.64-.41-.92-.45-.84-1-1.88-.47-2.88.47-.89,1.5-1.06,2.41-1.21.35-.06,1-.17,1.14-.3.09-.12.18-.67.23-1,.15-.89.33-2,1.25-2.52.93-.51,1.96-.08,2.8.27.31.13.83.34.99.33.17-.05.6-.54.83-.81.61-.69,1.3-1.49,2.3-1.41,1.13.08,1.72,1.1,2.2,1.92.16.28.43.75.57.84.16.08.74.09,1.09.09.98,0,2.2.02,2.77,1.04.57,1.03-.06,2.07-.57,2.9-.18.3-.49.8-.5.98,0,.16.26.64.41.92.45.84,1,1.88.47,2.88-.47.89-1.5,1.06-2.41,1.21-.35.06-1,.17-1.14.3-.09.12-.18.67-.23,1-.15.89-.33,2-1.25,2.52-.93.51-1.96.08-2.8-.27-.31-.13-.84-.34-.99-.33-.17.05-.6.54-.84.81-.58.66-1.24,1.41-2.17,1.41ZM184.06,110.94c.25.05.68.05.96.05.7,0,1.43.01,2.03.33.61.33.99.97,1.35,1.59.15.26.42.72.6.89.18-.14.48-.47.67-.69.51-.58,1.09-1.24,1.88-1.44.75-.18,1.49.13,2.21.43.34.14.92.38,1.1.35.05-.1.15-.71.21-1.07.13-.77.26-1.57.8-2.11.58-.57,1.45-.71,2.21-.84.29-.05.76-.12.96-.21-.04-.19-.31-.69-.46-.97-.34-.63-.69-1.29-.64-1.98.04-.68.42-1.3.79-1.9.15-.24.38-.61.46-.85-.25-.05-.68-.05-.96-.05-.7,0-1.43-.01-2.03-.33-.61-.33-.99-.97-1.35-1.59-.15-.26-.42-.72-.6-.89-.18.14-.48.48-.67.69-.51.58-1.09,1.24-1.88,1.44-.75.18-1.49-.13-2.21-.43-.34-.14-.91-.38-1.1-.35-.05.1-.15.71-.21,1.07-.13.77-.26,1.57-.8,2.11-.58.57-1.45.71-2.21.84-.29.05-.75.12-.96.21.04.19.31.69.46.97.34.63.69,1.29.64,1.99-.04.68-.42,1.3-.79,1.9-.15.24-.38.61-.46.85Z"/>
  </g>
  <g>
    <path class="cls-4" d="M166.24,65.29c-.12,0-.23-.02-.35-.06-4.25-1.57-7.21-4.17-8.8-7.72-.23-.5,0-1.1.5-1.32.5-.23,1.1,0,1.32.5,1.37,3.04,3.95,5.29,7.67,6.66.52.19.78.77.59,1.29-.15.4-.53.65-.94.65Z"/>
    <g>
      <path class="cls-4" d="M170.57,65.88c-1.46,0-2.99-.21-4.58-.62-.54-.14-.86-.69-.72-1.22.14-.54.69-.85,1.22-.72,3.96,1.03,7.44.62,10.35-1.22,6.14-3.88,7.92-12.88,7.94-12.97.1-.54.63-.9,1.17-.79.54.1.9.63.8,1.17-.08.4-1.95,9.93-8.83,14.28-2.2,1.4-4.66,2.09-7.35,2.09Z"/>
      <path class="cls-4" d="M176.59,73.26c-3.72,0-8.1-.74-12.51-2.13-6.32-1.99-11.85-5.07-14.8-8.25-.38-.4-.35-1.04.05-1.41.4-.38,1.04-.35,1.41.05,2.72,2.93,7.93,5.81,13.93,7.7,4.83,1.52,9.59,2.23,13.38,1.99,3.38-.21,5.66-1.19,6.12-2.63.52-1.66-1.29-4.17-4.72-6.56-.45-.32-.57-.94-.25-1.39.31-.45.94-.57,1.39-.25,4.37,3.04,6.32,6.17,5.49,8.8-.73,2.32-3.54,3.75-7.9,4.03-.52.03-1.05.05-1.6.05Z"/>
      <path class="cls-5" d="M159.95,43.53c1.93,2.01,6.01,4.24,11,5.81s9.61,2.08,12.34,1.54c-1.93-2.01-6.01-4.24-11-5.81-4.99-1.57-9.61-2.08-12.34-1.54Z"/>
      <path class="cls-4" d="M185.41,60.69c-1.3,0-2.74-.14-4.3-.41-.54-.1-.91-.62-.81-1.16.1-.54.61-.91,1.16-.81,3.7.65,6.52.48,8.38-.51,1.81-.97,2-2.79,1.38-4.18-.55-1.22-1.9-2.38-3.86-1.65-1.02.38-1.73.98-1.74.99-.42.36-1.05.31-1.41-.11-.36-.42-.31-1.05.1-1.41.04-.03.98-.84,2.35-1.35,3.04-1.13,5.44.61,6.39,2.7,1,2.23.55,5.26-2.26,6.76-1.41.75-3.21,1.13-5.37,1.13Z"/>
      <path class="cls-4" d="M180.84,52.08c-2.89,0-6.51-.64-10.19-1.8-7.17-2.26-13.87-6.33-12.79-9.76.35-1.12,1.66-2.47,5.85-2.47h.03c2.89,0,6.51.64,10.19,1.8,3.7,1.16,7.04,2.72,9.41,4.38,3.43,2.41,3.73,4.25,3.38,5.38h0c-.35,1.12-1.66,2.47-5.85,2.47h-.03ZM163.74,40.05h-.03c-2.48,0-3.78.56-3.94,1.07-.35,1.12,3.38,4.7,11.48,7.25,3.49,1.1,6.9,1.7,9.59,1.7h.03c2.48,0,3.78-.56,3.94-1.07h0c.16-.51-.59-1.72-2.62-3.14-2.21-1.55-5.36-3.01-8.86-4.11-3.49-1.1-6.9-1.7-9.59-1.7Z"/>
    </g>
  </g>
  <g>
    <path class="cls-4" d="M132.84,41.63c-.18,0-.35-.05-.51-.14-.47-.28-.63-.9-.34-1.37l5.87-9.77c.28-.47.9-.63,1.37-.34.47.28.63.9.34,1.37l-5.87,9.77c-.19.31-.52.48-.86.48Z"/>
    <path class="cls-4" d="M140.66,39.68c-.17,0-.35-.05-.51-.14l-4.94-2.97c-.47-.28-.63-.9-.34-1.37.28-.47.9-.63,1.37-.34l4.94,2.97c.47.28.63.9.34,1.37-.19.31-.52.48-.86.48Z"/>
    <path class="cls-4" d="M137.15,42.27c-.45,0-.86-.3-.97-.76l-2.76-11.06c-.13-.54.19-1.08.73-1.21.53-.13,1.08.19,1.21.73l2.76,11.06c.13.54-.19,1.08-.73,1.21-.08.02-.16.03-.24.03Z"/>
    <path class="cls-4" d="M130.24,38.12c-.45,0-.86-.3-.97-.76-.13-.54.19-1.08.73-1.21l11.06-2.76c.53-.14,1.08.19,1.21.73.13.54-.19,1.08-.73,1.21l-11.06,2.76c-.08.02-.16.03-.24.03Z"/>
  </g>
  <path class="cls-4" d="M135.54,36.97c-.21,0-.42-.07-.6-.2-10.79-8.12-22.95-10.42-36.14-6.85-.53.14-1.08-.17-1.23-.7-.14-.53.17-1.08.7-1.23,9.5-2.57,23.78-3.42,37.87,7.18.44.33.53.96.2,1.4-.2.26-.5.4-.8.4Z"/>
  <g>
    <g>
      <path class="cls-4" d="M26.43,99.01c-.35,0-.7-.19-.88-.52-.26-.48-.09-1.09.4-1.36l10-5.46c.49-.26,1.09-.09,1.36.4.26.48.09,1.09-.4,1.36l-10,5.46c-.15.08-.32.12-.48.12Z"/>
      <path class="cls-4" d="M31.46,96.34c-.35,0-.7-.19-.88-.52l-2.76-5.05c-.26-.48-.09-1.09.4-1.36.49-.26,1.09-.09,1.36.4l2.76,5.05c.26.48.09,1.09-.4,1.36-.15.08-.32.12-.48.12Z"/>
      <path class="cls-4" d="M29.82,101.75c-.09,0-.19-.01-.28-.04-.53-.16-.83-.71-.68-1.24l3.21-10.94c.16-.53.71-.83,1.24-.68.53.16.83.71.68,1.24l-3.21,10.94c-.13.44-.53.72-.96.72Z"/>
      <path class="cls-4" d="M36.89,97.89c-.09,0-.19-.01-.28-.04l-10.94-3.21c-.53-.16-.83-.71-.68-1.24.16-.53.71-.83,1.24-.68l10.94,3.21c.53.16.83.71.68,1.24-.13.44-.53.72-.96.72Z"/>
    </g>
    <path class="cls-4" d="M74.8,122.83c-9.71,0-33.69-2.62-43.98-27.24-.21-.51.03-1.1.54-1.31.51-.21,1.1.03,1.31.54,12.4,29.68,45.74,25.88,46.08,25.84.54-.07,1.05.32,1.12.87s-.32,1.05-.87,1.12c-.07,0-1.64.19-4.19.19Z"/>
  </g>
  <g>
    <path class="cls-1" d="M183.51,115.98c.15.78-1.38,1.43-1.67,2.16-.27.69.51,2.16-.08,2.74-.53.52-2.04-.24-2.77.12-.67.33-.93,2.01-1.73,2.16s-1.67-1.29-2.42-1.35c-.82-.06-1.93,1.21-2.61.93-.76-.31-.59-1.97-1.11-2.5-.55-.57-2.21-.59-2.37-1.37s1.38-1.43,1.67-2.16c.27-.69-.51-2.16.08-2.74.53-.52,2.04.24,2.77-.12.67-.33.93-2.01,1.73-2.16s1.67,1.29,2.42,1.35c.82.06,1.93-1.21,2.61-.93.76.31.59,1.97,1.11,2.5.55.57,2.21.59,2.37,1.37Z"/>
    <path class="cls-4" d="M177.12,124.18c-.75,0-1.36-.52-1.86-.94-.18-.16-.46-.39-.57-.43-.04.03-.4.25-.62.37-.63.37-1.4.84-2.23.5-.92-.38-1.14-1.37-1.29-2.1-.05-.23-.12-.57-.18-.67-.06-.04-.44-.16-.66-.24-.73-.24-1.74-.58-1.94-1.6s.6-1.71,1.19-2.21c.18-.15.48-.41.54-.53,0-.06-.06-.41-.1-.64-.13-.73-.31-1.74.4-2.43.64-.62,1.53-.49,2.25-.38.25.04.67.1.8.06,0-.03.17-.35.28-.57.34-.66.77-1.49,1.68-1.67.91-.18,1.62.43,2.18.91.18.16.46.39.57.43.04-.03.4-.25.62-.37.62-.37,1.4-.84,2.23-.5.92.38,1.14,1.37,1.29,2.1.05.23.12.57.18.67.06.04.44.16.66.24.73.24,1.74.58,1.94,1.6h0c.2,1.02-.6,1.71-1.19,2.21-.18.15-.48.41-.54.53,0,.06.06.41.1.64.13.73.31,1.74-.4,2.43-.64.62-1.53.49-2.25.38-.25-.04-.67-.1-.8-.06,0,.03-.17.35-.28.57-.34.66-.77,1.49-1.68,1.67-.11.02-.22.03-.33.03ZM174.78,120.81s.09,0,.13,0c.67.05,1.19.5,1.66.9.13.12.33.29.48.39.1-.15.22-.38.3-.54.28-.54.59-1.16,1.19-1.46.63-.31,1.34-.21,1.96-.11.14.02.32.05.47.06-.02-.17-.06-.39-.08-.55-.1-.58-.21-1.17.01-1.73.22-.54.68-.94,1.1-1.3.08-.07.2-.17.3-.26-.13-.05-.27-.09-.37-.13-.52-.17-1.1-.37-1.5-.79-.42-.44-.54-1.03-.67-1.6-.03-.15-.08-.37-.13-.54-.13.07-.29.16-.41.24-.54.32-1.16.69-1.86.64-.67-.05-1.19-.5-1.66-.9-.13-.11-.33-.29-.48-.39-.1.15-.22.38-.3.54-.28.54-.59,1.16-1.19,1.45-.63.31-1.34.2-1.96.11-.14-.02-.32-.05-.47-.06.02.17.06.39.08.55.1.58.21,1.17-.01,1.73-.22.54-.68.94-1.1,1.3-.08.07-.2.17-.3.26.13.05.27.09.37.13.52.17,1.1.37,1.5.79.42.44.54,1.03.67,1.6.03.15.08.37.13.54.13-.07.29-.16.41-.24.51-.3,1.08-.64,1.73-.64ZM182.63,116.37h0,0Z"/>
  </g>
  <path class="cls-4" d="M147.22,106.06c-.16,0-.31,0-.47-.01-1.99-.12-3.81-1.01-5.13-2.5-1.32-1.49-1.98-3.41-1.86-5.4.12-1.99,1.01-3.81,2.5-5.13,1.49-1.32,3.4-1.98,5.4-1.86,1.99.12,3.81,1.01,5.13,2.5,2.72,3.08,2.44,7.81-.65,10.53-1.38,1.22-3.11,1.87-4.93,1.87ZM147.2,93.14c-1.33,0-2.6.48-3.61,1.37-1.09.97-1.74,2.3-1.83,3.76-.09,1.46.39,2.86,1.36,3.95s2.3,1.74,3.76,1.83c1.46.1,2.86-.39,3.95-1.36,2.25-1.99,2.47-5.45.47-7.71-.97-1.09-2.3-1.74-3.76-1.83-.11,0-.23-.01-.34-.01Z"/>
</svg>