<?xml version="1.0" encoding="UTF-8"?>
<svg id="Layer_1" data-name="Layer 1" xmlns="http://www.w3.org/2000/svg" viewBox="0 0 230 160">
  <defs>
    <style>
      .cls-1 {
        fill: #00e291;
      }

      .cls-2 {
        fill: #fff;
      }

      .cls-3 {
        fill: #ffec4f;
      }

      .cls-4 {
        fill: #241f20;
      }

      .cls-5 {
        fill: #0aacff;
      }
    </style>
  </defs>
  <rect class="cls-1" width="230" height="160"/>
  <polygon class="cls-2" points="95.9 41.1 93.75 54.6 145.82 78.64 149.09 60.1 100.54 41.09 95.9 41.1"/>
  <g>
    <polygon class="cls-5" points="102.48 31.87 144.06 30.42 191.83 47.39 189.37 63.1 147.53 69.02 99.81 48.55 102.48 31.87"/>
    <rect class="cls-2" x="104.01" y="47.5" width="46.05" height="6.13" rx="2.81" ry="2.81" transform="translate(224.59 146.36) rotate(-157.23)"/>
    <g>
      <polygon class="cls-2" points="111.67 25.61 139.66 23.58 180.72 38.57 179.21 47.93 152.5 51.94 110.2 34.76 111.67 25.61"/>
      <polyline class="cls-2" points="152.5 51.94 110.2 34.76 111.67 25.61 139.66 23.58 180.72 38.57 179.21 47.93 152.5 51.94"/>
    </g>
    <polygon class="cls-3" points="146.19 79.22 147.53 69.02 185.98 63.58 184.23 72.75 146.19 79.22"/>
    <path class="cls-4" d="M152.5,52.94c-.49,0-.91-.36-.99-.85-.08-.55.29-1.06.84-1.14l26.72-4c.56-.08,1.06.3,1.14.84.08.55-.29,1.06-.84,1.14l-26.72,4c-.05,0-.1.01-.15.01Z"/>
    <path class="cls-4" d="M189.98,60.21c-.05,0-.1,0-.16-.01-.55-.09-.92-.6-.83-1.14l1.85-11.82c.08-.54.6-.92,1.14-.83.55.09.92.6.83,1.14l-1.85,11.82c-.08.49-.5.85-.99.85Z"/>
    <g>
      <path class="cls-4" d="M147.53,70.02c-.13,0-.27-.03-.39-.08l-47.72-20.47c-.42-.18-.67-.62-.59-1.08l2.67-16.67c.09-.55.6-.92,1.15-.83.55.09.92.6.83,1.15l-2.55,15.9,47,20.17c.51.22.74.81.52,1.31-.16.38-.53.61-.92.61Z"/>
      <path class="cls-4" d="M155.81,68.78c-.49,0-.91-.36-.99-.85-.08-.55.3-1.06.84-1.14l33.54-5c.55-.08,1.06.3,1.14.84.08.55-.3,1.06-.84,1.14l-33.54,5s-.1.01-.15.01Z"/>
      <path class="cls-4" d="M145.58,62.44c-.5,0-1-.1-1.47-.3l-37.28-15.65c-.94-.39-1.67-1.13-2.05-2.07-.38-.94-.38-1.98.01-2.92l.2-.47c.81-1.94,3.05-2.85,4.99-2.04l37.28,15.65c.94.39,1.67,1.13,2.05,2.07.38.94.38,1.98-.01,2.92l-.2.47c-.39.94-1.13,1.67-2.07,2.05-.46.19-.95.29-1.44.29ZM108.5,40.69c-.71,0-1.38.42-1.67,1.11l-.2.47c-.19.45-.19.94,0,1.38.18.45.53.8.97.98h0l37.28,15.65c.45.19.94.19,1.38,0,.45-.18.8-.53.98-.97l.2-.47c.19-.45.19-.94,0-1.38-.18-.45-.53-.8-.97-.98l-37.28-15.65c-.23-.1-.46-.14-.7-.14Z"/>
      <path class="cls-4" d="M145.98,79.68c-.14,0-.28-.03-.42-.09l-52.32-23.92c-.41-.19-.64-.62-.57-1.07l1.61-10.06c.09-.55.6-.92,1.15-.83.55.09.92.6.83,1.15l-1.49,9.31,50.43,23.06,1.34-8.36c.09-.55.6-.92,1.15-.83.55.09.92.6.83,1.15l-1.55,9.66c-.05.31-.24.58-.52.72-.15.08-.31.12-.47.12Z"/>
      <path class="cls-4" d="M145.98,79.68c-.48,0-.91-.35-.99-.85-.08-.55.29-1.06.83-1.14l38.47-6.03c.56-.09,1.06.29,1.14.83.08.55-.29,1.06-.83,1.14l-38.47,6.03c-.05,0-.11.01-.16.01Z"/>
    </g>
  </g>
  <g>
    <g>
      <path class="cls-4" d="M75.94,39.33h-.01c-.55,0-1-.46-.99-1.01l.12-11.4c0-.55.45-.98,1.01-.99.55,0,1,.46.99,1.01l-.12,11.4c0,.55-.45.99-1,.99Z"/>
      <path class="cls-4" d="M81.69,33.69h-.01l-5.76-.06c-.55,0-1-.46-.99-1.01,0-.55.45-.99,1-.99h.01l5.76.06c.55,0,1,.46.99,1.01,0,.55-.45.99-1,.99Z"/>
      <path class="cls-4" d="M79.98,37.71c-.26,0-.52-.1-.71-.3l-7.97-8.14c-.39-.4-.38-1.03.02-1.41.4-.39,1.03-.38,1.41.01l7.97,8.14c.39.4.38,1.03-.02,1.41-.19.19-.45.29-.7.29Z"/>
      <path class="cls-4" d="M71.92,37.62c-.26,0-.52-.1-.71-.3-.39-.4-.38-1.03.02-1.41l8.14-7.97c.4-.39,1.03-.38,1.41.01.39.4.38,1.03-.02,1.41l-8.14,7.97c-.19.19-.45.29-.7.29Z"/>
    </g>
    <path class="cls-4" d="M29.82,62.15c-.13,0-.25-.02-.38-.07-.51-.21-.76-.79-.55-1.3.13-.33,13.63-32.68,47.14-28.82.55.06.94.56.88,1.11s-.55.94-1.11.88c-31.98-3.69-44.93,27.27-45.05,27.58-.16.39-.53.62-.93.62Z"/>
  </g>
  <g>
    <path class="cls-4" d="M86.51,102.54c-.21,0-.42-.06-.59-.2-.44-.33-.54-.96-.21-1.4l6.79-9.16c.33-.44.96-.54,1.4-.21.44.33.54.96.21,1.4l-6.79,9.16c-.2.26-.5.4-.8.4Z"/>
    <path class="cls-4" d="M89.95,98c-.21,0-.42-.06-.59-.2l-4.63-3.43c-.44-.33-.54-.96-.21-1.4.33-.44.96-.54,1.4-.21l4.63,3.43c.44.33.54.96.21,1.4-.2.26-.5.4-.8.4Z"/>
    <path class="cls-4" d="M90.74,103.6c-.49,0-.91-.36-.99-.85l-1.67-11.27c-.08-.55.3-1.06.84-1.14.53-.08,1.05.3,1.14.84l1.67,11.27c.08.55-.3,1.06-.84,1.14-.05,0-.1.01-.15.01Z"/>
    <path class="cls-4" d="M84.27,98.8c-.49,0-.91-.36-.99-.85-.08-.55.3-1.05.84-1.14l11.27-1.68c.55-.08,1.06.3,1.14.84s-.3,1.05-.84,1.14l-11.27,1.68s-.1.01-.15.01Z"/>
  </g>
  <path class="cls-4" d="M118.52,108.98c-8.74,0-19.26-2.52-29.04-11.49-.41-.37-.43-1.01-.06-1.41.37-.41,1-.43,1.41-.06,9.95,9.12,21.83,12.59,35.31,10.31.54-.1,1.06.27,1.15.82.09.54-.27,1.06-.82,1.15-2.4.41-5.08.68-7.96.68Z"/>
  <ellipse class="cls-5" cx="50.11" cy="95.65" rx="16.21" ry="4.92" transform="translate(-34.25 28.25) rotate(-23.73)"/>
  <path class="cls-2" d="M35.34,101.68c1.09,2.49,8.62,1.58,16.82-2.02,8.2-3.6,13.96-8.54,12.86-11.02l13.74,31.27c1.53,3.48-3.88,9.22-12.07,12.83-8.2,3.6-16.08,3.7-17.61.22l-13.74-31.27Z"/>
  <path class="cls-4" d="M34.79,103.17c-.38,0-.75-.22-.92-.6-.51-1.16-.37-3.19,3.21-6.25,2.5-2.14,6.11-4.31,10.16-6.09,7.83-3.44,16.58-5.07,18.14-1.51.22.51,0,1.1-.51,1.32-.51.22-1.1,0-1.32-.51-.45-1.02-5.72-1.76-15.5,2.54-3.88,1.7-7.31,3.75-9.67,5.77-2.53,2.17-2.88,3.49-2.68,3.93.22.51,0,1.1-.51,1.32-.13.06-.27.08-.4.08Z"/>
  <path class="cls-4" d="M41.18,104.36c-.31,0-.61-.14-.81-.41l-11.83-16.28c-.33-.45-.23-1.07.22-1.4.45-.32,1.07-.23,1.4.22l11.83,16.28c.33.45.23,1.07-.22,1.4-.18.13-.38.19-.59.19Z"/>
  <polyline class="cls-3" points="44.55 101.63 31.42 77.68 36.23 74.1 49.87 99.78"/>
  <g>
    <polyline class="cls-3" points="54.03 97.95 46.39 79.59 46.11 72.43 51.19 77.48 59.07 95.74"/>
    <path class="cls-4" d="M54.03,98.95c-.39,0-.76-.23-.92-.62l-7.64-18.37c-.05-.11-.07-.23-.08-.35l-.28-7.16c-.02-.41.22-.79.6-.95.38-.16.82-.08,1.11.21l5.08,5.05c.09.09.16.2.21.31l7.88,18.26c.22.51-.01,1.1-.52,1.31-.51.22-1.1-.02-1.31-.52l-7.8-18.08-3.14-3.12.17,4.44,7.57,18.2c.21.51-.03,1.1-.54,1.31-.12.05-.26.08-.38.08Z"/>
  </g>
  <path class="cls-4" d="M38.54,104.57c-3.07,0-4.24-1.04-4.66-2-.22-.51,0-1.1.51-1.32.51-.22,1.1,0,1.32.51.19.44,1.4,1.08,4.71.68,3.08-.37,6.92-1.51,10.79-3.22s7.31-3.75,9.67-5.77c2.53-2.17,2.88-3.49,2.68-3.93-.22-.51,0-1.1.51-1.32.51-.22,1.1,0,1.32.51.51,1.16.37,3.19-3.21,6.25-2.5,2.14-6.11,4.31-10.16,6.09-4.05,1.78-8.09,2.98-11.36,3.37-.79.1-1.5.14-2.12.14Z"/>
  <path class="cls-4" d="M47.13,129.6c-.38,0-.74-.21-.91-.58l-12.33-26.43c-.23-.5-.02-1.1.48-1.33.5-.23,1.1-.02,1.33.48l12.33,26.43c.23.5.02,1.1-.48,1.33-.14.06-.28.09-.42.09Z"/>
  <path class="cls-4" d="M44.55,102.63c-.35,0-.7-.19-.88-.52l-13.13-23.95c-.24-.44-.12-.98.28-1.28l4.81-3.58c.44-.33,1.07-.24,1.4.21.33.44.24,1.07-.21,1.4l-4.12,3.06,12.71,23.19c.27.48.09,1.09-.4,1.36-.15.08-.32.12-.48.12Z"/>
  <path class="cls-4" d="M55.51,136.5c-.53,0-.97-.42-1-.96-.02-.55.4-1.02.96-1.04,3.09-.13,6.78-1.08,10.39-2.67,4.21-1.85,7.84-4.36,9.95-6.9.35-.42.98-.48,1.41-.13.42.35.48.98.13,1.41-2.31,2.76-6.2,5.48-10.68,7.45-3.83,1.68-7.78,2.69-11.11,2.83-.01,0-.03,0-.04,0Z"/>
  <polygon class="cls-2" points="120.89 128.75 165.75 100.46 198.61 97 201.49 107.08 157.14 137.62 124.89 139.36 120.89 128.75"/>
  <path class="cls-4" d="M166.36,132.48c-.32,0-.63-.15-.82-.43-.32-.45-.2-1.08.25-1.39l35.13-24.4c.45-.31,1.08-.2,1.39.25.32.45.2,1.08-.25,1.39l-35.13,24.4c-.17.12-.37.18-.57.18Z"/>
  <path class="cls-4" d="M129.24,140.12c-.53,0-.97-.41-1-.95-.03-.55.39-1.02.95-1.05l27.89-1.5c.53-.04,1.02.39,1.05.94.03.55-.39,1.02-.95,1.05l-27.89,1.5s-.04,0-.05,0Z"/>
  <polygon class="cls-3" points="111.67 25.61 153.56 42.56 180.72 38.57 139.66 23.58 111.67 25.61"/>
  <path class="cls-4" d="M150.64,42.82c-.12,0-.25-.02-.37-.07l-34.67-13.63c-.51-.2-.77-.78-.56-1.3.2-.52.79-.77,1.3-.56l34.67,13.63c.51.2.77.78.56,1.3-.16.39-.53.63-.93.63Z"/>
  <path class="cls-4" d="M156.86,42.82c-.49,0-.92-.36-.99-.87-.07-.55.31-1.05.86-1.13l23.86-3.25c.54-.08,1.05.31,1.13.86.07.55-.31,1.05-.86,1.13l-23.86,3.25s-.09,0-.14,0Z"/>
  <polygon class="cls-5" points="120.84 128.74 153.67 126.87 198.56 96.99 165.7 100.45 120.84 128.74"/>
  <g>
    <path class="cls-2" d="M178.23,85.91l-14.38,19.47-1.85,7.08,6.18-3.92,14.54-19.28c.94-1.25.68-3.02-.58-3.94h0c-1.24-.91-2.99-.64-3.9.6Z"/>
    <path class="cls-4" d="M162,113.46c-.21,0-.42-.06-.59-.19-.33-.24-.48-.66-.38-1.06l1.85-7.08c.03-.12.09-.24.16-.34l14.38-19.47h0c1.24-1.68,3.61-2.04,5.3-.81.83.6,1.37,1.5,1.52,2.51.15,1.01-.11,2.02-.72,2.84l-14.54,19.28c-.07.1-.16.18-.26.24l-6.18,3.92c-.16.1-.35.16-.54.16ZM164.77,105.82l-1.16,4.44,3.88-2.46,14.43-19.14c.29-.39.41-.87.34-1.35-.07-.48-.33-.9-.72-1.19-.8-.58-1.92-.41-2.51.38l-14.26,19.31Z"/>
  </g>
  <path class="cls-4" d="M126.96,129.6c-.53,0-.97-.41-1-.94-.03-.55.39-1.02.94-1.06l20.95-1.2c.55-.04,1.02.39,1.06.94.03.55-.39,1.02-.94,1.06l-20.95,1.2s-.04,0-.06,0Z"/>
  <path class="cls-4" d="M157.45,125.66c-.32,0-.64-.15-.83-.44-.31-.46-.19-1.08.27-1.39l36.15-24.38c.46-.31,1.08-.19,1.39.27.31.46.19,1.08-.27,1.39l-36.15,24.38c-.17.12-.37.17-.56.17Z"/>
</svg>