<svg width="230" height="160" viewBox="0 0 230 160" fill="none" xmlns="http://www.w3.org/2000/svg">
<g clip-path="url(#clip0_1954_93807)">
<g clip-path="url(#clip1_1954_93807)">
<path d="M255 45.4324C58.388 45.4324 -101 62.9284 -101 84.5124V97.4124C-101 102.848 -90.888 108.024 -72.62 112.728H-72.64L-71.16 213.176H-62.284L-60.844 115.46L-60.908 115.444C-1.54 127.952 117.64 136.492 255 136.492C392.36 136.492 511.54 127.952 570.908 115.444L570.844 115.46L572.284 213.176H581.16L582.64 112.724H582.62C600.888 108.024 611 102.848 611 97.4124V84.5124C611 62.9284 451.612 45.4324 255 45.4324Z" fill="white"/>
<path d="M255 124.44C159.872 124.44 70.436 120.372 3.16 112.988C-29.584 109.392 -55.3 105.204 -73.276 100.54C-92.604 95.5204 -102 90.2284 -102 84.3604C-102 78.4924 -92.604 73.1964 -73.276 68.1804C-55.3 63.5164 -29.584 59.3284 3.16 55.7324C70.436 48.3444 159.872 44.2804 255 44.2804C350.128 44.2804 439.564 48.3484 506.84 55.7324C539.58 59.3284 565.3 63.5164 583.276 68.1804C602.604 73.1964 612 78.4884 612 84.3604C612 90.2324 602.604 95.5244 583.276 100.54C565.3 105.204 539.584 109.392 506.84 112.988C439.564 120.372 350.128 124.44 255 124.44ZM255 46.2804C159.944 46.2804 70.584 50.3444 3.38 57.7204C-29.268 61.3044 -54.888 65.4764 -72.772 70.1164C-96.464 76.2644 -100 81.6804 -100 84.3604C-100 87.0404 -96.464 92.4564 -72.772 98.6044C-54.888 103.244 -29.268 107.416 3.38 111C70.584 118.376 159.944 122.44 255 122.44C350.056 122.44 439.416 118.376 506.62 111C539.268 107.416 564.888 103.244 582.772 98.6044C606.464 92.4564 610 87.0404 610 84.3604C610 81.6804 606.464 76.2644 582.772 70.1164C564.888 65.4764 539.268 61.3044 506.62 57.7204C439.416 50.3404 350.056 46.2804 255 46.2804Z" fill="#231F20"/>
<path d="M255 137.341C159.872 137.341 70.436 133.273 3.16 125.889C-29.584 122.293 -55.3 118.105 -73.276 113.441C-92.604 108.425 -102 103.132 -102 97.2605C-102 96.7085 -101.552 96.2605 -101 96.2605C-100.448 96.2605 -100 96.7085 -100 97.2605C-100 99.9405 -96.464 105.356 -72.772 111.504C-54.888 116.144 -29.268 120.317 3.38 123.901C70.584 131.277 159.944 135.341 255 135.341C350.056 135.341 439.416 131.277 506.62 123.901C539.268 120.317 564.888 116.144 582.772 111.504C606.464 105.356 610 99.9405 610 97.2605C610 96.7085 610.448 96.2605 611 96.2605C611.552 96.2605 612 96.7085 612 97.2605C612 103.132 602.604 108.425 583.276 113.441C565.3 118.105 539.584 122.293 506.84 125.889C439.564 133.273 350.128 137.341 255 137.341Z" fill="#231F20"/>
<path d="M60.5086 92.4206C50.1126 92.4206 40.3206 91.0566 32.9446 88.5766C25.2286 85.9846 20.9766 82.3925 20.9766 78.4725C20.9766 74.7965 24.5646 71.4966 31.3566 68.9326C31.8726 68.7366 32.4486 68.9966 32.6446 69.5166C32.8406 70.0326 32.5806 70.6086 32.0606 70.8046C26.2846 72.9846 22.9726 75.7806 22.9726 78.4725C22.9726 84.2445 38.0526 90.4245 60.5046 90.4245C82.9566 90.4245 98.0366 84.2445 98.0366 78.4725C98.0366 75.2125 93.2646 71.8925 85.2726 69.5926C84.7406 69.4406 84.4366 68.8846 84.5886 68.3566C84.7406 67.8246 85.2966 67.5206 85.8246 67.6726C94.9886 70.3086 100.037 74.1446 100.037 78.4766C100.037 82.4005 95.7886 85.9885 88.0686 88.5805C80.6926 91.0605 70.9006 92.4245 60.5046 92.4245L60.5086 92.4206Z" fill="#231F20"/>
<path d="M43.2118 82.7045C37.8598 82.7045 33.9918 80.3485 32.1918 75.9325C31.9798 75.4805 30.1238 71.2885 32.1318 67.2725C33.6998 64.1365 37.1438 62.0365 42.3638 61.0365C46.8238 60.1805 51.5998 60.4245 56.1758 61.7485C59.7878 62.7885 66.1438 64.4845 71.4638 65.1725C72.1638 65.2125 72.8118 65.2765 73.4078 65.3685C73.5878 65.3845 73.7558 65.4045 73.9118 65.4165C74.0398 65.4285 74.1598 65.4645 74.2678 65.5205C79.9678 66.6965 80.6758 70.1965 80.7478 71.3645C80.9478 74.6325 78.2598 77.6965 74.6238 78.3445C72.8158 78.6645 65.3238 78.3845 62.7798 78.2205C62.7478 78.2205 56.2678 78.0485 51.8238 80.4525C49.6438 81.6325 47.4878 82.3485 45.4158 82.5725C44.6558 82.6565 43.9198 82.6965 43.2118 82.6965V82.7045ZM47.7038 62.5405C46.0238 62.5405 44.3598 62.6965 42.7438 63.0045C38.1758 63.8805 35.2118 65.6165 33.9278 68.1565C32.2798 71.4245 33.9878 75.0605 34.0078 75.0965C34.0158 75.1165 34.0278 75.1365 34.0358 75.1565C36.1718 80.4285 41.2838 81.0245 45.1998 80.5925C47.0158 80.3925 48.9238 79.7565 50.8758 78.7005C55.7998 76.0325 62.5918 76.2205 62.8798 76.2285C66.0718 76.4325 72.8838 76.6285 74.2758 76.3805C76.8838 75.9165 78.8918 73.7245 78.7558 71.4925C78.6278 69.4125 76.6238 67.9325 73.2838 67.3805C67.7838 66.9365 60.6838 65.1325 55.6278 63.6725C53.0158 62.9205 50.3398 62.5405 47.7078 62.5405H47.7038Z" fill="#231F20"/>
<path d="M44.1771 76.6645C42.1851 76.6645 40.4291 76.3405 38.9131 75.6925C35.7731 74.3525 34.9051 72.0605 34.8691 71.9645C34.6811 71.4445 34.9451 70.8725 35.4651 70.6805C35.9811 70.4925 36.5531 70.7525 36.7451 71.2685C36.7811 71.3565 37.4291 72.9205 39.7891 73.8925C42.5051 75.0165 47.8011 75.4525 57.6131 71.1565C58.1171 70.9365 58.7091 71.1645 58.9291 71.6725C59.1491 72.1765 58.9211 72.7685 58.4131 72.9885C52.8171 75.4365 48.0531 76.6645 44.1771 76.6645Z" fill="#231F20"/>
<path d="M168.44 106.697C158.044 106.697 148.252 105.333 140.876 102.853C133.16 100.261 128.908 96.6685 128.908 92.7485C128.908 89.0725 132.496 85.7725 139.288 83.2085C139.804 83.0125 140.38 83.2725 140.576 83.7925C140.772 84.3085 140.512 84.8845 139.992 85.0805C134.216 87.2605 130.904 90.0565 130.904 92.7485C130.904 98.5205 145.984 104.701 168.436 104.701C190.888 104.701 205.968 98.5205 205.968 92.7485C205.968 89.8205 202.16 86.8485 195.516 84.5885C194.992 84.4125 194.712 83.8445 194.892 83.3205C195.068 82.7965 195.636 82.5165 196.16 82.6965C203.776 85.2845 207.968 88.8565 207.968 92.7485C207.968 96.6405 203.72 100.261 196 102.853C188.624 105.333 178.832 106.697 168.436 106.697H168.44Z" fill="#231F20"/>
<path d="M138.211 92.5204C137.671 92.5204 137.227 92.0924 137.211 91.5484C137.211 91.4004 137.019 76.6764 154.179 74.2124C154.727 74.1324 155.231 74.5124 155.311 75.0604C155.391 75.6084 155.011 76.1124 154.463 76.1924C139.099 78.3964 139.199 90.9644 139.211 91.5004C139.223 92.0524 138.787 92.5084 138.235 92.5244C138.227 92.5244 138.219 92.5244 138.211 92.5244V92.5204Z" fill="#231F20"/>
<path d="M142.337 94.8885C141.801 94.8885 141.353 94.4605 141.337 93.9205C141.333 93.7645 141.053 78.3405 158.541 76.8085C159.089 76.7605 159.577 77.1685 159.625 77.7165C159.673 78.2685 159.265 78.7525 158.717 78.8005C152.137 79.3765 147.553 82.0885 145.093 86.8565C143.253 90.4245 143.337 93.8245 143.337 93.8605C143.353 94.4125 142.921 94.8725 142.369 94.8925C142.357 94.8925 142.349 94.8925 142.337 94.8925V94.8885Z" fill="#231F20"/>
<path d="M146.456 97.2523C145.948 97.2523 145.512 96.8643 145.464 96.3483C145.448 96.1923 145.124 92.5243 147.132 88.5523C148.972 84.9043 153.196 80.3083 162.86 79.1363C163.408 79.0683 163.908 79.4603 163.972 80.0083C164.04 80.5563 163.648 81.0563 163.1 81.1203C146.472 83.1403 147.408 95.6243 147.456 96.1563C147.504 96.7043 147.1 97.1923 146.552 97.2443C146.52 97.2443 146.488 97.2483 146.456 97.2483V97.2523Z" fill="#231F20"/>
<path d="M150.575 99.6165C150.115 99.6165 149.703 99.3005 149.599 98.8325C149.551 98.6205 148.487 93.5725 151.947 88.6605C155.127 84.1405 160.979 81.3085 169.339 80.2445C169.887 80.1765 170.387 80.5605 170.459 81.1085C170.527 81.6565 170.143 82.1565 169.595 82.2285C161.839 83.2165 156.459 85.7565 153.611 89.7765C150.651 93.9525 151.551 98.3565 151.559 98.4005C151.675 98.9405 151.331 99.4725 150.795 99.5885C150.723 99.6045 150.651 99.6125 150.579 99.6125L150.575 99.6165Z" fill="#231F20"/>
<path d="M169.079 99.8526C157.055 99.8526 150.919 93.9526 150.599 93.6366C150.207 93.2486 150.203 92.6166 150.591 92.2206C150.979 91.8286 151.611 91.8246 152.003 92.2126C152.131 92.3366 161.455 101.165 179.499 96.4246C180.031 96.2846 180.579 96.6046 180.719 97.1366C180.859 97.6726 180.539 98.2166 180.007 98.3566C175.943 99.4246 172.295 99.8486 169.075 99.8486L169.079 99.8526Z" fill="#231F20"/>
<path d="M170.188 95.3765C160.656 95.3765 154.544 91.8965 152.856 90.2885C152.456 89.9085 152.44 89.2765 152.82 88.8765C153.2 88.4765 153.832 88.4605 154.232 88.8405C155.844 90.3725 164.764 95.4765 178.92 92.4085C179.46 92.2925 179.992 92.6325 180.108 93.1725C180.224 93.7125 179.884 94.2445 179.344 94.3605C176.02 95.0805 172.96 95.3765 170.188 95.3765Z" fill="#231F20"/>
<path d="M170.564 91.2324C163.268 91.2324 157.976 88.9684 155.652 87.2724C155.204 86.9484 155.108 86.3204 155.432 85.8764C155.756 85.4284 156.384 85.3324 156.828 85.6564C159.4 87.5284 166.976 90.5524 177.26 88.5804C177.804 88.4764 178.328 88.8324 178.432 89.3724C178.536 89.9164 178.18 90.4404 177.64 90.5444C175.12 91.0284 172.752 91.2324 170.564 91.2324Z" fill="#231F20"/>
<path d="M170.009 87.1126C165.825 87.1126 162.925 86.0446 160.473 84.9726C159.965 84.7526 159.737 84.1606 159.957 83.6566C160.177 83.1486 160.769 82.9206 161.273 83.1406C164.481 84.5406 168.165 85.8126 174.705 84.6806C175.249 84.5846 175.765 84.9526 175.861 85.4966C175.957 86.0406 175.589 86.5566 175.045 86.6526C173.177 86.9766 171.509 87.1126 170.009 87.1126Z" fill="#231F20"/>
<path d="M180.828 100.292C180.288 100.292 179.844 99.8605 179.828 99.3165C179.412 83.0925 160.816 78.3005 160.628 78.2525C160.092 78.1205 159.764 77.5765 159.896 77.0405C160.028 76.5045 160.572 76.1765 161.108 76.3085C161.316 76.3605 166.22 77.6005 171.244 81.0165C177.98 85.5965 181.64 91.9045 181.828 99.2605C181.844 99.8125 181.408 100.273 180.852 100.285C180.844 100.285 180.836 100.285 180.824 100.285L180.828 100.292Z" fill="#231F20"/>
<path d="M185.264 98.3925C184.732 98.3925 184.292 97.9765 184.264 97.4405C183.504 81.1245 164.972 76.6605 164.784 76.6165C164.244 76.4925 163.912 75.9565 164.036 75.4165C164.16 74.8765 164.696 74.5445 165.236 74.6685C165.44 74.7165 170.332 75.8685 175.388 79.2125C182.16 83.6885 185.92 89.9605 186.264 97.3485C186.288 97.9005 185.864 98.3685 185.312 98.3925C185.296 98.3925 185.28 98.3925 185.264 98.3925Z" fill="#231F20"/>
<path d="M189.412 96.9885H189.404C188.852 96.9885 188.408 96.5325 188.412 95.9805C188.492 84.0645 176.844 78.3765 171.872 75.9485L171.808 75.9165C171.312 75.6725 171.104 75.0765 171.348 74.5805C171.592 74.0845 172.188 73.8765 172.684 74.1205L172.748 74.1525C178.06 76.7445 190.504 82.8205 190.412 95.9925C190.412 96.5405 189.96 96.9845 189.412 96.9845V96.9885Z" fill="#231F20"/>
<path d="M193.473 95.3004C192.921 95.3004 192.473 94.8524 192.473 94.3004C192.473 83.9844 183.969 78.6924 179.469 77.3364C178.941 77.1764 178.641 76.6204 178.801 76.0884C178.961 75.5604 179.517 75.2604 180.049 75.4204C186.997 77.5164 194.473 84.3164 194.473 94.2964C194.473 94.8484 194.025 95.2964 193.473 95.2964V95.3004Z" fill="#231F20"/>
<path d="M197.751 93.9244C197.199 93.9244 196.751 93.4764 196.751 92.9244C196.751 83.3084 188.163 76.0924 182.247 75.3484C181.699 75.2804 181.311 74.7804 181.379 74.2324C181.447 73.6844 181.947 73.2964 182.495 73.3644C186.139 73.8244 190.187 76.1564 193.319 79.6004C196.819 83.4564 198.751 88.1884 198.751 92.9204C198.751 93.4724 198.303 93.9204 197.751 93.9204V93.9244Z" fill="#231F20"/>
<path d="M158.536 78.6244C160.862 78.6244 162.748 76.7387 162.748 74.4124C162.748 72.0862 160.862 70.2004 158.536 70.2004C156.21 70.2004 154.324 72.0862 154.324 74.4124C154.324 76.7387 156.21 78.6244 158.536 78.6244Z" fill="white"/>
<path d="M158.536 79.6285C155.66 79.6285 153.324 77.2885 153.324 74.4165C153.324 71.5445 155.664 69.2045 158.536 69.2045C161.408 69.2045 163.748 71.5445 163.748 74.4165C163.748 77.2885 161.408 79.6285 158.536 79.6285ZM158.536 71.2005C156.764 71.2005 155.324 72.6405 155.324 74.4125C155.324 76.1845 156.764 77.6245 158.536 77.6245C160.308 77.6245 161.748 76.1845 161.748 74.4125C161.748 72.6405 160.308 71.2005 158.536 71.2005Z" fill="#231F20"/>
<path d="M172.249 76.3366C174.575 76.3366 176.461 74.4508 176.461 72.1246C176.461 69.7984 174.575 67.9126 172.249 67.9126C169.923 67.9126 168.037 69.7984 168.037 72.1246C168.037 74.4508 169.923 76.3366 172.249 76.3366Z" fill="white"/>
<path d="M172.249 77.3405C169.373 77.3405 167.037 75.0005 167.037 72.1285C167.037 69.2565 169.377 66.9165 172.249 66.9165C175.121 66.9165 177.461 69.2565 177.461 72.1285C177.461 75.0005 175.121 77.3405 172.249 77.3405ZM172.249 68.9125C170.477 68.9125 169.037 70.3525 169.037 72.1245C169.037 73.8965 170.477 75.3365 172.249 75.3365C174.021 75.3365 175.461 73.8965 175.461 72.1245C175.461 70.3525 174.021 68.9125 172.249 68.9125Z" fill="#231F20"/>
<path d="M179.144 79.3201C181.47 79.3201 183.356 77.4343 183.356 75.1081C183.356 72.7819 181.47 70.8961 179.144 70.8961C176.817 70.8961 174.932 72.7819 174.932 75.1081C174.932 77.4343 176.817 79.3201 179.144 79.3201Z" fill="white"/>
<path d="M179.144 80.3241C176.268 80.3241 173.932 77.9841 173.932 75.1121C173.932 72.2401 176.272 69.9001 179.144 69.9001C182.016 69.9001 184.356 72.2401 184.356 75.1121C184.356 77.9841 182.016 80.3241 179.144 80.3241ZM179.144 71.8961C177.372 71.8961 175.932 73.3361 175.932 75.1081C175.932 76.8801 177.372 78.3201 179.144 78.3201C180.916 78.3201 182.356 76.8801 182.356 75.1081C182.356 73.3361 180.916 71.8961 179.144 71.8961Z" fill="#231F20"/>
<path d="M164.608 81.0765C166.935 81.0765 168.82 79.1907 168.82 76.8645C168.82 74.5382 166.935 72.6525 164.608 72.6525C162.282 72.6525 160.396 74.5382 160.396 76.8645C160.396 79.1907 162.282 81.0765 164.608 81.0765Z" fill="white"/>
<path d="M164.608 82.0805C161.732 82.0805 159.396 79.7405 159.396 76.8685C159.396 73.9965 161.736 71.6565 164.608 71.6565C167.48 71.6565 169.82 73.9965 169.82 76.8685C169.82 79.7405 167.48 82.0805 164.608 82.0805ZM164.608 73.6525C162.836 73.6525 161.396 75.0925 161.396 76.8645C161.396 78.6365 162.836 80.0765 164.608 80.0765C166.38 80.0765 167.82 78.6365 167.82 76.8645C167.82 75.0925 166.38 73.6525 164.608 73.6525Z" fill="#231F20"/>
<path d="M70.8563 84.3602C75.1553 84.3602 78.6403 82.2882 78.6403 79.7322C78.6403 77.1763 75.1553 75.1042 70.8563 75.1042C66.5573 75.1042 63.0723 77.1763 63.0723 79.7322C63.0723 82.2882 66.5573 84.3602 70.8563 84.3602Z" fill="white"/>
<path d="M70.8563 85.3602C65.9323 85.3602 62.0723 82.8882 62.0723 79.7322C62.0723 76.5762 65.9283 74.1042 70.8563 74.1042C75.7843 74.1042 79.6403 76.5762 79.6403 79.7322C79.6403 82.8882 75.7843 85.3602 70.8563 85.3602ZM70.8563 76.1002C66.8003 76.1002 64.0723 77.9762 64.0723 79.7282C64.0723 81.4802 66.7963 83.3562 70.8563 83.3562C74.9163 83.3562 77.6403 81.4802 77.6403 79.7282C77.6403 77.9762 74.9163 76.1002 70.8563 76.1002Z" fill="#231F20"/>
<path d="M80.6649 81.7802C84.9638 81.7802 88.4489 79.7081 88.4489 77.1522C88.4489 74.5962 84.9638 72.5242 80.6649 72.5242C76.3659 72.5242 72.8809 74.5962 72.8809 77.1522C72.8809 79.7081 76.3659 81.7802 80.6649 81.7802Z" fill="white"/>
<path d="M80.6649 82.7802C75.7409 82.7802 71.8809 80.3082 71.8809 77.1522C71.8809 73.9962 75.7369 71.5242 80.6649 71.5242C85.5929 71.5242 89.4489 73.9962 89.4489 77.1522C89.4489 80.3082 85.5929 82.7802 80.6649 82.7802ZM80.6649 73.5242C76.6089 73.5242 73.8809 75.4002 73.8809 77.1522C73.8809 78.9042 76.6049 80.7802 80.6649 80.7802C84.7249 80.7802 87.4489 78.9042 87.4489 77.1522C87.4489 75.4002 84.7249 73.5242 80.6649 73.5242Z" fill="#231F20"/>
</g>
</g>
<defs>
<clipPath id="clip0_1954_93807">
<rect width="230" height="160" rx="8" fill="white"/>
</clipPath>
<clipPath id="clip1_1954_93807">
<rect width="720" height="170" fill="white" transform="translate(-105 45)"/>
</clipPath>
</defs>
</svg>
