<svg width="150" height="105" viewBox="0 0 150 105" fill="none" xmlns="http://www.w3.org/2000/svg">
<g clip-path="url(#clip0_2967_83483)">
<path d="M150 0H0V104.348H150V0Z" fill="#F8B3FF"/>
<path d="M71.6271 83.4719C74.0454 78.7091 63.1083 68.2992 47.1982 60.2206C31.2882 52.1419 16.43 49.4539 14.0117 54.2166C11.5933 58.9794 22.5305 69.3893 38.4405 77.468C54.3506 85.5466 69.2087 88.2346 71.6271 83.4719Z" fill="white"/>
<path d="M35.9362 35.6804C35.8971 35.6804 35.8514 35.6804 35.8123 35.6674L28.5145 34.2652C28.1623 34.2 27.9275 33.8543 27.9992 33.5022C28.0645 33.15 28.4101 32.9152 28.7623 32.9869L36.0601 34.3891C36.4123 34.4543 36.6471 34.8 36.5753 35.1522C36.5166 35.4652 36.2427 35.6804 35.9362 35.6804Z" fill="#241F20"/>
<path d="M31.5856 38.6282C31.5465 38.6282 31.5009 38.6282 31.4617 38.6152C31.1096 38.55 30.8748 38.2043 30.9465 37.8522L31.6509 34.1609C31.7161 33.8087 32.0617 33.5739 32.4139 33.6456C32.7661 33.7109 33.0009 34.0565 32.9291 34.4087L32.2248 38.1C32.1661 38.413 31.8922 38.6282 31.5856 38.6282Z" fill="#241F20"/>
<path d="M29.2121 37.0696C29.0034 37.0696 28.8013 36.9717 28.6708 36.7826C28.4687 36.4826 28.5469 36.0783 28.8469 35.8761L34.9969 31.7022C35.2969 31.5 35.7013 31.5783 35.9034 31.8783C36.1056 32.1783 36.0273 32.5826 35.7273 32.7848L29.5773 36.9587C29.4665 37.0369 29.336 37.0696 29.2121 37.0696Z" fill="#241F20"/>
<path d="M34.3724 38.0543C34.1637 38.0543 33.9615 37.9565 33.8311 37.7674L29.6572 31.6174C29.455 31.3174 29.5332 30.913 29.8332 30.7109C30.1332 30.5087 30.5376 30.587 30.7398 30.887L34.9137 37.037C35.1158 37.337 35.0376 37.7413 34.7376 37.9435C34.6267 38.0217 34.4963 38.0543 34.3724 38.0543Z" fill="#241F20"/>
<path d="M32.2822 33.8739C32.2105 33.8739 32.1387 33.8609 32.067 33.8348C31.7278 33.7174 31.5518 33.3457 31.6692 33.0065C33.7952 26.9478 38.6213 18.9652 49.5257 15.313C49.8713 15.2022 50.2365 15.3848 50.3539 15.7239C50.4713 16.063 50.2822 16.4348 49.9431 16.5522C41.5952 19.35 35.8626 25.0304 32.9083 33.437C32.817 33.7043 32.5626 33.8739 32.2952 33.8739H32.2822Z" fill="#241F20"/>
<path d="M88.3281 42.0833C106.911 34.8719 120.01 23.9628 117.586 17.7172C115.162 11.4715 98.1333 12.2544 79.5508 19.4658C60.9684 26.6772 47.8692 37.5863 50.2929 43.8319C52.7167 50.0776 69.7456 49.2947 88.3281 42.0833Z" fill="white"/>
<path d="M61.3716 48.7C54.9738 48.7 50.8521 47.0826 49.6847 44.0696C49.5542 43.7304 49.7238 43.3587 50.0564 43.2283C50.389 43.0978 50.7673 43.2674 50.8977 43.6C51.9477 46.3 56.4347 47.6696 63.2173 47.3565C70.3325 47.0304 79.1629 44.9435 88.0912 41.4804C97.0129 38.0174 104.943 33.6022 110.415 29.0435C115.633 24.7 118.026 20.6565 116.976 17.9565C115.424 13.9587 106.306 13.0261 94.2934 15.6478C93.9412 15.7261 93.5956 15.5044 93.5173 15.1522C93.439 14.8 93.6608 14.4544 94.0129 14.3761C107.076 11.5261 116.337 12.7196 118.189 17.487C119.467 20.787 117.002 25.2478 111.243 30.0478C105.667 34.6913 97.6064 39.1848 88.5543 42.7C79.5021 46.2152 70.5216 48.3283 63.2695 48.6674C62.6108 48.7 61.9782 48.7131 61.3586 48.7131L61.3716 48.7Z" fill="#241F20"/>
<path d="M60.152 38.6696C62.9326 38.6696 65.1867 36.4154 65.1867 33.6348C65.1867 30.8542 62.9326 28.6 60.152 28.6C57.3713 28.6 55.1172 30.8542 55.1172 33.6348C55.1172 36.4154 57.3713 38.6696 60.152 38.6696Z" fill="#FF5E00"/>
<path d="M66.2496 32.0891C69.0303 32.0891 71.2844 29.835 71.2844 27.0543C71.2844 24.2737 69.0303 22.0196 66.2496 22.0196C63.469 22.0196 61.2148 24.2737 61.2148 27.0543C61.2148 29.835 63.469 32.0891 66.2496 32.0891Z" fill="#FF5E00"/>
<path d="M74.0231 33.9674C76.8037 33.9674 79.0578 31.7132 79.0578 28.9326C79.0578 26.152 76.8037 23.8978 74.0231 23.8978C71.2424 23.8978 68.9883 26.152 68.9883 28.9326C68.9883 31.7132 71.2424 33.9674 74.0231 33.9674Z" fill="#FF5E00"/>
<path d="M68.8258 40.7044C71.6064 40.7044 73.8606 38.4502 73.8606 35.6696C73.8606 32.8889 71.6064 30.6348 68.8258 30.6348C66.0452 30.6348 63.791 32.8889 63.791 35.6696C63.791 38.4502 66.0452 40.7044 68.8258 40.7044Z" fill="#FF5E00"/>
<path d="M57.2492 38.2261C57.1058 38.2261 56.9623 38.1804 56.8449 38.0826C54.3993 36.1196 54.0014 32.5326 55.9645 30.087C56.9166 28.9 58.2666 28.1565 59.7797 27.987C61.2927 27.8239 62.7732 28.2543 63.9601 29.2C64.2406 29.4283 64.2862 29.8326 64.0645 30.1196C63.8427 30.4 63.4319 30.4457 63.1449 30.2239C62.2319 29.4935 61.084 29.1609 59.9232 29.2913C58.7623 29.4217 57.7188 29.9957 56.9819 30.9087C55.4688 32.7935 55.7753 35.5587 57.6601 37.0717C57.9406 37.3 57.9862 37.7043 57.7645 37.9913C57.634 38.1543 57.4449 38.2391 57.2558 38.2391L57.2492 38.2261Z" fill="#241F20"/>
<path d="M65.6692 40.1304C65.5257 40.1304 65.3822 40.0848 65.2648 39.9869C62.8192 38.0239 62.4213 34.4369 64.3844 31.9913C66.3409 29.5456 69.9344 29.1478 72.38 31.1109C72.6605 31.3391 72.7061 31.7435 72.4844 32.0304C72.2626 32.3109 71.8518 32.3565 71.5648 32.1348C69.68 30.6217 66.9148 30.9283 65.4018 32.813C63.8887 34.6978 64.1953 37.463 66.08 38.9761C66.3605 39.2043 66.4061 39.6087 66.1844 39.8956C66.054 40.0587 65.8648 40.1435 65.6757 40.1435L65.6692 40.1304Z" fill="#241F20"/>
<path d="M61.2874 26.8261C61.2483 26.8261 61.2091 26.8261 61.1635 26.8131C60.8113 26.7478 60.5765 26.4022 60.6417 26.05C60.8113 25.1435 61.2091 24.2892 61.7896 23.5652C62.7417 22.3783 64.0917 21.6348 65.6048 21.4652C67.1178 21.2957 68.5983 21.7326 69.7852 22.6783C70.0656 22.9065 70.1113 23.3109 69.8896 23.5978C69.6678 23.8783 69.257 23.9239 68.97 23.7022C68.057 22.9718 66.9091 22.6392 65.7483 22.7696C64.5874 22.9 63.5439 23.4739 62.807 24.387C62.3635 24.9413 62.057 25.6065 61.92 26.3044C61.8613 26.6174 61.5874 26.8326 61.2809 26.8326L61.2874 26.8261Z" fill="#241F20"/>
<path d="M69.322 28.8935C69.2828 28.8935 69.2437 28.8935 69.1981 28.8804C68.8459 28.8152 68.6111 28.4696 68.6828 28.1174C68.8524 27.2109 69.2502 26.3565 69.8307 25.6326C71.7937 23.187 75.3807 22.7891 77.8263 24.7522C78.1068 24.9804 78.1524 25.3848 77.9307 25.6718C77.7089 25.9522 77.2981 25.9978 77.0111 25.7761C75.1263 24.2631 72.3611 24.5696 70.8481 26.4544C70.4046 27.0087 70.0981 27.6739 69.9611 28.3718C69.9024 28.6848 69.6285 28.9 69.322 28.9V28.8935Z" fill="#241F20"/>
<path d="M71.793 35.2652L88.3973 18.4587C88.3973 18.4587 94.2734 26.0631 86.0821 33.8957C86.0821 33.8957 79.6191 40.2283 71.793 35.2652Z" fill="#FFEC4F"/>
<path d="M79.5742 33.6348L96.1786 16.8283C96.1786 16.8283 102.055 24.4326 93.8634 32.2652C93.8634 32.2652 87.4003 38.5978 79.5742 33.6348Z" fill="#FFEC4F"/>
<path d="M88.0137 32.7413L104.618 15.9348C104.618 15.9348 110.494 23.5391 102.303 31.3717C102.303 31.3717 95.8398 37.7043 88.0137 32.7413Z" fill="#FFEC4F"/>
<path d="M91.3001 30.0739C91.1371 30.0739 90.9675 30.0087 90.8436 29.8848C90.5893 29.6304 90.5827 29.2196 90.8436 28.9652L99.3545 20.35C99.6088 20.0957 100.02 20.0891 100.274 20.35C100.528 20.6044 100.535 21.0152 100.274 21.2696L91.7632 29.8848C91.6327 30.0152 91.4697 30.0804 91.3001 30.0804V30.0739Z" fill="#241F20"/>
<path d="M94.1502 35.2848C92.1741 35.2848 89.9698 34.7565 87.6676 33.2957C87.3611 33.1 87.2763 32.7022 87.4654 32.3957C87.6611 32.0891 88.0589 32.0044 88.3654 32.1935C95.6502 36.8109 101.598 31.15 101.852 30.9087C109.509 23.5848 104.331 16.6261 104.109 16.3326C103.894 16.0457 103.946 15.6348 104.226 15.4196C104.513 15.1978 104.918 15.25 105.139 15.537C105.205 15.6152 111.276 23.7022 102.759 31.8478C102.713 31.8935 99.172 35.2848 94.1567 35.2848H94.1502Z" fill="#241F20"/>
<path d="M85.7701 36.2044C83.5461 36.2044 81.3614 35.5326 79.2614 34.2022C78.9548 34.0065 78.8701 33.6087 79.0592 33.3022C79.2548 32.9957 79.6527 32.9109 79.9592 33.1C82.4961 34.7109 85.1505 35.2457 87.844 34.6848C88.1961 34.6131 88.5418 34.8348 88.6135 35.1935C88.6853 35.5457 88.457 35.8913 88.1048 35.9631C87.3222 36.1261 86.5396 36.2109 85.7635 36.2109L85.7701 36.2044Z" fill="#241F20"/>
<path d="M82.1302 31.8609C81.9672 31.8609 81.7976 31.7957 81.6737 31.6718C81.4193 31.4174 81.4128 31.0065 81.6737 30.7522L90.1846 22.137C90.4389 21.8826 90.8498 21.8761 91.1041 22.137C91.3585 22.3913 91.365 22.8022 91.1041 23.0565L82.5933 31.6718C82.4628 31.8022 82.2998 31.8674 82.1302 31.8674V31.8609Z" fill="#241F20"/>
<path d="M78.4517 37.7696C76.2278 37.7696 74.043 37.0978 71.943 35.7674C71.6365 35.5718 71.5517 35.1739 71.7408 34.8674C71.93 34.5609 72.3343 34.4761 72.6408 34.6652C75.1778 36.2761 77.8321 36.8109 80.5256 36.25C80.8778 36.1783 81.2234 36.4 81.2952 36.7587C81.3669 37.1109 81.1387 37.4565 80.7865 37.5283C80.0039 37.6913 79.2213 37.7761 78.4452 37.7761L78.4517 37.7696Z" fill="#241F20"/>
<path d="M76.2298 31.9978C76.0668 31.9978 75.8972 31.9326 75.7733 31.8087C75.5189 31.5544 75.5124 31.1435 75.7733 30.8891L82.8755 23.7022C83.1298 23.4478 83.5407 23.4413 83.795 23.7022C84.0494 23.9565 84.0559 24.3674 83.795 24.6218L76.6929 31.8087C76.5624 31.9391 76.3994 32.0044 76.2298 32.0044V31.9978Z" fill="#241F20"/>
<path d="M133.215 63.4913C133.443 62.5913 133.541 61.6456 133.495 60.6543L133.352 57.563C133.632 56.3565 130.163 54.5304 125.61 53.4739C121.058 52.4174 117.139 52.5413 116.858 53.7478L115.371 56.4609C114.132 58.7174 113.91 61.1891 114.478 63.4456C115.554 62.337 119.323 61.5152 123.83 61.5152C128.336 61.5152 132.21 62.3565 133.221 63.4913H133.215Z" fill="white"/>
<path d="M121.664 70.5348C126.946 71.7543 131.974 68.4217 133.22 63.4978C132.203 62.3696 128.394 61.5217 123.829 61.5217C119.264 61.5217 115.553 62.3435 114.477 63.4522C115.318 66.8109 117.927 69.6739 121.664 70.5348Z" fill="#FF5E00"/>
<path d="M106.164 68.8C105.89 67.913 105.486 67.0522 104.938 66.2304L103.21 63.6609C102.825 62.487 98.9117 62.7152 94.4704 64.1696C90.0291 65.6239 86.7356 67.7565 87.1204 68.9304L87.2508 72.0217C87.3617 74.5913 88.4508 76.8217 90.1008 78.4587C92.5595 80.8978 96.2769 81.9935 99.9161 80.8C105.068 79.1109 107.651 73.6587 106.157 68.8H106.164Z" fill="white"/>
<path d="M96.7798 72.1C92.345 72.1 88.6211 72.8957 87.4863 73.9783C87.6494 74.6304 87.8842 75.2565 88.1711 75.8435C88.6537 76.8217 89.2863 77.7087 90.0428 78.4652C92.5015 80.9044 96.2189 82 99.8581 80.8065C102.539 79.9261 104.515 78.0283 105.591 75.7261C105.832 75.2044 106.034 74.6631 106.184 74.1087C105.206 72.9609 101.371 72.1065 96.7733 72.1065L96.7798 72.1Z" fill="#FF5E00"/>
<path d="M129.754 59.2065C128.123 59.2065 126.121 58.9522 124.054 58.4696C120.754 57.7065 115.308 55.8217 115.823 53.5978C116.038 52.6717 117.18 52.1761 119.208 52.1109C120.917 52.0587 123.101 52.313 125.351 52.8413C127.608 53.363 129.682 54.087 131.195 54.8891C132.995 55.8413 133.797 56.787 133.588 57.713C133.373 58.6391 132.232 59.1348 130.204 59.2C130.06 59.2 129.91 59.2065 129.754 59.2065ZM119.638 53.4152C118.132 53.4152 117.225 53.6435 117.088 53.9043C117.108 54.4457 119.677 56.1217 124.347 57.2043C128.991 58.2804 132.03 57.9152 132.317 57.4196C132.277 56.8522 129.708 55.1891 125.064 54.113C122.854 53.5978 121.001 53.4152 119.645 53.4152H119.638Z" fill="#241F20"/>
<path d="M123.473 71.4348C122.69 71.4348 121.901 71.3435 121.112 71.1609C117.362 70.2935 114.427 67.437 113.449 63.7065C113.358 63.3609 113.567 63.0022 113.912 62.9109C114.258 62.8196 114.617 63.0283 114.708 63.3739C115.562 66.6348 118.125 69.1261 121.399 69.8891C124.171 70.5283 127.021 69.85 129.206 68.0304C131.39 66.2043 132.571 63.5304 132.434 60.6804L132.29 57.5891C132.271 57.2304 132.551 56.9239 132.91 56.9043C133.243 56.8913 133.575 57.1652 133.595 57.5239L133.738 60.6152C133.895 63.8696 132.545 66.9348 130.04 69.0283C128.156 70.6 125.847 71.4283 123.46 71.4283L123.473 71.4348Z" fill="#241F20"/>
<path d="M104.073 92.4336C107.297 91.2874 109.575 89.4146 109.161 88.2506C108.747 87.0865 105.798 87.072 102.574 88.2181C99.35 89.3643 97.0718 91.2371 97.4856 92.4011C97.8994 93.5652 100.849 93.5797 104.073 92.4336Z" fill="white"/>
<path d="M88.8812 70.6587C87.5573 70.6587 86.5399 70.3522 86.2399 69.5174C85.9203 68.6239 86.6116 67.5869 88.2943 66.4391C89.703 65.4739 91.6856 64.5152 93.8638 63.7391C97.0529 62.6043 102.655 61.2609 103.425 63.4065C104.188 65.5522 98.9899 68.05 95.8008 69.1848C93.8443 69.8826 90.9812 70.6522 88.8812 70.6522V70.6587ZM100.875 63.5826C99.5182 63.5826 97.2095 63.9413 94.3008 64.9717C89.7877 66.5761 87.4203 68.5326 87.4725 69.0869C87.779 69.5304 90.8508 69.563 95.3638 67.9522C99.8508 66.3543 102.218 64.4109 102.192 63.8435C102.075 63.6804 101.612 63.5761 100.875 63.5761V63.5826Z" fill="#241F20"/>
<path d="M99.7594 93.9478H99.7203C97.7442 93.9413 97.079 93.2239 96.8703 92.6304C96.5116 91.613 97.2681 90.413 99.0029 89.2587C99.3029 89.0565 99.7073 89.1413 99.9094 89.4413C100.112 89.7413 100.027 90.1456 99.7268 90.3478C98.3312 91.2804 98.0247 91.9978 98.0964 92.2C98.1616 92.3761 98.6442 92.6435 99.7268 92.65C100.927 92.65 102.362 92.3696 103.855 91.8348C105.825 91.1369 107.507 90.1261 108.244 89.1935C108.466 88.913 108.877 88.8674 109.164 89.0891C109.444 89.3109 109.49 89.7217 109.268 90.0087C108.375 91.1369 106.509 92.2782 104.292 93.0674C102.681 93.6413 101.07 93.9543 99.7594 93.9543V93.9478Z" fill="#241F20"/>
<path d="M103.32 90.9869C103.053 90.9869 102.798 90.8174 102.707 90.55L99.3352 81.0674C99.2178 80.7282 99.3939 80.3565 99.733 80.2326C100.072 80.1152 100.444 80.2913 100.568 80.6304L103.94 90.113C104.057 90.4522 103.881 90.8239 103.542 90.9478C103.47 90.9739 103.398 90.9869 103.326 90.9869H103.32Z" fill="#241F20"/>
<path d="M96.6957 82.0717C94.7196 82.0717 92.7631 81.4978 91.0479 80.3695C88.3218 78.5826 86.6327 75.6869 86.4174 72.4326L86.2088 69.3413C86.1827 68.9826 86.4566 68.6695 86.8153 68.65C87.174 68.6239 87.487 68.8978 87.5066 69.2565L87.7153 72.3478C87.9044 75.1913 89.3783 77.7152 91.7587 79.2804C94.1392 80.8456 97.0414 81.1913 99.7283 80.2391C103.054 79.0587 105.396 76.013 105.696 72.4848C105.728 72.1261 106.048 71.8587 106.4 71.8913C106.759 71.9239 107.026 72.2369 106.994 72.5956C106.654 76.6326 103.974 80.1152 100.165 81.4652C99.024 81.8695 97.8566 82.0717 96.6892 82.0717H96.6957Z" fill="#241F20"/>
<path d="M125.028 81.7385C125.306 80.5349 122.83 78.9338 119.496 78.1623C116.162 77.3908 113.234 77.7412 112.956 78.9448C112.677 80.1484 115.154 81.7495 118.487 82.521C121.821 83.2925 124.749 82.9422 125.028 81.7385Z" fill="white"/>
<path d="M121.815 83.5783C120.752 83.5783 119.552 83.4348 118.339 83.1544C115.939 82.6 113.859 81.5957 112.9 80.5261C112.659 80.2587 112.685 79.8478 112.952 79.6065C113.22 79.3652 113.631 79.3848 113.872 79.6587C114.648 80.5196 116.513 81.3935 118.633 81.8891C120.172 82.2478 121.659 82.3652 122.826 82.2283C123.896 82.0978 124.352 81.7783 124.391 81.5957C124.437 81.387 124.118 80.8457 123.041 80.2065C122.735 80.0239 122.631 79.6196 122.813 79.313C122.996 79.0065 123.4 78.9022 123.707 79.0848C125.181 79.9652 125.872 80.963 125.663 81.8891C125.52 82.5022 124.939 83.2848 122.983 83.5196C122.618 83.5652 122.226 83.5848 121.822 83.5848L121.815 83.5783Z" fill="#241F20"/>
<path d="M118.991 80.9892C118.939 80.9892 118.893 80.9892 118.841 80.9696C118.489 80.8913 118.274 80.5392 118.352 80.187L120.622 70.3783C120.7 70.0261 121.052 69.8109 121.404 69.8892C121.756 69.9674 121.972 70.3196 121.893 70.6718L119.624 80.4805C119.552 80.7805 119.285 80.9826 118.991 80.9826V80.9892Z" fill="#241F20"/>
<path d="M65.4718 86.8174C58.5979 86.8174 47.8631 83.3283 38.1392 78.3913C30.3913 74.4587 23.5566 69.8478 18.9 65.4131C14.0609 60.8022 12.1174 56.8435 13.4283 54.2609C13.5913 53.9413 13.9826 53.8109 14.3022 53.9739C14.6218 54.137 14.7522 54.5283 14.5892 54.8478C13.5783 56.8435 15.4761 60.3457 19.8 64.4674C24.3718 68.8174 31.0957 73.35 38.7326 77.2239C55.6174 85.7935 69.0718 87.3913 71.0413 83.5109C71.5305 82.5457 71.3413 81.2283 70.487 79.6044C70.3174 79.2848 70.4413 78.8935 70.7609 78.7239C71.0805 78.5544 71.4718 78.6783 71.6413 78.9978C72.7109 81.0196 72.9 82.7413 72.2087 84.1044C71.25 85.9891 68.8174 86.8174 65.4718 86.8174Z" fill="#241F20"/>
<path d="M27.2097 60.8804C29.9111 60.8804 32.101 58.6905 32.101 55.9891C32.101 53.2878 29.9111 51.0978 27.2097 51.0978C24.5083 51.0978 22.3184 53.2878 22.3184 55.9891C22.3184 58.6905 24.5083 60.8804 27.2097 60.8804Z" fill="#FFEC4F"/>
<path d="M50.3151 68.9087C50.9151 70.2196 50.9347 71.7848 50.2303 73.1674C49.0042 75.5739 46.0629 76.5391 43.6564 75.3131C41.2499 74.087 40.2847 71.1457 41.5108 68.7391C42.7368 66.3326 45.6782 65.3674 48.0847 66.5935C49.1086 67.1152 49.8716 67.9435 50.3151 68.9087Z" fill="#FFEC4F"/>
<path d="M60.1516 63.9328L59.355 63.5282C57.3381 62.5041 54.8729 63.3089 53.8488 65.3258L53.4443 66.1225C52.4202 68.1393 53.225 70.6045 55.2419 71.6286L56.0385 72.0331C58.0554 73.0572 60.5206 72.2524 61.5447 70.2356L61.9492 69.4389C62.9733 67.422 62.1685 64.9569 60.1516 63.9328Z" fill="#FFEC4F"/>
<path d="M27.1371 55.0891C26.798 55.0891 26.511 54.8217 26.485 54.4761L26.0154 47.0739C25.9893 46.7152 26.2632 46.4022 26.6219 46.3826C26.9741 46.3565 27.2937 46.6304 27.3132 46.9956L27.7828 54.3978C27.8089 54.7565 27.535 55.0696 27.1763 55.0891C27.1632 55.0891 27.1502 55.0891 27.1371 55.0891Z" fill="#241F20"/>
<path d="M46.6887 69.6522C46.6104 69.6522 46.5387 69.6391 46.4604 69.6131C46.1213 69.4891 45.9517 69.1109 46.0756 68.7783L49.0691 60.6652C49.193 60.3261 49.5713 60.1565 49.9039 60.2805C50.243 60.4044 50.4126 60.7826 50.2887 61.1152L47.2952 69.2283C47.1974 69.4891 46.9496 69.6522 46.6822 69.6522H46.6887Z" fill="#241F20"/>
<path d="M27.1955 61.3109C26.3346 61.3109 25.4803 61.1087 24.6911 60.7044C22.9303 59.8109 21.7694 58.0305 21.665 56.0544C21.6455 55.6957 21.9194 55.3892 22.2781 55.3696C22.6237 55.3435 22.9433 55.6239 22.9629 55.9826C23.0477 57.4891 23.9346 58.8522 25.2781 59.537C26.289 60.0522 27.4368 60.137 28.5129 59.7848C29.589 59.4326 30.4629 58.6826 30.9781 57.6718C31.6564 56.3413 31.5781 54.737 30.7759 53.4718C30.5803 53.1652 30.6716 52.7674 30.9781 52.5718C31.2781 52.3826 31.6824 52.4674 31.8781 52.7739C32.9216 54.4174 33.0259 56.5239 32.1455 58.2587C31.4737 59.5761 30.3324 60.5609 28.9237 61.0174C28.3564 61.2 27.7759 61.2913 27.1955 61.2913V61.3109Z" fill="#241F20"/>
<path d="M33.299 58.564L33.2932 58.561C31.0451 57.4195 28.2973 58.3166 27.1558 60.5647L27.1528 60.5705C26.0113 62.8186 26.9084 65.5664 29.1565 66.7079L29.1623 66.7109C31.4104 67.8524 34.1582 66.9553 35.2997 64.7072L35.3026 64.7014C36.4442 62.4533 35.5471 59.7055 33.299 58.564Z" fill="#FFEC4F"/>
<path d="M31.2335 67.8522C29.9552 67.8522 28.677 67.3891 27.6726 66.45C25.5726 64.487 25.4552 61.1739 27.4248 59.0739C29.3878 56.9739 32.7009 56.8565 34.8009 58.8261C35.0617 59.0739 35.0748 59.4848 34.8335 59.7456C34.5856 60.0065 34.1748 60.0196 33.9139 59.7783C32.3356 58.3043 29.8509 58.3891 28.3769 59.9674C26.903 61.5456 26.9878 64.0304 28.5661 65.5043C30.1443 66.9783 32.6291 66.8935 34.103 65.3152C34.3509 65.0543 34.7617 65.0413 35.0226 65.2826C35.2835 65.5304 35.2965 65.9413 35.0552 66.2022C34.0313 67.2978 32.6356 67.8587 31.24 67.8587L31.2335 67.8522Z" fill="#241F20"/>
<path d="M45.8609 76.5C45 76.5 44.1457 76.2978 43.3566 75.8935C40.6305 74.5109 39.5413 71.1652 40.924 68.4391C41.087 68.1196 41.4783 67.9891 41.7979 68.1522C42.1174 68.3152 42.2479 68.7065 42.0848 69.0261C41.0283 71.113 41.8631 73.6696 43.95 74.7261C44.9609 75.2413 46.1087 75.3261 47.1848 74.9739C48.2609 74.6217 49.1348 73.8717 49.65 72.8609C50.1587 71.8565 50.25 70.7152 49.9044 69.6391C49.7935 69.2935 49.9826 68.9283 50.3283 68.8174C50.674 68.7065 51.0392 68.8956 51.15 69.2413C51.6 70.6435 51.4826 72.137 50.8174 73.4478C50.1457 74.7652 49.0044 75.75 47.5957 76.2065C47.0283 76.3891 46.4479 76.4804 45.8674 76.4804L45.8609 76.5Z" fill="#241F20"/>
<path d="M57.6969 72.9783C56.8882 72.9783 56.0925 72.7891 55.3491 72.4109C55.0295 72.2478 54.8991 71.8565 55.0621 71.537C55.2251 71.2174 55.6164 71.087 55.936 71.25C56.8621 71.7196 57.9186 71.8043 58.9034 71.4783C59.8882 71.1587 60.6969 70.4674 61.1664 69.5413C62.1382 67.6304 61.3686 65.2826 59.4578 64.3109C58.5317 63.8413 57.4751 63.7565 56.4904 64.0826C55.5056 64.4087 54.6969 65.0935 54.2273 66.0196C54.0643 66.3391 53.673 66.4696 53.3534 66.3065C53.0338 66.1435 52.9034 65.7522 53.0664 65.4326C53.6925 64.1935 54.7686 63.2739 56.086 62.8435C57.4034 62.413 58.8121 62.5239 60.0512 63.15C62.6078 64.4478 63.6317 67.5783 62.3338 70.1348C61.7078 71.3739 60.6317 72.2935 59.3143 72.7239C58.786 72.9 58.2382 72.9848 57.6969 72.9848V72.9783Z" fill="#241F20"/>
<path d="M66.1717 70.8114L65.1229 69.9307C63.3906 68.4762 60.8072 68.7013 59.3526 70.4335L58.4719 71.4824C57.0173 73.2146 57.2424 75.7981 58.9747 77.2526L60.0235 78.1333C61.7558 79.5879 64.3392 79.3628 65.7938 77.6305L66.6745 76.5817C68.1291 74.8494 67.904 72.266 66.1717 70.8114Z" fill="#FFEC4F"/>
<path d="M64.3824 73.9174C64.1867 73.9174 63.9911 73.8261 63.8606 73.663C63.6454 73.3761 63.6976 72.9652 63.9846 72.75L70.5193 67.7609C70.8063 67.5391 71.2172 67.5978 71.4324 67.8848C71.6476 68.1717 71.5954 68.5826 71.3085 68.7978L64.7737 73.7869C64.6563 73.8783 64.5128 73.9239 64.3759 73.9239L64.3824 73.9174Z" fill="#241F20"/>
<path d="M59.5036 78.3391C59.3536 78.3391 59.2036 78.287 59.0862 78.1891C57.971 77.2565 57.2927 75.9457 57.1688 74.4978C57.0449 73.05 57.4884 71.6413 58.421 70.5326C59.3536 69.4239 60.6645 68.7391 62.1123 68.6152C63.5536 68.4913 64.9688 68.9348 66.0775 69.8674C66.3514 70.1022 66.3906 70.513 66.1558 70.787C65.9275 71.0609 65.5101 71.1 65.2362 70.8652C64.3884 70.1544 63.3123 69.8152 62.2232 69.913C61.1275 70.0109 60.1297 70.5261 59.4188 71.3739C58.708 72.2217 58.3688 73.2913 58.4667 74.387C58.5645 75.4826 59.0797 76.4804 59.9275 77.1913C60.2014 77.4261 60.2406 77.837 60.0058 78.1109C59.8754 78.2674 59.6927 78.3457 59.5036 78.3457V78.3391Z" fill="#241F20"/>
<path d="M66.2407 77.7522C66.0907 77.7522 65.9472 77.7 65.8233 77.6022C65.5494 77.3674 65.5102 76.9565 65.745 76.6826C66.4559 75.8413 66.7885 74.7652 66.6972 73.6696C66.5994 72.5739 66.0842 71.5761 65.2363 70.8652C64.9624 70.6304 64.9233 70.2196 65.1581 69.9457C65.3863 69.6717 65.7972 69.6326 66.0776 69.8674C67.1863 70.8 67.8711 72.1109 67.995 73.5587C68.1189 75.0065 67.6755 76.4152 66.7428 77.5239C66.6124 77.6804 66.4298 77.7587 66.2407 77.7587V77.7522Z" fill="#241F20"/>
<path d="M101.589 56.3956C101.452 56.3956 101.315 56.3565 101.204 56.2652C100.917 56.05 100.852 55.6391 101.067 55.3522L105.495 49.3783C105.71 49.0913 106.121 49.0261 106.408 49.2413C106.695 49.4565 106.76 49.8674 106.545 50.1543L102.117 56.1283C101.986 56.3043 101.791 56.3891 101.595 56.3891L101.589 56.3956Z" fill="#241F20"/>
<path d="M106.837 55.6652C106.7 55.6652 106.563 55.6261 106.452 55.5348L100.432 51.0739C100.145 50.8587 100.08 50.4478 100.295 50.1609C100.511 49.8739 100.921 49.8087 101.208 50.0239L107.228 54.4848C107.515 54.7 107.58 55.1109 107.365 55.3978C107.235 55.5674 107.039 55.6587 106.843 55.6587L106.837 55.6652Z" fill="#241F20"/>
<path d="M104.347 57.087C104.028 57.087 103.754 56.8522 103.702 56.5326L102.612 49.1826C102.56 48.8239 102.808 48.4913 103.16 48.4391C103.512 48.387 103.845 48.6348 103.904 48.987L104.993 56.337C105.045 56.6957 104.797 57.0283 104.445 57.0804C104.412 57.0804 104.38 57.087 104.347 57.087Z" fill="#241F20"/>
<path d="M100.127 53.9565C99.8076 53.9565 99.5337 53.7218 99.4815 53.4022C99.4294 53.0435 99.6772 52.7174 100.029 52.6587L107.379 51.5631C107.738 51.5109 108.064 51.7587 108.123 52.1109C108.175 52.4696 107.927 52.7957 107.575 52.8544L100.225 53.95C100.225 53.95 100.16 53.9565 100.127 53.9565Z" fill="#241F20"/>
</g>
<defs>
<clipPath id="clip0_2967_83483">
<rect width="150" height="104.348" fill="white"/>
</clipPath>
</defs>
</svg>
