<svg width="150" height="105" viewBox="0 0 150 105" fill="none" xmlns="http://www.w3.org/2000/svg">
<g clip-path="url(#clip0_2967_83360)">
<path d="M150 0H0V104.348H150V0Z" fill="#2BE6AE"/>
<path d="M61.5428 27.8043L60.1406 36.6087L94.0993 52.287L96.2319 40.1956L64.5689 27.7978L61.5428 27.8043Z" fill="white"/>
<path d="M65.8331 21.7848L92.9505 20.8391L124.105 31.9065L122.5 42.1522L95.2135 46.013L64.0918 32.663L65.8331 21.7848Z" fill="#0AACFF"/>
<path d="M68.9118 30.7204L93.2243 40.9254C94.1575 41.3171 95.2316 40.8782 95.6233 39.9449L95.7521 39.6382C96.1438 38.705 95.7048 37.6309 94.7716 37.2392L70.4591 27.0341C69.5259 26.6424 68.4518 27.0814 68.06 28.0146L67.9313 28.3213C67.5396 29.2546 67.9786 30.3287 68.9118 30.7204Z" fill="white"/>
<path d="M71.8278 17.7021L90.0822 16.3782L116.86 26.1543L115.876 32.2587L98.4561 34.8739L70.8691 23.6695L71.8278 17.7021Z" fill="white"/>
<path d="M98.4561 34.8739L70.8691 23.6695L71.8278 17.7021L90.0822 16.3782L116.86 26.1543L115.876 32.2587L98.4561 34.8739Z" fill="white"/>
<path d="M94.3418 52.6652L95.2157 46.013L120.292 42.4652L119.15 48.4456L94.3418 52.6652Z" fill="#FFEC4F"/>
<path d="M98.4555 35.5261C98.1359 35.5261 97.862 35.2913 97.8098 34.9717C97.7576 34.613 97.999 34.2804 98.3577 34.2282L115.784 31.6195C116.149 31.5674 116.475 31.8152 116.527 32.1674C116.579 32.5261 116.338 32.8587 115.979 32.9109L98.5533 35.5195C98.5207 35.5195 98.4881 35.5261 98.4555 35.5261Z" fill="#241F20"/>
<path d="M122.899 40.2674C122.866 40.2674 122.833 40.2674 122.794 40.2609C122.436 40.2022 122.194 39.8695 122.253 39.5174L123.459 31.8087C123.512 31.4565 123.851 31.2087 124.203 31.2674C124.562 31.3261 124.803 31.6587 124.744 32.0109L123.538 39.7195C123.486 40.0391 123.212 40.2739 122.892 40.2739L122.899 40.2674Z" fill="#241F20"/>
<path d="M95.2139 46.6652C95.1291 46.6652 95.0378 46.6456 94.9596 46.613L63.8378 33.263C63.5639 33.1456 63.4009 32.8587 63.453 32.5587L65.1943 21.6869C65.253 21.3282 65.5856 21.0869 65.9443 21.1456C66.303 21.2043 66.5443 21.5369 66.4857 21.8956L64.8226 32.2652L95.4748 45.4195C95.8074 45.563 95.9574 45.9478 95.8139 46.2739C95.7096 46.5217 95.4683 46.6717 95.2139 46.6717V46.6652Z" fill="#241F20"/>
<path d="M100.614 45.8565C100.294 45.8565 100.02 45.6217 99.9679 45.3022C99.9157 44.9435 100.164 44.6108 100.516 44.5587L122.39 41.2978C122.748 41.2456 123.081 41.4935 123.133 41.8456C123.185 42.2043 122.937 42.5369 122.585 42.5891L100.711 45.85C100.711 45.85 100.646 45.8565 100.614 45.8565Z" fill="#241F20"/>
<path d="M93.9422 41.7217C93.6161 41.7217 93.29 41.6565 92.9835 41.5261L68.6705 31.3195C68.0574 31.0652 67.5813 30.5826 67.3335 29.9695C67.0857 29.3565 67.0857 28.6782 67.34 28.0652L67.4705 27.7587C67.9987 26.4935 69.4596 25.9 70.7248 26.4282L95.0378 36.6348C95.6509 36.8891 96.127 37.3717 96.3748 37.9848C96.6226 38.5978 96.6226 39.2761 96.3683 39.8891L96.2379 40.1956C95.9835 40.8087 95.5009 41.2848 94.8878 41.5326C94.5878 41.6565 94.2683 41.7217 93.9487 41.7217H93.9422ZM69.7596 27.5369C69.2965 27.5369 68.8596 27.8108 68.6705 28.2608L68.54 28.5674C68.4161 28.8608 68.4161 29.1804 68.54 29.4674C68.6574 29.7608 68.8857 29.9891 69.1726 30.1065L93.4857 40.313C93.7792 40.4369 94.0987 40.4369 94.3857 40.313C94.6791 40.1956 94.9074 39.9674 95.0248 39.6804L95.1552 39.3739C95.2792 39.0804 95.2792 38.7608 95.1552 38.4739C95.0378 38.1804 94.8096 37.9521 94.5226 37.8348L70.2096 27.6282C70.0596 27.563 69.9096 27.5369 69.7531 27.5369H69.7596Z" fill="#241F20"/>
<path d="M94.2032 52.9652C94.1119 52.9652 94.0206 52.9456 93.9293 52.9065L59.8076 37.3065C59.5402 37.1826 59.3902 36.9022 59.4359 36.6087L60.4859 30.0478C60.5445 29.6891 60.8772 29.4478 61.2359 29.5065C61.5945 29.5652 61.8359 29.8978 61.7772 30.2565L60.8054 36.3282L93.6945 51.3674L94.5685 45.9152C94.6272 45.5565 94.9598 45.3152 95.3185 45.3739C95.6772 45.4326 95.9185 45.7652 95.8598 46.1239L94.8489 52.4239C94.8163 52.6261 94.6924 52.8022 94.5098 52.8935C94.4119 52.9456 94.3076 52.9717 94.2032 52.9717V52.9652Z" fill="#241F20"/>
<path d="M94.2035 52.9652C93.8905 52.9652 93.61 52.7369 93.5579 52.4108C93.5057 52.0521 93.747 51.7195 94.0992 51.6674L119.188 47.7348C119.554 47.6761 119.88 47.9239 119.932 48.2761C119.984 48.6347 119.743 48.9674 119.39 49.0195L94.3013 52.9521C94.2687 52.9521 94.2296 52.9587 94.197 52.9587L94.2035 52.9652Z" fill="#241F20"/>
<path d="M49.5273 25.65H49.5208C49.1621 25.65 48.8686 25.35 48.8751 24.9913L48.9534 17.5565C48.9534 17.1978 49.2468 16.9174 49.6121 16.9109C49.9708 16.9109 50.2642 17.2109 50.2577 17.5696L50.1795 25.0044C50.1795 25.3631 49.886 25.65 49.5273 25.65Z" fill="#241F20"/>
<path d="M53.2779 21.9718H53.2714L49.5149 21.9326C49.1562 21.9326 48.8627 21.6326 48.8692 21.2739C48.8692 20.9153 49.1627 20.6283 49.5214 20.6283H49.5279L53.2845 20.6674C53.6432 20.6674 53.9366 20.9674 53.9301 21.3261C53.9301 21.6848 53.6366 21.9718 53.2779 21.9718Z" fill="#241F20"/>
<path d="M52.1621 24.5935C51.9925 24.5935 51.8229 24.5283 51.699 24.3978L46.5012 19.0892C46.2469 18.8283 46.2534 18.4174 46.5142 18.1696C46.7751 17.9152 47.186 17.9218 47.4338 18.1761L52.6316 23.4848C52.886 23.7457 52.8795 24.1565 52.6186 24.4044C52.4947 24.5283 52.3251 24.5935 52.1621 24.5935Z" fill="#241F20"/>
<path d="M46.9057 24.5348C46.7361 24.5348 46.5665 24.4696 46.4426 24.3391C46.1883 24.0783 46.1948 23.6674 46.4557 23.4196L51.7644 18.2217C52.0252 17.9674 52.4361 17.9739 52.6839 18.2283C52.9383 18.4891 52.9317 18.9 52.6709 19.1478L47.3622 24.3457C47.2383 24.4696 47.0687 24.5348 46.9057 24.5348Z" fill="#241F20"/>
<path d="M19.4481 40.5326C19.3633 40.5326 19.285 40.5196 19.2002 40.487C18.8676 40.35 18.7046 39.9717 18.8415 39.6391C18.9263 39.4239 27.7307 18.3261 49.585 20.8435C49.9437 20.8826 50.1981 21.2087 50.1589 21.5674C50.1198 21.9261 49.8002 22.1804 49.435 22.1413C28.5785 19.7348 20.1328 39.9261 20.0546 40.1283C19.9502 40.3826 19.7089 40.5326 19.4481 40.5326Z" fill="#241F20"/>
<path d="M56.4206 66.8739C56.2837 66.8739 56.1467 66.8348 56.0358 66.7435C55.7489 66.5282 55.6837 66.1174 55.8989 65.8304L60.3272 59.8565C60.5424 59.5695 60.9532 59.5043 61.2402 59.7195C61.5272 59.9348 61.5924 60.3456 61.3772 60.6326L56.9489 66.6065C56.8185 66.7761 56.6228 66.8674 56.4272 66.8674L56.4206 66.8739Z" fill="#241F20"/>
<path d="M58.6629 63.913C58.5259 63.913 58.3889 63.8739 58.2781 63.7826L55.2585 61.5456C54.9716 61.3304 54.9063 60.9195 55.1215 60.6326C55.3368 60.3456 55.7476 60.2804 56.0346 60.4956L59.0542 62.7326C59.3411 62.9478 59.4063 63.3587 59.1911 63.6456C59.0607 63.8152 58.865 63.9065 58.6694 63.9065L58.6629 63.913Z" fill="#241F20"/>
<path d="M59.1792 67.5652C58.8597 67.5652 58.5857 67.3304 58.5336 67.0109L57.4444 59.6609C57.3923 59.3022 57.6401 58.9695 57.9923 58.9174C58.3379 58.8652 58.677 59.113 58.7357 59.4652L59.8249 66.8152C59.877 67.1739 59.6292 67.5065 59.277 67.5587C59.2444 67.5587 59.2118 67.5652 59.1792 67.5652Z" fill="#241F20"/>
<path d="M54.9592 64.4348C54.6397 64.4348 54.3658 64.2 54.3136 63.8804C54.2614 63.5217 54.5092 63.1957 54.8614 63.137L62.2114 62.0413C62.5701 61.9891 62.9027 62.237 62.9549 62.5891C63.0071 62.9413 62.7592 63.2739 62.4071 63.3326L55.0571 64.4283C55.0571 64.4283 54.9918 64.4348 54.9592 64.4348Z" fill="#241F20"/>
<path d="M77.2945 71.0739C71.5945 71.0739 64.7336 69.4304 58.3554 63.5804C58.088 63.3391 58.0749 62.9217 58.3162 62.6609C58.5575 62.3935 58.9684 62.3804 59.2358 62.6217C65.7249 68.5696 73.4728 70.8326 82.2641 69.3457C82.6162 69.2804 82.9554 69.5217 83.0141 69.8804C83.0728 70.2326 82.838 70.5717 82.4793 70.6304C80.9141 70.8978 79.1662 71.0739 77.288 71.0739H77.2945Z" fill="#241F20"/>
<path d="M33.9753 65.3161C39.3203 62.9665 43.0751 59.7467 42.3619 58.1244C41.6488 56.5021 36.7377 57.0917 31.3928 59.4413C26.0478 61.7909 22.293 65.0108 23.0061 66.6331C23.7193 68.2554 28.6303 67.6658 33.9753 65.3161Z" fill="#0AACFF"/>
<path d="M23.0469 66.3131C23.7577 67.937 28.6686 67.3435 34.0164 64.9957C39.3643 62.6478 43.1208 59.4261 42.4034 57.8087L51.3643 78.2022C52.3621 80.4718 48.8338 84.2152 43.4925 86.5696C38.1447 88.9174 33.0056 88.9826 32.0077 86.7131L23.0469 66.3196V66.3131Z" fill="#FFEC4F"/>
<path d="M22.6888 67.2848C22.441 67.2848 22.1997 67.1413 22.0888 66.8935C21.7562 66.137 21.8475 64.8131 24.1823 62.8174C25.8128 61.4217 28.1671 60.0065 30.8084 58.8457C35.9149 56.6022 41.6215 55.5391 42.6388 57.8609C42.7823 58.1935 42.6389 58.5783 42.3062 58.7217C41.9736 58.8652 41.5888 58.7217 41.4454 58.3891C41.1519 57.7239 37.7149 57.2413 31.3367 60.0457C28.8062 61.1544 26.5693 62.4913 25.0302 63.8087C23.3802 65.2239 23.1519 66.0848 23.2823 66.3717C23.4258 66.7044 23.2823 67.0891 22.9497 67.2326C22.8649 67.2717 22.7736 67.2848 22.6888 67.2848Z" fill="#241F20"/>
<path d="M26.8568 68.0609C26.6546 68.0609 26.459 67.9695 26.3285 67.7935L18.6133 57.1761C18.3981 56.8826 18.4633 56.4782 18.7568 56.263C19.0503 56.0543 19.4546 56.113 19.6698 56.4065L27.3851 67.0239C27.6003 67.3174 27.5351 67.7217 27.2416 67.9369C27.1242 68.0217 26.9938 68.0609 26.8568 68.0609Z" fill="#241F20"/>
<path d="M29.0552 66.2805L20.4922 50.6609L23.6291 48.3261L32.5248 65.0739" fill="white"/>
<path d="M35.2375 63.8804L30.2549 51.9065L30.0723 47.2369L33.3853 50.5304L38.5244 62.4391" fill="white"/>
<path d="M35.2361 64.5326C34.9818 64.5326 34.7405 64.3826 34.6361 64.1283L29.6535 52.1478C29.6209 52.0761 29.6079 51.9978 29.6013 51.9196L29.4187 47.25C29.4057 46.9826 29.5622 46.7348 29.81 46.6304C30.0579 46.5261 30.3448 46.5783 30.5339 46.7674L33.847 50.0609C33.9057 50.1196 33.9513 50.1913 33.9839 50.263L39.1231 62.1717C39.2666 62.5044 39.1166 62.8891 38.7839 63.0261C38.4513 63.1696 38.0666 63.013 37.9296 62.687L32.8426 50.8957L30.7948 48.8609L30.9057 51.7565L35.8426 63.6261C35.9796 63.9587 35.8231 64.3435 35.4905 64.4804C35.4122 64.513 35.3209 64.5326 35.2426 64.5326H35.2361Z" fill="#241F20"/>
<path d="M25.1356 68.1978C23.1334 68.1978 22.3704 67.5196 22.0965 66.8935C21.953 66.5609 22.0965 66.1761 22.4291 66.0326C22.7617 65.8891 23.1465 66.0326 23.2899 66.3652C23.4138 66.6522 24.203 67.0696 26.3617 66.8087C28.3704 66.5674 30.8747 65.8239 33.3986 64.7087C35.9225 63.5935 38.166 62.2631 39.7052 60.9457C41.3552 59.5304 41.5834 58.6696 41.453 58.3826C41.3095 58.05 41.453 57.6652 41.7856 57.5217C42.1182 57.3783 42.503 57.5217 42.6465 57.8544C42.9791 58.6109 42.8878 59.9348 40.553 61.9304C38.9225 63.3261 36.5682 64.7413 33.9269 65.9022C31.2856 67.0631 28.6508 67.8457 26.5182 68.1C26.003 68.1652 25.5399 68.1913 25.1356 68.1913V68.1978Z" fill="#241F20"/>
<path d="M30.7365 84.5217C30.4887 84.5217 30.2539 84.3848 30.143 84.1435L22.1017 66.9065C21.9517 66.5804 22.0887 66.1891 22.4147 66.0391C22.7408 65.8891 23.1321 66.0261 23.2821 66.3522L31.3234 83.5891C31.4734 83.9152 31.3365 84.3065 31.0104 84.4565C30.9191 84.4957 30.8278 84.5152 30.7365 84.5152V84.5217Z" fill="#241F20"/>
<path d="M29.0532 66.9326C28.8249 66.9326 28.5967 66.8087 28.4793 66.5935L19.9162 50.9739C19.7597 50.687 19.838 50.3348 20.0989 50.1391L23.2358 47.8044C23.5228 47.5891 23.9336 47.6478 24.1489 47.9413C24.3641 48.2283 24.3054 48.6391 24.0119 48.8544L21.3249 50.85L29.6141 65.9739C29.7902 66.287 29.6728 66.6848 29.3532 66.8609C29.2554 66.913 29.1445 66.9391 29.0402 66.9391L29.0532 66.9326Z" fill="#241F20"/>
<path d="M36.2034 89.0218C35.8577 89.0218 35.5708 88.7479 35.5512 88.3957C35.5382 88.037 35.8121 87.7305 36.1773 87.7174C38.1925 87.6326 40.5991 87.0131 42.9534 85.9761C45.6991 84.7696 48.0664 83.1326 49.4425 81.4761C49.6708 81.2022 50.0817 81.1631 50.3621 81.3913C50.636 81.6196 50.6751 82.0305 50.4469 82.3109C48.9404 84.1109 46.4034 85.8848 43.4817 87.1696C40.9838 88.2653 38.4078 88.9239 36.236 89.0153C36.2295 89.0153 36.2164 89.0153 36.2099 89.0153L36.2034 89.0218Z" fill="#241F20"/>
<path d="M81.8418 83.9674L111.098 65.5174L132.529 63.2609L134.407 69.8348L105.483 89.7522L84.4505 90.887L81.8418 83.9674Z" fill="white"/>
<path d="M111.496 86.4C111.287 86.4 111.085 86.3022 110.961 86.1196C110.753 85.8261 110.831 85.4152 111.124 85.213L134.035 69.3C134.329 69.0978 134.74 69.1696 134.942 69.463C135.15 69.7565 135.072 70.1674 134.779 70.3696L111.868 86.2826C111.757 86.3609 111.627 86.4 111.496 86.4Z" fill="#241F20"/>
<path d="M87.286 91.3826C86.9403 91.3826 86.6534 91.1152 86.6338 90.7631C86.6142 90.4044 86.8881 90.0978 87.2534 90.0783L105.442 89.1C105.788 89.0739 106.108 89.3544 106.127 89.7131C106.147 90.0718 105.873 90.3783 105.508 90.3978L87.3186 91.3761C87.3186 91.3761 87.2925 91.3761 87.286 91.3761V91.3826Z" fill="#241F20"/>
<path d="M71.8281 17.7022L99.1477 28.7565L116.861 26.1544L90.0825 16.3783L71.8281 17.7022Z" fill="#FFEC4F"/>
<path d="M97.2435 28.9261C97.1653 28.9261 97.0805 28.9131 97.0022 28.8805L74.3914 19.9913C74.0588 19.8609 73.8892 19.4826 74.0262 19.1435C74.1566 18.8044 74.5414 18.6413 74.874 18.7783L97.4848 27.6674C97.8175 27.7978 97.987 28.1761 97.8501 28.5152C97.7457 28.7696 97.5044 28.9261 97.2435 28.9261Z" fill="#241F20"/>
<path d="M101.3 28.9261C100.98 28.9261 100.7 28.6913 100.654 28.3587C100.608 28 100.856 27.6739 101.215 27.6217L116.776 25.5022C117.128 25.45 117.46 25.7044 117.513 26.0631C117.558 26.4217 117.31 26.7478 116.952 26.8L101.391 28.9196C101.391 28.9196 101.332 28.9196 101.3 28.9196V28.9261Z" fill="#241F20"/>
<path d="M81.8086 83.9609L103.219 82.7413L132.496 63.2543L111.065 65.5109L81.8086 83.9609Z" fill="#0AACFF"/>
<path d="M119.237 56.0283L109.859 68.7261L108.652 73.3435L112.683 70.787L122.165 58.213C122.778 57.3978 122.609 56.2435 121.787 55.6435C120.978 55.05 119.837 55.2261 119.244 56.0348L119.237 56.0283Z" fill="white"/>
<path d="M108.653 73.9956C108.516 73.9956 108.379 73.9565 108.268 73.8717C108.053 73.7152 107.955 73.4413 108.02 73.1804L109.226 68.563C109.246 68.4848 109.285 68.4065 109.331 68.3413L118.709 55.6435C119.518 54.5478 121.063 54.313 122.166 55.1152C122.707 55.5065 123.059 56.0935 123.157 56.7522C123.255 57.4109 123.085 58.0696 122.687 58.6043L113.205 71.1783C113.159 71.2435 113.1 71.2956 113.035 71.3348L109.005 73.8913C108.9 73.9565 108.776 73.9956 108.653 73.9956ZM110.459 69.013L109.703 71.9087L112.233 70.3043L121.644 57.8217C121.833 57.5674 121.911 57.2543 121.866 56.9413C121.82 56.6282 121.65 56.3543 121.396 56.1652C120.874 55.7869 120.144 55.8978 119.759 56.413L110.459 69.0065V69.013Z" fill="#241F20"/>
<path d="M85.7996 84.5217C85.454 84.5217 85.167 84.2544 85.1475 83.9087C85.1279 83.55 85.4018 83.2435 85.7605 83.2174L99.4236 82.4348C99.7823 82.4087 100.089 82.6891 100.115 83.0478C100.134 83.4065 99.8605 83.713 99.5018 83.7391L85.8388 84.5217C85.8388 84.5217 85.8127 84.5217 85.7996 84.5217Z" fill="#241F20"/>
<path d="M105.685 81.9522C105.476 81.9522 105.267 81.8543 105.143 81.6652C104.941 81.3652 105.02 80.9609 105.32 80.7587L128.896 64.8587C129.196 64.6565 129.6 64.7348 129.802 65.0348C130.004 65.3348 129.926 65.7391 129.626 65.9413L106.05 81.8413C105.939 81.9196 105.809 81.9522 105.685 81.9522Z" fill="#241F20"/>
</g>
<defs>
<clipPath id="clip0_2967_83360">
<rect width="150" height="104.348" fill="white"/>
</clipPath>
</defs>
</svg>
