<svg width="720" height="170" viewBox="0 0 720 170" fill="none" xmlns="http://www.w3.org/2000/svg">
<g clip-path="url(#clip0_1943_88722)">
<path d="M360 1C163.388 1 4 18.496 4 40.08V52.98C4 58.416 14.112 63.592 32.38 68.296H32.36L33.84 168.744H42.716L44.156 71.028L44.092 71.012C103.46 83.52 222.64 92.06 360 92.06C497.36 92.06 616.54 83.52 675.908 71.012L675.844 71.028L677.284 168.744H686.16L687.64 68.292H687.62C705.888 63.592 716 58.416 716 52.98V40.08C716 18.496 556.612 1 360 1Z" fill="white"/>
<path d="M360 80.4403C264.872 80.4403 175.436 76.3723 108.16 68.9883C75.416 65.3923 49.7 61.2043 31.724 56.5403C12.396 51.5203 3 46.2283 3 40.3603C3 34.4923 12.396 29.1963 31.724 24.1803C49.7 19.5163 75.416 15.3283 108.16 11.7323C175.436 4.34427 264.872 0.280273 360 0.280273C455.128 0.280273 544.564 4.34827 611.84 11.7323C644.58 15.3283 670.3 19.5163 688.276 24.1803C707.604 29.1963 717 34.4883 717 40.3603C717 46.2323 707.604 51.5243 688.276 56.5403C670.3 61.2043 644.584 65.3923 611.84 68.9883C544.564 76.3723 455.128 80.4403 360 80.4403ZM360 2.28027C264.944 2.28027 175.584 6.34427 108.38 13.7203C75.732 17.3043 50.112 21.4763 32.228 26.1163C8.536 32.2643 5 37.6803 5 40.3603C5 43.0403 8.536 48.4563 32.228 54.6043C50.112 59.2443 75.732 63.4163 108.38 67.0003C175.584 74.3763 264.944 78.4403 360 78.4403C455.056 78.4403 544.416 74.3763 611.62 67.0003C644.268 63.4163 669.888 59.2443 687.772 54.6043C711.464 48.4563 715 43.0403 715 40.3603C715 37.6803 711.464 32.2643 687.772 26.1163C669.888 21.4763 644.268 17.3043 611.62 13.7203C544.416 6.34027 455.056 2.28027 360 2.28027Z" fill="#231F20"/>
<path d="M360 93.3403C264.872 93.3403 175.436 89.2723 108.16 81.8883C75.416 78.2923 49.7 74.1043 31.724 69.4403C12.396 64.4243 3 59.1323 3 53.2603C3 52.7083 3.448 52.2603 4 52.2603C4.552 52.2603 5 52.7083 5 53.2603C5 55.9403 8.536 61.3563 32.228 67.5043C50.112 72.1443 75.732 76.3163 108.38 79.9003C175.584 87.2763 264.944 91.3403 360 91.3403C455.056 91.3403 544.416 87.2763 611.62 79.9003C644.268 76.3163 669.888 72.1443 687.772 67.5043C711.464 61.3563 715 55.9403 715 53.2603C715 52.7083 715.448 52.2603 716 52.2603C716.552 52.2603 717 52.7083 717 53.2603C717 59.1323 707.604 64.4243 688.276 69.4403C670.3 74.1043 644.584 78.2923 611.84 81.8883C544.564 89.2723 455.128 93.3403 360 93.3403Z" fill="#231F20"/>
<path d="M4 54.2603C3.448 54.2603 3 53.8123 3 53.2603V40.3604C3 39.8084 3.448 39.3604 4 39.3604C4.552 39.3604 5 39.8084 5 40.3604V53.2603C5 53.8123 4.552 54.2603 4 54.2603Z" fill="#231F20"/>
<path d="M42.7155 170.024H33.8395C33.2915 170.024 32.8475 169.584 32.8395 169.04L31.3595 68.5883C31.3515 68.0363 31.7915 67.5803 32.3435 67.5723H32.3595C32.9035 67.5723 33.3515 68.0083 33.3595 68.5563L34.8275 168.024H41.7315L43.1595 71.2963C43.1675 70.7443 43.6155 70.3043 44.1755 70.3123C44.7275 70.3203 45.1675 70.7763 45.1595 71.3283L43.7195 169.044C43.7115 169.592 43.2675 170.028 42.7195 170.028L42.7155 170.024Z" fill="#231F20"/>
<path d="M686.16 170.024H677.284C676.736 170.024 676.292 169.584 676.284 169.04L674.844 71.324C674.836 70.772 675.276 70.316 675.828 70.308C676.388 70.292 676.836 70.74 676.844 71.292L678.272 168.02H685.176L686.644 68.552C686.652 68 687.108 67.548 687.66 67.568C688.212 67.576 688.652 68.032 688.644 68.584L687.164 169.036C687.156 169.584 686.712 170.02 686.164 170.02L686.16 170.024Z" fill="#231F20"/>
<path d="M529.628 36.6681C515.608 36.6681 501.416 34.1321 501.416 29.2881C501.416 28.7361 501.864 28.2881 502.416 28.2881C502.968 28.2881 503.416 28.7361 503.416 29.2881C503.416 31.4801 513.628 34.6681 529.628 34.6681C545.628 34.6681 555.84 31.4841 555.84 29.2881C555.84 28.7361 556.288 28.2881 556.84 28.2881C557.392 28.2881 557.84 28.7361 557.84 29.2881C557.84 34.1321 543.648 36.6681 529.628 36.6681Z" fill="#231F20"/>
<path d="M556.839 30.2881C556.287 30.2881 555.839 29.8401 555.839 29.2881C555.839 28.7361 554.691 27.4281 550.383 26.2001C549.851 26.0481 549.543 25.4961 549.695 24.9641C549.847 24.4321 550.399 24.1241 550.931 24.2761C555.515 25.5841 557.839 27.2681 557.839 29.2881C557.839 29.8401 557.391 30.2881 556.839 30.2881Z" fill="#231F20"/>
<path d="M502.416 30.2878C501.864 30.2878 501.416 29.8398 501.416 29.2878C501.416 27.2638 503.752 25.5758 508.356 24.2678C508.888 24.1158 509.44 24.4238 509.592 24.9558C509.744 25.4878 509.436 26.0398 508.904 26.1918C504.572 27.4238 503.416 28.7158 503.416 29.2878C503.416 29.8598 502.968 30.2878 502.416 30.2878Z" fill="#231F20"/>
<path d="M529.648 55.6482C529.648 55.6482 529.616 55.6482 529.6 55.6482C520.096 55.6482 512.792 52.9842 507.896 47.7242C500.724 40.0242 501.38 29.6562 501.412 29.2162C501.452 28.6642 501.932 28.2522 502.48 28.2922C503.032 28.3322 503.444 28.8122 503.404 29.3602C503.396 29.4562 502.792 39.3282 509.372 46.3762C513.88 51.2042 520.684 53.6442 529.62 53.6482H529.644C538.576 53.6482 545.384 51.1962 549.888 46.3602C556.472 39.2922 555.848 29.4602 555.84 29.3602C555.8 28.8082 556.216 28.3322 556.764 28.2922C557.316 28.2522 557.792 28.6682 557.832 29.2162C557.864 29.6522 558.52 40.0242 551.348 47.7242C546.452 52.9802 539.148 55.6482 529.644 55.6482H529.648Z" fill="#231F20"/>
<path d="M554.039 32.4681C553.487 32.4681 553.039 32.0201 553.039 31.4681C553.039 31.2121 552.203 30.6441 551.755 30.3441C551.019 29.8481 550.259 29.3321 549.839 28.5921C549.431 27.8641 549.451 26.9481 549.471 26.0601C549.487 25.3761 549.507 24.4441 549.227 24.2001C549.047 24.0481 548.127 24.1521 547.631 24.2081C546.643 24.3201 545.527 24.4481 544.623 23.9601C543.795 23.5161 543.359 22.5921 542.935 21.7001C542.655 21.1041 542.267 20.2921 541.931 20.1721C541.679 20.0841 540.863 20.4681 540.375 20.6961C539.463 21.1281 538.427 21.6161 537.407 21.3961C536.447 21.1921 535.767 20.3841 535.107 19.6041C534.691 19.1121 534.123 18.4401 533.787 18.4041C533.507 18.3761 532.815 18.9121 532.359 19.2681C531.563 19.8881 530.663 20.5961 529.623 20.5961C528.583 20.5961 527.683 19.8921 526.887 19.2721C526.431 18.9161 525.743 18.3761 525.459 18.4081C525.123 18.4441 524.555 19.1161 524.139 19.6081C523.483 20.3881 522.799 21.1961 521.839 21.4001C520.819 21.6201 519.787 21.1281 518.871 20.7001C518.383 20.4721 517.571 20.0881 517.315 20.1761C516.979 20.2961 516.591 21.1081 516.311 21.7041C515.887 22.5961 515.451 23.5161 514.623 23.9641C513.719 24.4481 512.603 24.3241 511.615 24.2121C511.119 24.1561 510.199 24.0521 510.019 24.2041C509.739 24.4481 509.759 25.3801 509.775 26.0641C509.795 26.9521 509.815 27.8681 509.407 28.5961C508.991 29.3361 508.227 29.8521 507.491 30.3481C507.043 30.6521 506.207 31.2161 506.207 31.4761C506.207 32.0281 505.759 32.4761 505.207 32.4761C504.655 32.4761 504.207 32.0281 504.207 31.4761C504.207 30.1561 505.359 29.3801 506.375 28.6921C506.895 28.3401 507.483 27.9441 507.667 27.6161C507.807 27.3681 507.791 26.6721 507.779 26.1121C507.751 24.9721 507.719 23.5521 508.715 22.6921C509.551 21.9681 510.719 22.1001 511.843 22.2281C512.503 22.3041 513.327 22.3961 513.675 22.2081C513.923 22.0721 514.259 21.3681 514.503 20.8561C514.983 19.8401 515.527 18.6921 516.655 18.2961C517.683 17.9361 518.767 18.4481 519.723 18.9001C520.319 19.1801 521.059 19.5281 521.419 19.4561C521.711 19.3921 522.231 18.7801 522.607 18.3321C523.311 17.4961 524.111 16.5481 525.255 16.4321C526.339 16.3241 527.283 17.0601 528.119 17.7121C528.635 18.1121 529.275 18.6121 529.623 18.6121C529.971 18.6121 530.615 18.1121 531.127 17.7081C531.959 17.0561 532.903 16.3201 533.987 16.4281C535.131 16.5441 535.927 17.4921 536.635 18.3281C537.015 18.7761 537.531 19.3921 537.823 19.4561C538.183 19.5321 538.923 19.1841 539.519 18.9001C540.475 18.4481 541.563 17.9361 542.587 18.2961C543.715 18.6921 544.259 19.8401 544.739 20.8561C544.983 21.3721 545.315 22.0761 545.567 22.2081C545.919 22.3961 546.739 22.3041 547.399 22.2281C548.523 22.1001 549.691 21.9681 550.527 22.6921C551.523 23.5521 551.487 24.9721 551.463 26.1121C551.451 26.6721 551.435 27.3681 551.575 27.6161C551.759 27.9441 552.347 28.3441 552.867 28.6921C553.883 29.3761 555.031 30.1561 555.031 31.4761C555.031 32.0281 554.583 32.4761 554.031 32.4761L554.039 32.4681Z" fill="#231F20"/>
<path d="M517.87 30.2C517.87 30.2 517.686 27.232 520.286 27.26L517.87 30.2Z" fill="white"/>
<path d="M517.867 31.1962C517.343 31.1962 516.903 30.7922 516.871 30.2602C516.859 30.0682 516.787 28.3562 517.875 27.2082C518.475 26.5762 519.311 26.2442 520.295 26.2562C520.847 26.2602 521.291 26.7162 521.283 27.2682C521.279 27.8202 520.827 28.2682 520.271 28.2562C519.851 28.2562 519.539 28.3562 519.327 28.5802C518.907 29.0202 518.851 29.8562 518.863 30.1402C518.891 30.6882 518.471 31.1602 517.923 31.1922C517.903 31.1922 517.883 31.1922 517.867 31.1922V31.1962Z" fill="#231F20"/>
<path d="M528.436 24.8284C528.436 24.8284 530.544 22.9084 533.704 24.8284H528.436Z" fill="white"/>
<path d="M533.699 25.8282C533.523 25.8282 533.343 25.7802 533.179 25.6842C530.779 24.2242 529.263 25.4362 529.095 25.5762C528.683 25.9362 528.051 25.8962 527.687 25.4882C527.323 25.0802 527.351 24.4602 527.755 24.0882C527.863 23.9882 530.459 21.6882 534.215 23.9722C534.687 24.2602 534.835 24.8722 534.551 25.3442C534.363 25.6522 534.035 25.8242 533.695 25.8242L533.699 25.8282Z" fill="#231F20"/>
<path d="M534.568 30.3405C534.568 30.3405 537.048 31.2686 539.34 29.1646L534.568 30.3405Z" fill="white"/>
<path d="M535.941 31.5445C534.957 31.5445 534.277 31.3005 534.221 31.2765C533.705 31.0845 533.441 30.5045 533.637 29.9885C533.829 29.4725 534.401 29.2125 534.917 29.4005C535.013 29.4325 536.889 30.0605 538.669 28.4245C539.077 28.0525 539.709 28.0765 540.081 28.4845C540.453 28.8925 540.429 29.5245 540.021 29.8965C538.577 31.2245 537.061 31.5405 535.945 31.5405L535.941 31.5445Z" fill="#231F20"/>
<path d="M416.068 45.9245C398.456 45.9245 380.236 41.3405 380.236 33.6765C380.236 29.3645 386.12 25.6085 396.38 23.3725C396.92 23.2565 397.452 23.5965 397.572 24.1365C397.688 24.6765 397.348 25.2085 396.808 25.3285C387.82 27.2885 382.24 30.4885 382.24 33.6805C382.24 36.1445 385.796 38.7605 391.748 40.6845C398.232 42.7765 406.868 43.9325 416.068 43.9325C425.268 43.9325 433.908 42.7805 440.388 40.6845C446.344 38.7605 449.896 36.1445 449.896 33.6805C449.896 30.3885 443.772 27.0245 434.292 25.1125C433.752 25.0045 433.4 24.4765 433.508 23.9325C433.616 23.3885 434.144 23.0405 434.688 23.1485C445.624 25.3525 451.896 29.1925 451.896 33.6765C451.896 41.3445 433.68 45.9245 416.064 45.9245H416.068Z" fill="#231F20"/>
<path d="M420.516 37.9723C420.228 37.9723 419.944 37.8443 419.752 37.6203C419.508 37.3363 419.448 36.9363 419.588 36.5923L428.028 16.1363C428.172 15.7923 428.492 15.5563 428.864 15.5203C429.236 15.4883 429.596 15.6643 429.796 15.9763L440.112 32.0763C440.288 32.3483 440.32 32.6923 440.196 32.9923C440.072 33.2923 439.812 33.5163 439.496 33.5883L420.74 37.9443C420.664 37.9603 420.588 37.9683 420.512 37.9683L420.516 37.9723ZM429.152 18.6723L422.184 35.5603L437.672 31.9643L429.156 18.6723H429.152Z" fill="#231F20"/>
<path d="M420.517 37.9724C420.445 37.9724 420.369 37.9644 420.297 37.9484L393.193 31.8684C392.893 31.8004 392.641 31.6004 392.509 31.3244C392.377 31.0484 392.377 30.7244 392.513 30.4524L401.485 12.2604C401.677 11.8724 402.097 11.6524 402.525 11.7124L429.097 15.5324C429.645 15.6124 430.025 16.1164 429.945 16.6644C429.865 17.2124 429.361 17.5884 428.813 17.5124L402.957 13.7964L394.869 30.2004L420.733 36.0044C421.273 36.1244 421.609 36.6604 421.489 37.2004C421.385 37.6644 420.973 37.9804 420.513 37.9804L420.517 37.9724Z" fill="#231F20"/>
<path d="M403 26.9602C402.868 26.9602 402.736 26.9362 402.608 26.8802C402.1 26.6642 401.864 26.0762 402.08 25.5682L405.204 18.2082C405.42 17.7002 406.008 17.4642 406.516 17.6802C407.024 17.8962 407.26 18.4842 407.044 18.9922L403.92 26.3522C403.76 26.7322 403.388 26.9602 403 26.9602Z" fill="#231F20"/>
<path d="M409.213 28.34C409.081 28.34 408.949 28.316 408.821 28.26C408.313 28.044 408.077 27.456 408.293 26.948L411.417 19.588C411.633 19.08 412.221 18.844 412.729 19.06C413.237 19.276 413.473 19.864 413.257 20.372L410.133 27.732C409.973 28.112 409.601 28.34 409.213 28.34Z" fill="#231F20"/>
<path d="M415.426 29.7204C415.294 29.7204 415.162 29.6964 415.034 29.6404C414.526 29.4244 414.29 28.8364 414.506 28.3284L417.63 20.9684C417.846 20.4604 418.434 20.2244 418.942 20.4404C419.45 20.6564 419.686 21.2444 419.47 21.7524L416.346 29.1124C416.186 29.4924 415.814 29.7204 415.426 29.7204Z" fill="#231F20"/>
<path d="M395.993 37.9767C400.292 37.9767 403.777 35.9047 403.777 33.3487C403.777 30.7927 400.292 28.7207 395.993 28.7207C391.694 28.7207 388.209 30.7927 388.209 33.3487C388.209 35.9047 391.694 37.9767 395.993 37.9767Z" fill="white"/>
<path d="M395.993 38.9767C391.069 38.9767 387.209 36.5047 387.209 33.3487C387.209 30.1927 391.065 27.7207 395.993 27.7207C400.921 27.7207 404.777 30.1927 404.777 33.3487C404.777 36.5047 400.921 38.9767 395.993 38.9767ZM395.993 29.7207C391.937 29.7207 389.209 31.5967 389.209 33.3487C389.209 35.1007 391.933 36.9767 395.993 36.9767C400.053 36.9767 402.777 35.1007 402.777 33.3487C402.777 31.5967 400.053 29.7207 395.993 29.7207Z" fill="#231F20"/>
<path d="M404.565 40.028C408.864 40.028 412.349 37.9559 412.349 35.4C412.349 32.844 408.864 30.772 404.565 30.772C400.266 30.772 396.781 32.844 396.781 35.4C396.781 37.9559 400.266 40.028 404.565 40.028Z" fill="white"/>
<path d="M404.565 41.028C399.641 41.028 395.781 38.556 395.781 35.4C395.781 32.244 399.637 29.772 404.565 29.772C409.493 29.772 413.349 32.244 413.349 35.4C413.349 38.556 409.493 41.028 404.565 41.028ZM404.565 31.772C400.509 31.772 397.781 33.648 397.781 35.4C397.781 37.152 400.505 39.028 404.565 39.028C408.625 39.028 411.349 37.152 411.349 35.4C411.349 33.648 408.625 31.772 404.565 31.772Z" fill="#231F20"/>
<path d="M286.44 58.6967C276.044 58.6967 266.252 57.3327 258.876 54.8527C251.16 52.2607 246.908 48.6687 246.908 44.7487C246.908 41.0727 250.496 37.7727 257.288 35.2087C257.804 35.0127 258.38 35.2727 258.576 35.7927C258.772 36.3087 258.512 36.8847 257.992 37.0807C252.216 39.2607 248.904 42.0567 248.904 44.7487C248.904 50.5207 263.984 56.7007 286.436 56.7007C308.888 56.7007 323.968 50.5207 323.968 44.7487C323.968 41.8207 320.16 38.8487 313.516 36.5887C312.992 36.4127 312.712 35.8447 312.892 35.3207C313.068 34.7967 313.636 34.5167 314.16 34.6967C321.776 37.2847 325.968 40.8567 325.968 44.7487C325.968 48.6407 321.72 52.2607 314 54.8527C306.624 57.3327 296.832 58.6967 286.436 58.6967H286.44Z" fill="#231F20"/>
<path d="M256.211 44.5203C255.671 44.5203 255.227 44.0923 255.211 43.5483C255.211 43.4003 255.019 28.6763 272.179 26.2123C272.727 26.1323 273.231 26.5123 273.311 27.0603C273.391 27.6083 273.011 28.1123 272.463 28.1923C257.099 30.3963 257.199 42.9643 257.211 43.5003C257.223 44.0523 256.787 44.5083 256.235 44.5243C256.227 44.5243 256.219 44.5243 256.211 44.5243V44.5203Z" fill="#231F20"/>
<path d="M260.337 46.8885C259.801 46.8885 259.353 46.4605 259.337 45.9205C259.333 45.7645 259.053 30.3405 276.541 28.8085C277.089 28.7605 277.577 29.1685 277.625 29.7165C277.673 30.2685 277.265 30.7525 276.717 30.8005C270.137 31.3765 265.553 34.0885 263.093 38.8565C261.253 42.4245 261.337 45.8245 261.337 45.8605C261.353 46.4125 260.921 46.8725 260.369 46.8925C260.357 46.8925 260.349 46.8925 260.337 46.8925V46.8885Z" fill="#231F20"/>
<path d="M264.456 49.2521C263.948 49.2521 263.512 48.8641 263.464 48.3481C263.448 48.1921 263.124 44.5241 265.132 40.5521C266.972 36.9041 271.196 32.3081 280.86 31.1361C281.408 31.0681 281.908 31.4601 281.972 32.0081C282.04 32.5561 281.648 33.0561 281.1 33.1201C264.472 35.1401 265.408 47.6241 265.456 48.1561C265.504 48.7041 265.1 49.1921 264.552 49.2441C264.52 49.2441 264.488 49.2481 264.456 49.2481V49.2521Z" fill="#231F20"/>
<path d="M268.575 51.6166C268.115 51.6166 267.703 51.3006 267.599 50.8326C267.551 50.6206 266.487 45.5726 269.947 40.6606C273.127 36.1406 278.979 33.3086 287.339 32.2446C287.887 32.1766 288.387 32.5606 288.459 33.1086C288.527 33.6566 288.143 34.1566 287.595 34.2286C279.839 35.2166 274.459 37.7566 271.611 41.7766C268.651 45.9526 269.551 50.3566 269.559 50.4006C269.675 50.9406 269.331 51.4726 268.795 51.5886C268.723 51.6046 268.651 51.6126 268.579 51.6126L268.575 51.6166Z" fill="#231F20"/>
<path d="M287.079 51.8523C275.055 51.8523 268.919 45.9523 268.599 45.6363C268.207 45.2483 268.203 44.6163 268.591 44.2203C268.979 43.8283 269.611 43.8243 270.003 44.2123C270.131 44.3363 279.455 53.1643 297.499 48.4243C298.031 48.2843 298.579 48.6043 298.719 49.1363C298.859 49.6723 298.539 50.2163 298.007 50.3563C293.943 51.4243 290.295 51.8483 287.075 51.8483L287.079 51.8523Z" fill="#231F20"/>
<path d="M288.188 47.3763C278.656 47.3763 272.544 43.8963 270.856 42.2883C270.456 41.9083 270.44 41.2763 270.82 40.8763C271.2 40.4763 271.832 40.4603 272.232 40.8403C273.844 42.3723 282.764 47.4763 296.92 44.4083C297.46 44.2923 297.992 44.6323 298.108 45.1723C298.224 45.7123 297.884 46.2443 297.344 46.3603C294.02 47.0803 290.96 47.3763 288.188 47.3763Z" fill="#231F20"/>
<path d="M288.564 43.2324C281.268 43.2324 275.976 40.9684 273.652 39.2724C273.204 38.9484 273.108 38.3204 273.432 37.8764C273.756 37.4284 274.384 37.3324 274.828 37.6564C277.4 39.5284 284.976 42.5524 295.26 40.5804C295.804 40.4764 296.328 40.8324 296.432 41.3724C296.536 41.9164 296.18 42.4404 295.64 42.5444C293.12 43.0284 290.752 43.2324 288.564 43.2324Z" fill="#231F20"/>
<path d="M288.009 39.1123C283.825 39.1123 280.925 38.0443 278.473 36.9723C277.965 36.7523 277.737 36.1603 277.957 35.6563C278.177 35.1483 278.769 34.9203 279.273 35.1403C282.481 36.5403 286.165 37.8123 292.705 36.6803C293.249 36.5843 293.765 36.9523 293.861 37.4963C293.957 38.0403 293.589 38.5563 293.045 38.6523C291.177 38.9763 289.509 39.1123 288.009 39.1123Z" fill="#231F20"/>
<path d="M298.828 52.2925C298.288 52.2925 297.844 51.8605 297.828 51.3165C297.412 35.0925 278.816 30.3005 278.628 30.2525C278.092 30.1205 277.764 29.5765 277.896 29.0405C278.028 28.5045 278.572 28.1765 279.108 28.3085C279.316 28.3605 284.22 29.6005 289.244 33.0165C295.98 37.5965 299.64 43.9045 299.828 51.2605C299.844 51.8125 299.408 52.2725 298.852 52.2845C298.844 52.2845 298.836 52.2845 298.824 52.2845L298.828 52.2925Z" fill="#231F20"/>
<path d="M303.264 50.3925C302.732 50.3925 302.292 49.9765 302.264 49.4405C301.504 33.1245 282.972 28.6605 282.784 28.6165C282.244 28.4925 281.912 27.9565 282.036 27.4165C282.16 26.8765 282.696 26.5445 283.236 26.6685C283.44 26.7165 288.332 27.8685 293.388 31.2125C300.16 35.6885 303.92 41.9605 304.264 49.3485C304.288 49.9005 303.864 50.3685 303.312 50.3925C303.296 50.3925 303.28 50.3925 303.264 50.3925Z" fill="#231F20"/>
<path d="M307.412 48.9883H307.404C306.852 48.9883 306.408 48.5323 306.412 47.9803C306.492 36.0643 294.844 30.3763 289.872 27.9483L289.808 27.9163C289.312 27.6723 289.104 27.0763 289.348 26.5803C289.592 26.0843 290.188 25.8763 290.684 26.1203L290.748 26.1523C296.06 28.7443 308.504 34.8203 308.412 47.9923C308.412 48.5403 307.96 48.9843 307.412 48.9843V48.9883Z" fill="#231F20"/>
<path d="M311.473 47.3005C310.921 47.3005 310.473 46.8525 310.473 46.3005C310.473 35.9845 301.969 30.6925 297.469 29.3365C296.941 29.1765 296.641 28.6205 296.801 28.0885C296.961 27.5605 297.517 27.2605 298.049 27.4205C304.997 29.5165 312.473 36.3165 312.473 46.2965C312.473 46.8485 312.025 47.2965 311.473 47.2965V47.3005Z" fill="#231F20"/>
<path d="M315.751 45.9242C315.199 45.9242 314.751 45.4762 314.751 44.9242C314.751 35.3082 306.163 28.0922 300.247 27.3482C299.699 27.2802 299.311 26.7802 299.379 26.2322C299.447 25.6842 299.947 25.2962 300.495 25.3642C304.139 25.8242 308.187 28.1562 311.319 31.6002C314.819 35.4562 316.751 40.1882 316.751 44.9202C316.751 45.4722 316.303 45.9202 315.751 45.9202V45.9242Z" fill="#231F20"/>
<path d="M276.536 30.6247C278.862 30.6247 280.748 28.7389 280.748 26.4127C280.748 24.0865 278.862 22.2007 276.536 22.2007C274.21 22.2007 272.324 24.0865 272.324 26.4127C272.324 28.7389 274.21 30.6247 276.536 30.6247Z" fill="white"/>
<path d="M276.536 31.6286C273.66 31.6286 271.324 29.2886 271.324 26.4166C271.324 23.5446 273.664 21.2046 276.536 21.2046C279.408 21.2046 281.748 23.5446 281.748 26.4166C281.748 29.2886 279.408 31.6286 276.536 31.6286ZM276.536 23.2006C274.764 23.2006 273.324 24.6406 273.324 26.4126C273.324 28.1846 274.764 29.6246 276.536 29.6246C278.308 29.6246 279.748 28.1846 279.748 26.4126C279.748 24.6406 278.308 23.2006 276.536 23.2006Z" fill="#231F20"/>
<path d="M290.249 28.3366C292.575 28.3366 294.461 26.4508 294.461 24.1246C294.461 21.7984 292.575 19.9126 290.249 19.9126C287.923 19.9126 286.037 21.7984 286.037 24.1246C286.037 26.4508 287.923 28.3366 290.249 28.3366Z" fill="white"/>
<path d="M290.249 29.3405C287.373 29.3405 285.037 27.0005 285.037 24.1285C285.037 21.2565 287.377 18.9165 290.249 18.9165C293.121 18.9165 295.461 21.2565 295.461 24.1285C295.461 27.0005 293.121 29.3405 290.249 29.3405ZM290.249 20.9125C288.477 20.9125 287.037 22.3525 287.037 24.1245C287.037 25.8965 288.477 27.3365 290.249 27.3365C292.021 27.3365 293.461 25.8965 293.461 24.1245C293.461 22.3525 292.021 20.9125 290.249 20.9125Z" fill="#231F20"/>
<path d="M297.144 31.32C299.47 31.32 301.356 29.4342 301.356 27.108C301.356 24.7818 299.47 22.896 297.144 22.896C294.817 22.896 292.932 24.7818 292.932 27.108C292.932 29.4342 294.817 31.32 297.144 31.32Z" fill="white"/>
<path d="M297.144 32.3239C294.268 32.3239 291.932 29.9839 291.932 27.1119C291.932 24.2399 294.272 21.8999 297.144 21.8999C300.016 21.8999 302.356 24.2399 302.356 27.1119C302.356 29.9839 300.016 32.3239 297.144 32.3239ZM297.144 23.8959C295.372 23.8959 293.932 25.3359 293.932 27.1079C293.932 28.8799 295.372 30.3199 297.144 30.3199C298.916 30.3199 300.356 28.8799 300.356 27.1079C300.356 25.3359 298.916 23.8959 297.144 23.8959Z" fill="#231F20"/>
<path d="M282.608 33.0763C284.935 33.0763 286.82 31.1906 286.82 28.8643C286.82 26.5381 284.935 24.6523 282.608 24.6523C280.282 24.6523 278.396 26.5381 278.396 28.8643C278.396 31.1906 280.282 33.0763 282.608 33.0763Z" fill="white"/>
<path d="M282.608 34.0802C279.732 34.0802 277.396 31.7402 277.396 28.8682C277.396 25.9962 279.736 23.6562 282.608 23.6562C285.48 23.6562 287.82 25.9962 287.82 28.8682C287.82 31.7402 285.48 34.0802 282.608 34.0802ZM282.608 25.6523C280.836 25.6523 279.396 27.0923 279.396 28.8643C279.396 30.6363 280.836 32.0763 282.608 32.0763C284.38 32.0763 285.82 30.6363 285.82 28.8643C285.82 27.0923 284.38 25.6523 282.608 25.6523Z" fill="#231F20"/>
<path d="M165.509 48.4204C155.113 48.4204 145.321 47.0564 137.945 44.5764C130.229 41.9844 125.977 38.3924 125.977 34.4724C125.977 30.7964 129.565 27.4964 136.357 24.9324C136.873 24.7364 137.449 24.9964 137.645 25.5164C137.841 26.0324 137.581 26.6084 137.061 26.8044C131.285 28.9844 127.973 31.7804 127.973 34.4724C127.973 40.2444 143.053 46.4244 165.505 46.4244C187.957 46.4244 203.037 40.2444 203.037 34.4724C203.037 31.2124 198.265 27.8924 190.273 25.5924C189.741 25.4404 189.437 24.8844 189.589 24.3564C189.741 23.8244 190.297 23.5204 190.825 23.6724C199.989 26.3084 205.037 30.1444 205.037 34.4764C205.037 38.4004 200.789 41.9884 193.069 44.5804C185.693 47.0604 175.901 48.4244 165.505 48.4244L165.509 48.4204Z" fill="#231F20"/>
<path d="M148.212 38.7044C142.86 38.7044 138.992 36.3484 137.192 31.9324C136.98 31.4804 135.124 27.2884 137.132 23.2724C138.7 20.1364 142.144 18.0364 147.364 17.0364C151.824 16.1804 156.6 16.4244 161.176 17.7484C164.788 18.7884 171.144 20.4844 176.464 21.1724C177.164 21.2124 177.812 21.2764 178.408 21.3684C178.588 21.3844 178.756 21.4044 178.912 21.4164C179.04 21.4284 179.16 21.4644 179.268 21.5204C184.968 22.6964 185.676 26.1964 185.748 27.3644C185.948 30.6324 183.26 33.6964 179.624 34.3444C177.816 34.6644 170.324 34.3844 167.78 34.2204C167.748 34.2204 161.268 34.0484 156.824 36.4524C154.644 37.6324 152.488 38.3484 150.416 38.5724C149.656 38.6564 148.92 38.6964 148.212 38.6964V38.7044ZM152.704 18.5404C151.024 18.5404 149.36 18.6964 147.744 19.0044C143.176 19.8804 140.212 21.6164 138.928 24.1564C137.28 27.4244 138.988 31.0604 139.008 31.0964C139.016 31.1164 139.028 31.1364 139.036 31.1564C141.172 36.4284 146.284 37.0244 150.2 36.5924C152.016 36.3924 153.924 35.7564 155.876 34.7004C160.8 32.0324 167.592 32.2204 167.88 32.2284C171.072 32.4324 177.884 32.6284 179.276 32.3804C181.884 31.9164 183.892 29.7244 183.756 27.4924C183.628 25.4124 181.624 23.9324 178.284 23.3804C172.784 22.9364 165.684 21.1324 160.628 19.6724C158.016 18.9204 155.34 18.5404 152.708 18.5404H152.704Z" fill="#231F20"/>
<path d="M149.177 32.6642C147.185 32.6642 145.429 32.3402 143.913 31.6922C140.773 30.3522 139.905 28.0602 139.869 27.9642C139.681 27.4442 139.945 26.8722 140.465 26.6802C140.981 26.4922 141.553 26.7522 141.745 27.2682C141.781 27.3562 142.429 28.9202 144.789 29.8922C147.505 31.0162 152.801 31.4522 162.613 27.1562C163.117 26.9362 163.709 27.1642 163.929 27.6722C164.149 28.1762 163.921 28.7682 163.413 28.9882C157.817 31.4362 153.053 32.6642 149.177 32.6642Z" fill="#231F20"/>
<path d="M175.856 40.36C180.155 40.36 183.64 38.288 183.64 35.732C183.64 33.176 180.155 31.104 175.856 31.104C171.557 31.104 168.072 33.176 168.072 35.732C168.072 38.288 171.557 40.36 175.856 40.36Z" fill="white"/>
<path d="M175.856 41.36C170.932 41.36 167.072 38.888 167.072 35.732C167.072 32.576 170.928 30.104 175.856 30.104C180.784 30.104 184.64 32.576 184.64 35.732C184.64 38.888 180.784 41.36 175.856 41.36ZM175.856 32.1C171.8 32.1 169.072 33.976 169.072 35.728C169.072 37.48 171.796 39.356 175.856 39.356C179.916 39.356 182.64 37.48 182.64 35.728C182.64 33.976 179.916 32.1 175.856 32.1Z" fill="#231F20"/>
<path d="M185.665 37.7799C189.964 37.7799 193.449 35.7079 193.449 33.1519C193.449 30.596 189.964 28.5239 185.665 28.5239C181.366 28.5239 177.881 30.596 177.881 33.1519C177.881 35.7079 181.366 37.7799 185.665 37.7799Z" fill="white"/>
<path d="M185.665 38.7799C180.741 38.7799 176.881 36.3079 176.881 33.1519C176.881 29.9959 180.737 27.5239 185.665 27.5239C190.593 27.5239 194.449 29.9959 194.449 33.1519C194.449 36.3079 190.593 38.7799 185.665 38.7799ZM185.665 29.5239C181.609 29.5239 178.881 31.3999 178.881 33.1519C178.881 34.9039 181.605 36.7799 185.665 36.7799C189.725 36.7799 192.449 34.9039 192.449 33.1519C192.449 31.3999 189.725 29.5239 185.665 29.5239Z" fill="#231F20"/>
<path d="M716 54.4283C715.448 54.4283 715 53.9803 715 53.4283V40.5283C715 39.9763 715.448 39.5283 716 39.5283C716.552 39.5283 717 39.9763 717 40.5283V53.4283C717 53.9803 716.552 54.4283 716 54.4283Z" fill="#231F20"/>
</g>
<defs>
<clipPath id="clip0_1943_88722">
<rect width="720" height="170" fill="white"/>
</clipPath>
</defs>
</svg>
