<svg width="720" height="170" viewBox="0 0 720 170" fill="none" xmlns="http://www.w3.org/2000/svg">
<g clip-path="url(#clip0_2054_95056)">
<path d="M360 1C163.388 1 4 18.496 4 40.08V52.98C4 58.416 14.112 63.592 32.38 68.296H32.36L33.84 168.744H42.716L44.156 71.028L44.092 71.012C103.46 83.52 222.64 92.06 360 92.06C497.36 92.06 616.54 83.52 675.908 71.012L675.844 71.028L677.284 168.744H686.16L687.64 68.292H687.62C705.888 63.592 716 58.416 716 52.98V40.08C716 18.496 556.612 1 360 1Z" fill="white"/>
<path d="M360 80.4403C264.872 80.4403 175.436 76.3723 108.16 68.9883C75.416 65.3923 49.7 61.2043 31.724 56.5403C12.396 51.5203 3 46.2283 3 40.3603C3 34.4923 12.396 29.1963 31.724 24.1803C49.7 19.5163 75.416 15.3283 108.16 11.7323C175.436 4.34427 264.872 0.280273 360 0.280273C455.128 0.280273 544.564 4.34827 611.84 11.7323C644.58 15.3283 670.3 19.5163 688.276 24.1803C707.604 29.1963 717 34.4883 717 40.3603C717 46.2323 707.604 51.5243 688.276 56.5403C670.3 61.2043 644.584 65.3923 611.84 68.9883C544.564 76.3723 455.128 80.4403 360 80.4403ZM360 2.28027C264.944 2.28027 175.584 6.34427 108.38 13.7203C75.732 17.3043 50.112 21.4763 32.228 26.1163C8.536 32.2643 5 37.6803 5 40.3603C5 43.0403 8.536 48.4563 32.228 54.6043C50.112 59.2443 75.732 63.4163 108.38 67.0003C175.584 74.3763 264.944 78.4403 360 78.4403C455.056 78.4403 544.416 74.3763 611.62 67.0003C644.268 63.4163 669.888 59.2443 687.772 54.6043C711.464 48.4563 715 43.0403 715 40.3603C715 37.6803 711.464 32.2643 687.772 26.1163C669.888 21.4763 644.268 17.3043 611.62 13.7203C544.416 6.34027 455.056 2.28027 360 2.28027Z" fill="#231F20"/>
<path d="M360 93.3405C264.872 93.3405 175.436 89.2725 108.16 81.8885C75.416 78.2925 49.7 74.1045 31.724 69.4405C12.396 64.4245 3 59.1325 3 53.2605C3 52.7085 3.448 52.2605 4 52.2605C4.552 52.2605 5 52.7085 5 53.2605C5 55.9405 8.536 61.3565 32.228 67.5045C50.112 72.1445 75.732 76.3165 108.38 79.9005C175.584 87.2765 264.944 91.3405 360 91.3405C455.056 91.3405 544.416 87.2765 611.62 79.9005C644.268 76.3165 669.888 72.1445 687.772 67.5045C711.464 61.3565 715 55.9405 715 53.2605C715 52.7085 715.448 52.2605 716 52.2605C716.552 52.2605 717 52.7085 717 53.2605C717 59.1325 707.604 64.4245 688.276 69.4405C670.3 74.1045 644.584 78.2925 611.84 81.8885C544.564 89.2725 455.128 93.3405 360 93.3405Z" fill="#231F20"/>
<path d="M4 54.2603C3.448 54.2603 3 53.8123 3 53.2603V40.3604C3 39.8084 3.448 39.3604 4 39.3604C4.552 39.3604 5 39.8084 5 40.3604V53.2603C5 53.8123 4.552 54.2603 4 54.2603Z" fill="#231F20"/>
<path d="M42.7155 170.024H33.8395C33.2915 170.024 32.8475 169.584 32.8395 169.04L31.3595 68.5883C31.3515 68.0363 31.7915 67.5803 32.3435 67.5723H32.3595C32.9035 67.5723 33.3515 68.0083 33.3595 68.5563L34.8275 168.024H41.7315L43.1595 71.2963C43.1675 70.7443 43.6155 70.3043 44.1755 70.3123C44.7275 70.3203 45.1675 70.7763 45.1595 71.3283L43.7195 169.044C43.7115 169.592 43.2675 170.028 42.7195 170.028L42.7155 170.024Z" fill="#231F20"/>
<path d="M686.16 170.024H677.284C676.736 170.024 676.292 169.584 676.284 169.04L674.844 71.3243C674.836 70.7723 675.276 70.3163 675.828 70.3083C676.388 70.2923 676.836 70.7403 676.844 71.2923L678.272 168.02H685.176L686.644 68.5523C686.652 68.0003 687.108 67.5483 687.66 67.5683C688.212 67.5763 688.652 68.0323 688.644 68.5843L687.164 169.036C687.156 169.584 686.712 170.02 686.164 170.02L686.16 170.024Z" fill="#231F20"/>
<path d="M529.628 36.6683C515.608 36.6683 501.416 34.1323 501.416 29.2883C501.416 28.7363 501.864 28.2883 502.416 28.2883C502.968 28.2883 503.416 28.7363 503.416 29.2883C503.416 31.4803 513.628 34.6683 529.628 34.6683C545.628 34.6683 555.84 31.4843 555.84 29.2883C555.84 28.7363 556.288 28.2883 556.84 28.2883C557.392 28.2883 557.84 28.7363 557.84 29.2883C557.84 34.1323 543.648 36.6683 529.628 36.6683Z" fill="#231F20"/>
<path d="M556.839 30.2884C556.287 30.2884 555.839 29.8404 555.839 29.2884C555.839 28.7364 554.691 27.4284 550.383 26.2004C549.851 26.0484 549.543 25.4964 549.695 24.9644C549.847 24.4324 550.399 24.1244 550.931 24.2764C555.515 25.5844 557.839 27.2684 557.839 29.2884C557.839 29.8404 557.391 30.2884 556.839 30.2884Z" fill="#231F20"/>
<path d="M502.416 30.2883C501.864 30.2883 501.416 29.8403 501.416 29.2883C501.416 27.2643 503.752 25.5763 508.356 24.2683C508.888 24.1163 509.44 24.4243 509.592 24.9563C509.744 25.4883 509.436 26.0403 508.904 26.1923C504.572 27.4243 503.416 28.7163 503.416 29.2883C503.416 29.8603 502.968 30.2883 502.416 30.2883Z" fill="#231F20"/>
<path d="M529.648 55.6482C529.648 55.6482 529.616 55.6482 529.6 55.6482C520.096 55.6482 512.792 52.9842 507.896 47.7242C500.724 40.0242 501.38 29.6562 501.412 29.2162C501.452 28.6642 501.932 28.2522 502.48 28.2922C503.032 28.3322 503.444 28.8122 503.404 29.3602C503.396 29.4562 502.792 39.3282 509.372 46.3762C513.88 51.2042 520.684 53.6442 529.62 53.6482H529.644C538.576 53.6482 545.384 51.1962 549.888 46.3602C556.472 39.2922 555.848 29.4602 555.84 29.3602C555.8 28.8082 556.216 28.3322 556.764 28.2922C557.316 28.2522 557.792 28.6682 557.832 29.2162C557.864 29.6522 558.52 40.0242 551.348 47.7242C546.452 52.9802 539.148 55.6482 529.644 55.6482H529.648Z" fill="#231F20"/>
<path d="M554.039 32.4683C553.487 32.4683 553.039 32.0203 553.039 31.4683C553.039 31.2123 552.203 30.6443 551.755 30.3443C551.019 29.8483 550.259 29.3323 549.839 28.5923C549.431 27.8643 549.451 26.9483 549.471 26.0603C549.487 25.3763 549.507 24.4443 549.227 24.2003C549.047 24.0483 548.127 24.1523 547.631 24.2083C546.643 24.3203 545.527 24.4483 544.623 23.9603C543.795 23.5163 543.359 22.5923 542.935 21.7003C542.655 21.1043 542.267 20.2923 541.931 20.1723C541.679 20.0843 540.863 20.4683 540.375 20.6963C539.463 21.1283 538.427 21.6163 537.407 21.3963C536.447 21.1923 535.767 20.3843 535.107 19.6043C534.691 19.1123 534.123 18.4403 533.787 18.4043C533.507 18.3763 532.815 18.9123 532.359 19.2683C531.563 19.8883 530.663 20.5963 529.623 20.5963C528.583 20.5963 527.683 19.8923 526.887 19.2723C526.431 18.9163 525.743 18.3763 525.459 18.4083C525.123 18.4443 524.555 19.1163 524.139 19.6083C523.483 20.3883 522.799 21.1963 521.839 21.4003C520.819 21.6203 519.787 21.1283 518.871 20.7003C518.383 20.4723 517.571 20.0883 517.315 20.1763C516.979 20.2963 516.591 21.1083 516.311 21.7043C515.887 22.5963 515.451 23.5163 514.623 23.9643C513.719 24.4483 512.603 24.3243 511.615 24.2123C511.119 24.1563 510.199 24.0523 510.019 24.2043C509.739 24.4483 509.759 25.3803 509.775 26.0643C509.795 26.9523 509.815 27.8683 509.407 28.5963C508.991 29.3363 508.227 29.8523 507.491 30.3483C507.043 30.6523 506.207 31.2163 506.207 31.4763C506.207 32.0283 505.759 32.4763 505.207 32.4763C504.655 32.4763 504.207 32.0283 504.207 31.4763C504.207 30.1563 505.359 29.3803 506.375 28.6923C506.895 28.3403 507.483 27.9443 507.667 27.6163C507.807 27.3683 507.791 26.6723 507.779 26.1123C507.751 24.9723 507.719 23.5523 508.715 22.6923C509.551 21.9683 510.719 22.1003 511.843 22.2283C512.503 22.3043 513.327 22.3963 513.675 22.2083C513.923 22.0723 514.259 21.3683 514.503 20.8563C514.983 19.8403 515.527 18.6923 516.655 18.2963C517.683 17.9363 518.767 18.4483 519.723 18.9003C520.319 19.1803 521.059 19.5283 521.419 19.4563C521.711 19.3923 522.231 18.7803 522.607 18.3323C523.311 17.4963 524.111 16.5483 525.255 16.4323C526.339 16.3243 527.283 17.0603 528.119 17.7123C528.635 18.1123 529.275 18.6123 529.623 18.6123C529.971 18.6123 530.615 18.1123 531.127 17.7083C531.959 17.0563 532.903 16.3203 533.987 16.4283C535.131 16.5443 535.927 17.4923 536.635 18.3283C537.015 18.7763 537.531 19.3923 537.823 19.4563C538.183 19.5323 538.923 19.1843 539.519 18.9003C540.475 18.4483 541.563 17.9363 542.587 18.2963C543.715 18.6923 544.259 19.8403 544.739 20.8563C544.983 21.3723 545.315 22.0763 545.567 22.2083C545.919 22.3963 546.739 22.3043 547.399 22.2283C548.523 22.1003 549.691 21.9683 550.527 22.6923C551.523 23.5523 551.487 24.9723 551.463 26.1123C551.451 26.6723 551.435 27.3683 551.575 27.6163C551.759 27.9443 552.347 28.3443 552.867 28.6923C553.883 29.3763 555.031 30.1563 555.031 31.4763C555.031 32.0283 554.583 32.4763 554.031 32.4763L554.039 32.4683Z" fill="#231F20"/>
<path d="M517.87 30.2005C517.87 30.2005 517.686 27.2325 520.286 27.2605L517.87 30.2005Z" fill="white"/>
<path d="M517.867 31.1964C517.343 31.1964 516.903 30.7924 516.871 30.2604C516.859 30.0684 516.787 28.3564 517.875 27.2084C518.475 26.5764 519.311 26.2444 520.295 26.2564C520.847 26.2604 521.291 26.7164 521.283 27.2684C521.279 27.8204 520.827 28.2684 520.271 28.2564C519.851 28.2564 519.539 28.3564 519.327 28.5804C518.907 29.0204 518.851 29.8564 518.863 30.1404C518.891 30.6884 518.471 31.1604 517.923 31.1924C517.903 31.1924 517.883 31.1924 517.867 31.1924V31.1964Z" fill="#231F20"/>
<path d="M528.436 24.8284C528.436 24.8284 530.544 22.9084 533.704 24.8284H528.436Z" fill="white"/>
<path d="M533.699 25.8285C533.523 25.8285 533.343 25.7805 533.179 25.6845C530.779 24.2245 529.263 25.4365 529.095 25.5765C528.683 25.9365 528.051 25.8965 527.687 25.4885C527.323 25.0805 527.351 24.4605 527.755 24.0885C527.863 23.9885 530.459 21.6885 534.215 23.9725C534.687 24.2605 534.835 24.8725 534.551 25.3445C534.363 25.6525 534.035 25.8245 533.695 25.8245L533.699 25.8285Z" fill="#231F20"/>
<path d="M534.568 30.3408C534.568 30.3408 537.048 31.2688 539.34 29.1648L534.568 30.3408Z" fill="white"/>
<path d="M535.941 31.5447C534.957 31.5447 534.277 31.3007 534.221 31.2767C533.705 31.0847 533.441 30.5047 533.637 29.9887C533.829 29.4727 534.401 29.2127 534.917 29.4007C535.013 29.4327 536.889 30.0607 538.669 28.4247C539.077 28.0527 539.709 28.0767 540.081 28.4847C540.453 28.8927 540.429 29.5247 540.021 29.8967C538.577 31.2247 537.061 31.5407 535.945 31.5407L535.941 31.5447Z" fill="#231F20"/>
<path d="M416.068 45.9245C398.456 45.9245 380.236 41.3405 380.236 33.6765C380.236 29.3645 386.12 25.6085 396.38 23.3725C396.92 23.2565 397.452 23.5965 397.572 24.1365C397.688 24.6765 397.348 25.2085 396.808 25.3285C387.82 27.2885 382.24 30.4885 382.24 33.6805C382.24 36.1445 385.796 38.7605 391.748 40.6845C398.232 42.7765 406.868 43.9325 416.068 43.9325C425.268 43.9325 433.908 42.7805 440.388 40.6845C446.344 38.7605 449.896 36.1445 449.896 33.6805C449.896 30.3885 443.772 27.0245 434.292 25.1125C433.752 25.0045 433.4 24.4765 433.508 23.9325C433.616 23.3885 434.144 23.0405 434.688 23.1485C445.624 25.3525 451.896 29.1925 451.896 33.6765C451.896 41.3445 433.68 45.9245 416.064 45.9245H416.068Z" fill="#231F20"/>
<path d="M420.516 37.9723C420.228 37.9723 419.944 37.8443 419.752 37.6203C419.508 37.3363 419.448 36.9363 419.588 36.5923L428.028 16.1363C428.172 15.7923 428.492 15.5563 428.864 15.5203C429.236 15.4883 429.596 15.6643 429.796 15.9763L440.112 32.0763C440.288 32.3483 440.32 32.6923 440.196 32.9923C440.072 33.2923 439.812 33.5163 439.496 33.5883L420.74 37.9443C420.664 37.9603 420.588 37.9683 420.512 37.9683L420.516 37.9723ZM429.152 18.6723L422.184 35.5603L437.672 31.9643L429.156 18.6723H429.152Z" fill="#231F20"/>
<path d="M420.517 37.9724C420.445 37.9724 420.369 37.9644 420.297 37.9484L393.193 31.8684C392.893 31.8004 392.641 31.6004 392.509 31.3244C392.377 31.0484 392.377 30.7244 392.513 30.4524L401.485 12.2604C401.677 11.8724 402.097 11.6524 402.525 11.7124L429.097 15.5324C429.645 15.6124 430.025 16.1164 429.945 16.6644C429.865 17.2124 429.361 17.5884 428.813 17.5124L402.957 13.7964L394.869 30.2004L420.733 36.0044C421.273 36.1244 421.609 36.6604 421.489 37.2004C421.385 37.6644 420.973 37.9804 420.513 37.9804L420.517 37.9724Z" fill="#231F20"/>
<path d="M403 26.9604C402.868 26.9604 402.736 26.9364 402.608 26.8804C402.1 26.6644 401.864 26.0764 402.08 25.5684L405.204 18.2084C405.42 17.7004 406.008 17.4644 406.516 17.6804C407.024 17.8964 407.26 18.4844 407.044 18.9924L403.92 26.3524C403.76 26.7324 403.388 26.9604 403 26.9604Z" fill="#231F20"/>
<path d="M409.213 28.3403C409.081 28.3403 408.949 28.3163 408.821 28.2603C408.313 28.0443 408.077 27.4563 408.293 26.9483L411.417 19.5883C411.633 19.0803 412.221 18.8443 412.729 19.0603C413.237 19.2763 413.473 19.8643 413.257 20.3723L410.133 27.7323C409.973 28.1123 409.601 28.3403 409.213 28.3403Z" fill="#231F20"/>
<path d="M415.426 29.7204C415.294 29.7204 415.162 29.6964 415.034 29.6404C414.526 29.4244 414.29 28.8364 414.506 28.3284L417.63 20.9684C417.846 20.4604 418.434 20.2244 418.942 20.4404C419.45 20.6564 419.686 21.2444 419.47 21.7524L416.346 29.1124C416.186 29.4924 415.814 29.7204 415.426 29.7204Z" fill="#231F20"/>
<path d="M395.993 37.9765C400.292 37.9765 403.777 35.9044 403.777 33.3485C403.777 30.7925 400.292 28.7205 395.993 28.7205C391.694 28.7205 388.209 30.7925 388.209 33.3485C388.209 35.9044 391.694 37.9765 395.993 37.9765Z" fill="white"/>
<path d="M395.993 38.9765C391.069 38.9765 387.209 36.5045 387.209 33.3485C387.209 30.1925 391.065 27.7205 395.993 27.7205C400.921 27.7205 404.777 30.1925 404.777 33.3485C404.777 36.5045 400.921 38.9765 395.993 38.9765ZM395.993 29.7205C391.937 29.7205 389.209 31.5965 389.209 33.3485C389.209 35.1005 391.933 36.9765 395.993 36.9765C400.053 36.9765 402.777 35.1005 402.777 33.3485C402.777 31.5965 400.053 29.7205 395.993 29.7205Z" fill="#231F20"/>
<path d="M404.565 40.0282C408.864 40.0282 412.349 37.9562 412.349 35.4002C412.349 32.8442 408.864 30.7722 404.565 30.7722C400.266 30.7722 396.781 32.8442 396.781 35.4002C396.781 37.9562 400.266 40.0282 404.565 40.0282Z" fill="white"/>
<path d="M404.565 41.0282C399.641 41.0282 395.781 38.5562 395.781 35.4002C395.781 32.2442 399.637 29.7722 404.565 29.7722C409.493 29.7722 413.349 32.2442 413.349 35.4002C413.349 38.5562 409.493 41.0282 404.565 41.0282ZM404.565 31.7722C400.509 31.7722 397.781 33.6482 397.781 35.4002C397.781 37.1522 400.505 39.0282 404.565 39.0282C408.625 39.0282 411.349 37.1522 411.349 35.4002C411.349 33.6482 408.625 31.7722 404.565 31.7722Z" fill="#231F20"/>
<path d="M165.509 48.4204C155.113 48.4204 145.321 47.0564 137.945 44.5764C130.229 41.9844 125.977 38.3924 125.977 34.4724C125.977 30.7964 129.565 27.4964 136.357 24.9324C136.873 24.7364 137.449 24.9964 137.645 25.5164C137.841 26.0324 137.581 26.6084 137.061 26.8044C131.285 28.9844 127.973 31.7804 127.973 34.4724C127.973 40.2444 143.053 46.4244 165.505 46.4244C187.957 46.4244 203.037 40.2444 203.037 34.4724C203.037 31.2124 198.265 27.8924 190.273 25.5924C189.741 25.4404 189.437 24.8844 189.589 24.3564C189.741 23.8244 190.297 23.5204 190.825 23.6724C199.989 26.3084 205.037 30.1444 205.037 34.4764C205.037 38.4004 200.789 41.9884 193.069 44.5804C185.693 47.0604 175.901 48.4244 165.505 48.4244L165.509 48.4204Z" fill="#231F20"/>
<path d="M148.212 38.7044C142.86 38.7044 138.992 36.3484 137.192 31.9324C136.98 31.4804 135.124 27.2884 137.132 23.2724C138.7 20.1364 142.144 18.0364 147.364 17.0364C151.824 16.1804 156.6 16.4244 161.176 17.7484C164.788 18.7884 171.144 20.4844 176.464 21.1724C177.164 21.2124 177.812 21.2764 178.408 21.3684C178.588 21.3844 178.756 21.4044 178.912 21.4164C179.04 21.4284 179.16 21.4644 179.268 21.5204C184.968 22.6964 185.676 26.1964 185.748 27.3644C185.948 30.6324 183.26 33.6964 179.624 34.3444C177.816 34.6644 170.324 34.3844 167.78 34.2204C167.748 34.2204 161.268 34.0484 156.824 36.4524C154.644 37.6324 152.488 38.3484 150.416 38.5724C149.656 38.6564 148.92 38.6964 148.212 38.6964V38.7044ZM152.704 18.5404C151.024 18.5404 149.36 18.6964 147.744 19.0044C143.176 19.8804 140.212 21.6164 138.928 24.1564C137.28 27.4244 138.988 31.0604 139.008 31.0964C139.016 31.1164 139.028 31.1364 139.036 31.1564C141.172 36.4284 146.284 37.0244 150.2 36.5924C152.016 36.3924 153.924 35.7564 155.876 34.7004C160.8 32.0324 167.592 32.2204 167.88 32.2284C171.072 32.4324 177.884 32.6284 179.276 32.3804C181.884 31.9164 183.892 29.7244 183.756 27.4924C183.628 25.4124 181.624 23.9324 178.284 23.3804C172.784 22.9364 165.684 21.1324 160.628 19.6724C158.016 18.9204 155.34 18.5404 152.708 18.5404H152.704Z" fill="#231F20"/>
<path d="M149.177 32.6642C147.185 32.6642 145.429 32.3402 143.913 31.6922C140.773 30.3522 139.905 28.0602 139.869 27.9642C139.681 27.4442 139.945 26.8722 140.465 26.6802C140.981 26.4922 141.553 26.7522 141.745 27.2682C141.781 27.3562 142.429 28.9202 144.789 29.8922C147.505 31.0162 152.801 31.4522 162.613 27.1562C163.117 26.9362 163.709 27.1642 163.929 27.6722C164.149 28.1762 163.921 28.7682 163.413 28.9882C157.817 31.4362 153.053 32.6642 149.177 32.6642Z" fill="#231F20"/>
<path d="M286.44 58.6964C276.044 58.6964 266.252 57.3324 258.876 54.8524C251.16 52.2604 246.908 48.6684 246.908 44.7484C246.908 41.0724 250.496 37.7724 257.288 35.2084C257.804 35.0124 258.38 35.2724 258.576 35.7924C258.772 36.3084 258.512 36.8844 257.992 37.0804C252.216 39.2604 248.904 42.0564 248.904 44.7484C248.904 50.5204 263.984 56.7004 286.436 56.7004C308.888 56.7004 323.968 50.5204 323.968 44.7484C323.968 41.8204 320.16 38.8484 313.516 36.5884C312.992 36.4124 312.712 35.8444 312.892 35.3204C313.068 34.7964 313.636 34.5164 314.16 34.6964C321.776 37.2844 325.968 40.8564 325.968 44.7484C325.968 48.6404 321.72 52.2604 314 54.8524C306.624 57.3324 296.832 58.6964 286.436 58.6964H286.44Z" fill="#231F20"/>
<path d="M256.211 44.5203C255.671 44.5203 255.227 44.0923 255.211 43.5483C255.211 43.4003 255.019 28.6763 272.179 26.2123C272.727 26.1323 273.231 26.5123 273.311 27.0603C273.391 27.6083 273.011 28.1123 272.463 28.1923C257.099 30.3963 257.199 42.9643 257.211 43.5003C257.223 44.0523 256.787 44.5083 256.235 44.5243C256.227 44.5243 256.219 44.5243 256.211 44.5243V44.5203Z" fill="#231F20"/>
<path d="M260.337 46.8885C259.801 46.8885 259.353 46.4605 259.337 45.9205C259.333 45.7645 259.053 30.3405 276.541 28.8085C277.089 28.7605 277.577 29.1685 277.625 29.7165C277.673 30.2685 277.265 30.7525 276.717 30.8005C270.137 31.3765 265.553 34.0885 263.093 38.8565C261.253 42.4245 261.337 45.8245 261.337 45.8605C261.353 46.4125 260.921 46.8725 260.369 46.8925C260.357 46.8925 260.349 46.8925 260.337 46.8925V46.8885Z" fill="#231F20"/>
<path d="M264.456 49.2523C263.948 49.2523 263.512 48.8643 263.464 48.3483C263.448 48.1923 263.124 44.5243 265.132 40.5523C266.972 36.9043 271.196 32.3083 280.86 31.1363C281.408 31.0683 281.908 31.4603 281.972 32.0083C282.04 32.5563 281.648 33.0563 281.1 33.1203C264.472 35.1403 265.408 47.6243 265.456 48.1563C265.504 48.7043 265.1 49.1923 264.552 49.2443C264.52 49.2443 264.488 49.2483 264.456 49.2483V49.2523Z" fill="#231F20"/>
<path d="M268.575 51.6164C268.115 51.6164 267.703 51.3004 267.599 50.8324C267.551 50.6204 266.487 45.5724 269.947 40.6604C273.127 36.1404 278.979 33.3084 287.339 32.2444C287.887 32.1764 288.387 32.5604 288.459 33.1084C288.527 33.6564 288.143 34.1564 287.595 34.2284C279.839 35.2164 274.459 37.7564 271.611 41.7764C268.651 45.9524 269.551 50.3564 269.559 50.4004C269.675 50.9404 269.331 51.4724 268.795 51.5884C268.723 51.6044 268.651 51.6124 268.579 51.6124L268.575 51.6164Z" fill="#231F20"/>
<path d="M287.079 51.8523C275.055 51.8523 268.919 45.9523 268.599 45.6363C268.207 45.2483 268.203 44.6163 268.591 44.2203C268.979 43.8283 269.611 43.8243 270.003 44.2123C270.131 44.3363 279.455 53.1643 297.499 48.4243C298.031 48.2843 298.579 48.6043 298.719 49.1363C298.859 49.6723 298.539 50.2163 298.007 50.3563C293.943 51.4243 290.295 51.8483 287.075 51.8483L287.079 51.8523Z" fill="#231F20"/>
<path d="M288.188 47.3763C278.656 47.3763 272.544 43.8963 270.856 42.2883C270.456 41.9083 270.44 41.2763 270.82 40.8763C271.2 40.4763 271.832 40.4603 272.232 40.8403C273.844 42.3723 282.764 47.4763 296.92 44.4083C297.46 44.2923 297.992 44.6323 298.108 45.1723C298.224 45.7123 297.884 46.2443 297.344 46.3603C294.02 47.0803 290.96 47.3763 288.188 47.3763Z" fill="#231F20"/>
<path d="M288.564 43.2324C281.268 43.2324 275.976 40.9684 273.652 39.2724C273.204 38.9484 273.108 38.3204 273.432 37.8764C273.756 37.4284 274.384 37.3324 274.828 37.6564C277.4 39.5284 284.976 42.5524 295.26 40.5804C295.804 40.4764 296.328 40.8324 296.432 41.3724C296.536 41.9164 296.18 42.4404 295.64 42.5444C293.12 43.0284 290.752 43.2324 288.564 43.2324Z" fill="#231F20"/>
<path d="M288.009 39.1123C283.825 39.1123 280.925 38.0443 278.473 36.9723C277.965 36.7523 277.737 36.1603 277.957 35.6563C278.177 35.1483 278.769 34.9203 279.273 35.1403C282.481 36.5403 286.165 37.8123 292.705 36.6803C293.249 36.5843 293.765 36.9523 293.861 37.4963C293.957 38.0403 293.589 38.5563 293.045 38.6523C291.177 38.9763 289.509 39.1123 288.009 39.1123Z" fill="#231F20"/>
<path d="M298.828 52.2925C298.288 52.2925 297.844 51.8605 297.828 51.3165C297.412 35.0925 278.816 30.3005 278.628 30.2525C278.092 30.1205 277.764 29.5765 277.896 29.0405C278.028 28.5045 278.572 28.1765 279.108 28.3085C279.316 28.3605 284.22 29.6005 289.244 33.0165C295.98 37.5965 299.64 43.9045 299.828 51.2605C299.844 51.8125 299.408 52.2725 298.852 52.2845C298.844 52.2845 298.836 52.2845 298.824 52.2845L298.828 52.2925Z" fill="#231F20"/>
<path d="M303.264 50.3925C302.732 50.3925 302.292 49.9765 302.264 49.4405C301.504 33.1245 282.972 28.6605 282.784 28.6165C282.244 28.4925 281.912 27.9565 282.036 27.4165C282.16 26.8765 282.696 26.5445 283.236 26.6685C283.44 26.7165 288.332 27.8685 293.388 31.2125C300.16 35.6885 303.92 41.9605 304.264 49.3485C304.288 49.9005 303.864 50.3685 303.312 50.3925C303.296 50.3925 303.28 50.3925 303.264 50.3925Z" fill="#231F20"/>
<path d="M307.412 48.9883H307.404C306.852 48.9883 306.408 48.5323 306.412 47.9803C306.492 36.0643 294.844 30.3763 289.872 27.9483L289.808 27.9163C289.312 27.6723 289.104 27.0763 289.348 26.5803C289.592 26.0843 290.188 25.8763 290.684 26.1203L290.748 26.1523C296.06 28.7443 308.504 34.8203 308.412 47.9923C308.412 48.5403 307.96 48.9843 307.412 48.9843V48.9883Z" fill="#231F20"/>
<path d="M311.473 47.3002C310.921 47.3002 310.473 46.8522 310.473 46.3002C310.473 35.9842 301.969 30.6922 297.469 29.3362C296.941 29.1762 296.641 28.6202 296.801 28.0882C296.961 27.5602 297.517 27.2602 298.049 27.4202C304.997 29.5162 312.473 36.3162 312.473 46.2962C312.473 46.8482 312.025 47.2962 311.473 47.2962V47.3002Z" fill="#231F20"/>
<path d="M315.751 45.9242C315.199 45.9242 314.751 45.4762 314.751 44.9242C314.751 35.3082 306.163 28.0922 300.247 27.3482C299.699 27.2802 299.311 26.7802 299.379 26.2322C299.447 25.6842 299.947 25.2962 300.495 25.3642C304.139 25.8242 308.187 28.1562 311.319 31.6002C314.819 35.4562 316.751 40.1882 316.751 44.9202C316.751 45.4722 316.303 45.9202 315.751 45.9202V45.9242Z" fill="#231F20"/>
<path d="M276.536 30.6244C278.862 30.6244 280.748 28.7387 280.748 26.4124C280.748 24.0862 278.862 22.2004 276.536 22.2004C274.21 22.2004 272.324 24.0862 272.324 26.4124C272.324 28.7387 274.21 30.6244 276.536 30.6244Z" fill="white"/>
<path d="M276.536 31.6283C273.66 31.6283 271.324 29.2883 271.324 26.4163C271.324 23.5443 273.664 21.2043 276.536 21.2043C279.408 21.2043 281.748 23.5443 281.748 26.4163C281.748 29.2883 279.408 31.6283 276.536 31.6283ZM276.536 23.2003C274.764 23.2003 273.324 24.6403 273.324 26.4123C273.324 28.1843 274.764 29.6243 276.536 29.6243C278.308 29.6243 279.748 28.1843 279.748 26.4123C279.748 24.6403 278.308 23.2003 276.536 23.2003Z" fill="#231F20"/>
<path d="M290.249 28.3366C292.575 28.3366 294.461 26.4508 294.461 24.1246C294.461 21.7984 292.575 19.9126 290.249 19.9126C287.923 19.9126 286.037 21.7984 286.037 24.1246C286.037 26.4508 287.923 28.3366 290.249 28.3366Z" fill="white"/>
<path d="M290.249 29.3405C287.373 29.3405 285.037 27.0005 285.037 24.1285C285.037 21.2565 287.377 18.9165 290.249 18.9165C293.121 18.9165 295.461 21.2565 295.461 24.1285C295.461 27.0005 293.121 29.3405 290.249 29.3405ZM290.249 20.9125C288.477 20.9125 287.037 22.3525 287.037 24.1245C287.037 25.8965 288.477 27.3365 290.249 27.3365C292.021 27.3365 293.461 25.8965 293.461 24.1245C293.461 22.3525 292.021 20.9125 290.249 20.9125Z" fill="#231F20"/>
<path d="M297.144 31.3202C299.47 31.3202 301.356 29.4345 301.356 27.1082C301.356 24.782 299.47 22.8962 297.144 22.8962C294.817 22.8962 292.932 24.782 292.932 27.1082C292.932 29.4345 294.817 31.3202 297.144 31.3202Z" fill="white"/>
<path d="M297.144 32.3241C294.268 32.3241 291.932 29.9841 291.932 27.1121C291.932 24.2401 294.272 21.9001 297.144 21.9001C300.016 21.9001 302.356 24.2401 302.356 27.1121C302.356 29.9841 300.016 32.3241 297.144 32.3241ZM297.144 23.8961C295.372 23.8961 293.932 25.3361 293.932 27.1081C293.932 28.8801 295.372 30.3201 297.144 30.3201C298.916 30.3201 300.356 28.8801 300.356 27.1081C300.356 25.3361 298.916 23.8961 297.144 23.8961Z" fill="#231F20"/>
<path d="M282.608 33.0763C284.935 33.0763 286.82 31.1906 286.82 28.8643C286.82 26.5381 284.935 24.6523 282.608 24.6523C280.282 24.6523 278.396 26.5381 278.396 28.8643C278.396 31.1906 280.282 33.0763 282.608 33.0763Z" fill="white"/>
<path d="M282.608 34.0802C279.732 34.0802 277.396 31.7402 277.396 28.8682C277.396 25.9962 279.736 23.6562 282.608 23.6562C285.48 23.6562 287.82 25.9962 287.82 28.8682C287.82 31.7402 285.48 34.0802 282.608 34.0802ZM282.608 25.6523C280.836 25.6523 279.396 27.0923 279.396 28.8643C279.396 30.6363 280.836 32.0763 282.608 32.0763C284.38 32.0763 285.82 30.6363 285.82 28.8643C285.82 27.0923 284.38 25.6523 282.608 25.6523Z" fill="#231F20"/>
<path d="M175.856 40.3602C180.155 40.3602 183.64 38.2882 183.64 35.7322C183.64 33.1763 180.155 31.1042 175.856 31.1042C171.557 31.1042 168.072 33.1763 168.072 35.7322C168.072 38.2882 171.557 40.3602 175.856 40.3602Z" fill="white"/>
<path d="M175.856 41.3602C170.932 41.3602 167.072 38.8882 167.072 35.7322C167.072 32.5762 170.928 30.1042 175.856 30.1042C180.784 30.1042 184.64 32.5762 184.64 35.7322C184.64 38.8882 180.784 41.3602 175.856 41.3602ZM175.856 32.1002C171.8 32.1002 169.072 33.9762 169.072 35.7282C169.072 37.4802 171.796 39.3562 175.856 39.3562C179.916 39.3562 182.64 37.4802 182.64 35.7282C182.64 33.9762 179.916 32.1002 175.856 32.1002Z" fill="#231F20"/>
<path d="M185.665 37.7802C189.964 37.7802 193.449 35.7081 193.449 33.1522C193.449 30.5962 189.964 28.5242 185.665 28.5242C181.366 28.5242 177.881 30.5962 177.881 33.1522C177.881 35.7081 181.366 37.7802 185.665 37.7802Z" fill="white"/>
<path d="M185.665 38.7802C180.741 38.7802 176.881 36.3082 176.881 33.1522C176.881 29.9962 180.737 27.5242 185.665 27.5242C190.593 27.5242 194.449 29.9962 194.449 33.1522C194.449 36.3082 190.593 38.7802 185.665 38.7802ZM185.665 29.5242C181.609 29.5242 178.881 31.4002 178.881 33.1522C178.881 34.9042 181.605 36.7802 185.665 36.7802C189.725 36.7802 192.449 34.9042 192.449 33.1522C192.449 31.4002 189.725 29.5242 185.665 29.5242Z" fill="#231F20"/>
<path d="M716 54.4283C715.448 54.4283 715 53.9803 715 53.4283V40.5283C715 39.9763 715.448 39.5283 716 39.5283C716.552 39.5283 717 39.9763 717 40.5283V53.4283C717 53.9803 716.552 54.4283 716 54.4283Z" fill="#231F20"/>
</g>
<defs>
<clipPath id="clip0_2054_95056">
<rect width="720" height="170" fill="white"/>
</clipPath>
</defs>
</svg>
