<svg width="720" height="170" viewBox="0 0 720 170" fill="none" xmlns="http://www.w3.org/2000/svg">
<g clip-path="url(#clip0_1943_88722)">
<path d="M360 0.432129C163.388 0.432129 4 17.9281 4 39.5121V52.4121C4 57.8481 14.112 63.0241 32.38 67.7281H32.36L33.84 168.176H42.716L44.156 70.4601L44.092 70.4441C103.46 82.9521 222.64 91.4921 360 91.4921C497.36 91.4921 616.54 82.9521 675.908 70.4441L675.844 70.4601L677.284 168.176H686.16L687.64 67.7241H687.62C705.888 63.0241 716 57.8481 716 52.4121V39.5121C716 17.9281 556.612 0.432129 360 0.432129Z" fill="white"/>
<path d="M360 79.4403C264.872 79.4403 175.436 75.3723 108.16 67.9883C75.416 64.3923 49.7 60.2043 31.724 55.5403C12.396 50.5203 3 45.2283 3 39.3603C3 33.4923 12.396 28.1963 31.724 23.1803C49.7 18.5163 75.416 14.3283 108.16 10.7323C175.436 3.34427 264.872 -0.719727 360 -0.719727C455.128 -0.719727 544.564 3.34827 611.84 10.7323C644.58 14.3283 670.3 18.5163 688.276 23.1803C707.604 28.1963 717 33.4883 717 39.3603C717 45.2323 707.604 50.5243 688.276 55.5403C670.3 60.2043 644.584 64.3923 611.84 67.9883C544.564 75.3723 455.128 79.4403 360 79.4403ZM360 1.28027C264.944 1.28027 175.584 5.34427 108.38 12.7203C75.732 16.3043 50.112 20.4763 32.228 25.1163C8.536 31.2643 5 36.6803 5 39.3603C5 42.0403 8.536 47.4563 32.228 53.6043C50.112 58.2443 75.732 62.4163 108.38 66.0003C175.584 73.3763 264.944 77.4403 360 77.4403C455.056 77.4403 544.416 73.3763 611.62 66.0003C644.268 62.4163 669.888 58.2443 687.772 53.6043C711.464 47.4563 715 42.0403 715 39.3603C715 36.6803 711.464 31.2643 687.772 25.1163C669.888 20.4763 644.268 16.3043 611.62 12.7203C544.416 5.34027 455.056 1.28027 360 1.28027Z" fill="#231F20"/>
<path d="M360 92.3403C264.872 92.3403 175.436 88.2723 108.16 80.8883C75.416 77.2923 49.7 73.1043 31.724 68.4403C12.396 63.4243 3 58.1323 3 52.2603C3 51.7083 3.448 51.2603 4 51.2603C4.552 51.2603 5 51.7083 5 52.2603C5 54.9403 8.536 60.3563 32.228 66.5043C50.112 71.1443 75.732 75.3163 108.38 78.9003C175.584 86.2763 264.944 90.3403 360 90.3403C455.056 90.3403 544.416 86.2763 611.62 78.9003C644.268 75.3163 669.888 71.1443 687.772 66.5043C711.464 60.3563 715 54.9403 715 52.2603C715 51.7083 715.448 51.2603 716 51.2603C716.552 51.2603 717 51.7083 717 52.2603C717 58.1323 707.604 63.4243 688.276 68.4403C670.3 73.1043 644.584 77.2923 611.84 80.8883C544.564 88.2723 455.128 92.3403 360 92.3403Z" fill="#231F20"/>
<path d="M4 53.2603C3.448 53.2603 3 52.8123 3 52.2603V39.3604C3 38.8084 3.448 38.3604 4 38.3604C4.552 38.3604 5 38.8084 5 39.3604V52.2603C5 52.8123 4.552 53.2603 4 53.2603Z" fill="#231F20"/>
<path d="M42.7155 169.024H33.8395C33.2915 169.024 32.8475 168.584 32.8395 168.04L31.3595 67.5883C31.3515 67.0363 31.7915 66.5803 32.3435 66.5723H32.3595C32.9035 66.5723 33.3515 67.0083 33.3595 67.5563L34.8275 167.024H41.7315L43.1595 70.2963C43.1675 69.7443 43.6155 69.3043 44.1755 69.3123C44.7275 69.3203 45.1675 69.7763 45.1595 70.3283L43.7195 168.044C43.7115 168.592 43.2675 169.028 42.7195 169.028L42.7155 169.024Z" fill="#231F20"/>
<path d="M686.16 169.024H677.284C676.736 169.024 676.292 168.584 676.284 168.04L674.844 70.324C674.836 69.772 675.276 69.316 675.828 69.308C676.388 69.292 676.836 69.74 676.844 70.292L678.272 167.02H685.176L686.644 67.552C686.652 67 687.108 66.548 687.66 66.568C688.212 66.576 688.652 67.032 688.644 67.584L687.164 168.036C687.156 168.584 686.712 169.02 686.164 169.02L686.16 169.024Z" fill="#231F20"/>
<path d="M529.628 35.6681C515.608 35.6681 501.416 33.1321 501.416 28.2881C501.416 27.7361 501.864 27.2881 502.416 27.2881C502.968 27.2881 503.416 27.7361 503.416 28.2881C503.416 30.4801 513.628 33.6681 529.628 33.6681C545.628 33.6681 555.84 30.4841 555.84 28.2881C555.84 27.7361 556.288 27.2881 556.84 27.2881C557.392 27.2881 557.84 27.7361 557.84 28.2881C557.84 33.1321 543.648 35.6681 529.628 35.6681Z" fill="#231F20"/>
<path d="M556.839 29.2881C556.287 29.2881 555.839 28.8401 555.839 28.2881C555.839 27.7361 554.691 26.4281 550.383 25.2001C549.851 25.0481 549.543 24.4961 549.695 23.9641C549.847 23.4321 550.399 23.1241 550.931 23.2761C555.515 24.5841 557.839 26.2681 557.839 28.2881C557.839 28.8401 557.391 29.2881 556.839 29.2881Z" fill="#231F20"/>
<path d="M502.416 29.2878C501.864 29.2878 501.416 28.8398 501.416 28.2878C501.416 26.2638 503.752 24.5758 508.356 23.2678C508.888 23.1158 509.44 23.4238 509.592 23.9558C509.744 24.4878 509.436 25.0398 508.904 25.1918C504.572 26.4238 503.416 27.7158 503.416 28.2878C503.416 28.8598 502.968 29.2878 502.416 29.2878Z" fill="#231F20"/>
<path d="M529.648 54.6482C529.648 54.6482 529.616 54.6482 529.6 54.6482C520.096 54.6482 512.792 51.9842 507.896 46.7242C500.724 39.0242 501.38 28.6562 501.412 28.2162C501.452 27.6642 501.932 27.2522 502.48 27.2922C503.032 27.3322 503.444 27.8122 503.404 28.3602C503.396 28.4562 502.792 38.3282 509.372 45.3762C513.88 50.2042 520.684 52.6442 529.62 52.6482H529.644C538.576 52.6482 545.384 50.1962 549.888 45.3602C556.472 38.2922 555.848 28.4602 555.84 28.3602C555.8 27.8082 556.216 27.3322 556.764 27.2922C557.316 27.2522 557.792 27.6682 557.832 28.2162C557.864 28.6522 558.52 39.0242 551.348 46.7242C546.452 51.9802 539.148 54.6482 529.644 54.6482H529.648Z" fill="#231F20"/>
<path d="M554.039 31.4681C553.487 31.4681 553.039 31.0201 553.039 30.4681C553.039 30.2121 552.203 29.6441 551.755 29.3441C551.019 28.8481 550.259 28.3321 549.839 27.5921C549.431 26.8641 549.451 25.9481 549.471 25.0601C549.487 24.3761 549.507 23.4441 549.227 23.2001C549.047 23.0481 548.127 23.1521 547.631 23.2081C546.643 23.3201 545.527 23.4481 544.623 22.9601C543.795 22.5161 543.359 21.5921 542.935 20.7001C542.655 20.1041 542.267 19.2921 541.931 19.1721C541.679 19.0841 540.863 19.4681 540.375 19.6961C539.463 20.1281 538.427 20.6161 537.407 20.3961C536.447 20.1921 535.767 19.3841 535.107 18.6041C534.691 18.1121 534.123 17.4401 533.787 17.4041C533.507 17.3761 532.815 17.9121 532.359 18.2681C531.563 18.8881 530.663 19.5961 529.623 19.5961C528.583 19.5961 527.683 18.8921 526.887 18.2721C526.431 17.9161 525.743 17.3761 525.459 17.4081C525.123 17.4441 524.555 18.1161 524.139 18.6081C523.483 19.3881 522.799 20.1961 521.839 20.4001C520.819 20.6201 519.787 20.1281 518.871 19.7001C518.383 19.4721 517.571 19.0881 517.315 19.1761C516.979 19.2961 516.591 20.1081 516.311 20.7041C515.887 21.5961 515.451 22.5161 514.623 22.9641C513.719 23.4481 512.603 23.3241 511.615 23.2121C511.119 23.1561 510.199 23.0521 510.019 23.2041C509.739 23.4481 509.759 24.3801 509.775 25.0641C509.795 25.9521 509.815 26.8681 509.407 27.5961C508.991 28.3361 508.227 28.8521 507.491 29.3481C507.043 29.6521 506.207 30.2161 506.207 30.4761C506.207 31.0281 505.759 31.4761 505.207 31.4761C504.655 31.4761 504.207 31.0281 504.207 30.4761C504.207 29.1561 505.359 28.3801 506.375 27.6921C506.895 27.3401 507.483 26.9441 507.667 26.6161C507.807 26.3681 507.791 25.6721 507.779 25.1121C507.751 23.9721 507.719 22.5521 508.715 21.6921C509.551 20.9681 510.719 21.1001 511.843 21.2281C512.503 21.3041 513.327 21.3961 513.675 21.2081C513.923 21.0721 514.259 20.3681 514.503 19.8561C514.983 18.8401 515.527 17.6921 516.655 17.2961C517.683 16.9361 518.767 17.4481 519.723 17.9001C520.319 18.1801 521.059 18.5281 521.419 18.4561C521.711 18.3921 522.231 17.7801 522.607 17.3321C523.311 16.4961 524.111 15.5481 525.255 15.4321C526.339 15.3241 527.283 16.0601 528.119 16.7121C528.635 17.1121 529.275 17.6121 529.623 17.6121C529.971 17.6121 530.615 17.1121 531.127 16.7081C531.959 16.0561 532.903 15.3201 533.987 15.4281C535.131 15.5441 535.927 16.4921 536.635 17.3281C537.015 17.7761 537.531 18.3921 537.823 18.4561C538.183 18.5321 538.923 18.1841 539.519 17.9001C540.475 17.4481 541.563 16.9361 542.587 17.2961C543.715 17.6921 544.259 18.8401 544.739 19.8561C544.983 20.3721 545.315 21.0761 545.567 21.2081C545.919 21.3961 546.739 21.3041 547.399 21.2281C548.523 21.1001 549.691 20.9681 550.527 21.6921C551.523 22.5521 551.487 23.9721 551.463 25.1121C551.451 25.6721 551.435 26.3681 551.575 26.6161C551.759 26.9441 552.347 27.3441 552.867 27.6921C553.883 28.3761 555.031 29.1561 555.031 30.4761C555.031 31.0281 554.583 31.4761 554.031 31.4761L554.039 31.4681Z" fill="#231F20"/>
<path d="M517.87 29.2C517.87 29.2 517.686 26.232 520.286 26.26L517.87 29.2Z" fill="white"/>
<path d="M517.867 30.1962C517.343 30.1962 516.903 29.7922 516.871 29.2602C516.859 29.0682 516.787 27.3562 517.875 26.2082C518.475 25.5762 519.311 25.2442 520.295 25.2562C520.847 25.2602 521.291 25.7162 521.283 26.2682C521.279 26.8202 520.827 27.2682 520.271 27.2562C519.851 27.2562 519.539 27.3562 519.327 27.5802C518.907 28.0202 518.851 28.8562 518.863 29.1402C518.891 29.6882 518.471 30.1602 517.923 30.1922C517.903 30.1922 517.883 30.1922 517.867 30.1922V30.1962Z" fill="#231F20"/>
<path d="M528.436 23.8284C528.436 23.8284 530.544 21.9084 533.704 23.8284H528.436Z" fill="white"/>
<path d="M533.699 24.8282C533.523 24.8282 533.343 24.7802 533.179 24.6842C530.779 23.2242 529.263 24.4362 529.095 24.5762C528.683 24.9362 528.051 24.8962 527.687 24.4882C527.323 24.0802 527.351 23.4602 527.755 23.0882C527.863 22.9882 530.459 20.6882 534.215 22.9722C534.687 23.2602 534.835 23.8722 534.551 24.3442C534.363 24.6522 534.035 24.8242 533.695 24.8242L533.699 24.8282Z" fill="#231F20"/>
<path d="M534.568 29.3405C534.568 29.3405 537.048 30.2686 539.34 28.1646L534.568 29.3405Z" fill="white"/>
<path d="M535.941 30.5445C534.957 30.5445 534.277 30.3005 534.221 30.2765C533.705 30.0845 533.441 29.5045 533.637 28.9885C533.829 28.4725 534.401 28.2125 534.917 28.4005C535.013 28.4325 536.889 29.0605 538.669 27.4245C539.077 27.0525 539.709 27.0765 540.081 27.4845C540.453 27.8925 540.429 28.5245 540.021 28.8965C538.577 30.2245 537.061 30.5405 535.945 30.5405L535.941 30.5445Z" fill="#231F20"/>
<path d="M416.068 44.9245C398.456 44.9245 380.236 40.3405 380.236 32.6765C380.236 28.3645 386.12 24.6085 396.38 22.3725C396.92 22.2565 397.452 22.5965 397.572 23.1365C397.688 23.6765 397.348 24.2085 396.808 24.3285C387.82 26.2885 382.24 29.4885 382.24 32.6805C382.24 35.1445 385.796 37.7605 391.748 39.6845C398.232 41.7765 406.868 42.9325 416.068 42.9325C425.268 42.9325 433.908 41.7805 440.388 39.6845C446.344 37.7605 449.896 35.1445 449.896 32.6805C449.896 29.3885 443.772 26.0245 434.292 24.1125C433.752 24.0045 433.4 23.4765 433.508 22.9325C433.616 22.3885 434.144 22.0405 434.688 22.1485C445.624 24.3525 451.896 28.1925 451.896 32.6765C451.896 40.3445 433.68 44.9245 416.064 44.9245H416.068Z" fill="#231F20"/>
<path d="M420.516 36.9723C420.228 36.9723 419.944 36.8443 419.752 36.6203C419.508 36.3363 419.448 35.9363 419.588 35.5923L428.028 15.1363C428.172 14.7923 428.492 14.5563 428.864 14.5203C429.236 14.4883 429.596 14.6643 429.796 14.9763L440.112 31.0763C440.288 31.3483 440.32 31.6923 440.196 31.9923C440.072 32.2923 439.812 32.5163 439.496 32.5883L420.74 36.9443C420.664 36.9603 420.588 36.9683 420.512 36.9683L420.516 36.9723ZM429.152 17.6723L422.184 34.5603L437.672 30.9643L429.156 17.6723H429.152Z" fill="#231F20"/>
<path d="M420.517 36.9724C420.445 36.9724 420.369 36.9644 420.297 36.9484L393.193 30.8684C392.893 30.8004 392.641 30.6004 392.509 30.3244C392.377 30.0484 392.377 29.7244 392.513 29.4524L401.485 11.2604C401.677 10.8724 402.097 10.6524 402.525 10.7124L429.097 14.5324C429.645 14.6124 430.025 15.1164 429.945 15.6644C429.865 16.2124 429.361 16.5884 428.813 16.5124L402.957 12.7964L394.869 29.2004L420.733 35.0044C421.273 35.1244 421.609 35.6604 421.489 36.2004C421.385 36.6644 420.973 36.9804 420.513 36.9804L420.517 36.9724Z" fill="#231F20"/>
<path d="M403 25.9602C402.868 25.9602 402.736 25.9362 402.608 25.8802C402.1 25.6642 401.864 25.0762 402.08 24.5682L405.204 17.2082C405.42 16.7002 406.008 16.4642 406.516 16.6802C407.024 16.8962 407.26 17.4842 407.044 17.9922L403.92 25.3522C403.76 25.7322 403.388 25.9602 403 25.9602Z" fill="#231F20"/>
<path d="M409.213 27.34C409.081 27.34 408.949 27.316 408.821 27.26C408.313 27.044 408.077 26.456 408.293 25.948L411.417 18.588C411.633 18.08 412.221 17.844 412.729 18.06C413.237 18.276 413.473 18.864 413.257 19.372L410.133 26.732C409.973 27.112 409.601 27.34 409.213 27.34Z" fill="#231F20"/>
<path d="M415.426 28.7204C415.294 28.7204 415.162 28.6964 415.034 28.6404C414.526 28.4244 414.29 27.8364 414.506 27.3284L417.63 19.9684C417.846 19.4604 418.434 19.2244 418.942 19.4404C419.45 19.6564 419.686 20.2444 419.47 20.7524L416.346 28.1124C416.186 28.4924 415.814 28.7204 415.426 28.7204Z" fill="#231F20"/>
<path d="M395.993 36.9767C400.292 36.9767 403.777 34.9047 403.777 32.3487C403.777 29.7927 400.292 27.7207 395.993 27.7207C391.694 27.7207 388.209 29.7927 388.209 32.3487C388.209 34.9047 391.694 36.9767 395.993 36.9767Z" fill="white"/>
<path d="M395.993 37.9767C391.069 37.9767 387.209 35.5047 387.209 32.3487C387.209 29.1927 391.065 26.7207 395.993 26.7207C400.921 26.7207 404.777 29.1927 404.777 32.3487C404.777 35.5047 400.921 37.9767 395.993 37.9767ZM395.993 28.7207C391.937 28.7207 389.209 30.5967 389.209 32.3487C389.209 34.1007 391.933 35.9767 395.993 35.9767C400.053 35.9767 402.777 34.1007 402.777 32.3487C402.777 30.5967 400.053 28.7207 395.993 28.7207Z" fill="#231F20"/>
<path d="M404.565 39.028C408.864 39.028 412.349 36.9559 412.349 34.4C412.349 31.844 408.864 29.772 404.565 29.772C400.266 29.772 396.781 31.844 396.781 34.4C396.781 36.9559 400.266 39.028 404.565 39.028Z" fill="white"/>
<path d="M404.565 40.028C399.641 40.028 395.781 37.556 395.781 34.4C395.781 31.244 399.637 28.772 404.565 28.772C409.493 28.772 413.349 31.244 413.349 34.4C413.349 37.556 409.493 40.028 404.565 40.028ZM404.565 30.772C400.509 30.772 397.781 32.648 397.781 34.4C397.781 36.152 400.505 38.028 404.565 38.028C408.625 38.028 411.349 36.152 411.349 34.4C411.349 32.648 408.625 30.772 404.565 30.772Z" fill="#231F20"/>
<path d="M165.509 47.4204C155.113 47.4204 145.321 46.0564 137.945 43.5764C130.229 40.9844 125.977 37.3924 125.977 33.4724C125.977 29.7964 129.565 26.4964 136.357 23.9324C136.873 23.7364 137.449 23.9964 137.645 24.5164C137.841 25.0324 137.581 25.6084 137.061 25.8044C131.285 27.9844 127.973 30.7804 127.973 33.4724C127.973 39.2444 143.053 45.4244 165.505 45.4244C187.957 45.4244 203.037 39.2444 203.037 33.4724C203.037 30.2124 198.265 26.8924 190.273 24.5924C189.741 24.4404 189.437 23.8844 189.589 23.3564C189.741 22.8244 190.297 22.5204 190.825 22.6724C199.989 25.3084 205.037 29.1444 205.037 33.4764C205.037 37.4004 200.789 40.9884 193.069 43.5804C185.693 46.0604 175.901 47.4244 165.505 47.4244L165.509 47.4204Z" fill="#231F20"/>
<path d="M148.212 37.7044C142.86 37.7044 138.992 35.3484 137.192 30.9324C136.98 30.4804 135.124 26.2884 137.132 22.2724C138.7 19.1364 142.144 17.0364 147.364 16.0364C151.824 15.1804 156.6 15.4244 161.176 16.7484C164.788 17.7884 171.144 19.4844 176.464 20.1724C177.164 20.2124 177.812 20.2764 178.408 20.3684C178.588 20.3844 178.756 20.4044 178.912 20.4164C179.04 20.4284 179.16 20.4644 179.268 20.5204C184.968 21.6964 185.676 25.1964 185.748 26.3644C185.948 29.6324 183.26 32.6964 179.624 33.3444C177.816 33.6644 170.324 33.3844 167.78 33.2204C167.748 33.2204 161.268 33.0484 156.824 35.4524C154.644 36.6324 152.488 37.3484 150.416 37.5724C149.656 37.6564 148.92 37.6964 148.212 37.6964V37.7044ZM152.704 17.5404C151.024 17.5404 149.36 17.6964 147.744 18.0044C143.176 18.8804 140.212 20.6164 138.928 23.1564C137.28 26.4244 138.988 30.0604 139.008 30.0964C139.016 30.1164 139.028 30.1364 139.036 30.1564C141.172 35.4284 146.284 36.0244 150.2 35.5924C152.016 35.3924 153.924 34.7564 155.876 33.7004C160.8 31.0324 167.592 31.2204 167.88 31.2284C171.072 31.4324 177.884 31.6284 179.276 31.3804C181.884 30.9164 183.892 28.7244 183.756 26.4924C183.628 24.4124 181.624 22.9324 178.284 22.3804C172.784 21.9364 165.684 20.1324 160.628 18.6724C158.016 17.9204 155.34 17.5404 152.708 17.5404H152.704Z" fill="#231F20"/>
<path d="M149.177 31.6642C147.185 31.6642 145.429 31.3402 143.913 30.6922C140.773 29.3522 139.905 27.0602 139.869 26.9642C139.681 26.4442 139.945 25.8722 140.465 25.6802C140.981 25.4922 141.553 25.7522 141.745 26.2682C141.781 26.3562 142.429 27.9202 144.789 28.8922C147.505 30.0162 152.801 30.4522 162.613 26.1562C163.117 25.9362 163.709 26.1642 163.929 26.6722C164.149 27.1762 163.921 27.7682 163.413 27.9882C157.817 30.4362 153.053 31.6642 149.177 31.6642Z" fill="#231F20"/>
<path d="M286.44 57.6967C276.044 57.6967 266.252 56.3327 258.876 53.8527C251.16 51.2607 246.908 47.6687 246.908 43.7487C246.908 40.0727 250.496 36.7727 257.288 34.2087C257.804 34.0127 258.38 34.2727 258.576 34.7927C258.772 35.3087 258.512 35.8847 257.992 36.0807C252.216 38.2607 248.904 41.0567 248.904 43.7487C248.904 49.5207 263.984 55.7007 286.436 55.7007C308.888 55.7007 323.968 49.5207 323.968 43.7487C323.968 40.8207 320.16 37.8487 313.516 35.5887C312.992 35.4127 312.712 34.8447 312.892 34.3207C313.068 33.7967 313.636 33.5167 314.16 33.6967C321.776 36.2847 325.968 39.8567 325.968 43.7487C325.968 47.6407 321.72 51.2607 314 53.8527C306.624 56.3327 296.832 57.6967 286.436 57.6967H286.44Z" fill="#231F20"/>
<path d="M256.211 43.5203C255.671 43.5203 255.227 43.0923 255.211 42.5483C255.211 42.4003 255.019 27.6763 272.179 25.2123C272.727 25.1323 273.231 25.5123 273.311 26.0603C273.391 26.6083 273.011 27.1123 272.463 27.1923C257.099 29.3963 257.199 41.9643 257.211 42.5003C257.223 43.0523 256.787 43.5083 256.235 43.5243C256.227 43.5243 256.219 43.5243 256.211 43.5243V43.5203Z" fill="#231F20"/>
<path d="M260.337 45.8885C259.801 45.8885 259.353 45.4605 259.337 44.9205C259.333 44.7645 259.053 29.3405 276.541 27.8085C277.089 27.7605 277.577 28.1685 277.625 28.7165C277.673 29.2685 277.265 29.7525 276.717 29.8005C270.137 30.3765 265.553 33.0885 263.093 37.8565C261.253 41.4245 261.337 44.8245 261.337 44.8605C261.353 45.4125 260.921 45.8725 260.369 45.8925C260.357 45.8925 260.349 45.8925 260.337 45.8925V45.8885Z" fill="#231F20"/>
<path d="M264.456 48.2521C263.948 48.2521 263.512 47.8641 263.464 47.3481C263.448 47.1921 263.124 43.5241 265.132 39.5521C266.972 35.9041 271.196 31.3081 280.86 30.1361C281.408 30.0681 281.908 30.4601 281.972 31.0081C282.04 31.5561 281.648 32.0561 281.1 32.1201C264.472 34.1401 265.408 46.6241 265.456 47.1561C265.504 47.7041 265.1 48.1921 264.552 48.2441C264.52 48.2441 264.488 48.2481 264.456 48.2481V48.2521Z" fill="#231F20"/>
<path d="M268.575 50.6166C268.115 50.6166 267.703 50.3006 267.599 49.8326C267.551 49.6206 266.487 44.5726 269.947 39.6606C273.127 35.1406 278.979 32.3086 287.339 31.2446C287.887 31.1766 288.387 31.5606 288.459 32.1086C288.527 32.6566 288.143 33.1566 287.595 33.2286C279.839 34.2166 274.459 36.7566 271.611 40.7766C268.651 44.9526 269.551 49.3566 269.559 49.4006C269.675 49.9406 269.331 50.4726 268.795 50.5886C268.723 50.6046 268.651 50.6126 268.579 50.6126L268.575 50.6166Z" fill="#231F20"/>
<path d="M287.079 50.8523C275.055 50.8523 268.919 44.9523 268.599 44.6363C268.207 44.2483 268.203 43.6163 268.591 43.2203C268.979 42.8283 269.611 42.8243 270.003 43.2123C270.131 43.3363 279.455 52.1643 297.499 47.4243C298.031 47.2843 298.579 47.6043 298.719 48.1363C298.859 48.6723 298.539 49.2163 298.007 49.3563C293.943 50.4243 290.295 50.8483 287.075 50.8483L287.079 50.8523Z" fill="#231F20"/>
<path d="M288.188 46.3763C278.656 46.3763 272.544 42.8963 270.856 41.2883C270.456 40.9083 270.44 40.2763 270.82 39.8763C271.2 39.4763 271.832 39.4603 272.232 39.8403C273.844 41.3723 282.764 46.4763 296.92 43.4083C297.46 43.2923 297.992 43.6323 298.108 44.1723C298.224 44.7123 297.884 45.2443 297.344 45.3603C294.02 46.0803 290.96 46.3763 288.188 46.3763Z" fill="#231F20"/>
<path d="M288.564 42.2324C281.268 42.2324 275.976 39.9684 273.652 38.2724C273.204 37.9484 273.108 37.3204 273.432 36.8764C273.756 36.4284 274.384 36.3324 274.828 36.6564C277.4 38.5284 284.976 41.5524 295.26 39.5804C295.804 39.4764 296.328 39.8324 296.432 40.3724C296.536 40.9164 296.18 41.4404 295.64 41.5444C293.12 42.0284 290.752 42.2324 288.564 42.2324Z" fill="#231F20"/>
<path d="M288.009 38.1123C283.825 38.1123 280.925 37.0443 278.473 35.9723C277.965 35.7523 277.737 35.1603 277.957 34.6563C278.177 34.1483 278.769 33.9203 279.273 34.1403C282.481 35.5403 286.165 36.8123 292.705 35.6803C293.249 35.5843 293.765 35.9523 293.861 36.4963C293.957 37.0403 293.589 37.5563 293.045 37.6523C291.177 37.9763 289.509 38.1123 288.009 38.1123Z" fill="#231F20"/>
<path d="M298.828 51.2925C298.288 51.2925 297.844 50.8605 297.828 50.3165C297.412 34.0925 278.816 29.3005 278.628 29.2525C278.092 29.1205 277.764 28.5765 277.896 28.0405C278.028 27.5045 278.572 27.1765 279.108 27.3085C279.316 27.3605 284.22 28.6005 289.244 32.0165C295.98 36.5965 299.64 42.9045 299.828 50.2605C299.844 50.8125 299.408 51.2725 298.852 51.2845C298.844 51.2845 298.836 51.2845 298.824 51.2845L298.828 51.2925Z" fill="#231F20"/>
<path d="M303.264 49.3925C302.732 49.3925 302.292 48.9765 302.264 48.4405C301.504 32.1245 282.972 27.6605 282.784 27.6165C282.244 27.4925 281.912 26.9565 282.036 26.4165C282.16 25.8765 282.696 25.5445 283.236 25.6685C283.44 25.7165 288.332 26.8685 293.388 30.2125C300.16 34.6885 303.92 40.9605 304.264 48.3485C304.288 48.9005 303.864 49.3685 303.312 49.3925C303.296 49.3925 303.28 49.3925 303.264 49.3925Z" fill="#231F20"/>
<path d="M307.412 47.9883H307.404C306.852 47.9883 306.408 47.5323 306.412 46.9803C306.492 35.0643 294.844 29.3763 289.872 26.9483L289.808 26.9163C289.312 26.6723 289.104 26.0763 289.348 25.5803C289.592 25.0843 290.188 24.8763 290.684 25.1203L290.748 25.1523C296.06 27.7443 308.504 33.8203 308.412 46.9923C308.412 47.5403 307.96 47.9843 307.412 47.9843V47.9883Z" fill="#231F20"/>
<path d="M311.473 46.3005C310.921 46.3005 310.473 45.8525 310.473 45.3005C310.473 34.9845 301.969 29.6925 297.469 28.3365C296.941 28.1765 296.641 27.6205 296.801 27.0885C296.961 26.5605 297.517 26.2605 298.049 26.4205C304.997 28.5165 312.473 35.3165 312.473 45.2965C312.473 45.8485 312.025 46.2965 311.473 46.2965V46.3005Z" fill="#231F20"/>
<path d="M315.751 44.9242C315.199 44.9242 314.751 44.4762 314.751 43.9242C314.751 34.3082 306.163 27.0922 300.247 26.3482C299.699 26.2802 299.311 25.7802 299.379 25.2322C299.447 24.6842 299.947 24.2962 300.495 24.3642C304.139 24.8242 308.187 27.1562 311.319 30.6002C314.819 34.4562 316.751 39.1882 316.751 43.9202C316.751 44.4722 316.303 44.9202 315.751 44.9202V44.9242Z" fill="#231F20"/>
<path d="M276.536 29.6247C278.862 29.6247 280.748 27.7389 280.748 25.4127C280.748 23.0865 278.862 21.2007 276.536 21.2007C274.21 21.2007 272.324 23.0865 272.324 25.4127C272.324 27.7389 274.21 29.6247 276.536 29.6247Z" fill="white"/>
<path d="M276.536 30.6286C273.66 30.6286 271.324 28.2886 271.324 25.4166C271.324 22.5446 273.664 20.2046 276.536 20.2046C279.408 20.2046 281.748 22.5446 281.748 25.4166C281.748 28.2886 279.408 30.6286 276.536 30.6286ZM276.536 22.2006C274.764 22.2006 273.324 23.6406 273.324 25.4126C273.324 27.1846 274.764 28.6246 276.536 28.6246C278.308 28.6246 279.748 27.1846 279.748 25.4126C279.748 23.6406 278.308 22.2006 276.536 22.2006Z" fill="#231F20"/>
<path d="M290.249 27.3366C292.575 27.3366 294.461 25.4508 294.461 23.1246C294.461 20.7984 292.575 18.9126 290.249 18.9126C287.923 18.9126 286.037 20.7984 286.037 23.1246C286.037 25.4508 287.923 27.3366 290.249 27.3366Z" fill="white"/>
<path d="M290.249 28.3405C287.373 28.3405 285.037 26.0005 285.037 23.1285C285.037 20.2565 287.377 17.9165 290.249 17.9165C293.121 17.9165 295.461 20.2565 295.461 23.1285C295.461 26.0005 293.121 28.3405 290.249 28.3405ZM290.249 19.9125C288.477 19.9125 287.037 21.3525 287.037 23.1245C287.037 24.8965 288.477 26.3365 290.249 26.3365C292.021 26.3365 293.461 24.8965 293.461 23.1245C293.461 21.3525 292.021 19.9125 290.249 19.9125Z" fill="#231F20"/>
<path d="M297.144 30.32C299.47 30.32 301.356 28.4342 301.356 26.108C301.356 23.7818 299.47 21.896 297.144 21.896C294.817 21.896 292.932 23.7818 292.932 26.108C292.932 28.4342 294.817 30.32 297.144 30.32Z" fill="white"/>
<path d="M297.144 31.3239C294.268 31.3239 291.932 28.9839 291.932 26.1119C291.932 23.2399 294.272 20.8999 297.144 20.8999C300.016 20.8999 302.356 23.2399 302.356 26.1119C302.356 28.9839 300.016 31.3239 297.144 31.3239ZM297.144 22.8959C295.372 22.8959 293.932 24.3359 293.932 26.1079C293.932 27.8799 295.372 29.3199 297.144 29.3199C298.916 29.3199 300.356 27.8799 300.356 26.1079C300.356 24.3359 298.916 22.8959 297.144 22.8959Z" fill="#231F20"/>
<path d="M282.608 32.0763C284.935 32.0763 286.82 30.1906 286.82 27.8643C286.82 25.5381 284.935 23.6523 282.608 23.6523C280.282 23.6523 278.396 25.5381 278.396 27.8643C278.396 30.1906 280.282 32.0763 282.608 32.0763Z" fill="white"/>
<path d="M282.608 33.0802C279.732 33.0802 277.396 30.7402 277.396 27.8682C277.396 24.9962 279.736 22.6562 282.608 22.6562C285.48 22.6562 287.82 24.9962 287.82 27.8682C287.82 30.7402 285.48 33.0802 282.608 33.0802ZM282.608 24.6523C280.836 24.6523 279.396 26.0923 279.396 27.8643C279.396 29.6363 280.836 31.0763 282.608 31.0763C284.38 31.0763 285.82 29.6363 285.82 27.8643C285.82 26.0923 284.38 24.6523 282.608 24.6523Z" fill="#231F20"/>
<path d="M175.856 39.36C180.155 39.36 183.64 37.288 183.64 34.732C183.64 32.176 180.155 30.104 175.856 30.104C171.557 30.104 168.072 32.176 168.072 34.732C168.072 37.288 171.557 39.36 175.856 39.36Z" fill="white"/>
<path d="M175.856 40.36C170.932 40.36 167.072 37.888 167.072 34.732C167.072 31.576 170.928 29.104 175.856 29.104C180.784 29.104 184.64 31.576 184.64 34.732C184.64 37.888 180.784 40.36 175.856 40.36ZM175.856 31.1C171.8 31.1 169.072 32.976 169.072 34.728C169.072 36.48 171.796 38.356 175.856 38.356C179.916 38.356 182.64 36.48 182.64 34.728C182.64 32.976 179.916 31.1 175.856 31.1Z" fill="#231F20"/>
<path d="M185.665 36.7799C189.964 36.7799 193.449 34.7079 193.449 32.1519C193.449 29.596 189.964 27.5239 185.665 27.5239C181.366 27.5239 177.881 29.596 177.881 32.1519C177.881 34.7079 181.366 36.7799 185.665 36.7799Z" fill="white"/>
<path d="M185.665 37.7799C180.741 37.7799 176.881 35.3079 176.881 32.1519C176.881 28.9959 180.737 26.5239 185.665 26.5239C190.593 26.5239 194.449 28.9959 194.449 32.1519C194.449 35.3079 190.593 37.7799 185.665 37.7799ZM185.665 28.5239C181.609 28.5239 178.881 30.3999 178.881 32.1519C178.881 33.9039 181.605 35.7799 185.665 35.7799C189.725 35.7799 192.449 33.9039 192.449 32.1519C192.449 30.3999 189.725 28.5239 185.665 28.5239Z" fill="#231F20"/>
<path d="M716 53.4283C715.448 53.4283 715 52.9803 715 52.4283V39.5283C715 38.9763 715.448 38.5283 716 38.5283C716.552 38.5283 717 38.9763 717 39.5283V52.4283C717 52.9803 716.552 53.4283 716 53.4283Z" fill="#231F20"/>
</g>
<defs>
<clipPath id="clip0_1943_88722">
<rect width="720" height="170" fill="white"/>
</clipPath>
</defs>
</svg>
