<svg width="720" height="170" viewBox="0 0 720 170" fill="none" xmlns="http://www.w3.org/2000/svg">
<g clip-path="url(#clip0_1943_88723)">
<path d="M360 0.431641C163.388 0.431641 4 17.9276 4 39.5116V52.4116C4 57.8476 14.112 63.0236 32.38 67.7276H32.36L33.84 168.176H42.716L44.156 70.4596L44.092 70.4436C103.46 82.9516 222.64 91.4916 360 91.4916C497.36 91.4916 616.54 82.9516 675.908 70.4436L675.844 70.4596L677.284 168.176H686.16L687.64 67.7236H687.62C705.888 63.0236 716 57.8476 716 52.4116V39.5116C716 17.9276 556.612 0.431641 360 0.431641Z" fill="white"/>
<path d="M360 79.4398C264.872 79.4398 175.436 75.3718 108.16 67.9878C75.416 64.3918 49.7 60.2038 31.724 55.5398C12.396 50.5198 3 45.2278 3 39.3598C3 33.4918 12.396 28.1958 31.724 23.1798C49.7 18.5158 75.416 14.3278 108.16 10.7318C175.436 3.34379 264.872 -0.720215 360 -0.720215C455.128 -0.720215 544.564 3.34779 611.84 10.7318C644.58 14.3278 670.3 18.5158 688.276 23.1798C707.604 28.1958 717 33.4878 717 39.3598C717 45.2318 707.604 50.5238 688.276 55.5398C670.3 60.2038 644.584 64.3918 611.84 67.9878C544.564 75.3718 455.128 79.4398 360 79.4398ZM360 1.27979C264.944 1.27979 175.584 5.34378 108.38 12.7198C75.732 16.3038 50.112 20.4758 32.228 25.1158C8.536 31.2638 5 36.6798 5 39.3598C5 42.0398 8.536 47.4558 32.228 53.6038C50.112 58.2438 75.732 62.4158 108.38 65.9998C175.584 73.3758 264.944 77.4398 360 77.4398C455.056 77.4398 544.416 73.3758 611.62 65.9998C644.268 62.4158 669.888 58.2438 687.772 53.6038C711.464 47.4558 715 42.0398 715 39.3598C715 36.6798 711.464 31.2638 687.772 25.1158C669.888 20.4758 644.268 16.3038 611.62 12.7198C544.416 5.33978 455.056 1.27979 360 1.27979Z" fill="#231F20"/>
<path d="M360 92.3398C264.872 92.3398 175.436 88.2718 108.16 80.8878C75.416 77.2918 49.7 73.1038 31.724 68.4398C12.396 63.4238 3 58.1318 3 52.2598C3 51.7078 3.448 51.2598 4 51.2598C4.552 51.2598 5 51.7078 5 52.2598C5 54.9398 8.536 60.3558 32.228 66.5038C50.112 71.1438 75.732 75.3158 108.38 78.8998C175.584 86.2758 264.944 90.3398 360 90.3398C455.056 90.3398 544.416 86.2758 611.62 78.8998C644.268 75.3158 669.888 71.1438 687.772 66.5038C711.464 60.3558 715 54.9398 715 52.2598C715 51.7078 715.448 51.2598 716 51.2598C716.552 51.2598 717 51.7078 717 52.2598C717 58.1318 707.604 63.4238 688.276 68.4398C670.3 73.1038 644.584 77.2918 611.84 80.8878C544.564 88.2718 455.128 92.3398 360 92.3398Z" fill="#231F20"/>
<path d="M4 53.2599C3.448 53.2599 3 52.8119 3 52.2599V39.3599C3 38.8079 3.448 38.3599 4 38.3599C4.552 38.3599 5 38.8079 5 39.3599V52.2599C5 52.8119 4.552 53.2599 4 53.2599Z" fill="#231F20"/>
<path d="M42.7155 169.024H33.8395C33.2915 169.024 32.8475 168.584 32.8395 168.04L31.3595 67.5883C31.3515 67.0363 31.7915 66.5803 32.3435 66.5723H32.3595C32.9035 66.5723 33.3515 67.0083 33.3595 67.5563L34.8275 167.024H41.7315L43.1595 70.2963C43.1675 69.7443 43.6155 69.3043 44.1755 69.3123C44.7275 69.3203 45.1675 69.7763 45.1595 70.3283L43.7195 168.044C43.7115 168.592 43.2675 169.028 42.7195 169.028L42.7155 169.024Z" fill="#231F20"/>
<path d="M686.16 169.024H677.284C676.736 169.024 676.292 168.584 676.284 168.04L674.844 70.324C674.836 69.772 675.276 69.316 675.828 69.308C676.388 69.292 676.836 69.74 676.844 70.292L678.272 167.02H685.176L686.644 67.552C686.652 67 687.108 66.548 687.66 66.568C688.212 66.576 688.652 67.032 688.644 67.584L687.164 168.036C687.156 168.584 686.712 169.02 686.164 169.02L686.16 169.024Z" fill="#231F20"/>
<path d="M290.36 60.4642C272.484 60.4642 253.996 55.7002 253.996 47.7322C253.996 43.3562 259.764 39.5002 269.816 37.1562C270.352 37.0322 270.892 37.3642 271.016 37.9042C271.14 38.4402 270.808 38.9802 270.268 39.1042C261.464 41.1562 255.992 44.4642 255.992 47.7362C255.992 52.9202 269.8 58.4682 290.356 58.4682C310.912 58.4682 324.72 52.9202 324.72 47.7362C324.72 44.4522 319.22 41.1402 310.364 39.0882C309.828 38.9642 309.492 38.4242 309.616 37.8882C309.74 37.3482 310.276 37.0162 310.816 37.1402C320.924 39.4842 326.72 43.3482 326.72 47.7402C326.72 55.7082 308.232 60.4722 290.356 60.4722L290.36 60.4642Z" fill="#231F20"/>
<path d="M290.36 23.444C281.756 23.444 272.496 21.744 272.496 18.016C272.496 14.288 281.756 12.584 290.36 12.584C298.964 12.584 308.224 14.284 308.224 18.016C308.224 21.748 298.964 23.444 290.36 23.444ZM290.36 14.584C279.892 14.584 274.496 16.988 274.496 18.016C274.496 19.044 279.892 21.444 290.36 21.444C300.828 21.444 306.224 19.04 306.224 18.016C306.224 16.992 300.828 14.584 290.36 14.584Z" fill="#231F20"/>
<path d="M294.849 52.8004C293.829 52.8004 292.941 52.1484 292.085 51.5204C291.485 51.0764 290.801 50.5764 290.361 50.5764C289.921 50.5764 289.241 51.0764 288.637 51.5204C287.725 52.1884 286.785 52.8804 285.685 52.7964C284.485 52.7004 283.585 51.7804 282.793 50.9644C282.337 50.4964 281.765 49.9124 281.421 49.8524C280.933 49.7684 280.141 50.1444 279.445 50.4724C278.433 50.9484 277.389 51.4444 276.357 51.1284C275.013 50.7164 274.329 49.4004 273.777 48.3444C273.533 47.8724 273.197 47.2284 272.973 47.0924C272.441 46.7684 271.717 46.5324 271.017 46.3044C269.629 45.8484 268.053 45.3364 268.053 43.8364C268.053 43.2844 268.501 42.8364 269.053 42.8364C269.577 42.8364 270.005 43.2404 270.049 43.7524C270.273 43.9564 271.089 44.2244 271.637 44.4044C272.405 44.6564 273.277 44.9404 274.009 45.3844C274.713 45.8124 275.121 46.5924 275.549 47.4244C275.945 48.1884 276.397 49.0524 276.941 49.2204C277.229 49.3084 278.013 48.9404 278.589 48.6684C279.557 48.2124 280.653 47.6964 281.761 47.8884C282.745 48.0564 283.497 48.8284 284.225 49.5764C284.773 50.1364 285.393 50.7724 285.841 50.8084C286.201 50.8404 286.893 50.3284 287.453 49.9164C288.301 49.2924 289.265 48.5844 290.361 48.5844C291.457 48.5844 292.421 49.2924 293.269 49.9164C293.825 50.3244 294.525 50.8404 294.881 50.8084C295.333 50.7724 295.949 50.1364 296.497 49.5764C297.225 48.8284 297.977 48.0564 298.961 47.8884C300.069 47.6964 301.165 48.2164 302.133 48.6724C302.705 48.9444 303.489 49.3124 303.781 49.2244C304.325 49.0564 304.777 48.1924 305.173 47.4284C305.605 46.6004 306.013 45.8164 306.713 45.3884C307.445 44.9444 308.317 44.6604 309.085 44.4084C309.637 44.2284 310.453 43.9604 310.677 43.7564C310.721 43.2444 311.149 42.8404 311.673 42.8404C312.225 42.8404 312.673 43.2884 312.673 43.8404C312.673 45.3404 311.097 45.8524 309.705 46.3084C309.005 46.5364 308.285 46.7724 307.749 47.0964C307.525 47.2324 307.189 47.8764 306.945 48.3484C306.397 49.4044 305.713 50.7204 304.365 51.1324C303.337 51.4484 302.289 50.9564 301.277 50.4764C300.577 50.1444 299.785 49.7724 299.301 49.8564C298.957 49.9164 298.389 50.5004 297.929 50.9684C297.137 51.7804 296.237 52.7044 295.037 52.8004C294.973 52.8044 294.909 52.8084 294.849 52.8084V52.8004Z" fill="#231F20"/>
<path d="M294.157 34.1845C293.193 34.1845 292.381 33.4685 291.657 32.8365C291.273 32.5005 290.629 31.9325 290.361 31.9325C290.093 31.9325 289.449 32.4965 289.065 32.8365C288.305 33.5045 287.445 34.2605 286.413 34.1805C285.297 34.0925 284.533 33.1565 283.861 32.3325C283.569 31.9765 283.085 31.3805 282.869 31.3245C282.557 31.2725 281.817 31.7045 281.329 31.9885C280.421 32.5165 279.485 33.0645 278.517 32.7645C277.285 32.3845 276.757 31.1125 276.329 30.0885C276.169 29.7045 275.933 29.1285 275.785 29.0045C275.357 28.7485 274.677 28.5725 274.017 28.4045C272.805 28.0925 271.301 27.7085 271.301 26.3125C271.301 25.7605 271.749 25.3125 272.301 25.3125C272.773 25.3125 273.173 25.6405 273.273 26.0845C273.521 26.2165 274.109 26.3645 274.513 26.4685C275.277 26.6645 276.141 26.8845 276.837 27.3085C277.513 27.7165 277.833 28.5005 278.177 29.3285C278.413 29.8965 278.769 30.7565 279.101 30.8605C279.297 30.8605 279.933 30.4925 280.321 30.2685C281.193 29.7605 282.181 29.1845 283.213 29.3645C284.141 29.5245 284.785 30.3125 285.409 31.0765C285.721 31.4605 286.309 32.1765 286.573 32.1965C286.793 32.1805 287.413 31.6365 287.749 31.3445C288.497 30.6885 289.345 29.9445 290.365 29.9445C291.385 29.9445 292.237 30.6885 292.981 31.3445C293.313 31.6365 293.933 32.1805 294.161 32.1965C294.417 32.1765 295.001 31.4605 295.317 31.0765C295.941 30.3125 296.585 29.5245 297.513 29.3645C298.545 29.1885 299.533 29.7645 300.405 30.2685C300.789 30.4925 301.425 30.8525 301.653 30.8565C301.957 30.7605 302.317 29.9005 302.553 29.3325C302.897 28.5045 303.221 27.7245 303.893 27.3125C304.589 26.8925 305.453 26.6685 306.217 26.4725C306.621 26.3685 307.209 26.2165 307.457 26.0885C307.561 25.6485 307.957 25.3165 308.429 25.3165C308.981 25.3165 309.429 25.7645 309.429 26.3165C309.429 27.7125 307.921 28.1005 306.709 28.4085C306.049 28.5765 305.369 28.7525 304.929 29.0205C304.797 29.1365 304.557 29.7125 304.397 30.0965C303.973 31.1205 303.445 32.3965 302.209 32.7725C301.241 33.0685 300.305 32.5245 299.397 31.9965C298.905 31.7125 298.165 31.2765 297.853 31.3325C297.641 31.3885 297.153 31.9845 296.865 32.3405C296.193 33.1645 295.429 34.1005 294.313 34.1885C294.261 34.1925 294.209 34.1965 294.161 34.1965L294.157 34.1845Z" fill="#231F20"/>
<path d="M311.549 44.8323C311.069 44.8323 310.645 44.4843 310.565 43.9963L306.241 18.1803C306.149 17.6363 306.517 17.1203 307.061 17.0283C307.605 16.9363 308.121 17.3043 308.213 17.8483L312.537 43.6643C312.629 44.2083 312.261 44.7243 311.717 44.8163C311.661 44.8243 311.605 44.8283 311.549 44.8283V44.8323Z" fill="#231F20"/>
<path d="M269.172 44.8322C269.116 44.8322 269.06 44.8282 269.004 44.8202C268.46 44.7282 268.092 44.2122 268.184 43.6682L272.508 17.8522C272.6 17.3082 273.116 16.9402 273.66 17.0322C274.204 17.1242 274.572 17.6402 274.48 18.1842L270.156 44.0002C270.076 44.4882 269.652 44.8362 269.172 44.8362V44.8322Z" fill="#231F20"/>
<path d="M292.803 17.9282C295.202 17.9282 297.147 15.9834 297.147 13.5842C297.147 11.1851 295.202 9.24023 292.803 9.24023C290.404 9.24023 288.459 11.1851 288.459 13.5842C288.459 15.9834 290.404 17.9282 292.803 17.9282Z" fill="white"/>
<path d="M292.803 18.9282C289.855 18.9282 287.459 16.5322 287.459 13.5842C287.459 10.6362 289.855 8.24023 292.803 8.24023C295.751 8.24023 298.147 10.6362 298.147 13.5842C298.147 16.5322 295.751 18.9282 292.803 18.9282ZM292.803 10.2402C290.959 10.2402 289.459 11.7402 289.459 13.5842C289.459 15.4282 290.959 16.9282 292.803 16.9282C294.647 16.9282 296.147 15.4282 296.147 13.5842C296.147 11.7402 294.647 10.2402 292.803 10.2402Z" fill="#231F20"/>
<path d="M293.328 12.9123C292.8 12.9123 292.36 12.5003 292.332 11.9683C292.236 10.1763 293.004 6.52028 296.612 5.50828C297.144 5.36028 297.696 5.66828 297.844 6.20028C297.992 6.73228 297.684 7.28428 297.152 7.43228C294.196 8.26428 294.324 11.7163 294.328 11.8643C294.352 12.4163 293.928 12.8843 293.38 12.9123C293.364 12.9123 293.344 12.9123 293.328 12.9123Z" fill="#231F20"/>
<path d="M174.032 44.8281C163.636 44.8281 153.844 43.4641 146.468 40.9841C138.752 38.3921 134.5 34.8001 134.5 30.8801C134.5 26.9601 138.748 23.3681 146.468 20.7761C153.844 18.2961 163.636 16.9321 174.032 16.9321C184.428 16.9321 194.22 18.2961 201.596 20.7761C209.312 23.3681 213.564 26.9601 213.564 30.8801C213.564 34.8001 209.316 38.3921 201.596 40.9841C194.22 43.4641 184.428 44.8281 174.032 44.8281ZM174.032 18.9281C151.58 18.9281 136.5 25.1081 136.5 30.8801C136.5 36.6521 151.58 42.8321 174.032 42.8321C196.484 42.8321 211.564 36.6521 211.564 30.8801C211.564 25.1081 196.484 18.9281 174.032 18.9281Z" fill="#231F20"/>
<path d="M149.253 29.9122C152.222 29.9122 154.629 27.5052 154.629 24.5362C154.629 21.5671 152.222 19.1602 149.253 19.1602C146.284 19.1602 143.877 21.5671 143.877 24.5362C143.877 27.5052 146.284 29.9122 149.253 29.9122Z" fill="white"/>
<path d="M149.253 30.9122C145.737 30.9122 142.877 28.0522 142.877 24.5362C142.877 21.0202 145.737 18.1602 149.253 18.1602C152.769 18.1602 155.629 21.0202 155.629 24.5362C155.629 28.0522 152.769 30.9122 149.253 30.9122ZM149.253 20.1602C146.841 20.1602 144.877 22.1242 144.877 24.5362C144.877 26.9482 146.841 28.9122 149.253 28.9122C151.665 28.9122 153.629 26.9482 153.629 24.5362C153.629 22.1242 151.665 20.1602 149.253 20.1602Z" fill="#231F20"/>
<path d="M157.868 25.7242C160.837 25.7242 163.244 23.3173 163.244 20.3482C163.244 17.3791 160.837 14.9722 157.868 14.9722C154.899 14.9722 152.492 17.3791 152.492 20.3482C152.492 23.3173 154.899 25.7242 157.868 25.7242Z" fill="white"/>
<path d="M157.868 26.7242C154.352 26.7242 151.492 23.8642 151.492 20.3482C151.492 16.8322 154.352 13.9722 157.868 13.9722C161.384 13.9722 164.244 16.8322 164.244 20.3482C164.244 23.8642 161.384 26.7242 157.868 26.7242ZM157.868 15.9722C155.456 15.9722 153.492 17.9362 153.492 20.3482C153.492 22.7602 155.456 24.7242 157.868 24.7242C160.28 24.7242 162.244 22.7602 162.244 20.3482C162.244 17.9362 160.28 15.9722 157.868 15.9722Z" fill="#231F20"/>
<path d="M165.589 29.9122C168.558 29.9122 170.965 27.5052 170.965 24.5362C170.965 21.5671 168.558 19.1602 165.589 19.1602C162.62 19.1602 160.213 21.5671 160.213 24.5362C160.213 27.5052 162.62 29.9122 165.589 29.9122Z" fill="white"/>
<path d="M165.589 30.9122C162.073 30.9122 159.213 28.0522 159.213 24.5362C159.213 21.0202 162.073 18.1602 165.589 18.1602C169.105 18.1602 171.965 21.0202 171.965 24.5362C171.965 28.0522 169.105 30.9122 165.589 30.9122ZM165.589 20.1602C163.177 20.1602 161.213 22.1242 161.213 24.5362C161.213 26.9482 163.177 28.9122 165.589 28.9122C168.001 28.9122 169.965 26.9482 169.965 24.5362C169.965 22.1242 168.001 20.1602 165.589 20.1602Z" fill="#231F20"/>
<path d="M157.105 35.2886C160.074 35.2886 162.481 32.8817 162.481 29.9126C162.481 26.9435 160.074 24.5366 157.105 24.5366C154.135 24.5366 151.729 26.9435 151.729 29.9126C151.729 32.8817 154.135 35.2886 157.105 35.2886Z" fill="white"/>
<path d="M157.105 36.2886C153.589 36.2886 150.729 33.4286 150.729 29.9126C150.729 26.3966 153.589 23.5366 157.105 23.5366C160.621 23.5366 163.481 26.3966 163.481 29.9126C163.481 33.4286 160.621 36.2886 157.105 36.2886ZM157.105 25.5366C154.693 25.5366 152.729 27.5006 152.729 29.9126C152.729 32.3246 154.693 34.2886 157.105 34.2886C159.517 34.2886 161.481 32.3246 161.481 29.9126C161.481 27.5006 159.517 25.5366 157.105 25.5366Z" fill="#231F20"/>
<path d="M160.213 30.6602L183.233 20.3442C183.233 20.3442 186.145 30.1842 174.965 34.8162C174.965 34.8162 166.085 38.6242 160.213 30.6602Z" fill="white"/>
<path d="M169.989 36.7043C166.749 36.7043 162.641 35.6363 159.409 31.2563C159.229 31.0123 159.169 30.7003 159.245 30.4083C159.321 30.1163 159.529 29.8723 159.805 29.7483L182.825 19.4323C183.089 19.3123 183.389 19.3163 183.653 19.4323C183.917 19.5523 184.113 19.7803 184.193 20.0563C184.225 20.1643 187.221 30.8163 175.349 35.7363C175.309 35.7523 173.033 36.6963 169.989 36.6963V36.7043ZM161.805 31.0443C167.081 36.9723 174.253 34.0363 174.569 33.9003C182.689 30.5363 182.825 24.3403 182.489 21.7763L161.801 31.0443H161.805Z" fill="#231F20"/>
<path d="M168.584 32.0357L191.604 21.7197C191.604 21.7197 194.516 31.5597 183.336 36.1917C183.336 36.1917 174.456 39.9997 168.584 32.0357Z" fill="white"/>
<path d="M178.36 38.0797C175.12 38.0797 171.012 37.0117 167.78 32.6317C167.6 32.3877 167.54 32.0757 167.616 31.7837C167.692 31.4917 167.9 31.2477 168.176 31.1237L191.196 20.8077C191.46 20.6877 191.76 20.6917 192.024 20.8077C192.288 20.9277 192.484 21.1557 192.564 21.4317C192.596 21.5397 195.592 32.1917 183.72 37.1117C183.68 37.1277 181.404 38.0717 178.36 38.0717V38.0797ZM170.18 32.4197C175.496 38.3677 182.864 35.3117 182.944 35.2757C191.064 31.9117 191.2 25.7157 190.868 23.1517L170.18 32.4197Z" fill="#231F20"/>
<path d="M177.328 34.4122L200.348 24.0962C200.348 24.0962 203.26 33.9362 192.08 38.5682C192.08 38.5682 183.2 42.3762 177.328 34.4122Z" fill="white"/>
<path d="M187.104 40.4562C183.868 40.4562 179.756 39.3882 176.524 35.0082C176.344 34.7642 176.284 34.4522 176.36 34.1602C176.436 33.8682 176.644 33.6242 176.92 33.5002L199.94 23.1842C200.204 23.0642 200.504 23.0682 200.768 23.1842C201.032 23.3042 201.228 23.5322 201.308 23.8082C201.34 23.9162 204.336 34.5682 192.464 39.4882C192.424 39.5042 190.148 40.4482 187.104 40.4482V40.4562ZM178.924 34.7922C184.2 40.7202 191.372 37.7842 191.688 37.6482C199.808 34.2842 199.944 28.0882 199.608 25.5242L178.92 34.7922H178.924Z" fill="#231F20"/>
<path d="M416.068 44.9238C398.456 44.9238 380.236 40.3398 380.236 32.6758C380.236 28.3638 386.12 24.6078 396.38 22.3718C396.92 22.2518 397.452 22.5958 397.572 23.1358C397.688 23.6758 397.348 24.2078 396.808 24.3278C387.82 26.2878 382.24 29.4878 382.24 32.6798C382.24 35.1438 385.796 37.7598 391.748 39.6838C398.232 41.7758 406.868 42.9318 416.068 42.9318C425.268 42.9318 433.908 41.7798 440.388 39.6838C446.344 37.7598 449.896 35.1438 449.896 32.6798C449.896 29.3878 443.772 26.0238 434.292 24.1118C433.752 24.0038 433.4 23.4758 433.508 22.9358C433.616 22.3958 434.144 22.0438 434.688 22.1518C445.624 24.3558 451.896 28.1958 451.896 32.6798C451.896 40.3478 433.68 44.9278 416.064 44.9278L416.068 44.9238Z" fill="#231F20"/>
<path d="M433.652 36.5922H397.687C397.135 36.5922 396.688 36.1442 396.688 35.5922V19.6602C396.688 19.1082 397.135 18.6602 397.687 18.6602C398.239 18.6602 398.687 19.1082 398.687 19.6602V34.5922H432.652V19.6602C432.652 19.1082 433.1 18.6602 433.652 18.6602C434.204 18.6602 434.652 19.1082 434.652 19.6602V35.5922C434.652 36.1442 434.204 36.5922 433.652 36.5922Z" fill="#231F20"/>
<path d="M433.652 31.9238H397.687C397.135 31.9238 396.688 31.4758 396.688 30.9238C396.688 30.3718 397.135 29.9238 397.687 29.9238H433.652C434.204 29.9238 434.652 30.3718 434.652 30.9238C434.652 31.4758 434.204 31.9238 433.652 31.9238Z" fill="#231F20"/>
<path d="M433.652 20.6596H397.688C397.384 20.6596 397.096 20.5236 396.908 20.2836C396.72 20.0476 396.648 19.7356 396.712 19.4396C396.788 19.0996 398.708 11.0636 410.86 8.73958C411.06 8.69958 411.264 8.72358 411.452 8.80758L434.056 18.7396C434.488 18.9316 434.728 19.3996 434.632 19.8596C434.536 20.3236 434.128 20.6556 433.652 20.6556V20.6596ZM399.12 18.6596H428.892L410.932 10.7676C403.012 12.3716 400.1 16.5636 399.12 18.6596Z" fill="#231F20"/>
<path d="M536.421 52.3477C525.741 52.3477 515.685 51.0997 508.109 48.8277C500.049 46.4157 495.789 43.1797 495.789 39.4797C495.789 35.7797 500.049 32.5437 508.109 30.1317C515.685 27.8637 525.741 26.6157 536.421 26.6157C547.101 26.6157 557.157 27.8637 564.733 30.1317C572.793 32.5437 577.053 35.7797 577.053 39.4797C577.053 43.1797 572.793 46.4157 564.733 48.8277C557.157 51.0957 547.101 52.3477 536.421 52.3477ZM536.421 28.6117C525.929 28.6117 516.077 29.8317 508.685 32.0437C501.865 34.0877 497.789 36.8637 497.789 39.4757C497.789 42.0877 501.861 44.8677 508.685 46.9077C516.081 49.1237 525.929 50.3397 536.421 50.3397C546.913 50.3397 556.765 49.1197 564.157 46.9077C570.981 44.8637 575.053 42.0877 575.053 39.4757C575.053 36.8637 570.981 34.0837 564.157 32.0437C556.761 29.8277 546.913 28.6117 536.421 28.6117Z" fill="#231F20"/>
<path d="M511.836 38.124C515.15 38.124 517.836 35.4377 517.836 32.124C517.836 28.8103 515.15 26.124 511.836 26.124C508.522 26.124 505.836 28.8103 505.836 32.124C505.836 35.4377 508.522 38.124 511.836 38.124Z" fill="white"/>
<path d="M511.836 39.124C507.976 39.124 504.836 35.984 504.836 32.124C504.836 28.264 507.976 25.124 511.836 25.124C515.696 25.124 518.836 28.264 518.836 32.124C518.836 35.984 515.696 39.124 511.836 39.124ZM511.836 27.12C509.08 27.12 506.836 29.364 506.836 32.12C506.836 34.876 509.08 37.12 511.836 37.12C514.592 37.12 516.836 34.876 516.836 32.12C516.836 29.364 514.592 27.12 511.836 27.12Z" fill="#231F20"/>
<path d="M540.557 44.124C543.87 44.124 546.557 41.4377 546.557 38.124C546.557 34.8103 543.87 32.124 540.557 32.124C537.243 32.124 534.557 34.8103 534.557 38.124C534.557 41.4377 537.243 44.124 540.557 44.124Z" fill="white"/>
<path d="M540.557 45.124C536.697 45.124 533.557 41.984 533.557 38.124C533.557 34.264 536.697 31.124 540.557 31.124C544.417 31.124 547.557 34.264 547.557 38.124C547.557 41.984 544.417 45.124 540.557 45.124ZM540.557 33.124C537.801 33.124 535.557 35.368 535.557 38.124C535.557 40.88 537.801 43.124 540.557 43.124C543.313 43.124 545.557 40.88 545.557 38.124C545.557 35.368 543.313 33.124 540.557 33.124Z" fill="#231F20"/>
<path d="M523.325 33.0962H518.769C517.252 33.0962 516.021 34.3265 516.021 35.8442V40.4002C516.021 41.9179 517.252 43.1482 518.769 43.1482H523.325C524.843 43.1482 526.073 41.9179 526.073 40.4002V35.8442C526.073 34.3265 524.843 33.0962 523.325 33.0962Z" fill="white"/>
<path d="M523.325 44.1521H518.769C516.701 44.1521 515.021 42.4721 515.021 40.4041V35.8481C515.021 33.7801 516.701 32.1001 518.769 32.1001H523.325C525.393 32.1001 527.073 33.7801 527.073 35.8481V40.4041C527.073 42.4721 525.393 44.1521 523.325 44.1521ZM518.769 34.0961C517.805 34.0961 517.021 34.8801 517.021 35.8441V40.4001C517.021 41.3641 517.805 42.1481 518.769 42.1481H523.325C524.289 42.1481 525.073 41.3641 525.073 40.4001V35.8441C525.073 34.8801 524.289 34.0961 523.325 34.0961H518.769Z" fill="#231F20"/>
<path d="M554.755 23.124H550.199C548.681 23.124 547.451 24.3543 547.451 25.872V30.428C547.451 31.9457 548.681 33.176 550.199 33.176H554.755C556.273 33.176 557.503 31.9457 557.503 30.428V25.872C557.503 24.3543 556.273 23.124 554.755 23.124Z" fill="white"/>
<path d="M554.755 34.1799H550.199C548.131 34.1799 546.451 32.4999 546.451 30.4319V25.8759C546.451 23.8079 548.131 22.1279 550.199 22.1279H554.755C556.823 22.1279 558.503 23.8079 558.503 25.8759V30.4319C558.503 32.4999 556.823 34.1799 554.755 34.1799ZM550.199 24.1239C549.235 24.1239 548.451 24.9079 548.451 25.8719V30.4279C548.451 31.3919 549.235 32.1759 550.199 32.1759H554.755C555.719 32.1759 556.503 31.3919 556.503 30.4279V25.8719C556.503 24.9079 555.719 24.1239 554.755 24.1239H550.199Z" fill="#231F20"/>
<path d="M562.345 27.7241H557.789C556.271 27.7241 555.041 28.9544 555.041 30.4721V35.0281C555.041 36.5458 556.271 37.7761 557.789 37.7761H562.345C563.863 37.7761 565.093 36.5458 565.093 35.0281V30.4721C565.093 28.9544 563.863 27.7241 562.345 27.7241Z" fill="white"/>
<path d="M562.349 38.78H557.793C555.725 38.78 554.045 37.1 554.045 35.032V30.476C554.045 28.408 555.725 26.728 557.793 26.728H562.349C564.417 26.728 566.097 28.408 566.097 30.476V35.032C566.097 37.1 564.417 38.78 562.349 38.78ZM557.789 28.724C556.825 28.724 556.041 29.508 556.041 30.472V35.028C556.041 35.992 556.825 36.776 557.789 36.776H562.345C563.309 36.776 564.093 35.992 564.093 35.028V30.472C564.093 29.508 563.309 28.724 562.345 28.724H557.789Z" fill="#231F20"/>
<path d="M510.896 31.4642C510.472 31.4642 510.08 31.1962 509.944 30.7722L506.372 19.7122C506.204 19.1882 506.492 18.6242 507.016 18.4522C507.54 18.2842 508.104 18.5722 508.276 19.0962L511.848 30.1562C512.016 30.6802 511.728 31.2442 511.204 31.4162C511.1 31.4482 511 31.4642 510.896 31.4642Z" fill="#231F20"/>
<path d="M561.005 31.9237C560.953 31.9237 560.905 31.9237 560.853 31.9117C560.309 31.8277 559.933 31.3197 560.013 30.7717L561.765 19.2517C561.849 18.7037 562.361 18.3317 562.905 18.4117C563.449 18.4957 563.825 19.0037 563.745 19.5517L561.993 31.0717C561.917 31.5677 561.493 31.9197 561.005 31.9197V31.9237Z" fill="#231F20"/>
<path d="M540.556 37.7281C540.028 37.7281 539.584 37.3121 539.56 36.7761L538.976 24.9801C538.948 24.4281 539.372 23.9601 539.924 23.9321C540.476 23.9081 540.944 24.3281 540.972 24.8801L541.556 36.6761C541.584 37.2281 541.16 37.6961 540.608 37.7241C540.592 37.7241 540.576 37.7241 540.556 37.7241V37.7281Z" fill="#231F20"/>
<path d="M716 53.4278C715.448 53.4278 715 52.9798 715 52.4278V39.5278C715 38.9758 715.448 38.5278 716 38.5278C716.552 38.5278 717 38.9758 717 39.5278V52.4278C717 52.9798 716.552 53.4278 716 53.4278Z" fill="#231F20"/>
</g>
<defs>
<clipPath id="clip0_1943_88723">
<rect width="720" height="170" fill="white"/>
</clipPath>
</defs>
</svg>
