<svg width="720" height="170" viewBox="0 0 720 170" fill="none" xmlns="http://www.w3.org/2000/svg">
<g clip-path="url(#clip0_2054_95054)">
<path d="M360 1.43188C163.388 1.43188 4 18.9279 4 40.5119V53.4119C4 58.8479 14.112 64.0239 32.38 68.7279H32.36L33.84 169.176H42.716L44.156 71.4599L44.092 71.4439C103.46 83.9519 222.64 92.4919 360 92.4919C497.36 92.4919 616.54 83.9519 675.908 71.4439L675.844 71.4599L677.284 169.176H686.16L687.64 68.7239H687.62C705.888 64.0239 716 58.8479 716 53.4119V40.5119C716 18.9279 556.612 1.43188 360 1.43188Z" fill="white"/>
<path d="M360 80.4398C264.872 80.4398 175.436 76.3718 108.16 68.9878C75.416 65.3918 49.7 61.2038 31.724 56.5398C12.396 51.5198 3 46.2278 3 40.3598C3 34.4918 12.396 29.1958 31.724 24.1798C49.7 19.5158 75.416 15.3278 108.16 11.7318C175.436 4.34378 264.872 0.279785 360 0.279785C455.128 0.279785 544.564 4.34778 611.84 11.7318C644.58 15.3278 670.3 19.5158 688.276 24.1798C707.604 29.1958 717 34.4878 717 40.3598C717 46.2318 707.604 51.5238 688.276 56.5398C670.3 61.2038 644.584 65.3918 611.84 68.9878C544.564 76.3718 455.128 80.4398 360 80.4398ZM360 2.27979C338.7 2.27979 317.688 2.48379 297.148 2.88379C226.012 4.26779 160.524 7.99578 108.38 13.7198C75.732 17.3038 50.112 21.4758 32.228 26.1158C8.536 32.2638 5 37.6798 5 40.3598C5 43.0398 8.536 48.4558 32.228 54.6038C50.112 59.2438 75.732 63.4158 108.38 66.9998C175.584 74.3758 264.944 78.4398 360 78.4398C455.056 78.4398 544.416 74.3758 611.62 66.9998C644.268 63.4158 669.888 59.2438 687.772 54.6038C711.464 48.4558 715 43.0398 715 40.3598C715 37.6798 711.464 32.2638 687.772 26.1158C669.888 21.4758 644.268 17.3038 611.62 13.7198C544.416 6.33978 455.056 2.27979 360 2.27979Z" fill="#231F20"/>
<path d="M360 93.34C264.872 93.34 175.436 89.272 108.16 81.888C75.416 78.292 49.7 74.104 31.724 69.44C12.396 64.424 3 59.132 3 53.26C3 52.708 3.448 52.26 4 52.26C4.552 52.26 5 52.708 5 53.26C5 55.94 8.536 61.356 32.228 67.504C50.112 72.144 75.732 76.316 108.38 79.9C175.584 87.276 264.944 91.34 360 91.34C455.056 91.34 544.416 87.276 611.62 79.9C644.268 76.316 669.888 72.144 687.772 67.504C711.464 61.356 715 55.94 715 53.26C715 52.708 715.448 52.26 716 52.26C716.552 52.26 717 52.708 717 53.26C717 59.132 707.604 64.424 688.276 69.44C670.3 74.104 644.584 78.292 611.84 81.888C544.564 89.272 455.128 93.34 360 93.34Z" fill="#231F20"/>
<path d="M4 54.2599C3.448 54.2599 3 53.8119 3 53.2599V40.3599C3 39.8079 3.448 39.3599 4 39.3599C4.552 39.3599 5 39.8079 5 40.3599V53.2599C5 53.8119 4.552 54.2599 4 54.2599Z" fill="#231F20"/>
<path d="M42.7155 170.024H33.8395C33.2915 170.024 32.8475 169.584 32.8395 169.04L31.3595 68.5878C31.3515 68.0358 31.7915 67.5798 32.3435 67.5718H32.3595C32.9035 67.5718 33.3515 68.0078 33.3595 68.5558L34.8275 168.024H41.7315L43.1595 71.2958C43.1675 70.7438 43.6155 70.3038 44.1755 70.3118C44.7275 70.3198 45.1675 70.7758 45.1595 71.3278L43.7195 169.044C43.7115 169.592 43.2675 170.028 42.7195 170.028L42.7155 170.024Z" fill="#231F20"/>
<path d="M686.16 170.024H677.284C676.736 170.024 676.292 169.584 676.284 169.04L674.844 71.3238C674.836 70.7718 675.276 70.3158 675.828 70.3078C676.388 70.2918 676.836 70.7398 676.844 71.2918L678.272 168.02H685.176L686.644 68.5518C686.652 67.9998 687.108 67.5478 687.66 67.5678C688.212 67.5758 688.652 68.0318 688.644 68.5838L687.164 169.036C687.156 169.584 686.712 170.02 686.164 170.02L686.16 170.024Z" fill="#231F20"/>
<path d="M409.829 28.9599C409.729 28.9599 409.633 28.9439 409.537 28.9159L391.405 23.3759C390.965 23.2399 390.673 22.8239 390.697 22.3679C390.721 21.9119 391.053 21.5279 391.505 21.4399L421.725 15.5959C421.865 15.5679 422.005 15.5719 422.145 15.6039L441.381 20.1399C441.837 20.2479 442.157 20.6559 442.153 21.1199C442.153 21.5879 441.821 21.9879 441.365 22.0879L410.041 28.9359C409.969 28.9519 409.901 28.9599 409.829 28.9599ZM395.833 22.6399L409.869 26.9279L436.641 21.0759L421.897 17.5999L395.833 22.6399Z" fill="#231F20"/>
<path d="M409.828 35.8598C409.604 35.8598 409.384 35.7838 409.204 35.6438C408.964 35.4558 408.828 35.1678 408.828 34.8598V27.9598C408.828 27.4078 409.276 26.9598 409.828 26.9598C410.38 26.9598 410.828 27.4078 410.828 27.9598V33.6038L440.152 26.8438V21.1118C440.152 20.5598 440.6 20.1118 441.152 20.1118C441.704 20.1118 442.152 20.5598 442.152 21.1118V27.6398C442.152 28.1038 441.832 28.5078 441.376 28.6158L410.052 35.8398C409.976 35.8558 409.904 35.8638 409.828 35.8638V35.8598Z" fill="#231F20"/>
<path d="M409.829 35.8598C409.729 35.8598 409.625 35.8438 409.525 35.8118L391.393 30.0478C390.977 29.9158 390.697 29.5318 390.697 29.0958V22.4158C390.697 21.8638 391.145 21.4158 391.697 21.4158C392.249 21.4158 392.697 21.8638 392.697 22.4158V28.3638L410.129 33.9038C410.657 34.0718 410.945 34.6318 410.781 35.1598C410.645 35.5838 410.253 35.8558 409.829 35.8558V35.8598Z" fill="#231F20"/>
<path d="M411.376 48.2958C411.272 48.2958 411.172 48.2798 411.072 48.2478L382.68 39.2438C382.264 39.1118 381.984 38.7278 381.984 38.2918V27.3158C381.984 26.8478 382.308 26.4398 382.768 26.3398L391.48 24.4118C392.02 24.2918 392.552 24.6318 392.672 25.1718C392.792 25.7118 392.452 26.2438 391.912 26.3638L383.984 28.1198V37.5638L411.408 46.2598L445.844 37.6078V27.3198L440.96 26.3718C440.416 26.2678 440.064 25.7398 440.168 25.1998C440.272 24.6558 440.8 24.3038 441.34 24.4078L447.032 25.5158C447.5 25.6078 447.84 26.0198 447.84 26.4958V38.3878C447.84 38.8478 447.528 39.2478 447.084 39.3558L411.616 48.2678C411.536 48.2878 411.452 48.2998 411.372 48.2998L411.376 48.2958Z" fill="#231F20"/>
<path d="M414.028 43.2279C412.604 43.2279 411.308 42.2559 410.956 40.8159C410.756 39.9959 410.888 39.1479 411.328 38.4279C411.768 37.7079 412.46 37.1999 413.28 36.9999L440.596 30.3599C442.288 29.9479 444 30.9919 444.412 32.6839C444.824 34.3759 443.78 36.0879 442.088 36.4999L414.772 43.1399C414.524 43.1999 414.272 43.2279 414.028 43.2279ZM441.344 32.2679C441.252 32.2679 441.16 32.2799 441.072 32.2999L413.756 38.9399C413.456 39.0119 413.2 39.1999 413.04 39.4639C412.88 39.7279 412.832 40.0399 412.904 40.3399C413.056 40.9599 413.684 41.3439 414.304 41.1919L441.62 34.5519C442.24 34.3999 442.624 33.7719 442.472 33.1519C442.344 32.6239 441.868 32.2679 441.344 32.2679Z" fill="#231F20"/>
<path d="M411.377 55.1839C411.161 55.1839 410.949 55.1119 410.773 54.9799C410.525 54.7919 410.377 54.4959 410.377 54.1839V47.2959C410.377 46.7439 410.825 46.2959 411.377 46.2959C411.929 46.2959 412.377 46.7439 412.377 47.2959V52.8719L449.429 42.6279V36.9559L446.557 36.0959C446.029 35.9359 445.729 35.3799 445.885 34.8519C446.045 34.3239 446.601 34.0239 447.129 34.1799L450.713 35.2559C451.137 35.3839 451.425 35.7719 451.425 36.2119V43.3879C451.425 43.8359 451.125 44.2319 450.693 44.3519L411.641 55.1479C411.553 55.1719 411.465 55.1839 411.373 55.1839H411.377Z" fill="#231F20"/>
<path d="M411.377 55.1838C411.273 55.1838 411.169 55.1678 411.069 55.1358L384.993 46.6518C384.581 46.5198 384.301 46.1358 384.301 45.6998V38.8918C384.301 38.3398 384.749 37.8918 385.301 37.8918C385.853 37.8918 386.301 38.3398 386.301 38.8918V44.9718L411.689 53.2318C412.213 53.4038 412.501 53.9678 412.329 54.4918C412.193 54.9158 411.801 55.1838 411.377 55.1838Z" fill="#231F20"/>
<path d="M528.971 33.7718C528.871 33.7718 528.775 33.7558 528.679 33.7278L508.211 27.4758C507.775 27.3438 507.483 26.9278 507.503 26.4718C507.523 26.0158 507.855 25.6318 508.303 25.5398L542.871 18.4918C543.019 18.4598 543.175 18.4638 543.323 18.5038L564.587 24.0758C565.035 24.1918 565.343 24.5998 565.335 25.0638C565.327 25.5278 564.999 25.9198 564.547 26.0198L529.183 33.7518C529.111 33.7678 529.043 33.7758 528.971 33.7758V33.7718ZM512.559 26.7118L529.011 31.7398L560.051 24.9518L543.039 20.4958L512.555 26.7118H512.559Z" fill="#231F20"/>
<path d="M528.971 41.5638C528.747 41.5638 528.527 41.4878 528.347 41.3478C528.107 41.1598 527.971 40.8718 527.971 40.5638V32.7718C527.971 32.2198 528.419 31.7718 528.971 31.7718C529.523 31.7718 529.971 32.2198 529.971 32.7718V39.3078L563.335 31.6158V25.0398C563.335 24.4878 563.783 24.0398 564.335 24.0398C564.887 24.0398 565.335 24.4878 565.335 25.0398V32.4078C565.335 32.8718 565.015 33.2758 564.559 33.3838L529.195 41.5358C529.119 41.5518 529.047 41.5598 528.971 41.5598V41.5638Z" fill="#231F20"/>
<path d="M528.97 41.5639C528.87 41.5639 528.766 41.5479 528.666 41.5159L508.198 35.0079C507.782 34.8759 507.502 34.4919 507.502 34.0559V26.5159C507.502 25.9639 507.95 25.5159 508.502 25.5159C509.054 25.5159 509.502 25.9639 509.502 26.5159V33.3239L529.274 39.6079C529.802 39.7759 530.09 40.3359 529.926 40.8639C529.79 41.2879 529.398 41.5599 528.974 41.5599L528.97 41.5639Z" fill="#231F20"/>
<path d="M272.104 30.4205C272.104 28.4045 277.492 26.7725 284.136 26.7725C290.78 26.7725 296.168 28.4045 296.168 30.4205" fill="white"/>
<path d="M296.171 31.4205C295.619 31.4205 295.171 30.9725 295.171 30.4205C295.171 29.6285 291.419 27.7725 284.139 27.7725C276.859 27.7725 273.107 29.6285 273.107 30.4205C273.107 30.9725 272.659 31.4205 272.107 31.4205C271.555 31.4205 271.107 30.9725 271.107 30.4205C271.107 27.2285 277.863 25.7725 284.139 25.7725C290.415 25.7725 297.171 27.2285 297.171 30.4205C297.171 30.9725 296.723 31.4205 296.171 31.4205Z" fill="#231F20"/>
<path d="M284.136 61.8762C276.708 61.8762 271.104 59.2482 271.104 55.7682V30.4202C271.104 29.8682 271.552 29.4202 272.104 29.4202C272.656 29.4202 273.104 29.8682 273.104 30.4202V55.7682C273.104 57.7082 277.824 59.8762 284.136 59.8762C290.448 59.8762 295.168 57.7082 295.168 55.7682V30.4202C295.168 29.8682 295.616 29.4202 296.168 29.4202C296.72 29.4202 297.168 29.8682 297.168 30.4202V55.7682C297.168 59.2522 291.564 61.8762 284.136 61.8762Z" fill="#231F20"/>
<path d="M276.091 34.1323C275.631 34.1323 275.215 33.8123 275.115 33.3443L271.935 18.7483C271.819 18.2083 272.159 17.6763 272.699 17.5603C273.239 17.4443 273.771 17.7843 273.887 18.3243L277.067 32.9203C277.183 33.4603 276.843 33.9923 276.303 34.1083C276.231 34.1243 276.159 34.1323 276.091 34.1323Z" fill="#231F20"/>
<path d="M278.891 32.9644L277.123 12.7724L281.467 11.7764L283.063 33.3004" fill="white"/>
<path d="M283.063 34.3002C282.543 34.3002 282.107 33.9002 282.067 33.3762L280.555 13.0122L278.199 13.5522L279.891 32.8802C279.939 33.4322 279.531 33.9162 278.983 33.9642C278.431 34.0122 277.947 33.6042 277.899 33.0562L276.131 12.8602C276.087 12.3642 276.419 11.9082 276.903 11.8002L281.243 10.8042C281.527 10.7402 281.827 10.8042 282.059 10.9722C282.295 11.1442 282.443 11.4122 282.463 11.7042L284.063 33.2282C284.103 33.7802 283.691 34.2602 283.139 34.3002C283.115 34.3002 283.087 34.3002 283.063 34.3002Z" fill="#231F20"/>
<path d="M286.439 33.3003L286.731 18.5403L288.675 13.5923L290.623 18.5403L290.523 33.3003" fill="white"/>
<path d="M286.44 34.3003C286.44 34.3003 286.428 34.3003 286.42 34.3003C285.868 34.2883 285.428 33.8323 285.44 33.2803L285.732 18.5203C285.732 18.4003 285.756 18.2843 285.8 18.1723L287.748 13.2243C287.9 12.8403 288.268 12.5923 288.68 12.5923C289.092 12.5923 289.46 12.8443 289.612 13.2243L291.56 18.1723C291.608 18.2923 291.632 18.4163 291.628 18.5443L291.528 33.3043C291.528 33.8523 291.076 34.2963 290.528 34.2963H290.52C289.968 34.2963 289.524 33.8403 289.528 33.2883L289.624 18.7203L288.68 16.3203L287.732 18.7363L287.444 33.3163C287.432 33.8603 286.988 34.2963 286.444 34.2963L286.44 34.3003Z" fill="#231F20"/>
<path d="M284.136 35.0682C277.86 35.0682 271.104 33.6122 271.104 30.4202C271.104 29.8682 271.552 29.4202 272.104 29.4202C272.656 29.4202 273.104 29.8682 273.104 30.4202C273.104 31.2122 276.856 33.0682 284.136 33.0682C291.416 33.0682 295.168 31.2122 295.168 30.4202C295.168 29.8682 295.616 29.4202 296.168 29.4202C296.72 29.4202 297.168 29.8682 297.168 30.4202C297.168 33.6122 290.412 35.0682 284.136 35.0682Z" fill="#231F20"/>
<path d="M571.046 38.3437L553.526 39.7677L548.766 42.1317L553.862 43.6437L571.354 42.3957C572.486 42.3157 573.33 41.3237 573.234 40.1917C573.138 39.0757 572.158 38.2517 571.046 38.3397V38.3437Z" fill="white"/>
<path d="M553.861 44.6438C553.765 44.6438 553.669 44.6318 553.577 44.6038L548.481 43.0918C548.089 42.9758 547.805 42.6278 547.769 42.2198C547.733 41.8118 547.953 41.4198 548.321 41.2398L553.081 38.8758C553.193 38.8198 553.317 38.7838 553.445 38.7758L570.965 37.3518C572.621 37.2158 574.089 38.4558 574.233 40.1118C574.305 40.9278 574.049 41.7198 573.517 42.3398C572.985 42.9598 572.245 43.3358 571.425 43.3958L553.933 44.6438C553.909 44.6438 553.885 44.6438 553.861 44.6438ZM551.489 41.8958L553.973 42.6318L571.285 41.3958C571.565 41.3758 571.817 41.2478 571.997 41.0358C572.177 40.8238 572.265 40.5558 572.241 40.2758C572.193 39.7118 571.697 39.2918 571.129 39.3358L553.801 40.7438L551.489 41.8918V41.8958Z" fill="#231F20"/>
<path d="M151.388 47.516C151.388 47.516 160.056 37.472 176.092 39.12L148.312 30.756C148.312 30.756 134.296 29.816 124.42 38.224L151.392 47.516H151.388Z" fill="white"/>
<path d="M151.388 48.5161C151.28 48.5161 151.168 48.5001 151.064 48.4601L124.092 39.1681C123.752 39.0521 123.5 38.7601 123.436 38.4081C123.368 38.0561 123.496 37.6921 123.772 37.4601C133.844 28.8881 147.792 29.7161 148.38 29.7561C148.456 29.7601 148.528 29.7761 148.6 29.7961L176.38 38.1601C176.872 38.3081 177.172 38.8081 177.072 39.3121C176.972 39.8161 176.504 40.1641 175.988 40.1121C168.004 39.2921 161.956 41.5201 158.288 43.5321C154.296 45.7241 152.164 48.1441 152.144 48.1681C151.952 48.3921 151.672 48.5121 151.388 48.5121V48.5161ZM126.472 37.8721L151.1 46.3601C152.796 44.6321 158.96 39.1121 169.22 38.0961L148.132 31.7481C146.9 31.6921 135.332 31.3601 126.468 37.8721H126.472Z" fill="#231F20"/>
<path d="M176.093 40.1199C176.053 40.1199 176.009 40.1199 175.969 40.1119C175.421 40.0439 175.033 39.5439 175.101 38.9959C176.073 31.1559 181.833 28.3319 186.229 27.3239L168.277 22.0359C153.737 19.5959 149.429 30.6319 149.253 31.1039C149.061 31.6199 148.485 31.8839 147.969 31.6919C147.453 31.4999 147.189 30.9279 147.377 30.4079C147.425 30.2759 152.409 17.3079 168.669 20.0719C168.709 20.0799 168.745 20.0879 168.785 20.0999L191.605 26.8199C192.093 26.9639 192.393 27.4479 192.309 27.9479C192.221 28.4479 191.773 28.8039 191.269 28.7759C191.237 28.7759 187.949 28.6159 184.561 29.8679C180.173 31.4879 177.661 34.6439 177.093 39.2399C177.029 39.7479 176.601 40.1159 176.101 40.1159L176.093 40.1199Z" fill="#231F20"/>
<path d="M151.136 53.8077C151.024 53.8077 150.912 53.7877 150.804 53.7517L124.084 44.2677C123.684 44.1277 123.42 43.7477 123.42 43.3237V38.2197C123.42 37.6677 123.868 37.2197 124.42 37.2197C124.972 37.2197 125.42 37.6677 125.42 38.2197V42.6197L150.884 51.6557C153.128 49.5077 163.012 40.8917 175.896 42.2957L178.384 40.9517C178.672 39.4637 179.772 35.1797 183.188 32.6397C185.44 30.9637 188.232 30.3877 191.48 30.9197C192.024 31.0077 192.396 31.5237 192.304 32.0677C192.216 32.6117 191.7 32.9837 191.156 32.8917C188.46 32.4517 186.18 32.9037 184.38 34.2437C180.96 36.7877 180.284 41.6757 180.28 41.7277C180.24 42.0477 180.048 42.3237 179.764 42.4797L176.568 44.2077C176.384 44.3077 176.176 44.3437 175.972 44.3197C162.436 42.6757 151.964 53.3917 151.86 53.4997C151.668 53.6997 151.404 53.8077 151.136 53.8077Z" fill="#231F20"/>
<path d="M716 54.4278C715.448 54.4278 715 53.9798 715 53.4278V40.5278C715 39.9758 715.448 39.5278 716 39.5278C716.552 39.5278 717 39.9758 717 40.5278V53.4278C717 53.9798 716.552 54.4278 716 54.4278Z" fill="#231F20"/>
</g>
<defs>
<clipPath id="clip0_2054_95054">
<rect width="720" height="170" fill="white"/>
</clipPath>
</defs>
</svg>
