<svg width="720" height="170" viewBox="0 0 720 170" fill="none" xmlns="http://www.w3.org/2000/svg">
<g clip-path="url(#clip0_1943_88721)">
<path d="M360 0.431641C163.388 0.431641 4 17.9276 4 39.5116V52.4116C4 57.8476 14.112 63.0236 32.38 67.7276H32.36L33.84 168.176H42.716L44.156 70.4596L44.092 70.4436C103.46 82.9516 222.64 91.4916 360 91.4916C497.36 91.4916 616.54 82.9516 675.908 70.4436L675.844 70.4596L677.284 168.176H686.16L687.64 67.7236H687.62C705.888 63.0236 716 57.8476 716 52.4116V39.5116C716 17.9276 556.612 0.431641 360 0.431641Z" fill="white"/>
<path d="M360 79.4398C264.872 79.4398 175.436 75.3718 108.16 67.9878C75.416 64.3918 49.7 60.2038 31.724 55.5398C12.396 50.5198 3 45.2278 3 39.3598C3 33.4918 12.396 28.1958 31.724 23.1798C49.7 18.5158 75.416 14.3278 108.16 10.7318C175.436 3.34379 264.872 -0.720215 360 -0.720215C455.128 -0.720215 544.564 3.34779 611.84 10.7318C644.58 14.3278 670.3 18.5158 688.276 23.1798C707.604 28.1958 717 33.4878 717 39.3598C717 45.2318 707.604 50.5238 688.276 55.5398C670.3 60.2038 644.584 64.3918 611.84 67.9878C544.564 75.3718 455.128 79.4398 360 79.4398ZM360 1.27979C338.7 1.27979 317.688 1.48379 297.148 1.88379C226.012 3.26779 160.524 6.99578 108.38 12.7198C75.732 16.3038 50.112 20.4758 32.228 25.1158C8.536 31.2638 5 36.6798 5 39.3598C5 42.0398 8.536 47.4558 32.228 53.6038C50.112 58.2438 75.732 62.4158 108.38 65.9998C175.584 73.3758 264.944 77.4398 360 77.4398C455.056 77.4398 544.416 73.3758 611.62 65.9998C644.268 62.4158 669.888 58.2438 687.772 53.6038C711.464 47.4558 715 42.0398 715 39.3598C715 36.6798 711.464 31.2638 687.772 25.1158C669.888 20.4758 644.268 16.3038 611.62 12.7198C544.416 5.33978 455.056 1.27979 360 1.27979Z" fill="#231F20"/>
<path d="M360 92.3398C264.872 92.3398 175.436 88.2718 108.16 80.8878C75.416 77.2918 49.7 73.1038 31.724 68.4398C12.396 63.4238 3 58.1318 3 52.2598C3 51.7078 3.448 51.2598 4 51.2598C4.552 51.2598 5 51.7078 5 52.2598C5 54.9398 8.536 60.3558 32.228 66.5038C50.112 71.1438 75.732 75.3158 108.38 78.8998C175.584 86.2758 264.944 90.3398 360 90.3398C455.056 90.3398 544.416 86.2758 611.62 78.8998C644.268 75.3158 669.888 71.1438 687.772 66.5038C711.464 60.3558 715 54.9398 715 52.2598C715 51.7078 715.448 51.2598 716 51.2598C716.552 51.2598 717 51.7078 717 52.2598C717 58.1318 707.604 63.4238 688.276 68.4398C670.3 73.1038 644.584 77.2918 611.84 80.8878C544.564 88.2718 455.128 92.3398 360 92.3398Z" fill="#231F20"/>
<path d="M4 53.2599C3.448 53.2599 3 52.8119 3 52.2599V39.3599C3 38.8079 3.448 38.3599 4 38.3599C4.552 38.3599 5 38.8079 5 39.3599V52.2599C5 52.8119 4.552 53.2599 4 53.2599Z" fill="#231F20"/>
<path d="M42.7155 169.024H33.8395C33.2915 169.024 32.8475 168.584 32.8395 168.04L31.3595 67.5878C31.3515 67.0358 31.7915 66.5798 32.3435 66.5718H32.3595C32.9035 66.5718 33.3515 67.0078 33.3595 67.5558L34.8275 167.024H41.7315L43.1595 70.2958C43.1675 69.7438 43.6155 69.3038 44.1755 69.3118C44.7275 69.3198 45.1675 69.7758 45.1595 70.3278L43.7195 168.044C43.7115 168.592 43.2675 169.028 42.7195 169.028L42.7155 169.024Z" fill="#231F20"/>
<path d="M686.16 169.024H677.284C676.736 169.024 676.292 168.584 676.284 168.04L674.844 70.324C674.836 69.772 675.276 69.316 675.828 69.308C676.388 69.292 676.836 69.74 676.844 70.292L678.272 167.02H685.176L686.644 67.552C686.652 67 687.108 66.548 687.66 66.568C688.212 66.576 688.652 67.032 688.644 67.584L687.164 168.036C687.156 168.584 686.712 169.02 686.164 169.02L686.16 169.024Z" fill="#231F20"/>
<path d="M409.829 27.9599C409.729 27.9599 409.633 27.9439 409.537 27.9159L391.405 22.3759C390.965 22.2399 390.673 21.8239 390.697 21.3679C390.721 20.9119 391.053 20.5279 391.505 20.4399L421.725 14.5959C421.865 14.5679 422.005 14.5719 422.145 14.6039L441.381 19.1399C441.837 19.2479 442.157 19.6559 442.153 20.1199C442.153 20.5879 441.821 20.9879 441.365 21.0879L410.041 27.9359C409.969 27.9519 409.901 27.9599 409.829 27.9599ZM395.833 21.6399L409.869 25.9279L436.641 20.0759L421.897 16.5999L395.833 21.6399Z" fill="#231F20"/>
<path d="M409.828 34.8598C409.604 34.8598 409.384 34.7838 409.204 34.6438C408.964 34.4558 408.828 34.1678 408.828 33.8598V26.9598C408.828 26.4078 409.276 25.9598 409.828 25.9598C410.38 25.9598 410.828 26.4078 410.828 26.9598V32.6038L440.152 25.8438V20.1118C440.152 19.5598 440.6 19.1118 441.152 19.1118C441.704 19.1118 442.152 19.5598 442.152 20.1118V26.6398C442.152 27.1038 441.832 27.5078 441.376 27.6158L410.052 34.8398C409.976 34.8558 409.904 34.8638 409.828 34.8638V34.8598Z" fill="#231F20"/>
<path d="M409.829 34.86C409.729 34.86 409.625 34.844 409.525 34.812L391.393 29.048C390.977 28.916 390.697 28.532 390.697 28.096V21.416C390.697 20.864 391.145 20.416 391.697 20.416C392.249 20.416 392.697 20.864 392.697 21.416V27.364L410.129 32.904C410.657 33.072 410.945 33.632 410.781 34.16C410.645 34.584 410.253 34.856 409.829 34.856V34.86Z" fill="#231F20"/>
<path d="M411.376 47.2958C411.272 47.2958 411.172 47.2798 411.072 47.2478L382.68 38.2438C382.264 38.1118 381.984 37.7278 381.984 37.2918V26.3158C381.984 25.8478 382.308 25.4398 382.768 25.3398L391.48 23.4118C392.02 23.2918 392.552 23.6318 392.672 24.1718C392.792 24.7118 392.452 25.2438 391.912 25.3638L383.984 27.1198V36.5638L411.408 45.2598L445.844 36.6078V26.3198L440.96 25.3718C440.416 25.2678 440.064 24.7398 440.168 24.1998C440.272 23.6558 440.8 23.3038 441.34 23.4078L447.032 24.5158C447.5 24.6078 447.84 25.0198 447.84 25.4958V37.3878C447.84 37.8478 447.528 38.2478 447.084 38.3558L411.616 47.2678C411.536 47.2878 411.452 47.2998 411.372 47.2998L411.376 47.2958Z" fill="#231F20"/>
<path d="M414.028 42.2279C412.604 42.2279 411.308 41.2559 410.956 39.8159C410.756 38.9959 410.888 38.1479 411.328 37.4279C411.768 36.7079 412.46 36.1999 413.28 35.9999L440.596 29.3599C442.288 28.9479 444 29.9919 444.412 31.6839C444.824 33.3759 443.78 35.0879 442.088 35.4999L414.772 42.1399C414.524 42.1999 414.272 42.2279 414.028 42.2279ZM441.344 31.2679C441.252 31.2679 441.16 31.2799 441.072 31.2999L413.756 37.9399C413.456 38.0119 413.2 38.1999 413.04 38.4639C412.88 38.7279 412.832 39.0399 412.904 39.3399C413.056 39.9599 413.684 40.3439 414.304 40.1919L441.62 33.5519C442.24 33.3999 442.624 32.7719 442.472 32.1519C442.344 31.6239 441.868 31.2679 441.344 31.2679Z" fill="#231F20"/>
<path d="M411.377 54.1839C411.161 54.1839 410.949 54.1119 410.773 53.9799C410.525 53.7919 410.377 53.4959 410.377 53.1839V46.2959C410.377 45.7439 410.825 45.2959 411.377 45.2959C411.929 45.2959 412.377 45.7439 412.377 46.2959V51.8719L449.429 41.6279V35.9559L446.557 35.0959C446.029 34.9359 445.729 34.3799 445.885 33.8519C446.045 33.3239 446.601 33.0239 447.129 33.1799L450.713 34.2559C451.137 34.3839 451.425 34.7719 451.425 35.2119V42.3879C451.425 42.8359 451.125 43.2319 450.693 43.3519L411.641 54.1479C411.553 54.1719 411.465 54.1839 411.373 54.1839H411.377Z" fill="#231F20"/>
<path d="M411.377 54.1836C411.273 54.1836 411.169 54.1676 411.069 54.1356L384.993 45.6516C384.581 45.5196 384.301 45.1356 384.301 44.6996V37.8916C384.301 37.3396 384.749 36.8916 385.301 36.8916C385.853 36.8916 386.301 37.3396 386.301 37.8916V43.9716L411.689 52.2316C412.213 52.4036 412.501 52.9676 412.329 53.4916C412.193 53.9156 411.801 54.1836 411.377 54.1836Z" fill="#231F20"/>
<path d="M528.971 32.7715C528.871 32.7715 528.775 32.7555 528.679 32.7275L508.211 26.4755C507.775 26.3435 507.483 25.9275 507.503 25.4715C507.523 25.0155 507.855 24.6315 508.303 24.5395L542.871 17.4915C543.019 17.4595 543.175 17.4635 543.323 17.5035L564.587 23.0755C565.035 23.1915 565.343 23.5995 565.335 24.0635C565.327 24.5275 564.999 24.9195 564.547 25.0195L529.183 32.7515C529.111 32.7675 529.043 32.7755 528.971 32.7755V32.7715ZM512.559 25.7115L529.011 30.7395L560.051 23.9515L543.039 19.4955L512.555 25.7115H512.559Z" fill="#231F20"/>
<path d="M528.971 40.5636C528.747 40.5636 528.527 40.4876 528.347 40.3476C528.107 40.1596 527.971 39.8716 527.971 39.5636V31.7716C527.971 31.2196 528.419 30.7716 528.971 30.7716C529.523 30.7716 529.971 31.2196 529.971 31.7716V38.3076L563.335 30.6156V24.0396C563.335 23.4876 563.783 23.0396 564.335 23.0396C564.887 23.0396 565.335 23.4876 565.335 24.0396V31.4075C565.335 31.8716 565.015 32.2756 564.559 32.3836L529.195 40.5356C529.119 40.5515 529.047 40.5596 528.971 40.5596V40.5636Z" fill="#231F20"/>
<path d="M528.97 40.5636C528.87 40.5636 528.766 40.5476 528.666 40.5156L508.198 34.0076C507.782 33.8756 507.502 33.4916 507.502 33.0556V25.5156C507.502 24.9636 507.95 24.5156 508.502 24.5156C509.054 24.5156 509.502 24.9636 509.502 25.5156V32.3236L529.274 38.6076C529.802 38.7756 530.09 39.3356 529.926 39.8636C529.79 40.2876 529.398 40.5596 528.974 40.5596L528.97 40.5636Z" fill="#231F20"/>
<path d="M272.104 29.4205C272.104 27.4045 277.492 25.7725 284.136 25.7725C290.78 25.7725 296.168 27.4045 296.168 29.4205" fill="white"/>
<path d="M296.171 30.4205C295.619 30.4205 295.171 29.9725 295.171 29.4205C295.171 28.6285 291.419 26.7725 284.139 26.7725C276.859 26.7725 273.107 28.6285 273.107 29.4205C273.107 29.9725 272.659 30.4205 272.107 30.4205C271.555 30.4205 271.107 29.9725 271.107 29.4205C271.107 26.2285 277.863 24.7725 284.139 24.7725C290.415 24.7725 297.171 26.2285 297.171 29.4205C297.171 29.9725 296.723 30.4205 296.171 30.4205Z" fill="#231F20"/>
<path d="M284.136 60.8764C276.708 60.8764 271.104 58.2484 271.104 54.7684V29.4204C271.104 28.8684 271.552 28.4204 272.104 28.4204C272.656 28.4204 273.104 28.8684 273.104 29.4204V54.7684C273.104 56.7084 277.824 58.8764 284.136 58.8764C290.448 58.8764 295.168 56.7084 295.168 54.7684V29.4204C295.168 28.8684 295.616 28.4204 296.168 28.4204C296.72 28.4204 297.168 28.8684 297.168 29.4204V54.7684C297.168 58.2524 291.564 60.8764 284.136 60.8764Z" fill="#231F20"/>
<path d="M276.091 33.1323C275.631 33.1323 275.215 32.8123 275.115 32.3443L271.935 17.7483C271.819 17.2083 272.159 16.6763 272.699 16.5603C273.239 16.4443 273.771 16.7843 273.887 17.3243L277.067 31.9203C277.183 32.4603 276.843 32.9923 276.303 33.1083C276.231 33.1243 276.159 33.1323 276.091 33.1323Z" fill="#231F20"/>
<path d="M278.891 31.9644L277.123 11.7724L281.467 10.7764L283.063 32.3004" fill="white"/>
<path d="M283.063 33.3002C282.543 33.3002 282.107 32.9002 282.067 32.3762L280.555 12.0122L278.199 12.5522L279.891 31.8802C279.939 32.4322 279.531 32.9162 278.983 32.9642C278.431 33.0122 277.947 32.6042 277.899 32.0562L276.131 11.8602C276.087 11.3642 276.419 10.9082 276.903 10.8002L281.243 9.80417C281.527 9.74017 281.827 9.80417 282.059 9.97217C282.295 10.1442 282.443 10.4122 282.463 10.7042L284.063 32.2282C284.103 32.7802 283.691 33.2602 283.139 33.3002C283.115 33.3002 283.087 33.3002 283.063 33.3002Z" fill="#231F20"/>
<path d="M286.439 32.3003L286.731 17.5403L288.675 12.5923L290.623 17.5403L290.523 32.3003" fill="white"/>
<path d="M286.44 33.3003C286.44 33.3003 286.428 33.3003 286.42 33.3003C285.868 33.2883 285.428 32.8323 285.44 32.2803L285.732 17.5203C285.732 17.4003 285.756 17.2843 285.8 17.1723L287.748 12.2243C287.9 11.8403 288.268 11.5923 288.68 11.5923C289.092 11.5923 289.46 11.8443 289.612 12.2243L291.56 17.1723C291.608 17.2923 291.632 17.4163 291.628 17.5443L291.528 32.3043C291.528 32.8523 291.076 33.2963 290.528 33.2963H290.52C289.968 33.2963 289.524 32.8403 289.528 32.2883L289.624 17.7203L288.68 15.3203L287.732 17.7363L287.444 32.3163C287.432 32.8603 286.988 33.2963 286.444 33.2963L286.44 33.3003Z" fill="#231F20"/>
<path d="M284.136 34.0684C277.86 34.0684 271.104 32.6124 271.104 29.4204C271.104 28.8684 271.552 28.4204 272.104 28.4204C272.656 28.4204 273.104 28.8684 273.104 29.4204C273.104 30.2124 276.856 32.0684 284.136 32.0684C291.416 32.0684 295.168 30.2124 295.168 29.4204C295.168 28.8684 295.616 28.4204 296.168 28.4204C296.72 28.4204 297.168 28.8684 297.168 29.4204C297.168 32.6124 290.412 34.0684 284.136 34.0684Z" fill="#231F20"/>
<path d="M571.046 37.3439L553.526 38.7679L548.766 41.1319L553.862 42.6439L571.354 41.3959C572.486 41.3159 573.33 40.3239 573.234 39.1919C573.138 38.0759 572.158 37.2519 571.046 37.3399V37.3439Z" fill="white"/>
<path d="M553.861 43.644C553.765 43.644 553.669 43.632 553.577 43.604L548.481 42.092C548.089 41.976 547.805 41.628 547.769 41.22C547.733 40.812 547.953 40.42 548.321 40.24L553.081 37.876C553.193 37.82 553.317 37.784 553.445 37.776L570.965 36.352C572.621 36.216 574.089 37.456 574.233 39.112C574.305 39.928 574.049 40.72 573.517 41.34C572.985 41.96 572.245 42.336 571.425 42.396L553.933 43.644C553.909 43.644 553.885 43.644 553.861 43.644ZM551.489 40.896L553.973 41.632L571.285 40.396C571.565 40.376 571.817 40.248 571.997 40.036C572.177 39.824 572.265 39.556 572.241 39.276C572.193 38.712 571.697 38.292 571.129 38.336L553.801 39.744L551.489 40.892V40.896Z" fill="#231F20"/>
<path d="M151.388 46.516C151.388 46.516 160.056 36.472 176.092 38.12L148.312 29.756C148.312 29.756 134.296 28.816 124.42 37.224L151.392 46.516H151.388Z" fill="white"/>
<path d="M151.388 47.5161C151.28 47.5161 151.168 47.5001 151.064 47.4601L124.092 38.1681C123.752 38.0521 123.5 37.7601 123.436 37.4081C123.368 37.0561 123.496 36.6921 123.772 36.4601C133.844 27.8881 147.792 28.7161 148.38 28.7561C148.456 28.7601 148.528 28.7761 148.6 28.7961L176.38 37.1601C176.872 37.3081 177.172 37.8081 177.072 38.3121C176.972 38.8161 176.504 39.1641 175.988 39.1121C168.004 38.2921 161.956 40.5201 158.288 42.5321C154.296 44.7241 152.164 47.1441 152.144 47.1681C151.952 47.3921 151.672 47.5121 151.388 47.5121V47.5161ZM126.472 36.8721L151.1 45.3601C152.796 43.6321 158.96 38.1121 169.22 37.0961L148.132 30.7481C146.9 30.6921 135.332 30.3601 126.468 36.8721H126.472Z" fill="#231F20"/>
<path d="M176.093 39.1199C176.053 39.1199 176.009 39.1199 175.969 39.1119C175.421 39.0439 175.033 38.5439 175.101 37.9959C176.073 30.1559 181.833 27.3319 186.229 26.3239L168.277 21.0359C153.737 18.5959 149.429 29.6319 149.253 30.1039C149.061 30.6199 148.485 30.8839 147.969 30.6919C147.453 30.4999 147.189 29.9279 147.377 29.4079C147.425 29.2759 152.409 16.3079 168.669 19.0719C168.709 19.0799 168.745 19.0879 168.785 19.0999L191.605 25.8199C192.093 25.9639 192.393 26.4479 192.309 26.9479C192.221 27.4479 191.773 27.8039 191.269 27.7759C191.237 27.7759 187.949 27.6159 184.561 28.8679C180.173 30.4879 177.661 33.6439 177.093 38.2399C177.029 38.7479 176.601 39.1159 176.101 39.1159L176.093 39.1199Z" fill="#231F20"/>
<path d="M151.136 52.8077C151.024 52.8077 150.912 52.7877 150.804 52.7517L124.084 43.2677C123.684 43.1277 123.42 42.7477 123.42 42.3237V37.2197C123.42 36.6677 123.868 36.2197 124.42 36.2197C124.972 36.2197 125.42 36.6677 125.42 37.2197V41.6197L150.884 50.6557C153.128 48.5077 163.012 39.8917 175.896 41.2957L178.384 39.9517C178.672 38.4637 179.772 34.1797 183.188 31.6397C185.44 29.9637 188.232 29.3877 191.48 29.9197C192.024 30.0077 192.396 30.5237 192.304 31.0677C192.216 31.6117 191.7 31.9837 191.156 31.8917C188.46 31.4517 186.18 31.9037 184.38 33.2437C180.96 35.7877 180.284 40.6757 180.28 40.7277C180.24 41.0477 180.048 41.3237 179.764 41.4797L176.568 43.2077C176.384 43.3077 176.176 43.3437 175.972 43.3197C162.436 41.6757 151.964 52.3917 151.86 52.4997C151.668 52.6997 151.404 52.8077 151.136 52.8077Z" fill="#231F20"/>
<path d="M716 53.4278C715.448 53.4278 715 52.9798 715 52.4278V39.5278C715 38.9758 715.448 38.5278 716 38.5278C716.552 38.5278 717 38.9758 717 39.5278V52.4278C717 52.9798 716.552 53.4278 716 53.4278Z" fill="#231F20"/>
</g>
<defs>
<clipPath id="clip0_1943_88721">
<rect width="720" height="170" fill="white"/>
</clipPath>
</defs>
</svg>
