<svg width="720" height="170" viewBox="0 0 720 170" fill="none" xmlns="http://www.w3.org/2000/svg">
<g clip-path="url(#clip0_1943_88723)">
<path d="M360 1.43164C163.388 1.43164 4 18.9276 4 40.5116V53.4116C4 58.8476 14.112 64.0236 32.38 68.7276H32.36L33.84 169.176H42.716L44.156 71.4596L44.092 71.4436C103.46 83.9516 222.64 92.4916 360 92.4916C497.36 92.4916 616.54 83.9516 675.908 71.4436L675.844 71.4596L677.284 169.176H686.16L687.64 68.7236H687.62C705.888 64.0236 716 58.8476 716 53.4116V40.5116C716 18.9276 556.612 1.43164 360 1.43164Z" fill="white"/>
<path d="M360 80.4398C264.872 80.4398 175.436 76.3718 108.16 68.9878C75.416 65.3918 49.7 61.2038 31.724 56.5398C12.396 51.5198 3 46.2278 3 40.3598C3 34.4918 12.396 29.1958 31.724 24.1798C49.7 19.5158 75.416 15.3278 108.16 11.7318C175.436 4.34379 264.872 0.279785 360 0.279785C455.128 0.279785 544.564 4.34779 611.84 11.7318C644.58 15.3278 670.3 19.5158 688.276 24.1798C707.604 29.1958 717 34.4878 717 40.3598C717 46.2318 707.604 51.5238 688.276 56.5398C670.3 61.2038 644.584 65.3918 611.84 68.9878C544.564 76.3718 455.128 80.4398 360 80.4398ZM360 2.27979C264.944 2.27979 175.584 6.34378 108.38 13.7198C75.732 17.3038 50.112 21.4758 32.228 26.1158C8.536 32.2638 5 37.6798 5 40.3598C5 43.0398 8.536 48.4558 32.228 54.6038C50.112 59.2438 75.732 63.4158 108.38 66.9998C175.584 74.3758 264.944 78.4398 360 78.4398C455.056 78.4398 544.416 74.3758 611.62 66.9998C644.268 63.4158 669.888 59.2438 687.772 54.6038C711.464 48.4558 715 43.0398 715 40.3598C715 37.6798 711.464 32.2638 687.772 26.1158C669.888 21.4758 644.268 17.3038 611.62 13.7198C544.416 6.33978 455.056 2.27979 360 2.27979Z" fill="#231F20"/>
<path d="M360 93.3398C264.872 93.3398 175.436 89.2718 108.16 81.8878C75.416 78.2918 49.7 74.1038 31.724 69.4398C12.396 64.4238 3 59.1318 3 53.2598C3 52.7078 3.448 52.2598 4 52.2598C4.552 52.2598 5 52.7078 5 53.2598C5 55.9398 8.536 61.3558 32.228 67.5038C50.112 72.1438 75.732 76.3158 108.38 79.8998C175.584 87.2758 264.944 91.3398 360 91.3398C455.056 91.3398 544.416 87.2758 611.62 79.8998C644.268 76.3158 669.888 72.1438 687.772 67.5038C711.464 61.3558 715 55.9398 715 53.2598C715 52.7078 715.448 52.2598 716 52.2598C716.552 52.2598 717 52.7078 717 53.2598C717 59.1318 707.604 64.4238 688.276 69.4398C670.3 74.1038 644.584 78.2918 611.84 81.8878C544.564 89.2718 455.128 93.3398 360 93.3398Z" fill="#231F20"/>
<path d="M4 54.2599C3.448 54.2599 3 53.8119 3 53.2599V40.3599C3 39.8079 3.448 39.3599 4 39.3599C4.552 39.3599 5 39.8079 5 40.3599V53.2599C5 53.8119 4.552 54.2599 4 54.2599Z" fill="#231F20"/>
<path d="M42.7155 170.024H33.8395C33.2915 170.024 32.8475 169.584 32.8395 169.04L31.3595 68.5883C31.3515 68.0363 31.7915 67.5803 32.3435 67.5723H32.3595C32.9035 67.5723 33.3515 68.0083 33.3595 68.5563L34.8275 168.024H41.7315L43.1595 71.2963C43.1675 70.7443 43.6155 70.3043 44.1755 70.3123C44.7275 70.3203 45.1675 70.7763 45.1595 71.3283L43.7195 169.044C43.7115 169.592 43.2675 170.028 42.7195 170.028L42.7155 170.024Z" fill="#231F20"/>
<path d="M686.16 170.024H677.284C676.736 170.024 676.292 169.584 676.284 169.04L674.844 71.324C674.836 70.772 675.276 70.316 675.828 70.308C676.388 70.292 676.836 70.74 676.844 71.292L678.272 168.02H685.176L686.644 68.552C686.652 68 687.108 67.548 687.66 67.568C688.212 67.576 688.652 68.032 688.644 68.584L687.164 169.036C687.156 169.584 686.712 170.02 686.164 170.02L686.16 170.024Z" fill="#231F20"/>
<path d="M290.36 61.4642C272.484 61.4642 253.996 56.7002 253.996 48.7322C253.996 44.3562 259.764 40.5002 269.816 38.1562C270.352 38.0322 270.892 38.3642 271.016 38.9042C271.14 39.4402 270.808 39.9802 270.268 40.1042C261.464 42.1562 255.992 45.4642 255.992 48.7362C255.992 53.9202 269.8 59.4682 290.356 59.4682C310.912 59.4682 324.72 53.9202 324.72 48.7362C324.72 45.4522 319.22 42.1402 310.364 40.0882C309.828 39.9642 309.492 39.4242 309.616 38.8882C309.74 38.3482 310.276 38.0162 310.816 38.1402C320.924 40.4842 326.72 44.3482 326.72 48.7402C326.72 56.7082 308.232 61.4722 290.356 61.4722L290.36 61.4642Z" fill="#231F20"/>
<path d="M290.36 24.444C281.756 24.444 272.496 22.744 272.496 19.016C272.496 15.288 281.756 13.584 290.36 13.584C298.964 13.584 308.224 15.284 308.224 19.016C308.224 22.748 298.964 24.444 290.36 24.444ZM290.36 15.584C279.892 15.584 274.496 17.988 274.496 19.016C274.496 20.044 279.892 22.444 290.36 22.444C300.828 22.444 306.224 20.04 306.224 19.016C306.224 17.992 300.828 15.584 290.36 15.584Z" fill="#231F20"/>
<path d="M294.849 53.8004C293.829 53.8004 292.941 53.1484 292.085 52.5204C291.485 52.0764 290.801 51.5764 290.361 51.5764C289.921 51.5764 289.241 52.0764 288.637 52.5204C287.725 53.1884 286.785 53.8804 285.685 53.7964C284.485 53.7004 283.585 52.7804 282.793 51.9644C282.337 51.4964 281.765 50.9124 281.421 50.8524C280.933 50.7684 280.141 51.1444 279.445 51.4724C278.433 51.9484 277.389 52.4444 276.357 52.1284C275.013 51.7164 274.329 50.4004 273.777 49.3444C273.533 48.8724 273.197 48.2284 272.973 48.0924C272.441 47.7684 271.717 47.5324 271.017 47.3044C269.629 46.8484 268.053 46.3364 268.053 44.8364C268.053 44.2844 268.501 43.8364 269.053 43.8364C269.577 43.8364 270.005 44.2404 270.049 44.7524C270.273 44.9564 271.089 45.2244 271.637 45.4044C272.405 45.6564 273.277 45.9404 274.009 46.3844C274.713 46.8124 275.121 47.5924 275.549 48.4244C275.945 49.1884 276.397 50.0524 276.941 50.2204C277.229 50.3084 278.013 49.9404 278.589 49.6684C279.557 49.2124 280.653 48.6964 281.761 48.8884C282.745 49.0564 283.497 49.8284 284.225 50.5764C284.773 51.1364 285.393 51.7724 285.841 51.8084C286.201 51.8404 286.893 51.3284 287.453 50.9164C288.301 50.2924 289.265 49.5844 290.361 49.5844C291.457 49.5844 292.421 50.2924 293.269 50.9164C293.825 51.3244 294.525 51.8404 294.881 51.8084C295.333 51.7724 295.949 51.1364 296.497 50.5764C297.225 49.8284 297.977 49.0564 298.961 48.8884C300.069 48.6964 301.165 49.2164 302.133 49.6724C302.705 49.9444 303.489 50.3124 303.781 50.2244C304.325 50.0564 304.777 49.1924 305.173 48.4284C305.605 47.6004 306.013 46.8164 306.713 46.3884C307.445 45.9444 308.317 45.6604 309.085 45.4084C309.637 45.2284 310.453 44.9604 310.677 44.7564C310.721 44.2444 311.149 43.8404 311.673 43.8404C312.225 43.8404 312.673 44.2884 312.673 44.8404C312.673 46.3404 311.097 46.8524 309.705 47.3084C309.005 47.5364 308.285 47.7724 307.749 48.0964C307.525 48.2324 307.189 48.8764 306.945 49.3484C306.397 50.4044 305.713 51.7204 304.365 52.1324C303.337 52.4484 302.289 51.9564 301.277 51.4764C300.577 51.1444 299.785 50.7724 299.301 50.8564C298.957 50.9164 298.389 51.5004 297.929 51.9684C297.137 52.7804 296.237 53.7044 295.037 53.8004C294.973 53.8044 294.909 53.8084 294.849 53.8084V53.8004Z" fill="#231F20"/>
<path d="M294.157 35.1845C293.193 35.1845 292.381 34.4685 291.657 33.8365C291.273 33.5005 290.629 32.9325 290.361 32.9325C290.093 32.9325 289.449 33.4965 289.065 33.8365C288.305 34.5045 287.445 35.2605 286.413 35.1805C285.297 35.0925 284.533 34.1565 283.861 33.3325C283.569 32.9765 283.085 32.3805 282.869 32.3245C282.557 32.2725 281.817 32.7045 281.329 32.9885C280.421 33.5165 279.485 34.0645 278.517 33.7645C277.285 33.3845 276.757 32.1125 276.329 31.0885C276.169 30.7045 275.933 30.1285 275.785 30.0045C275.357 29.7485 274.677 29.5725 274.017 29.4045C272.805 29.0925 271.301 28.7085 271.301 27.3125C271.301 26.7605 271.749 26.3125 272.301 26.3125C272.773 26.3125 273.173 26.6405 273.273 27.0845C273.521 27.2165 274.109 27.3645 274.513 27.4685C275.277 27.6645 276.141 27.8845 276.837 28.3085C277.513 28.7165 277.833 29.5005 278.177 30.3285C278.413 30.8965 278.769 31.7565 279.101 31.8605C279.297 31.8605 279.933 31.4925 280.321 31.2685C281.193 30.7605 282.181 30.1845 283.213 30.3645C284.141 30.5245 284.785 31.3125 285.409 32.0765C285.721 32.4605 286.309 33.1765 286.573 33.1965C286.793 33.1805 287.413 32.6365 287.749 32.3445C288.497 31.6885 289.345 30.9445 290.365 30.9445C291.385 30.9445 292.237 31.6885 292.981 32.3445C293.313 32.6365 293.933 33.1805 294.161 33.1965C294.417 33.1765 295.001 32.4605 295.317 32.0765C295.941 31.3125 296.585 30.5245 297.513 30.3645C298.545 30.1885 299.533 30.7645 300.405 31.2685C300.789 31.4925 301.425 31.8525 301.653 31.8565C301.957 31.7605 302.317 30.9005 302.553 30.3325C302.897 29.5045 303.221 28.7245 303.893 28.3125C304.589 27.8925 305.453 27.6685 306.217 27.4725C306.621 27.3685 307.209 27.2165 307.457 27.0885C307.561 26.6485 307.957 26.3165 308.429 26.3165C308.981 26.3165 309.429 26.7645 309.429 27.3165C309.429 28.7125 307.921 29.1005 306.709 29.4085C306.049 29.5765 305.369 29.7525 304.929 30.0205C304.797 30.1365 304.557 30.7125 304.397 31.0965C303.973 32.1205 303.445 33.3965 302.209 33.7725C301.241 34.0685 300.305 33.5245 299.397 32.9965C298.905 32.7125 298.165 32.2765 297.853 32.3325C297.641 32.3885 297.153 32.9845 296.865 33.3405C296.193 34.1645 295.429 35.1005 294.313 35.1885C294.261 35.1925 294.209 35.1965 294.161 35.1965L294.157 35.1845Z" fill="#231F20"/>
<path d="M311.549 45.8323C311.069 45.8323 310.645 45.4843 310.565 44.9963L306.241 19.1803C306.149 18.6363 306.517 18.1203 307.061 18.0283C307.605 17.9363 308.121 18.3043 308.213 18.8483L312.537 44.6643C312.629 45.2083 312.261 45.7243 311.717 45.8163C311.661 45.8243 311.605 45.8283 311.549 45.8283V45.8323Z" fill="#231F20"/>
<path d="M269.172 45.8322C269.116 45.8322 269.06 45.8282 269.004 45.8202C268.46 45.7282 268.092 45.2122 268.184 44.6682L272.508 18.8522C272.6 18.3082 273.116 17.9402 273.66 18.0322C274.204 18.1242 274.572 18.6402 274.48 19.1842L270.156 45.0002C270.076 45.4882 269.652 45.8362 269.172 45.8362V45.8322Z" fill="#231F20"/>
<path d="M292.803 18.9282C295.202 18.9282 297.147 16.9834 297.147 14.5842C297.147 12.1851 295.202 10.2402 292.803 10.2402C290.404 10.2402 288.459 12.1851 288.459 14.5842C288.459 16.9834 290.404 18.9282 292.803 18.9282Z" fill="white"/>
<path d="M292.803 19.9282C289.855 19.9282 287.459 17.5322 287.459 14.5842C287.459 11.6362 289.855 9.24023 292.803 9.24023C295.751 9.24023 298.147 11.6362 298.147 14.5842C298.147 17.5322 295.751 19.9282 292.803 19.9282ZM292.803 11.2402C290.959 11.2402 289.459 12.7402 289.459 14.5842C289.459 16.4282 290.959 17.9282 292.803 17.9282C294.647 17.9282 296.147 16.4282 296.147 14.5842C296.147 12.7402 294.647 11.2402 292.803 11.2402Z" fill="#231F20"/>
<path d="M293.328 13.9123C292.8 13.9123 292.36 13.5003 292.332 12.9683C292.236 11.1763 293.004 7.52028 296.612 6.50828C297.144 6.36028 297.696 6.66828 297.844 7.20028C297.992 7.73228 297.684 8.28428 297.152 8.43228C294.196 9.26428 294.324 12.7163 294.328 12.8643C294.352 13.4163 293.928 13.8843 293.38 13.9123C293.364 13.9123 293.344 13.9123 293.328 13.9123Z" fill="#231F20"/>
<path d="M174.032 45.8281C163.636 45.8281 153.844 44.4641 146.468 41.9841C138.752 39.3921 134.5 35.8001 134.5 31.8801C134.5 27.9601 138.748 24.3681 146.468 21.7761C153.844 19.2961 163.636 17.9321 174.032 17.9321C184.428 17.9321 194.22 19.2961 201.596 21.7761C209.312 24.3681 213.564 27.9601 213.564 31.8801C213.564 35.8001 209.316 39.3921 201.596 41.9841C194.22 44.4641 184.428 45.8281 174.032 45.8281ZM174.032 19.9281C151.58 19.9281 136.5 26.1081 136.5 31.8801C136.5 37.6521 151.58 43.8321 174.032 43.8321C196.484 43.8321 211.564 37.6521 211.564 31.8801C211.564 26.1081 196.484 19.9281 174.032 19.9281Z" fill="#231F20"/>
<path d="M149.253 30.9122C152.222 30.9122 154.629 28.5052 154.629 25.5362C154.629 22.5671 152.222 20.1602 149.253 20.1602C146.284 20.1602 143.877 22.5671 143.877 25.5362C143.877 28.5052 146.284 30.9122 149.253 30.9122Z" fill="white"/>
<path d="M149.253 31.9122C145.737 31.9122 142.877 29.0522 142.877 25.5362C142.877 22.0202 145.737 19.1602 149.253 19.1602C152.769 19.1602 155.629 22.0202 155.629 25.5362C155.629 29.0522 152.769 31.9122 149.253 31.9122ZM149.253 21.1602C146.841 21.1602 144.877 23.1242 144.877 25.5362C144.877 27.9482 146.841 29.9122 149.253 29.9122C151.665 29.9122 153.629 27.9482 153.629 25.5362C153.629 23.1242 151.665 21.1602 149.253 21.1602Z" fill="#231F20"/>
<path d="M157.868 26.7242C160.837 26.7242 163.244 24.3173 163.244 21.3482C163.244 18.3791 160.837 15.9722 157.868 15.9722C154.899 15.9722 152.492 18.3791 152.492 21.3482C152.492 24.3173 154.899 26.7242 157.868 26.7242Z" fill="white"/>
<path d="M157.868 27.7242C154.352 27.7242 151.492 24.8642 151.492 21.3482C151.492 17.8322 154.352 14.9722 157.868 14.9722C161.384 14.9722 164.244 17.8322 164.244 21.3482C164.244 24.8642 161.384 27.7242 157.868 27.7242ZM157.868 16.9722C155.456 16.9722 153.492 18.9362 153.492 21.3482C153.492 23.7602 155.456 25.7242 157.868 25.7242C160.28 25.7242 162.244 23.7602 162.244 21.3482C162.244 18.9362 160.28 16.9722 157.868 16.9722Z" fill="#231F20"/>
<path d="M165.589 30.9122C168.558 30.9122 170.965 28.5052 170.965 25.5362C170.965 22.5671 168.558 20.1602 165.589 20.1602C162.62 20.1602 160.213 22.5671 160.213 25.5362C160.213 28.5052 162.62 30.9122 165.589 30.9122Z" fill="white"/>
<path d="M165.589 31.9122C162.073 31.9122 159.213 29.0522 159.213 25.5362C159.213 22.0202 162.073 19.1602 165.589 19.1602C169.105 19.1602 171.965 22.0202 171.965 25.5362C171.965 29.0522 169.105 31.9122 165.589 31.9122ZM165.589 21.1602C163.177 21.1602 161.213 23.1242 161.213 25.5362C161.213 27.9482 163.177 29.9122 165.589 29.9122C168.001 29.9122 169.965 27.9482 169.965 25.5362C169.965 23.1242 168.001 21.1602 165.589 21.1602Z" fill="#231F20"/>
<path d="M157.105 36.2886C160.074 36.2886 162.481 33.8817 162.481 30.9126C162.481 27.9435 160.074 25.5366 157.105 25.5366C154.135 25.5366 151.729 27.9435 151.729 30.9126C151.729 33.8817 154.135 36.2886 157.105 36.2886Z" fill="white"/>
<path d="M157.105 37.2886C153.589 37.2886 150.729 34.4286 150.729 30.9126C150.729 27.3966 153.589 24.5366 157.105 24.5366C160.621 24.5366 163.481 27.3966 163.481 30.9126C163.481 34.4286 160.621 37.2886 157.105 37.2886ZM157.105 26.5366C154.693 26.5366 152.729 28.5006 152.729 30.9126C152.729 33.3246 154.693 35.2886 157.105 35.2886C159.517 35.2886 161.481 33.3246 161.481 30.9126C161.481 28.5006 159.517 26.5366 157.105 26.5366Z" fill="#231F20"/>
<path d="M160.213 31.6602L183.233 21.3442C183.233 21.3442 186.145 31.1842 174.965 35.8162C174.965 35.8162 166.085 39.6242 160.213 31.6602Z" fill="white"/>
<path d="M169.989 37.7043C166.749 37.7043 162.641 36.6363 159.409 32.2563C159.229 32.0123 159.169 31.7003 159.245 31.4083C159.321 31.1163 159.529 30.8723 159.805 30.7483L182.825 20.4323C183.089 20.3123 183.389 20.3163 183.653 20.4323C183.917 20.5523 184.113 20.7803 184.193 21.0563C184.225 21.1643 187.221 31.8163 175.349 36.7363C175.309 36.7523 173.033 37.6963 169.989 37.6963V37.7043ZM161.805 32.0443C167.081 37.9723 174.253 35.0363 174.569 34.9003C182.689 31.5363 182.825 25.3403 182.489 22.7763L161.801 32.0443H161.805Z" fill="#231F20"/>
<path d="M168.584 33.0357L191.604 22.7197C191.604 22.7197 194.516 32.5597 183.336 37.1917C183.336 37.1917 174.456 40.9997 168.584 33.0357Z" fill="white"/>
<path d="M178.36 39.0797C175.12 39.0797 171.012 38.0117 167.78 33.6317C167.6 33.3877 167.54 33.0757 167.616 32.7837C167.692 32.4917 167.9 32.2477 168.176 32.1237L191.196 21.8077C191.46 21.6877 191.76 21.6917 192.024 21.8077C192.288 21.9277 192.484 22.1557 192.564 22.4317C192.596 22.5397 195.592 33.1917 183.72 38.1117C183.68 38.1277 181.404 39.0717 178.36 39.0717V39.0797ZM170.18 33.4197C175.496 39.3677 182.864 36.3117 182.944 36.2757C191.064 32.9117 191.2 26.7157 190.868 24.1517L170.18 33.4197Z" fill="#231F20"/>
<path d="M177.328 35.4122L200.348 25.0962C200.348 25.0962 203.26 34.9362 192.08 39.5682C192.08 39.5682 183.2 43.3762 177.328 35.4122Z" fill="white"/>
<path d="M187.104 41.4562C183.868 41.4562 179.756 40.3882 176.524 36.0082C176.344 35.7642 176.284 35.4522 176.36 35.1602C176.436 34.8682 176.644 34.6242 176.92 34.5002L199.94 24.1842C200.204 24.0642 200.504 24.0682 200.768 24.1842C201.032 24.3042 201.228 24.5322 201.308 24.8082C201.34 24.9162 204.336 35.5682 192.464 40.4882C192.424 40.5042 190.148 41.4482 187.104 41.4482V41.4562ZM178.924 35.7922C184.2 41.7202 191.372 38.7842 191.688 38.6482C199.808 35.2842 199.944 29.0882 199.608 26.5242L178.92 35.7922H178.924Z" fill="#231F20"/>
<path d="M416.068 45.9238C398.456 45.9238 380.236 41.3398 380.236 33.6758C380.236 29.3638 386.12 25.6078 396.38 23.3718C396.92 23.2518 397.452 23.5958 397.572 24.1358C397.688 24.6758 397.348 25.2078 396.808 25.3278C387.82 27.2878 382.24 30.4878 382.24 33.6798C382.24 36.1438 385.796 38.7598 391.748 40.6838C398.232 42.7758 406.868 43.9318 416.068 43.9318C425.268 43.9318 433.908 42.7798 440.388 40.6838C446.344 38.7598 449.896 36.1438 449.896 33.6798C449.896 30.3878 443.772 27.0238 434.292 25.1118C433.752 25.0038 433.4 24.4758 433.508 23.9358C433.616 23.3958 434.144 23.0438 434.688 23.1518C445.624 25.3558 451.896 29.1958 451.896 33.6798C451.896 41.3478 433.68 45.9278 416.064 45.9278L416.068 45.9238Z" fill="#231F20"/>
<path d="M433.652 37.5922H397.687C397.135 37.5922 396.688 37.1442 396.688 36.5922V20.6602C396.688 20.1082 397.135 19.6602 397.687 19.6602C398.239 19.6602 398.687 20.1082 398.687 20.6602V35.5922H432.652V20.6602C432.652 20.1082 433.1 19.6602 433.652 19.6602C434.204 19.6602 434.652 20.1082 434.652 20.6602V36.5922C434.652 37.1442 434.204 37.5922 433.652 37.5922Z" fill="#231F20"/>
<path d="M433.652 32.9238H397.687C397.135 32.9238 396.688 32.4758 396.688 31.9238C396.688 31.3718 397.135 30.9238 397.687 30.9238H433.652C434.204 30.9238 434.652 31.3718 434.652 31.9238C434.652 32.4758 434.204 32.9238 433.652 32.9238Z" fill="#231F20"/>
<path d="M433.652 21.6596H397.688C397.384 21.6596 397.096 21.5236 396.908 21.2836C396.72 21.0476 396.648 20.7356 396.712 20.4396C396.788 20.0996 398.708 12.0636 410.86 9.73958C411.06 9.69958 411.264 9.72358 411.452 9.80758L434.056 19.7396C434.488 19.9316 434.728 20.3996 434.632 20.8596C434.536 21.3236 434.128 21.6556 433.652 21.6556V21.6596ZM399.12 19.6596H428.892L410.932 11.7676C403.012 13.3716 400.1 17.5636 399.12 19.6596Z" fill="#231F20"/>
<path d="M536.421 53.3477C525.741 53.3477 515.685 52.0997 508.109 49.8277C500.049 47.4157 495.789 44.1797 495.789 40.4797C495.789 36.7797 500.049 33.5437 508.109 31.1317C515.685 28.8637 525.741 27.6157 536.421 27.6157C547.101 27.6157 557.157 28.8637 564.733 31.1317C572.793 33.5437 577.053 36.7797 577.053 40.4797C577.053 44.1797 572.793 47.4157 564.733 49.8277C557.157 52.0957 547.101 53.3477 536.421 53.3477ZM536.421 29.6117C525.929 29.6117 516.077 30.8317 508.685 33.0437C501.865 35.0877 497.789 37.8637 497.789 40.4757C497.789 43.0877 501.861 45.8677 508.685 47.9077C516.081 50.1237 525.929 51.3397 536.421 51.3397C546.913 51.3397 556.765 50.1197 564.157 47.9077C570.981 45.8637 575.053 43.0877 575.053 40.4757C575.053 37.8637 570.981 35.0837 564.157 33.0437C556.761 30.8277 546.913 29.6117 536.421 29.6117Z" fill="#231F20"/>
<path d="M511.836 39.124C515.15 39.124 517.836 36.4377 517.836 33.124C517.836 29.8103 515.15 27.124 511.836 27.124C508.522 27.124 505.836 29.8103 505.836 33.124C505.836 36.4377 508.522 39.124 511.836 39.124Z" fill="white"/>
<path d="M511.836 40.124C507.976 40.124 504.836 36.984 504.836 33.124C504.836 29.264 507.976 26.124 511.836 26.124C515.696 26.124 518.836 29.264 518.836 33.124C518.836 36.984 515.696 40.124 511.836 40.124ZM511.836 28.12C509.08 28.12 506.836 30.364 506.836 33.12C506.836 35.876 509.08 38.12 511.836 38.12C514.592 38.12 516.836 35.876 516.836 33.12C516.836 30.364 514.592 28.12 511.836 28.12Z" fill="#231F20"/>
<path d="M540.557 45.124C543.87 45.124 546.557 42.4377 546.557 39.124C546.557 35.8103 543.87 33.124 540.557 33.124C537.243 33.124 534.557 35.8103 534.557 39.124C534.557 42.4377 537.243 45.124 540.557 45.124Z" fill="white"/>
<path d="M540.557 46.124C536.697 46.124 533.557 42.984 533.557 39.124C533.557 35.264 536.697 32.124 540.557 32.124C544.417 32.124 547.557 35.264 547.557 39.124C547.557 42.984 544.417 46.124 540.557 46.124ZM540.557 34.124C537.801 34.124 535.557 36.368 535.557 39.124C535.557 41.88 537.801 44.124 540.557 44.124C543.313 44.124 545.557 41.88 545.557 39.124C545.557 36.368 543.313 34.124 540.557 34.124Z" fill="#231F20"/>
<path d="M523.325 34.0962H518.769C517.252 34.0962 516.021 35.3265 516.021 36.8442V41.4002C516.021 42.9179 517.252 44.1482 518.769 44.1482H523.325C524.843 44.1482 526.073 42.9179 526.073 41.4002V36.8442C526.073 35.3265 524.843 34.0962 523.325 34.0962Z" fill="white"/>
<path d="M523.325 45.1521H518.769C516.701 45.1521 515.021 43.4721 515.021 41.4041V36.8481C515.021 34.7801 516.701 33.1001 518.769 33.1001H523.325C525.393 33.1001 527.073 34.7801 527.073 36.8481V41.4041C527.073 43.4721 525.393 45.1521 523.325 45.1521ZM518.769 35.0961C517.805 35.0961 517.021 35.8801 517.021 36.8441V41.4001C517.021 42.3641 517.805 43.1481 518.769 43.1481H523.325C524.289 43.1481 525.073 42.3641 525.073 41.4001V36.8441C525.073 35.8801 524.289 35.0961 523.325 35.0961H518.769Z" fill="#231F20"/>
<path d="M554.755 24.124H550.199C548.681 24.124 547.451 25.3543 547.451 26.872V31.428C547.451 32.9457 548.681 34.176 550.199 34.176H554.755C556.273 34.176 557.503 32.9457 557.503 31.428V26.872C557.503 25.3543 556.273 24.124 554.755 24.124Z" fill="white"/>
<path d="M554.755 35.1799H550.199C548.131 35.1799 546.451 33.4999 546.451 31.4319V26.8759C546.451 24.8079 548.131 23.1279 550.199 23.1279H554.755C556.823 23.1279 558.503 24.8079 558.503 26.8759V31.4319C558.503 33.4999 556.823 35.1799 554.755 35.1799ZM550.199 25.1239C549.235 25.1239 548.451 25.9079 548.451 26.8719V31.4279C548.451 32.3919 549.235 33.1759 550.199 33.1759H554.755C555.719 33.1759 556.503 32.3919 556.503 31.4279V26.8719C556.503 25.9079 555.719 25.1239 554.755 25.1239H550.199Z" fill="#231F20"/>
<path d="M562.345 28.7241H557.789C556.271 28.7241 555.041 29.9544 555.041 31.4721V36.0281C555.041 37.5458 556.271 38.7761 557.789 38.7761H562.345C563.863 38.7761 565.093 37.5458 565.093 36.0281V31.4721C565.093 29.9544 563.863 28.7241 562.345 28.7241Z" fill="white"/>
<path d="M562.349 39.78H557.793C555.725 39.78 554.045 38.1 554.045 36.032V31.476C554.045 29.408 555.725 27.728 557.793 27.728H562.349C564.417 27.728 566.097 29.408 566.097 31.476V36.032C566.097 38.1 564.417 39.78 562.349 39.78ZM557.789 29.724C556.825 29.724 556.041 30.508 556.041 31.472V36.028C556.041 36.992 556.825 37.776 557.789 37.776H562.345C563.309 37.776 564.093 36.992 564.093 36.028V31.472C564.093 30.508 563.309 29.724 562.345 29.724H557.789Z" fill="#231F20"/>
<path d="M510.896 32.4642C510.472 32.4642 510.08 32.1962 509.944 31.7722L506.372 20.7122C506.204 20.1882 506.492 19.6242 507.016 19.4522C507.54 19.2842 508.104 19.5722 508.276 20.0962L511.848 31.1562C512.016 31.6802 511.728 32.2442 511.204 32.4162C511.1 32.4482 511 32.4642 510.896 32.4642Z" fill="#231F20"/>
<path d="M561.005 32.9237C560.953 32.9237 560.905 32.9237 560.853 32.9117C560.309 32.8277 559.933 32.3197 560.013 31.7717L561.765 20.2517C561.849 19.7037 562.361 19.3317 562.905 19.4117C563.449 19.4957 563.825 20.0037 563.745 20.5517L561.993 32.0717C561.917 32.5677 561.493 32.9197 561.005 32.9197V32.9237Z" fill="#231F20"/>
<path d="M540.556 38.7281C540.028 38.7281 539.584 38.3121 539.56 37.7761L538.976 25.9801C538.948 25.4281 539.372 24.9601 539.924 24.9321C540.476 24.9081 540.944 25.3281 540.972 25.8801L541.556 37.6761C541.584 38.2281 541.16 38.6961 540.608 38.7241C540.592 38.7241 540.576 38.7241 540.556 38.7241V38.7281Z" fill="#231F20"/>
<path d="M716 54.4278C715.448 54.4278 715 53.9798 715 53.4278V40.5278C715 39.9758 715.448 39.5278 716 39.5278C716.552 39.5278 717 39.9758 717 40.5278V53.4278C717 53.9798 716.552 54.4278 716 54.4278Z" fill="#231F20"/>
</g>
<defs>
<clipPath id="clip0_1943_88723">
<rect width="720" height="170" fill="white"/>
</clipPath>
</defs>
</svg>
