<svg width="150" height="105" viewBox="0 0 150 105" fill="none" xmlns="http://www.w3.org/2000/svg">
<g clip-path="url(#clip0_2965_146487)">
<path d="M150 0H0V104.348H150V0Z" fill="#FFF080"/>
<path d="M103.71 84.8323C121.576 79.3293 134.559 70.0017 132.71 63.9984C130.861 57.9951 114.879 57.5895 97.0141 63.0924C79.1487 68.5953 66.165 77.9229 68.0142 83.9262C69.8633 89.9295 85.8451 90.3352 103.71 84.8323Z" fill="white"/>
<path d="M73.546 89.1674C73.4938 89.1674 73.4482 89.1674 73.396 89.1478C69.7895 88.3065 67.5264 86.7152 66.8612 84.5435C65.9351 81.5174 68.1003 77.8652 73.1221 73.9783C73.409 73.7565 73.8134 73.8087 74.0351 74.0956C74.2569 74.3826 74.2047 74.787 73.9177 75.0087C69.4243 78.4848 67.3634 81.7391 68.1069 84.1652C68.7656 86.3109 71.5047 87.3674 73.6895 87.8826C74.0417 87.9674 74.2569 88.313 74.1786 88.6652C74.1069 88.9652 73.8395 89.1674 73.546 89.1674Z" fill="#241F20"/>
<path d="M90.5414 89.0304C90.2284 89.0304 89.9479 88.8022 89.8958 88.4761C89.8436 88.1174 90.0849 87.7848 90.4371 87.7326C94.6501 87.0739 99.0262 86.05 103.448 84.6935C120.874 79.3457 134.139 70.0652 132.411 64.437C132.307 64.0913 132.496 63.7261 132.841 63.6217C133.187 63.5174 133.552 63.713 133.657 64.0522C135.659 70.5804 122.557 80.1935 103.826 85.9391C99.3458 87.3152 94.911 88.3522 90.6392 89.0239C90.6066 89.0239 90.5675 89.0304 90.5349 89.0304H90.5414Z" fill="#241F20"/>
<path d="M79.9081 43.6011C80.9417 37.4051 66.8318 29.8889 48.3929 26.8132C29.9541 23.7375 14.1686 26.2671 13.135 32.4631C12.1015 38.6591 26.2113 46.1753 44.6502 49.251C63.0891 52.3267 78.8746 49.7972 79.9081 43.6011Z" fill="white"/>
<path d="M25.331 32.5761C25.331 32.5761 22.3636 22.5392 35.4788 22.2196C39.4505 22.1218 43.3766 23.0348 46.9636 24.75C50.8766 26.6218 57.1571 29.4196 61.9701 30.5544C61.9701 30.5544 59.7788 29.9674 59.8766 29.987C70.1614 32.2761 66.5744 40.0826 60.9331 40.1479C59.4592 40.1674 53.1592 38.8826 50.8831 38.3544C50.8831 38.3544 45.0592 37.187 40.5723 38.7326C38.7853 39.3457 36.9201 39.7044 35.0418 39.6C31.4549 39.3979 26.5571 38.0805 25.331 32.5826" fill="#FF5E00"/>
<path d="M123.644 29.6905C124.127 28.1514 120.585 25.6731 115.727 24.1405C110.874 22.6144 106.544 22.6209 106.061 24.1535C106.061 24.1535 104.131 28.4579 104.9 32.6579C101.803 32.6122 99.5592 33.3688 99.0896 34.8557C98.2809 37.4188 103.035 41.2014 109.7 43.3014C116.366 45.4014 122.431 45.0231 123.233 42.4535C123.69 40.9992 122.359 39.1535 119.907 37.4448L119.679 37.3731C122.75 34.3666 123.644 29.6905 123.644 29.6905Z" fill="white"/>
<path d="M59.7135 51.8674C55.0896 51.8674 49.944 51.437 44.5374 50.537C25.4287 47.3543 11.3353 39.6391 12.444 32.9739C12.6983 31.4609 13.6831 30.137 15.3853 29.0217C15.6853 28.8261 16.0896 28.9109 16.2853 29.2109C16.4809 29.5109 16.3961 29.9152 16.0961 30.1109C14.7135 31.0174 13.9179 32.0478 13.7287 33.1891C12.77 38.9348 26.9809 46.2848 44.7527 49.2457C62.5244 52.2065 78.3527 49.8587 79.3113 44.1196C79.8005 41.1848 76.0961 37.5196 69.3983 34.3239C69.0722 34.1674 68.9353 33.7826 69.0918 33.4565C69.2483 33.1304 69.6331 32.9935 69.9592 33.15C77.4266 36.7174 81.2092 40.6891 80.6027 44.3348C79.807 49.1087 71.4331 51.8609 59.72 51.8609L59.7135 51.8674Z" fill="#241F20"/>
<path d="M60.9065 40.8C59.2565 40.8 52.8978 39.4891 50.7326 38.987C50.6935 38.9804 45.0391 37.8783 40.7804 39.3457C38.7456 40.0435 36.8022 40.35 34.9956 40.2457C29.3674 39.9326 25.7087 37.2652 24.6913 32.7391C24.587 32.3674 23.5761 28.5326 25.8587 25.4087C27.6326 22.9761 30.8609 21.6848 35.4587 21.5739C39.4239 21.4761 43.487 22.3761 47.2369 24.163C50.85 25.8913 55.7674 28.0696 60.0196 29.3544C60.6326 29.4913 61.187 29.6413 61.7022 29.8109C61.9565 29.8761 62.1326 29.9283 62.1326 29.9283C62.2239 29.9544 62.3022 29.9935 62.3739 30.0522C67.0304 31.8391 67.1413 34.8522 67.0369 35.837C66.7565 38.5435 64.0174 40.7674 60.9391 40.8H60.9065ZM46.1283 37.2717C48.7696 37.2717 50.863 37.6826 51.013 37.7087C53.6739 38.3283 59.5435 39.4957 60.9 39.4957C60.9065 39.4957 60.9196 39.4957 60.9261 39.4957C63.3652 39.4696 65.5239 37.7674 65.7391 35.7C65.9413 33.7565 64.3565 32.1 61.4217 31.0957C56.7326 29.9217 50.8435 27.3326 46.6761 25.337C43.1152 23.6348 39.2478 22.7804 35.4913 22.8717C31.3239 22.9761 28.4413 24.0783 26.9152 26.1652C24.9456 28.8587 25.937 32.3609 25.95 32.3935C25.95 32.4065 25.9565 32.4196 25.963 32.4326C27.0848 37.4544 31.5326 38.7457 35.0739 38.9413C36.7304 39.0326 38.4587 38.7587 40.3565 38.1065C42.2348 37.4609 44.3087 37.2652 46.1283 37.2652V37.2717Z" fill="#241F20"/>
<path d="M38.0351 35.1913C34.8916 35.1913 32.3612 34.5848 30.4568 33.3717C28.0112 31.8065 27.6068 29.7848 27.5873 29.7C27.5221 29.3478 27.7503 29.0022 28.109 28.937C28.4677 28.8717 28.8003 29.1 28.8721 29.4522C28.8851 29.5304 29.2308 31.0565 31.2134 32.3022C33.4438 33.6978 38.0351 34.8783 47.2699 32.55C47.6221 32.4652 47.9742 32.6739 48.059 33.0261C48.1438 33.3783 47.9351 33.7304 47.5895 33.8152C43.9568 34.7348 40.7612 35.1913 38.0286 35.1913H38.0351Z" fill="#241F20"/>
<path d="M71.9559 41.017C72.3257 38.8 69.6014 36.4984 65.871 35.8762C62.1406 35.2539 58.8167 36.5467 58.4469 38.7636C58.0771 40.9805 60.8014 43.2821 64.5318 43.9044C68.2623 44.5266 71.5861 43.2339 71.9559 41.017Z" fill="#00E291"/>
<path d="M66.3787 44.713C65.7396 44.713 65.0809 44.6609 64.4157 44.55C62.4983 44.2304 60.757 43.4804 59.5244 42.4304C58.1939 41.3022 57.5809 39.9652 57.7961 38.6544C58.1157 36.7304 60.2091 35.3348 63.1244 35.1C63.4765 35.0739 63.7961 35.3348 63.8287 35.7C63.8548 36.0587 63.5874 36.3717 63.2287 36.4043C60.9591 36.587 59.2961 37.5848 59.0809 38.8761C58.9439 39.7109 59.3939 40.6239 60.3657 41.4391C61.4287 42.3326 62.9417 42.9848 64.6309 43.2652C66.32 43.5457 67.9635 43.4217 69.2548 42.9196C70.4352 42.463 71.1591 41.7457 71.2961 40.9109C71.3548 40.5587 71.6939 40.3174 72.0461 40.3761C72.3983 40.4348 72.6396 40.7739 72.5809 41.1261C72.3657 42.437 71.3483 43.5065 69.7244 44.1391C68.7396 44.5239 67.5852 44.7196 66.3722 44.7196L66.3787 44.713Z" fill="#241F20"/>
<path d="M64.2294 42.8111C64.5992 40.5942 61.8748 38.2926 58.1444 37.6703C54.414 37.0481 51.0901 38.3408 50.7204 40.5577C50.3506 42.7747 53.0749 45.0763 56.8053 45.6985C60.5357 46.3208 63.8596 45.028 64.2294 42.8111Z" fill="#00E291"/>
<path d="M58.6749 46.5065C58.0357 46.5065 57.3705 46.4543 56.6923 46.337C52.5444 45.6457 49.6357 43.0565 50.0727 40.4478C50.5097 37.8326 54.0966 36.3261 58.2444 37.0239C60.6444 37.4217 62.7771 38.5239 63.9444 39.9587C64.7075 40.8978 65.0271 41.9217 64.864 42.913C64.4988 45.0978 61.9292 46.5065 58.6749 46.5065ZM56.301 38.1652C53.7184 38.1652 51.6053 39.163 51.3575 40.663C51.051 42.4891 53.5944 44.5043 56.901 45.0522C60.214 45.6065 63.2662 44.5239 63.5727 42.6978C63.7031 41.9217 63.2988 41.2239 62.9336 40.7804C61.9553 39.5804 60.1227 38.6543 58.0292 38.3087C57.4423 38.2109 56.8618 38.1652 56.301 38.1652Z" fill="#241F20"/>
<path d="M55.3436 38.2043C55.2588 38.2043 55.174 38.1848 55.0958 38.1522C55.011 38.1196 54.9392 38.0739 54.8805 38.0152C54.7631 37.8913 54.6914 37.7217 54.6914 37.5522C54.6914 37.3826 54.7631 37.213 54.8805 37.0891C54.9392 37.0304 55.011 36.9848 55.0958 36.9522C55.2523 36.887 55.4349 36.887 55.5914 36.9522C55.6697 36.9848 55.7414 37.0304 55.8066 37.0891C55.924 37.213 55.9958 37.3826 55.9958 37.5522C55.9958 37.7217 55.924 37.8913 55.8066 38.0152C55.7414 38.0739 55.6697 38.1196 55.5914 38.1522C55.5131 38.1848 55.4284 38.2043 55.3436 38.2043Z" fill="#241F20"/>
<path d="M63.5218 41.1196C63.3066 41.1196 63.0914 41.0087 62.9675 40.8131C62.7783 40.5065 62.8696 40.1087 63.1762 39.9131C63.4827 39.7239 63.887 39.8152 64.0762 40.1217C64.2653 40.4283 64.174 40.8261 63.8675 41.0217C63.7566 41.0935 63.6392 41.1196 63.5218 41.1196Z" fill="#241F20"/>
<path d="M83.0947 77.8066C83.0947 77.8066 96.673 85.9653 113.525 73.9587C113.525 73.9587 108.001 63.4392 98.0491 62.3566C98.0491 62.3566 81.5947 70.0783 83.0947 77.8131V77.8066Z" fill="white"/>
<path d="M108.862 55.2674C94.879 55.3652 85.0899 62.1935 85.0899 62.1935C69.6203 68.7348 73.8594 81.2435 73.8594 81.2435C82.5594 85.3652 86.8442 84.0152 86.8442 84.0152C86.8442 84.0152 80.9747 70.0718 99.516 64.1892C99.5616 64.1761 99.6334 64.1631 99.6855 64.15C103.129 65.3305 111.999 69.1783 113.486 77.937C113.486 77.937 124.044 73.1174 126.086 66.7457C125.786 63.6479 123.386 61.1631 120.744 59.3239C120.744 59.3239 116.309 55.2087 108.855 55.2609L108.862 55.2674Z" fill="white"/>
<path d="M74.2294 81.7978C73.9555 81.7978 73.7011 81.6283 73.6098 81.3544C73.5707 81.2305 69.6316 68.9565 83.3925 62.4674C83.7185 62.3109 84.1033 62.4544 84.2598 62.7805C84.4164 63.1065 84.2729 63.4978 83.9468 63.6478C71.2555 69.6283 74.6925 80.4805 74.8425 80.937C74.9533 81.2761 74.7707 81.6478 74.4316 81.7587C74.3598 81.7848 74.2946 81.7913 74.2229 81.7913L74.2294 81.7978Z" fill="#241F20"/>
<path d="M78.3516 82.737C78.0776 82.737 77.8298 82.5674 77.732 82.2935C77.6863 82.1631 73.4929 69.3283 87.7624 63.5435C88.095 63.4066 88.4798 63.5696 88.6103 63.9022C88.7472 64.2348 88.5842 64.6196 88.2516 64.75C75.1429 70.0652 78.8016 81.3935 78.9646 81.8696C79.082 82.2087 78.8994 82.5805 78.5537 82.6979C78.482 82.7239 78.4168 82.7305 78.345 82.7305L78.3516 82.737Z" fill="#241F20"/>
<path d="M82.475 83.6696C82.2207 83.6696 81.9794 83.5196 81.875 83.2652C81.8229 83.1413 77.0294 71.0761 92.0555 64.3913C92.3881 64.2413 92.7729 64.3913 92.9163 64.7239C93.0598 65.05 92.9163 65.4413 92.5837 65.5848C78.7446 71.7413 82.8924 82.3196 83.0816 82.7696C83.2185 83.1022 83.062 83.4804 82.7294 83.6174C82.6511 83.65 82.5663 83.6696 82.4816 83.6696H82.475Z" fill="#241F20"/>
<path d="M86.6024 84.6087C86.3741 84.6087 86.1524 84.4913 86.035 84.2761C85.9437 84.1131 83.7719 80.187 85.3958 75.2044C86.9024 70.5935 91.0959 66.7065 97.8654 63.6478C98.1915 63.4978 98.5828 63.6478 98.7263 63.9739C98.8763 64.3 98.7263 64.6913 98.4002 64.8348C91.9893 67.7304 88.0372 71.3435 86.6415 75.5826C85.1872 80.0109 87.1502 83.5978 87.1698 83.6304C87.3458 83.9435 87.235 84.3413 86.9219 84.5174C86.8176 84.5761 86.7132 84.6022 86.6024 84.6022V84.6087Z" fill="#241F20"/>
<path d="M94.1868 81.2631C88.9042 81.2631 85.6694 79.6326 85.4281 79.5022C85.1085 79.3326 84.9846 78.9413 85.1542 78.6218C85.3172 78.3022 85.715 78.1783 86.0346 78.3479C86.0607 78.3609 88.6563 79.6848 92.9802 79.9C96.9715 80.0957 103.298 79.3652 110.758 74.7413C111.065 74.5522 111.469 74.6435 111.658 74.95C111.848 75.2565 111.756 75.6609 111.45 75.85C104.602 80.0892 98.6607 81.2565 94.1868 81.2565V81.2631Z" fill="#241F20"/>
<path d="M93.411 77.2587C89.9806 77.2587 87.5284 76.587 86.4719 76.0653C86.1523 75.9022 86.0154 75.5109 86.1784 75.1913C86.3414 74.8718 86.7327 74.7413 87.0523 74.8979C89.8241 76.2805 98.8958 77.2653 109.207 71.487C109.52 71.3109 109.918 71.4218 110.094 71.7348C110.27 72.0479 110.159 72.4457 109.846 72.6218C103.409 76.2348 97.6567 77.2653 93.411 77.2653V77.2587Z" fill="#241F20"/>
<path d="M93.4226 73.5087C91.0878 73.5087 89.2291 73.1696 88.0357 72.7522C87.6965 72.6348 87.5139 72.2631 87.6313 71.9239C87.7487 71.5848 88.1204 71.4022 88.4596 71.5196C91.1661 72.4522 98.4835 73.0587 106.792 68.6565C107.112 68.487 107.503 68.6109 107.673 68.9304C107.842 69.25 107.718 69.6413 107.399 69.8109C102.064 72.6348 97.14 73.5022 93.4226 73.5022V73.5087Z" fill="#241F20"/>
<path d="M87.085 57.5435C88.4285 57.5565 89.7198 58.2935 90.3785 59.5652C91.3307 61.4044 90.6133 63.6674 88.7741 64.6196C86.935 65.5717 84.672 64.8544 83.7198 63.0152C82.7676 61.1761 83.485 58.913 85.3241 57.9609C85.885 57.6674 86.4915 57.5304 87.085 57.537" fill="#FF5E00"/>
<path d="M95.0681 69.6152C93.9985 69.6152 93.0137 69.5304 92.0877 69.4196C91.729 69.3804 91.4746 69.0543 91.5137 68.6956C91.5529 68.337 91.8724 68.0761 92.2376 68.1217C95.2311 68.4609 98.8703 68.6043 104.199 65.9043C104.525 65.7413 104.909 65.8717 105.072 66.1913C105.235 66.5109 105.105 66.9022 104.785 67.0652C100.781 69.0935 97.6703 69.6087 95.0681 69.6087V69.6152Z" fill="#241F20"/>
<path d="M112.376 75.8239C112.122 75.8239 111.887 75.6739 111.776 75.4326C106.083 62.3239 90.6065 63.6478 90.4499 63.6609C90.0913 63.6935 89.7717 63.4326 89.7391 63.0739C89.7065 62.7152 89.9673 62.3957 90.326 62.3631C90.4956 62.35 106.898 60.9218 112.976 74.9109C113.12 75.2435 112.97 75.6283 112.637 75.7718C112.552 75.8109 112.467 75.8239 112.376 75.8239Z" fill="#241F20"/>
<path d="M116.25 73.7696C115.996 73.7696 115.754 73.6196 115.65 73.3652C110.407 60.7196 93.6783 61.1826 93.5088 61.1891C93.1305 61.2152 92.8436 60.9218 92.8305 60.5631C92.8175 60.2044 93.0979 59.8978 93.4566 59.8848C93.6262 59.8848 111.261 59.3761 116.85 72.8631C116.987 73.1957 116.831 73.5804 116.498 73.7174C116.42 73.75 116.335 73.7696 116.25 73.7696Z" fill="#241F20"/>
<path d="M118.277 68.637C118.068 68.637 117.86 68.5391 117.736 68.35C113.033 61.4044 102.488 59.2587 99.3704 58.7631C99.0117 58.7044 98.7704 58.3718 98.8291 58.0196C98.8878 57.6609 99.2204 57.4196 99.5726 57.4783C103.74 58.137 113.953 60.4391 118.812 67.6196C119.014 67.9196 118.936 68.3239 118.636 68.5261C118.525 68.6044 118.394 68.637 118.27 68.637H118.277Z" fill="#241F20"/>
<path d="M122.966 70.6065C122.686 70.6065 122.432 70.4239 122.34 70.1435C119.758 61.7304 111.41 57.9674 106.271 57.9674C106.251 57.9674 106.232 57.9674 106.219 57.9674C105.86 57.9674 105.566 57.6804 105.566 57.3152C105.566 56.9565 105.853 56.6631 106.219 56.6631H106.271C111.814 56.6631 120.814 60.7131 123.592 69.7587C123.697 70.1044 123.508 70.4696 123.162 70.5739C123.097 70.5935 123.032 70.6 122.973 70.6L122.966 70.6065Z" fill="#241F20"/>
<path d="M125.845 67.3457C125.564 67.3457 125.31 67.1631 125.219 66.8826C122.669 58.5804 113.336 54.6283 108.027 55.5544C107.669 55.6131 107.336 55.3783 107.271 55.0261C107.212 54.6739 107.447 54.3348 107.799 54.2696C110.969 53.7218 114.953 54.6348 118.475 56.7218C122.408 59.0565 125.245 62.5326 126.464 66.5044C126.569 66.85 126.379 67.2152 126.034 67.3196C125.969 67.3391 125.903 67.3457 125.845 67.3457Z" fill="#241F20"/>
<path d="M105.365 60.1457C107.436 60.1457 109.115 58.4667 109.115 56.3957C109.115 54.3246 107.436 52.6457 105.365 52.6457C103.294 52.6457 101.615 54.3246 101.615 56.3957C101.615 58.4667 103.294 60.1457 105.365 60.1457Z" fill="#FF5E00"/>
<path d="M87.0576 65.6891C85.4663 65.6891 83.9271 64.8217 83.1445 63.3152C82.8706 62.7935 82.7141 62.2326 82.6619 61.6522C82.6358 61.2935 82.9032 60.9804 83.2619 60.9478C83.6337 60.9152 83.9337 61.1826 83.9663 61.5478C83.9989 61.9587 84.1163 62.35 84.3054 62.7217C85.0945 64.2413 86.9663 64.8348 88.4793 64.0456C89.2163 63.6674 89.7576 63.0217 90.0054 62.2326C90.2532 61.4435 90.1815 60.6022 89.8032 59.8717C89.1771 58.6717 87.8663 58.013 86.5358 58.2413C86.1771 58.3065 85.8445 58.0652 85.7858 57.7065C85.7271 57.3543 85.9619 57.0152 86.3206 56.9565C88.2184 56.6369 90.0771 57.563 90.9641 59.2717C91.5054 60.3152 91.6097 61.5087 91.251 62.6304C90.8989 63.7522 90.1228 64.6652 89.0793 65.2065C88.4337 65.5391 87.7423 65.7022 87.0576 65.7022V65.6891Z" fill="#241F20"/>
<path d="M105.358 60.7978C104.647 60.7978 103.943 60.6218 103.304 60.2826C102.267 59.7348 101.504 58.8087 101.158 57.687C100.812 56.5652 100.923 55.3717 101.477 54.3348C102.032 53.2978 102.951 52.5348 104.073 52.1891C104.419 52.0848 104.784 52.2739 104.888 52.6196C104.993 52.9652 104.804 53.3304 104.458 53.4348C103.669 53.6761 103.017 54.2109 102.632 54.9413C102.247 55.6717 102.162 56.5131 102.41 57.3022C102.651 58.0913 103.186 58.7435 103.917 59.1283C104.647 59.5131 105.482 59.5978 106.278 59.35C107.908 58.8478 108.827 57.1131 108.332 55.4826C108.201 55.0522 107.98 54.6674 107.686 54.3348C107.445 54.0674 107.471 53.6565 107.738 53.4152C108.006 53.1739 108.417 53.2 108.658 53.4674C109.082 53.9435 109.388 54.4913 109.577 55.1044C110.288 57.4261 108.977 59.8913 106.662 60.6022C106.238 60.7326 105.801 60.7978 105.364 60.7978H105.358Z" fill="#241F20"/>
<path d="M98.8628 59.5913C100.995 59.5913 102.724 57.8627 102.724 55.7304C102.724 53.5981 100.995 51.8696 98.8628 51.8696C96.7305 51.8696 95.002 53.5981 95.002 55.7304C95.002 57.8627 96.7305 59.5913 98.8628 59.5913Z" fill="#FF5E00"/>
<path d="M98.8556 60.25C98.1252 60.25 97.4078 60.0739 96.7491 59.7217C95.6861 59.1544 94.9035 58.2087 94.5513 57.0609C94.1665 55.8022 94.3491 54.4391 95.047 53.3304C95.2426 53.0239 95.647 52.9326 95.947 53.1283C96.2535 53.3174 96.3448 53.7217 96.1491 54.0283C95.647 54.8174 95.523 55.7891 95.797 56.6826C96.0513 57.5044 96.6057 58.1761 97.3622 58.5739C98.1187 58.9783 98.9861 59.0565 99.8078 58.8087C100.63 58.5544 101.301 58 101.699 57.2435C102.103 56.487 102.182 55.6196 101.934 54.7978C101.745 54.1848 101.38 53.6435 100.884 53.2457C100.603 53.0174 100.558 52.6065 100.786 52.3261C101.014 52.0457 101.419 52 101.706 52.2283C102.41 52.7957 102.919 53.5522 103.186 54.4131C103.538 55.5674 103.421 56.787 102.86 57.85C102.299 58.9131 101.347 59.6957 100.199 60.0478C99.7622 60.1848 99.3122 60.25 98.8687 60.25H98.8556Z" fill="#241F20"/>
<path d="M93.5353 65.2522C95.8621 65.2522 97.7484 63.366 97.7484 61.0392C97.7484 58.7124 95.8621 56.8261 93.5353 56.8261C91.2085 56.8261 89.3223 58.7124 89.3223 61.0392C89.3223 63.366 91.2085 65.2522 93.5353 65.2522Z" fill="#FF5E00"/>
<path d="M128.053 63.2565C128.379 63.8435 127.316 64.763 127.271 65.4348C127.232 66.0609 128.242 67.0391 127.923 67.6522C127.629 68.2065 126.221 67.9913 125.725 68.4739C125.275 68.9174 125.497 70.3261 124.897 70.6652C124.297 71.0043 123.214 70.0652 122.601 70.2152C121.929 70.3782 121.369 71.6891 120.742 71.6435C120.051 71.5913 119.751 70.2152 119.203 69.9217C118.616 69.6022 117.266 70.0196 116.947 69.4391C116.627 68.8587 117.684 67.9326 117.729 67.2609C117.769 66.6348 116.758 65.6565 117.077 65.0435C117.371 64.4891 118.779 64.7043 119.275 64.2217C119.725 63.7782 119.503 62.3696 120.103 62.0304C120.703 61.6913 121.786 62.6304 122.399 62.4804C123.071 62.3174 123.632 61.0065 124.258 61.0522C124.949 61.1043 125.249 62.4804 125.797 62.7739C126.384 63.0935 127.734 62.6761 128.053 63.2565Z" fill="#00E291"/>
<path d="M120.788 72.2957C120.788 72.2957 120.73 72.2957 120.703 72.2957C119.966 72.2435 119.582 71.5783 119.269 71.0435C119.164 70.8609 118.988 70.5543 118.897 70.4957C118.793 70.4435 118.414 70.437 118.186 70.437C117.547 70.437 116.751 70.4239 116.38 69.7587C116.008 69.0935 116.419 68.4152 116.751 67.8674C116.869 67.6717 117.071 67.3457 117.077 67.2283C117.077 67.1239 116.908 66.8109 116.81 66.6283C116.516 66.0804 116.158 65.4022 116.503 64.75C116.81 64.1696 117.482 64.0587 118.075 63.9609C118.303 63.9217 118.727 63.85 118.819 63.7652C118.877 63.687 118.936 63.3283 118.969 63.113C119.066 62.5326 119.184 61.8087 119.784 61.4696C120.39 61.137 121.062 61.4174 121.61 61.6457C121.812 61.7304 122.151 61.8674 122.256 61.8609C122.366 61.8283 122.647 61.5087 122.797 61.3326C123.195 60.8826 123.645 60.3609 124.297 60.413C125.034 60.4652 125.419 61.1304 125.732 61.6652C125.836 61.8478 126.012 62.1544 126.103 62.213C126.208 62.2652 126.586 62.2717 126.814 62.2717C127.453 62.2717 128.249 62.2848 128.621 62.95C128.993 63.6217 128.582 64.3 128.249 64.8413C128.132 65.037 127.93 65.363 127.923 65.4804C127.923 65.5848 128.093 65.8978 128.19 66.0804C128.484 66.6283 128.843 67.3065 128.497 67.9587C128.19 68.5391 127.519 68.65 126.925 68.7478C126.697 68.787 126.273 68.8587 126.182 68.9435C126.123 69.0217 126.064 69.3804 126.032 69.5957C125.934 70.1761 125.816 70.9 125.216 71.2391C124.61 71.5717 123.938 71.2913 123.39 71.063C123.188 70.9783 122.843 70.8413 122.745 70.8478C122.634 70.8804 122.353 71.2 122.197 71.3761C121.819 71.8065 121.388 72.2957 120.782 72.2957H120.788ZM117.56 69.0935C117.723 69.1261 118.003 69.1261 118.186 69.1261C118.643 69.1261 119.119 69.1326 119.51 69.3413C119.908 69.5565 120.156 69.9739 120.39 70.3783C120.488 70.5478 120.664 70.8478 120.782 70.9587C120.899 70.8674 121.095 70.6522 121.219 70.5087C121.551 70.1304 121.93 69.7 122.445 69.5696C122.934 69.4522 123.416 69.6543 123.886 69.85C124.108 69.9413 124.486 70.0978 124.603 70.0783C124.636 70.013 124.701 69.6152 124.74 69.3804C124.825 68.8783 124.91 68.3565 125.262 68.0043C125.64 67.6326 126.208 67.5413 126.703 67.4565C126.893 67.4239 127.199 67.3783 127.33 67.3196C127.303 67.1957 127.127 66.8696 127.03 66.687C126.808 66.2761 126.58 65.8457 126.612 65.3957C126.638 64.9522 126.886 64.5478 127.127 64.1565C127.225 64 127.375 63.7587 127.427 63.6022C127.264 63.5696 126.984 63.5696 126.801 63.5696C126.345 63.5696 125.869 63.563 125.477 63.3544C125.08 63.1391 124.832 62.7217 124.597 62.3174C124.499 62.1478 124.323 61.8478 124.206 61.737C124.088 61.8283 123.893 62.05 123.769 62.187C123.436 62.5652 123.058 62.9957 122.543 63.1261C122.053 63.2435 121.571 63.0413 121.101 62.8457C120.88 62.7544 120.508 62.5978 120.384 62.6174C120.351 62.6826 120.286 63.0804 120.247 63.3152C120.162 63.8174 120.077 64.3391 119.725 64.6913C119.347 65.063 118.78 65.1543 118.284 65.2391C118.095 65.2717 117.795 65.3174 117.658 65.3761C117.684 65.5 117.86 65.8261 117.958 66.0087C118.18 66.4196 118.408 66.85 118.375 67.3065C118.349 67.75 118.101 68.1543 117.86 68.5457C117.762 68.7022 117.612 68.9435 117.56 69.1V69.0935Z" fill="#241F20"/>
<path d="M110.33 39.9717C110.252 39.9717 110.18 39.9587 110.102 39.9326C107.33 38.9087 105.4 37.213 104.363 34.8978C104.213 34.5717 104.363 34.1804 104.689 34.037C105.015 33.887 105.407 34.037 105.55 34.363C106.443 36.3457 108.126 37.813 110.552 38.7065C110.891 38.8304 111.061 39.2087 110.937 39.5478C110.839 39.8087 110.591 39.9717 110.324 39.9717H110.33Z" fill="#241F20"/>
<path d="M113.156 40.3566C112.204 40.3566 111.206 40.2196 110.169 39.9522C109.817 39.8609 109.608 39.5022 109.699 39.1566C109.79 38.8044 110.149 38.6022 110.495 38.687C113.077 39.3587 115.347 39.0913 117.245 37.8913C121.249 35.3609 122.41 29.4913 122.423 29.4326C122.488 29.0805 122.834 28.8457 123.186 28.9174C123.538 28.9826 123.773 29.3283 123.708 29.6805C123.656 29.9413 122.436 36.1566 117.949 38.9935C116.514 39.9066 114.91 40.3566 113.156 40.3566Z" fill="#241F20"/>
<path d="M117.082 45.1696C114.655 45.1696 111.799 44.687 108.923 43.7804C104.801 42.4826 101.195 40.4739 99.2707 38.4C99.0228 38.1391 99.0424 37.7218 99.3033 37.4805C99.5641 37.2326 99.9815 37.2522 100.223 37.5131C101.997 39.4239 105.395 41.3022 109.308 42.5348C112.458 43.5261 115.562 43.9891 118.034 43.8326C120.238 43.6957 121.725 43.0565 122.025 42.1174C122.364 41.0348 121.184 39.3978 118.947 37.8391C118.653 37.6305 118.575 37.2261 118.784 36.9326C118.986 36.6391 119.397 36.5609 119.69 36.7696C122.54 38.7522 123.812 40.7935 123.271 42.5087C122.795 44.0218 120.962 44.9544 118.118 45.137C117.779 45.1565 117.434 45.1696 117.075 45.1696H117.082Z" fill="#241F20"/>
<path d="M106.229 25.7804C107.487 27.0913 110.148 28.5457 113.402 29.5696C116.657 30.5935 119.67 30.9261 121.45 30.5739C120.192 29.2631 117.531 27.8087 114.276 26.7848C111.022 25.7609 108.009 25.4283 106.229 25.7804Z" fill="#FF5E00"/>
<path d="M122.833 36.9718C121.986 36.9718 121.047 36.8804 120.029 36.7044C119.677 36.6391 119.436 36.3 119.501 35.9478C119.566 35.5957 119.899 35.3544 120.257 35.4196C122.67 35.8435 124.51 35.7326 125.723 35.087C126.903 34.4544 127.027 33.2674 126.623 32.3609C126.264 31.5652 125.383 30.8087 124.105 31.2848C123.44 31.5326 122.977 31.9239 122.97 31.9304C122.697 32.1652 122.286 32.1326 122.051 31.8587C121.816 31.5848 121.849 31.1739 122.116 30.9391C122.142 30.9196 122.755 30.3913 123.649 30.0587C125.631 29.3218 127.197 30.4565 127.816 31.8196C128.468 33.2739 128.175 35.25 126.342 36.2283C125.423 36.7174 124.249 36.9652 122.84 36.9652L122.833 36.9718Z" fill="#241F20"/>
<path d="M119.853 31.3565C117.968 31.3565 115.607 30.9392 113.207 30.1826C108.531 28.7087 104.162 26.0544 104.866 23.8174C105.094 23.087 105.949 22.2065 108.681 22.2065H108.701C110.586 22.2065 112.946 22.6239 115.346 23.3805C117.759 24.137 119.938 25.1544 121.483 26.237C123.72 27.8087 123.916 29.0087 123.688 29.7457C123.46 30.4761 122.605 31.3565 119.873 31.3565H119.853ZM108.701 23.5109H108.681C107.064 23.5109 106.216 23.8761 106.112 24.2087C105.883 24.9392 108.316 27.2739 113.599 28.937C115.875 29.6544 118.099 30.0457 119.853 30.0457H119.873C121.49 30.0457 122.338 29.6805 122.442 29.3478C122.546 29.0152 122.057 28.2261 120.733 27.3C119.292 26.2892 117.238 25.337 114.955 24.6196C112.679 23.9022 110.455 23.5109 108.701 23.5109Z" fill="#241F20"/>
<path d="M87.9381 25.8457C87.8207 25.8457 87.7099 25.813 87.6055 25.7543C87.299 25.5717 87.1947 25.1674 87.3838 24.8609L91.212 18.4891C91.3947 18.1826 91.799 18.0783 92.1055 18.2674C92.412 18.45 92.5164 18.8543 92.3273 19.1609L88.499 25.5326C88.3751 25.7348 88.1599 25.8457 87.9381 25.8457Z" fill="#241F20"/>
<path d="M93.0388 24.5739C92.9279 24.5739 92.8105 24.5413 92.7062 24.4826L89.4844 22.5457C89.1779 22.3631 89.0736 21.9587 89.2627 21.6522C89.4453 21.3457 89.8497 21.2413 90.1562 21.4304L93.3779 23.3674C93.6844 23.55 93.7888 23.9544 93.5997 24.2609C93.4757 24.4631 93.2605 24.5739 93.0388 24.5739Z" fill="#241F20"/>
<path d="M90.7503 26.263C90.4568 26.263 90.1894 26.0674 90.1177 25.7674L88.3177 18.5543C88.2329 18.2022 88.4416 17.85 88.7938 17.7652C89.1394 17.6804 89.4981 17.8891 89.5829 18.2413L91.3829 25.4543C91.4677 25.8065 91.259 26.1587 90.9068 26.2435C90.8546 26.2565 90.8025 26.263 90.7503 26.263Z" fill="#241F20"/>
<path d="M86.2433 23.5565C85.9498 23.5565 85.6824 23.3609 85.6106 23.0609C85.5259 22.7087 85.7346 22.3565 86.0867 22.2717L93.2998 20.4717C93.6454 20.3804 94.0041 20.5957 94.0889 20.9478C94.1737 21.3 93.965 21.6522 93.6128 21.737L86.3998 23.537C86.3476 23.55 86.2954 23.5565 86.2433 23.5565Z" fill="#241F20"/>
<path d="M89.701 22.8065C89.564 22.8065 89.4271 22.7609 89.3097 22.6761C82.2727 17.3804 74.3423 15.8804 65.7401 18.2087C65.3944 18.3 65.0357 18.0978 64.9379 17.7522C64.8466 17.4065 65.0488 17.0478 65.3944 16.95C71.5901 15.2739 80.9031 14.7196 90.0923 21.6326C90.3792 21.8478 90.4379 22.2587 90.2227 22.5456C90.0923 22.7152 89.8966 22.8065 89.701 22.8065Z" fill="#241F20"/>
<path d="M18.5416 63.9196C18.3133 63.9196 18.0851 63.7957 17.9677 63.5804C17.7981 63.2674 17.909 62.8696 18.2285 62.6935L24.7503 59.1326C25.0698 58.9631 25.4612 59.0739 25.6372 59.3935C25.8068 59.7065 25.6959 60.1044 25.3764 60.2804L18.8546 63.8413C18.7568 63.8935 18.6459 63.9196 18.5416 63.9196Z" fill="#241F20"/>
<path d="M21.824 62.1782C21.5957 62.1782 21.3675 62.0543 21.2501 61.8391L19.4501 58.5456C19.2805 58.2326 19.3914 57.8348 19.711 57.6587C20.0305 57.4891 20.4218 57.6 20.5979 57.9196L22.3979 61.213C22.5675 61.5261 22.4566 61.9239 22.1371 62.1C22.0392 62.1522 21.9284 62.1782 21.824 62.1782Z" fill="#241F20"/>
<path d="M20.7528 65.7065C20.6941 65.7065 20.6289 65.7 20.5702 65.6804C20.2246 65.5761 20.0289 65.2174 20.1267 64.8717L22.2202 57.737C22.3246 57.3913 22.6832 57.1956 23.0289 57.2935C23.3746 57.3978 23.5702 57.7565 23.4724 58.1022L21.3789 65.237C21.2941 65.5239 21.0332 65.7065 20.7528 65.7065Z" fill="#241F20"/>
<path d="M25.3642 63.1891C25.3055 63.1891 25.2402 63.1826 25.1816 63.163L18.0468 61.0695C17.7011 60.9652 17.5055 60.6065 17.6033 60.2608C17.7076 59.9152 18.0663 59.7195 18.412 59.8174L25.5468 61.9108C25.8924 62.0152 26.0881 62.3739 25.9902 62.7195C25.9055 63.0065 25.6446 63.1891 25.3642 63.1891Z" fill="#241F20"/>
<path d="M50.0876 79.4544C43.755 79.4544 28.1159 77.7457 21.405 61.6891C21.2681 61.3565 21.4246 60.9717 21.7572 60.8348C22.0898 60.6978 22.4746 60.8544 22.6115 61.187C30.6985 80.5435 52.442 78.0652 52.6637 78.0391C53.0159 77.9935 53.3485 78.2478 53.3941 78.6065C53.4398 78.9652 53.1854 79.2913 52.8267 79.337C52.7811 79.337 51.7572 79.4609 50.0941 79.4609L50.0876 79.4544Z" fill="#241F20"/>
<path d="M117.21 72.3739C117.308 72.8826 116.31 73.3065 116.121 73.7826C115.945 74.2326 116.453 75.1913 116.069 75.5696C115.723 75.9087 114.738 75.413 114.262 75.6478C113.825 75.863 113.655 76.9587 113.134 77.0565C112.612 77.1543 112.045 76.2152 111.555 76.1761C111.021 76.1369 110.297 76.9652 109.853 76.7826C109.358 76.5804 109.469 75.4978 109.129 75.1522C108.771 74.7804 107.688 74.7674 107.584 74.2587C107.479 73.75 108.484 73.3261 108.673 72.85C108.849 72.4 108.34 71.4413 108.725 71.063C109.071 70.7239 110.055 71.2196 110.532 70.9848C110.969 70.7696 111.138 69.6739 111.66 69.5761C112.182 69.4783 112.749 70.4174 113.238 70.4565C113.773 70.4956 114.497 69.6674 114.94 69.85C115.436 70.0522 115.325 71.1348 115.664 71.4804C116.023 71.8522 117.105 71.8652 117.21 72.3739Z" fill="#00E291"/>
<path d="M113.042 77.7217C112.553 77.7217 112.155 77.3826 111.829 77.1087C111.712 77.0044 111.529 76.8544 111.457 76.8283C111.431 76.8478 111.196 76.9913 111.053 77.0696C110.642 77.3109 110.14 77.6174 109.599 77.3957C108.999 77.1478 108.855 76.5022 108.757 76.0261C108.725 75.8761 108.679 75.6544 108.64 75.5891C108.601 75.5631 108.353 75.4848 108.209 75.4326C107.733 75.2761 107.075 75.0544 106.944 74.3891C106.814 73.7239 107.336 73.2739 107.72 72.9478C107.838 72.85 108.033 72.6804 108.073 72.6022C108.073 72.5631 108.033 72.3348 108.007 72.1848C107.923 71.7087 107.805 71.05 108.268 70.6C108.686 70.1957 109.266 70.2804 109.736 70.3522C109.899 70.3783 110.173 70.4174 110.257 70.3913C110.257 70.3717 110.368 70.1631 110.44 70.0196C110.662 69.5891 110.942 69.0478 111.536 68.9304C112.129 68.8131 112.592 69.2109 112.957 69.5239C113.075 69.6283 113.257 69.7783 113.329 69.8044C113.355 69.7848 113.59 69.6413 113.733 69.563C114.138 69.3217 114.646 69.0152 115.188 69.237C115.788 69.4848 115.931 70.1304 116.029 70.6065C116.062 70.7565 116.107 70.9783 116.146 71.0435C116.186 71.0696 116.433 71.1478 116.577 71.2C117.053 71.3565 117.712 71.5783 117.842 72.2435C117.973 72.9087 117.451 73.3587 117.066 73.6848C116.949 73.7826 116.753 73.9522 116.714 74.0304C116.714 74.0696 116.753 74.2978 116.779 74.4478C116.864 74.9239 116.981 75.5826 116.518 76.0326C116.101 76.437 115.52 76.3522 115.051 76.2804C114.888 76.2544 114.614 76.2152 114.529 76.2413C114.529 76.2609 114.418 76.4696 114.346 76.6131C114.125 77.0435 113.844 77.5848 113.251 77.7022C113.179 77.7152 113.107 77.7217 113.036 77.7217H113.042ZM111.516 75.5304C111.516 75.5304 111.575 75.5304 111.601 75.5304C112.038 75.563 112.377 75.8565 112.683 76.1174C112.768 76.1957 112.899 76.3065 112.996 76.3717C113.062 76.2739 113.14 76.1239 113.192 76.0196C113.375 75.6674 113.577 75.2631 113.968 75.0674C114.379 74.8652 114.842 74.9304 115.246 74.9957C115.338 75.0087 115.455 75.0283 115.553 75.0348C115.54 74.9239 115.514 74.7804 115.501 74.6761C115.436 74.2978 115.364 73.913 115.507 73.5478C115.651 73.1957 115.951 72.9348 116.225 72.7C116.277 72.6544 116.355 72.5891 116.42 72.5304C116.336 72.4978 116.244 72.4717 116.179 72.4457C115.84 72.3348 115.462 72.2044 115.201 71.9304C114.927 71.6435 114.849 71.2587 114.764 70.887C114.744 70.7891 114.712 70.6457 114.679 70.5348C114.594 70.5804 114.49 70.6391 114.412 70.6913C114.059 70.9 113.655 71.1413 113.199 71.1087C112.762 71.0761 112.423 70.7826 112.116 70.5217C112.031 70.45 111.901 70.3326 111.803 70.2674C111.738 70.3652 111.659 70.5152 111.607 70.6196C111.425 70.9717 111.223 71.3761 110.831 71.5652C110.42 71.7674 109.957 71.6957 109.553 71.637C109.462 71.6239 109.344 71.6044 109.246 71.5978C109.259 71.7087 109.286 71.8522 109.299 71.9565C109.364 72.3348 109.436 72.7196 109.292 73.0848C109.149 73.437 108.849 73.6978 108.575 73.9326C108.523 73.9783 108.444 74.0435 108.379 74.1022C108.464 74.1348 108.555 74.1609 108.62 74.187C108.959 74.2978 109.338 74.4283 109.599 74.7022C109.873 74.9891 109.951 75.3739 110.036 75.7457C110.055 75.8435 110.088 75.987 110.12 76.0978C110.205 76.0522 110.309 75.9935 110.388 75.9413C110.72 75.7457 111.092 75.5239 111.516 75.5239V75.5304Z" fill="#241F20"/>
<path d="M93.5403 65.9044C93.436 65.9044 93.3381 65.9044 93.2338 65.8979C91.936 65.8196 90.749 65.2392 89.8881 64.2674C89.0273 63.2957 88.5968 62.0435 88.6751 60.7457C88.7533 59.4479 89.3338 58.2609 90.3055 57.4C91.2773 56.5392 92.5229 56.1087 93.8273 56.187C95.1251 56.2652 96.312 56.8457 97.1729 57.8174C98.9468 59.8261 98.7642 62.9109 96.749 64.6848C95.849 65.4805 94.7207 65.9044 93.5338 65.9044H93.5403ZM93.5273 57.4783C92.6599 57.4783 91.8316 57.7913 91.1729 58.3718C90.462 59.0044 90.0381 59.8718 89.9794 60.8239C89.9207 61.7761 90.2338 62.6892 90.8664 63.4C91.499 64.1109 92.3664 64.5348 93.3186 64.5935C94.2707 64.6587 95.1838 64.3392 95.8947 63.7065C97.362 62.4087 97.5055 60.1522 96.2012 58.6783C95.5686 57.9674 94.7012 57.5435 93.749 57.4848C93.6773 57.4848 93.599 57.4783 93.5273 57.4783Z" fill="#241F20"/>
</g>
<defs>
<clipPath id="clip0_2965_146487">
<rect width="150" height="104.348" fill="white"/>
</clipPath>
</defs>
</svg>
