<svg width="118" height="29" viewBox="0 0 118 29" fill="none" xmlns="http://www.w3.org/2000/svg">
<path d="M35.3382 10.7163C36.2018 10.7155 37.0609 10.843 37.8876 11.0945C38.6955 11.3369 39.4559 11.7178 40.1355 12.2204C40.8227 12.7191 41.3783 13.3799 41.7539 14.145C42.1294 14.9101 42.3135 15.7562 42.2899 16.6096C42.3077 17.5088 42.112 18.3994 41.719 19.2069C41.3381 19.9671 40.8029 20.638 40.148 21.1761C39.4796 21.7301 38.7184 22.1592 37.9002 22.4431C37.0519 22.7382 36.1602 22.8869 35.2628 22.8829C34.2729 22.9016 33.2873 22.7486 32.3489 22.4304C31.589 22.181 30.9078 21.734 30.374 21.1345C29.9004 20.5821 29.6448 19.8735 29.6558 19.1435C29.6276 18.4133 29.8796 17.7002 30.3596 17.1525C30.8609 16.6098 31.4921 16.206 32.1927 15.9797C32.9707 15.7133 33.7876 15.5805 34.6093 15.5869C35.5059 15.5675 36.4001 15.6897 37.2593 15.9489C38.0234 16.2009 38.7671 16.5119 39.4837 16.8792V18.9571C38.754 18.5969 37.9809 18.3341 37.1839 18.1752C36.657 18.0849 36.1239 18.0359 35.5896 18.0286C35.1951 18.0336 34.8027 18.0864 34.4208 18.186C34.1584 18.2503 33.9168 18.3812 33.7188 18.5661C33.6431 18.6387 33.5829 18.726 33.5419 18.8228C33.5008 18.9196 33.4798 19.0238 33.48 19.129C33.4827 19.262 33.5217 19.3915 33.5926 19.5036C33.6635 19.6157 33.7637 19.7059 33.8821 19.7643C34.2127 19.9424 34.585 20.0268 34.9594 20.0087C35.4227 20.0096 35.8824 19.9269 36.3167 19.7643C36.7453 19.6049 37.1441 19.3735 37.4962 19.0802C37.8402 18.7956 38.1262 18.4465 38.3383 18.0521C38.5498 17.6538 38.6579 17.208 38.6525 16.7562C38.6708 16.1819 38.508 15.6167 38.1875 15.1417C37.8711 14.6972 37.4349 14.3537 36.9307 14.1516C36.3762 13.9268 35.7832 13.8149 35.1856 13.8222C34.346 13.8101 33.5114 13.9549 32.7241 14.2493C32.0364 14.5081 31.3856 14.8574 30.7887 15.2883L29.2339 12.8719C29.7524 12.4361 30.3165 12.0586 30.9162 11.7461C31.5617 11.4109 32.2454 11.1562 32.9521 10.9878C33.734 10.8024 34.535 10.7113 35.3382 10.7163Z" fill="black"/>
<path d="M21.7508 10.7162C22.615 10.7155 23.4746 10.843 24.302 11.0945C25.1097 11.3373 25.87 11.7181 26.5499 12.2203C27.2367 12.7194 27.7921 13.3802 28.1676 14.1453C28.5432 14.9103 28.7274 15.7563 28.7043 16.6095C28.7215 17.509 28.5252 18.3995 28.1316 19.2069C27.752 19.9674 27.2172 20.6384 26.5624 21.1761C25.8938 21.7297 25.1326 22.1588 24.3146 22.4431C23.4662 22.7381 22.5746 22.8868 21.6772 22.8829C20.6873 22.902 19.7016 22.7489 18.7633 22.4304C18.0032 22.1814 17.3219 21.7344 16.7884 21.1345C16.3142 20.5825 16.0585 19.8736 16.0702 19.1435C16.042 18.4133 16.294 17.7002 16.774 17.1525C17.2757 16.6103 17.9068 16.2065 18.6071 15.9797C19.3851 15.7134 20.202 15.5806 21.0237 15.5869C21.9203 15.5675 22.8144 15.6897 23.6737 15.9489C24.4367 16.2007 25.1792 16.5117 25.8945 16.8792V18.9571C25.1653 18.5972 24.3928 18.3344 23.5965 18.1752C23.069 18.0849 22.5353 18.0359 22.0004 18.0286C21.6065 18.0335 21.2146 18.0864 20.8334 18.186C20.5705 18.2503 20.3283 18.3812 20.1296 18.5661C20.0542 18.6389 19.9943 18.7263 19.9532 18.823C19.9122 18.9198 19.891 19.0238 19.8908 19.129C19.8935 19.2619 19.9325 19.3915 20.0034 19.5036C20.0743 19.6157 20.1745 19.7059 20.2929 19.7643C20.6236 19.9422 20.9958 20.0266 21.3702 20.0087C21.8335 20.01 22.2932 19.9272 22.7275 19.7643C23.1606 19.6064 23.5638 19.375 23.9196 19.0802C24.2635 18.7959 24.5489 18.4467 24.7599 18.0521C24.9714 17.6538 25.0795 17.2079 25.074 16.7561C25.0922 16.1822 24.9301 15.6172 24.6108 15.1416C24.2945 14.6972 23.8583 14.3536 23.3541 14.1516C22.7995 13.9271 22.2065 13.8152 21.609 13.8222C20.7688 13.8104 19.9337 13.9552 19.1457 14.2493C18.4587 14.5085 17.8085 14.8578 17.2121 15.2882L15.6465 12.8719C16.1656 12.4361 16.7303 12.0586 17.3306 11.7461C17.9754 11.4106 18.6585 11.1559 19.3647 10.9877C20.1467 10.8026 20.9476 10.7115 21.7508 10.7162Z" fill="black"/>
<path d="M42.7141 14.2095V11.299H47.5257V14.2095H42.7141ZM42.7141 22.8178V19.9073H50.2673V22.8268L42.7141 22.8178ZM44.7357 22.8178V11.299H48.4234V22.8268L44.7357 22.8178ZM54.0986 22.8178V16.7036C54.102 16.4082 54.0527 16.1146 53.9532 15.8367C53.8599 15.5742 53.7159 15.3331 53.5295 15.1272C53.3393 14.9213 53.108 14.7585 52.8509 14.6493C52.5616 14.5323 52.2522 14.4745 51.9406 14.4792C51.54 14.4819 51.1439 14.565 50.7754 14.7235C50.3487 14.9116 49.9523 15.1629 49.5994 15.4692C49.1634 15.8439 48.7615 16.257 48.3983 16.7036C47.9949 17.1947 47.576 17.7655 47.1415 18.4159V15.5054C47.7077 14.7404 48.2409 14.0768 48.7412 13.5145C49.1891 13.0033 49.6805 12.5327 50.2098 12.1081C50.6543 11.7511 51.1542 11.4704 51.6892 11.2773C52.852 10.8904 54.1116 10.9205 55.2549 11.3624C55.806 11.5953 56.287 11.9697 56.6499 12.4484C57.0472 12.9808 57.3358 13.5874 57.4991 14.233C57.7053 15.0434 57.8031 15.878 57.79 16.7145V22.8268L54.0986 22.8178ZM52.2566 22.8178V19.9073H59.4686V22.8268L52.2566 22.8178Z" fill="black"/>
<path d="M71.5498 22.8397V19.931H79.3041V22.8415L71.5498 22.8397ZM75.3919 12.7762C74.8654 12.7872 74.3536 12.6008 73.9556 12.2531C73.7643 12.0946 73.6108 11.8946 73.5067 11.668C73.4026 11.4414 73.3504 11.1941 73.3542 10.9445C73.3474 10.6857 73.3979 10.4287 73.502 10.192C73.606 9.95532 73.7609 9.74495 73.9556 9.57613C74.349 9.21845 74.8622 9.02441 75.3919 9.03314C75.9454 9.01056 76.486 9.20519 76.9 9.57613C77.089 9.74836 77.2386 9.95993 77.3384 10.1962C77.4382 10.4325 77.4859 10.6878 77.4782 10.9445C77.4831 11.192 77.4338 11.4376 77.3339 11.6638C77.234 11.89 77.0858 12.0912 76.9 12.2531C76.4812 12.6138 75.9422 12.8007 75.3919 12.7762ZM73.5696 22.8397V13.9328H77.2573V22.8397H73.5696Z" fill="black"/>
<path d="M80.2771 14.2313V11.3209H84.7656V14.2313H80.2771ZM80.2771 22.8396V19.9309H87.8357V22.8414L80.2771 22.8396ZM82.2987 21.8622V11.3209H85.9864V21.8622H82.2987ZM91.0566 21.8622V16.5788C91.0604 16.2259 90.99 15.8761 90.8501 15.5526C90.7159 15.2477 90.5018 14.9855 90.2307 14.7942C89.9303 14.5911 89.5742 14.4885 89.2127 14.501C88.6775 14.5109 88.1543 14.6626 87.6956 14.9408C87.1198 15.2913 86.6074 15.7381 86.1803 16.2621C85.6181 16.9357 85.1226 17.6632 84.7009 18.4341V15.5273C85.1361 14.6396 85.6907 13.8167 86.3491 13.082C86.9154 12.4506 87.5945 11.9324 88.3509 11.5543C89.0493 11.2083 89.817 11.0281 90.5952 11.0276C91.1924 11.0204 91.7842 11.1439 92.3295 11.3896C92.8456 11.6319 93.2954 11.9972 93.6401 12.4539C94.0249 12.9725 94.3049 13.5623 94.4642 14.1897C94.6613 14.9726 94.7549 15.7784 94.7425 16.5861V21.8694L91.0566 21.8622ZM89.2127 22.8396V19.9309H96.5379V22.8414L89.2127 22.8396ZM99.7409 21.8622V16.5788C99.7429 16.3142 99.706 16.0507 99.6313 15.7969C99.5604 15.5572 99.4453 15.3331 99.292 15.1363C99.138 14.9408 98.943 14.782 98.7211 14.6711C98.4791 14.5547 98.2136 14.4965 97.9455 14.501C97.407 14.5114 96.8804 14.663 96.4176 14.9408C95.8379 15.2866 95.3241 15.7341 94.9005 16.2621C94.3456 16.9385 93.8546 17.6657 93.4337 18.4341V15.5273C93.8688 14.6391 94.4241 13.8162 95.0836 13.082C95.6465 12.4523 96.3212 11.9342 97.0729 11.5543C97.7664 11.2073 98.5303 11.027 99.3046 11.0276C99.8936 11.0218 100.477 11.1453 101.014 11.3896C101.53 11.6319 101.98 11.9972 102.324 12.4539C102.71 12.9721 102.99 13.562 103.149 14.1897C103.347 14.9724 103.441 15.7783 103.429 16.5861V21.8694L99.7409 21.8622ZM97.9455 22.8396V19.9309H105.109V22.8414L97.9455 22.8396Z" fill="black"/>
<path d="M111.989 23.0078C111.137 23.009 110.29 22.8809 109.476 22.6278C108.679 22.3853 107.93 22.0049 107.262 21.5037C106.581 21.0006 106.032 20.3382 105.662 19.5736C105.291 18.809 105.111 17.9651 105.136 17.1145C105.121 16.2171 105.316 15.3288 105.703 14.5208C106.076 13.7632 106.603 13.0929 107.249 12.5534C107.906 12.001 108.656 11.5719 109.463 11.2864C110.298 10.9913 111.176 10.8426 112.061 10.8466C113.037 10.8281 114.009 10.9806 114.934 11.2973C115.683 11.5492 116.353 11.997 116.874 12.595C117.342 13.15 117.593 13.8579 117.58 14.586C117.606 15.3107 117.358 16.0183 116.887 16.5661C116.396 17.1086 115.773 17.5134 115.081 17.7408C114.317 18.0051 113.515 18.1372 112.707 18.1318C111.824 18.151 110.942 18.0288 110.097 17.7698C109.345 17.5173 108.613 17.2069 107.908 16.8412V14.7688C108.625 15.1297 109.386 15.3933 110.172 15.5525C110.691 15.6428 111.216 15.6918 111.743 15.6991C112.131 15.6937 112.517 15.6402 112.892 15.5399C113.152 15.4766 113.391 15.3462 113.585 15.1616C113.66 15.0882 113.719 15.0006 113.759 14.904C113.799 14.8073 113.82 14.7035 113.82 14.5987C113.818 14.4663 113.78 14.3371 113.71 14.2251C113.64 14.1131 113.541 14.0226 113.424 13.9634C113.098 13.7846 112.731 13.6995 112.361 13.7172C111.904 13.7171 111.452 13.8005 111.025 13.9634C110.602 14.123 110.209 14.3544 109.863 14.6475C109.524 14.9322 109.242 15.2808 109.034 15.6738C108.808 16.1308 108.703 16.6388 108.729 17.1488C108.755 17.6587 108.911 18.1532 109.183 18.5843C109.492 19.0279 109.921 19.3718 110.42 19.5743C110.965 19.8002 111.549 19.9129 112.138 19.9055C112.966 19.9169 113.788 19.7714 114.562 19.4766C115.24 19.2178 115.881 18.8683 116.467 18.4376L118 20.8594C117.49 21.2934 116.934 21.6703 116.343 21.9834C115.709 22.3193 115.036 22.5741 114.339 22.7418C113.569 22.9253 112.78 23.0147 111.989 23.0078Z" fill="black"/>
<path d="M58.5295 14.1825V11.272H70.6125V14.1825H58.5295ZM66.4292 23.1328C65.5395 23.1589 64.6605 22.9305 63.8942 22.474C63.1922 22.0351 62.635 21.3965 62.2927 20.6387C61.9171 19.7847 61.7332 18.8576 61.754 17.9237V8.06836H65.4418V17.6613C65.439 18.0039 65.4999 18.344 65.6213 18.664C65.7263 18.9461 65.9142 19.1892 66.1599 19.3608C66.4413 19.5432 66.7719 19.633 67.1061 19.6178C67.5019 19.619 67.8971 19.5863 68.2875 19.5201C68.7304 19.3944 69.1652 19.2408 69.5891 19.0604L70.6304 22.036C70.0347 22.3807 69.4031 22.6581 68.7471 22.8631C67.9906 23.0541 67.2126 23.1448 66.4328 23.1328H66.4292Z" fill="black"/>
<path d="M0 8.69474V5.7843H5.33767V8.69474H0ZM1.94081 22.561V5.7843H5.55492V22.561H1.94081ZM9.32163 10.8649C10.345 10.7816 11.8459 11.1491 12.6377 11.6541C13.4444 12.1725 14.1082 12.8878 14.5677 13.7337C15.0696 14.6602 15.3227 15.7028 15.3021 16.7582C15.3085 17.5565 15.1559 18.3481 14.8532 19.0858C14.5612 19.7907 14.1271 20.4268 13.5785 20.9537C13.0168 21.4892 12.3578 21.9102 11.6377 22.1936C10.8509 22.5016 10.013 22.6551 9.16903 22.6461C8.31426 22.6697 7.46748 22.4748 6.70755 22.0795C6.05404 21.728 5.46357 21.2685 4.96065 20.7202C4.48188 20.1929 4.07373 19.7163 3.73619 19.2904L3.8116 16.4089C4.17067 16.8487 4.86369 17.5274 5.29459 18.0161C5.78114 18.5591 5.81166 18.8017 6.56213 19.2306C7.07 19.5134 7.64278 19.6564 8.22286 19.6451C8.68037 19.6521 9.13573 19.5805 9.5694 19.4334C9.94553 19.3024 10.2921 19.0976 10.5892 18.8306C10.8703 18.5719 11.09 18.2527 11.2319 17.8967C11.3796 17.5206 11.4534 17.1192 11.4492 16.7148C11.4591 16.2124 11.3469 15.7153 11.1224 15.2668C10.9093 14.8477 10.5808 14.4996 10.1762 14.2641C9.72799 14.0122 9.22057 13.8871 8.70761 13.9021C8.07923 13.8834 7.46342 14.082 6.96249 14.465C6.32334 14.9301 5.95349 15.5618 5.37896 16.398C4.80444 17.2342 4.0432 18.36 3.68772 19.475V16.8994C4.05936 15.6722 3.93727 14.8306 4.61772 13.9328C5.29817 13.0351 5.73087 12.217 6.81169 11.598C7.5829 11.1662 8.4409 10.9156 9.32163 10.8649Z" fill="black"/>
</svg>
