<svg width="750" height="280" viewBox="0 0 750 280" fill="none" xmlns="http://www.w3.org/2000/svg">
<g clip-path="url(#clip0_1325_32164)">
<path d="M265.117 122.744C269.128 122.74 273.117 123.328 276.957 124.488C280.709 125.606 284.24 127.362 287.396 129.68C290.588 131.98 293.168 135.027 294.912 138.555C296.656 142.083 297.511 145.985 297.402 149.92C297.484 154.067 296.575 158.173 294.75 161.897C292.981 165.402 290.496 168.496 287.454 170.978C284.35 173.532 280.815 175.511 277.015 176.82C273.075 178.181 268.934 178.867 264.767 178.848C260.17 178.934 255.592 178.229 251.234 176.762C247.705 175.611 244.542 173.55 242.062 170.786C239.863 168.238 238.676 164.971 238.727 161.605C238.596 158.237 239.767 154.949 241.996 152.424C244.324 149.921 247.255 148.059 250.509 147.015C254.122 145.787 257.916 145.175 261.732 145.204C265.896 145.115 270.048 145.678 274.039 146.873C277.587 148.035 281.041 149.47 284.369 151.163V160.745C280.98 159.084 277.39 157.872 273.688 157.139C271.241 156.723 268.766 156.497 266.284 156.463C264.452 156.486 262.63 156.73 260.856 157.189C259.638 157.486 258.516 158.089 257.596 158.942C257.245 159.277 256.965 159.679 256.774 160.126C256.584 160.572 256.486 161.052 256.487 161.538C256.5 162.151 256.681 162.748 257.01 163.265C257.339 163.782 257.805 164.198 258.355 164.467C259.89 165.288 261.619 165.678 263.358 165.594C265.509 165.598 267.644 165.217 269.661 164.467C271.652 163.732 273.504 162.665 275.139 161.312C276.737 160 278.065 158.39 279.05 156.572C280.032 154.735 280.534 152.679 280.509 150.596C280.594 147.948 279.838 145.341 278.349 143.151C276.88 141.101 274.854 139.517 272.513 138.585C269.938 137.549 267.183 137.032 264.408 137.066C260.509 137.01 256.633 137.678 252.977 139.036C249.783 140.229 246.76 141.84 243.988 143.827L236.768 132.684C239.175 130.675 241.795 128.934 244.58 127.493C247.578 125.947 250.754 124.773 254.036 123.996C257.667 123.141 261.387 122.721 265.117 122.744Z" fill="black"/>
<path d="M202.015 122.744C206.029 122.741 210.021 123.328 213.864 124.488C217.615 125.608 221.146 127.364 224.303 129.68C227.493 131.981 230.072 135.028 231.816 138.556C233.56 142.084 234.416 145.985 234.309 149.92C234.389 154.067 233.477 158.174 231.649 161.897C229.886 165.404 227.402 168.498 224.361 170.978C221.256 173.531 217.721 175.509 213.922 176.82C209.982 178.18 205.841 178.866 201.673 178.848C197.076 178.936 192.499 178.23 188.141 176.762C184.611 175.613 181.447 173.552 178.969 170.786C176.767 168.24 175.58 164.971 175.634 161.605C175.503 158.237 176.673 154.949 178.902 152.424C181.232 149.923 184.163 148.061 187.415 147.015C191.029 145.787 194.823 145.175 198.638 145.204C202.803 145.115 206.955 145.678 210.945 146.873C214.489 148.034 217.937 149.469 221.259 151.163V160.745C217.873 159.086 214.285 157.874 210.587 157.139C208.137 156.723 205.659 156.497 203.174 156.463C201.345 156.486 199.525 156.73 197.755 157.189C196.534 157.486 195.409 158.089 194.486 158.942C194.136 159.278 193.858 159.681 193.667 160.127C193.477 160.573 193.378 161.053 193.377 161.538C193.39 162.151 193.571 162.748 193.9 163.265C194.23 163.782 194.695 164.198 195.245 164.467C196.78 165.288 198.509 165.677 200.248 165.594C202.399 165.6 204.535 165.218 206.551 164.467C208.563 163.739 210.435 162.672 212.088 161.312C213.685 160.002 215.01 158.391 215.99 156.572C216.972 154.735 217.474 152.679 217.449 150.596C217.533 147.949 216.78 145.344 215.298 143.151C213.828 141.101 211.803 139.517 209.461 138.585C206.886 137.55 204.132 137.034 201.357 137.066C197.455 137.012 193.576 137.68 189.917 139.036C186.726 140.231 183.707 141.842 180.937 143.827L173.666 132.684C176.077 130.675 178.699 128.934 181.487 127.493C184.482 125.946 187.654 124.771 190.934 123.996C194.566 123.142 198.285 122.722 202.015 122.744Z" fill="black"/>
<path d="M299.369 138.852V125.431H321.715V138.852H299.369ZM299.369 178.548V165.127H334.447V178.589L299.369 178.548ZM308.758 178.548V125.431H325.884V178.589L308.758 178.548ZM352.241 178.548V150.354C352.256 148.991 352.027 147.637 351.565 146.356C351.132 145.146 350.463 144.034 349.597 143.084C348.714 142.135 347.64 141.384 346.446 140.881C345.102 140.341 343.665 140.074 342.218 140.096C340.358 140.109 338.518 140.492 336.807 141.223C334.825 142.09 332.984 143.249 331.345 144.661C329.321 146.389 327.454 148.294 325.767 150.354C323.894 152.618 321.949 155.25 319.931 158.249V144.828C322.56 141.301 325.036 138.24 327.36 135.647C329.44 133.29 331.722 131.12 334.18 129.162C336.245 127.516 338.566 126.222 341.051 125.331C346.451 123.547 352.301 123.686 357.61 125.724C360.17 126.798 362.403 128.524 364.089 130.731C365.934 133.187 367.274 135.984 368.033 138.961C368.99 142.698 369.445 146.546 369.384 150.404V178.589L352.241 178.548ZM343.686 178.548V165.127H377.18V178.589L343.686 178.548Z" fill="black"/>
<path d="M433.287 178.648V165.235H469.299V178.656L433.287 178.648ZM451.13 132.242C448.685 132.293 446.308 131.433 444.46 129.83C443.571 129.099 442.859 128.177 442.375 127.132C441.892 126.087 441.649 124.947 441.667 123.795C441.636 122.602 441.87 121.417 442.353 120.326C442.836 119.234 443.556 118.264 444.46 117.486C446.287 115.836 448.671 114.941 451.13 114.982C453.701 114.878 456.211 115.775 458.134 117.486C459.012 118.28 459.707 119.255 460.17 120.345C460.634 121.434 460.855 122.612 460.819 123.795C460.842 124.937 460.613 126.07 460.149 127.113C459.685 128.156 458.997 129.083 458.134 129.83C456.189 131.493 453.686 132.355 451.13 132.242ZM442.667 178.648V137.575H459.794V178.648H442.667Z" fill="black"/>
<path d="M473.818 138.953V125.532H494.663V138.953H473.818ZM473.818 178.648V165.235H508.921V178.656L473.818 178.648ZM483.207 174.141V125.532H500.333V174.141H483.207ZM523.88 174.141V149.778C523.898 148.15 523.571 146.537 522.921 145.045C522.298 143.639 521.303 142.43 520.044 141.548C518.649 140.612 516.995 140.139 515.317 140.196C512.831 140.242 510.401 140.941 508.271 142.224C505.597 143.841 503.217 145.901 501.234 148.317C498.623 151.424 496.322 154.778 494.363 158.333V144.929C496.384 140.835 498.96 137.041 502.018 133.653C504.647 130.741 507.801 128.352 511.314 126.608C514.558 125.013 518.123 124.182 521.737 124.179C524.511 124.146 527.259 124.716 529.792 125.849C532.188 126.966 534.277 128.65 535.878 130.756C537.665 133.148 538.965 135.867 539.705 138.761C540.621 142.371 541.055 146.087 540.998 149.811V174.174L523.88 174.141ZM515.317 178.648V165.235H549.336V178.656L515.317 178.648ZM564.211 174.141V149.778C564.22 148.557 564.049 147.342 563.702 146.172C563.373 145.067 562.838 144.033 562.126 143.126C561.411 142.224 560.506 141.492 559.475 140.981C558.351 140.444 557.118 140.175 555.873 140.196C553.372 140.244 550.926 140.943 548.777 142.224C546.085 143.819 543.699 145.882 541.732 148.317C539.155 151.436 536.874 154.79 534.919 158.333V144.929C536.94 140.833 539.519 137.038 542.582 133.653C545.196 130.749 548.33 128.36 551.821 126.608C555.041 125.008 558.589 124.176 562.185 124.179C564.92 124.152 567.629 124.722 570.123 125.849C572.519 126.966 574.608 128.65 576.209 130.756C577.999 133.146 579.3 135.866 580.036 138.761C580.959 142.37 581.396 146.086 581.337 149.811V174.174L564.211 174.141ZM555.873 178.648V165.235H589.142V178.656L555.873 178.648Z" fill="black"/>
<path d="M621.093 179.424C617.136 179.429 613.201 178.839 609.42 177.671C605.718 176.553 602.24 174.799 599.139 172.488C595.978 170.168 593.427 167.114 591.708 163.588C589.988 160.062 589.15 156.17 589.267 152.248C589.198 148.11 590.101 144.014 591.901 140.288C593.634 136.794 596.079 133.703 599.08 131.215C602.131 128.668 605.613 126.689 609.361 125.373C613.238 124.012 617.318 123.326 621.426 123.345C625.96 123.26 630.474 123.963 634.767 125.423C638.247 126.585 641.358 128.65 643.781 131.407C645.953 133.967 647.118 137.231 647.057 140.588C647.178 143.93 646.027 147.193 643.839 149.719C641.558 152.221 638.668 154.087 635.451 155.136C631.904 156.355 628.178 156.964 624.428 156.939C620.324 157.028 616.232 156.464 612.305 155.27C608.812 154.106 605.414 152.674 602.141 150.988V141.431C605.47 143.096 609.006 144.311 612.655 145.045C615.065 145.462 617.505 145.688 619.951 145.721C621.753 145.696 623.545 145.45 625.287 144.987C626.493 144.695 627.602 144.094 628.505 143.243C628.851 142.904 629.125 142.5 629.312 142.055C629.5 141.609 629.597 141.13 629.598 140.647C629.587 140.037 629.41 139.441 629.085 138.924C628.76 138.408 628.3 137.99 627.755 137.717C626.245 136.893 624.537 136.5 622.819 136.582C620.699 136.582 618.597 136.966 616.615 137.717C614.651 138.454 612.826 139.521 611.221 140.872C609.642 142.185 608.334 143.792 607.368 145.605C606.319 147.712 605.831 150.055 605.952 152.406C606.073 154.758 606.8 157.038 608.06 159.026C609.494 161.072 611.49 162.657 613.805 163.591C616.335 164.633 619.049 165.152 621.785 165.118C625.628 165.171 629.446 164.5 633.041 163.14C636.191 161.947 639.166 160.336 641.888 158.35L649.009 169.517C646.638 171.518 644.058 173.256 641.313 174.7C638.368 176.249 635.242 177.424 632.007 178.197C628.432 179.044 624.767 179.456 621.093 179.424Z" fill="black"/>
<path d="M372.82 138.727V125.306H428.935V138.727H372.82ZM409.508 180C405.375 180.12 401.294 179.067 397.734 176.962C394.475 174.938 391.887 171.993 390.297 168.499C388.553 164.561 387.698 160.286 387.795 155.979V110.533H404.922V154.769C404.909 156.349 405.192 157.917 405.756 159.393C406.243 160.694 407.116 161.815 408.257 162.606C409.564 163.447 411.099 163.861 412.651 163.791C414.489 163.797 416.325 163.646 418.137 163.341C420.195 162.761 422.214 162.053 424.183 161.221L429.019 174.942C426.252 176.532 423.319 177.811 420.272 178.756C416.759 179.637 413.146 180.055 409.524 180H409.508Z" fill="black"/>
<path d="M101 113.421V100H125.789V113.421H101ZM110.013 177.363V100H126.798V177.363H110.013ZM144.291 123.428C149.044 123.044 156.014 124.739 159.691 127.067C163.438 129.458 166.521 132.757 168.655 136.657C170.985 140.93 172.161 145.737 172.065 150.604C172.095 154.285 171.386 157.936 169.98 161.338C168.624 164.588 166.608 167.521 164.06 169.951C161.452 172.42 158.391 174.361 155.047 175.668C151.393 177.088 147.502 177.797 143.582 177.755C139.613 177.864 135.68 176.965 132.151 175.142C129.116 173.521 126.374 171.403 124.038 168.874C121.814 166.443 119.919 164.245 118.351 162.281L118.702 148.993C120.369 151.021 123.588 154.151 125.589 156.405C127.848 158.909 127.99 160.027 131.475 162.005C133.834 163.309 136.494 163.968 139.188 163.917C141.313 163.949 143.428 163.618 145.442 162.94C147.188 162.336 148.798 161.392 150.178 160.161C151.483 158.968 152.504 157.496 153.163 155.854C153.849 154.12 154.191 152.269 154.172 150.404C154.218 148.087 153.697 145.795 152.654 143.727C151.664 141.794 150.139 140.189 148.26 139.103C146.178 137.941 143.822 137.365 141.439 137.434C138.521 137.347 135.661 138.263 133.335 140.029C130.367 142.174 128.649 145.087 125.981 148.943C123.313 152.799 119.777 157.991 118.126 163.132V151.255C119.852 145.596 119.285 141.715 122.445 137.575C125.605 133.436 127.615 129.663 132.634 126.809C136.216 124.817 140.201 123.662 144.291 123.428Z" fill="black"/>
</g>
<defs>
<clipPath id="clip0_1325_32164">
<rect width="548" height="80" fill="white" transform="translate(101 100)"/>
</clipPath>
</defs>
</svg>
