<svg width="750" height="245" viewBox="0 0 750 245" fill="none" xmlns="http://www.w3.org/2000/svg">
<path d="M372.658 126.511V114.085H424.607V126.511H372.658ZM406.624 164.718C402.798 164.828 399.018 163.855 395.725 161.905C392.709 160.031 390.311 157.306 388.839 154.069C387.224 150.424 386.434 146.466 386.522 142.478V100.405H402.377V141.358C402.365 142.821 402.626 144.271 403.148 145.639C403.6 146.843 404.407 147.882 405.464 148.614C406.675 149.392 408.097 149.776 409.533 149.712C411.235 149.717 412.933 149.578 414.611 149.294C416.515 148.758 418.384 148.102 420.206 147.332L424.683 160.036C422.122 161.509 419.406 162.693 416.586 163.566C413.334 164.381 409.988 164.767 406.636 164.718H406.621H406.624Z" fill="black"/>
<path d="M428.467 163.773V151.222H462.519V163.781L428.467 163.773ZM445.338 120.35C443.027 120.397 440.778 119.593 439.031 118.092C438.192 117.407 437.517 116.545 437.06 115.568C436.603 114.591 436.373 113.523 436.39 112.445C436.36 111.327 436.583 110.219 437.04 109.198C437.497 108.177 438.177 107.269 439.031 106.54C440.758 104.997 443.012 104.159 445.338 104.196C447.769 104.099 450.143 104.938 451.96 106.54C452.789 107.284 453.447 108.197 453.884 109.215C454.321 110.234 454.531 111.337 454.499 112.445C454.521 113.513 454.304 114.574 453.864 115.548C453.427 116.525 452.774 117.393 451.957 118.09C450.118 119.645 447.752 120.454 445.336 120.348L445.338 120.35ZM437.337 163.773V125.34H453.532V163.773H437.337Z" fill="black"/>
<path d="M467.25 127.245V114.894H486.57V127.245H467.25ZM467.25 163.774V151.43H499.786V163.781L467.25 163.774ZM475.952 159.625V114.894H491.826V159.625H475.952ZM513.651 159.625V137.205C513.666 135.707 513.364 134.224 512.762 132.85C512.184 131.556 511.263 130.442 510.095 129.633C508.801 128.772 507.268 128.337 505.713 128.388C503.408 128.429 501.157 129.073 499.181 130.253C496.702 131.741 494.498 133.635 492.658 135.86C490.239 138.72 488.105 141.806 486.29 145.076V132.743C488.164 128.976 490.55 125.484 493.383 122.367C495.82 119.687 498.745 117.489 502 115.884C505.005 114.415 508.312 113.652 511.66 113.649C514.231 113.618 516.779 114.143 519.125 115.186C521.347 116.215 523.284 117.764 524.766 119.702C526.421 121.902 527.626 124.405 528.312 127.067C529.162 130.389 529.564 133.808 529.51 137.237V159.657L513.644 159.625H513.651ZM505.713 163.774V151.43H537.242V163.781L505.713 163.774ZM551.031 159.625V137.205C551.041 136.082 550.882 134.963 550.561 133.888C550.255 132.872 549.76 131.921 549.099 131.084C548.438 130.255 547.598 129.582 546.642 129.11C545.601 128.616 544.458 128.368 543.304 128.388C540.985 128.431 538.719 129.076 536.728 130.253C534.232 131.719 532.02 133.618 530.198 135.86C527.81 138.73 525.696 141.816 523.884 145.076V132.743C525.758 128.974 528.148 125.482 530.987 122.367C533.409 119.694 536.314 117.496 539.549 115.884C542.535 114.41 545.822 113.647 549.155 113.649C551.69 113.625 554.201 114.148 556.513 115.186C558.734 116.215 560.672 117.764 562.153 119.702C563.812 121.9 565.019 124.405 565.702 127.067C566.557 130.389 566.964 133.808 566.907 137.237V159.657L551.034 159.625H551.031ZM543.302 163.774V151.43H574.138V163.781L543.302 163.774Z" fill="black"/>
<path d="M603.364 164.723C599.733 164.728 596.118 164.179 592.647 163.098C589.25 162.061 586.055 160.433 583.21 158.291C580.308 156.139 577.965 153.305 576.388 150.035C574.809 146.765 574.04 143.155 574.146 139.517C574.083 135.678 574.911 131.879 576.565 128.423C578.157 125.182 580.401 122.314 583.156 120.008C585.956 117.645 589.153 115.809 592.596 114.588C596.155 113.326 599.9 112.689 603.673 112.708C607.835 112.63 611.979 113.282 615.919 114.635C619.114 115.713 621.969 117.628 624.194 120.187C626.188 122.56 627.258 125.589 627.202 128.702C627.311 131.803 626.256 134.828 624.247 137.171C622.153 139.492 619.499 141.223 616.547 142.196C613.291 143.326 609.868 143.892 606.428 143.868C602.661 143.951 598.903 143.427 595.298 142.319C592.091 141.24 588.974 139.912 585.968 138.348V129.484C589.025 131.028 592.271 132.156 595.621 132.837C597.833 133.225 600.073 133.433 602.319 133.465C603.973 133.44 605.618 133.212 607.217 132.784C608.323 132.514 609.342 131.955 610.172 131.166C610.489 130.852 610.742 130.477 610.912 130.065C611.081 129.653 611.174 129.207 611.174 128.759C611.164 128.192 611.001 127.641 610.703 127.16C610.405 126.682 609.982 126.295 609.483 126.04C608.095 125.275 606.528 124.91 604.951 124.986C603.005 124.986 601.077 125.342 599.257 126.04C597.452 126.724 595.779 127.712 594.306 128.967C592.858 130.185 591.657 131.676 590.769 133.357C589.806 135.311 589.357 137.485 589.469 139.667C589.58 141.848 590.247 143.963 591.405 145.807C592.722 147.704 594.551 149.175 596.679 150.042C599 151.008 601.492 151.491 604.005 151.459C607.532 151.508 611.038 150.886 614.339 149.623C617.231 148.515 619.963 147.023 622.461 145.179L628.999 155.538C626.823 157.394 624.453 159.007 621.935 160.345C619.233 161.781 616.363 162.872 613.393 163.588C610.111 164.372 606.746 164.755 603.374 164.725L603.364 164.723Z" fill="black"/>
<path d="M273.334 111.757C277.088 111.754 280.823 112.298 284.416 113.374C287.928 114.41 291.232 116.039 294.185 118.188C297.172 120.32 299.586 123.145 301.221 126.418C302.853 129.689 303.652 133.308 303.551 136.956C303.63 140.8 302.777 144.607 301.07 148.06C299.416 151.311 297.088 154.177 294.242 156.478C291.336 158.847 288.027 160.68 284.47 161.895C280.783 163.157 276.908 163.791 273.007 163.774C268.704 163.855 264.421 163.201 260.343 161.839C257.041 160.773 254.078 158.862 251.758 156.299C249.701 153.937 248.59 150.909 248.637 147.788C248.514 144.666 249.612 141.616 251.697 139.276C253.875 136.956 256.618 135.228 259.662 134.261C263.043 133.121 266.595 132.553 270.166 132.582C274.063 132.499 277.949 133.021 281.683 134.131C285.005 135.209 288.237 136.539 291.351 138.107V146.991C288.18 145.453 284.819 144.328 281.354 143.649C279.064 143.262 276.747 143.054 274.425 143.022C272.711 143.044 271.004 143.27 269.345 143.696C268.205 143.97 267.154 144.531 266.293 145.32C265.964 145.632 265.702 146.004 265.524 146.418C265.346 146.832 265.254 147.278 265.257 147.726C265.269 148.295 265.437 148.848 265.746 149.329C266.053 149.809 266.491 150.194 267.005 150.443C268.442 151.205 270.06 151.566 271.687 151.487C273.7 151.492 275.698 151.137 277.588 150.443C279.45 149.762 281.184 148.773 282.715 147.518C284.208 146.3 285.452 144.808 286.375 143.123C287.295 141.42 287.765 139.514 287.74 137.583C287.819 135.128 287.112 132.712 285.719 130.681C284.344 128.782 282.447 127.312 280.256 126.447C277.847 125.487 275.268 125.007 272.671 125.039C269.021 124.987 265.395 125.607 261.972 126.864C258.982 127.971 256.156 129.463 253.561 131.306L246.805 120.974C249.058 119.112 251.509 117.497 254.115 116.16C256.922 114.726 259.892 113.638 262.964 112.918C266.362 112.127 269.844 111.737 273.334 111.757Z" fill="black"/>
<path d="M214.69 111.757C218.446 111.754 222.182 112.298 225.777 113.374C229.285 114.413 232.591 116.039 235.543 118.188C238.528 120.322 240.941 123.147 242.573 126.418C244.204 129.689 245.006 133.305 244.904 136.953C244.978 140.798 244.125 144.607 242.414 148.057C240.765 151.308 238.441 154.177 235.595 156.476C232.69 158.842 229.382 160.677 225.829 161.893C222.142 163.154 218.268 163.789 214.369 163.774C210.067 163.855 205.785 163.201 201.707 161.839C198.404 160.773 195.442 158.862 193.125 156.299C191.066 153.94 189.953 150.909 190.005 147.788C189.882 144.666 190.977 141.616 193.064 139.276C195.242 136.958 197.984 135.231 201.027 134.261C204.407 133.121 207.958 132.555 211.528 132.582C215.425 132.499 219.309 133.021 223.042 134.131C226.358 135.206 229.585 136.537 232.693 138.107V146.991C229.523 145.453 226.168 144.328 222.706 143.649C220.414 143.265 218.095 143.054 215.771 143.022C214.06 143.044 212.356 143.27 210.7 143.696C209.558 143.97 208.507 144.531 207.641 145.32C207.315 145.632 207.053 146.004 206.875 146.418C206.697 146.832 206.605 147.276 206.603 147.726C206.615 148.295 206.783 148.848 207.092 149.329C207.402 149.809 207.837 150.194 208.351 150.443C209.787 151.203 211.404 151.566 213.031 151.487C215.044 151.492 217.042 151.139 218.928 150.443C220.81 149.767 222.563 148.78 224.108 147.518C225.601 146.303 226.843 144.811 227.76 143.123C228.68 141.42 229.149 139.514 229.125 137.583C229.204 135.13 228.499 132.715 227.112 130.681C225.737 128.78 223.844 127.312 221.65 126.447C219.24 125.487 216.663 125.009 214.067 125.039C210.415 124.987 206.788 125.607 203.364 126.864C200.377 127.971 197.554 129.466 194.962 131.306L188.158 120.974C190.413 119.109 192.868 117.497 195.477 116.16C198.278 114.726 201.245 113.636 204.316 112.918C207.713 112.127 211.194 111.737 214.683 111.757H214.69Z" fill="black"/>
<path d="M121 102.57V90H144.094V102.57H121ZM129.397 162.455V90H145.035V162.455H129.397ZM161.332 111.943C165.761 111.584 172.253 113.17 175.68 115.351C179.171 117.59 182.041 120.679 184.03 124.332C186.202 128.334 187.297 132.836 187.209 137.395C187.236 140.842 186.576 144.26 185.266 147.448C184.003 150.492 182.125 153.239 179.752 155.516C177.322 157.827 174.471 159.646 171.354 160.872C167.95 162.201 164.326 162.864 160.672 162.827C156.975 162.928 153.312 162.087 150.023 160.379C147.194 158.862 144.641 156.877 142.465 154.509C140.394 152.232 138.627 150.172 137.167 148.334L137.494 135.89C139.048 137.788 142.046 140.721 143.91 142.832C146.015 145.178 146.148 146.225 149.395 148.076C151.593 149.296 154.07 149.915 156.581 149.866C158.56 149.895 160.53 149.586 162.406 148.95C164.033 148.386 165.532 147.5 166.817 146.346C168.033 145.23 168.984 143.852 169.599 142.312C170.239 140.689 170.557 138.954 170.54 137.206C170.584 135.036 170.096 132.89 169.126 130.952C168.203 129.143 166.783 127.638 165.032 126.621C163.092 125.532 160.896 124.993 158.678 125.057C155.961 124.975 153.294 125.834 151.128 127.487C148.363 129.497 146.763 132.224 144.277 135.835C141.79 139.446 138.496 144.309 136.96 149.123V138.001C138.568 132.702 138.041 129.066 140.983 125.188C143.927 121.31 145.798 117.778 150.476 115.105C153.811 113.242 157.524 112.158 161.335 111.94L161.332 111.943Z" fill="black"/>
<path d="M370.14 151.157V137.36C370.196 133.745 369.776 130.14 368.892 126.638C368.191 123.848 366.953 121.228 365.249 118.928C363.691 116.86 361.628 115.241 359.262 114.235C354.357 112.326 348.952 112.195 343.964 113.869C341.669 114.703 339.523 115.916 337.616 117.459C335.345 119.294 333.236 121.327 331.314 123.536C330.867 124.043 330.411 124.573 329.952 125.118V113.995C326.197 114.782 323.345 114.77 323.345 114.77C318.247 114.998 313.94 114.683 310.302 113.965H305.453V126.542H314.128V151.162H305.453V163.739L322.402 163.759L329.952 163.778V163.768L337.862 163.778V151.162H329.952V137.189C331.483 135.31 333.17 133.567 334.996 131.987C336.51 130.665 338.211 129.578 340.043 128.765C341.625 128.079 343.324 127.72 345.043 127.71C346.378 127.691 347.707 127.941 348.947 128.446C350.05 128.916 351.042 129.622 351.86 130.511C352.658 131.4 353.278 132.442 353.676 133.577C354.103 134.777 354.316 136.045 354.301 137.323V151.165H346.398V163.741L362.588 163.761L370.14 163.781V163.771L377.342 163.781V151.165H370.14V151.157Z" fill="black"/>
</svg>
