<svg width="750" height="310" viewBox="0 0 750 310" fill="none" xmlns="http://www.w3.org/2000/svg">
<path d="M370.949 194.203V180.731H427.277V194.203H370.949ZM407.778 235.632C403.629 235.751 399.531 234.696 395.961 232.581C392.69 230.55 390.09 227.595 388.494 224.085C386.743 220.133 385.886 215.841 385.982 211.517V165.897H403.173V210.302C403.16 211.888 403.444 213.461 404.009 214.944C404.499 216.249 405.375 217.377 406.521 218.17C407.834 219.013 409.375 219.43 410.932 219.361C412.778 219.366 414.619 219.215 416.439 218.907C418.502 218.326 420.529 217.615 422.505 216.78L427.359 230.555C424.582 232.152 421.638 233.436 418.579 234.383C415.054 235.266 411.425 235.685 407.791 235.632H407.775H407.778Z" fill="black"/>
<path d="M399.766 188.456C399.458 188.456 399.155 188.315 398.948 188.045C398.591 187.574 398.664 186.889 399.116 186.516C399.236 186.415 411.018 176.56 416.848 164.18L402.494 143.719L386.727 151.044C386.2 151.289 385.584 151.044 385.349 150.494C385.114 149.945 385.349 149.303 385.876 149.058L402.413 141.377C402.865 141.167 403.392 141.314 403.682 141.728L418.903 163.424C419.13 163.745 419.166 164.17 419.004 164.531C413.062 177.651 400.927 187.798 400.416 188.225C400.223 188.383 399.995 188.461 399.766 188.461V188.456Z" fill="black"/>
<path d="M431.463 234.607V220.998H468.386V234.615L431.463 234.607ZM449.756 187.524C447.25 187.575 444.812 186.704 442.918 185.076C442.008 184.333 441.276 183.398 440.78 182.339C440.285 181.28 440.035 180.121 440.054 178.952C440.022 177.741 440.263 176.539 440.759 175.432C441.254 174.325 441.991 173.341 442.918 172.55C444.79 170.877 447.234 169.968 449.756 170.008C452.393 169.904 454.967 170.812 456.936 172.55C457.836 173.357 458.548 174.346 459.022 175.451C459.497 176.555 459.724 177.751 459.689 178.952C459.713 180.111 459.478 181.261 459.001 182.317C458.527 183.376 457.82 184.317 456.934 185.073C454.939 186.76 452.374 187.637 449.754 187.521L449.756 187.524ZM441.081 234.607V192.934H458.64V234.607H441.081Z" fill="black"/>
<path d="M473.514 194.999V181.608H494.462V194.999H473.514ZM473.514 234.607V221.224H508.792V234.615L473.514 234.607ZM482.949 230.109V181.608H500.161V230.109H482.949ZM523.826 230.109V205.799C523.842 204.175 523.515 202.567 522.862 201.077C522.235 199.674 521.237 198.467 519.97 197.589C518.568 196.655 516.905 196.183 515.219 196.239C512.72 196.283 510.279 196.982 508.136 198.261C505.448 199.875 503.058 201.929 501.064 204.341C498.44 207.442 496.127 210.788 494.159 214.334V200.961C496.191 196.877 498.777 193.09 501.85 189.71C504.492 186.805 507.663 184.421 511.193 182.681C514.451 181.088 518.036 180.26 521.667 180.258C524.455 180.224 527.217 180.793 529.761 181.924C532.17 183.039 534.271 184.719 535.877 186.82C537.673 189.207 538.979 191.92 539.723 194.807C540.644 198.409 541.08 202.116 541.022 205.833V230.144L523.818 230.109H523.826ZM515.219 234.607V221.224H549.406V234.615L515.219 234.607ZM564.357 230.109V205.799C564.368 204.581 564.195 203.368 563.847 202.203C563.515 201.101 562.979 200.07 562.262 199.163C561.545 198.264 560.634 197.533 559.598 197.022C558.47 196.486 557.229 196.218 555.978 196.239C553.464 196.286 551.007 196.985 548.848 198.261C546.142 199.851 543.744 201.91 541.768 204.341C539.179 207.452 536.887 210.798 534.921 214.334V200.961C536.953 196.874 539.545 193.088 542.623 189.71C545.249 186.813 548.399 184.429 551.907 182.681C555.145 181.083 558.709 180.255 562.323 180.258C565.072 180.231 567.794 180.798 570.301 181.924C572.709 183.039 574.81 184.719 576.417 186.82C578.215 189.204 579.524 191.92 580.265 194.807C581.192 198.409 581.633 202.116 581.571 205.833V230.144L564.36 230.109H564.357ZM555.976 234.607V221.224H589.411V234.615L555.976 234.607Z" fill="black"/>
<path d="M621.104 235.637C617.166 235.642 613.246 235.047 609.482 233.874C605.8 232.75 602.335 230.985 599.25 228.662C596.104 226.329 593.563 223.256 591.853 219.711C590.141 216.165 589.307 212.25 589.423 208.306C589.354 204.144 590.251 200.024 592.045 196.277C593.771 192.763 596.204 189.654 599.192 187.153C602.228 184.59 605.695 182.6 609.427 181.276C613.286 179.907 617.347 179.216 621.438 179.238C625.951 179.153 630.444 179.859 634.716 181.327C638.18 182.496 641.276 184.572 643.688 187.347C645.851 189.919 647.011 193.204 646.95 196.58C647.068 199.942 645.924 203.222 643.746 205.763C641.476 208.28 638.599 210.156 635.397 211.211C631.867 212.436 628.156 213.05 624.426 213.024C620.341 213.114 616.266 212.545 612.357 211.344C608.88 210.175 605.5 208.734 602.241 207.038V197.428C605.555 199.102 609.075 200.325 612.707 201.064C615.106 201.484 617.534 201.709 619.97 201.744C621.764 201.717 623.547 201.47 625.281 201.005C626.48 200.713 627.585 200.107 628.485 199.251C628.829 198.911 629.103 198.504 629.287 198.058C629.471 197.611 629.571 197.127 629.571 196.641C629.56 196.027 629.384 195.429 629.061 194.908C628.737 194.39 628.279 193.97 627.738 193.693C626.233 192.864 624.534 192.468 622.824 192.551C620.714 192.551 618.623 192.936 616.65 193.693C614.693 194.435 612.878 195.506 611.282 196.867C609.711 198.188 608.409 199.804 607.446 201.627C606.402 203.745 605.915 206.103 606.036 208.468C606.157 210.834 606.881 213.127 608.136 215.126C609.564 217.183 611.547 218.778 613.854 219.719C616.371 220.766 619.073 221.29 621.798 221.255C625.623 221.308 629.424 220.633 633.004 219.264C636.139 218.063 639.101 216.444 641.81 214.446L648.899 225.678C646.54 227.69 643.97 229.439 641.239 230.89C638.309 232.447 635.197 233.63 631.978 234.406C628.419 235.257 624.77 235.671 621.114 235.639L621.104 235.637Z" fill="black"/>
<path d="M263.254 178.206C267.324 178.203 271.374 178.793 275.27 179.959C279.078 181.083 282.66 182.85 285.862 185.179C289.102 187.491 291.719 190.554 293.491 194.103C295.261 197.649 296.127 201.573 296.017 205.529C296.103 209.697 295.178 213.826 293.328 217.569C291.534 221.094 289.01 224.202 285.924 226.697C282.773 229.266 279.185 231.253 275.329 232.57C271.331 233.939 267.129 234.627 262.9 234.608C258.234 234.696 253.589 233.986 249.167 232.509C245.587 231.354 242.375 229.282 239.86 226.503C237.628 223.942 236.424 220.658 236.475 217.274C236.341 213.889 237.532 210.582 239.792 208.045C242.155 205.529 245.129 203.656 248.43 202.607C252.096 201.371 255.946 200.755 259.819 200.787C264.045 200.697 268.258 201.262 272.307 202.466C275.908 203.635 279.413 205.077 282.789 206.778V216.41C279.351 214.742 275.707 213.523 271.95 212.787C269.467 212.367 266.954 212.141 264.436 212.107C262.578 212.131 260.728 212.375 258.928 212.837C257.692 213.135 256.552 213.743 255.619 214.599C255.263 214.936 254.978 215.34 254.785 215.789C254.592 216.238 254.493 216.721 254.496 217.207C254.509 217.824 254.691 218.424 255.027 218.945C255.359 219.465 255.834 219.883 256.392 220.154C257.95 220.98 259.703 221.37 261.468 221.285C263.651 221.291 265.817 220.905 267.866 220.154C269.885 219.415 271.765 218.342 273.425 216.982C275.045 215.661 276.394 214.043 277.394 212.216C278.391 210.369 278.901 208.302 278.874 206.209C278.96 203.547 278.193 200.928 276.683 198.725C275.192 196.667 273.135 195.073 270.76 194.135C268.148 193.093 265.351 192.573 262.535 192.607C258.577 192.551 254.646 193.224 250.934 194.586C247.692 195.787 244.627 197.405 241.814 199.403L234.488 188.2C236.931 186.181 239.589 184.43 242.415 182.98C245.459 181.426 248.679 180.246 252.01 179.465C255.694 178.607 259.47 178.185 263.254 178.206Z" fill="black"/>
<path d="M199.667 178.206C203.739 178.203 207.79 178.793 211.688 179.959C215.492 181.086 219.077 182.85 222.278 185.179C225.514 187.493 228.13 190.556 229.9 194.103C231.669 197.649 232.538 201.571 232.428 205.526C232.508 209.695 231.583 213.826 229.728 217.566C227.94 221.091 225.42 224.202 222.334 226.694C219.184 229.26 215.597 231.25 211.745 232.568C207.747 233.936 203.546 234.624 199.319 234.608C194.654 234.696 190.011 233.986 185.59 232.509C182.008 231.354 178.796 229.282 176.284 226.503C174.051 223.945 172.845 220.658 172.901 217.274C172.767 213.889 173.955 210.582 176.217 208.045C178.579 205.532 181.552 203.659 184.852 202.607C188.517 201.371 192.367 200.758 196.238 200.787C200.463 200.697 204.675 201.262 208.723 202.466C212.318 203.632 215.817 205.075 219.187 206.778V216.41C215.75 214.742 212.112 213.523 208.359 212.787C205.873 212.37 203.359 212.141 200.839 212.107C198.983 212.131 197.136 212.375 195.34 212.837C194.102 213.135 192.962 213.743 192.024 214.599C191.67 214.936 191.386 215.34 191.193 215.789C191 216.238 190.901 216.719 190.898 217.207C190.911 217.824 191.094 218.424 191.429 218.945C191.764 219.465 192.236 219.883 192.793 220.154C194.351 220.977 196.104 221.37 197.868 221.285C200.05 221.291 202.217 220.908 204.262 220.154C206.302 219.42 208.203 218.35 209.879 216.982C211.498 215.664 212.844 214.046 213.838 212.216C214.836 210.369 215.345 208.302 215.318 206.209C215.404 203.55 214.64 200.93 213.136 198.725C211.645 196.664 209.592 195.073 207.214 194.135C204.6 193.093 201.806 192.575 198.992 192.607C195.032 192.551 191.099 193.224 187.386 194.586C184.147 195.787 181.086 197.408 178.276 199.403L170.898 188.2C173.343 186.178 176.006 184.43 178.834 182.98C181.871 181.426 185.088 180.243 188.418 179.465C192.102 178.607 195.876 178.185 199.659 178.206H199.667Z" fill="black"/>
<path d="M98.0781 168.245V154.615H123.119V168.245H98.0781ZM107.183 233.178V154.615H124.139V233.178H107.183ZM141.81 178.408C146.612 178.019 153.651 179.739 157.367 182.103C161.152 184.531 164.265 187.88 166.421 191.841C168.776 196.181 169.964 201.062 169.868 206.005C169.897 209.743 169.182 213.449 167.761 216.906C166.392 220.206 164.355 223.185 161.782 225.654C159.147 228.16 156.056 230.133 152.677 231.461C148.985 232.902 145.056 233.621 141.095 233.581C137.085 233.691 133.113 232.779 129.547 230.927C126.48 229.282 123.712 227.13 121.352 224.562C119.107 222.093 117.191 219.86 115.608 217.866L115.963 204.373C117.647 206.432 120.898 209.612 122.919 211.901C125.201 214.445 125.346 215.58 128.866 217.587C131.25 218.91 133.935 219.581 136.658 219.527C138.804 219.56 140.94 219.224 142.974 218.534C144.738 217.923 146.364 216.962 147.757 215.711C149.076 214.501 150.106 213.006 150.774 211.337C151.468 209.577 151.812 207.696 151.793 205.801C151.841 203.448 151.313 201.121 150.261 199.02C149.26 197.058 147.72 195.427 145.822 194.324C143.719 193.143 141.338 192.558 138.933 192.628C135.986 192.539 133.095 193.47 130.746 195.263C127.748 197.442 126.013 200.399 123.317 204.314C120.621 208.23 117.049 213.503 115.384 218.722V206.662C117.127 200.917 116.555 196.975 119.745 192.77C122.938 188.565 124.966 184.735 130.038 181.837C133.655 179.816 137.681 178.641 141.813 178.405L141.81 178.408Z" fill="black"/>
<path d="M266.061 126.92C266.003 126.92 265.945 126.915 265.886 126.907C260.015 125.921 256.496 119.696 256.35 119.43C250.91 109.844 249.533 100.62 252.257 92.0282C257.054 76.9071 272.714 69.3089 274.484 68.493C287.116 62.6638 296.464 66.1156 302.082 70.0385C308.129 74.2604 311.156 79.7854 311.281 80.0169C311.456 80.34 311.453 80.7304 311.281 81.0535C311.105 81.3766 310.778 81.5867 310.417 81.6082C304.203 82.0067 298.465 84.3357 293.365 88.5252C289.245 91.9097 285.519 96.5112 282.295 102.203C276.762 111.969 274.604 121.665 274.582 121.761C274.455 122.343 273.889 122.709 273.315 122.58C272.74 122.451 272.379 121.877 272.507 121.296C272.594 120.889 274.742 111.226 280.424 101.177C283.781 95.243 287.677 90.4288 292.004 86.8693C296.977 82.7794 302.526 80.3454 308.519 79.6211C307.257 77.7633 304.671 74.4435 300.812 71.7644C293.314 66.5625 284.754 66.1209 275.366 70.4532C273.684 71.2286 258.8 78.4472 254.282 92.6878C251.747 100.679 253.065 109.319 258.2 118.366C258.234 118.428 261.381 123.967 266.234 124.782C266.814 124.879 267.204 125.434 267.109 126.021C267.024 126.549 266.572 126.923 266.061 126.923V126.92Z" fill="black"/>
<path d="M290.719 88.9745C290.487 88.9745 290.252 88.9011 290.057 88.7465C289.871 88.5998 285.483 85.126 285.784 80.8925C285.953 78.5294 287.509 76.4782 290.41 74.7963C290.778 74.5579 293.423 72.952 296.564 73.8715C299.289 74.6679 301.496 77.0781 303.127 81.0313C303.349 81.5684 303.084 82.1788 302.537 82.3962C301.993 82.6137 301.368 82.3543 301.147 81.8173C299.778 78.498 298.037 76.5017 295.977 75.8861C293.652 75.1919 291.603 76.5332 291.584 76.5463C291.565 76.5594 291.541 76.5751 291.52 76.5856C289.246 77.8981 288.034 79.3913 287.914 81.0313C287.685 84.1593 291.349 87.0751 291.386 87.1039C291.846 87.4655 291.923 88.123 291.555 88.5763C291.344 88.8356 291.032 88.9718 290.719 88.9718V88.9745Z" fill="black"/>
<path d="M288.915 86.9232C288.682 86.9232 288.444 86.8526 288.248 86.7035C287.769 86.3506 287.681 85.6944 288.051 85.2369C288.261 84.9755 293.282 78.8553 300.918 77.705C301.514 77.6161 302.075 78.0057 302.168 78.5756C302.261 79.1455 301.854 79.6815 301.257 79.7703C294.497 80.7873 289.826 86.4578 289.779 86.5153C289.563 86.782 289.24 86.9205 288.912 86.9205L288.915 86.9232Z" fill="black"/>
<path d="M271.33 132.051C269.908 132.051 268.825 131.469 268.119 130.92C266.144 129.379 264.566 125.685 265.568 123.406C266.434 121.433 267.684 120.244 269.276 119.867C272.316 119.146 275.382 121.811 275.512 121.925C275.931 122.295 275.987 122.95 275.638 123.39C275.291 123.832 274.671 123.89 274.253 123.525C274.228 123.504 271.792 121.4 269.701 121.899C268.724 122.133 267.957 122.911 267.354 124.282C266.978 125.141 267.548 127.886 269.288 129.244C271.502 130.969 274.117 129.273 275.921 127.545C276.324 127.16 276.947 127.191 277.311 127.618C277.675 128.045 277.646 128.703 277.242 129.088C274.89 131.338 272.902 132.051 271.33 132.051Z" fill="black"/>
<path d="M260.591 142.308C259.542 142.308 258.842 141.92 258.735 141.856C258.652 141.807 258.58 141.748 258.512 141.678C255.891 138.925 255.331 134.659 256.893 129.342C258.029 125.479 259.864 122.423 259.942 122.294C260.238 121.809 260.874 121.65 261.367 121.94C261.857 122.23 262.018 122.862 261.725 123.35C261.657 123.463 254.985 134.669 259.898 140.132C260.134 140.22 260.78 140.392 261.629 140.017C262.911 139.452 265.353 137.302 267.312 129.252C267.447 128.7 268.005 128.361 268.566 128.495C269.124 128.628 269.466 129.183 269.331 129.735C267.657 136.608 265.317 140.715 262.371 141.938C261.712 142.213 261.11 142.305 260.591 142.305V142.308Z" fill="black"/>
<path d="M253.562 91.0257C253.367 91.0257 253.167 90.9796 252.984 90.8821C252.882 90.8279 250.499 89.5248 249.976 87.1759C249.659 85.7509 250.075 84.2988 251.217 82.8656C251.595 82.3644 254.222 79.2218 258.555 81.7278C259.101 82.0447 259.266 82.7112 258.929 83.2205C258.589 83.7298 257.874 83.887 257.328 83.57C254.739 82.0718 253.379 83.7434 253.132 84.0929C253.12 84.1091 253.1 84.1362 253.088 84.1525C252.362 85.0682 252.08 85.9324 252.251 86.7235C252.554 88.116 254.134 88.9965 254.152 89.0074C254.704 89.3108 254.89 89.9718 254.567 90.4866C254.352 90.8333 253.963 91.0257 253.562 91.0257Z" fill="black"/>
<path d="M278.247 144.356C278.049 144.356 277.853 144.295 277.683 144.176C276.436 143.3 275.542 142.038 274.929 140.885C273.731 143.659 272.149 143.62 271.775 143.573C271.574 143.546 271.386 143.455 271.232 143.313C268.336 140.628 266.409 133.763 266.326 133.472C266.164 132.886 266.473 132.272 267.019 132.098C267.563 131.923 268.138 132.255 268.302 132.842C268.774 134.534 270.333 139.112 272.19 141.236C272.564 140.949 273.275 140.077 273.772 137.48C273.87 136.977 274.277 136.612 274.756 136.598C275.223 136.589 275.658 136.927 275.779 137.425C275.787 137.452 276.485 140.224 278.26 141.878C278.814 141.289 279.687 139.878 279.602 136.883C279.584 136.271 280.033 135.762 280.599 135.743C281.164 135.729 281.643 136.205 281.661 136.814C281.831 142.677 278.796 144.199 278.665 144.262C278.531 144.326 278.386 144.359 278.245 144.359L278.247 144.356Z" fill="black"/>
<path d="M310.506 130C308.764 130 307.107 129.008 306.215 127.403C305.157 125.503 304.975 123.934 305.673 122.739C306.526 121.278 308.31 121.051 308.857 121.017C311.484 120.376 312.421 119.828 312.738 119.573C312.615 119.481 312.441 119.378 312.289 119.317C312.272 119.312 312.253 119.301 312.236 119.295C310.688 118.573 309.821 117.673 309.656 116.626C309.513 115.715 309.959 114.934 310.385 114.543C310.483 114.451 310.595 114.382 310.719 114.329C313.007 113.393 313.33 112.501 313.262 112.215C313.234 112.179 313.254 112.198 313.223 112.123C312.345 110.124 307.449 105.938 306.599 105.485C306.052 105.285 305.749 104.699 305.912 104.135C306.083 103.546 306.706 103.207 307.3 103.377C308.503 103.721 314.121 108.682 315.262 111.199C315.397 111.465 315.697 112.218 315.36 113.204C314.954 114.398 313.781 115.423 311.871 116.256C311.871 116.268 311.869 116.279 311.871 116.287C311.899 116.431 312.208 116.82 313.167 117.27C313.579 117.443 315.206 118.212 315.097 119.698C314.987 121.198 313.248 122.242 309.283 123.198C309.202 123.217 309.12 123.228 309.039 123.228C308.761 123.237 307.889 123.373 307.614 123.853C307.353 124.309 307.561 125.209 308.181 126.328C308.708 127.275 309.678 127.842 310.674 127.77C311.182 127.733 311.585 127.553 311.905 127.222C312.334 126.778 313.044 126.761 313.492 127.186C313.941 127.611 313.958 128.314 313.529 128.758C312.828 129.486 311.897 129.911 310.839 129.986C310.727 129.994 310.618 129.997 310.506 129.997V130ZM306.624 105.496C306.647 105.505 306.666 105.51 306.683 105.516C306.663 105.51 306.644 105.505 306.624 105.496Z" fill="black"/>
<path d="M292.841 116.667C291.558 116.667 290.213 116.23 289.053 115.005C289.037 114.989 289.021 114.97 289.004 114.95C288.9 114.821 286.411 111.77 286.848 108.571C287.063 107 287.92 105.693 289.391 104.685C290.811 103.713 292.468 103.241 294.055 103.348C294.987 103.414 295.856 103.653 296.635 104.062C297.164 104.339 297.371 105.001 297.1 105.54C296.828 106.081 296.181 106.292 295.655 106.015C295.137 105.743 294.549 105.581 293.91 105.537C292.796 105.457 291.614 105.803 290.586 106.509C289.635 107.16 289.109 107.931 288.978 108.868C288.916 109.315 288.945 109.774 289.034 110.216C290.368 108.475 292.817 106.63 296.176 107.443C297.527 107.769 298.627 108.895 298.984 110.309C299.384 111.905 298.775 113.596 297.312 114.953C296.485 115.716 294.731 116.661 292.841 116.661V116.667ZM290.626 113.509C292.594 115.543 295.397 113.767 295.87 113.327C296.734 112.528 297.102 111.652 296.904 110.861C296.748 110.246 296.246 109.722 295.682 109.584C292.487 108.81 290.484 111.581 290.054 112.674C290.325 113.116 290.559 113.421 290.626 113.509Z" fill="black"/>
<path d="M313.231 103.333C311.924 103.333 310.553 102.901 309.371 101.689C309.344 101.659 309.316 101.629 309.292 101.596C309.179 101.452 306.561 98.0298 307.519 94.6509C308.066 92.7209 309.617 91.2584 312.126 90.3043C312.482 90.1575 314.457 89.4561 317.111 90.8643C317.644 91.147 317.847 91.8048 317.562 92.3349C317.278 92.865 316.616 93.0634 316.082 92.7834C314.257 91.8157 313.018 92.2914 312.966 92.3131C312.947 92.3213 312.947 92.3213 312.928 92.3294C311.092 93.0226 309.984 94.0012 309.631 95.2326C309.489 95.7274 309.472 96.2384 309.53 96.7359C310.922 95.0804 313.354 93.4331 316.632 94.2051C318.008 94.5286 319.13 95.6431 319.494 97.0431C319.902 98.6224 319.28 100.297 317.789 101.64C316.947 102.395 315.16 103.331 313.234 103.331L313.231 103.333ZM310.991 100.224C312.996 102.211 315.836 100.46 316.317 100.028C317.198 99.2368 317.573 98.3696 317.371 97.5867C317.212 96.9778 316.701 96.4586 316.126 96.3227C312.939 95.5724 310.914 98.1875 310.419 99.3129C310.676 99.7777 310.906 100.107 310.991 100.224Z" fill="black"/>
<path d="M347.685 164.872C347.194 164.872 346.756 164.512 346.656 163.994C346.543 163.402 346.913 162.829 347.483 162.712C352.484 161.681 354.142 159.256 354.16 159.232C354.2 159.174 354.25 159.109 354.299 159.06C355.458 157.887 355.298 157.483 355.056 156.873C354.846 156.341 354.494 155.449 355.124 154.464C355.229 154.301 356.094 152.836 354.468 151.391C354.087 151.052 353.984 150.474 354.231 150.022C355.053 148.511 354.473 147.845 354.465 147.84C354.407 147.782 354.355 147.72 354.31 147.652C354.142 147.39 353.015 147.338 352.119 147.551C351.738 147.641 351.342 147.504 351.087 147.196C350.832 146.888 350.764 146.46 350.908 146.083C352.842 141.038 352.064 139.797 351.888 139.598C351.526 139.191 350.675 139.44 350.667 139.442C350.627 139.456 350.575 139.47 350.533 139.478C349.398 139.688 346.503 143.708 344.515 147.327C344.263 147.782 343.735 147.99 343.257 147.815C342.779 147.643 342.487 147.139 342.563 146.621C342.986 143.771 342.422 142.854 342.159 142.592C341.951 142.385 341.702 142.352 341.589 142.352C338.844 143.599 339.157 146.989 339.209 147.412C339.319 147.706 339.306 148.047 339.143 148.344C338.857 148.868 338.216 149.053 337.712 148.756C336.945 148.306 337.037 146.866 337.081 146.173C337.263 143.361 338.668 141.21 340.935 140.269C340.995 140.244 341.058 140.225 341.124 140.211C341.266 140.181 342.55 139.96 343.611 141.019C344.097 141.504 344.436 142.161 344.625 142.991C346.215 140.536 348.361 137.732 350.081 137.342C350.877 137.094 352.408 136.988 353.409 138.098C354.565 139.377 354.578 141.717 353.441 145.23C354.363 145.254 355.397 145.502 355.996 146.356C356.33 146.754 357.273 148.14 356.406 150.341C357.357 151.516 358.219 153.556 356.866 155.67L356.863 155.675C356.879 155.754 356.945 155.921 356.992 156.043C357.441 157.181 357.754 158.558 355.823 160.552C355.397 161.141 353.254 163.745 347.885 164.85C347.817 164.864 347.748 164.872 347.68 164.872H347.685Z" fill="black"/>
<path d="M315.91 149.103C313.26 149.103 308.189 148.655 303.468 145.711C302.967 145.399 302.815 144.744 303.127 144.243C303.438 143.742 304.096 143.59 304.594 143.902C309.159 146.748 314.224 147.006 316.405 146.961L315.748 142.543C314.203 142.99 312.054 143.145 309.337 143.006C306.709 142.871 304.514 142.511 304.421 142.495C303.84 142.399 303.449 141.85 303.545 141.269C303.641 140.688 304.189 140.299 304.77 140.392C307.111 140.782 313.702 141.49 316.07 140.126C316.376 139.95 316.749 139.937 317.066 140.091C317.383 140.246 317.604 140.544 317.657 140.893L318.688 147.805C318.73 148.091 318.656 148.381 318.48 148.61C318.304 148.839 318.043 148.989 317.758 149.021C317.67 149.031 316.991 149.106 315.915 149.106L315.91 149.103Z" fill="black"/>
<path d="M324.939 144.19C324.74 144.19 324.54 144.134 324.369 144.024L318.321 140.182C318.063 140.017 317.887 139.75 317.839 139.446C317.791 139.143 317.877 138.834 318.074 138.599C318.095 138.572 320.47 135.66 320.974 131.277C321.04 130.69 321.573 130.272 322.154 130.339C322.737 130.405 323.158 130.936 323.091 131.519C322.689 135.007 321.28 137.645 320.412 138.985L324.42 141.53C324.761 140.374 325.123 138.301 324.644 135.452C324.545 134.871 324.937 134.322 325.517 134.224C326.098 134.125 326.647 134.517 326.745 135.098C327.648 140.462 325.938 143.526 325.866 143.654C325.722 143.907 325.48 144.088 325.198 144.158C325.112 144.179 325.027 144.19 324.942 144.19H324.939Z" fill="black"/>
<path d="M316.849 142.575C316.737 142.575 316.635 142.569 316.545 142.559C315.962 142.489 315.544 141.957 315.615 141.373C315.685 140.795 316.204 140.382 316.782 140.44C316.912 140.451 317.93 140.475 318.779 139.188C319.104 138.698 319.765 138.562 320.255 138.887C320.745 139.212 320.881 139.873 320.556 140.363C319.397 142.119 317.802 142.577 316.849 142.577V142.575Z" fill="black"/>
<path d="M446.76 163.846C446.723 163.846 446.688 163.846 446.651 163.841L423.14 161.673C422.555 161.619 422.128 161.143 422.187 160.614C422.246 160.082 422.77 159.697 423.353 159.748L446.864 161.917C447.45 161.97 447.876 162.446 447.817 162.976C447.761 163.474 447.298 163.846 446.76 163.846Z" fill="black"/>
<path d="M450.854 152.564C450.672 152.564 450.487 152.518 450.318 152.418L426.895 138.696C418.736 134.382 414.392 136.237 409.642 140.898C409.219 141.315 408.538 141.305 408.125 140.877C407.712 140.449 407.723 139.761 408.147 139.344C413.32 134.265 418.659 131.887 427.908 136.787C427.922 136.795 427.935 136.8 427.949 136.808L451.39 150.541C451.902 150.841 452.076 151.505 451.781 152.022C451.583 152.369 451.224 152.564 450.854 152.564Z" fill="black"/>
<path d="M461.772 168.972C461.336 168.972 460.894 168.903 460.463 168.755L455.585 167.099C454.4 166.696 453.505 165.77 453.13 164.552C452.756 163.336 452.968 162.055 453.711 161.031C457.828 155.369 459.33 152.949 459.878 151.933C459.428 151.886 458.69 151.854 457.505 151.912C456.225 151.983 455.1 151.042 454.891 149.742L453.915 143.642C453.755 142.64 454.186 141.63 455.015 141.068L468.878 131.654C471.645 129.773 475.112 129.478 478.147 130.863C479.205 131.345 480.003 132.223 480.393 133.336C480.783 134.449 480.713 135.646 480.194 136.704L465.551 166.604C464.826 168.086 463.334 168.974 461.777 168.974L461.772 168.972ZM458.672 149.773C460.931 149.773 461.599 150.153 461.958 150.575C462.655 151.398 462.121 152.484 459.921 155.799C458.509 157.93 456.664 160.504 455.366 162.292C455.022 162.764 454.924 163.357 455.097 163.919C455.27 164.481 455.686 164.911 456.235 165.098L461.114 166.754C462.118 167.094 463.228 166.622 463.7 165.659L478.343 135.76C478.607 135.222 478.643 134.613 478.444 134.046C478.245 133.479 477.84 133.033 477.303 132.785C474.918 131.699 472.195 131.931 470.019 133.407L456.155 142.822C456.003 142.927 455.921 143.115 455.952 143.299L456.927 149.399C456.966 149.639 457.17 149.818 457.407 149.802C457.877 149.781 458.298 149.771 458.672 149.771V149.773Z" fill="black"/>
<path d="M457.01 124.872C455.796 124.872 454.667 124.365 453.873 123.455C453.01 122.465 452.701 121.178 453.021 119.917C454.8 112.95 455.303 110.076 455.433 108.904C454.969 109.038 454.227 109.306 453.08 109.835C451.835 110.406 450.347 109.982 449.617 108.848L446.181 103.514C445.617 102.637 445.634 101.516 446.226 100.657L456.119 86.2588C458.094 83.3856 461.394 81.7222 464.962 81.7974C466.201 81.8269 467.346 82.3312 468.182 83.2192C469.017 84.1072 469.432 85.2581 469.349 86.46L466.976 120.394C466.824 122.546 465.04 124.292 462.821 124.453L457.331 124.856C457.223 124.864 457.115 124.866 457.007 124.866L457.01 124.872ZM456.136 106.621C456.493 106.621 456.739 106.693 456.944 106.793C457.967 107.284 457.878 108.52 457.046 112.512C456.512 115.077 455.732 118.235 455.171 120.432C455.021 121.014 455.165 121.61 455.563 122.068C455.964 122.527 456.545 122.763 457.165 122.718L462.655 122.315C463.784 122.232 464.691 121.344 464.768 120.249L467.142 86.3151C467.186 85.7035 466.973 85.1186 466.547 84.6679C466.121 84.2172 465.54 83.9597 464.909 83.9436C462.119 83.8765 459.513 85.1911 457.961 87.4499L448.068 101.848C447.957 102.007 447.954 102.216 448.059 102.38L451.495 107.713C451.63 107.922 451.904 108.003 452.131 107.898C454.261 106.916 455.417 106.624 456.133 106.624L456.136 106.621Z" fill="black"/>
<path d="M413 117.692C412.515 117.692 412.077 117.361 411.955 116.864C411.813 116.28 412.168 115.693 412.744 115.55L445.461 107.468C446.04 107.324 446.621 107.682 446.764 108.263C446.907 108.847 446.551 109.434 445.975 109.578L413.259 117.66C413.173 117.681 413.086 117.692 413 117.692Z" fill="black"/>
<path d="M426.338 132.051C425.917 132.051 425.514 131.823 425.342 131.443C425.112 130.936 425.369 130.355 425.919 130.141L447.349 121.872C447.9 121.661 448.532 121.897 448.764 122.404C448.993 122.91 448.737 123.492 448.186 123.705L426.756 131.974C426.618 132.026 426.478 132.051 426.34 132.051H426.338Z" fill="black"/>
<path d="M328.841 121.792C328.637 121.792 328.428 121.726 328.249 121.587C327.79 121.231 327.686 120.537 328.012 120.037C328.208 119.737 332.953 112.711 343.423 115.116C343.974 115.244 344.326 115.833 344.211 116.432C344.096 117.032 343.553 117.418 343.002 117.291C333.82 115.183 329.71 121.267 329.672 121.328C329.473 121.631 329.159 121.795 328.841 121.795V121.792Z" fill="black"/>
<path d="M313.562 184.356C307.599 184.356 303.238 183.302 303.01 183.245C294.586 181.383 288.403 177.405 284.662 171.428C278.689 161.883 281.111 150.787 281.217 150.32C281.347 149.743 281.916 149.381 282.486 149.515C283.056 149.647 283.414 150.224 283.281 150.801C283.247 150.959 280.973 161.542 286.461 170.295C289.89 175.76 295.616 179.412 303.484 181.152C303.577 181.173 310.432 182.827 318.499 181.946C328.873 180.814 336.385 176.232 340.845 168.319L329.3 156.019L321.811 159.825C321.289 160.09 320.65 159.876 320.388 159.347C320.126 158.818 320.338 158.171 320.86 157.905L329.051 153.745C329.467 153.533 329.973 153.622 330.293 153.965L342.915 167.412C343.23 167.748 343.296 168.25 343.082 168.66C338.381 177.539 329.936 182.875 318.66 184.091C316.877 184.284 315.16 184.359 313.556 184.359L313.562 184.356Z" fill="black"/>
<path d="M371.851 143.333C371.689 143.333 371.527 143.299 371.37 143.225C363.997 139.761 357.945 132.958 354.766 124.562C352.343 118.165 351.791 111.285 353.204 105.188C353.336 104.615 353.925 104.257 354.519 104.385C355.113 104.512 355.484 105.079 355.352 105.652C354.026 111.357 354.554 117.815 356.831 123.832C359.818 131.717 365.466 138.09 372.332 141.315C372.88 141.572 373.105 142.206 372.838 142.734C372.649 143.11 372.255 143.331 371.848 143.331L371.851 143.333Z" fill="black"/>
<path d="M387.031 138.246C395.99 134.973 399.699 122.584 395.315 110.574C390.932 98.5644 380.117 91.4817 371.158 94.7547C362.2 98.0276 358.491 110.417 362.874 122.427C367.257 134.437 378.073 141.519 387.031 138.246Z" fill="white"/>
<path d="M375.064 125.895C374.836 125.895 374.607 125.822 374.411 125.673C373.93 125.303 373.835 124.61 374.194 124.118L379.906 116.356L376.993 104.719C376.843 104.125 377.197 103.52 377.779 103.367C378.361 103.217 378.954 103.575 379.104 104.169L382.148 116.323C382.23 116.647 382.162 116.994 381.963 117.263L375.935 125.453C375.72 125.745 375.393 125.897 375.064 125.897V125.895Z" fill="black"/>
<path d="M382.532 139.231C379.22 139.231 375.799 138.189 372.546 136.145C367.703 133.103 363.805 128.186 361.564 122.297C359.326 116.411 359.005 110.239 360.666 104.915C362.361 99.4851 365.905 95.5759 370.647 93.9143C380.318 90.5234 391.981 97.7376 396.645 109.999C398.883 115.885 399.203 122.057 397.543 127.381C395.85 132.811 392.304 136.718 387.562 138.382C385.94 138.949 384.249 139.231 382.529 139.231H382.532ZM375.666 95.154C374.214 95.154 372.779 95.3858 371.393 95.8728C367.31 97.3053 364.239 100.727 362.744 105.514C361.217 110.408 361.52 116.117 363.601 121.583C365.682 127.05 369.279 131.602 373.731 134.402C378.086 137.137 382.733 137.856 386.816 136.426C390.899 134.993 393.97 131.571 395.465 126.784C396.992 121.891 396.686 116.182 394.608 110.715C391.045 101.35 383.156 95.1566 375.663 95.1566L375.666 95.154Z" fill="black"/>
<path d="M379.716 85.8947C379.594 85.8947 379.469 85.873 379.347 85.8298C378.784 85.6271 378.491 85.0083 378.694 84.4462L381.544 76.5664L376.202 77.1366C375.839 77.1744 375.478 77.0285 375.245 76.7448C375.015 76.461 374.942 76.08 375.053 75.7341L378.778 64.0847C378.96 63.5145 379.569 63.2037 380.141 63.3848C380.71 63.5658 381.027 64.1739 380.843 64.744L377.621 74.8127L383.035 74.2344C383.403 74.1966 383.771 74.3479 384.002 74.6424C384.232 74.9343 384.294 75.3261 384.17 75.6774L380.732 85.184C380.572 85.6244 380.157 85.8974 379.713 85.8974L379.716 85.8947Z" fill="black"/>
<path d="M389.417 87.9488C389.138 87.9488 388.857 87.8428 388.645 87.6334C388.226 87.2173 388.231 86.5441 388.656 86.1333L393.143 81.8026L389.463 80.5304C389.117 80.4112 388.857 80.1302 388.77 79.7804C388.683 79.4332 388.784 79.0648 389.033 78.8024L395.694 71.8717C396.102 71.4449 396.787 71.4264 397.223 71.8266C397.659 72.2268 397.681 72.8973 397.269 73.3241L391.748 79.0701L395.493 80.3635C395.845 80.4854 396.108 80.7769 396.189 81.1321C396.27 81.4899 396.159 81.8609 395.891 82.118L390.173 87.6387C389.961 87.8428 389.688 87.9435 389.412 87.9435L389.417 87.9488Z" fill="black"/>
<path d="M399.766 188.456C399.458 188.456 399.155 188.315 398.948 188.045C398.591 187.574 398.664 186.889 399.116 186.516C399.236 186.415 411.018 176.56 416.848 164.18L402.494 143.719L386.727 151.044C386.2 151.289 385.584 151.044 385.349 150.494C385.114 149.945 385.349 149.303 385.876 149.058L402.413 141.377C402.865 141.167 403.392 141.314 403.682 141.728L418.903 163.424C419.13 163.745 419.166 164.17 419.004 164.531C413.062 177.651 400.927 187.798 400.416 188.225C400.223 188.383 399.995 188.461 399.766 188.461V188.456Z" fill="black"/>
<path d="M358.039 93.077C357.832 93.077 357.622 93.0615 357.415 93.0254C356.483 92.8734 355.671 92.3966 355.128 91.6827C354.586 90.9689 354.379 90.1029 354.544 89.2447C354.709 88.3865 355.226 87.6392 356.002 87.1392L360.199 84.4358C360.974 83.9358 361.914 83.7451 362.846 83.8972C363.778 84.0492 364.589 84.526 365.132 85.2398C366.252 86.714 365.86 88.7525 364.259 89.7834L360.062 92.4868C359.46 92.8734 358.758 93.077 358.039 93.077ZM362.225 85.9073C361.959 85.9073 361.702 85.9821 361.48 86.1238L357.283 88.8272C356.998 89.0102 356.807 89.286 356.746 89.603C356.684 89.92 356.763 90.2369 356.961 90.4998C357.373 91.041 358.187 91.175 358.777 90.7962L362.975 88.0928C363.565 87.7139 363.708 86.964 363.297 86.4202C363.098 86.1573 362.798 85.9821 362.454 85.9254C362.379 85.9125 362.3 85.9073 362.225 85.9073Z" fill="black"/>
<path d="M362.44 95.1257C361.563 95.1257 360.699 94.7511 360.159 94.0501L358.793 92.2785C358.623 92.0583 358.557 91.785 358.61 91.5218C358.66 91.2586 358.827 91.0232 359.069 90.8688L363.379 88.1305C363.884 87.8116 364.577 87.923 364.931 88.381L366.296 90.1526C367.174 91.294 366.868 92.8707 365.611 93.6679L364.031 94.6727C363.547 94.9789 362.992 95.1282 362.443 95.1282L362.44 95.1257ZM361.259 91.9444L361.986 92.8884C362.101 93.0352 362.257 93.0808 362.343 93.0934C362.426 93.1061 362.591 93.1137 362.752 93.0099L364.335 92.0052C364.497 91.9014 364.547 91.7597 364.561 91.6838C364.575 91.6078 364.583 91.4585 364.469 91.3092L363.742 90.3652L361.259 91.9419V91.9444Z" fill="black"/>
<path d="M248.252 157.692C248.132 157.692 248.013 157.672 247.897 157.628L243.421 155.951C242.856 155.74 242.558 155.074 242.753 154.464C242.948 153.853 243.565 153.532 244.13 153.742L246.969 154.805L246.639 151.819C246.595 151.428 246.739 151.036 247.02 150.785C247.302 150.531 247.681 150.449 248.032 150.563L253.209 152.272C253.78 152.462 254.102 153.114 253.929 153.73C253.755 154.347 253.149 154.694 252.578 154.507L248.988 153.321L249.326 156.383C249.369 156.784 249.22 157.181 248.931 157.432C248.736 157.602 248.495 157.689 248.252 157.689V157.692Z" fill="black"/>
<path d="M254.031 166.923C253.444 166.923 252.963 166.461 252.95 165.879C252.936 165.289 253.409 164.801 254.007 164.788L258.829 164.681L256.76 160.714C256.593 160.394 256.601 160.009 256.782 159.697C256.963 159.385 257.293 159.182 257.658 159.16L265.137 158.72C265.732 158.685 266.245 159.134 266.281 159.721C266.316 160.311 265.861 160.815 265.266 160.85L259.443 161.194L261.545 165.223C261.715 165.551 261.704 165.941 261.512 166.258C261.323 166.573 260.98 166.771 260.606 166.779L254.053 166.923C254.053 166.923 254.037 166.923 254.029 166.923H254.031Z" fill="black"/>
<path d="M368.217 220.928V205.968C368.278 202.048 367.823 198.138 366.864 194.342C366.105 191.316 364.762 188.475 362.914 185.981C361.225 183.739 358.988 181.983 356.423 180.893C351.105 178.823 345.243 178.681 339.835 180.496C337.346 181.401 335.019 182.716 332.952 184.389C330.49 186.379 328.202 188.583 326.119 190.978C325.634 191.528 325.139 192.103 324.642 192.693V180.633C320.57 181.487 317.478 181.473 317.478 181.473C311.95 181.72 307.28 181.379 303.336 180.601H298.078V194.237H307.484V220.933H298.078V234.57L316.456 234.591L324.642 234.613V234.602L333.219 234.613V220.933H324.642V205.782C326.302 203.744 328.131 201.854 330.111 200.141C331.752 198.708 333.598 197.529 335.583 196.648C337.299 195.905 339.141 195.515 341.005 195.504C342.453 195.483 343.893 195.754 345.238 196.302C346.435 196.812 347.51 197.577 348.396 198.541C349.262 199.505 349.935 200.635 350.366 201.865C350.829 203.167 351.06 204.542 351.044 205.927V220.936H342.474V234.572L360.029 234.594L368.217 234.615V234.605L376.027 234.615V220.936H368.217V220.928Z" fill="black"/>
</svg>
