<svg width="750" height="380" viewBox="0 0 750 380" fill="none" xmlns="http://www.w3.org/2000/svg">
<path d="M376.238 238.151V223.244H438.564V238.151H376.238ZM416.988 283.99C412.398 284.122 407.863 282.954 403.913 280.615C400.294 278.367 397.417 275.097 395.651 271.214C393.713 266.841 392.765 262.092 392.871 257.308V206.831H411.893V255.964C411.878 257.719 412.192 259.459 412.817 261.1C413.36 262.544 414.329 263.791 415.597 264.669C417.05 265.602 418.755 266.063 420.478 265.987C422.521 265.992 424.558 265.825 426.571 265.485C428.854 264.842 431.097 264.055 433.283 263.131L438.655 278.372C435.582 280.139 432.324 281.56 428.94 282.608C425.039 283.585 421.024 284.049 417.003 283.99H416.985H416.988Z" fill="black"/>
<path d="M405.792 231.174C405.446 231.174 405.105 231.022 404.873 230.731C404.471 230.223 404.553 229.484 405.061 229.082C405.196 228.973 418.442 218.342 424.996 204.988L408.859 182.917L391.135 190.818C390.542 191.082 389.849 190.818 389.585 190.225C389.321 189.632 389.585 188.939 390.178 188.675L408.768 180.39C409.276 180.164 409.869 180.322 410.195 180.768L427.306 204.172C427.561 204.518 427.602 204.976 427.42 205.367C420.74 219.519 407.098 230.464 406.523 230.925C406.306 231.095 406.05 231.18 405.792 231.18V231.174Z" fill="black"/>
<path d="M443.4 282.49V267.592H483.399V282.499L443.4 282.49ZM463.218 230.948C460.503 231.004 457.861 230.05 455.81 228.269C454.823 227.456 454.031 226.431 453.494 225.272C452.957 224.113 452.687 222.845 452.707 221.565C452.672 220.238 452.933 218.924 453.47 217.711C454.008 216.499 454.806 215.422 455.81 214.556C457.838 212.725 460.485 211.73 463.218 211.774C466.073 211.659 468.862 212.654 470.995 214.556C471.97 215.44 472.742 216.523 473.255 217.732C473.769 218.941 474.016 220.25 473.977 221.565C474.004 222.833 473.749 224.092 473.232 225.248C472.718 226.408 471.952 227.438 470.993 228.266C468.832 230.112 466.053 231.072 463.215 230.945L463.218 230.948ZM453.82 282.49V236.871H472.842V282.49H453.82Z" fill="black"/>
<path d="M488.416 238.4V223.493H511.567V238.4H488.416ZM488.416 282.49V267.592H527.405V282.499L488.416 282.49ZM498.844 277.483V223.493H517.866V277.483H498.844ZM544.02 277.483V250.422C544.038 248.614 543.677 246.824 542.955 245.166C542.262 243.604 541.158 242.26 539.758 241.283C538.209 240.244 536.371 239.718 534.508 239.78C531.746 239.83 529.048 240.607 526.68 242.031C523.71 243.827 521.068 246.114 518.864 248.799C515.964 252.251 513.408 255.975 511.233 259.923V245.036C513.478 240.49 516.337 236.275 519.733 232.513C522.653 229.278 526.157 226.625 530.058 224.688C533.659 222.915 537.622 221.994 541.634 221.991C544.716 221.952 547.768 222.586 550.58 223.846C553.242 225.087 555.563 226.957 557.339 229.296C559.323 231.952 560.767 234.972 561.589 238.186C562.608 242.195 563.089 246.322 563.024 250.46V277.521L544.011 277.483H544.02ZM534.508 282.49V267.592H572.29V282.499L534.508 282.49ZM588.814 277.483V250.422C588.826 249.066 588.635 247.716 588.251 246.419C587.884 245.192 587.291 244.044 586.499 243.035C585.706 242.034 584.699 241.221 583.555 240.651C582.307 240.056 580.937 239.756 579.554 239.78C576.775 239.833 574.06 240.61 571.674 242.031C568.683 243.801 566.033 246.093 563.849 248.799C560.987 252.262 558.454 255.987 556.283 259.923V245.036C558.528 240.487 561.392 236.272 564.794 232.513C567.697 229.287 571.178 226.634 575.055 224.688C578.633 222.909 582.572 221.988 586.566 221.991C589.604 221.961 592.612 222.592 595.383 223.846C598.045 225.087 600.367 226.957 602.142 229.296C604.129 231.949 605.576 234.972 606.395 238.186C607.419 242.195 607.907 246.322 607.839 250.46V277.521L588.817 277.483H588.814ZM579.551 282.49V267.592H616.503V282.499L579.551 282.49Z" fill="black"/>
<path d="M651.992 283.35C647.598 283.356 643.225 282.699 639.025 281.404C634.916 280.163 631.051 278.214 627.608 275.649C624.098 273.072 621.262 269.679 619.355 265.764C617.444 261.848 616.514 257.525 616.643 253.169C616.566 248.573 617.567 244.024 619.569 239.885C621.494 236.005 624.209 232.571 627.543 229.809C630.93 226.98 634.799 224.782 638.964 223.32C643.269 221.809 647.801 221.046 652.365 221.069C657.401 220.975 662.414 221.756 667.181 223.376C671.046 224.667 674.501 226.96 677.192 230.024C679.605 232.865 680.899 236.493 680.832 240.22C680.964 243.933 679.687 247.555 677.257 250.361C674.724 253.14 671.513 255.212 667.941 256.377C664.002 257.73 659.861 258.408 655.699 258.379C651.141 258.479 646.595 257.851 642.233 256.524C638.353 255.233 634.582 253.642 630.945 251.769V241.156C634.643 243.005 638.57 244.355 642.623 245.171C645.3 245.635 648.009 245.885 650.727 245.923C652.729 245.893 654.719 245.62 656.653 245.107C657.991 244.784 659.224 244.115 660.228 243.17C660.612 242.794 660.917 242.345 661.123 241.852C661.328 241.359 661.44 240.825 661.44 240.288C661.428 239.61 661.232 238.949 660.871 238.374C660.51 237.802 659.999 237.338 659.394 237.033C657.715 236.117 655.819 235.68 653.912 235.771C651.558 235.771 649.224 236.196 647.023 237.033C644.839 237.851 642.814 239.034 641.033 240.537C639.281 241.996 637.828 243.78 636.753 245.794C635.588 248.133 635.045 250.736 635.18 253.348C635.315 255.961 636.122 258.493 637.522 260.701C639.116 262.972 641.329 264.733 643.903 265.772C646.712 266.929 649.726 267.507 652.767 267.469C657.034 267.527 661.276 266.782 665.27 265.27C668.769 263.944 672.074 262.156 675.097 259.949L683.007 272.353C680.374 274.574 677.506 276.506 674.46 278.108C671.19 279.828 667.718 281.134 664.125 281.991C660.154 282.93 656.084 283.388 652.004 283.353L651.992 283.35Z" fill="black"/>
<path d="M255.463 220.397C259.918 220.394 264.35 221.046 268.614 222.334C272.782 223.576 276.703 225.527 280.208 228.101C283.753 230.655 286.618 234.039 288.558 237.96C290.495 241.878 291.443 246.213 291.323 250.584C291.417 255.189 290.404 259.75 288.379 263.885C286.415 267.78 283.653 271.214 280.275 273.97C276.827 276.808 272.899 279.003 268.679 280.459C264.303 281.971 259.704 282.731 255.075 282.71C249.968 282.807 244.885 282.024 240.045 280.392C236.127 279.115 232.61 276.826 229.857 273.756C227.415 270.926 226.098 267.299 226.153 263.559C226.007 259.82 227.31 256.166 229.784 253.363C232.37 250.584 235.625 248.514 239.238 247.355C243.25 245.99 247.465 245.309 251.703 245.345C256.328 245.245 260.939 245.87 265.371 247.2C269.313 248.491 273.149 250.085 276.844 251.963V262.605C273.081 260.762 269.093 259.415 264.981 258.602C262.263 258.138 259.513 257.889 256.757 257.851C254.723 257.877 252.698 258.147 250.728 258.658C249.375 258.987 248.128 259.659 247.107 260.604C246.716 260.977 246.405 261.423 246.194 261.919C245.982 262.415 245.874 262.949 245.877 263.486C245.891 264.167 246.091 264.83 246.458 265.405C246.822 265.981 247.341 266.442 247.952 266.741C249.657 267.654 251.577 268.085 253.508 267.991C255.897 267.997 258.268 267.572 260.511 266.741C262.721 265.925 264.778 264.739 266.595 263.236C268.368 261.778 269.844 259.99 270.939 257.971C272.031 255.931 272.588 253.648 272.559 251.335C272.653 248.394 271.814 245.5 270.161 243.067C268.529 240.792 266.278 239.031 263.678 237.995C260.819 236.845 257.758 236.269 254.676 236.308C250.344 236.246 246.041 236.989 241.979 238.494C238.431 239.821 235.076 241.608 231.997 243.815L223.979 231.438C226.652 229.208 229.561 227.274 232.654 225.671C235.986 223.954 239.511 222.651 243.156 221.788C247.189 220.84 251.321 220.373 255.463 220.397Z" fill="black"/>
<path d="M185.381 220.397C189.839 220.394 194.274 221.046 198.541 222.334C202.706 223.578 206.63 225.527 210.134 228.101C213.677 230.658 216.542 234.042 218.479 237.96C220.416 241.878 221.367 246.21 221.247 250.581C221.335 255.186 220.322 259.75 218.291 263.882C216.333 267.777 213.574 271.214 210.196 273.967C206.747 276.802 202.82 279.001 198.603 280.456C194.227 281.968 189.627 282.728 184.999 282.71C179.892 282.807 174.809 282.024 169.969 280.392C166.048 279.115 162.531 276.826 159.781 273.756C157.336 270.929 156.016 267.299 156.077 263.559C155.93 259.82 157.231 256.166 159.708 253.363C162.294 250.587 165.549 248.517 169.162 247.355C173.174 245.99 177.388 245.312 181.627 245.345C186.252 245.245 190.863 245.87 195.295 247.2C199.231 248.488 203.061 250.082 206.75 251.963V262.605C202.988 260.762 199.005 259.415 194.896 258.602C192.175 258.141 189.422 257.889 186.663 257.851C184.632 257.877 182.61 258.147 180.643 258.658C179.287 258.987 178.04 259.659 177.013 260.604C176.625 260.977 176.314 261.423 176.103 261.919C175.892 262.415 175.783 262.946 175.78 263.486C175.795 264.167 175.994 264.83 176.361 265.405C176.728 265.981 177.245 266.442 177.855 266.741C179.56 267.651 181.48 268.085 183.411 267.991C185.8 267.997 188.172 267.574 190.411 266.741C192.645 265.931 194.726 264.748 196.56 263.236C198.333 261.781 199.806 259.993 200.895 257.971C201.987 255.931 202.545 253.648 202.515 251.335C202.609 248.397 201.773 245.503 200.126 243.067C198.494 240.789 196.246 239.031 193.643 237.995C190.781 236.845 187.723 236.272 184.641 236.308C180.306 236.246 176 236.989 171.935 238.494C168.39 239.821 165.038 241.611 161.962 243.815L153.885 231.438C156.562 229.205 159.476 227.274 162.572 225.671C165.898 223.954 169.42 222.648 173.065 221.788C177.098 220.84 181.23 220.373 185.372 220.397H185.381Z" fill="black"/>
<path d="M73.1855 210.042V195.135H100.719V210.042H73.1855ZM83.1969 281.061V195.135H101.84V281.061H83.1969ZM121.27 221.157C126.55 220.731 134.29 222.613 138.375 225.199C142.537 227.855 145.959 231.518 148.331 235.85C150.92 240.596 152.226 245.935 152.12 251.341C152.152 255.429 151.366 259.483 149.804 263.263C148.299 266.873 146.059 270.131 143.23 272.831C140.333 275.572 136.934 277.73 133.219 279.182C129.159 280.759 124.839 281.545 120.483 281.501C116.075 281.621 111.708 280.624 107.787 278.598C104.414 276.799 101.371 274.445 98.776 271.637C96.3077 268.936 94.2003 266.494 92.4598 264.314L92.8502 249.556C94.7022 251.808 98.2771 255.286 100.499 257.789C103.008 260.571 103.167 261.813 107.038 264.008C109.659 265.455 112.612 266.189 115.605 266.13C117.965 266.166 120.313 265.799 122.55 265.044C124.49 264.375 126.277 263.325 127.809 261.957C129.259 260.633 130.392 258.998 131.126 257.173C131.889 255.247 132.268 253.19 132.247 251.118C132.3 248.544 131.719 245.999 130.562 243.701C129.462 241.555 127.768 239.771 125.681 238.565C123.369 237.273 120.751 236.633 118.106 236.71C114.866 236.613 111.687 237.631 109.104 239.592C105.808 241.975 103.901 245.21 100.936 249.492C97.9718 253.774 94.0448 259.541 92.2133 265.25V252.06C94.1299 245.776 93.5018 241.464 97.0091 236.865C100.519 232.266 102.75 228.078 108.327 224.908C112.304 222.698 116.73 221.412 121.273 221.154L121.27 221.157Z" fill="black"/>
<path d="M258.055 163.252C257.991 163.252 257.926 163.246 257.862 163.237C251.378 162.163 247.492 155.377 247.331 155.087C241.323 144.638 239.802 134.583 242.811 125.217C248.109 108.734 265.402 100.451 267.357 99.5619C281.307 93.2076 291.629 96.9703 297.834 101.247C304.511 105.849 307.854 111.871 307.992 112.124C308.186 112.476 308.183 112.902 307.992 113.254C307.798 113.606 307.437 113.835 307.038 113.858C300.176 114.293 293.839 116.832 288.207 121.399C283.658 125.088 279.543 130.104 275.983 136.308C269.872 146.954 267.489 157.523 267.465 157.628C267.324 158.262 266.699 158.662 266.065 158.521C265.431 158.38 265.032 157.755 265.173 157.121C265.27 156.678 267.641 146.144 273.916 135.19C277.623 128.721 281.926 123.474 286.704 119.593C292.196 115.135 298.324 112.482 304.942 111.692C303.548 109.667 300.693 106.048 296.431 103.128C288.151 97.4575 278.697 96.9762 268.331 101.699C266.473 102.544 250.037 110.413 245.047 125.936C242.247 134.647 243.703 144.066 249.374 153.927C249.412 153.995 252.887 160.032 258.246 160.922C258.886 161.027 259.317 161.632 259.212 162.272C259.118 162.847 258.619 163.255 258.055 163.255V163.252Z" fill="black"/>
<path d="M285.986 122.737C285.731 122.737 285.473 122.655 285.258 122.482C285.053 122.317 280.228 118.425 280.559 113.682C280.744 111.035 282.455 108.737 285.646 106.853C286.051 106.585 288.959 104.786 292.414 105.816C295.411 106.709 297.838 109.409 299.631 113.838C299.875 114.44 299.584 115.123 298.982 115.367C298.384 115.611 297.697 115.32 297.453 114.718C295.948 111 294.034 108.763 291.768 108.073C289.212 107.296 286.958 108.798 286.937 108.813C286.917 108.828 286.89 108.845 286.867 108.857C284.366 110.328 283.034 112.001 282.901 113.838C282.649 117.342 286.679 120.609 286.72 120.641C287.225 121.046 287.31 121.783 286.905 122.291C286.673 122.581 286.33 122.734 285.986 122.734V122.737Z" fill="black"/>
<path d="M283.667 119.899C283.417 119.899 283.162 119.819 282.951 119.652C282.437 119.256 282.343 118.519 282.739 118.006C282.965 117.712 288.354 110.841 296.549 109.55C297.188 109.45 297.79 109.887 297.89 110.527C297.99 111.167 297.552 111.769 296.912 111.868C289.657 113.01 284.644 119.376 284.594 119.441C284.362 119.74 284.016 119.896 283.664 119.896L283.667 119.899Z" fill="black"/>
<path d="M264.031 169.145C262.334 169.145 261.043 168.488 260.201 167.869C257.844 166.131 255.962 161.963 257.157 159.392C258.19 157.168 259.681 155.826 261.58 155.401C265.208 154.588 268.865 157.593 269.02 157.722C269.519 158.139 269.587 158.879 269.17 159.375C268.756 159.874 268.016 159.938 267.518 159.527C267.488 159.504 264.583 157.129 262.088 157.693C260.923 157.957 260.007 158.835 259.288 160.381C258.839 161.35 259.52 164.446 261.595 165.979C264.236 167.924 267.356 166.011 269.507 164.062C269.989 163.628 270.731 163.663 271.166 164.144C271.6 164.626 271.565 165.368 271.084 165.802C268.278 168.341 265.906 169.145 264.031 169.145Z" fill="black"/>
<path d="M251.743 181.226C250.557 181.226 249.765 180.783 249.645 180.709C249.551 180.654 249.469 180.586 249.392 180.507C246.428 177.361 245.794 172.486 247.561 166.41C248.846 161.996 250.921 158.503 251.009 158.356C251.344 157.802 252.063 157.62 252.621 157.951C253.176 158.283 253.357 159.005 253.026 159.563C252.95 159.692 245.404 172.497 250.96 178.74C251.227 178.84 251.957 179.037 252.917 178.608C254.367 177.962 257.129 175.506 259.345 166.307C259.498 165.676 260.129 165.289 260.763 165.441C261.394 165.594 261.781 166.228 261.628 166.859C259.735 174.713 257.088 179.406 253.757 180.803C253.011 181.117 252.33 181.223 251.743 181.223V181.226Z" fill="black"/>
<path d="M244.396 124.783C244.199 124.783 243.996 124.733 243.812 124.627C243.709 124.568 241.302 123.157 240.774 120.612C240.454 119.068 240.874 117.495 242.027 115.942C242.409 115.399 245.062 111.995 249.438 114.71C249.99 115.053 250.157 115.775 249.817 116.327C249.473 116.879 248.751 117.049 248.199 116.705C245.584 115.082 244.211 116.893 243.961 117.272C243.949 117.289 243.929 117.319 243.917 117.336C243.183 118.328 242.899 119.265 243.072 120.122C243.377 121.63 244.974 122.584 244.991 122.596C245.549 122.925 245.737 123.641 245.411 124.199C245.194 124.574 244.801 124.783 244.396 124.783Z" fill="black"/>
<path d="M271.536 183.31C271.31 183.31 271.087 183.245 270.893 183.119C269.472 182.189 268.454 180.85 267.755 179.626C266.391 182.57 264.589 182.529 264.163 182.479C263.934 182.45 263.72 182.353 263.544 182.203C260.245 179.353 258.049 172.069 257.955 171.761C257.771 171.138 258.123 170.487 258.745 170.302C259.364 170.117 260.019 170.469 260.207 171.091C260.744 172.888 262.519 177.745 264.636 179.999C265.061 179.694 265.871 178.769 266.438 176.013C266.549 175.479 267.013 175.092 267.559 175.077C268.09 175.068 268.586 175.426 268.724 175.955C268.733 175.984 269.528 178.925 271.55 180.68C272.181 180.055 273.176 178.558 273.08 175.379C273.059 174.731 273.57 174.191 274.215 174.17C274.858 174.156 275.404 174.66 275.425 175.306C275.618 181.528 272.161 183.143 272.011 183.21C271.859 183.278 271.694 183.313 271.533 183.313L271.536 183.31Z" fill="black"/>
<path d="M307.326 166.293C305.503 166.293 303.769 165.245 302.835 163.548C301.729 161.541 301.538 159.883 302.269 158.62C303.161 157.077 305.028 156.836 305.6 156.801C308.35 156.123 309.331 155.545 309.662 155.275C309.533 155.178 309.351 155.069 309.193 155.005C309.175 154.999 309.155 154.987 309.137 154.981C307.517 154.218 306.61 153.267 306.437 152.16C306.287 151.198 306.754 150.373 307.2 149.959C307.303 149.862 307.42 149.789 307.549 149.733C309.944 148.744 310.282 147.802 310.211 147.5C310.182 147.462 310.202 147.482 310.17 147.403C309.251 145.29 304.127 140.867 303.238 140.388C302.665 140.177 302.348 139.557 302.518 138.962C302.698 138.339 303.349 137.981 303.971 138.16C305.23 138.524 311.109 143.766 312.304 146.425C312.445 146.707 312.759 147.503 312.407 148.545C311.981 149.807 310.754 150.89 308.755 151.77C308.755 151.782 308.752 151.794 308.755 151.802C308.785 151.955 309.108 152.366 310.111 152.841C310.543 153.023 312.245 153.836 312.131 155.407C312.016 156.992 310.197 158.095 306.046 159.105C305.961 159.125 305.876 159.137 305.791 159.137C305.5 159.146 304.588 159.29 304.3 159.797C304.027 160.279 304.244 161.23 304.893 162.413C305.445 163.413 306.46 164.012 307.502 163.936C308.033 163.898 308.456 163.707 308.791 163.358C309.24 162.888 309.982 162.87 310.452 163.319C310.921 163.769 310.939 164.511 310.49 164.981C309.756 165.75 308.782 166.199 307.675 166.278C307.558 166.287 307.443 166.29 307.326 166.29V166.293ZM303.264 140.4C303.287 140.409 303.308 140.415 303.326 140.42C303.305 140.415 303.285 140.409 303.264 140.4Z" fill="black"/>
<path d="M288.26 151.814C286.857 151.814 285.386 151.347 284.118 150.038C284.101 150.021 284.083 150 284.066 149.98C283.951 149.842 281.23 146.581 281.709 143.162C281.944 141.483 282.88 140.086 284.488 139.009C286.041 137.97 287.852 137.465 289.586 137.579C290.605 137.65 291.556 137.905 292.407 138.342C292.985 138.639 293.211 139.346 292.915 139.921C292.618 140.5 291.911 140.726 291.336 140.429C290.769 140.139 290.126 139.965 289.428 139.919C288.21 139.833 286.918 140.203 285.794 140.958C284.755 141.653 284.18 142.478 284.036 143.479C283.969 143.957 284.001 144.447 284.098 144.92C285.557 143.059 288.233 141.087 291.905 141.955C293.381 142.305 294.585 143.508 294.975 145.02C295.412 146.725 294.746 148.533 293.146 149.983C292.243 150.799 290.326 151.808 288.26 151.808V151.814ZM285.838 148.439C287.99 150.614 291.054 148.715 291.57 148.245C292.515 147.391 292.918 146.455 292.7 145.61C292.53 144.952 291.981 144.391 291.365 144.245C287.872 143.417 285.683 146.378 285.213 147.547C285.51 148.019 285.765 148.345 285.838 148.439Z" fill="black"/>
<path d="M310.389 137.629C308.986 137.629 307.516 137.163 306.248 135.854C306.218 135.821 306.189 135.789 306.163 135.754C306.042 135.598 303.233 131.903 304.261 128.255C304.848 126.171 306.512 124.592 309.203 123.562C309.585 123.403 311.704 122.646 314.551 124.166C315.123 124.471 315.34 125.182 315.035 125.754C314.73 126.326 314.02 126.541 313.447 126.238C311.49 125.194 310.16 125.707 310.104 125.731C310.084 125.739 310.084 125.739 310.063 125.748C308.094 126.497 306.905 127.553 306.526 128.883C306.374 129.417 306.356 129.969 306.418 130.506C307.912 128.718 310.521 126.94 314.037 127.773C315.514 128.123 316.717 129.326 317.107 130.838C317.545 132.543 316.878 134.351 315.279 135.801C314.375 136.617 312.458 137.626 310.392 137.626L310.389 137.629ZM307.985 134.272C310.137 136.417 313.183 134.527 313.7 134.06C314.645 133.206 315.047 132.27 314.83 131.425C314.659 130.767 314.111 130.207 313.494 130.06C310.075 129.25 307.903 132.073 307.372 133.288C307.648 133.79 307.894 134.145 307.985 134.272Z" fill="black"/>
<path d="M348.012 205.217C347.463 205.217 346.973 204.83 346.861 204.272C346.735 203.635 347.149 203.019 347.786 202.892C353.374 201.783 355.226 199.174 355.247 199.147C355.291 199.086 355.346 199.015 355.402 198.962C356.696 197.7 356.517 197.266 356.247 196.609C356.013 196.036 355.619 195.076 356.324 194.017C356.441 193.841 357.407 192.265 355.59 190.709C355.164 190.345 355.05 189.723 355.326 189.236C356.244 187.61 355.596 186.894 355.587 186.888C355.522 186.826 355.464 186.759 355.414 186.685C355.226 186.403 353.967 186.348 352.966 186.577C352.54 186.673 352.097 186.527 351.813 186.195C351.528 185.863 351.452 185.403 351.613 184.998C353.773 179.568 352.904 178.232 352.708 178.018C352.303 177.581 351.352 177.848 351.343 177.851C351.299 177.865 351.24 177.88 351.193 177.889C349.925 178.115 346.691 182.441 344.469 186.336C344.187 186.826 343.597 187.049 343.063 186.861C342.529 186.676 342.203 186.133 342.288 185.576C342.761 182.509 342.13 181.522 341.836 181.241C341.605 181.018 341.326 180.982 341.199 180.982C338.132 182.324 338.482 185.972 338.54 186.427C338.664 186.744 338.649 187.111 338.467 187.431C338.147 187.994 337.431 188.194 336.867 187.874C336.01 187.39 336.113 185.84 336.163 185.094C336.365 182.068 337.936 179.753 340.469 178.74C340.536 178.714 340.607 178.693 340.68 178.678C340.838 178.646 342.274 178.408 343.459 179.547C344.002 180.07 344.381 180.777 344.592 181.669C346.368 179.028 348.766 176.011 350.688 175.591C351.578 175.324 353.289 175.209 354.407 176.404C355.698 177.78 355.713 180.299 354.442 184.079C355.472 184.105 356.629 184.372 357.298 185.291C357.671 185.72 358.725 187.211 357.756 189.579C358.818 190.844 359.781 193.04 358.27 195.314L358.267 195.32C358.284 195.405 358.358 195.584 358.41 195.716C358.912 196.94 359.262 198.422 357.104 200.568C356.629 201.202 354.234 204.005 348.235 205.193C348.158 205.208 348.082 205.217 348.006 205.217H348.012Z" fill="black"/>
<path d="M313.321 188.364C310.401 188.364 304.812 187.871 299.609 184.628C299.057 184.284 298.89 183.562 299.233 183.011C299.576 182.459 300.301 182.291 300.85 182.635C305.881 185.769 311.463 186.054 313.867 186.004L313.142 181.138C311.44 181.631 309.071 181.801 306.077 181.649C303.181 181.499 300.762 181.103 300.659 181.085C300.02 180.979 299.588 180.375 299.694 179.735C299.799 179.095 300.404 178.667 301.044 178.769C303.624 179.198 310.888 179.979 313.497 178.476C313.835 178.282 314.246 178.268 314.595 178.438C314.944 178.608 315.188 178.937 315.246 179.321L316.382 186.935C316.429 187.249 316.347 187.569 316.153 187.821C315.96 188.073 315.672 188.238 315.358 188.273C315.261 188.285 314.513 188.367 313.327 188.367L313.321 188.364Z" fill="black"/>
<path d="M323.273 182.952C323.053 182.952 322.833 182.89 322.645 182.77L315.979 178.538C315.695 178.356 315.501 178.062 315.448 177.727C315.395 177.393 315.489 177.052 315.706 176.794C315.73 176.765 318.348 173.557 318.903 168.729C318.976 168.083 319.563 167.622 320.203 167.696C320.845 167.769 321.309 168.353 321.236 168.996C320.793 172.838 319.24 175.743 318.283 177.22L322.7 180.023C323.076 178.749 323.475 176.465 322.947 173.328C322.838 172.688 323.27 172.083 323.91 171.975C324.549 171.866 325.154 172.298 325.263 172.938C326.258 178.846 324.373 182.221 324.294 182.362C324.136 182.641 323.869 182.84 323.557 182.917C323.464 182.94 323.37 182.952 323.276 182.952H323.273Z" fill="black"/>
<path d="M314.354 181.173C314.231 181.173 314.119 181.167 314.02 181.156C313.377 181.079 312.916 180.492 312.995 179.85C313.072 179.213 313.644 178.758 314.281 178.822C314.425 178.834 315.546 178.86 316.482 177.443C316.84 176.903 317.568 176.753 318.108 177.111C318.648 177.469 318.798 178.197 318.44 178.737C317.163 180.671 315.405 181.176 314.354 181.176V181.173Z" fill="black"/>
<path d="M457.888 205.02C457.847 205.02 457.809 205.02 457.768 205.014L431.857 202.382C431.212 202.317 430.742 201.739 430.807 201.096C430.871 200.45 431.449 199.984 432.092 200.045L458.003 202.678C458.648 202.743 459.118 203.321 459.053 203.964C458.992 204.568 458.481 205.02 457.888 205.02Z" fill="black"/>
<path d="M461.71 192.608C461.51 192.608 461.308 192.558 461.123 192.45L435.474 177.581C426.539 172.905 421.782 174.916 416.581 179.967C416.117 180.419 415.372 180.407 414.92 179.943C414.468 179.48 414.479 178.734 414.943 178.282C420.608 172.779 426.454 170.202 436.583 175.512C436.598 175.52 436.612 175.526 436.627 175.535L462.297 190.416C462.857 190.741 463.048 191.46 462.725 192.021C462.508 192.397 462.115 192.608 461.71 192.608Z" fill="black"/>
<path d="M474.316 210.491C473.82 210.491 473.318 210.415 472.828 210.25L467.28 208.407C465.933 207.958 464.915 206.928 464.489 205.572C464.064 204.219 464.304 202.793 465.15 201.654C469.831 195.352 471.539 192.658 472.161 191.528C471.651 191.475 470.811 191.44 469.464 191.505C468.008 191.584 466.729 190.536 466.491 189.089L465.381 182.3C465.199 181.185 465.69 180.061 466.632 179.436L482.396 168.958C485.542 166.865 489.484 166.536 492.935 168.077C494.139 168.614 495.046 169.592 495.489 170.83C495.932 172.069 495.853 173.401 495.263 174.578L478.612 207.856C477.788 209.505 476.091 210.494 474.321 210.494L474.316 210.491ZM470.791 189.124C473.359 189.124 474.119 189.547 474.527 190.016C475.319 190.932 474.712 192.141 472.211 195.831C470.606 198.202 468.507 201.067 467.031 203.057C466.64 203.582 466.529 204.243 466.726 204.868C466.922 205.493 467.395 205.971 468.02 206.18L473.567 208.023C474.709 208.401 475.971 207.876 476.508 206.805L493.158 173.527C493.458 172.929 493.499 172.251 493.273 171.62C493.047 170.989 492.586 170.493 491.976 170.217C489.264 169.008 486.167 169.266 483.693 170.909L467.929 181.387C467.756 181.505 467.662 181.713 467.697 181.919L468.807 188.707C468.851 188.975 469.082 189.174 469.352 189.156C469.887 189.133 470.365 189.121 470.791 189.121V189.124Z" fill="black"/>
<path d="M468.445 161.153C467.157 161.153 465.959 160.599 465.117 159.604C464.201 158.521 463.872 157.112 464.213 155.732C466.1 148.11 466.634 144.967 466.772 143.684C466.279 143.831 465.492 144.124 464.274 144.703C462.954 145.328 461.375 144.864 460.6 143.623L456.954 137.788C456.356 136.828 456.373 135.601 457.001 134.662L467.5 118.91C469.596 115.766 473.097 113.946 476.883 114.029C478.198 114.061 479.413 114.613 480.3 115.584C481.186 116.556 481.626 117.815 481.538 119.13L479.02 156.255C478.859 158.609 476.965 160.519 474.612 160.696L468.786 161.136C468.671 161.145 468.557 161.148 468.442 161.148L468.445 161.153ZM467.518 141.186C467.896 141.186 468.157 141.266 468.375 141.374C469.461 141.911 469.367 143.264 468.483 147.632C467.917 150.438 467.089 153.892 466.493 156.296C466.335 156.933 466.487 157.584 466.91 158.086C467.336 158.588 467.952 158.846 468.609 158.797L474.435 158.356C475.633 158.265 476.596 157.294 476.678 156.096L479.196 118.971C479.243 118.302 479.017 117.662 478.565 117.169C478.113 116.676 477.497 116.394 476.828 116.377C473.866 116.303 471.101 117.741 469.455 120.213L458.956 135.965C458.839 136.138 458.836 136.367 458.947 136.546L462.593 142.381C462.736 142.61 463.027 142.698 463.268 142.584C465.528 141.509 466.755 141.189 467.515 141.189L467.518 141.186Z" fill="black"/>
<path d="M420.906 153.47C420.377 153.47 419.899 153.111 419.767 152.574C419.611 151.943 419.999 151.309 420.627 151.154L456.284 142.419C456.915 142.264 457.549 142.651 457.705 143.279C457.86 143.91 457.473 144.544 456.845 144.7L421.187 153.434C421.093 153.458 421 153.47 420.906 153.47Z" fill="black"/>
<path d="M435.27 170.184C434.812 170.184 434.375 169.914 434.187 169.465C433.938 168.867 434.216 168.18 434.815 167.927L458.122 158.157C458.721 157.907 459.408 158.186 459.66 158.785C459.91 159.384 459.631 160.07 459.032 160.323L435.725 170.093C435.575 170.155 435.423 170.184 435.273 170.184H435.27Z" fill="black"/>
<path d="M326.774 157.514C326.539 157.514 326.298 157.444 326.093 157.297C325.565 156.921 325.444 156.187 325.82 155.659C326.046 155.342 331.508 147.916 343.562 150.458C344.196 150.593 344.601 151.215 344.469 151.849C344.337 152.483 343.712 152.891 343.078 152.756C332.506 150.529 327.775 156.959 327.731 157.024C327.502 157.344 327.141 157.517 326.774 157.517V157.514Z" fill="black"/>
<path d="M311.295 226.666C304.691 226.666 299.86 225.513 299.608 225.451C290.277 223.414 283.43 219.064 279.285 212.528C272.67 202.091 275.353 189.958 275.47 189.447C275.614 188.816 276.245 188.42 276.876 188.567C277.507 188.71 277.903 189.341 277.756 189.972C277.718 190.146 275.2 201.718 281.278 211.29C285.076 217.265 291.419 221.26 300.133 223.162C300.236 223.185 307.829 224.993 316.763 224.03C328.253 222.792 336.574 217.782 341.514 209.129L328.726 195.678L320.432 199.84C319.853 200.131 319.146 199.896 318.855 199.318C318.565 198.739 318.8 198.032 319.378 197.741L328.45 193.192C328.911 192.96 329.471 193.057 329.827 193.433L343.806 208.137C344.155 208.504 344.229 209.053 343.991 209.502C338.784 219.211 329.43 225.046 316.942 226.376C314.967 226.587 313.065 226.669 311.289 226.669L311.295 226.666Z" fill="black"/>
<path d="M374.539 182.418C374.366 182.418 374.193 182.38 374.025 182.297C366.157 178.464 359.697 170.936 356.304 161.644C353.718 154.564 353.128 146.951 354.637 140.203C354.777 139.569 355.406 139.173 356.04 139.314C356.673 139.455 357.07 140.083 356.929 140.717C355.514 147.03 356.078 154.177 358.508 160.836C361.695 169.562 367.724 176.615 375.053 180.184C375.637 180.469 375.877 181.17 375.593 181.754C375.39 182.171 374.97 182.415 374.536 182.415L374.539 182.418Z" fill="black"/>
<path d="M391.701 176.405C401.574 172.8 405.661 159.154 400.831 145.925C396 132.697 384.081 124.895 374.208 128.5C364.335 132.105 360.248 145.752 365.078 158.981C369.909 172.209 381.828 180.011 391.701 176.405Z" fill="white"/>
<path d="M386.66 178.455C383.076 178.455 379.375 177.281 375.856 174.977C370.617 171.549 366.399 166.008 363.975 159.372C361.554 152.739 361.207 145.783 363.004 139.784C364.838 133.664 368.671 129.259 373.802 127.386C384.265 123.565 396.883 131.695 401.928 145.513C404.349 152.146 404.696 159.102 402.899 165.101C401.068 171.221 397.232 175.623 392.101 177.499C390.346 178.138 388.518 178.455 386.657 178.455H386.66ZM379.231 128.783C377.661 128.783 376.108 129.044 374.609 129.593C370.191 131.207 366.869 135.064 365.252 140.459C363.599 145.973 363.928 152.407 366.179 158.568C368.43 164.728 372.322 169.859 377.139 173.014C381.849 176.096 386.877 176.906 391.294 175.294C395.711 173.68 399.034 169.823 400.651 164.429C402.304 158.914 401.972 152.48 399.724 146.32C395.87 135.765 387.335 128.786 379.228 128.786L379.231 128.783Z" fill="black"/>
<path d="M378.469 162.145C378.222 162.145 377.975 162.069 377.764 161.911C377.245 161.52 377.142 160.787 377.529 160.267L383.693 152.058L380.549 139.751C380.388 139.123 380.77 138.483 381.398 138.322C382.026 138.163 382.666 138.542 382.827 139.17L386.111 152.023C386.199 152.366 386.126 152.733 385.912 153.018L379.408 161.679C379.176 161.987 378.824 162.148 378.469 162.148V162.145Z" fill="black"/>
<path d="M386.664 178.455C383.08 178.455 379.379 177.281 375.86 174.977C370.621 171.549 366.403 166.008 363.979 159.372C361.558 152.739 361.211 145.783 363.007 139.783C364.842 133.664 368.675 129.259 373.805 127.386C384.269 123.565 396.886 131.695 401.932 145.513C404.353 152.146 404.699 159.102 402.903 165.101C401.072 171.221 397.236 175.623 392.105 177.499C390.35 178.138 388.522 178.455 386.661 178.455H386.664ZM379.235 128.783C377.665 128.783 376.112 129.044 374.613 129.593C370.195 131.207 366.873 135.064 365.256 140.459C363.603 145.973 363.932 152.407 366.183 158.568C368.434 164.728 372.326 169.859 377.143 173.014C381.853 176.096 386.881 176.906 391.298 175.294C395.715 173.68 399.038 169.823 400.655 164.429C402.307 158.914 401.976 152.48 399.728 146.32C395.874 135.765 387.339 128.786 379.232 128.786L379.235 128.783Z" fill="black"/>
<path d="M383.515 118.945C383.383 118.945 383.248 118.921 383.115 118.874C382.505 118.654 382.188 117.982 382.408 117.372L385.496 108.813L379.708 109.432C379.315 109.474 378.924 109.315 378.672 109.007C378.422 108.699 378.343 108.285 378.463 107.909L382.499 95.2562C382.696 94.637 383.356 94.2994 383.975 94.4961C384.592 94.6927 384.935 95.3531 384.736 95.9724L381.246 106.908L387.11 106.28C387.509 106.239 387.908 106.403 388.158 106.723C388.407 107.04 388.475 107.466 388.34 107.847L384.615 118.173C384.442 118.651 383.993 118.948 383.512 118.948L383.515 118.945Z" fill="black"/>
<path d="M393.553 121.308C393.251 121.308 392.945 121.19 392.716 120.958C392.262 120.497 392.267 119.752 392.728 119.297L397.592 114.501L393.603 113.092C393.227 112.96 392.945 112.649 392.851 112.262C392.758 111.877 392.866 111.469 393.136 111.179L400.356 103.504C400.8 103.031 401.542 103.011 402.015 103.454C402.487 103.897 402.511 104.64 402.065 105.112L396.08 111.475L400.139 112.907C400.521 113.043 400.805 113.365 400.893 113.759C400.981 114.155 400.861 114.566 400.571 114.85L394.372 120.964C394.143 121.19 393.846 121.302 393.547 121.302L393.553 121.308Z" fill="black"/>
<path d="M405.792 231.174C405.446 231.174 405.105 231.022 404.873 230.731C404.471 230.223 404.553 229.484 405.061 229.082C405.196 228.973 418.442 218.342 424.996 204.988L408.859 182.917L391.135 190.818C390.542 191.082 389.849 190.818 389.585 190.225C389.321 189.632 389.585 188.939 390.178 188.675L408.768 180.39C409.276 180.164 409.869 180.322 410.195 180.768L427.306 204.172C427.561 204.518 427.602 204.976 427.42 205.367C420.74 219.519 407.098 230.464 406.523 230.925C406.306 231.095 406.05 231.18 405.792 231.18V231.174Z" fill="black"/>
<path d="M360.152 126.972C359.934 126.972 359.714 126.955 359.497 126.913C358.52 126.74 357.669 126.197 357.099 125.384C356.53 124.571 356.313 123.585 356.486 122.608C356.659 121.63 357.202 120.779 358.015 120.21L362.417 117.131C363.23 116.562 364.217 116.344 365.194 116.518C366.171 116.691 367.023 117.234 367.592 118.047C368.766 119.726 368.355 122.047 366.676 123.221L362.274 126.3C361.643 126.74 360.906 126.972 360.152 126.972ZM364.542 118.807C364.264 118.807 363.994 118.892 363.762 119.053L359.359 122.132C359.06 122.341 358.86 122.655 358.796 123.016C358.731 123.377 358.813 123.738 359.022 124.037C359.453 124.653 360.307 124.806 360.926 124.375L365.329 121.296C365.948 120.864 366.098 120.01 365.667 119.391C365.458 119.092 365.144 118.892 364.783 118.827C364.704 118.813 364.622 118.807 364.542 118.807Z" fill="black"/>
<path d="M364.41 129.364C363.485 129.364 362.575 128.93 362.006 128.117L360.568 126.062C360.389 125.807 360.318 125.49 360.374 125.185C360.427 124.879 360.603 124.606 360.858 124.427L365.399 121.252C365.93 120.882 366.661 121.011 367.034 121.542L368.472 123.597C369.396 124.921 369.074 126.749 367.75 127.674L366.086 128.839C365.575 129.194 364.991 129.367 364.413 129.367L364.41 129.364ZM363.165 125.675L363.931 126.77C364.052 126.94 364.216 126.993 364.307 127.007C364.395 127.022 364.568 127.031 364.739 126.91L366.406 125.745C366.576 125.625 366.629 125.461 366.643 125.373C366.658 125.284 366.667 125.111 366.546 124.938L365.78 123.843L363.165 125.672V125.675Z" fill="black"/>
<path d="M238.675 197.642C238.546 197.642 238.417 197.621 238.291 197.577L233.436 195.892C232.823 195.681 232.5 195.012 232.711 194.398C232.923 193.785 233.592 193.462 234.205 193.673L237.284 194.742L236.926 191.742C236.879 191.349 237.034 190.956 237.34 190.703C237.645 190.448 238.056 190.366 238.437 190.48L244.052 192.197C244.671 192.388 245.021 193.042 244.833 193.662C244.645 194.281 243.988 194.63 243.368 194.442L239.474 193.251L239.84 196.327C239.887 196.729 239.726 197.128 239.412 197.38C239.201 197.551 238.939 197.639 238.675 197.639V197.642Z" fill="black"/>
<path d="M245.331 208.357C244.694 208.357 244.171 207.85 244.157 207.21C244.142 206.561 244.656 206.024 245.304 206.009L250.537 205.892L248.292 201.531C248.11 201.178 248.119 200.756 248.315 200.412C248.512 200.069 248.87 199.846 249.266 199.822L257.382 199.338C258.027 199.3 258.585 199.793 258.623 200.439C258.661 201.087 258.168 201.642 257.523 201.68L251.204 202.059L253.484 206.488C253.669 206.849 253.657 207.277 253.449 207.627C253.243 207.973 252.871 208.19 252.466 208.199L245.354 208.357C245.354 208.357 245.336 208.357 245.328 208.357H245.331Z" fill="black"/>
<path d="M371.27 267.472V251.118C371.338 246.833 370.833 242.559 369.771 238.409C368.928 235.101 367.44 231.996 365.391 229.269C363.519 226.819 361.039 224.899 358.195 223.708C352.298 221.445 345.8 221.289 339.804 223.273C337.045 224.262 334.465 225.7 332.173 227.529C329.443 229.704 326.907 232.113 324.598 234.732C324.06 235.333 323.512 235.961 322.96 236.607V223.423C318.446 224.356 315.018 224.342 315.018 224.342C308.889 224.612 303.712 224.239 299.339 223.388H293.51V238.295H303.938V267.478H293.51V282.385L313.885 282.408L322.96 282.432V282.42L332.469 282.432V267.478H322.96V250.915C324.8 248.688 326.828 246.621 329.024 244.749C330.843 243.181 332.889 241.893 335.09 240.93C336.992 240.117 339.035 239.692 341.101 239.68C342.707 239.656 344.303 239.953 345.794 240.552C347.121 241.109 348.313 241.946 349.296 242.999C350.256 244.053 351.001 245.289 351.479 246.633C351.993 248.057 352.248 249.559 352.231 251.074V267.481H342.73V282.388L362.192 282.411L371.27 282.434V282.423L379.929 282.434V267.481H371.27V267.472Z" fill="black"/>
</svg>
