<svg width="582" height="200" viewBox="0 0 582 200" fill="none" xmlns="http://www.w3.org/2000/svg">
<path d="M286.949 144.203V130.731H343.277V144.203H286.949ZM323.777 185.632C319.629 185.751 315.531 184.696 311.96 182.581C308.689 180.55 306.09 177.595 304.493 174.085C302.742 170.133 301.886 165.841 301.981 161.517V115.897H319.173V160.302C319.159 161.888 319.443 163.461 320.008 164.944C320.499 166.249 321.374 167.377 322.52 168.17C323.833 169.013 325.374 169.43 326.931 169.361C328.778 169.366 330.619 169.215 332.438 168.907C334.502 168.326 336.529 167.615 338.505 166.78L343.359 180.555C340.582 182.152 337.637 183.436 334.579 184.383C331.054 185.266 327.425 185.685 323.791 185.632H323.775H323.777Z" fill="black"/>
<path d="M315.765 138.456C315.457 138.456 315.154 138.315 314.948 138.045C314.59 137.574 314.663 136.889 315.115 136.516C315.235 136.415 327.018 126.56 332.847 114.18L318.493 93.7194L302.727 101.044C302.2 101.289 301.583 101.044 301.348 100.494C301.113 99.9448 301.348 99.3027 301.876 99.0578L318.412 91.3768C318.864 91.1673 319.392 91.3142 319.681 91.7277L334.902 113.424C335.129 113.745 335.166 114.17 335.004 114.531C329.062 127.651 316.927 137.798 316.415 138.225C316.222 138.383 315.995 138.461 315.765 138.461V138.456Z" fill="black"/>
<path d="M347.462 184.607V170.998H384.385V184.615L347.462 184.607ZM365.756 137.524C363.25 137.575 360.811 136.704 358.918 135.076C358.007 134.333 357.276 133.398 356.78 132.339C356.284 131.28 356.035 130.121 356.054 128.952C356.021 127.741 356.262 126.539 356.758 125.432C357.254 124.325 357.991 123.341 358.918 122.55C360.79 120.877 363.234 119.968 365.756 120.008C368.392 119.904 370.966 120.812 372.936 122.55C373.835 123.357 374.548 124.346 375.022 125.451C375.496 126.555 375.724 127.751 375.688 128.952C375.713 130.111 375.477 131.261 375 132.317C374.526 133.376 373.819 134.317 372.933 135.073C370.939 136.76 368.373 137.637 365.753 137.521L365.756 137.524ZM357.081 184.607V142.934H374.64V184.607H357.081Z" fill="black"/>
<path d="M389.513 144.999V131.608H410.461V144.999H389.513ZM389.513 184.607V171.224H424.792V184.615L389.513 184.607ZM398.949 180.109V131.608H416.16V180.109H398.949ZM439.825 180.109V155.799C439.841 154.175 439.515 152.567 438.861 151.077C438.235 149.674 437.236 148.467 435.969 147.589C434.567 146.655 432.905 146.183 431.218 146.239C428.719 146.283 426.279 146.982 424.136 148.261C421.448 149.875 419.058 151.929 417.063 154.341C414.44 157.442 412.126 160.788 410.159 164.334V150.961C412.19 146.877 414.777 143.09 417.85 139.71C420.492 136.805 423.663 134.421 427.192 132.681C430.451 131.088 434.036 130.26 437.666 130.258C440.455 130.224 443.217 130.793 445.761 131.924C448.17 133.039 450.27 134.719 451.877 136.82C453.672 139.207 454.979 141.92 455.722 144.807C456.644 148.409 457.08 152.116 457.021 155.833V180.144L439.817 180.109H439.825ZM431.218 184.607V171.224H465.405V184.615L431.218 184.607ZM480.357 180.109V155.799C480.367 154.581 480.195 153.368 479.847 152.203C479.515 151.101 478.978 150.07 478.261 149.163C477.544 148.264 476.633 147.533 475.598 147.022C474.469 146.486 473.229 146.218 471.978 146.239C469.463 146.286 467.007 146.985 464.847 148.261C462.141 149.851 459.743 151.91 457.767 154.341C455.178 157.452 452.886 160.798 450.921 164.334V150.961C452.953 146.874 455.545 143.088 458.622 139.71C461.249 136.813 464.399 134.429 467.907 132.681C471.144 131.083 474.708 130.255 478.322 130.258C481.071 130.231 483.793 130.798 486.3 131.924C488.709 133.039 490.81 134.719 492.416 136.82C494.214 139.204 495.523 141.92 496.264 144.807C497.191 148.409 497.632 152.116 497.571 155.833V180.144L480.359 180.109H480.357ZM471.975 184.607V171.224H505.411V184.615L471.975 184.607Z" fill="black"/>
<path d="M537.103 185.637C533.165 185.642 529.246 185.047 525.482 183.874C521.799 182.75 518.335 180.985 515.249 178.662C512.103 176.329 509.563 173.256 507.853 169.711C506.14 166.165 505.306 162.25 505.422 158.306C505.354 154.144 506.251 150.024 508.045 146.277C509.77 142.763 512.203 139.654 515.192 137.153C518.227 134.59 521.694 132.6 525.427 131.276C529.285 129.907 533.347 129.216 537.437 129.238C541.951 129.153 546.444 129.859 550.716 131.327C554.18 132.496 557.276 134.572 559.688 137.347C561.85 139.919 563.01 143.204 562.95 146.58C563.068 149.942 561.924 153.222 559.746 155.763C557.476 158.28 554.598 160.156 551.397 161.211C547.867 162.436 544.155 163.05 540.425 163.024C536.34 163.114 532.266 162.545 528.357 161.344C524.879 160.175 521.499 158.734 518.24 157.038V147.428C521.555 149.102 525.074 150.325 528.707 151.064C531.106 151.484 533.534 151.709 535.969 151.744C537.763 151.717 539.547 151.47 541.28 151.005C542.48 150.713 543.584 150.107 544.484 149.251C544.829 148.911 545.102 148.504 545.286 148.058C545.47 147.611 545.57 147.127 545.57 146.641C545.56 146.027 545.384 145.429 545.06 144.908C544.737 144.39 544.279 143.97 543.737 143.693C542.232 142.864 540.533 142.468 538.823 142.551C536.714 142.551 534.623 142.936 532.65 143.693C530.693 144.435 528.878 145.506 527.281 146.867C525.711 148.188 524.409 149.804 523.446 151.627C522.402 153.745 521.915 156.103 522.036 158.468C522.157 160.834 522.88 163.127 524.135 165.126C525.563 167.183 527.547 168.778 529.854 169.719C532.371 170.766 535.072 171.29 537.798 171.255C541.622 171.308 545.423 170.633 549.003 169.264C552.139 168.063 555.1 166.444 557.81 164.446L564.899 175.678C562.539 177.69 559.969 179.439 557.239 180.89C554.309 182.447 551.197 183.63 547.977 184.406C544.418 185.257 540.77 185.671 537.114 185.639L537.103 185.637Z" fill="black"/>
<path d="M179.253 128.206C183.324 128.203 187.373 128.793 191.269 129.959C195.077 131.083 198.66 132.85 201.862 135.179C205.101 137.491 207.718 140.554 209.491 144.103C211.261 147.649 212.127 151.573 212.017 155.529C212.103 159.697 211.178 163.826 209.327 167.569C207.533 171.094 205.01 174.202 201.923 176.697C198.773 179.266 195.185 181.253 191.328 182.57C187.33 183.939 183.128 184.627 178.899 184.608C174.233 184.696 169.589 183.986 165.167 182.509C161.587 181.354 158.374 179.282 155.859 176.503C153.628 173.942 152.424 170.658 152.475 167.274C152.341 163.889 153.531 160.582 155.792 158.045C158.154 155.529 161.128 153.656 164.429 152.607C168.095 151.371 171.946 150.755 175.818 150.787C180.044 150.697 184.257 151.262 188.306 152.466C191.908 153.635 195.413 155.077 198.789 156.778V166.41C195.351 164.742 191.707 163.523 187.95 162.787C185.466 162.367 182.954 162.141 180.436 162.107C178.577 162.131 176.727 162.375 174.928 162.837C173.692 163.135 172.552 163.743 171.619 164.599C171.262 164.936 170.978 165.34 170.785 165.789C170.592 166.238 170.492 166.721 170.495 167.207C170.509 167.824 170.691 168.424 171.026 168.945C171.359 169.465 171.833 169.883 172.391 170.154C173.949 170.98 175.703 171.37 177.467 171.285C179.65 171.291 181.817 170.905 183.866 170.154C185.885 169.415 187.765 168.342 189.425 166.982C191.044 165.661 192.393 164.043 193.393 162.216C194.391 160.369 194.9 158.302 194.874 156.209C194.959 153.547 194.192 150.928 192.683 148.725C191.192 146.667 189.135 145.073 186.759 144.135C184.147 143.093 181.35 142.573 178.535 142.607C174.577 142.551 170.645 143.224 166.934 144.586C163.692 145.787 160.627 147.405 157.814 149.403L150.488 138.2C152.931 136.181 155.588 134.43 158.415 132.98C161.458 131.426 164.679 130.246 168.009 129.465C171.694 128.607 175.47 128.185 179.253 128.206Z" fill="black"/>
<path d="M115.667 128.206C119.739 128.203 123.79 128.793 127.688 129.959C131.492 131.086 135.076 132.85 138.277 135.179C141.513 137.493 144.13 140.556 145.899 144.103C147.668 147.649 148.537 151.571 148.427 155.526C148.508 159.695 147.583 163.826 145.727 167.566C143.939 171.091 141.419 174.202 138.334 176.694C135.184 179.26 131.596 181.25 127.744 182.568C123.747 183.936 119.546 184.624 115.318 184.608C110.653 184.696 106.01 183.986 101.589 182.509C98.0076 181.354 94.7959 179.282 92.2839 176.503C90.0507 173.945 88.8443 170.658 88.9006 167.274C88.7665 163.889 89.9542 160.582 92.2168 158.045C94.5787 155.532 97.5518 153.659 100.852 152.607C104.517 151.371 108.367 150.758 112.238 150.787C116.463 150.697 120.675 151.262 124.723 152.466C128.318 153.632 131.816 155.075 135.186 156.778V166.41C131.749 164.742 128.111 163.523 124.358 162.787C121.873 162.37 119.358 162.141 116.838 162.107C114.983 162.131 113.136 162.375 111.34 162.837C110.101 163.135 108.962 163.743 108.023 164.599C107.67 164.936 107.385 165.34 107.192 165.789C106.999 166.238 106.9 166.719 106.897 167.207C106.911 167.824 107.093 168.424 107.428 168.945C107.763 169.465 108.235 169.883 108.793 170.154C110.35 170.977 112.104 171.37 113.868 171.285C116.05 171.291 118.216 170.908 120.262 170.154C122.302 169.42 124.203 168.35 125.878 166.982C127.497 165.664 128.843 164.046 129.838 162.216C130.835 160.369 131.344 158.302 131.318 156.209C131.403 153.55 130.639 150.93 129.135 148.725C127.645 146.664 125.591 145.073 123.213 144.135C120.599 143.093 117.806 142.575 114.991 142.607C111.031 142.551 107.098 143.224 103.385 144.586C100.147 145.787 97.0853 147.408 94.2758 149.403L86.8979 138.2C89.3429 136.178 92.005 134.43 94.8334 132.98C97.8708 131.426 101.088 130.243 104.418 129.465C108.101 128.607 111.876 128.185 115.659 128.206H115.667Z" fill="black"/>
<path d="M14.0776 118.245V104.615H39.1188V118.245H14.0776ZM23.1828 183.178V104.615H40.1385V183.178H23.1828ZM57.8096 128.408C62.6117 128.019 69.6508 129.739 73.3665 132.103C77.1517 134.531 80.2641 137.88 82.421 141.841C84.7753 146.181 85.9632 151.062 85.8671 156.005C85.8965 159.743 85.1811 163.449 83.761 166.906C82.3916 170.206 80.3549 173.185 77.7817 175.654C75.147 178.16 72.0559 180.133 68.6765 181.461C64.9848 182.902 61.0555 183.621 57.0942 183.581C53.0848 183.691 49.1128 182.779 45.5466 180.927C42.4795 179.282 39.7114 177.13 37.3517 174.562C35.1068 172.093 33.1902 169.86 31.6073 167.866L31.9623 154.373C33.6466 156.432 36.8979 159.612 38.9186 161.901C41.2009 164.445 41.345 165.58 44.8659 167.587C47.2496 168.91 49.935 169.581 52.6577 169.527C54.8039 169.56 56.9394 169.224 58.9734 168.534C60.7379 167.923 62.3635 166.962 63.7569 165.711C65.0756 164.501 66.1059 163.006 66.7733 161.337C67.4673 159.577 67.8116 157.696 67.7929 155.801C67.841 153.448 67.3125 151.121 66.2607 149.02C65.2597 147.058 63.7195 145.427 61.8216 144.324C59.7182 143.143 57.3371 142.558 54.932 142.628C51.9851 142.539 49.0942 143.47 46.7451 145.263C43.7474 147.442 42.0124 150.399 39.3163 154.314C36.6203 158.23 33.0487 163.503 31.383 168.722V156.662C33.1261 150.917 32.5549 146.975 35.7447 142.77C38.9373 138.565 40.966 134.735 46.0378 131.837C49.6547 129.816 53.6801 128.641 57.8122 128.405L57.8096 128.408Z" fill="black"/>
<path d="M182.061 76.9203C182.003 76.9203 181.944 76.9149 181.886 76.9068C176.015 75.9214 172.496 69.6963 172.35 69.4298C166.909 59.8445 165.532 50.6199 168.257 42.0282C173.054 26.9071 188.713 19.3089 190.483 18.493C203.116 12.6638 212.463 16.1156 218.082 20.0385C224.128 24.2604 227.155 29.7854 227.28 30.0169C227.456 30.34 227.453 30.7304 227.28 31.0535C227.105 31.3766 226.778 31.5867 226.416 31.6082C220.203 32.0067 214.464 34.3357 209.364 38.5252C205.245 41.9097 201.518 46.5112 198.295 52.2031C192.761 61.9688 190.603 71.6645 190.582 71.7615C190.454 72.343 189.888 72.7092 189.314 72.58C188.74 72.4507 188.379 71.8772 188.506 71.2957C188.594 70.8891 190.741 61.2257 196.424 51.1773C199.78 45.243 203.677 40.4288 208.003 36.8693C212.976 32.7794 218.526 30.3454 224.519 29.6211C223.256 27.7633 220.67 24.4435 216.811 21.7644C209.314 16.5625 200.753 16.1209 191.366 20.4532C189.683 21.2286 174.8 28.4472 170.282 42.6878C167.746 50.6792 169.065 59.3194 174.199 68.3662C174.234 68.4281 177.381 73.9666 182.234 74.7824C182.813 74.8794 183.204 75.434 183.108 76.021C183.023 76.5487 182.571 76.923 182.061 76.923V76.9203Z" fill="black"/>
<path d="M206.72 38.9745C206.488 38.9745 206.253 38.9011 206.058 38.7465C205.871 38.5998 201.483 35.126 201.785 30.8925C201.953 28.5294 203.509 26.4782 206.41 24.7963C206.778 24.5579 209.423 22.952 212.565 23.8715C215.29 24.6679 217.497 27.0781 219.128 31.0313C219.349 31.5684 219.085 32.1788 218.538 32.3962C217.993 32.6137 217.369 32.3543 217.147 31.8173C215.778 28.498 214.038 26.5017 211.977 25.8861C209.653 25.1919 207.603 26.5332 207.584 26.5463C207.566 26.5594 207.542 26.5751 207.52 26.5856C205.246 27.8981 204.035 29.3913 203.915 31.0313C203.685 34.1593 207.35 37.0751 207.387 37.1039C207.846 37.4655 207.923 38.123 207.555 38.5763C207.344 38.8356 207.032 38.9718 206.72 38.9718V38.9745Z" fill="black"/>
<path d="M204.914 36.9232C204.681 36.9232 204.443 36.8526 204.247 36.7035C203.768 36.3506 203.68 35.6944 204.05 35.2369C204.26 34.9755 209.281 28.8553 216.917 27.705C217.513 27.6161 218.074 28.0057 218.167 28.5756C218.26 29.1455 217.853 29.6815 217.256 29.7703C210.496 30.7873 205.825 36.4578 205.778 36.5153C205.562 36.782 205.239 36.9205 204.911 36.9205L204.914 36.9232Z" fill="black"/>
<path d="M187.329 82.0513C185.907 82.0513 184.825 81.4685 184.119 80.9196C182.143 79.3793 180.566 75.6848 181.567 73.4056C182.433 71.4334 183.683 70.2444 185.275 69.8671C188.316 69.1464 191.382 71.8107 191.512 71.9252C191.93 72.2946 191.987 72.9503 191.637 73.39C191.29 73.8323 190.67 73.8895 190.252 73.5253C190.228 73.5044 187.792 71.3996 185.701 71.8991C184.724 72.1333 183.956 72.9112 183.354 74.2824C182.977 75.141 183.548 77.8859 185.287 79.244C187.502 80.969 190.117 79.2726 191.92 77.545C192.324 77.16 192.946 77.1912 193.31 77.6179C193.675 78.0446 193.645 78.7028 193.242 79.0879C190.889 81.3384 188.902 82.0513 187.329 82.0513Z" fill="black"/>
<path d="M176.59 92.3077C175.541 92.3077 174.841 91.9199 174.734 91.8557C174.651 91.8069 174.579 91.7478 174.511 91.6785C171.89 88.9251 171.33 84.6589 172.892 79.3422C174.028 75.4793 175.863 72.4228 175.941 72.2944C176.237 71.8089 176.873 71.6497 177.366 71.9399C177.856 72.2302 178.017 72.862 177.724 73.35C177.656 73.463 170.984 84.6692 175.897 90.1323C176.133 90.2196 176.779 90.3917 177.628 90.0167C178.91 89.4516 181.352 87.3018 183.311 79.2523C183.446 78.7001 184.004 78.3611 184.565 78.4946C185.123 78.6282 185.465 79.183 185.33 79.7352C183.656 86.6083 181.316 90.7153 178.37 91.9379C177.711 92.2127 177.109 92.3052 176.59 92.3052V92.3077Z" fill="black"/>
<path d="M169.561 41.0257C169.367 41.0257 169.166 40.9796 168.983 40.8821C168.881 40.8279 166.498 39.5248 165.975 37.1759C165.659 35.7509 166.074 34.2988 167.216 32.8656C167.594 32.3644 170.221 29.2218 174.554 31.7278C175.1 32.0447 175.266 32.7112 174.929 33.2205C174.589 33.7298 173.874 33.887 173.328 33.57C170.738 32.0718 169.378 33.7434 169.131 34.0929C169.12 34.1091 169.099 34.1362 169.088 34.1525C168.361 35.0682 168.079 35.9324 168.251 36.7235C168.553 38.116 170.134 38.9965 170.151 39.0074C170.704 39.3108 170.889 39.9718 170.567 40.4866C170.352 40.8333 169.962 41.0257 169.561 41.0257Z" fill="black"/>
<path d="M194.247 94.3562C194.048 94.3562 193.853 94.2953 193.683 94.1764C192.436 93.2996 191.542 92.0384 190.928 90.885C189.73 93.6592 188.148 93.6205 187.775 93.5734C187.574 93.5458 187.386 93.4545 187.231 93.3134C184.335 90.6277 182.408 83.7627 182.326 83.4723C182.164 82.8859 182.473 82.2719 183.019 82.0976C183.563 81.9234 184.137 82.2553 184.302 82.8417C184.773 84.5344 186.332 89.112 188.19 91.2362C188.563 90.9486 189.274 90.0773 189.772 87.4801C189.87 86.9767 190.277 86.6116 190.756 86.5978C191.222 86.5895 191.658 86.9269 191.779 87.4248C191.786 87.4525 192.485 90.2239 194.26 91.8779C194.814 91.2888 195.687 89.8782 195.602 86.8827C195.584 86.2714 196.032 85.7625 196.599 85.7431C197.163 85.7293 197.642 86.205 197.66 86.8135C197.83 92.6773 194.796 94.1985 194.664 94.2622C194.53 94.3258 194.386 94.359 194.244 94.359L194.247 94.3562Z" fill="black"/>
<path d="M226.505 79.9999C224.764 79.9999 223.106 79.0083 222.214 77.4029C221.157 75.503 220.975 73.9337 221.673 72.7393C222.526 71.2783 224.309 71.0506 224.856 71.0173C227.484 70.3756 228.421 69.8284 228.738 69.5729C228.614 69.4813 228.44 69.3785 228.289 69.3174C228.272 69.3118 228.252 69.3007 228.235 69.2952C226.687 68.573 225.821 67.6731 225.655 66.6259C225.512 65.7149 225.958 64.9344 226.385 64.5427C226.483 64.4511 226.595 64.3816 226.718 64.3289C229.007 63.3928 229.329 62.5012 229.262 62.2151C229.234 62.179 229.254 62.1985 229.223 62.1235C228.345 60.1236 223.448 55.9378 222.598 55.4851C222.052 55.2851 221.749 54.699 221.911 54.1352C222.082 53.5463 222.705 53.2075 223.3 53.3769C224.503 53.7213 230.12 58.6821 231.262 61.1985C231.396 61.4652 231.696 62.2179 231.36 63.2039C230.953 64.3983 229.781 65.4232 227.871 66.2565C227.871 66.2676 227.868 66.2787 227.871 66.287C227.899 66.4315 228.207 66.8203 229.167 67.2703C229.579 67.4425 231.205 68.2119 231.096 69.6979C230.987 71.1978 229.248 72.2422 225.282 73.1976C225.201 73.2171 225.12 73.2282 225.038 73.2282C224.761 73.2365 223.889 73.3726 223.614 73.8531C223.353 74.3087 223.56 75.2086 224.18 76.328C224.707 77.2751 225.678 77.8417 226.673 77.7695C227.181 77.7334 227.585 77.5529 227.905 77.2223C228.334 76.7779 229.043 76.7613 229.492 77.1862C229.941 77.6112 229.957 78.3139 229.528 78.7583C228.827 79.4861 227.896 79.911 226.839 79.986C226.727 79.9944 226.617 79.9971 226.505 79.9971V79.9999ZM222.624 55.4962C222.646 55.5045 222.666 55.5101 222.683 55.5156C222.663 55.5101 222.643 55.5045 222.624 55.4962Z" fill="black"/>
<path d="M208.84 66.6666C207.556 66.6666 206.211 66.23 205.051 65.0052C205.035 64.9887 205.019 64.9695 205.003 64.9503C204.898 64.8212 202.409 61.7703 202.847 58.5712C203.062 57.0004 203.918 55.6933 205.39 54.6855C206.81 53.7134 208.467 53.2411 210.053 53.3482C210.985 53.4141 211.855 53.653 212.634 54.0621C213.163 54.3395 213.369 55.0013 213.098 55.5395C212.827 56.0805 212.18 56.2919 211.654 56.0146C211.135 55.7427 210.547 55.5807 209.908 55.5368C208.794 55.4571 207.613 55.8031 206.584 56.5089C205.634 57.1597 205.108 57.9313 204.976 58.8678C204.914 59.3154 204.944 59.774 205.033 60.2161C206.367 58.4751 208.816 56.6297 212.175 57.4425C213.525 57.7693 214.626 58.8952 214.983 60.3094C215.383 61.9049 214.774 63.5965 213.31 64.953C212.483 65.7164 210.73 66.6611 208.84 66.6611V66.6666ZM206.625 63.5086C208.593 65.5434 211.396 63.7667 211.868 63.3274C212.733 62.5283 213.101 61.6523 212.902 60.8614C212.746 60.2463 212.244 59.7218 211.68 59.5845C208.485 58.8101 206.482 61.5809 206.053 62.6738C206.324 63.1159 206.558 63.4207 206.625 63.5086Z" fill="black"/>
<path d="M229.231 53.3333C227.924 53.3333 226.553 52.9011 225.371 51.6887C225.344 51.6588 225.316 51.6289 225.292 51.5963C225.179 51.4522 222.561 48.0298 223.519 44.6509C224.066 42.7209 225.617 41.2584 228.126 40.3043C228.482 40.1575 230.457 39.4561 233.111 40.8643C233.644 41.147 233.847 41.8048 233.562 42.3349C233.278 42.865 232.616 43.0634 232.082 42.7834C230.257 41.8157 229.018 42.2914 228.966 42.3131C228.947 42.3213 228.947 42.3213 228.928 42.3294C227.092 43.0226 225.984 44.0012 225.631 45.2326C225.489 45.7274 225.472 46.2384 225.53 46.7359C226.922 45.0804 229.354 43.4331 232.632 44.2051C234.008 44.5286 235.13 45.6431 235.494 47.0431C235.902 48.6224 235.28 50.2969 233.789 51.6398C232.947 52.3955 231.16 53.3306 229.234 53.3306L229.231 53.3333ZM226.991 50.2235C228.996 52.2107 231.836 50.46 232.317 50.0278C233.198 49.2368 233.573 48.3696 233.371 47.5867C233.212 46.9778 232.701 46.4586 232.126 46.3227C228.939 45.5724 226.914 48.1875 226.419 49.3129C226.676 49.7777 226.906 50.1066 226.991 50.2235Z" fill="black"/>
<path d="M263.684 114.872C263.193 114.872 262.755 114.512 262.655 113.994C262.542 113.402 262.912 112.829 263.482 112.712C268.483 111.681 270.141 109.256 270.159 109.232C270.199 109.174 270.249 109.109 270.299 109.06C271.457 107.887 271.297 107.483 271.055 106.873C270.845 106.341 270.493 105.449 271.123 104.464C271.228 104.301 272.093 102.836 270.467 101.391C270.086 101.052 269.983 100.474 270.23 100.022C271.052 98.5106 270.472 97.8451 270.464 97.8397C270.406 97.7824 270.354 97.7197 270.309 97.6515C270.141 97.3897 269.014 97.3379 268.118 97.5506C267.737 97.6406 267.341 97.5042 267.086 97.196C266.831 96.8879 266.763 96.4597 266.907 96.0833C268.841 91.0378 268.063 89.7969 267.887 89.5978C267.525 89.1914 266.674 89.4396 266.666 89.4423C266.626 89.4559 266.574 89.4696 266.532 89.4778C265.397 89.6878 262.502 93.7078 260.514 97.327C260.262 97.7824 259.734 97.9897 259.256 97.8151C258.778 97.6433 258.486 97.1388 258.562 96.6206C258.985 93.7705 258.421 92.8542 258.158 92.5923C257.95 92.3851 257.701 92.3523 257.588 92.3523C254.843 93.5987 255.156 96.9888 255.208 97.4115C255.318 97.7061 255.305 98.047 255.142 98.3442C254.856 98.8679 254.215 99.0533 253.711 98.7561C252.944 98.3061 253.036 96.866 253.08 96.1733C253.262 93.3615 254.667 91.2096 256.934 90.2687C256.994 90.2441 257.057 90.225 257.123 90.2114C257.265 90.1814 258.549 89.9605 259.61 91.0187C260.096 91.5042 260.435 92.1614 260.624 92.9905C262.214 90.536 264.36 87.7323 266.08 87.3423C266.876 87.0941 268.407 86.9877 269.408 88.0977C270.564 89.3768 270.577 91.7169 269.44 95.2297C270.362 95.2542 271.396 95.5024 271.995 96.356C272.329 96.7542 273.272 98.1397 272.405 100.341C273.356 101.516 274.218 103.556 272.865 105.67L272.862 105.675C272.878 105.754 272.944 105.921 272.991 106.043C273.44 107.181 273.753 108.558 271.822 110.552C271.396 111.141 269.253 113.745 263.884 114.85C263.816 114.864 263.748 114.872 263.679 114.872H263.684Z" fill="black"/>
<path d="M231.909 99.1031C229.259 99.1031 224.188 98.6555 219.466 95.7111C218.965 95.3993 218.814 94.7438 219.125 94.2429C219.437 93.7419 220.095 93.59 220.593 93.9018C225.157 96.7476 230.223 97.0061 232.404 96.9608L231.746 92.5428C230.201 92.9905 228.052 93.145 225.336 93.0065C222.707 92.8706 220.513 92.5109 220.42 92.4949C219.839 92.3989 219.447 91.85 219.543 91.2691C219.639 90.6882 220.188 90.2992 220.768 90.3925C223.109 90.7815 229.701 91.4903 232.068 90.126C232.375 89.9501 232.748 89.9368 233.064 90.0914C233.381 90.2459 233.602 90.5444 233.656 90.8934L234.686 97.8055C234.729 98.0906 234.654 98.381 234.479 98.6102C234.303 98.8393 234.042 98.9886 233.757 99.0205C233.669 99.0312 232.99 99.1058 231.914 99.1058L231.909 99.1031Z" fill="black"/>
<path d="M240.938 94.1895C240.738 94.1895 240.538 94.1335 240.368 94.0243L234.32 90.1819C234.061 90.0167 233.886 89.7502 233.838 89.4465C233.79 89.1427 233.875 88.8336 234.072 88.5991C234.093 88.5725 236.469 85.66 236.972 81.2767C237.039 80.6905 237.572 80.2721 238.152 80.3388C238.735 80.4054 239.156 80.9356 239.09 81.5192C238.687 85.0072 237.279 87.6452 236.41 88.9855L240.419 91.5302C240.759 90.3738 241.122 88.3007 240.642 85.4522C240.544 84.8713 240.935 84.3224 241.516 84.2238C242.096 84.1252 242.645 84.5169 242.744 85.0978C243.646 90.4617 241.937 93.526 241.865 93.6539C241.721 93.9071 241.479 94.0882 241.196 94.1575C241.111 94.1788 241.026 94.1895 240.941 94.1895H240.938Z" fill="black"/>
<path d="M232.848 92.5747C232.736 92.5747 232.635 92.5694 232.544 92.5587C231.961 92.4895 231.543 91.9565 231.614 91.373C231.684 90.7948 232.203 90.3817 232.781 90.4404C232.911 90.451 233.929 90.475 234.778 89.188C235.103 88.6977 235.764 88.5618 236.254 88.8869C236.744 89.212 236.88 89.8728 236.555 90.3631C235.396 92.1191 233.801 92.5774 232.848 92.5774V92.5747Z" fill="black"/>
<path d="M362.759 113.846C362.721 113.846 362.687 113.846 362.649 113.841L339.139 111.673C338.553 111.619 338.127 111.143 338.186 110.614C338.244 110.082 338.769 109.697 339.352 109.748L362.862 111.917C363.448 111.97 363.874 112.446 363.816 112.976C363.76 113.474 363.297 113.846 362.759 113.846Z" fill="black"/>
<path d="M366.853 102.564C366.671 102.564 366.486 102.518 366.317 102.418L342.894 88.6963C334.735 84.3816 330.391 86.237 325.641 90.8984C325.218 91.3155 324.537 91.3046 324.124 90.8767C323.712 90.4487 323.722 89.7608 324.146 89.3437C329.319 84.2651 334.658 81.887 343.907 86.7868C343.921 86.7949 343.934 86.8003 343.948 86.8085L367.389 100.541C367.901 100.841 368.075 101.505 367.78 102.022C367.582 102.369 367.223 102.564 366.853 102.564Z" fill="black"/>
<path d="M377.772 118.972C377.336 118.972 376.894 118.903 376.463 118.755L371.585 117.099C370.4 116.696 369.505 115.77 369.13 114.552C368.756 113.336 368.968 112.055 369.711 111.031C373.828 105.369 375.33 102.949 375.878 101.933C375.428 101.886 374.69 101.854 373.505 101.912C372.225 101.983 371.1 101.042 370.891 99.7418L369.915 93.6421C369.755 92.64 370.186 91.63 371.015 91.0683L384.878 81.6537C387.645 79.7734 391.112 79.4781 394.147 80.8626C395.205 81.3452 396.003 82.2233 396.393 83.3362C396.783 84.4491 396.713 85.6463 396.194 86.7038L381.551 116.604C380.826 118.086 379.334 118.974 377.777 118.974L377.772 118.972ZM374.672 99.7734C376.931 99.7734 377.599 100.153 377.958 100.575C378.655 101.398 378.121 102.484 375.921 105.799C374.509 107.93 372.664 110.504 371.366 112.292C371.022 112.764 370.924 113.357 371.097 113.919C371.27 114.481 371.686 114.911 372.235 115.098L377.114 116.754C378.118 117.094 379.228 116.622 379.7 115.659L394.343 85.7597C394.607 85.2217 394.643 84.6126 394.444 84.0456C394.245 83.4786 393.84 83.0329 393.303 82.785C390.918 81.6985 388.195 81.9306 386.019 83.4074L372.155 92.8219C372.003 92.9274 371.921 93.1147 371.952 93.2993L372.927 99.3989C372.966 99.6389 373.17 99.8183 373.407 99.8024C373.877 99.7813 374.298 99.7708 374.672 99.7708V99.7734Z" fill="black"/>
<path d="M373.01 74.8718C371.796 74.8718 370.668 74.3648 369.874 73.4553C369.011 72.4654 368.701 71.1777 369.022 69.9168C370.8 62.9496 371.304 60.0764 371.434 58.904C370.969 59.0382 370.228 59.3064 369.08 59.8349C367.835 60.4064 366.347 59.9825 365.617 58.8477L362.182 53.5143C361.617 52.6371 361.634 51.5157 362.226 50.6572L372.12 36.2588C374.095 33.3856 377.394 31.7222 380.963 31.7974C382.202 31.8269 383.347 32.3312 384.182 33.2192C385.017 34.1072 385.432 35.2581 385.349 36.46L382.976 70.3943C382.824 72.5459 381.04 74.2924 378.822 74.4533L373.331 74.8558C373.223 74.8638 373.116 74.8665 373.008 74.8665L373.01 74.8718ZM372.136 56.621C372.493 56.621 372.739 56.6934 372.944 56.7927C373.967 57.2836 373.879 58.5204 373.046 62.5123C372.513 65.0771 371.733 68.2347 371.171 70.4319C371.022 71.014 371.166 71.6096 371.564 72.0684C371.965 72.5271 372.546 72.7632 373.165 72.7176L378.656 72.3152C379.784 72.232 380.692 71.344 380.769 70.2494L383.142 36.3151C383.186 35.7035 382.973 35.1186 382.547 34.6679C382.121 34.2172 381.541 33.9597 380.91 33.9436C378.119 33.8765 375.514 35.1911 373.962 37.4499L364.068 51.8484C363.958 52.0066 363.955 52.2159 364.06 52.3795L367.495 57.7129C367.631 57.9221 367.905 58.0026 368.131 57.898C370.261 56.9161 371.417 56.6237 372.134 56.6237L372.136 56.621Z" fill="black"/>
<path d="M329 67.6922C328.515 67.6922 328.077 67.3609 327.955 66.8639C327.813 66.28 328.168 65.6934 328.744 65.5495L361.461 57.4676C362.04 57.3237 362.621 57.6821 362.764 58.2633C362.907 58.8472 362.551 59.4338 361.975 59.5777L329.259 67.6596C329.173 67.6813 329.086 67.6922 329 67.6922Z" fill="black"/>
<path d="M342.337 82.0513C341.916 82.0513 341.514 81.8228 341.341 81.4428C341.112 80.9361 341.368 80.3548 341.919 80.1412L363.349 71.8722C363.9 71.6611 364.531 71.897 364.763 72.4038C364.992 72.9105 364.736 73.4917 364.186 73.7053L342.755 81.9743C342.618 82.0265 342.477 82.0513 342.34 82.0513H342.337Z" fill="black"/>
<path d="M244.84 71.7922C244.636 71.7922 244.427 71.7255 244.248 71.5867C243.789 71.2312 243.685 70.5369 244.011 70.0371C244.207 69.7371 248.952 62.7111 259.422 65.116C259.973 65.2438 260.325 65.8325 260.21 66.4324C260.095 67.0322 259.552 67.4183 259.001 67.2905C249.819 65.1827 245.709 71.2673 245.671 71.3284C245.472 71.6311 245.158 71.795 244.84 71.795V71.7922Z" fill="black"/>
<path d="M229.561 134.356C223.598 134.356 219.237 133.302 219.009 133.245C210.585 131.383 204.402 127.405 200.661 121.428C194.688 111.883 197.11 100.787 197.216 100.32C197.346 99.7434 197.915 99.381 198.485 99.5152C199.055 99.6468 199.413 100.224 199.28 100.801C199.246 100.959 196.972 111.542 202.46 120.295C205.889 125.76 211.615 129.412 219.483 131.152C219.576 131.173 226.431 132.827 234.498 131.946C244.872 130.814 252.385 126.232 256.844 118.319L245.299 106.019L237.81 109.825C237.288 110.09 236.649 109.876 236.387 109.347C236.125 108.818 236.337 108.171 236.859 107.905L245.05 103.745C245.466 103.533 245.972 103.622 246.292 103.965L258.914 117.412C259.229 117.748 259.295 118.25 259.081 118.66C254.38 127.539 245.935 132.875 234.659 134.091C232.876 134.284 231.159 134.359 229.555 134.359L229.561 134.356Z" fill="black"/>
<path d="M287.85 93.3332C287.688 93.3332 287.526 93.2988 287.369 93.2245C279.996 89.7609 273.944 82.9583 270.765 74.5617C268.342 68.1649 267.79 61.2853 269.203 55.1882C269.335 54.6153 269.924 54.2573 270.518 54.3846C271.112 54.5119 271.483 55.0794 271.351 55.6523C270.025 61.3569 270.553 67.8148 272.83 73.8324C275.817 81.7171 281.465 88.09 288.331 91.315C288.879 91.5723 289.104 92.2061 288.837 92.7339C288.648 93.1105 288.254 93.3306 287.847 93.3306L287.85 93.3332Z" fill="black"/>
<path d="M303.03 88.2464C311.989 84.9734 315.698 72.5842 311.314 60.5743C306.931 48.5644 296.116 41.4817 287.157 44.7547C278.199 48.0276 274.49 60.4169 278.873 72.4268C283.256 84.4367 294.072 91.5194 303.03 88.2464Z" fill="white"/>
<path d="M291.063 75.8946C290.834 75.8946 290.606 75.8224 290.41 75.6725C289.929 75.3034 289.833 74.6096 290.192 74.1184L295.905 66.3558L292.992 54.7189C292.842 54.125 293.196 53.52 293.778 53.3673C294.36 53.2175 294.953 53.5755 295.102 54.1694L298.146 66.3225C298.228 66.6472 298.16 66.9941 297.961 67.2633L291.933 75.4533C291.718 75.7447 291.392 75.8974 291.063 75.8974V75.8946Z" fill="black"/>
<path d="M298.531 89.2308C295.219 89.2308 291.798 88.189 288.545 86.1445C283.702 83.1026 279.804 78.1855 277.563 72.297C275.325 66.4111 275.004 60.2387 276.665 54.9153C278.36 49.4851 281.904 45.5759 286.646 43.9143C296.317 40.5234 307.98 47.7376 312.644 59.9991C314.882 65.885 315.202 72.0574 313.542 77.3808C311.849 82.8109 308.303 86.7175 303.561 88.3817C301.939 88.9495 300.249 89.2308 298.528 89.2308H298.531ZM291.665 45.154C290.213 45.154 288.778 45.3858 287.392 45.8728C283.309 47.3053 280.238 50.7274 278.743 55.5143C277.216 60.408 277.519 66.1168 279.6 71.5834C281.681 77.05 285.278 81.6025 289.73 84.4022C294.085 87.1368 298.732 87.8556 302.815 86.4258C306.898 84.9934 309.969 81.5712 311.464 76.7844C312.991 71.8907 312.685 66.1819 310.607 60.7153C307.044 51.3499 299.155 45.1566 291.662 45.1566L291.665 45.154Z" fill="black"/>
<path d="M295.715 35.8947C295.593 35.8947 295.468 35.873 295.346 35.8298C294.783 35.6271 294.49 35.0083 294.693 34.4462L297.543 26.5664L292.201 27.1366C291.838 27.1744 291.477 27.0285 291.244 26.7448C291.014 26.461 290.941 26.08 291.052 25.7341L294.777 14.0847C294.959 13.5145 295.568 13.2037 296.14 13.3848C296.709 13.5658 297.026 14.1739 296.842 14.744L293.62 24.8127L299.034 24.2344C299.402 24.1966 299.77 24.3479 300.001 24.6424C300.231 24.9343 300.293 25.3261 300.169 25.6774L296.731 35.184C296.571 35.6244 296.156 35.8974 295.712 35.8974L295.715 35.8947Z" fill="black"/>
<path d="M305.417 37.9488C305.138 37.9488 304.857 37.8428 304.645 37.6334C304.226 37.2173 304.231 36.5441 304.656 36.1333L309.143 31.8026L305.463 30.5304C305.117 30.4112 304.857 30.1302 304.77 29.7804C304.683 29.4332 304.784 29.0648 305.033 28.8024L311.694 21.8717C312.102 21.4449 312.787 21.4264 313.223 21.8266C313.659 22.2268 313.681 22.8973 313.269 23.3241L307.748 29.0701L311.493 30.3635C311.845 30.4854 312.108 30.7769 312.189 31.1321C312.27 31.4899 312.159 31.8609 311.891 32.118L306.173 37.6387C305.961 37.8428 305.688 37.9435 305.412 37.9435L305.417 37.9488Z" fill="black"/>
<path d="M315.765 138.456C315.457 138.456 315.154 138.315 314.948 138.045C314.59 137.574 314.663 136.889 315.115 136.516C315.235 136.415 327.018 126.56 332.847 114.18L318.493 93.7194L302.727 101.044C302.2 101.289 301.583 101.044 301.348 100.494C301.113 99.9448 301.348 99.3027 301.876 99.0578L318.412 91.3768C318.864 91.1673 319.392 91.3142 319.681 91.7277L334.902 113.424C335.129 113.745 335.166 114.17 335.004 114.531C329.062 127.651 316.927 137.798 316.415 138.225C316.222 138.383 315.995 138.461 315.765 138.461V138.456Z" fill="black"/>
<path d="M274.038 43.077C273.831 43.077 273.621 43.0615 273.414 43.0254C272.482 42.8734 271.671 42.3966 271.128 41.6827C270.585 40.9689 270.378 40.1029 270.543 39.2447C270.708 38.3865 271.226 37.6392 272.001 37.1392L276.198 34.4358C276.974 33.9358 277.914 33.7451 278.846 33.8972C279.777 34.0492 280.589 34.526 281.132 35.2398C282.251 36.714 281.859 38.7525 280.259 39.7834L276.061 42.4868C275.46 42.8734 274.757 43.077 274.038 43.077ZM278.224 35.9073C277.959 35.9073 277.701 35.9821 277.48 36.1238L273.283 38.8272C272.997 39.0102 272.807 39.286 272.745 39.603C272.684 39.92 272.762 40.2369 272.961 40.4998C273.372 41.041 274.186 41.175 274.777 40.7962L278.974 38.0928C279.565 37.7139 279.707 36.964 279.296 36.4202C279.097 36.1573 278.798 35.9821 278.454 35.9254C278.378 35.9125 278.3 35.9073 278.224 35.9073Z" fill="black"/>
<path d="M278.439 45.1257C277.561 45.1257 276.698 44.7511 276.157 44.0501L274.792 42.2785C274.622 42.0583 274.555 41.785 274.608 41.5218C274.658 41.2586 274.825 41.0232 275.068 40.8688L279.378 38.1305C279.882 37.8116 280.576 37.923 280.93 38.381L282.295 40.1526C283.173 41.294 282.866 42.8707 281.61 43.6679L280.03 44.6727C279.545 44.9789 278.991 45.1282 278.442 45.1282L278.439 45.1257ZM277.258 41.9444L277.985 42.8884C278.099 43.0352 278.255 43.0808 278.341 43.0934C278.425 43.1061 278.589 43.1137 278.751 43.0099L280.334 42.0052C280.495 41.9014 280.545 41.7597 280.559 41.6838C280.573 41.6078 280.581 41.4585 280.467 41.3092L279.74 40.3652L277.258 41.9419V41.9444Z" fill="black"/>
<path d="M164.251 107.692C164.132 107.692 164.013 107.672 163.897 107.628L159.421 105.951C158.855 105.74 158.558 105.074 158.753 104.464C158.947 103.853 159.564 103.532 160.13 103.742L162.968 104.805L162.638 101.819C162.595 101.428 162.738 101.036 163.02 100.785C163.301 100.531 163.68 100.449 164.032 100.563L169.208 102.272C169.779 102.462 170.101 103.114 169.928 103.73C169.755 104.347 169.149 104.694 168.578 104.507L164.987 103.321L165.325 106.383C165.369 106.784 165.22 107.181 164.93 107.432C164.735 107.602 164.495 107.689 164.251 107.689V107.692Z" fill="black"/>
<path d="M170.031 116.923C169.444 116.923 168.963 116.461 168.95 115.879C168.936 115.289 169.409 114.801 170.007 114.788L174.829 114.681L172.76 110.714C172.593 110.394 172.601 110.009 172.782 109.697C172.963 109.385 173.293 109.182 173.658 109.16L181.137 108.72C181.732 108.685 182.245 109.134 182.281 109.721C182.316 110.311 181.861 110.815 181.266 110.85L175.443 111.194L177.545 115.223C177.715 115.551 177.704 115.941 177.512 116.258C177.323 116.573 176.98 116.771 176.606 116.779L170.053 116.923C170.053 116.923 170.037 116.923 170.029 116.923H170.031Z" fill="black"/>
<path d="M284.217 170.928V155.968C284.278 152.048 283.822 148.138 282.864 144.342C282.104 141.316 280.762 138.475 278.914 135.981C277.225 133.739 274.988 131.983 272.423 130.893C267.104 128.823 261.243 128.681 255.834 130.496C253.346 131.401 251.019 132.716 248.951 134.389C246.489 136.379 244.202 138.583 242.118 140.978C241.634 141.528 241.139 142.103 240.641 142.693V130.633C236.57 131.487 233.477 131.473 233.477 131.473C227.95 131.72 223.28 131.379 219.335 130.601H214.078V144.237H223.484V170.933H214.078V184.57L232.456 184.591L240.641 184.613V184.602L249.219 184.613V170.933H240.641V155.782C242.301 153.744 244.13 151.854 246.111 150.141C247.752 148.708 249.597 147.529 251.583 146.648C253.298 145.905 255.141 145.515 257.004 145.504C258.453 145.483 259.893 145.754 261.238 146.302C262.434 146.812 263.509 147.577 264.396 148.541C265.262 149.505 265.934 150.635 266.366 151.865C266.829 153.167 267.059 154.542 267.043 155.927V170.936H258.474V184.572L276.028 184.594L284.217 184.615V184.605L292.026 184.615V170.936H284.217V170.928Z" fill="black"/>
</svg>
