<svg width="205" height="130" viewBox="0 0 205 130" fill="none" xmlns="http://www.w3.org/2000/svg">
<path d="M61.5937 58.5267C63.0868 58.5254 64.5719 58.7458 66.0013 59.1807C67.3978 59.5997 68.7124 60.2581 69.8873 61.127C71.0754 61.9892 72.036 63.1316 72.6853 64.4543C73.3345 65.777 73.6527 67.2399 73.612 68.7151C73.6427 70.2698 73.3043 71.8093 72.625 73.2054C71.9665 74.5197 71.0412 75.6796 69.9091 76.6099C68.7535 77.5676 67.4375 78.3094 66.023 78.8003C64.5564 79.3105 63.0149 79.5675 61.4634 79.5606C59.7521 79.593 58.0481 79.3283 56.4258 78.7783C55.1121 78.3471 53.9345 77.5743 53.0115 76.5379C52.1928 75.583 51.7509 74.3579 51.77 73.0959C51.7211 71.8334 52.1569 70.6006 52.9867 69.6538C53.8534 68.7156 54.9446 68.0174 56.1557 67.6262C57.5008 67.1657 58.9131 66.9361 60.3336 66.9472C61.8837 66.9137 63.4295 67.1248 64.9149 67.573C66.2359 68.0086 67.5216 68.5463 68.7606 69.1813V72.7736C67.4991 72.1509 66.1625 71.6965 64.7845 71.4218C63.8737 71.2657 62.9522 71.1809 62.0283 71.1683C61.3463 71.1769 60.6679 71.2683 60.0077 71.4406C59.5542 71.5517 59.1364 71.7779 58.794 72.0977C58.6633 72.2231 58.5592 72.3741 58.4882 72.5414C58.4172 72.7087 58.3808 72.8889 58.3812 73.0708C58.3859 73.3006 58.4533 73.5247 58.5759 73.7184C58.6986 73.9121 58.8717 74.0681 59.0765 74.1692C59.648 74.4769 60.2916 74.6229 60.9388 74.5916C61.7397 74.5932 62.5345 74.4501 63.2854 74.1692C64.0263 73.8934 64.7158 73.4935 65.3246 72.9863C65.9193 72.4944 66.4137 71.8908 66.7803 71.209C67.146 70.5204 67.3329 69.7496 67.3235 68.9686C67.3552 67.9759 67.0738 66.9986 66.5196 66.1774C65.9726 65.4091 65.2186 64.8151 64.3469 64.4658C63.3883 64.0772 62.363 63.8836 61.3299 63.8963C59.8784 63.8753 58.4355 64.1257 57.0745 64.6347C55.8855 65.0821 54.7604 65.686 53.7285 66.4308L51.0405 62.2535C51.9369 61.5 52.9121 60.8474 53.9489 60.3072C55.065 59.7276 56.2469 59.2874 57.4687 58.9961C58.8204 58.6756 60.2051 58.5181 61.5937 58.5267Z" fill="black"/>
<path d="M38.1035 58.5267C39.5976 58.5254 41.0837 58.7458 42.5141 59.1807C43.9105 59.6004 45.2249 60.2587 46.4002 61.127C47.5877 61.9898 48.5478 63.1322 49.197 64.4548C49.8462 65.7774 50.1648 67.24 50.1249 68.7151C50.1546 70.27 49.8152 71.8096 49.1347 73.2054C48.4784 74.5202 47.5539 75.6803 46.4219 76.6098C45.266 77.567 43.95 78.3087 42.5359 78.8002C41.0692 79.3102 39.5277 79.5673 37.9762 79.5606C36.2649 79.5935 34.5608 79.3289 32.9387 78.7783C31.6246 78.3478 30.4468 77.5749 29.5244 76.5379C28.7047 75.5835 28.2626 74.3581 28.2828 73.0958C28.234 71.8334 28.6698 70.6006 29.4995 69.6538C30.3669 68.7163 31.4579 68.0183 32.6686 67.6261C34.0137 67.1657 35.4259 66.9362 36.8464 66.9471C38.3966 66.9136 39.9424 67.1248 41.4278 67.5729C42.7469 68.0082 44.0306 68.5459 45.2673 69.1813V72.7735C44.0066 72.1514 42.6711 71.697 41.2943 71.4218C40.3824 71.2657 39.4598 71.181 38.5349 71.1683C37.854 71.1769 37.1766 71.2683 36.5174 71.4405C36.063 71.5517 35.6443 71.7779 35.3007 72.0977C35.1705 72.2235 35.0668 72.3746 34.9959 72.5418C34.925 72.709 34.8882 72.8889 34.8879 73.0708C34.8926 73.3006 34.9599 73.5246 35.0826 73.7184C35.2052 73.9121 35.3784 74.0681 35.5831 74.1691C36.1548 74.4766 36.7983 74.6225 37.4455 74.5916C38.2465 74.5938 39.0413 74.4507 39.792 74.1691C40.5408 73.8961 41.2378 73.4961 41.853 72.9863C42.4475 72.495 42.9409 71.8912 43.3056 71.209C43.6713 70.5203 43.8582 69.7496 43.8488 68.9685C43.8801 67.9763 43.5999 66.9995 43.048 66.1774C42.501 65.4091 41.747 64.8151 40.8753 64.4657C39.9166 64.0777 38.8913 63.8842 37.8583 63.8962C36.4058 63.8759 34.9621 64.1263 33.5998 64.6347C32.412 65.0828 31.2881 65.6867 30.2569 66.4308L27.5503 62.2534C28.4477 61.5 29.424 60.8473 30.4617 60.3071C31.5765 59.7271 32.7575 59.2868 33.9784 58.996C35.3303 58.676 36.7149 58.5184 38.1035 58.5267Z" fill="black"/>
<path d="M74.3447 64.5658V59.5342H82.6631V64.5658H74.3447ZM74.3447 79.4479V74.4163H87.4028V79.4635L74.3447 79.4479ZM77.8397 79.4479V59.5342H84.2151V79.4635L77.8397 79.4479ZM94.0265 79.4479V68.8777C94.0322 68.367 93.9471 67.8593 93.7751 67.3789C93.6138 66.9252 93.3648 66.5083 93.0425 66.1523C92.7137 65.7964 92.3139 65.5149 91.8693 65.3262C91.3692 65.1239 90.8343 65.0239 90.2956 65.032C89.603 65.0367 88.9182 65.1803 88.2812 65.4545C87.5435 65.7796 86.8582 66.2141 86.2481 66.7437C85.4944 67.3914 84.7995 68.1055 84.1716 68.8777C83.4743 69.7267 82.7501 70.7135 81.9989 71.8379V66.8062C82.9777 65.4837 83.8995 64.3363 84.7645 63.3642C85.5387 62.4806 86.3883 61.667 87.3034 60.9329C88.0719 60.3157 88.936 59.8304 89.861 59.4966C91.8712 58.8278 94.0489 58.8797 96.0254 59.6437C96.9782 60.0464 97.8097 60.6937 98.4371 61.5212C99.1239 62.4417 99.6229 63.4903 99.9052 64.6065C100.262 66.0075 100.431 67.4503 100.408 68.8965V79.4635L94.0265 79.4479ZM90.8419 79.4479V74.4163H103.31V79.4635L90.8419 79.4479Z" fill="black"/>
<path d="M124.196 79.4857V74.4573H137.602V79.4889L124.196 79.4857ZM130.839 62.0878C129.928 62.1069 129.043 61.7846 128.355 61.1835C128.025 60.9094 127.759 60.5637 127.579 60.172C127.399 59.7803 127.309 59.3528 127.316 58.9212C127.304 58.4738 127.391 58.0294 127.571 57.6203C127.751 57.2111 128.019 56.8474 128.355 56.5556C129.036 55.9372 129.923 55.6017 130.839 55.6168C131.795 55.5778 132.73 55.9143 133.446 56.5556C133.773 56.8533 134.031 57.2191 134.204 57.6275C134.376 58.036 134.459 58.4774 134.445 58.9212C134.454 59.3491 134.369 59.7737 134.196 60.1648C134.023 60.5558 133.767 60.9036 133.446 61.1835C132.722 61.807 131.79 62.1302 130.839 62.0878ZM127.688 79.4857V64.0873H134.064V79.4857H127.688Z" fill="black"/>
<path d="M139.284 64.6035V59.5719H147.044V64.6035H139.284ZM139.284 79.4856V74.4571H152.352V79.4887L139.284 79.4856ZM142.779 77.7959V59.5719H149.155V77.7959H142.779ZM157.92 77.7959V68.662C157.926 68.0518 157.805 67.4471 157.563 66.8878C157.331 66.3607 156.961 65.9074 156.492 65.5767C155.973 65.2255 155.357 65.0482 154.732 65.0697C153.807 65.087 152.902 65.3492 152.109 65.8301C151.114 66.4361 150.228 67.2086 149.49 68.1144C148.518 69.279 147.661 70.5366 146.932 71.8693V66.844C147.684 65.3094 148.643 63.8868 149.782 62.6165C150.76 61.525 151.935 60.6291 153.242 59.9755C154.45 59.3773 155.777 59.0658 157.122 59.065C158.155 59.0525 159.178 59.266 160.121 59.6908C161.013 60.1097 161.79 60.7412 162.386 61.5307C163.052 62.4273 163.536 63.4469 163.811 64.5315C164.152 65.8851 164.314 67.2782 164.292 68.6745V77.8084L157.92 77.7959ZM154.732 79.4856V74.4571H167.396V79.4887L154.732 79.4856ZM172.933 77.7959V68.662C172.937 68.2044 172.873 67.7489 172.744 67.3102C172.621 66.8957 172.422 66.5082 172.157 66.1681C171.891 65.8301 171.554 65.5555 171.17 65.3639C170.752 65.1627 170.293 65.062 169.83 65.0697C168.899 65.0878 167.988 65.3498 167.188 65.8301C166.186 66.4279 165.298 67.2015 164.565 68.1144C163.606 69.2838 162.757 70.5409 162.029 71.8693V66.844C162.782 65.3086 163.742 63.8858 164.882 62.6165C165.855 61.5279 167.021 60.6322 168.321 59.9755C169.52 59.3755 170.841 59.0638 172.179 59.065C173.197 59.0549 174.206 59.2684 175.134 59.6908C176.026 60.1097 176.804 60.7412 177.4 61.5307C178.066 62.4266 178.55 63.4464 178.825 64.5315C179.168 65.8847 179.331 67.278 179.309 68.6745V77.8084L172.933 77.7959ZM169.83 79.4856V74.4571H182.214V79.4887L169.83 79.4856Z" fill="black"/>
<path d="M194.108 79.7764C192.635 79.7784 191.17 79.5569 189.763 79.1193C188.385 78.7001 187.09 78.0425 185.936 77.1761C184.759 76.3063 183.81 75.1611 183.169 73.8392C182.529 72.5174 182.217 71.0584 182.261 69.588C182.235 68.0365 182.571 66.5007 183.242 65.104C183.886 63.7941 184.797 62.6353 185.914 61.7026C187.05 60.7476 188.346 60.0057 189.741 59.5122C191.184 59.0021 192.703 58.7449 194.233 58.7518C195.92 58.72 197.601 58.9836 199.199 59.531C200.494 59.9666 201.652 60.7408 202.554 61.7746C203.363 62.734 203.796 63.9578 203.774 65.2166C203.819 66.4694 203.39 67.6927 202.576 68.6399C201.727 69.5777 200.651 70.2775 199.453 70.6707C198.133 71.1275 196.746 71.356 195.35 71.3465C193.822 71.3798 192.299 71.1686 190.837 70.7207C189.537 70.2844 188.272 69.7477 187.053 69.1155V65.5326C188.293 66.1566 189.609 66.6122 190.967 66.8876C191.865 67.0436 192.773 67.1284 193.683 67.141C194.354 67.1316 195.021 67.0391 195.67 66.8657C196.119 66.7562 196.531 66.5308 196.868 66.2117C196.996 66.0848 197.098 65.9334 197.168 65.7664C197.238 65.5993 197.274 65.4198 197.274 65.2385C197.27 65.0097 197.205 64.7864 197.084 64.5927C196.963 64.3991 196.791 64.2426 196.588 64.1402C196.026 63.8312 195.39 63.6839 194.751 63.7146C193.962 63.7144 193.179 63.8586 192.442 64.1402C191.71 64.4162 191.031 64.8163 190.433 65.323C189.846 65.8152 189.359 66.4178 188.999 67.0972C188.609 67.8872 188.427 68.7656 188.472 69.6472C188.517 70.5287 188.788 71.3836 189.257 72.1288C189.791 72.8959 190.534 73.4904 191.396 73.8405C192.337 74.231 193.348 74.4257 194.366 74.4131C195.796 74.4327 197.218 74.1811 198.556 73.6715C199.729 73.2241 200.836 72.62 201.849 71.8754L204.5 76.0621C203.618 76.8125 202.657 77.4641 201.635 78.0053C200.539 78.5861 199.376 79.0265 198.171 79.3164C196.84 79.6337 195.476 79.7882 194.108 79.7764Z" fill="black"/>
<path d="M101.687 64.5191V59.4875H122.576V64.5191H101.687ZM115.344 79.9926C113.806 80.0377 112.286 79.6428 110.961 78.8536C109.748 78.0949 108.785 76.9908 108.193 75.6807C107.543 74.2043 107.225 72.6016 107.262 70.987V53.949H113.637V70.5333C113.632 71.1256 113.738 71.7136 113.947 72.2668C114.129 72.7546 114.454 73.1748 114.879 73.4715C115.365 73.7868 115.937 73.942 116.514 73.9159C117.199 73.9178 117.882 73.8613 118.557 73.7469C119.322 73.5295 120.074 73.2641 120.807 72.9521L122.607 78.0964C121.577 78.6923 120.485 79.1719 119.351 79.5264C118.043 79.8565 116.698 80.0133 115.35 79.9926H115.344Z" fill="black"/>
<path d="M0.5 55.0316V50H9.72784V55.0316H0.5ZM3.8553 79.0038V50H10.1034V79.0038H3.8553ZM16.6154 58.7834C18.3846 58.6395 20.9794 59.2747 22.3482 60.1477C23.7428 61.044 24.8905 62.2807 25.6849 63.7431C26.5525 65.3448 26.9901 67.1472 26.9544 68.9718C26.9656 70.352 26.7017 71.7204 26.1784 72.9959C25.6735 74.2145 24.9231 75.3141 23.9747 76.2251C23.0036 77.1508 21.8643 77.8786 20.6194 78.3686C19.2592 78.901 17.8106 79.1665 16.3515 79.1509C14.8738 79.1916 13.4099 78.8547 12.0961 78.1714C10.9663 77.5636 9.94549 76.7693 9.07604 75.8215C8.24833 74.9099 7.54271 74.0859 6.95918 73.3495L7.08954 68.3679C7.71032 69.1283 8.90842 70.3017 9.65335 71.1466C10.4945 72.0853 10.5473 72.5046 11.8447 73.2462C12.7227 73.7351 13.7129 73.9822 14.7158 73.9628C15.5067 73.9748 16.294 73.851 17.0437 73.5967C17.694 73.3703 18.2932 73.0162 18.8067 72.5547C19.2927 72.1075 19.6725 71.5556 19.9179 70.9401C20.1733 70.2899 20.3008 69.5959 20.2935 68.8967C20.3107 68.0283 20.1168 67.1689 19.7286 66.3934C19.3601 65.669 18.7922 65.067 18.0928 64.6599C17.3179 64.2245 16.4406 64.0082 15.5538 64.0341C14.4675 64.0018 13.4029 64.3452 12.5369 65.0072C11.4319 65.8114 10.7925 66.9035 9.79923 68.3491C8.80598 69.7948 7.48994 71.7411 6.87537 73.6686V69.2159C7.51788 67.0944 7.30681 65.6393 8.48318 64.0873C9.65955 62.5352 10.4076 61.1209 12.2761 60.0507C13.6094 59.3042 15.0927 58.871 16.6154 58.7834Z" fill="black"/>
</svg>
