<svg width="750" height="120" viewBox="0 0 750 120" fill="none" xmlns="http://www.w3.org/2000/svg">
<g clip-path="url(#clip0_1299_11228)">
<path d="M265.117 42.7439C269.128 42.7404 273.117 43.3282 276.957 44.4882C280.709 45.606 284.24 47.3622 287.396 49.6797C290.588 51.9796 293.168 55.0266 294.912 58.5547C296.656 62.0828 297.511 65.9847 297.402 69.9197C297.484 74.0665 296.575 78.173 294.75 81.8967C292.981 85.4023 290.496 88.4962 287.454 90.9776C284.35 93.5322 280.815 95.5108 277.015 96.82C273.075 98.181 268.934 98.8666 264.767 98.8482C260.17 98.9344 255.592 98.2286 251.234 96.7616C247.705 95.6112 244.542 93.55 242.062 90.7856C239.863 88.2385 238.676 84.9709 238.727 81.6046C238.596 78.2373 239.767 74.949 241.996 72.4236C244.324 69.9209 247.255 68.0586 250.509 67.0151C254.122 65.7868 257.916 65.1746 261.732 65.2039C265.896 65.1146 270.048 65.6778 274.039 66.8732C277.587 68.0352 281.041 69.4695 284.369 71.1633V80.7449C280.98 79.084 277.39 77.872 273.688 77.1393C271.241 76.7228 268.766 76.4968 266.284 76.4632C264.452 76.4862 262.63 76.73 260.856 77.1893C259.638 77.4859 258.516 78.0892 257.596 78.9421C257.245 79.2766 256.965 79.6794 256.774 80.1256C256.584 80.5719 256.486 81.0524 256.487 81.5378C256.5 82.1507 256.681 82.7483 257.01 83.2651C257.339 83.7818 257.805 84.1978 258.355 84.4674C259.89 85.2883 261.619 85.6776 263.358 85.5941C265.509 85.5985 267.644 85.2169 269.661 84.4674C271.652 83.732 273.504 82.6653 275.139 81.3124C276.737 80.0002 278.065 78.3903 279.05 76.5717C280.032 74.7349 280.534 72.6791 280.509 70.5957C280.594 67.9479 279.838 65.3412 278.349 63.1507C276.88 61.1015 274.854 59.517 272.513 58.5853C269.938 57.5487 267.183 57.0325 264.408 57.0662C260.509 57.0104 256.633 57.6782 252.977 59.036C249.783 60.2292 246.76 61.8401 243.988 63.8268L236.768 52.6844C239.175 50.6747 241.795 48.9339 244.58 47.493C247.578 45.9471 250.754 44.7728 254.036 43.9958C257.667 43.1411 261.387 42.7209 265.117 42.7439Z" fill="black"/>
<path d="M202.015 42.7439C206.029 42.7406 210.021 43.3284 213.864 44.4883C217.615 45.6078 221.146 47.3638 224.303 49.6797C227.493 51.9811 230.072 55.0284 231.816 58.5562C233.56 62.0839 234.416 65.9851 234.309 69.9197C234.389 74.0672 233.477 78.1737 231.649 81.8967C229.886 85.4037 227.402 88.4982 224.361 90.9776C221.256 93.5306 217.721 95.509 213.922 96.82C209.982 98.1804 205.841 98.866 201.673 98.8482C197.076 98.936 192.499 98.2301 188.141 96.7616C184.611 95.6134 181.447 93.5518 178.969 90.7856C176.767 88.2401 175.58 84.9714 175.634 81.6046C175.503 78.2373 176.673 74.949 178.902 72.4236C181.232 69.923 184.163 68.061 187.415 67.0151C191.029 65.7871 194.823 65.1749 198.638 65.204C202.803 65.1146 206.955 65.6779 210.945 66.8733C214.489 68.0342 217.937 69.4686 221.259 71.1633V80.7449C217.873 79.0855 214.285 77.8735 210.587 77.1393C208.137 76.7232 205.659 76.4971 203.174 76.4632C201.345 76.4861 199.525 76.7299 197.755 77.1894C196.534 77.486 195.409 78.0892 194.486 78.9421C194.136 79.2779 193.858 79.6808 193.667 80.1268C193.477 80.5728 193.378 81.0527 193.377 81.5378C193.39 82.1507 193.571 82.7483 193.9 83.2651C194.23 83.7818 194.695 84.1978 195.245 84.4674C196.78 85.2875 198.509 85.6768 200.248 85.5942C202.399 85.6001 204.535 85.2185 206.551 84.4674C208.563 83.7391 210.435 82.6721 212.088 81.3125C213.685 80.0019 215.01 78.3915 215.99 76.5717C216.972 74.7349 217.474 72.6791 217.449 70.5958C217.533 67.9492 216.78 65.3437 215.298 63.1507C213.828 61.1015 211.803 59.517 209.461 58.5853C206.886 57.5503 204.132 57.034 201.357 57.0663C197.455 57.0121 193.576 57.6798 189.917 59.036C186.726 60.2311 183.707 61.8419 180.937 63.8268L173.666 52.6844C176.077 50.6746 178.699 48.9339 181.487 47.493C184.482 45.9459 187.654 44.7715 190.934 43.9959C194.566 43.1421 198.285 42.7218 202.015 42.7439Z" fill="black"/>
<path d="M299.369 58.8524V45.4314H321.715V58.8524H299.369ZM299.369 98.5477V85.1268H334.447V98.5895L299.369 98.5477ZM308.758 98.5477V45.4314H325.884V98.5895L308.758 98.5477ZM352.241 98.5477V70.3537C352.256 68.9913 352.027 67.6373 351.565 66.3558C351.132 65.1456 350.463 64.0335 349.597 63.084C348.714 62.1349 347.64 61.3839 346.446 60.8806C345.102 60.3411 343.665 60.0744 342.218 60.096C340.358 60.1085 338.518 60.4915 336.807 61.2227C334.825 62.0899 332.984 63.2489 331.345 64.6614C329.321 66.3891 327.454 68.294 325.767 70.3537C323.894 72.6183 321.949 75.2502 319.931 78.2494V64.8284C322.56 61.3006 325.036 58.2403 327.36 55.6474C329.44 53.2904 331.722 51.1204 334.18 49.1623C336.245 47.516 338.566 46.2216 341.051 45.3313C346.451 43.5473 352.301 43.6858 357.61 45.7235C360.17 46.7976 362.403 48.5242 364.089 50.7313C365.934 53.1866 367.274 55.9838 368.033 58.9609C368.99 62.6979 369.445 66.5462 369.384 70.4037V98.5895L352.241 98.5477ZM343.686 98.5477V85.1268H377.18V98.5895L343.686 98.5477Z" fill="black"/>
<path d="M433.287 98.6479V85.2353H469.299V98.6562L433.287 98.6479ZM451.13 52.242C448.685 52.2928 446.308 51.4333 444.46 49.83C443.571 49.0988 442.859 48.1766 442.375 47.1319C441.892 46.0872 441.649 44.9468 441.667 43.7955C441.636 42.6022 441.87 41.4169 442.353 40.3256C442.836 39.2342 443.556 38.2641 444.46 37.4856C446.287 35.8362 448.671 34.9415 451.13 34.9817C453.701 34.8776 456.211 35.7751 458.134 37.4856C459.012 38.2798 459.707 39.2555 460.17 40.345C460.634 41.4345 460.855 42.6118 460.819 43.7955C460.842 44.937 460.613 46.0696 460.149 47.1125C459.685 48.1555 458.997 49.0833 458.134 49.83C456.189 51.493 453.686 52.3551 451.13 52.242ZM442.667 98.6479V57.5754H459.794V98.6479H442.667Z" fill="black"/>
<path d="M473.818 58.9525V45.5316H494.663V58.9525H473.818ZM473.818 98.6479V85.2353H508.921V98.6562L473.818 98.6479ZM483.207 94.1408V45.5316H500.333V94.1408H483.207ZM523.88 94.1408V69.7778C523.898 68.1502 523.571 66.5374 522.921 65.0454C522.298 63.6395 521.303 62.4303 520.044 61.5483C518.649 60.6117 516.995 60.1386 515.317 60.1961C512.831 60.242 510.401 60.9415 508.271 62.2243C505.597 63.8406 503.217 65.901 501.234 68.3171C498.623 71.4235 496.322 74.778 494.363 78.3328V64.9285C496.384 60.8352 498.96 57.0408 502.018 53.6526C504.647 50.7413 507.801 48.3515 511.314 46.6082C514.558 45.0126 518.123 44.1818 521.737 44.1794C524.511 44.1462 527.259 44.7157 529.792 45.8487C532.188 46.966 534.277 48.6504 535.878 50.7564C537.665 53.1479 538.965 55.8675 539.705 58.7606C540.621 62.3711 541.055 66.0867 540.998 69.8112V94.1742L523.88 94.1408ZM515.317 98.6479V85.2353H549.336V98.6562L515.317 98.6479ZM564.211 94.1408V69.7778C564.22 68.5573 564.049 67.3422 563.702 66.1721C563.373 65.0666 562.838 64.0331 562.126 63.1257C561.411 62.2243 560.506 61.4918 559.475 60.9807C558.351 60.444 557.118 60.1754 555.873 60.1961C553.372 60.2442 550.926 60.9431 548.777 62.2243C546.085 63.8189 543.699 65.8823 541.732 68.3171C539.155 71.4365 536.874 74.7895 534.919 78.3328V64.9285C536.94 60.8331 539.519 57.0383 542.582 53.6526C545.196 50.7489 548.33 48.3597 551.821 46.6082C555.041 45.0077 558.589 44.1764 562.185 44.1794C564.92 44.1525 567.629 44.7221 570.123 45.8487C572.519 46.966 574.608 48.6504 576.209 50.7564C577.999 53.146 579.3 55.8662 580.036 58.7606C580.959 62.3699 581.396 66.0861 581.337 69.8112V94.1742L564.211 94.1408ZM555.873 98.6479V85.2353H589.142V98.6562L555.873 98.6479Z" fill="black"/>
<path d="M621.093 99.4241C617.136 99.4295 613.201 98.8386 609.42 97.6714C605.718 96.5532 602.24 94.7994 599.139 92.4883C595.978 90.1682 593.427 87.1137 591.708 83.5878C589.988 80.0619 589.15 76.1703 589.267 72.2483C589.198 68.1101 590.101 64.0136 591.901 60.2879C593.634 56.7941 596.079 53.7032 599.08 51.2154C602.131 48.6682 605.613 46.6893 609.361 45.373C613.238 44.0123 617.318 43.3263 621.426 43.3448C625.96 43.2598 630.474 43.9629 634.767 45.4231C638.247 46.5849 641.358 48.6499 643.781 51.4074C645.953 53.9666 647.118 57.2309 647.057 60.5884C647.178 63.9301 646.027 67.193 643.839 69.7193C641.558 72.221 638.668 74.0875 635.451 75.1362C631.904 76.3548 628.178 76.9643 624.428 76.939C620.324 77.0276 616.232 76.4642 612.305 75.2697C608.812 74.1057 605.414 72.6743 602.141 70.988V61.4314C605.47 63.0956 609.006 64.3109 612.655 65.0454C615.065 65.4617 617.505 65.6877 619.951 65.7214C621.753 65.6964 623.545 65.4497 625.287 64.987C626.493 64.695 627.602 64.0939 628.505 63.2426C628.851 62.9043 629.125 62.5005 629.312 62.0548C629.5 61.6091 629.597 61.1304 629.598 60.6468C629.587 60.0366 629.41 59.4408 629.085 58.9243C628.76 58.4078 628.3 57.9903 627.755 57.7173C626.245 56.893 624.537 56.5003 622.819 56.5822C620.699 56.5816 618.597 56.9662 616.615 57.7173C614.651 58.4536 612.826 59.5206 611.221 60.8722C609.642 62.1851 608.334 63.7923 607.368 65.6046C606.319 67.7117 605.831 70.0547 605.952 72.4061C606.073 74.7576 606.8 77.0378 608.06 79.0256C609.494 81.0715 611.49 82.6574 613.805 83.5911C616.335 84.6327 619.049 85.1521 621.785 85.1184C625.628 85.1707 629.446 84.4997 633.041 83.1403C636.191 81.947 639.166 80.3356 641.888 78.3495L649.009 89.517C646.638 91.5184 644.058 93.2564 641.313 94.7001C638.368 96.2492 635.242 97.424 632.007 98.1972C628.432 99.0436 624.767 99.4555 621.093 99.4241Z" fill="black"/>
<path d="M372.82 58.7272V45.3062H428.935V58.7272H372.82ZM409.508 100C405.375 100.12 401.294 99.0668 397.734 96.9619C394.475 94.9381 391.887 91.9931 390.297 88.4987C388.553 84.5607 387.698 80.2857 387.795 75.9791V30.5331H404.922V74.7689C404.909 76.3488 405.192 77.9171 405.756 79.3928C406.243 80.6938 407.116 81.8148 408.257 82.6061C409.564 83.447 411.099 83.8611 412.651 83.7914C414.489 83.7966 416.325 83.6458 418.137 83.3406C420.195 82.7609 422.214 82.0528 424.183 81.2207L429.019 94.9421C426.252 96.5317 423.319 97.8109 420.272 98.7564C416.759 99.637 413.146 100.055 409.524 100H409.508Z" fill="black"/>
<path d="M101 33.421V20H125.789V33.421H101ZM110.013 97.3626V20H126.798V97.3626H110.013ZM144.291 43.4283C149.044 43.0443 156.014 44.7387 159.691 47.0673C163.438 49.458 166.521 52.7565 168.655 56.6573C170.985 60.9297 172.161 65.7372 172.065 70.6041C172.095 74.2855 171.386 77.9355 169.98 81.3375C168.624 84.588 166.608 87.5211 164.06 89.951C161.452 92.42 158.391 94.3613 155.047 95.6682C151.393 97.0885 147.502 97.7967 143.582 97.7548C139.613 97.8636 135.68 96.9649 132.151 95.1424C129.116 93.5212 126.374 91.4025 124.038 88.8743C121.814 86.4427 119.919 84.2449 118.351 82.2807L118.702 68.9932C120.369 71.0214 123.588 74.1513 125.589 76.4048C127.848 78.9087 127.99 80.0271 131.475 82.0052C133.834 83.3092 136.494 83.9684 139.188 83.9165C141.313 83.9487 143.428 83.6185 145.442 82.94C147.188 82.3363 148.798 81.3916 150.178 80.1607C151.483 78.9678 152.504 77.4958 153.163 75.854C153.849 74.1199 154.191 72.2688 154.172 70.4038C154.218 68.0874 153.697 65.795 152.654 63.7267C151.664 61.7942 150.139 60.1887 148.26 59.1028C146.178 57.9413 143.822 57.3646 141.439 57.4335C138.521 57.3475 135.661 58.2634 133.335 60.0292C130.367 62.1742 128.649 65.0871 125.981 68.9431C123.313 72.7992 119.777 77.9906 118.126 83.132V71.2551C119.852 65.5963 119.285 61.7152 122.445 57.5754C125.605 53.4356 127.615 49.663 132.634 46.8086C136.216 44.8174 140.201 43.6619 144.291 43.4283Z" fill="black"/>
</g>
<defs>
<clipPath id="clip0_1299_11228">
<rect width="548" height="80" fill="white" transform="translate(101 20)"/>
</clipPath>
</defs>
</svg>
