<svg width="1440" height="191" viewBox="0 0 1440 191" fill="none" xmlns="http://www.w3.org/2000/svg">
<rect width="1440" height="191" fill="#F9FAFA"/>
<g clip-path="url(#clip0_1378_13860)">
<path d="M696.739 64.833C697.588 64.8322 698.433 64.9571 699.246 65.2036C700.04 65.4412 700.787 65.8143 701.455 66.3068C702.131 66.7955 702.677 67.443 703.046 68.1928C703.415 68.9425 703.596 69.7716 703.573 70.6078C703.591 71.489 703.398 72.3616 703.012 73.1529C702.638 73.8979 702.111 74.5553 701.468 75.0826C700.811 75.6255 700.062 76.0459 699.258 76.3241C698.424 76.6133 697.547 76.759 696.665 76.7551C695.692 76.7734 694.723 76.6235 693.801 76.3117C693.054 76.0673 692.384 75.6292 691.859 75.0418C691.394 74.5006 691.142 73.8062 691.153 73.0909C691.125 72.3753 691.373 71.6765 691.845 71.1399C692.338 70.6081 692.958 70.2123 693.647 69.9906C694.412 69.7296 695.215 69.5995 696.023 69.6057C696.904 69.5867 697.783 69.7064 698.628 69.9604C699.379 70.2074 700.11 70.5122 700.815 70.8721V72.9082C700.097 72.5552 699.337 72.2977 698.554 72.142C698.036 72.0535 697.512 72.0054 696.986 71.9983C696.599 72.0032 696.213 72.055 695.837 72.1526C695.579 72.2156 695.342 72.3438 695.147 72.5251C695.073 72.5962 695.014 72.6817 694.973 72.7766C694.933 72.8714 694.912 72.9735 694.912 73.0767C694.915 73.2069 694.953 73.3339 695.023 73.4437C695.093 73.5535 695.191 73.6419 695.308 73.6992C695.633 73.8736 695.999 73.9564 696.367 73.9386C696.822 73.9396 697.274 73.8585 697.701 73.6992C698.122 73.5429 698.515 73.3163 698.861 73.0288C699.199 72.7499 699.48 72.4078 699.689 72.0214C699.896 71.631 700.003 71.1942 699.997 70.7515C700.015 70.1888 699.855 69.6349 699.54 69.1694C699.229 68.7339 698.8 68.3972 698.305 68.1993C697.76 67.979 697.177 67.8693 696.589 67.8765C695.764 67.8646 694.943 68.0065 694.169 68.295C693.493 68.5486 692.854 68.8909 692.267 69.3131L690.738 66.9453C691.248 66.5182 691.803 66.1483 692.392 65.8421C693.027 65.5136 693.699 65.2641 694.394 65.099C695.162 64.9174 695.95 64.8281 696.739 64.833Z" fill="#A9AFB6"/>
<path d="M683.382 64.8332C684.231 64.8325 685.076 64.9574 685.89 65.2039C686.684 65.4418 687.431 65.8149 688.1 66.307C688.775 66.7961 689.321 67.4436 689.69 68.1933C690.059 68.9429 690.24 69.7719 690.218 70.608C690.235 71.4894 690.041 72.362 689.655 73.1532C689.281 73.8984 688.756 74.556 688.112 75.0828C687.455 75.6253 686.706 76.0458 685.902 76.3244C685.068 76.6134 684.192 76.7591 683.309 76.7554C682.336 76.774 681.367 76.624 680.445 76.3119C679.698 76.0679 679.028 75.6299 678.503 75.0421C678.037 74.5011 677.786 73.8065 677.797 73.0911C677.77 72.3755 678.017 71.6768 678.489 71.1401C678.982 70.6087 679.603 70.2131 680.291 69.9908C681.056 69.7299 681.859 69.5998 682.667 69.6059C683.548 69.587 684.427 69.7066 685.272 69.9607C686.022 70.2074 686.752 70.5122 687.455 70.8723V72.9084C686.739 72.5558 685.979 72.2982 685.196 72.1422C684.678 72.0538 684.153 72.0057 683.627 71.9985C683.24 72.0034 682.855 72.0552 682.48 72.1528C682.222 72.2159 681.983 72.3441 681.788 72.5253C681.714 72.5967 681.655 72.6823 681.615 72.777C681.574 72.8718 681.553 72.9738 681.553 73.0769C681.556 73.2071 681.594 73.3341 681.664 73.4439C681.734 73.5537 681.832 73.6421 681.949 73.6994C682.274 73.8737 682.64 73.9564 683.008 73.9389C683.463 73.9401 683.915 73.859 684.342 73.6994C684.768 73.5447 685.164 73.3179 685.514 73.029C685.852 72.7505 686.133 72.4083 686.34 72.0216C686.548 71.6313 686.654 71.1944 686.649 70.7517C686.667 70.1893 686.507 69.6356 686.193 69.1696C685.882 68.7342 685.454 68.3975 684.958 68.1995C684.413 67.9795 683.83 67.8698 683.242 67.8767C682.416 67.8652 681.595 68.0071 680.821 68.2953C680.145 68.5492 679.506 68.8915 678.92 69.3133L677.381 66.9455C677.891 66.5185 678.446 66.1486 679.036 65.8424C679.67 65.5136 680.342 65.264 681.036 65.0992C681.805 64.9178 682.592 64.8285 683.382 64.8332Z" fill="#A9AFB6"/>
<path d="M703.99 68.2562V65.4043H708.72V68.2562H703.99ZM703.99 76.6915V73.8395H711.416V76.7004L703.99 76.6915ZM705.978 76.6915V65.4043H709.603V76.7004L705.978 76.6915ZM715.182 76.6915V70.7002C715.185 70.4107 715.137 70.123 715.039 69.8507C714.947 69.5935 714.806 69.3572 714.622 69.1554C714.436 68.9538 714.208 68.7942 713.955 68.6872C713.671 68.5726 713.367 68.5159 713.06 68.5205C712.667 68.5232 712.277 68.6045 711.915 68.7599C711.496 68.9442 711.106 69.1905 710.759 69.4906C710.33 69.8578 709.935 70.2626 709.578 70.7002C709.182 71.1815 708.77 71.7408 708.343 72.3781V69.5261C708.899 68.7765 709.423 68.1262 709.915 67.5752C710.356 67.0743 710.839 66.6132 711.359 66.1971C711.796 65.8472 712.287 65.5722 712.813 65.383C713.956 65.0039 715.195 65.0333 716.319 65.4663C716.86 65.6946 717.333 66.0615 717.69 66.5305C718.081 67.0523 718.364 67.6466 718.525 68.2793C718.728 69.0734 718.824 69.8912 718.811 70.7109V76.7004L715.182 76.6915ZM713.371 76.6915V73.8395H720.461V76.7004L713.371 76.6915Z" fill="#A9AFB6"/>
<path d="M732.338 76.7127V73.8625H739.961V76.7145L732.338 76.7127ZM736.115 66.8514C735.597 66.8622 735.094 66.6796 734.703 66.3389C734.515 66.1835 734.364 65.9875 734.262 65.7655C734.159 65.5435 734.108 65.3012 734.112 65.0565C734.105 64.803 734.155 64.5511 734.257 64.3192C734.359 64.0873 734.512 63.8811 734.703 63.7157C735.09 63.3652 735.594 63.1751 736.115 63.1836C736.659 63.1615 737.19 63.3522 737.598 63.7157C737.783 63.8845 737.93 64.0918 738.028 64.3233C738.127 64.5548 738.173 64.805 738.166 65.0565C738.171 65.2991 738.122 65.5398 738.024 65.7614C737.926 65.983 737.78 66.1802 737.598 66.3389C737.186 66.6923 736.656 66.8755 736.115 66.8514ZM734.323 76.7127V67.9848H737.949V76.7127H734.323Z" fill="#A9AFB6"/>
<path d="M740.918 68.2775V65.4256H745.33V68.2775H740.918ZM740.918 76.7128V73.8626H748.349V76.7146L740.918 76.7128ZM742.905 75.755V65.4256H746.531V75.755H742.905ZM751.515 75.755V70.5779C751.519 70.232 751.45 69.8893 751.312 69.5722C751.18 69.2735 750.969 69.0165 750.703 68.8291C750.408 68.6301 750.058 68.5296 749.702 68.5418C749.176 68.5515 748.662 68.7002 748.211 68.9728C747.645 69.3162 747.141 69.7541 746.721 70.2675C746.169 70.9276 745.681 71.6404 745.267 72.3958V69.5474C745.695 68.6776 746.24 67.8713 746.887 67.1513C747.444 66.5326 748.111 66.0248 748.855 65.6543C749.542 65.3153 750.296 65.1387 751.061 65.1382C751.648 65.1312 752.23 65.2522 752.766 65.493C753.274 65.7304 753.716 66.0883 754.055 66.5358C754.433 67.044 754.708 67.6219 754.865 68.2367C755.059 69.0039 755.151 69.7935 755.138 70.585V75.7621L751.515 75.755ZM749.702 76.7128V73.8626H756.903V76.7146L749.702 76.7128ZM760.052 75.755V70.5779C760.054 70.3185 760.018 70.0603 759.944 69.8117C759.875 69.5767 759.762 69.3571 759.611 69.1643C759.459 68.9728 759.268 68.8171 759.05 68.7085C758.812 68.5944 758.551 68.5374 758.287 68.5418C757.758 68.552 757.24 68.7005 756.785 68.9728C756.215 69.3116 755.71 69.7501 755.294 70.2675C754.748 70.9303 754.266 71.6429 753.852 72.3958V69.5474C754.28 68.6771 754.825 67.8707 755.474 67.1513C756.027 66.5342 756.69 66.0265 757.429 65.6543C758.111 65.3142 758.862 65.1376 759.623 65.1382C760.202 65.1325 760.776 65.2535 761.304 65.493C761.811 65.7304 762.253 66.0883 762.592 66.5358C762.971 67.0436 763.246 67.6217 763.402 68.2367C763.597 69.0037 763.69 69.7934 763.677 70.585V75.7621L760.052 75.755ZM758.287 76.7128V73.8626H765.329V76.7146L758.287 76.7128Z" fill="#A9AFB6"/>
<path d="M772.093 76.8775C771.255 76.8787 770.422 76.7531 769.622 76.5051C768.838 76.2675 768.102 75.8948 767.446 75.4037C766.776 74.9107 766.237 74.2616 765.872 73.5123C765.508 72.7631 765.331 71.9361 765.356 71.1027C765.341 70.2233 765.532 69.3528 765.914 68.5611C766.28 67.8187 766.798 67.1619 767.433 66.6332C768.079 66.0919 768.816 65.6714 769.609 65.3917C770.43 65.1025 771.294 64.9568 772.163 64.9607C773.123 64.9426 774.078 65.092 774.987 65.4023C775.724 65.6492 776.382 66.088 776.895 66.674C777.355 67.2178 777.602 67.9115 777.589 68.625C777.614 69.3351 777.371 70.0284 776.908 70.5653C776.425 71.0969 775.813 71.4935 775.132 71.7164C774.381 71.9753 773.592 72.1048 772.799 72.0995C771.93 72.1183 771.064 71.9986 770.232 71.7447C769.493 71.4974 768.774 71.1932 768.081 70.8349V68.8041C768.786 69.1577 769.534 69.416 770.307 69.5721C770.817 69.6605 771.333 69.7086 771.851 69.7157C772.232 69.7104 772.612 69.658 772.981 69.5596C773.236 69.4976 773.471 69.3699 773.662 69.189C773.735 69.1171 773.793 69.0313 773.833 68.9366C773.872 68.8419 773.893 68.7401 773.893 68.6374C773.891 68.5077 773.853 68.3811 773.785 68.2713C773.716 68.1616 773.618 68.0729 773.503 68.0148C773.183 67.8397 772.822 67.7562 772.458 67.7736C772.009 67.7735 771.565 67.8552 771.145 68.0148C770.729 68.1713 770.343 68.398 770.003 68.6853C769.669 68.9642 769.392 69.3058 769.188 69.6909C768.965 70.1387 768.862 70.6365 768.888 71.1362C768.913 71.6359 769.067 72.1205 769.334 72.5429C769.638 72.9776 770.06 73.3146 770.55 73.513C771.086 73.7344 771.66 73.8448 772.239 73.8376C773.053 73.8487 773.861 73.7061 774.622 73.4172C775.289 73.1636 775.919 72.8212 776.495 72.3992L778.002 74.7723C777.5 75.1976 776.954 75.5669 776.373 75.8737C775.75 76.2029 775.088 76.4525 774.403 76.6168C773.646 76.7967 772.87 76.8842 772.093 76.8775Z" fill="#A9AFB6"/>
<path d="M719.539 68.2295V65.3776H731.417V68.2295H719.539ZM727.305 77C726.43 77.0255 725.566 76.8017 724.813 76.3544C724.123 75.9243 723.575 75.2985 723.238 74.556C722.869 73.7191 722.688 72.8107 722.709 71.8955V62.2383H726.334V71.6384C726.332 71.9741 726.391 72.3074 726.511 72.621C726.614 72.8974 726.799 73.1356 727.04 73.3038C727.317 73.4825 727.642 73.5705 727.97 73.5557C728.359 73.5568 728.748 73.5247 729.132 73.4599C729.567 73.3367 729.995 73.1862 730.411 73.0094L731.435 75.9252C730.849 76.263 730.229 76.5348 729.584 76.7357C728.84 76.9229 728.075 77.0117 727.309 77H727.305Z" fill="#A9AFB6"/>
<path d="M662 62.8519V60H667.247V62.8519H662ZM663.908 76.4395V60H667.461V76.4395H663.908ZM671.164 64.9785C672.17 64.8969 673.645 65.257 674.424 65.7518C675.217 66.2598 675.869 66.9608 676.321 67.7897C676.814 68.6975 677.063 69.7191 677.043 70.7534C677.049 71.5357 676.899 72.3113 676.602 73.0342C676.315 73.7249 675.888 74.3482 675.349 74.8646C674.796 75.3892 674.149 75.8018 673.441 76.0795C672.667 76.3813 671.843 76.5318 671.014 76.5229C670.173 76.546 669.341 76.355 668.594 75.9678C667.952 75.6233 667.371 75.173 666.877 74.6358C666.406 74.1191 666.005 73.652 665.673 73.2346L665.747 70.4111C666.1 70.842 666.781 71.5071 667.205 71.986C667.683 72.5181 667.713 72.7558 668.451 73.1761C668.95 73.4532 669.513 73.5933 670.084 73.5823C670.533 73.5891 670.981 73.5189 671.407 73.3747C671.777 73.2465 672.118 73.0457 672.41 72.7841C672.686 72.5306 672.902 72.2178 673.042 71.869C673.187 71.5005 673.259 71.1071 673.255 70.7108C673.265 70.2186 673.155 69.7314 672.934 69.2919C672.725 68.8813 672.402 68.5401 672.004 68.3093C671.563 68.0625 671.064 67.94 670.56 67.9546C669.942 67.9363 669.337 68.131 668.845 68.5062C668.216 68.962 667.853 69.581 667.288 70.4004C666.723 71.2198 665.975 72.323 665.625 73.4155V70.8917C665.991 69.6892 665.871 68.8645 666.54 67.9848C667.208 67.1051 667.634 66.3034 668.696 65.6968C669.454 65.2737 670.298 65.0281 671.164 64.9785Z" fill="#A9AFB6"/>
</g>
<path d="M617.91 104.271C617.052 104.271 616.41 104.007 615.986 103.478C615.561 102.941 615.349 102.234 615.349 101.359C615.349 100.796 615.448 100.297 615.648 99.864C615.847 99.422 616.142 99.0797 616.532 98.837C616.922 98.5857 617.398 98.46 617.962 98.46C618.23 98.46 618.503 98.4947 618.781 98.564C619.058 98.6333 619.318 98.7287 619.561 98.85L619.184 99.643C618.967 99.5303 618.755 99.448 618.547 99.396C618.347 99.3353 618.157 99.305 617.975 99.305C617.463 99.305 617.065 99.487 616.779 99.851C616.501 100.215 616.363 100.718 616.363 101.359C616.363 101.801 616.415 102.178 616.519 102.49C616.631 102.793 616.805 103.027 617.039 103.192C617.273 103.348 617.58 103.426 617.962 103.426C618.161 103.426 618.382 103.4 618.625 103.348C618.876 103.287 619.11 103.214 619.327 103.127V103.959C619.119 104.046 618.906 104.119 618.69 104.18C618.473 104.241 618.213 104.271 617.91 104.271ZM617.715 106.13C617.021 106.13 616.384 106.013 615.804 105.779C615.223 105.545 614.716 105.216 614.283 104.791C613.858 104.358 613.529 103.851 613.295 103.27C613.061 102.689 612.944 102.052 612.944 101.359C612.944 100.666 613.061 100.029 613.295 99.448C613.529 98.8673 613.858 98.3647 614.283 97.94C614.716 97.5067 615.223 97.173 615.804 96.939C616.384 96.705 617.021 96.588 617.715 96.588C618.373 96.588 618.989 96.705 619.561 96.939C620.141 97.173 620.648 97.5067 621.082 97.94C621.524 98.3647 621.866 98.8673 622.109 99.448C622.36 100.029 622.486 100.666 622.486 101.359C622.486 102.052 622.369 102.689 622.135 103.27C621.901 103.851 621.567 104.358 621.134 104.791C620.709 105.216 620.206 105.545 619.626 105.779C619.045 106.013 618.408 106.13 617.715 106.13ZM617.715 105.441C618.269 105.441 618.789 105.341 619.275 105.142C619.76 104.943 620.189 104.661 620.562 104.297C620.934 103.924 621.225 103.491 621.433 102.997C621.641 102.503 621.745 101.957 621.745 101.359C621.745 100.796 621.645 100.267 621.446 99.773C621.246 99.279 620.965 98.8457 620.601 98.473C620.245 98.1003 619.821 97.81 619.327 97.602C618.841 97.3853 618.304 97.277 617.715 97.277C617.125 97.277 616.584 97.3767 616.09 97.576C615.596 97.7753 615.167 98.0613 614.803 98.434C614.447 98.798 614.17 99.227 613.971 99.721C613.771 100.215 613.672 100.761 613.672 101.359C613.672 101.922 613.771 102.451 613.971 102.945C614.17 103.439 614.447 103.872 614.803 104.245C615.167 104.618 615.596 104.912 616.09 105.129C616.584 105.337 617.125 105.441 617.715 105.441ZM629.753 106H623.617V105.051L626.048 102.594C626.516 102.126 626.91 101.71 627.231 101.346C627.552 100.982 627.794 100.627 627.959 100.28C628.124 99.9247 628.206 99.539 628.206 99.123C628.206 98.6117 628.054 98.226 627.751 97.966C627.448 97.6973 627.053 97.563 626.568 97.563C626.117 97.563 625.719 97.641 625.372 97.797C625.034 97.953 624.687 98.1697 624.332 98.447L623.721 97.68C623.964 97.472 624.228 97.2857 624.514 97.121C624.809 96.9563 625.125 96.8263 625.463 96.731C625.81 96.6357 626.178 96.588 626.568 96.588C627.149 96.588 627.647 96.6877 628.063 96.887C628.479 97.0863 628.8 97.3723 629.025 97.745C629.259 98.109 629.376 98.5467 629.376 99.058C629.376 99.422 629.32 99.7687 629.207 100.098C629.094 100.419 628.934 100.735 628.726 101.047C628.518 101.359 628.267 101.675 627.972 101.996C627.677 102.317 627.352 102.65 626.997 102.997L625.06 104.908V104.96H629.753V106ZM637.102 101.346C637.102 102.1 637.045 102.772 636.933 103.361C636.82 103.95 636.638 104.453 636.387 104.869C636.144 105.276 635.823 105.588 635.425 105.805C635.035 106.022 634.562 106.13 634.008 106.13C633.314 106.13 632.738 105.939 632.279 105.558C631.828 105.177 631.49 104.631 631.265 103.92C631.048 103.201 630.94 102.343 630.94 101.346C630.94 100.341 631.039 99.4827 631.239 98.772C631.447 98.0613 631.776 97.5197 632.227 97.147C632.677 96.7657 633.271 96.575 634.008 96.575C634.701 96.575 635.277 96.7657 635.737 97.147C636.196 97.5197 636.538 98.0613 636.764 98.772C636.989 99.4827 637.102 100.341 637.102 101.346ZM632.084 101.346C632.084 102.195 632.144 102.902 632.266 103.465C632.396 104.028 632.599 104.453 632.877 104.739C633.163 105.016 633.54 105.155 634.008 105.155C634.476 105.155 634.848 105.016 635.126 104.739C635.412 104.462 635.62 104.041 635.75 103.478C635.88 102.906 635.945 102.195 635.945 101.346C635.945 100.497 635.88 99.7947 635.75 99.24C635.62 98.6767 635.412 98.2563 635.126 97.979C634.848 97.693 634.476 97.55 634.008 97.55C633.54 97.55 633.163 97.693 632.877 97.979C632.599 98.2563 632.396 98.6767 632.266 99.24C632.144 99.7947 632.084 100.497 632.084 101.346ZM644.372 106H638.236V105.051L640.667 102.594C641.135 102.126 641.529 101.71 641.85 101.346C642.171 100.982 642.413 100.627 642.578 100.28C642.743 99.9247 642.825 99.539 642.825 99.123C642.825 98.6117 642.673 98.226 642.37 97.966C642.067 97.6973 641.672 97.563 641.187 97.563C640.736 97.563 640.338 97.641 639.991 97.797C639.653 97.953 639.306 98.1697 638.951 98.447L638.34 97.68C638.583 97.472 638.847 97.2857 639.133 97.121C639.428 96.9563 639.744 96.8263 640.082 96.731C640.429 96.6357 640.797 96.588 641.187 96.588C641.768 96.588 642.266 96.6877 642.682 96.887C643.098 97.0863 643.419 97.3723 643.644 97.745C643.878 98.109 643.995 98.5467 643.995 99.058C643.995 99.422 643.939 99.7687 643.826 100.098C643.713 100.419 643.553 100.735 643.345 101.047C643.137 101.359 642.886 101.675 642.591 101.996C642.296 102.317 641.971 102.65 641.616 102.997L639.679 104.908V104.96H644.372V106ZM652.097 103.894H650.745V106H649.64V103.894H645.194V102.919L649.562 96.666H650.745V102.867H652.097V103.894ZM649.64 99.942C649.64 99.7167 649.64 99.513 649.64 99.331C649.649 99.1403 649.658 98.9627 649.666 98.798C649.675 98.6333 649.679 98.4773 649.679 98.33C649.688 98.174 649.697 98.0267 649.705 97.888H649.653C649.584 98.0527 649.497 98.2303 649.393 98.421C649.289 98.6117 649.19 98.772 649.094 98.902L646.312 102.867H649.64V99.942ZM657.727 98.525C657.727 98.8197 657.718 99.097 657.701 99.357C657.692 99.6083 657.679 99.8077 657.662 99.955H657.727C657.926 99.6603 658.199 99.4133 658.546 99.214C658.893 99.0147 659.339 98.915 659.885 98.915C660.752 98.915 661.445 99.2183 661.965 99.825C662.494 100.423 662.758 101.32 662.758 102.516C662.758 103.313 662.637 103.981 662.394 104.518C662.16 105.055 661.826 105.458 661.393 105.727C660.96 105.996 660.457 106.13 659.885 106.13C659.339 106.13 658.893 106.03 658.546 105.831C658.199 105.632 657.926 105.393 657.727 105.116H657.636L657.402 106H656.583V96.12H657.727V98.525ZM659.69 99.864C659.196 99.864 658.806 99.9593 658.52 100.15C658.234 100.332 658.03 100.618 657.909 101.008C657.788 101.389 657.727 101.879 657.727 102.477V102.529C657.727 103.387 657.866 104.046 658.143 104.505C658.429 104.956 658.953 105.181 659.716 105.181C660.34 105.181 660.804 104.951 661.107 104.492C661.419 104.033 661.575 103.37 661.575 102.503C661.575 101.628 661.419 100.969 661.107 100.527C660.804 100.085 660.331 99.864 659.69 99.864ZM667.142 98.902C667.74 98.902 668.251 99.032 668.676 99.292C669.109 99.552 669.439 99.9203 669.664 100.397C669.898 100.865 670.015 101.415 670.015 102.048V102.737H665.244C665.261 103.526 665.461 104.128 665.842 104.544C666.232 104.951 666.774 105.155 667.467 105.155C667.909 105.155 668.299 105.116 668.637 105.038C668.984 104.951 669.339 104.83 669.703 104.674V105.675C669.348 105.831 668.997 105.944 668.65 106.013C668.303 106.091 667.892 106.13 667.415 106.13C666.756 106.13 666.171 105.996 665.66 105.727C665.157 105.458 664.763 105.06 664.477 104.531C664.2 103.994 664.061 103.339 664.061 102.568C664.061 101.805 664.187 101.151 664.438 100.605C664.698 100.059 665.058 99.6387 665.517 99.344C665.985 99.0493 666.527 98.902 667.142 98.902ZM667.129 99.838C666.583 99.838 666.15 100.016 665.829 100.371C665.517 100.718 665.331 101.203 665.27 101.827H668.819C668.819 101.428 668.758 101.082 668.637 100.787C668.516 100.492 668.329 100.263 668.078 100.098C667.835 99.9247 667.519 99.838 667.129 99.838ZM674.35 98.902C674.948 98.902 675.459 99.032 675.884 99.292C676.317 99.552 676.646 99.9203 676.872 100.397C677.106 100.865 677.223 101.415 677.223 102.048V102.737H672.452C672.469 103.526 672.668 104.128 673.05 104.544C673.44 104.951 673.981 105.155 674.675 105.155C675.117 105.155 675.507 105.116 675.845 105.038C676.191 104.951 676.547 104.83 676.911 104.674V105.675C676.555 105.831 676.204 105.944 675.858 106.013C675.511 106.091 675.1 106.13 674.623 106.13C673.964 106.13 673.379 105.996 672.868 105.727C672.365 105.458 671.971 105.06 671.685 104.531C671.407 103.994 671.269 103.339 671.269 102.568C671.269 101.805 671.394 101.151 671.646 100.605C671.906 100.059 672.265 99.6387 672.725 99.344C673.193 99.0493 673.734 98.902 674.35 98.902ZM674.337 99.838C673.791 99.838 673.357 100.016 673.037 100.371C672.725 100.718 672.538 101.203 672.478 101.827H676.027C676.027 101.428 675.966 101.082 675.845 100.787C675.723 100.492 675.537 100.263 675.286 100.098C675.043 99.9247 674.727 99.838 674.337 99.838ZM682.221 98.902C683.053 98.902 683.681 99.1057 684.106 99.513C684.53 99.9117 684.743 100.562 684.743 101.463V106H683.612V101.541C683.612 100.978 683.486 100.557 683.235 100.28C682.983 100.003 682.589 99.864 682.052 99.864C681.28 99.864 680.747 100.081 680.453 100.514C680.158 100.947 680.011 101.571 680.011 102.386V106H678.867V99.032H679.79L679.959 99.981H680.024C680.18 99.7383 680.37 99.539 680.596 99.383C680.83 99.2183 681.085 99.097 681.363 99.019C681.64 98.941 681.926 98.902 682.221 98.902ZM689.1 105.194C689.273 105.194 689.451 105.181 689.633 105.155C689.815 105.12 689.962 105.086 690.075 105.051V105.922C689.954 105.983 689.78 106.03 689.555 106.065C689.33 106.108 689.113 106.13 688.905 106.13C688.541 106.13 688.203 106.069 687.891 105.948C687.588 105.818 687.341 105.597 687.15 105.285C686.959 104.973 686.864 104.535 686.864 103.972V99.916H685.876V99.37L686.877 98.915L687.332 97.433H688.008V99.032H690.023V99.916H688.008V103.946C688.008 104.371 688.108 104.687 688.307 104.895C688.515 105.094 688.779 105.194 689.1 105.194ZM692.484 99.032V106H691.34V99.032H692.484ZM691.925 96.419C692.098 96.419 692.25 96.4797 692.38 96.601C692.519 96.7137 692.588 96.8957 692.588 97.147C692.588 97.3897 692.519 97.5717 692.38 97.693C692.25 97.8143 692.098 97.875 691.925 97.875C691.734 97.875 691.574 97.8143 691.444 97.693C691.314 97.5717 691.249 97.3897 691.249 97.147C691.249 96.8957 691.314 96.7137 691.444 96.601C691.574 96.4797 691.734 96.419 691.925 96.419ZM702.206 98.902C702.994 98.902 703.584 99.1057 703.974 99.513C704.364 99.9117 704.559 100.562 704.559 101.463V106H703.428V101.515C703.428 100.969 703.311 100.557 703.077 100.28C702.851 100.003 702.496 99.864 702.011 99.864C701.335 99.864 700.849 100.059 700.555 100.449C700.269 100.839 700.126 101.407 700.126 102.152V106H698.995V101.515C698.995 101.151 698.943 100.848 698.839 100.605C698.735 100.354 698.579 100.167 698.371 100.046C698.163 99.9247 697.894 99.864 697.565 99.864C697.097 99.864 696.728 99.9637 696.46 100.163C696.191 100.354 695.996 100.635 695.875 101.008C695.762 101.381 695.706 101.84 695.706 102.386V106H694.562V99.032H695.485L695.654 99.981H695.719C695.866 99.7383 696.044 99.539 696.252 99.383C696.468 99.2183 696.707 99.097 696.967 99.019C697.227 98.941 697.495 98.902 697.773 98.902C698.31 98.902 698.756 98.9973 699.112 99.188C699.476 99.3787 699.74 99.6733 699.905 100.072H699.97C700.204 99.6733 700.52 99.3787 700.919 99.188C701.326 98.9973 701.755 98.902 702.206 98.902ZM709.272 98.902C709.87 98.902 710.381 99.032 710.806 99.292C711.239 99.552 711.569 99.9203 711.794 100.397C712.028 100.865 712.145 101.415 712.145 102.048V102.737H707.374C707.391 103.526 707.591 104.128 707.972 104.544C708.362 104.951 708.904 105.155 709.597 105.155C710.039 105.155 710.429 105.116 710.767 105.038C711.114 104.951 711.469 104.83 711.833 104.674V105.675C711.478 105.831 711.127 105.944 710.78 106.013C710.433 106.091 710.022 106.13 709.545 106.13C708.886 106.13 708.301 105.996 707.79 105.727C707.287 105.458 706.893 105.06 706.607 104.531C706.33 103.994 706.191 103.339 706.191 102.568C706.191 101.805 706.317 101.151 706.568 100.605C706.828 100.059 707.188 99.6387 707.647 99.344C708.115 99.0493 708.657 98.902 709.272 98.902ZM709.259 99.838C708.713 99.838 708.28 100.016 707.959 100.371C707.647 100.718 707.461 101.203 707.4 101.827H710.949C710.949 101.428 710.888 101.082 710.767 100.787C710.646 100.492 710.459 100.263 710.208 100.098C709.965 99.9247 709.649 99.838 709.259 99.838ZM723.016 106L721.898 103.127H718.219L717.114 106H715.931L719.558 96.679H720.611L724.225 106H723.016ZM720.507 99.279C720.481 99.2097 720.438 99.084 720.377 98.902C720.316 98.72 720.256 98.5337 720.195 98.343C720.143 98.1437 720.1 97.992 720.065 97.888C720.022 98.0613 719.974 98.239 719.922 98.421C719.879 98.5943 719.831 98.7547 719.779 98.902C719.736 99.0493 719.697 99.175 719.662 99.279L718.609 102.087H721.547L720.507 99.279ZM726.353 106H725.209V96.12H726.353V106ZM729.574 106H728.43V96.12H729.574V106ZM738.149 98.902C738.279 98.902 738.417 98.9107 738.565 98.928C738.721 98.9367 738.855 98.954 738.968 98.98L738.825 100.033C738.712 100.007 738.586 99.9853 738.448 99.968C738.318 99.9507 738.192 99.942 738.071 99.942C737.802 99.942 737.546 99.9983 737.304 100.111C737.061 100.224 736.844 100.384 736.654 100.592C736.463 100.791 736.311 101.034 736.199 101.32C736.095 101.606 736.043 101.927 736.043 102.282V106H734.899V99.032H735.835L735.965 100.306H736.017C736.164 100.046 736.342 99.812 736.55 99.604C736.758 99.3873 736.996 99.2183 737.265 99.097C737.533 98.967 737.828 98.902 738.149 98.902ZM741.283 99.032V106H740.139V99.032H741.283ZM740.724 96.419C740.897 96.419 741.049 96.4797 741.179 96.601C741.318 96.7137 741.387 96.8957 741.387 97.147C741.387 97.3897 741.318 97.5717 741.179 97.693C741.049 97.8143 740.897 97.875 740.724 97.875C740.533 97.875 740.373 97.8143 740.243 97.693C740.113 97.5717 740.048 97.3897 740.048 97.147C740.048 96.8957 740.113 96.7137 740.243 96.601C740.373 96.4797 740.533 96.419 740.724 96.419ZM745.83 98.902C746.29 98.902 746.701 98.9887 747.065 99.162C747.438 99.3353 747.754 99.5997 748.014 99.955H748.079L748.235 99.032H749.145V106.117C749.145 106.776 749.033 107.326 748.807 107.768C748.582 108.219 748.24 108.557 747.78 108.782C747.321 109.007 746.736 109.12 746.025 109.12C745.523 109.12 745.059 109.081 744.634 109.003C744.218 108.934 743.846 108.825 743.516 108.678V107.625C743.742 107.738 743.989 107.833 744.257 107.911C744.526 107.998 744.816 108.063 745.128 108.106C745.44 108.149 745.761 108.171 746.09 108.171C746.688 108.171 747.156 107.993 747.494 107.638C747.841 107.291 748.014 106.815 748.014 106.208V105.935C748.014 105.831 748.019 105.684 748.027 105.493C748.036 105.294 748.045 105.155 748.053 105.077H748.001C747.759 105.432 747.455 105.697 747.091 105.87C746.736 106.043 746.32 106.13 745.843 106.13C744.942 106.13 744.236 105.814 743.724 105.181C743.222 104.548 742.97 103.664 742.97 102.529C742.97 101.784 743.083 101.142 743.308 100.605C743.542 100.059 743.872 99.6387 744.296 99.344C744.721 99.0493 745.232 98.902 745.83 98.902ZM745.986 99.864C745.596 99.864 745.263 99.968 744.985 100.176C744.717 100.384 744.509 100.687 744.361 101.086C744.223 101.485 744.153 101.97 744.153 102.542C744.153 103.4 744.309 104.059 744.621 104.518C744.942 104.969 745.406 105.194 746.012 105.194C746.368 105.194 746.671 105.151 746.922 105.064C747.174 104.969 747.382 104.826 747.546 104.635C747.711 104.436 747.832 104.184 747.91 103.881C747.988 103.578 748.027 103.218 748.027 102.802V102.529C748.027 101.896 747.954 101.385 747.806 100.995C747.668 100.605 747.447 100.319 747.143 100.137C746.84 99.955 746.454 99.864 745.986 99.864ZM752.372 99.019C752.372 99.1837 752.364 99.3527 752.346 99.526C752.338 99.6993 752.325 99.8553 752.307 99.994H752.385C752.533 99.7513 752.719 99.552 752.944 99.396C753.17 99.24 753.421 99.123 753.698 99.045C753.976 98.9583 754.262 98.915 754.556 98.915C755.12 98.915 755.588 99.006 755.96 99.188C756.342 99.3613 756.628 99.6343 756.818 100.007C757.009 100.38 757.104 100.865 757.104 101.463V106H755.973V101.541C755.973 100.978 755.848 100.557 755.596 100.28C755.345 100.003 754.951 99.864 754.413 99.864C753.893 99.864 753.486 99.9637 753.191 100.163C752.897 100.354 752.684 100.64 752.554 101.021C752.433 101.394 752.372 101.853 752.372 102.399V106H751.228V96.12H752.372V99.019ZM761.462 105.194C761.635 105.194 761.813 105.181 761.995 105.155C762.177 105.12 762.324 105.086 762.437 105.051V105.922C762.315 105.983 762.142 106.03 761.917 106.065C761.691 106.108 761.475 106.13 761.267 106.13C760.903 106.13 760.565 106.069 760.253 105.948C759.949 105.818 759.702 105.597 759.512 105.285C759.321 104.973 759.226 104.535 759.226 103.972V99.916H758.238V99.37L759.239 98.915L759.694 97.433H760.37V99.032H762.385V99.916H760.37V103.946C760.37 104.371 760.469 104.687 760.669 104.895C760.877 105.094 761.141 105.194 761.462 105.194ZM768.239 104.076C768.239 104.527 768.126 104.904 767.901 105.207C767.676 105.51 767.355 105.74 766.939 105.896C766.523 106.052 766.029 106.13 765.457 106.13C764.972 106.13 764.551 106.091 764.196 106.013C763.849 105.935 763.542 105.827 763.273 105.688V104.648C763.55 104.787 763.884 104.917 764.274 105.038C764.673 105.151 765.076 105.207 765.483 105.207C766.064 105.207 766.484 105.116 766.744 104.934C767.004 104.743 767.134 104.492 767.134 104.18C767.134 104.007 767.086 103.851 766.991 103.712C766.896 103.573 766.722 103.435 766.471 103.296C766.228 103.157 765.877 103.001 765.418 102.828C764.967 102.655 764.582 102.481 764.261 102.308C763.94 102.135 763.693 101.927 763.52 101.684C763.347 101.441 763.26 101.129 763.26 100.748C763.26 100.159 763.498 99.7037 763.975 99.383C764.46 99.0623 765.093 98.902 765.873 98.902C766.298 98.902 766.692 98.9453 767.056 99.032C767.429 99.11 767.775 99.2227 768.096 99.37L767.706 100.28C767.515 100.193 767.312 100.12 767.095 100.059C766.887 99.9897 766.675 99.9377 766.458 99.903C766.241 99.8597 766.02 99.838 765.795 99.838C765.327 99.838 764.967 99.916 764.716 100.072C764.473 100.219 764.352 100.423 764.352 100.683C764.352 100.874 764.408 101.038 764.521 101.177C764.634 101.307 764.82 101.437 765.08 101.567C765.349 101.688 765.704 101.836 766.146 102.009C766.588 102.174 766.965 102.343 767.277 102.516C767.589 102.689 767.827 102.902 767.992 103.153C768.157 103.396 768.239 103.703 768.239 104.076ZM776.29 98.902C776.42 98.902 776.558 98.9107 776.706 98.928C776.862 98.9367 776.996 98.954 777.109 98.98L776.966 100.033C776.853 100.007 776.727 99.9853 776.589 99.968C776.459 99.9507 776.333 99.942 776.212 99.942C775.943 99.942 775.687 99.9983 775.445 100.111C775.202 100.224 774.985 100.384 774.795 100.592C774.604 100.791 774.452 101.034 774.34 101.32C774.236 101.606 774.184 101.927 774.184 102.282V106H773.04V99.032H773.976L774.106 100.306H774.158C774.305 100.046 774.483 99.812 774.691 99.604C774.899 99.3873 775.137 99.2183 775.406 99.097C775.674 98.967 775.969 98.902 776.29 98.902ZM780.717 98.902C781.315 98.902 781.826 99.032 782.251 99.292C782.684 99.552 783.013 99.9203 783.239 100.397C783.473 100.865 783.59 101.415 783.59 102.048V102.737H778.819C778.836 103.526 779.035 104.128 779.417 104.544C779.807 104.951 780.348 105.155 781.042 105.155C781.484 105.155 781.874 105.116 782.212 105.038C782.558 104.951 782.914 104.83 783.278 104.674V105.675C782.922 105.831 782.571 105.944 782.225 106.013C781.878 106.091 781.466 106.13 780.99 106.13C780.331 106.13 779.746 105.996 779.235 105.727C778.732 105.458 778.338 105.06 778.052 104.531C777.774 103.994 777.636 103.339 777.636 102.568C777.636 101.805 777.761 101.151 778.013 100.605C778.273 100.059 778.632 99.6387 779.092 99.344C779.56 99.0493 780.101 98.902 780.717 98.902ZM780.704 99.838C780.158 99.838 779.724 100.016 779.404 100.371C779.092 100.718 778.905 101.203 778.845 101.827H782.394C782.394 101.428 782.333 101.082 782.212 100.787C782.09 100.492 781.904 100.263 781.653 100.098C781.41 99.9247 781.094 99.838 780.704 99.838ZM789.771 104.076C789.771 104.527 789.658 104.904 789.433 105.207C789.207 105.51 788.887 105.74 788.471 105.896C788.055 106.052 787.561 106.13 786.989 106.13C786.503 106.13 786.083 106.091 785.728 106.013C785.381 105.935 785.073 105.827 784.805 105.688V104.648C785.082 104.787 785.416 104.917 785.806 105.038C786.204 105.151 786.607 105.207 787.015 105.207C787.595 105.207 788.016 105.116 788.276 104.934C788.536 104.743 788.666 104.492 788.666 104.18C788.666 104.007 788.618 103.851 788.523 103.712C788.427 103.573 788.254 103.435 788.003 103.296C787.76 103.157 787.409 103.001 786.95 102.828C786.499 102.655 786.113 102.481 785.793 102.308C785.472 102.135 785.225 101.927 785.052 101.684C784.878 101.441 784.792 101.129 784.792 100.748C784.792 100.159 785.03 99.7037 785.507 99.383C785.992 99.0623 786.625 98.902 787.405 98.902C787.829 98.902 788.224 98.9453 788.588 99.032C788.96 99.11 789.307 99.2227 789.628 99.37L789.238 100.28C789.047 100.193 788.843 100.12 788.627 100.059C788.419 99.9897 788.206 99.9377 787.99 99.903C787.773 99.8597 787.552 99.838 787.327 99.838C786.859 99.838 786.499 99.916 786.248 100.072C786.005 100.219 785.884 100.423 785.884 100.683C785.884 100.874 785.94 101.038 786.053 101.177C786.165 101.307 786.352 101.437 786.612 101.567C786.88 101.688 787.236 101.836 787.678 102.009C788.12 102.174 788.497 102.343 788.809 102.516C789.121 102.689 789.359 102.902 789.524 103.153C789.688 103.396 789.771 103.703 789.771 104.076ZM794.015 98.902C794.613 98.902 795.125 99.032 795.549 99.292C795.983 99.552 796.312 99.9203 796.537 100.397C796.771 100.865 796.888 101.415 796.888 102.048V102.737H792.117C792.135 103.526 792.334 104.128 792.715 104.544C793.105 104.951 793.647 105.155 794.34 105.155C794.782 105.155 795.172 105.116 795.51 105.038C795.857 104.951 796.212 104.83 796.576 104.674V105.675C796.221 105.831 795.87 105.944 795.523 106.013C795.177 106.091 794.765 106.13 794.288 106.13C793.63 106.13 793.045 105.996 792.533 105.727C792.031 105.458 791.636 105.06 791.35 104.531C791.073 103.994 790.934 103.339 790.934 102.568C790.934 101.805 791.06 101.151 791.311 100.605C791.571 100.059 791.931 99.6387 792.39 99.344C792.858 99.0493 793.4 98.902 794.015 98.902ZM794.002 99.838C793.456 99.838 793.023 100.016 792.702 100.371C792.39 100.718 792.204 101.203 792.143 101.827H795.692C795.692 101.428 795.632 101.082 795.51 100.787C795.389 100.492 795.203 100.263 794.951 100.098C794.709 99.9247 794.392 99.838 794.002 99.838ZM801.782 98.902C801.912 98.902 802.051 98.9107 802.198 98.928C802.354 98.9367 802.489 98.954 802.601 98.98L802.458 100.033C802.346 100.007 802.22 99.9853 802.081 99.968C801.951 99.9507 801.826 99.942 801.704 99.942C801.436 99.942 801.18 99.9983 800.937 100.111C800.695 100.224 800.478 100.384 800.287 100.592C800.097 100.791 799.945 101.034 799.832 101.32C799.728 101.606 799.676 101.927 799.676 102.282V106H798.532V99.032H799.468L799.598 100.306H799.65C799.798 100.046 799.975 99.812 800.183 99.604C800.391 99.3873 800.63 99.2183 800.898 99.097C801.167 98.967 801.462 98.902 801.782 98.902ZM805.306 106L802.667 99.032H803.889L805.371 103.14C805.441 103.331 805.514 103.543 805.592 103.777C805.67 104.011 805.74 104.236 805.8 104.453C805.861 104.661 805.904 104.839 805.93 104.986H805.982C806.017 104.839 806.065 104.657 806.125 104.44C806.195 104.223 806.268 103.998 806.346 103.764C806.433 103.53 806.507 103.322 806.567 103.14L808.049 99.032H809.271L806.619 106H805.306ZM812.935 98.902C813.533 98.902 814.044 99.032 814.469 99.292C814.902 99.552 815.232 99.9203 815.457 100.397C815.691 100.865 815.808 101.415 815.808 102.048V102.737H811.037C811.054 103.526 811.254 104.128 811.635 104.544C812.025 104.951 812.567 105.155 813.26 105.155C813.702 105.155 814.092 105.116 814.43 105.038C814.777 104.951 815.132 104.83 815.496 104.674V105.675C815.141 105.831 814.79 105.944 814.443 106.013C814.096 106.091 813.685 106.13 813.208 106.13C812.549 106.13 811.964 105.996 811.453 105.727C810.95 105.458 810.556 105.06 810.27 104.531C809.993 103.994 809.854 103.339 809.854 102.568C809.854 101.805 809.98 101.151 810.231 100.605C810.491 100.059 810.851 99.6387 811.31 99.344C811.778 99.0493 812.32 98.902 812.935 98.902ZM812.922 99.838C812.376 99.838 811.943 100.016 811.622 100.371C811.31 100.718 811.124 101.203 811.063 101.827H814.612C814.612 101.428 814.551 101.082 814.43 100.787C814.309 100.492 814.122 100.263 813.871 100.098C813.628 99.9247 813.312 99.838 812.922 99.838ZM819.922 106.13C819.055 106.13 818.362 105.831 817.842 105.233C817.322 104.626 817.062 103.725 817.062 102.529C817.062 101.333 817.322 100.432 817.842 99.825C818.37 99.2097 819.068 98.902 819.935 98.902C820.299 98.902 820.615 98.9497 820.884 99.045C821.152 99.1317 821.386 99.253 821.586 99.409C821.785 99.565 821.954 99.7383 822.093 99.929H822.171C822.162 99.8163 822.145 99.6517 822.119 99.435C822.101 99.2097 822.093 99.032 822.093 98.902V96.12H823.237V106H822.314L822.145 105.064H822.093C821.954 105.263 821.785 105.445 821.586 105.61C821.386 105.766 821.148 105.892 820.871 105.987C820.602 106.082 820.286 106.13 819.922 106.13ZM820.104 105.181C820.84 105.181 821.356 104.982 821.651 104.583C821.954 104.176 822.106 103.565 822.106 102.75V102.542C822.106 101.675 821.963 101.012 821.677 100.553C821.391 100.085 820.862 99.851 820.091 99.851C819.475 99.851 819.012 100.098 818.7 100.592C818.396 101.077 818.245 101.732 818.245 102.555C818.245 103.387 818.396 104.033 818.7 104.492C819.012 104.951 819.48 105.181 820.104 105.181ZM825.151 105.298C825.151 104.977 825.229 104.752 825.385 104.622C825.541 104.492 825.727 104.427 825.944 104.427C826.169 104.427 826.36 104.492 826.516 104.622C826.681 104.752 826.763 104.977 826.763 105.298C826.763 105.61 826.681 105.835 826.516 105.974C826.36 106.113 826.169 106.182 825.944 106.182C825.727 106.182 825.541 106.113 825.385 105.974C825.229 105.835 825.151 105.61 825.151 105.298ZM539.404 126H535.153V124.882L536.232 124.362V118.356L535.153 117.836V116.718H539.404V117.836L538.338 118.356V124.362L539.404 124.882V126ZM544.56 118.772C545.271 118.772 545.843 118.98 546.276 119.396C546.718 119.803 546.939 120.462 546.939 121.372V126H544.859V121.853C544.859 121.342 544.781 120.96 544.625 120.709C544.478 120.449 544.24 120.319 543.91 120.319C543.408 120.319 543.07 120.523 542.896 120.93C542.723 121.329 542.636 121.905 542.636 122.659V126H540.556V118.902H542.129L542.415 119.812H542.506C542.654 119.569 542.827 119.374 543.026 119.227C543.234 119.071 543.468 118.958 543.728 118.889C543.988 118.811 544.266 118.772 544.56 118.772ZM553.375 123.894C553.375 124.371 553.271 124.778 553.063 125.116C552.863 125.445 552.556 125.697 552.14 125.87C551.724 126.043 551.186 126.13 550.528 126.13C550.051 126.13 549.635 126.095 549.28 126.026C548.924 125.965 548.565 125.861 548.201 125.714V124.115C548.599 124.288 549.011 124.431 549.436 124.544C549.86 124.657 550.216 124.713 550.502 124.713C550.814 124.713 551.035 124.657 551.165 124.544C551.303 124.431 551.373 124.284 551.373 124.102C551.373 123.981 551.338 123.872 551.269 123.777C551.199 123.682 551.061 123.573 550.853 123.452C550.645 123.331 550.337 123.175 549.93 122.984C549.531 122.793 549.202 122.607 548.942 122.425C548.69 122.234 548.5 122.009 548.37 121.749C548.248 121.48 548.188 121.147 548.188 120.748C548.188 120.089 548.435 119.595 548.929 119.266C549.431 118.937 550.09 118.772 550.905 118.772C551.338 118.772 551.745 118.815 552.127 118.902C552.508 118.989 552.902 119.132 553.31 119.331L552.725 120.722C552.499 120.618 552.278 120.527 552.062 120.449C551.845 120.371 551.637 120.31 551.438 120.267C551.247 120.224 551.065 120.202 550.892 120.202C550.666 120.202 550.493 120.241 550.372 120.319C550.259 120.397 550.203 120.514 550.203 120.67C550.203 120.783 550.237 120.887 550.307 120.982C550.376 121.069 550.51 121.168 550.71 121.281C550.909 121.385 551.199 121.519 551.581 121.684C551.971 121.849 552.296 122.022 552.556 122.204C552.824 122.377 553.028 122.598 553.167 122.867C553.305 123.127 553.375 123.469 553.375 123.894ZM557.659 124.583C557.867 124.583 558.058 124.561 558.231 124.518C558.413 124.475 558.599 124.423 558.79 124.362V125.805C558.573 125.892 558.318 125.965 558.023 126.026C557.737 126.095 557.399 126.13 557.009 126.13C556.593 126.13 556.22 126.061 555.891 125.922C555.57 125.783 555.319 125.545 555.137 125.207C554.955 124.86 554.864 124.384 554.864 123.777V120.358H554.019V119.539L555.033 118.889L555.605 117.394H556.944V118.902H558.712V120.358H556.944V123.777C556.944 124.046 557.009 124.249 557.139 124.388C557.269 124.518 557.442 124.583 557.659 124.583ZM562.949 118.759C563.824 118.759 564.5 118.967 564.977 119.383C565.462 119.79 565.705 120.419 565.705 121.268V126H564.262L563.859 125.038H563.807C563.616 125.289 563.421 125.497 563.222 125.662C563.023 125.827 562.793 125.944 562.533 126.013C562.273 126.091 561.957 126.13 561.584 126.13C561.194 126.13 560.843 126.052 560.531 125.896C560.228 125.731 559.985 125.484 559.803 125.155C559.621 124.817 559.53 124.392 559.53 123.881C559.53 123.127 559.777 122.572 560.271 122.217C560.774 121.853 561.51 121.654 562.481 121.619L563.625 121.58V121.268C563.625 120.895 563.543 120.622 563.378 120.449C563.213 120.276 562.988 120.189 562.702 120.189C562.407 120.189 562.1 120.241 561.779 120.345C561.458 120.44 561.138 120.562 560.817 120.709L560.18 119.396C560.561 119.197 560.982 119.041 561.441 118.928C561.909 118.815 562.412 118.759 562.949 118.759ZM563.027 122.737C562.516 122.754 562.156 122.867 561.948 123.075C561.749 123.283 561.649 123.556 561.649 123.894C561.649 124.189 561.718 124.401 561.857 124.531C562.004 124.652 562.195 124.713 562.429 124.713C562.758 124.713 563.04 124.592 563.274 124.349C563.517 124.098 563.638 123.747 563.638 123.296V122.711L563.027 122.737ZM569.464 118.772C569.906 118.772 570.279 118.859 570.582 119.032C570.894 119.205 571.15 119.465 571.349 119.812H571.401L571.557 118.902H573.338V126.013C573.338 126.689 573.208 127.257 572.948 127.716C572.697 128.175 572.315 128.522 571.804 128.756C571.293 128.999 570.647 129.12 569.867 129.12C569.364 129.12 568.905 129.09 568.489 129.029C568.082 128.968 567.687 128.86 567.306 128.704V127.157C567.583 127.278 567.852 127.378 568.112 127.456C568.381 127.543 568.654 127.603 568.931 127.638C569.217 127.681 569.525 127.703 569.854 127.703C570.331 127.703 570.682 127.569 570.907 127.3C571.141 127.031 571.258 126.628 571.258 126.091V125.948C571.258 125.801 571.262 125.649 571.271 125.493C571.288 125.337 571.306 125.198 571.323 125.077H571.258C571.067 125.45 570.82 125.718 570.517 125.883C570.222 126.048 569.858 126.13 569.425 126.13C568.671 126.13 568.069 125.809 567.618 125.168C567.176 124.518 566.955 123.617 566.955 122.464C566.955 121.684 567.059 121.021 567.267 120.475C567.475 119.92 567.765 119.5 568.138 119.214C568.519 118.919 568.961 118.772 569.464 118.772ZM570.192 120.345C569.941 120.345 569.733 120.427 569.568 120.592C569.403 120.748 569.278 120.986 569.191 121.307C569.113 121.619 569.074 122.013 569.074 122.49C569.074 123.201 569.165 123.734 569.347 124.089C569.538 124.436 569.828 124.609 570.218 124.609C570.426 124.609 570.604 124.579 570.751 124.518C570.907 124.449 571.033 124.34 571.128 124.193C571.223 124.037 571.293 123.838 571.336 123.595C571.388 123.352 571.414 123.058 571.414 122.711V122.477C571.414 121.966 571.375 121.554 571.297 121.242C571.219 120.93 571.089 120.705 570.907 120.566C570.734 120.419 570.495 120.345 570.192 120.345ZM578.871 118.772C578.984 118.772 579.105 118.776 579.235 118.785C579.365 118.794 579.465 118.807 579.534 118.824L579.365 120.644C579.296 120.627 579.205 120.614 579.092 120.605C578.979 120.588 578.849 120.579 578.702 120.579C578.511 120.579 578.316 120.614 578.117 120.683C577.926 120.744 577.749 120.843 577.584 120.982C577.428 121.121 577.298 121.307 577.194 121.541C577.099 121.766 577.051 122.048 577.051 122.386V126H574.971V118.902H576.531L576.843 120.098H576.947C577.077 119.855 577.237 119.634 577.428 119.435C577.619 119.236 577.835 119.075 578.078 118.954C578.329 118.833 578.594 118.772 578.871 118.772ZM583.252 118.759C584.128 118.759 584.804 118.967 585.28 119.383C585.766 119.79 586.008 120.419 586.008 121.268V126H584.565L584.162 125.038H584.11C583.92 125.289 583.725 125.497 583.525 125.662C583.326 125.827 583.096 125.944 582.836 126.013C582.576 126.091 582.26 126.13 581.887 126.13C581.497 126.13 581.146 126.052 580.834 125.896C580.531 125.731 580.288 125.484 580.106 125.155C579.924 124.817 579.833 124.392 579.833 123.881C579.833 123.127 580.08 122.572 580.574 122.217C581.077 121.853 581.814 121.654 582.784 121.619L583.928 121.58V121.268C583.928 120.895 583.846 120.622 583.681 120.449C583.517 120.276 583.291 120.189 583.005 120.189C582.711 120.189 582.403 120.241 582.082 120.345C581.762 120.44 581.441 120.562 581.12 120.709L580.483 119.396C580.865 119.197 581.285 119.041 581.744 118.928C582.212 118.815 582.715 118.759 583.252 118.759ZM583.33 122.737C582.819 122.754 582.459 122.867 582.251 123.075C582.052 123.283 581.952 123.556 581.952 123.894C581.952 124.189 582.022 124.401 582.16 124.531C582.308 124.652 582.498 124.713 582.732 124.713C583.062 124.713 583.343 124.592 583.577 124.349C583.82 124.098 583.941 123.747 583.941 123.296V122.711L583.33 122.737ZM595.643 118.772C596.415 118.772 596.995 118.98 597.385 119.396C597.784 119.803 597.983 120.462 597.983 121.372V126H595.916V121.853C595.916 121.342 595.838 120.96 595.682 120.709C595.535 120.449 595.31 120.319 595.006 120.319C594.573 120.319 594.27 120.501 594.096 120.865C593.923 121.229 593.836 121.753 593.836 122.438V126H591.756V121.853C591.756 121.515 591.722 121.233 591.652 121.008C591.592 120.783 591.496 120.614 591.366 120.501C591.236 120.38 591.063 120.319 590.846 120.319C590.552 120.319 590.318 120.41 590.144 120.592C589.98 120.774 589.863 121.038 589.793 121.385C589.724 121.732 589.689 122.156 589.689 122.659V126H587.609V118.902H589.182L589.481 119.812H589.559C589.689 119.569 589.85 119.374 590.04 119.227C590.24 119.071 590.465 118.958 590.716 118.889C590.976 118.811 591.254 118.772 591.548 118.772C592.034 118.772 592.441 118.859 592.77 119.032C593.108 119.197 593.373 119.457 593.563 119.812H593.68C593.888 119.448 594.166 119.184 594.512 119.019C594.868 118.854 595.245 118.772 595.643 118.772ZM612.671 121.359C612.671 121.758 612.623 122.148 612.528 122.529C612.441 122.91 612.303 123.257 612.112 123.569C611.921 123.872 611.687 124.119 611.41 124.31C611.133 124.492 610.803 124.583 610.422 124.583C610.023 124.583 609.707 124.47 609.473 124.245C609.248 124.011 609.109 123.747 609.057 123.452H608.992C608.836 123.773 608.606 124.041 608.303 124.258C608 124.475 607.618 124.583 607.159 124.583C606.5 124.583 605.989 124.362 605.625 123.92C605.27 123.478 605.092 122.893 605.092 122.165C605.092 121.593 605.205 121.09 605.43 120.657C605.655 120.215 605.972 119.868 606.379 119.617C606.795 119.366 607.285 119.24 607.848 119.24C608.229 119.24 608.602 119.275 608.966 119.344C609.339 119.405 609.629 119.474 609.837 119.552L609.707 122.191C609.698 122.347 609.694 122.46 609.694 122.529C609.694 122.59 609.694 122.633 609.694 122.659C609.694 123.11 609.772 123.409 609.928 123.556C610.093 123.703 610.283 123.777 610.5 123.777C610.769 123.777 610.994 123.669 611.176 123.452C611.367 123.227 611.51 122.932 611.605 122.568C611.709 122.195 611.761 121.788 611.761 121.346C611.761 120.54 611.596 119.86 611.267 119.305C610.946 118.742 610.5 118.313 609.928 118.018C609.365 117.723 608.723 117.576 608.004 117.576C607.267 117.576 606.613 117.693 606.041 117.927C605.469 118.161 604.988 118.49 604.598 118.915C604.217 119.34 603.926 119.842 603.727 120.423C603.528 120.995 603.428 121.628 603.428 122.321C603.428 123.17 603.58 123.894 603.883 124.492C604.186 125.081 604.628 125.532 605.209 125.844C605.798 126.147 606.518 126.299 607.367 126.299C607.896 126.299 608.398 126.238 608.875 126.117C609.36 126.004 609.789 125.879 610.162 125.74V126.624C609.789 126.78 609.369 126.906 608.901 127.001C608.442 127.105 607.93 127.157 607.367 127.157C606.344 127.157 605.469 126.966 604.741 126.585C604.013 126.204 603.454 125.658 603.064 124.947C602.683 124.228 602.492 123.365 602.492 122.36C602.492 121.554 602.618 120.809 602.869 120.124C603.12 119.431 603.484 118.833 603.961 118.33C604.438 117.819 605.014 117.424 605.69 117.147C606.375 116.861 607.146 116.718 608.004 116.718C608.68 116.718 609.3 116.826 609.863 117.043C610.435 117.251 610.929 117.559 611.345 117.966C611.77 118.365 612.095 118.85 612.32 119.422C612.554 119.994 612.671 120.64 612.671 121.359ZM606.106 122.191C606.106 122.746 606.214 123.149 606.431 123.4C606.656 123.651 606.955 123.777 607.328 123.777C607.813 123.777 608.16 123.595 608.368 123.231C608.585 122.867 608.71 122.395 608.745 121.814L608.823 120.189C608.71 120.154 608.567 120.124 608.394 120.098C608.221 120.072 608.043 120.059 607.861 120.059C607.436 120.059 607.094 120.163 606.834 120.371C606.574 120.579 606.388 120.848 606.275 121.177C606.162 121.498 606.106 121.836 606.106 122.191ZM615.549 118.525C615.549 118.82 615.541 119.097 615.523 119.357C615.515 119.608 615.502 119.808 615.484 119.955H615.549C615.749 119.66 616.022 119.413 616.368 119.214C616.715 119.015 617.161 118.915 617.707 118.915C618.574 118.915 619.267 119.218 619.787 119.825C620.316 120.423 620.58 121.32 620.58 122.516C620.58 123.313 620.459 123.981 620.216 124.518C619.982 125.055 619.649 125.458 619.215 125.727C618.782 125.996 618.279 126.13 617.707 126.13C617.161 126.13 616.715 126.03 616.368 125.831C616.022 125.632 615.749 125.393 615.549 125.116H615.458L615.224 126H614.405V116.12H615.549V118.525ZM617.512 119.864C617.018 119.864 616.628 119.959 616.342 120.15C616.056 120.332 615.853 120.618 615.731 121.008C615.61 121.389 615.549 121.879 615.549 122.477V122.529C615.549 123.387 615.688 124.046 615.965 124.505C616.251 124.956 616.776 125.181 617.538 125.181C618.162 125.181 618.626 124.951 618.929 124.492C619.241 124.033 619.397 123.37 619.397 122.503C619.397 121.628 619.241 120.969 618.929 120.527C618.626 120.085 618.154 119.864 617.512 119.864ZM624.964 118.902C625.562 118.902 626.074 119.032 626.498 119.292C626.932 119.552 627.261 119.92 627.486 120.397C627.72 120.865 627.837 121.415 627.837 122.048V122.737H623.066C623.084 123.526 623.283 124.128 623.664 124.544C624.054 124.951 624.596 125.155 625.289 125.155C625.731 125.155 626.121 125.116 626.459 125.038C626.806 124.951 627.161 124.83 627.525 124.674V125.675C627.17 125.831 626.819 125.944 626.472 126.013C626.126 126.091 625.714 126.13 625.237 126.13C624.579 126.13 623.994 125.996 623.482 125.727C622.98 125.458 622.585 125.06 622.299 124.531C622.022 123.994 621.883 123.339 621.883 122.568C621.883 121.805 622.009 121.151 622.26 120.605C622.52 120.059 622.88 119.639 623.339 119.344C623.807 119.049 624.349 118.902 624.964 118.902ZM624.951 119.838C624.405 119.838 623.972 120.016 623.651 120.371C623.339 120.718 623.153 121.203 623.092 121.827H626.641C626.641 121.428 626.581 121.082 626.459 120.787C626.338 120.492 626.152 120.263 625.9 120.098C625.658 119.925 625.341 119.838 624.951 119.838ZM632.172 118.902C632.77 118.902 633.281 119.032 633.706 119.292C634.139 119.552 634.469 119.92 634.694 120.397C634.928 120.865 635.045 121.415 635.045 122.048V122.737H630.274C630.291 123.526 630.491 124.128 630.872 124.544C631.262 124.951 631.804 125.155 632.497 125.155C632.939 125.155 633.329 125.116 633.667 125.038C634.014 124.951 634.369 124.83 634.733 124.674V125.675C634.378 125.831 634.027 125.944 633.68 126.013C633.333 126.091 632.922 126.13 632.445 126.13C631.786 126.13 631.201 125.996 630.69 125.727C630.187 125.458 629.793 125.06 629.507 124.531C629.23 123.994 629.091 123.339 629.091 122.568C629.091 121.805 629.217 121.151 629.468 120.605C629.728 120.059 630.088 119.639 630.547 119.344C631.015 119.049 631.557 118.902 632.172 118.902ZM632.159 119.838C631.613 119.838 631.18 120.016 630.859 120.371C630.547 120.718 630.361 121.203 630.3 121.827H633.849C633.849 121.428 633.788 121.082 633.667 120.787C633.546 120.492 633.359 120.263 633.108 120.098C632.865 119.925 632.549 119.838 632.159 119.838ZM640.043 118.902C640.875 118.902 641.503 119.106 641.928 119.513C642.353 119.912 642.565 120.562 642.565 121.463V126H641.434V121.541C641.434 120.978 641.308 120.557 641.057 120.28C640.806 120.003 640.411 119.864 639.874 119.864C639.103 119.864 638.57 120.081 638.275 120.514C637.98 120.947 637.833 121.571 637.833 122.386V126H636.689V119.032H637.612L637.781 119.981H637.846C638.002 119.738 638.193 119.539 638.418 119.383C638.652 119.218 638.908 119.097 639.185 119.019C639.462 118.941 639.748 118.902 640.043 118.902ZM646.922 125.194C647.096 125.194 647.273 125.181 647.455 125.155C647.637 125.12 647.785 125.086 647.897 125.051V125.922C647.776 125.983 647.603 126.03 647.377 126.065C647.152 126.108 646.935 126.13 646.727 126.13C646.363 126.13 646.025 126.069 645.713 125.948C645.41 125.818 645.163 125.597 644.972 125.285C644.782 124.973 644.686 124.535 644.686 123.972V119.916H643.698V119.37L644.699 118.915L645.154 117.433H645.83V119.032H647.845V119.916H645.83V123.946C645.83 124.371 645.93 124.687 646.129 124.895C646.337 125.094 646.602 125.194 646.922 125.194ZM650.306 119.032V126H649.162V119.032H650.306ZM649.747 116.419C649.921 116.419 650.072 116.48 650.202 116.601C650.341 116.714 650.41 116.896 650.41 117.147C650.41 117.39 650.341 117.572 650.202 117.693C650.072 117.814 649.921 117.875 649.747 117.875C649.557 117.875 649.396 117.814 649.266 117.693C649.136 117.572 649.071 117.39 649.071 117.147C649.071 116.896 649.136 116.714 649.266 116.601C649.396 116.48 649.557 116.419 649.747 116.419ZM660.028 118.902C660.817 118.902 661.406 119.106 661.796 119.513C662.186 119.912 662.381 120.562 662.381 121.463V126H661.25V121.515C661.25 120.969 661.133 120.557 660.899 120.28C660.674 120.003 660.318 119.864 659.833 119.864C659.157 119.864 658.672 120.059 658.377 120.449C658.091 120.839 657.948 121.407 657.948 122.152V126H656.817V121.515C656.817 121.151 656.765 120.848 656.661 120.605C656.557 120.354 656.401 120.167 656.193 120.046C655.985 119.925 655.716 119.864 655.387 119.864C654.919 119.864 654.551 119.964 654.282 120.163C654.013 120.354 653.818 120.635 653.697 121.008C653.584 121.381 653.528 121.84 653.528 122.386V126H652.384V119.032H653.307L653.476 119.981H653.541C653.688 119.738 653.866 119.539 654.074 119.383C654.291 119.218 654.529 119.097 654.789 119.019C655.049 118.941 655.318 118.902 655.595 118.902C656.132 118.902 656.579 118.997 656.934 119.188C657.298 119.379 657.562 119.673 657.727 120.072H657.792C658.026 119.673 658.342 119.379 658.741 119.188C659.148 118.997 659.577 118.902 660.028 118.902ZM667.094 118.902C667.692 118.902 668.204 119.032 668.628 119.292C669.062 119.552 669.391 119.92 669.616 120.397C669.85 120.865 669.967 121.415 669.967 122.048V122.737H665.196C665.214 123.526 665.413 124.128 665.794 124.544C666.184 124.951 666.726 125.155 667.419 125.155C667.861 125.155 668.251 125.116 668.589 125.038C668.936 124.951 669.291 124.83 669.655 124.674V125.675C669.3 125.831 668.949 125.944 668.602 126.013C668.256 126.091 667.844 126.13 667.367 126.13C666.709 126.13 666.124 125.996 665.612 125.727C665.11 125.458 664.715 125.06 664.429 124.531C664.152 123.994 664.013 123.339 664.013 122.568C664.013 121.805 664.139 121.151 664.39 120.605C664.65 120.059 665.01 119.639 665.469 119.344C665.937 119.049 666.479 118.902 667.094 118.902ZM667.081 119.838C666.535 119.838 666.102 120.016 665.781 120.371C665.469 120.718 665.283 121.203 665.222 121.827H668.771C668.771 121.428 668.711 121.082 668.589 120.787C668.468 120.492 668.282 120.263 668.03 120.098C667.788 119.925 667.471 119.838 667.081 119.838ZM681.81 118.226C681.498 118.226 681.217 118.3 680.965 118.447C680.723 118.594 680.515 118.807 680.341 119.084C680.168 119.353 680.038 119.682 679.951 120.072C679.865 120.462 679.821 120.9 679.821 121.385C679.821 122.044 679.895 122.607 680.042 123.075C680.19 123.534 680.415 123.885 680.718 124.128C681.022 124.371 681.407 124.492 681.875 124.492C682.248 124.492 682.612 124.449 682.967 124.362C683.331 124.275 683.708 124.154 684.098 123.998V125.649C683.717 125.814 683.331 125.935 682.941 126.013C682.551 126.091 682.127 126.13 681.667 126.13C680.74 126.13 679.982 125.935 679.392 125.545C678.803 125.146 678.365 124.592 678.079 123.881C677.802 123.162 677.663 122.325 677.663 121.372C677.663 120.67 677.754 120.029 677.936 119.448C678.118 118.859 678.387 118.352 678.742 117.927C679.098 117.502 679.531 117.173 680.042 116.939C680.562 116.705 681.156 116.588 681.823 116.588C682.257 116.588 682.712 116.649 683.188 116.77C683.674 116.883 684.094 117.039 684.449 117.238L683.786 118.837C683.466 118.672 683.141 118.529 682.811 118.408C682.491 118.287 682.157 118.226 681.81 118.226ZM691.853 122.438C691.853 123.027 691.775 123.552 691.619 124.011C691.472 124.47 691.255 124.86 690.969 125.181C690.683 125.493 690.332 125.731 689.916 125.896C689.509 126.052 689.049 126.13 688.538 126.13C688.061 126.13 687.619 126.052 687.212 125.896C686.805 125.731 686.454 125.493 686.159 125.181C685.873 124.86 685.648 124.47 685.483 124.011C685.327 123.552 685.249 123.027 685.249 122.438C685.249 121.649 685.383 120.986 685.652 120.449C685.921 119.903 686.302 119.487 686.796 119.201C687.29 118.915 687.884 118.772 688.577 118.772C689.218 118.772 689.782 118.915 690.267 119.201C690.761 119.487 691.147 119.903 691.424 120.449C691.71 120.986 691.853 121.649 691.853 122.438ZM687.368 122.438C687.368 122.906 687.407 123.3 687.485 123.621C687.572 123.933 687.702 124.171 687.875 124.336C688.057 124.492 688.287 124.57 688.564 124.57C688.85 124.57 689.075 124.492 689.24 124.336C689.413 124.171 689.539 123.933 689.617 123.621C689.695 123.3 689.734 122.906 689.734 122.438C689.734 121.97 689.695 121.58 689.617 121.268C689.539 120.956 689.409 120.722 689.227 120.566C689.054 120.41 688.828 120.332 688.551 120.332C688.126 120.332 687.823 120.51 687.641 120.865C687.459 121.212 687.368 121.736 687.368 122.438ZM697.142 118.772C697.853 118.772 698.425 118.98 698.858 119.396C699.3 119.803 699.521 120.462 699.521 121.372V126H697.441V121.853C697.441 121.342 697.363 120.96 697.207 120.709C697.06 120.449 696.821 120.319 696.492 120.319C695.989 120.319 695.651 120.523 695.478 120.93C695.305 121.329 695.218 121.905 695.218 122.659V126H693.138V118.902H694.711L694.997 119.812H695.088C695.235 119.569 695.409 119.374 695.608 119.227C695.816 119.071 696.05 118.958 696.31 118.889C696.57 118.811 696.847 118.772 697.142 118.772ZM704.175 124.583C704.383 124.583 704.574 124.561 704.747 124.518C704.929 124.475 705.116 124.423 705.306 124.362V125.805C705.09 125.892 704.834 125.965 704.539 126.026C704.253 126.095 703.915 126.13 703.525 126.13C703.109 126.13 702.737 126.061 702.407 125.922C702.087 125.783 701.835 125.545 701.653 125.207C701.471 124.86 701.38 124.384 701.38 123.777V120.358H700.535V119.539L701.549 118.889L702.121 117.394H703.46V118.902H705.228V120.358H703.46V123.777C703.46 124.046 703.525 124.249 703.655 124.388C703.785 124.518 703.959 124.583 704.175 124.583ZM709.465 118.759C710.341 118.759 711.017 118.967 711.493 119.383C711.979 119.79 712.221 120.419 712.221 121.268V126H710.778L710.375 125.038H710.323C710.133 125.289 709.938 125.497 709.738 125.662C709.539 125.827 709.309 125.944 709.049 126.013C708.789 126.091 708.473 126.13 708.1 126.13C707.71 126.13 707.359 126.052 707.047 125.896C706.744 125.731 706.501 125.484 706.319 125.155C706.137 124.817 706.046 124.392 706.046 123.881C706.046 123.127 706.293 122.572 706.787 122.217C707.29 121.853 708.027 121.654 708.997 121.619L710.141 121.58V121.268C710.141 120.895 710.059 120.622 709.894 120.449C709.73 120.276 709.504 120.189 709.218 120.189C708.924 120.189 708.616 120.241 708.295 120.345C707.975 120.44 707.654 120.562 707.333 120.709L706.696 119.396C707.078 119.197 707.498 119.041 707.957 118.928C708.425 118.815 708.928 118.759 709.465 118.759ZM709.543 122.737C709.032 122.754 708.672 122.867 708.464 123.075C708.265 123.283 708.165 123.556 708.165 123.894C708.165 124.189 708.235 124.401 708.373 124.531C708.521 124.652 708.711 124.713 708.945 124.713C709.275 124.713 709.556 124.592 709.79 124.349C710.033 124.098 710.154 123.747 710.154 123.296V122.711L709.543 122.737ZM716.721 126.13C716.045 126.13 715.464 126.004 714.979 125.753C714.494 125.493 714.121 125.094 713.861 124.557C713.601 124.02 713.471 123.331 713.471 122.49C713.471 121.623 713.614 120.917 713.9 120.371C714.195 119.825 714.598 119.422 715.109 119.162C715.629 118.902 716.223 118.772 716.89 118.772C717.323 118.772 717.726 118.82 718.099 118.915C718.472 119.01 718.784 119.123 719.035 119.253L718.424 120.709C718.164 120.596 717.926 120.505 717.709 120.436C717.501 120.367 717.271 120.332 717.02 120.332C716.717 120.332 716.457 120.414 716.24 120.579C716.032 120.735 715.872 120.973 715.759 121.294C715.646 121.606 715.59 122 715.59 122.477C715.59 122.945 715.646 123.335 715.759 123.647C715.88 123.95 716.045 124.18 716.253 124.336C716.47 124.483 716.725 124.557 717.02 124.557C717.349 124.557 717.661 124.505 717.956 124.401C718.259 124.288 718.545 124.137 718.814 123.946V125.597C718.528 125.788 718.22 125.922 717.891 126C717.57 126.087 717.18 126.13 716.721 126.13ZM723.184 124.583C723.392 124.583 723.582 124.561 723.756 124.518C723.938 124.475 724.124 124.423 724.315 124.362V125.805C724.098 125.892 723.842 125.965 723.548 126.026C723.262 126.095 722.924 126.13 722.534 126.13C722.118 126.13 721.745 126.061 721.416 125.922C721.095 125.783 720.844 125.545 720.662 125.207C720.48 124.86 720.389 124.384 720.389 123.777V120.358H719.544V119.539L720.558 118.889L721.13 117.394H722.469V118.902H724.237V120.358H722.469V123.777C722.469 124.046 722.534 124.249 722.664 124.388C722.794 124.518 722.967 124.583 723.184 124.583ZM732.91 118.525C732.91 118.82 732.902 119.097 732.884 119.357C732.876 119.608 732.863 119.808 732.845 119.955H732.91C733.11 119.66 733.383 119.413 733.729 119.214C734.076 119.015 734.522 118.915 735.068 118.915C735.935 118.915 736.628 119.218 737.148 119.825C737.677 120.423 737.941 121.32 737.941 122.516C737.941 123.313 737.82 123.981 737.577 124.518C737.343 125.055 737.01 125.458 736.576 125.727C736.143 125.996 735.64 126.13 735.068 126.13C734.522 126.13 734.076 126.03 733.729 125.831C733.383 125.632 733.11 125.393 732.91 125.116H732.819L732.585 126H731.766V116.12H732.91V118.525ZM734.873 119.864C734.379 119.864 733.989 119.959 733.703 120.15C733.417 120.332 733.214 120.618 733.092 121.008C732.971 121.389 732.91 121.879 732.91 122.477V122.529C732.91 123.387 733.049 124.046 733.326 124.505C733.612 124.956 734.137 125.181 734.899 125.181C735.523 125.181 735.987 124.951 736.29 124.492C736.602 124.033 736.758 123.37 736.758 122.503C736.758 121.628 736.602 120.969 736.29 120.527C735.987 120.085 735.515 119.864 734.873 119.864ZM742.325 118.902C742.923 118.902 743.435 119.032 743.859 119.292C744.293 119.552 744.622 119.92 744.847 120.397C745.081 120.865 745.198 121.415 745.198 122.048V122.737H740.427C740.445 123.526 740.644 124.128 741.025 124.544C741.415 124.951 741.957 125.155 742.65 125.155C743.092 125.155 743.482 125.116 743.82 125.038C744.167 124.951 744.522 124.83 744.886 124.674V125.675C744.531 125.831 744.18 125.944 743.833 126.013C743.487 126.091 743.075 126.13 742.598 126.13C741.94 126.13 741.355 125.996 740.843 125.727C740.341 125.458 739.946 125.06 739.66 124.531C739.383 123.994 739.244 123.339 739.244 122.568C739.244 121.805 739.37 121.151 739.621 120.605C739.881 120.059 740.241 119.639 740.7 119.344C741.168 119.049 741.71 118.902 742.325 118.902ZM742.312 119.838C741.766 119.838 741.333 120.016 741.012 120.371C740.7 120.718 740.514 121.203 740.453 121.827H744.002C744.002 121.428 743.942 121.082 743.82 120.787C743.699 120.492 743.513 120.263 743.261 120.098C743.019 119.925 742.702 119.838 742.312 119.838ZM749.533 118.902C750.131 118.902 750.643 119.032 751.067 119.292C751.501 119.552 751.83 119.92 752.055 120.397C752.289 120.865 752.406 121.415 752.406 122.048V122.737H747.635C747.653 123.526 747.852 124.128 748.233 124.544C748.623 124.951 749.165 125.155 749.858 125.155C750.3 125.155 750.69 125.116 751.028 125.038C751.375 124.951 751.73 124.83 752.094 124.674V125.675C751.739 125.831 751.388 125.944 751.041 126.013C750.695 126.091 750.283 126.13 749.806 126.13C749.148 126.13 748.563 125.996 748.051 125.727C747.549 125.458 747.154 125.06 746.868 124.531C746.591 123.994 746.452 123.339 746.452 122.568C746.452 121.805 746.578 121.151 746.829 120.605C747.089 120.059 747.449 119.639 747.908 119.344C748.376 119.049 748.918 118.902 749.533 118.902ZM749.52 119.838C748.974 119.838 748.541 120.016 748.22 120.371C747.908 120.718 747.722 121.203 747.661 121.827H751.21C751.21 121.428 751.15 121.082 751.028 120.787C750.907 120.492 750.721 120.263 750.469 120.098C750.227 119.925 749.91 119.838 749.52 119.838ZM757.404 118.902C758.236 118.902 758.864 119.106 759.289 119.513C759.714 119.912 759.926 120.562 759.926 121.463V126H758.795V121.541C758.795 120.978 758.669 120.557 758.418 120.28C758.167 120.003 757.772 119.864 757.235 119.864C756.464 119.864 755.931 120.081 755.636 120.514C755.341 120.947 755.194 121.571 755.194 122.386V126H754.05V119.032H754.973L755.142 119.981H755.207C755.363 119.738 755.554 119.539 755.779 119.383C756.013 119.218 756.269 119.097 756.546 119.019C756.823 118.941 757.109 118.902 757.404 118.902ZM764.283 125.194C764.457 125.194 764.634 125.181 764.816 125.155C764.998 125.12 765.146 125.086 765.258 125.051V125.922C765.137 125.983 764.964 126.03 764.738 126.065C764.513 126.108 764.296 126.13 764.088 126.13C763.724 126.13 763.386 126.069 763.074 125.948C762.771 125.818 762.524 125.597 762.333 125.285C762.143 124.973 762.047 124.535 762.047 123.972V119.916H761.059V119.37L762.06 118.915L762.515 117.433H763.191V119.032H765.206V119.916H763.191V123.946C763.191 124.371 763.291 124.687 763.49 124.895C763.698 125.094 763.963 125.194 764.283 125.194ZM767.668 119.032V126H766.524V119.032H767.668ZM767.109 116.419C767.282 116.419 767.434 116.48 767.564 116.601C767.702 116.714 767.772 116.896 767.772 117.147C767.772 117.39 767.702 117.572 767.564 117.693C767.434 117.814 767.282 117.875 767.109 117.875C766.918 117.875 766.758 117.814 766.628 117.693C766.498 117.572 766.433 117.39 766.433 117.147C766.433 116.896 766.498 116.714 766.628 116.601C766.758 116.48 766.918 116.419 767.109 116.419ZM777.389 118.902C778.178 118.902 778.767 119.106 779.157 119.513C779.547 119.912 779.742 120.562 779.742 121.463V126H778.611V121.515C778.611 120.969 778.494 120.557 778.26 120.28C778.035 120.003 777.679 119.864 777.194 119.864C776.518 119.864 776.033 120.059 775.738 120.449C775.452 120.839 775.309 121.407 775.309 122.152V126H774.178V121.515C774.178 121.151 774.126 120.848 774.022 120.605C773.918 120.354 773.762 120.167 773.554 120.046C773.346 119.925 773.077 119.864 772.748 119.864C772.28 119.864 771.912 119.964 771.643 120.163C771.374 120.354 771.179 120.635 771.058 121.008C770.945 121.381 770.889 121.84 770.889 122.386V126H769.745V119.032H770.668L770.837 119.981H770.902C771.049 119.738 771.227 119.539 771.435 119.383C771.652 119.218 771.89 119.097 772.15 119.019C772.41 118.941 772.679 118.902 772.956 118.902C773.493 118.902 773.94 118.997 774.295 119.188C774.659 119.379 774.923 119.673 775.088 120.072H775.153C775.387 119.673 775.703 119.379 776.102 119.188C776.509 118.997 776.938 118.902 777.389 118.902ZM784.455 118.902C785.053 118.902 785.565 119.032 785.989 119.292C786.423 119.552 786.752 119.92 786.977 120.397C787.211 120.865 787.328 121.415 787.328 122.048V122.737H782.557C782.575 123.526 782.774 124.128 783.155 124.544C783.545 124.951 784.087 125.155 784.78 125.155C785.222 125.155 785.612 125.116 785.95 125.038C786.297 124.951 786.652 124.83 787.016 124.674V125.675C786.661 125.831 786.31 125.944 785.963 126.013C785.617 126.091 785.205 126.13 784.728 126.13C784.07 126.13 783.485 125.996 782.973 125.727C782.471 125.458 782.076 125.06 781.79 124.531C781.513 123.994 781.374 123.339 781.374 122.568C781.374 121.805 781.5 121.151 781.751 120.605C782.011 120.059 782.371 119.639 782.83 119.344C783.298 119.049 783.84 118.902 784.455 118.902ZM784.442 119.838C783.896 119.838 783.463 120.016 783.142 120.371C782.83 120.718 782.644 121.203 782.583 121.827H786.132C786.132 121.428 786.072 121.082 785.95 120.787C785.829 120.492 785.643 120.263 785.391 120.098C785.149 119.925 784.832 119.838 784.442 119.838ZM788.803 125.298C788.803 124.977 788.881 124.752 789.037 124.622C789.193 124.492 789.38 124.427 789.596 124.427C789.822 124.427 790.012 124.492 790.168 124.622C790.333 124.752 790.415 124.977 790.415 125.298C790.415 125.61 790.333 125.835 790.168 125.974C790.012 126.113 789.822 126.182 789.596 126.182C789.38 126.182 789.193 126.113 789.037 125.974C788.881 125.835 788.803 125.61 788.803 125.298ZM798.379 122.503C798.379 123.084 798.301 123.599 798.145 124.05C797.998 124.492 797.781 124.869 797.495 125.181C797.218 125.493 796.875 125.731 796.468 125.896C796.069 126.052 795.623 126.13 795.129 126.13C794.67 126.13 794.245 126.052 793.855 125.896C793.465 125.731 793.127 125.493 792.841 125.181C792.555 124.869 792.33 124.492 792.165 124.05C792.009 123.599 791.931 123.084 791.931 122.503C791.931 121.732 792.061 121.082 792.321 120.553C792.581 120.016 792.954 119.608 793.439 119.331C793.924 119.045 794.501 118.902 795.168 118.902C795.801 118.902 796.355 119.045 796.832 119.331C797.317 119.608 797.694 120.016 797.963 120.553C798.24 121.082 798.379 121.732 798.379 122.503ZM793.114 122.503C793.114 123.049 793.183 123.526 793.322 123.933C793.469 124.332 793.695 124.639 793.998 124.856C794.301 125.073 794.687 125.181 795.155 125.181C795.623 125.181 796.009 125.073 796.312 124.856C796.615 124.639 796.836 124.332 796.975 123.933C797.122 123.526 797.196 123.049 797.196 122.503C797.196 121.948 797.122 121.476 796.975 121.086C796.828 120.696 796.602 120.397 796.299 120.189C796.004 119.972 795.619 119.864 795.142 119.864C794.431 119.864 793.916 120.098 793.595 120.566C793.274 121.034 793.114 121.68 793.114 122.503ZM803.273 119.916H801.518V126H800.374V119.916H799.152V119.383L800.374 118.993V118.59C800.374 117.992 800.461 117.507 800.634 117.134C800.816 116.761 801.076 116.488 801.414 116.315C801.752 116.142 802.159 116.055 802.636 116.055C802.913 116.055 803.165 116.081 803.39 116.133C803.624 116.176 803.823 116.228 803.988 116.289L803.689 117.186C803.55 117.143 803.39 117.099 803.208 117.056C803.026 117.013 802.84 116.991 802.649 116.991C802.268 116.991 801.982 117.121 801.791 117.381C801.609 117.632 801.518 118.031 801.518 118.577V119.032H803.273V119.916ZM807.745 119.916H805.99V126H804.846V119.916H803.624V119.383L804.846 118.993V118.59C804.846 117.992 804.933 117.507 805.106 117.134C805.288 116.761 805.548 116.488 805.886 116.315C806.224 116.142 806.631 116.055 807.108 116.055C807.385 116.055 807.637 116.081 807.862 116.133C808.096 116.176 808.295 116.228 808.46 116.289L808.161 117.186C808.022 117.143 807.862 117.099 807.68 117.056C807.498 117.013 807.312 116.991 807.121 116.991C806.74 116.991 806.454 117.121 806.263 117.381C806.081 117.632 805.99 118.031 805.99 118.577V119.032H807.745V119.916ZM810.15 119.032V126H809.006V119.032H810.15ZM809.591 116.419C809.764 116.419 809.916 116.48 810.046 116.601C810.185 116.714 810.254 116.896 810.254 117.147C810.254 117.39 810.185 117.572 810.046 117.693C809.916 117.814 809.764 117.875 809.591 117.875C809.4 117.875 809.24 117.814 809.11 117.693C808.98 117.572 808.915 117.39 808.915 117.147C808.915 116.896 808.98 116.714 809.11 116.601C809.24 116.48 809.4 116.419 809.591 116.419ZM815.029 126.13C814.413 126.13 813.863 126.004 813.378 125.753C812.901 125.502 812.524 125.112 812.247 124.583C811.978 124.054 811.844 123.378 811.844 122.555C811.844 121.697 811.987 120.999 812.273 120.462C812.559 119.925 812.944 119.53 813.43 119.279C813.924 119.028 814.483 118.902 815.107 118.902C815.462 118.902 815.804 118.941 816.134 119.019C816.463 119.088 816.732 119.175 816.94 119.279L816.589 120.228C816.381 120.15 816.138 120.076 815.861 120.007C815.583 119.938 815.323 119.903 815.081 119.903C814.613 119.903 814.227 120.003 813.924 120.202C813.62 120.401 813.395 120.696 813.248 121.086C813.1 121.476 813.027 121.961 813.027 122.542C813.027 123.097 813.1 123.569 813.248 123.959C813.395 124.349 813.616 124.644 813.911 124.843C814.205 125.042 814.574 125.142 815.016 125.142C815.397 125.142 815.731 125.103 816.017 125.025C816.311 124.947 816.58 124.852 816.823 124.739V125.753C816.589 125.874 816.329 125.965 816.043 126.026C815.765 126.095 815.427 126.13 815.029 126.13ZM819.494 119.032V126H818.35V119.032H819.494ZM818.935 116.419C819.108 116.419 819.26 116.48 819.39 116.601C819.529 116.714 819.598 116.896 819.598 117.147C819.598 117.39 819.529 117.572 819.39 117.693C819.26 117.814 819.108 117.875 818.935 117.875C818.744 117.875 818.584 117.814 818.454 117.693C818.324 117.572 818.259 117.39 818.259 117.147C818.259 116.896 818.324 116.714 818.454 116.601C818.584 116.48 818.744 116.419 818.935 116.419ZM824.21 118.915C825.06 118.915 825.688 119.101 826.095 119.474C826.503 119.847 826.706 120.44 826.706 121.255V126H825.874L825.653 125.012H825.601C825.402 125.263 825.194 125.476 824.977 125.649C824.769 125.814 824.527 125.935 824.249 126.013C823.981 126.091 823.651 126.13 823.261 126.13C822.845 126.13 822.468 126.056 822.13 125.909C821.801 125.762 821.541 125.536 821.35 125.233C821.16 124.921 821.064 124.531 821.064 124.063C821.064 123.37 821.337 122.837 821.883 122.464C822.429 122.083 823.27 121.875 824.405 121.84L825.588 121.801V121.385C825.588 120.804 825.463 120.401 825.211 120.176C824.96 119.951 824.605 119.838 824.145 119.838C823.781 119.838 823.435 119.894 823.105 120.007C822.776 120.111 822.468 120.232 822.182 120.371L821.831 119.513C822.135 119.348 822.494 119.21 822.91 119.097C823.326 118.976 823.76 118.915 824.21 118.915ZM824.548 122.633C823.682 122.668 823.079 122.806 822.741 123.049C822.412 123.292 822.247 123.634 822.247 124.076C822.247 124.466 822.364 124.752 822.598 124.934C822.841 125.116 823.149 125.207 823.521 125.207C824.111 125.207 824.6 125.047 824.99 124.726C825.38 124.397 825.575 123.894 825.575 123.218V122.594L824.548 122.633ZM829.873 126H828.729V116.12H829.873V126ZM841.778 121.359C841.778 121.758 841.73 122.148 841.635 122.529C841.548 122.91 841.41 123.257 841.219 123.569C841.028 123.872 840.794 124.119 840.517 124.31C840.24 124.492 839.91 124.583 839.529 124.583C839.13 124.583 838.814 124.47 838.58 124.245C838.355 124.011 838.216 123.747 838.164 123.452H838.099C837.943 123.773 837.713 124.041 837.41 124.258C837.107 124.475 836.725 124.583 836.266 124.583C835.607 124.583 835.096 124.362 834.732 123.92C834.377 123.478 834.199 122.893 834.199 122.165C834.199 121.593 834.312 121.09 834.537 120.657C834.762 120.215 835.079 119.868 835.486 119.617C835.902 119.366 836.392 119.24 836.955 119.24C837.336 119.24 837.709 119.275 838.073 119.344C838.446 119.405 838.736 119.474 838.944 119.552L838.814 122.191C838.805 122.347 838.801 122.46 838.801 122.529C838.801 122.59 838.801 122.633 838.801 122.659C838.801 123.11 838.879 123.409 839.035 123.556C839.2 123.703 839.39 123.777 839.607 123.777C839.876 123.777 840.101 123.669 840.283 123.452C840.474 123.227 840.617 122.932 840.712 122.568C840.816 122.195 840.868 121.788 840.868 121.346C840.868 120.54 840.703 119.86 840.374 119.305C840.053 118.742 839.607 118.313 839.035 118.018C838.472 117.723 837.83 117.576 837.111 117.576C836.374 117.576 835.72 117.693 835.148 117.927C834.576 118.161 834.095 118.49 833.705 118.915C833.324 119.34 833.033 119.842 832.834 120.423C832.635 120.995 832.535 121.628 832.535 122.321C832.535 123.17 832.687 123.894 832.99 124.492C833.293 125.081 833.735 125.532 834.316 125.844C834.905 126.147 835.625 126.299 836.474 126.299C837.003 126.299 837.505 126.238 837.982 126.117C838.467 126.004 838.896 125.879 839.269 125.74V126.624C838.896 126.78 838.476 126.906 838.008 127.001C837.549 127.105 837.037 127.157 836.474 127.157C835.451 127.157 834.576 126.966 833.848 126.585C833.12 126.204 832.561 125.658 832.171 124.947C831.79 124.228 831.599 123.365 831.599 122.36C831.599 121.554 831.725 120.809 831.976 120.124C832.227 119.431 832.591 118.833 833.068 118.33C833.545 117.819 834.121 117.424 834.797 117.147C835.482 116.861 836.253 116.718 837.111 116.718C837.787 116.718 838.407 116.826 838.97 117.043C839.542 117.251 840.036 117.559 840.452 117.966C840.877 118.365 841.202 118.85 841.427 119.422C841.661 119.994 841.778 120.64 841.778 121.359ZM835.213 122.191C835.213 122.746 835.321 123.149 835.538 123.4C835.763 123.651 836.062 123.777 836.435 123.777C836.92 123.777 837.267 123.595 837.475 123.231C837.692 122.867 837.817 122.395 837.852 121.814L837.93 120.189C837.817 120.154 837.674 120.124 837.501 120.098C837.328 120.072 837.15 120.059 836.968 120.059C836.543 120.059 836.201 120.163 835.941 120.371C835.681 120.579 835.495 120.848 835.382 121.177C835.269 121.498 835.213 121.836 835.213 122.191ZM845.982 118.902C846.442 118.902 846.853 118.989 847.217 119.162C847.59 119.335 847.906 119.6 848.166 119.955H848.231L848.387 119.032H849.297V126.117C849.297 126.776 849.185 127.326 848.959 127.768C848.734 128.219 848.392 128.557 847.932 128.782C847.473 129.007 846.888 129.12 846.177 129.12C845.675 129.12 845.211 129.081 844.786 129.003C844.37 128.934 843.998 128.825 843.668 128.678V127.625C843.894 127.738 844.141 127.833 844.409 127.911C844.678 127.998 844.968 128.063 845.28 128.106C845.592 128.149 845.913 128.171 846.242 128.171C846.84 128.171 847.308 127.993 847.646 127.638C847.993 127.291 848.166 126.815 848.166 126.208V125.935C848.166 125.831 848.171 125.684 848.179 125.493C848.188 125.294 848.197 125.155 848.205 125.077H848.153C847.911 125.432 847.607 125.697 847.243 125.87C846.888 126.043 846.472 126.13 845.995 126.13C845.094 126.13 844.388 125.814 843.876 125.181C843.374 124.548 843.122 123.664 843.122 122.529C843.122 121.784 843.235 121.142 843.46 120.605C843.694 120.059 844.024 119.639 844.448 119.344C844.873 119.049 845.384 118.902 845.982 118.902ZM846.138 119.864C845.748 119.864 845.415 119.968 845.137 120.176C844.869 120.384 844.661 120.687 844.513 121.086C844.375 121.485 844.305 121.97 844.305 122.542C844.305 123.4 844.461 124.059 844.773 124.518C845.094 124.969 845.558 125.194 846.164 125.194C846.52 125.194 846.823 125.151 847.074 125.064C847.326 124.969 847.534 124.826 847.698 124.635C847.863 124.436 847.984 124.184 848.062 123.881C848.14 123.578 848.179 123.218 848.179 122.802V122.529C848.179 121.896 848.106 121.385 847.958 120.995C847.82 120.605 847.599 120.319 847.295 120.137C846.992 119.955 846.606 119.864 846.138 119.864ZM859.025 118.902C859.813 118.902 860.403 119.106 860.793 119.513C861.183 119.912 861.378 120.562 861.378 121.463V126H860.247V121.515C860.247 120.969 860.13 120.557 859.896 120.28C859.67 120.003 859.315 119.864 858.83 119.864C858.154 119.864 857.668 120.059 857.374 120.449C857.088 120.839 856.945 121.407 856.945 122.152V126H855.814V121.515C855.814 121.151 855.762 120.848 855.658 120.605C855.554 120.354 855.398 120.167 855.19 120.046C854.982 119.925 854.713 119.864 854.384 119.864C853.916 119.864 853.547 119.964 853.279 120.163C853.01 120.354 852.815 120.635 852.694 121.008C852.581 121.381 852.525 121.84 852.525 122.386V126H851.381V119.032H852.304L852.473 119.981H852.538C852.685 119.738 852.863 119.539 853.071 119.383C853.287 119.218 853.526 119.097 853.786 119.019C854.046 118.941 854.314 118.902 854.592 118.902C855.129 118.902 855.575 118.997 855.931 119.188C856.295 119.379 856.559 119.673 856.724 120.072H856.789C857.023 119.673 857.339 119.379 857.738 119.188C858.145 118.997 858.574 118.902 859.025 118.902ZM866.039 118.915C866.888 118.915 867.517 119.101 867.924 119.474C868.331 119.847 868.535 120.44 868.535 121.255V126H867.703L867.482 125.012H867.43C867.231 125.263 867.023 125.476 866.806 125.649C866.598 125.814 866.355 125.935 866.078 126.013C865.809 126.091 865.48 126.13 865.09 126.13C864.674 126.13 864.297 126.056 863.959 125.909C863.63 125.762 863.37 125.536 863.179 125.233C862.988 124.921 862.893 124.531 862.893 124.063C862.893 123.37 863.166 122.837 863.712 122.464C864.258 122.083 865.099 121.875 866.234 121.84L867.417 121.801V121.385C867.417 120.804 867.291 120.401 867.04 120.176C866.789 119.951 866.433 119.838 865.974 119.838C865.61 119.838 865.263 119.894 864.934 120.007C864.605 120.111 864.297 120.232 864.011 120.371L863.66 119.513C863.963 119.348 864.323 119.21 864.739 119.097C865.155 118.976 865.588 118.915 866.039 118.915ZM866.377 122.633C865.51 122.668 864.908 122.806 864.57 123.049C864.241 123.292 864.076 123.634 864.076 124.076C864.076 124.466 864.193 124.752 864.427 124.934C864.67 125.116 864.977 125.207 865.35 125.207C865.939 125.207 866.429 125.047 866.819 124.726C867.209 124.397 867.404 123.894 867.404 123.218V122.594L866.377 122.633ZM871.701 119.032V126H870.557V119.032H871.701ZM871.142 116.419C871.315 116.419 871.467 116.48 871.597 116.601C871.736 116.714 871.805 116.896 871.805 117.147C871.805 117.39 871.736 117.572 871.597 117.693C871.467 117.814 871.315 117.875 871.142 117.875C870.951 117.875 870.791 117.814 870.661 117.693C870.531 117.572 870.466 117.39 870.466 117.147C870.466 116.896 870.531 116.714 870.661 116.601C870.791 116.48 870.951 116.419 871.142 116.419ZM874.923 126H873.779V116.12H874.923V126ZM876.831 125.298C876.831 124.977 876.909 124.752 877.065 124.622C877.221 124.492 877.407 124.427 877.624 124.427C877.849 124.427 878.04 124.492 878.196 124.622C878.361 124.752 878.443 124.977 878.443 125.298C878.443 125.61 878.361 125.835 878.196 125.974C878.04 126.113 877.849 126.182 877.624 126.182C877.407 126.182 877.221 126.113 877.065 125.974C876.909 125.835 876.831 125.61 876.831 125.298ZM883.144 126.13C882.528 126.13 881.978 126.004 881.493 125.753C881.016 125.502 880.639 125.112 880.362 124.583C880.093 124.054 879.959 123.378 879.959 122.555C879.959 121.697 880.102 120.999 880.388 120.462C880.674 119.925 881.059 119.53 881.545 119.279C882.039 119.028 882.598 118.902 883.222 118.902C883.577 118.902 883.919 118.941 884.249 119.019C884.578 119.088 884.847 119.175 885.055 119.279L884.704 120.228C884.496 120.15 884.253 120.076 883.976 120.007C883.698 119.938 883.438 119.903 883.196 119.903C882.728 119.903 882.342 120.003 882.039 120.202C881.735 120.401 881.51 120.696 881.363 121.086C881.215 121.476 881.142 121.961 881.142 122.542C881.142 123.097 881.215 123.569 881.363 123.959C881.51 124.349 881.731 124.644 882.026 124.843C882.32 125.042 882.689 125.142 883.131 125.142C883.512 125.142 883.846 125.103 884.132 125.025C884.426 124.947 884.695 124.852 884.938 124.739V125.753C884.704 125.874 884.444 125.965 884.158 126.026C883.88 126.095 883.542 126.13 883.144 126.13ZM892.523 122.503C892.523 123.084 892.445 123.599 892.289 124.05C892.141 124.492 891.925 124.869 891.639 125.181C891.361 125.493 891.019 125.731 890.612 125.896C890.213 126.052 889.767 126.13 889.273 126.13C888.813 126.13 888.389 126.052 887.999 125.896C887.609 125.731 887.271 125.493 886.985 125.181C886.699 124.869 886.473 124.492 886.309 124.05C886.153 123.599 886.075 123.084 886.075 122.503C886.075 121.732 886.205 121.082 886.465 120.553C886.725 120.016 887.097 119.608 887.583 119.331C888.068 119.045 888.644 118.902 889.312 118.902C889.944 118.902 890.499 119.045 890.976 119.331C891.461 119.608 891.838 120.016 892.107 120.553C892.384 121.082 892.523 121.732 892.523 122.503ZM887.258 122.503C887.258 123.049 887.327 123.526 887.466 123.933C887.613 124.332 887.838 124.639 888.142 124.856C888.445 125.073 888.831 125.181 889.299 125.181C889.767 125.181 890.152 125.073 890.456 124.856C890.759 124.639 890.98 124.332 891.119 123.933C891.266 123.526 891.34 123.049 891.34 122.503C891.34 121.948 891.266 121.476 891.119 121.086C890.971 120.696 890.746 120.397 890.443 120.189C890.148 119.972 889.762 119.864 889.286 119.864C888.575 119.864 888.059 120.098 887.739 120.566C887.418 121.034 887.258 121.68 887.258 122.503ZM901.85 118.902C902.638 118.902 903.228 119.106 903.618 119.513C904.008 119.912 904.203 120.562 904.203 121.463V126H903.072V121.515C903.072 120.969 902.955 120.557 902.721 120.28C902.495 120.003 902.14 119.864 901.655 119.864C900.979 119.864 900.493 120.059 900.199 120.449C899.913 120.839 899.77 121.407 899.77 122.152V126H898.639V121.515C898.639 121.151 898.587 120.848 898.483 120.605C898.379 120.354 898.223 120.167 898.015 120.046C897.807 119.925 897.538 119.864 897.209 119.864C896.741 119.864 896.372 119.964 896.104 120.163C895.835 120.354 895.64 120.635 895.519 121.008C895.406 121.381 895.35 121.84 895.35 122.386V126H894.206V119.032H895.129L895.298 119.981H895.363C895.51 119.738 895.688 119.539 895.896 119.383C896.112 119.218 896.351 119.097 896.611 119.019C896.871 118.941 897.139 118.902 897.417 118.902C897.954 118.902 898.4 118.997 898.756 119.188C899.12 119.379 899.384 119.673 899.549 120.072H899.614C899.848 119.673 900.164 119.379 900.563 119.188C900.97 118.997 901.399 118.902 901.85 118.902Z" fill="#A9AFB6"/>
<a href="mailto:beentime.official@gmail.com">
<rect fill="black" fill-opacity="0" x="730.661" y="21.147" width="174.595" height="17.706"/>
</a>
<defs>
<clipPath id="clip0_1378_13860">
<rect width="116" height="17" fill="white" transform="translate(662 60)"/>
</clipPath>
</defs>
</svg>
