<svg width="50" height="50" viewBox="0 0 50 50" fill="none" xmlns="http://www.w3.org/2000/svg">
<g id="favicon">
<rect width="50" height="50" fill="white"/>
<path id="Vector" d="M6 11.2486V4H19.2542V11.2486H6ZM10.8193 45.7834V4H19.7936V45.7834H10.8193ZM29.1469 16.6535C31.6881 16.4462 35.4151 17.3613 37.3811 18.619C39.3843 19.9102 41.0327 21.6917 42.1737 23.7985C43.4198 26.106 44.0483 28.7026 43.9971 31.3311C44.0132 33.3195 43.6342 35.2909 42.8826 37.1283C42.1574 38.8838 41.0795 40.468 39.7173 41.7804C38.3225 43.1139 36.6861 44.1624 34.898 44.8683C32.9443 45.6353 30.8636 46.0178 28.768 45.9952C26.6455 46.054 24.5428 45.5686 22.6558 44.5843C21.033 43.7087 19.5668 42.5644 18.318 41.1989C17.1291 39.8856 16.1156 38.6985 15.2775 37.6377L15.4647 30.4611C16.3564 31.5565 18.0772 33.247 19.1472 34.4641C20.3553 35.8165 20.4311 36.4205 22.2947 37.4889C23.5558 38.1932 24.9781 38.5492 26.4185 38.5212C27.5546 38.5386 28.6853 38.3602 29.7621 37.9938C30.6961 37.6677 31.5568 37.1575 32.2944 36.4927C32.9924 35.8484 33.538 35.0534 33.8904 34.1666C34.2572 33.23 34.4404 32.2303 34.4298 31.223C34.4546 29.9719 34.176 28.7338 33.6184 27.6167C33.0892 26.573 32.2735 25.7058 31.269 25.1193C30.1559 24.492 28.8959 24.1805 27.6222 24.2178C26.0618 24.1713 24.5327 24.666 23.2888 25.6197C21.7017 26.7782 20.7833 28.3515 19.3567 30.4341C17.9301 32.5167 16.0398 35.3206 15.1571 38.0975V31.6828C16.0799 28.6264 15.7768 26.5303 17.4664 24.2944C19.1561 22.0585 20.2305 20.0209 22.9144 18.4793C24.8294 17.4038 26.9599 16.7797 29.1469 16.6535Z" fill="black"/>
</g>
</svg>
