<svg width="26" height="26" viewBox="0 0 26 26" fill="none" xmlns="http://www.w3.org/2000/svg">
<path d="M17.3792 23.05H17.5L17.4961 23.0461C18.9142 22.9841 20.05 21.8111 20.05 20.3768V15.0911C20.05 14.7025 19.7347 14.3872 19.3461 14.3872C18.9575 14.3872 18.6422 14.7025 18.6422 15.0911V20.3768C18.6422 21.0736 18.0748 21.641 17.3779 21.641H5.62212C4.92522 21.641 4.35779 21.0736 4.35779 20.3768V8.62192C4.35779 7.92508 4.92522 7.35769 5.62212 7.35769H11.5007C11.8892 7.35769 12.2045 7.04239 12.2045 6.65385C12.2045 6.2653 11.8892 5.95 11.5007 5.95H5.62212C4.14942 5.95 2.95 7.14798 2.95 8.62192V20.3781C2.95 21.8507 4.14808 23.05 5.62212 23.05H17.3792Z" fill="black" stroke="black" stroke-width="0.1"/>
<path d="M10.2731 12.0712L10.2731 12.0713L9.95739 15.0959C9.95739 15.0959 9.95739 15.0959 9.95738 15.0959C9.91548 15.4924 10.0533 15.8817 10.3359 16.1643C10.5849 16.4134 10.918 16.55 11.2654 16.55C11.3121 16.55 11.3576 16.5476 11.4042 16.5428L11.4042 16.5428L14.4289 16.2271L14.429 16.2271C14.7781 16.1902 15.109 16.0318 15.359 15.7818L22.5976 8.54322C23.1901 7.9507 23.2033 6.99606 22.6229 6.41572L20.0845 3.87727C19.5041 3.29692 18.5495 3.31009 17.957 3.90262L10.7184 11.1412C10.4672 11.3924 10.31 11.7221 10.2731 12.0712ZM11.2224 15.2778L11.2224 15.2778L11.2212 15.2767C11.2116 15.2677 11.2007 15.2512 11.2034 15.225C11.2034 15.225 11.2034 15.2249 11.2034 15.2249L11.5191 12.2005C11.5191 12.2005 11.5191 12.2004 11.5191 12.2004C11.5259 12.1372 11.5552 12.0751 11.6038 12.0265L18.8423 4.78798C18.9001 4.73021 18.9739 4.70123 19.0432 4.70123H19.0443C19.1028 4.70123 19.1588 4.7223 19.1991 4.76263L21.7373 7.30077C21.7373 7.30081 21.7373 7.30086 21.7374 7.30091C21.7888 7.35328 21.7989 7.41491 21.799 7.46208C21.7969 7.53378 21.7668 7.60331 21.7122 7.65786L14.4737 14.8964C14.426 14.944 14.3639 14.9743 14.2998 14.9811L11.2753 15.2968C11.25 15.2994 11.2329 15.2883 11.2224 15.2778Z" fill="black" stroke="black" stroke-width="0.1"/>
</svg>
