<svg width="148" height="21" viewBox="0 0 148 21" fill="none" xmlns="http://www.w3.org/2000/svg">
<g clip-path="url(#clip0_1378_25252)">
<path d="M44.3243 5.97027C45.4076 5.96937 46.485 6.12365 47.522 6.42816C48.5352 6.72158 49.489 7.18258 50.3414 7.79092C51.2033 8.39464 51.9002 9.19448 52.3713 10.1206C52.8423 11.0467 53.0732 12.071 53.0436 13.1039C53.0659 14.1925 52.8204 15.2704 52.3275 16.2479C51.8498 17.1681 51.1785 17.9803 50.3571 18.6316C49.5188 19.3022 48.564 19.8216 47.5378 20.1653C46.4737 20.5225 45.3554 20.7025 44.2298 20.6976C42.9882 20.7203 41.752 20.535 40.575 20.1499C39.6219 19.8479 38.7675 19.3069 38.0979 18.5812C37.504 17.9126 37.1834 17.0549 37.1972 16.1712C37.1617 15.2873 37.4779 14.4241 38.0799 13.7612C38.7087 13.1042 39.5004 12.6154 40.3791 12.3415C41.3549 12.019 42.3795 11.8583 43.4101 11.866C44.5347 11.8426 45.6562 11.9904 46.7339 12.3042C47.6923 12.6093 48.625 12.9858 49.5239 13.4304V15.9455C48.6087 15.5096 47.639 15.1914 46.6393 14.9991C45.9784 14.8897 45.3099 14.8304 44.6396 14.8216C44.1449 14.8276 43.6527 14.8916 43.1736 15.0122C42.8446 15.09 42.5416 15.2484 42.2932 15.4723C42.1983 15.5601 42.1228 15.6658 42.0713 15.783C42.0198 15.9001 41.9934 16.0263 41.9937 16.1537C41.9971 16.3146 42.0459 16.4714 42.1349 16.6071C42.2239 16.7427 42.3495 16.8519 42.4981 16.9227C42.9127 17.1382 43.3796 17.2404 43.8492 17.2185C44.4303 17.2196 45.0069 17.1194 45.5516 16.9227C46.0892 16.7296 46.5894 16.4496 47.0311 16.0945C47.4626 15.7501 47.8212 15.3274 48.0872 14.8501C48.3526 14.3679 48.4881 13.8283 48.4813 13.2814C48.5043 12.5863 48.3001 11.9021 47.8981 11.3271C47.5013 10.7891 46.9542 10.3732 46.3218 10.1286C45.6263 9.85654 44.8824 9.72102 44.1329 9.72989C43.0798 9.71522 42.0331 9.89053 41.0456 10.2469C40.183 10.5602 39.3667 10.983 38.6181 11.5045L36.668 8.57965C37.3183 8.0521 38.0258 7.59515 38.778 7.2169C39.5877 6.81112 40.4452 6.50285 41.3316 6.29891C42.3123 6.07455 43.3169 5.96423 44.3243 5.97027Z" fill="black"/>
<path d="M27.2814 5.97028C28.3653 5.96942 29.4435 6.1237 30.4813 6.42817C31.4943 6.72204 32.448 7.183 33.3006 7.79094C34.1622 8.39505 34.8588 9.19496 35.3298 10.121C35.8008 11.047 36.0319 12.0711 36.0029 13.1039C36.0245 14.1926 35.7782 15.2706 35.2846 16.2479C34.8084 17.1685 34.1377 17.9808 33.3164 18.6316C32.4778 19.3018 31.523 19.8211 30.4971 20.1653C29.433 20.5224 28.3146 20.7023 27.1891 20.6977C25.9475 20.7207 24.7111 20.5354 23.5343 20.1499C22.5809 19.8485 21.7264 19.3074 21.0572 18.5812C20.4625 17.913 20.1418 17.055 20.1565 16.1712C20.121 15.2873 20.4372 14.4241 21.0392 13.7612C21.6685 13.1048 22.46 12.616 23.3383 12.3415C24.3142 12.0191 25.3388 11.8584 26.3694 11.866C27.494 11.8426 28.6155 11.9904 29.6931 12.3042C30.6502 12.609 31.5815 12.9855 32.4787 13.4304V15.9455C31.5641 15.51 30.5952 15.1918 29.5963 14.9991C28.9347 14.8898 28.2654 14.8305 27.5944 14.8216C27.1004 14.8276 26.6089 14.8916 26.1307 15.0122C25.801 15.0901 25.4972 15.2484 25.2479 15.4723C25.1535 15.5604 25.0783 15.6662 25.0268 15.7833C24.9753 15.9004 24.9487 16.0264 24.9484 16.1537C24.9518 16.3146 25.0007 16.4714 25.0897 16.6071C25.1787 16.7427 25.3043 16.8519 25.4529 16.9227C25.8676 17.138 26.3344 17.2402 26.804 17.2185C27.3851 17.22 27.9618 17.1199 28.5064 16.9227C29.0497 16.7315 29.5554 16.4514 30.0016 16.0945C30.4329 15.7505 30.791 15.3278 31.0555 14.8501C31.3208 14.3679 31.4564 13.8283 31.4496 13.2814C31.4723 12.5867 31.269 11.9027 30.8686 11.3271C30.4718 10.7891 29.9247 10.3732 29.2923 10.1286C28.5968 9.85694 27.8529 9.72144 27.1035 9.7299C26.0497 9.71567 25.0022 9.89096 24.0139 10.247C23.1522 10.5607 22.3368 10.9835 21.5886 11.5045L19.625 8.57966C20.2761 8.05209 20.9844 7.59515 21.7373 7.21692C22.546 6.8108 23.4029 6.50251 24.2886 6.29892C25.2694 6.0748 26.274 5.96449 27.2814 5.97028Z" fill="black"/>
<path d="M53.5742 10.1987V6.67574H59.6092V10.1987H53.5742ZM53.5742 20.6188V17.0958H63.0479V20.6297L53.5742 20.6188ZM56.1098 20.6188V6.67574H60.7352V20.6297L56.1098 20.6188ZM67.8534 20.6188V13.2178C67.8576 12.8602 67.7958 12.5048 67.671 12.1684C67.554 11.8507 67.3733 11.5588 67.1395 11.3095C66.901 11.0604 66.6109 10.8633 66.2883 10.7311C65.9255 10.5895 65.5374 10.5195 65.1466 10.5252C64.6441 10.5285 64.1473 10.629 63.6851 10.821C63.15 11.0486 62.6528 11.3528 62.2102 11.7236C61.6633 12.1771 61.1592 12.6772 60.7037 13.2178C60.1977 13.8123 59.6723 14.5032 59.1274 15.2904V11.7674C59.8374 10.8414 60.5062 10.0381 61.1338 9.35743C61.6955 8.73871 62.3119 8.16909 62.9758 7.65509C63.5333 7.22294 64.1602 6.88317 64.8313 6.64945C66.2897 6.18115 67.8696 6.21752 69.3036 6.75242C69.9948 7.03435 70.5981 7.48759 71.0533 8.06697C71.5516 8.71149 71.9136 9.44573 72.1184 10.2272C72.377 11.2082 72.4997 12.2184 72.4832 13.231V20.6297L67.8534 20.6188ZM65.5429 20.6188V17.0958H74.5887V20.6297L65.5429 20.6188Z" fill="black"/>
<path d="M89.7422 20.6451V17.1243H99.468V20.6473L89.7422 20.6451ZM94.5612 8.46352C93.9008 8.47686 93.2588 8.25124 92.7597 7.83036C92.5197 7.63844 92.3272 7.39636 92.1966 7.12212C92.066 6.84788 92.0006 6.54852 92.0053 6.24631C91.9969 5.93307 92.0602 5.62194 92.1907 5.33545C92.3212 5.04897 92.5155 4.79432 92.7597 4.58997C93.2531 4.15701 93.8968 3.92213 94.5612 3.9327C95.2554 3.90536 95.9334 4.14096 96.4528 4.58997C96.6898 4.79844 96.8774 5.05455 97.0026 5.34055C97.1278 5.62655 97.1876 5.9356 97.1779 6.24631C97.1841 6.54596 97.1223 6.84325 96.997 7.11704C96.8716 7.39082 96.6858 7.63437 96.4528 7.83036C95.9274 8.26692 95.2514 8.49321 94.5612 8.46352ZM92.2755 20.6451V9.86353H96.9009V20.6451H92.2755Z" fill="black"/>
<path d="M100.688 10.225V6.70203H106.317V10.225H100.688ZM100.688 20.6451V17.1243H110.168V20.6473L100.688 20.6451ZM103.223 19.462V6.70203H107.848V19.462H103.223ZM114.208 19.462V13.0667C114.213 12.6394 114.124 12.2161 113.949 11.8244C113.78 11.4554 113.512 11.138 113.172 10.9064C112.795 10.6606 112.348 10.5364 111.895 10.5515C111.224 10.5635 110.568 10.7471 109.992 11.0839C109.27 11.5082 108.627 12.049 108.092 12.6832C107.387 13.4987 106.765 14.3792 106.236 15.3124V11.7937C106.782 10.7193 107.478 9.7232 108.303 8.8338C109.014 8.06958 109.865 7.44228 110.814 6.98466C111.69 6.5658 112.653 6.34771 113.629 6.3471C114.378 6.33837 115.12 6.48787 115.804 6.78529C116.452 7.07858 117.016 7.52072 117.448 8.07355C117.931 8.70133 118.282 9.41521 118.482 10.1747C118.729 11.1224 118.846 12.0978 118.831 13.0754V19.4707L114.208 19.462ZM111.895 20.6451V17.1243H121.083V20.6473L111.895 20.6451ZM125.1 19.462V13.0667C125.103 12.7463 125.056 12.4273 124.963 12.1202C124.874 11.83 124.729 11.5587 124.537 11.3205C124.344 11.0839 124.099 10.8916 123.821 10.7574C123.517 10.6165 123.184 10.546 122.848 10.5515C122.173 10.5641 121.512 10.7476 120.932 11.0839C120.205 11.5025 119.56 12.0441 119.029 12.6832C118.333 13.5021 117.717 14.3822 117.189 15.3124V11.7937C117.735 10.7187 118.431 9.72255 119.259 8.8338C119.965 8.07157 120.811 7.44443 121.754 6.98466C122.624 6.56452 123.582 6.34629 124.553 6.3471C125.292 6.34003 126.023 6.48955 126.697 6.78529C127.344 7.07858 127.908 7.52072 128.341 8.07355C128.824 8.70083 129.175 9.41488 129.374 10.1747C129.623 11.1221 129.741 12.0976 129.725 13.0754V19.4707L125.1 19.462ZM122.848 20.6451V17.1243H131.833V20.6473L122.848 20.6451Z" fill="black"/>
<path d="M140.464 20.8488C139.395 20.8502 138.332 20.6951 137.311 20.3887C136.311 20.0952 135.372 19.6348 134.534 19.0282C133.681 18.4192 132.992 17.6173 132.527 16.6918C132.063 15.7662 131.837 14.7447 131.868 13.7152C131.85 12.6289 132.093 11.5536 132.58 10.5756C133.048 9.65844 133.708 8.8471 134.519 8.19405C135.342 7.52539 136.283 7.00595 137.295 6.66041C138.342 6.30321 139.444 6.12315 140.554 6.12801C141.778 6.10569 142.997 6.29027 144.157 6.67355C145.097 6.97855 145.937 7.5206 146.591 8.24444C147.178 8.91622 147.492 9.7731 147.476 10.6545C147.508 11.5316 147.198 12.3882 146.607 13.0513C145.991 13.708 145.21 14.198 144.341 14.4732C143.383 14.7931 142.377 14.9531 141.364 14.9465C140.256 14.9698 139.151 14.8219 138.09 14.5083C137.147 14.2028 136.229 13.827 135.345 13.3844V10.8757C136.244 11.3126 137.199 11.6316 138.185 11.8244C138.836 11.9337 139.494 11.993 140.155 12.0019C140.642 11.9953 141.126 11.9305 141.596 11.8091C141.922 11.7324 142.221 11.5746 142.465 11.3512C142.559 11.2624 142.633 11.1564 142.683 11.0394C142.734 10.9224 142.76 10.7967 142.76 10.6698C142.758 10.5096 142.71 10.3532 142.622 10.2176C142.534 10.0821 142.41 9.97247 142.263 9.90079C141.855 9.68442 141.394 9.58133 140.93 9.60281C140.357 9.60267 139.79 9.70364 139.254 9.90079C138.724 10.0941 138.231 10.3741 137.797 10.729C137.371 11.0736 137.018 11.4955 136.757 11.9712C136.473 12.5243 136.342 13.1393 136.374 13.7566C136.407 14.3739 136.603 14.9724 136.944 15.4942C137.331 16.0313 137.87 16.4476 138.495 16.6927C139.179 16.9661 139.912 17.1024 140.65 17.0936C141.688 17.1073 142.72 16.9312 143.69 16.5743C144.541 16.2611 145.345 15.8381 146.08 15.3167L148.003 18.2482C147.363 18.7736 146.666 19.2298 145.924 19.6088C145.129 20.0154 144.285 20.3238 143.411 20.5268C142.446 20.7489 141.456 20.8571 140.464 20.8488Z" fill="black"/>
<path d="M73.4121 10.1659V6.64288H88.5672V10.1659H73.4121ZM83.3204 21C82.2044 21.0315 81.102 20.755 80.1407 20.2025C79.2603 19.6712 78.5614 18.8982 78.132 17.9809C77.661 16.9472 77.4303 15.825 77.4565 14.6945V2.76495H82.0818V14.3768C82.0784 14.7916 82.1548 15.2032 82.307 15.5906C82.4387 15.9321 82.6744 16.2264 82.9826 16.4341C83.3355 16.6548 83.7502 16.7635 84.1693 16.7452C84.6658 16.7466 85.1615 16.707 85.651 16.6269C86.2066 16.4747 86.7519 16.2889 87.2837 16.0704L88.5898 19.6723C87.8426 20.0896 87.0504 20.4254 86.2275 20.6736C85.2787 20.9047 84.3029 21.0145 83.3249 21H83.3204Z" fill="black"/>
<path d="M0 3.52303V3.05176e-05H6.69482V3.52303H0ZM2.43428 20.3077V3.05176e-05H6.9673V20.3077H2.43428ZM11.6917 6.14994C12.9753 6.04916 14.8579 6.49393 15.8509 7.10519C16.8627 7.73275 17.6954 8.59861 18.2717 9.62256C18.9011 10.7441 19.2186 12.006 19.1927 13.2836C19.2009 14.25 19.0094 15.2081 18.6298 16.1011C18.2635 16.9544 17.719 17.7243 17.0309 18.3622C16.3264 19.0103 15.4999 19.5199 14.5967 19.8629C13.6098 20.2357 12.5589 20.4216 11.5003 20.4107C10.4282 20.4392 9.36615 20.2033 8.413 19.7249C7.59333 19.2993 6.85272 18.7432 6.22193 18.0795C5.62143 17.4412 5.10951 16.8643 4.68615 16.3487L4.78073 12.8607C5.2311 13.3931 6.10033 14.2147 6.64078 14.8063C7.25104 15.4636 7.28932 15.7571 8.2306 16.2764C8.8676 16.6187 9.58602 16.7917 10.3136 16.7781C10.8874 16.7866 11.4586 16.6999 12.0025 16.5218C12.4743 16.3633 12.909 16.1153 13.2816 15.7922C13.6342 15.4791 13.9097 15.0927 14.0877 14.6617C14.273 14.2065 14.3655 13.7206 14.3602 13.231C14.3727 12.623 14.232 12.0212 13.9504 11.4783C13.6831 10.971 13.271 10.5496 12.7636 10.2645C12.2014 9.95962 11.565 9.80822 10.9216 9.82631C10.1334 9.80374 9.36106 10.0442 8.73277 10.5077C7.9311 11.0708 7.46721 11.8354 6.74661 12.8476C6.02601 13.8598 5.07122 15.2226 4.62535 16.5722V13.4545C5.09149 11.969 4.93836 10.9503 5.79182 9.86356C6.64528 8.77686 7.18799 7.78657 8.54362 7.03727C9.51091 6.51459 10.5871 6.21126 11.6917 6.14994Z" fill="black"/>
</g>
<defs>
<clipPath id="clip0_1378_25252">
<rect width="148" height="21" fill="white"/>
</clipPath>
</defs>
</svg>
