<svg width="26" height="26" viewBox="0 0 26 26" fill="none" xmlns="http://www.w3.org/2000/svg">
<path d="M9.8125 16.1875L16.1875 9.8125" stroke="black" stroke-width="1.6" stroke-linecap="round" stroke-linejoin="round"/>
<path d="M14.0625 17.8261L11.6082 20.2804C11.2215 20.6671 10.7625 20.9738 10.2573 21.183C9.75214 21.3923 9.21069 21.5 8.66388 21.5C7.55955 21.5 6.50045 21.0613 5.71957 20.2804C4.93869 19.4995 4.5 18.4404 4.5 17.3361C4.5 16.2318 4.93869 15.1727 5.71957 14.3918L8.17388 11.9375" stroke="black" stroke-width="1.6" stroke-linecap="round" stroke-linejoin="round"/>
<path d="M17.8261 14.0625L20.2804 11.6082C21.0613 10.8273 21.5 9.76821 21.5 8.66388C21.5 7.55955 21.0613 6.50045 20.2804 5.71957C19.4995 4.93869 18.4404 4.5 17.3361 4.5C16.2318 4.5 15.1727 4.93869 14.3918 5.71957L11.9375 8.17388" stroke="black" stroke-width="1.6" stroke-linecap="round" stroke-linejoin="round"/>
</svg>
