<svg width="100" height="210" viewBox="0 0 100 210" fill="none" xmlns="http://www.w3.org/2000/svg">
<path d="M38.7191 91.4846C38.7191 91.4846 19.9917 69.2756 28.5468 37.8882C28.5468 37.8882 51.956 27.8629 75.7788 50.7891C75.7788 50.7891 75.7936 62.8972 68.8114 62.6053C68.8114 62.6053 68.6563 81.7332 66.0754 88.2377L38.7191 91.4846Z" fill="white"/>
<path d="M21.8604 119.43L26.5755 94.5436L13.8555 93.5742L15.4727 118.886L21.8604 119.43Z" fill="white"/>
<path d="M14.3672 101.636L25.1413 102.119L21.8589 119.43L15.4712 118.886L14.3672 101.636Z" fill="#FF6A2F"/>
<path d="M73.9628 109.69C76.7283 108.717 77.1824 107.135 77.1824 107.135C79.0508 100.32 73.9997 99.7184 73.9997 99.7184C73.468 93.4589 75.5615 88.2373 75.5615 88.2373C75.5615 88.2373 93.0151 94.9688 87.4028 109.567C87.4028 109.567 85.5344 113.34 82.54 114.068L84.1572 114.936C85.7006 115.668 86.5092 117.091 86.5092 117.091C87.6723 119.117 84.8329 119.16 84.8329 119.16C83.0237 119.174 84.0834 120.093 84.0834 120.093C86.2323 121.672 84.8366 122.792 84.8366 122.792C84.22 123.351 81.9566 123.189 81.9566 123.189C82.8575 123.736 82.7172 124.623 82.7172 124.623C82.2224 126.068 78.2532 124.623 78.2532 124.623L75.3104 123.081C75.3104 123.081 72.2901 116.839 73.0729 109.668L73.9591 109.69H73.9628Z" fill="white"/>
<path d="M66.5705 84.3135C66.5705 84.3135 72.0721 85.3982 75.5613 88.2378C75.5613 88.2378 70.6985 109.449 77.1822 124.047H32.1804C32.1804 124.047 29.9355 102.634 37.5416 89.1279L38.9521 86.9693C38.9521 86.9693 53.5256 91.5783 66.5742 84.3135H66.5705Z" fill="#67A9F9"/>
<path d="M52.7097 198.266H34.7725C30.5633 196.245 32.0808 192.003 32.0808 192.003C33.5282 185.203 44.6384 186.684 44.6384 186.684L57.9048 186.973C57.9048 186.973 61.7374 192.277 58.1005 198.266H52.7134H52.7097Z" fill="#2BE6AE"/>
<path d="M79.6289 187.751C83.9969 193.25 78.3735 198.738 78.3735 198.738L55.5514 199.142C50.3932 196.919 53.2584 191.329 53.2584 191.329C55.5366 185.809 63.4677 187.964 63.4677 187.964L76.4646 185.902C76.4646 185.902 76.5089 185.91 76.5864 185.924C77.7864 186.169 78.8757 186.803 79.6289 187.751Z" fill="#2BE6AE"/>
<path d="M68.4348 52.3135C65.8132 54.4793 62.7892 54.3315 62.7892 54.3315C58.5615 54.3748 57.6938 52.3387 57.4723 51.4919C57.3948 51.1928 57.1252 50.4829 56.9111 50.2522C56.1061 49.3766 54.9209 49.6865 54.1455 50.0396C53.2188 50.4649 52.1628 50.5982 51.1732 50.3387C48.7806 49.7153 48.8692 47.5892 48.8692 47.5892C48.0643 44.6378 44.0286 45.6216 44.0286 45.6216C38.5824 45.2288 38.7191 40.6342 38.7191 40.6342V38.9874C38.7191 38.9874 57.044 34.7856 69.6458 50.7892L68.4348 52.3135Z" fill="#F8B3FF"/>
<path d="M35.7322 86.8246C33.0701 90.5039 30.1199 88.7778 30.1199 88.7778C30.0904 88.8102 29.3482 88.2408 28.9716 87.83C27.6498 86.367 28.1667 83.7868 28.6208 82.2769C29.9833 79.9057 26.9408 79.2102 26.9408 79.2102C23.0676 77.7075 26.6085 73.7724 26.6085 73.7724C27.8528 71.1706 25.187 70.2444 25.187 70.2444C20.0916 68.5075 26.9445 62.6084 26.9445 62.6084C26.9445 62.6084 30.803 80.3922 35.7396 86.8246H35.7322Z" fill="#F8B3FF"/>
<path d="M25.3229 101.153L24.8097 100.951L23.7832 108.634C23.7832 108.634 26.4306 113.874 31.9211 113.575L33.3094 101.157C30.0786 103.326 25.3192 101.157 25.3192 101.157" fill="white"/>
<path d="M75.148 53.0734C82.8612 18.7743 53.2267 17.9382 53.2267 17.9382C22.1227 16.8644 27.6354 44.9472 27.6354 44.9472C27.6354 44.9472 45.7572 29.6499 69.639 51.7581L75.148 53.0734Z" fill="#FFF080"/>
<path d="M38.4151 33.7151C41.2916 33.4695 43.5029 31.9251 43.3541 30.2657C43.2054 28.6062 40.7529 27.46 37.8764 27.7057C34.9999 27.9513 32.7886 29.4957 32.9373 31.1551C33.0861 32.8146 35.5386 33.9608 38.4151 33.7151Z" fill="#67A9F9"/>
<path d="M59.5653 32.3375C59.7236 30.6789 57.5211 29.1225 54.6461 28.8612C51.771 28.5999 49.312 29.7327 49.1537 31.3913C48.9955 33.0499 51.1979 34.6064 54.073 34.8676C56.9481 35.1289 59.407 33.9962 59.5653 32.3375Z" fill="#67A9F9"/>
<path d="M14.069 109.391C21.3835 111.272 19.8881 108.022 19.8881 108.022C19.5484 107.113 20.5232 106.576 20.5232 106.576C22.2586 105.459 20.9035 104.429 20.9035 104.429C19.9287 103.769 20.7336 102.613 20.7336 102.613C22.3435 100.958 19.8032 100.422 19.8032 100.422C17.813 100.007 19.2087 98.4287 19.2087 98.4287C20.6893 95.6503 17.7687 96.1657 17.7687 96.1657C15.653 96.3711 13.8475 97.3801 13.8475 97.3801C13.8475 97.3801 9.36871 103.052 14.0653 109.391H14.069Z" fill="white"/>
<path d="M58.7906 184.31C59.3887 186.025 58.0226 187.225 58.0226 187.225C50.985 191.737 44.638 186.688 44.638 186.688C44.638 186.688 42.5001 184.331 45.1217 182.512C45.1217 182.512 50.9186 179.362 57.2804 182.638C57.9746 182.994 58.5395 183.585 58.7943 184.31H58.7906Z" fill="#FFF080"/>
<path d="M76.5131 182.511C78.7913 184.194 77.2036 186.821 77.2036 186.821C74.5119 191.466 65.6134 189.379 65.6134 189.379C60.23 187.225 64.646 183.455 64.646 183.455C64.646 183.455 69.8706 179.924 75.8005 182.129C76.0553 182.223 76.2953 182.356 76.5168 182.511H76.5131Z" fill="#FFF080"/>
<path d="M76.1808 157.7L74.9033 184.356V184.864C69.4978 187.693 66.2781 183.837 66.2781 183.837C66.2781 183.837 59.1445 157.646 59.1445 157.7H76.1845" fill="white"/>
<path d="M56.5854 183.837L54.5251 157.7H39.0137C39.0137 157.7 43.3817 174.378 46.8931 183.837C46.8931 183.837 50.4561 187.08 56.5854 184.356V183.837Z" fill="white"/>
<path d="M52.1734 157.701H31.286C31.0349 157.701 32.1795 124.047 32.1795 124.047H76.5205L76.5611 124.623C79.3118 144.274 85.5666 157.701 85.5666 157.701H52.1734Z" fill="#FFF080"/>
<path d="M79.0822 137.906C74.8582 140.598 73.9794 136.13 73.9794 136.13C72.4582 138.757 69.8404 137.69 69.8404 137.69C66.8348 136.432 68.7474 133.308 68.7474 133.308C66.7167 135.214 64.4939 133.69 64.4939 133.69C61.721 131.175 64.8447 128.814 64.8447 128.814C61.0564 127.139 63.6742 124.047 63.6742 124.047H76.5197C76.5197 124.047 77.1954 130.184 79.0822 137.906Z" fill="#FFBA57"/>
<path d="M72.286 157.701C69.1069 154.357 73.0097 152.623 73.0097 152.623C70.9863 151.589 71.854 149.376 71.854 149.376C72.8657 145.661 76.6245 147.917 76.6245 147.917C77.1082 142.695 81.0589 145.47 81.1254 145.452C81.1254 145.452 83.8651 154.31 85.5636 157.697H72.286V157.701Z" fill="#FFBA57"/>
<path d="M52.1728 124.047C52.0621 125.82 50.3267 126.332 50.3267 126.332C51.6744 127.211 50.7808 129.654 50.7808 129.654C49.5808 132.587 46.0732 130.728 46.0732 130.728C44.8732 133.416 41.7088 132.342 41.7088 132.342C38.6479 131.121 40.2135 128.335 40.2135 128.335C38.4596 129.312 36.6578 128.335 36.6578 128.335C34.8042 126.479 35.8048 124.047 35.8048 124.047H52.1692H52.1728Z" fill="#FFBA57"/>
<path d="M43.372 157.701C44.3726 153.495 40.9683 153.65 40.9683 153.65C42.6225 150.768 40.5179 149.214 40.5179 149.214C37.9628 147.416 36.161 150.378 36.161 150.378C34.8096 146.566 31.42 148.515 31.4126 148.811L31.2871 157.704H43.372V157.701Z" fill="#FFBA57"/>
<path d="M50.3279 139.192L51.6461 152.432L51.8159 152.587C54.2713 155.79 56.9519 154.007 56.9519 154.007C58.8239 152.558 57.7384 150.835 57.7384 150.835C60.1199 150.493 60.3525 148.551 60.3525 148.551C60.6664 145.235 57.4651 145.199 57.4651 145.199C60.1974 143.715 59.1378 141.466 59.1378 141.466C57.5722 138.875 54.8104 140.875 54.8104 140.875C54.2233 135.83 50.3242 139.192 50.3242 139.192" fill="#FFBA57"/>
<path d="M74.836 54.9258C74.836 54.9258 79.4071 56.8573 79.4809 59.3042C79.4809 59.3042 79.924 61.1744 76.8262 62.76C76.8262 62.76 74.932 64.342 77.1696 65.9276C77.1696 65.9276 82.1837 67.7366 77.716 70.2988C77.716 70.2988 75.5782 71.906 78.676 73.2645C78.676 73.2645 82.3609 74.5726 78.9345 77.7726C78.9345 77.7726 76.3056 79.7402 73.204 80.0573C73.204 80.0573 73.0268 80.3312 67.6914 79.5852L68.8951 61.2681C68.8951 61.2681 72.3216 62.0357 73.8982 58.2195L74.8323 54.9258H74.836Z" fill="#F8B3FF"/>
<path d="M75.1474 53.9748C75.0809 53.9748 75.0145 53.9676 74.948 53.9532C74.4495 53.8451 74.1357 53.3658 74.2428 52.8793C76.7166 41.8847 75.5535 33.2865 70.7831 27.3262C64.3141 19.2397 53.3074 18.8397 53.1966 18.8361C43.988 18.519 37.2089 20.7712 33.0218 25.5316C27.7714 31.5063 27.9966 39.946 28.34 43.3118C30.2452 42.0577 34.1369 39.9316 39.5461 39.1712C46.6021 38.173 57.6643 39.4379 70.2698 51.1063C70.6391 51.4487 70.6538 52.0181 70.3031 52.3784C69.9523 52.7388 69.3689 52.7532 68.9997 52.4109C59.4809 43.5964 49.4231 39.6289 39.908 40.937C32.7191 41.9244 28.2809 45.5892 28.2366 45.6253C27.9855 45.8343 27.6421 45.8991 27.3283 45.7946C27.0181 45.6901 26.7855 45.4307 26.7265 45.1136C26.6268 44.6054 24.3745 32.6127 31.6151 24.364C36.1861 19.1604 43.4637 16.6919 53.2594 17.0307C53.7394 17.0451 65.2446 17.4667 72.2415 26.2127C77.3628 32.6163 78.644 41.7154 76.0483 53.2613C75.9523 53.6829 75.572 53.9676 75.1474 53.9676V53.9748Z" fill="#231F20"/>
<path d="M70.1257 62.1732C69.6753 62.1732 69.2802 61.8524 69.2137 61.402C69.1399 60.9083 69.4906 60.4506 69.9928 60.3822C70.2993 60.3389 70.6057 60.2524 70.9048 60.1263C71.8537 59.7263 72.6328 58.9119 73.0426 57.8957C74.6673 53.8632 73.8439 52.1551 73.1386 51.7804C72.2156 51.5966 71.5103 51.7047 70.9823 52.1047C69.8931 52.9299 69.8229 54.7569 69.8229 54.7786C69.8082 55.265 69.3983 55.6506 68.8999 55.6506C68.8925 55.6506 68.8814 55.6506 68.874 55.6506C68.3645 55.6362 67.9657 55.2254 67.9768 54.7281C67.9768 54.62 68.0654 52.0434 69.8414 50.6885C70.8383 49.9281 72.1159 49.7119 73.6371 50.0398C73.6777 50.047 73.7183 50.0614 73.7589 50.0759C73.866 50.1155 74.826 50.4939 75.402 51.7515C76.1442 53.3695 75.9263 55.6614 74.7596 58.5551C74.1688 60.0182 73.0316 61.193 71.6359 61.784C71.1891 61.9714 70.7239 62.1011 70.2586 62.1696C70.2143 62.1768 70.17 62.1804 70.1257 62.1804V62.1732Z" fill="#231F20"/>
<path d="M49.7482 89.146C46.7427 89.146 43.3458 88.8757 39.5427 88.1947C39.0406 88.1046 38.7082 87.6361 38.8006 87.146C38.8929 86.6559 39.3729 86.3316 39.875 86.4217C48.9581 88.0505 55.5858 87.1892 59.5513 86.1802C62.9667 85.3118 65.0381 84.1874 65.7507 83.7586C68.3021 72.573 67.9809 64.2055 67.9772 64.119C67.955 63.6217 68.3501 63.2037 68.8596 63.182C69.3729 63.1676 69.7975 63.546 69.8196 64.0433C69.8344 64.4001 70.163 72.9154 67.4676 84.5118C67.4196 84.7244 67.2904 84.9154 67.1095 85.0415C66.8141 85.2505 61.1242 89.1424 49.7482 89.1424V89.146Z" fill="#231F20"/>
<path d="M77.1815 124.948H32.1797C31.707 124.948 31.3083 124.598 31.2603 124.137C31.2381 123.917 30.6954 118.634 31.0867 111.603C31.4486 105.085 32.7187 95.8197 36.7323 88.6954C36.9797 88.2594 37.5409 88.1008 37.9877 88.3386C38.4344 88.5801 38.5969 89.1278 38.3532 89.5639C31.7994 101.2 32.7298 119.142 33.0326 123.146H75.8117C72.8874 115.69 72.6658 106.861 73.0203 100.616C73.3563 94.7386 74.2203 90.144 74.5415 88.5945C71.259 86.1765 66.4406 85.2035 66.3889 85.1927C65.8904 85.0954 65.5655 84.6197 65.6652 84.1296C65.7649 83.6431 66.2523 83.326 66.7544 83.4233C66.987 83.4702 72.5255 84.5873 76.155 87.5386C76.4209 87.7548 76.539 88.0972 76.4652 88.4287C76.4172 88.6377 71.7464 109.528 78.0307 123.683C78.1526 123.96 78.1267 124.281 77.9569 124.537C77.787 124.793 77.4954 124.944 77.1852 124.944L77.1815 124.948Z" fill="#231F20"/>
<path d="M82.543 114.973C82.1295 114.973 81.7529 114.699 81.6495 114.292C81.5276 113.809 81.8267 113.319 82.3215 113.2C84.7178 112.616 86.3756 109.564 86.5603 109.211C88.7166 103.553 87.5129 98.4719 82.9787 94.108C79.4969 90.753 75.2655 89.0917 75.2249 89.0773C74.7523 88.8935 74.5196 88.371 74.7079 87.9098C74.8963 87.4485 75.4316 87.2215 75.9043 87.4017C76.0889 87.4737 94.1332 94.6341 88.2735 109.888C88.2624 109.913 88.2513 109.939 88.2403 109.964C88.1553 110.133 86.143 114.122 82.7719 114.948C82.6981 114.966 82.6206 114.976 82.5467 114.976L82.543 114.973Z" fill="#231F20"/>
<path d="M73.9622 110.591C73.5856 110.591 73.2311 110.364 73.0945 109.996C72.921 109.528 73.1683 109.013 73.6483 108.843C75.8637 108.061 76.2847 106.919 76.2994 106.872C76.8791 104.757 76.7942 103.103 76.0373 101.985C75.2397 100.811 73.9363 100.62 73.881 100.613C73.3788 100.544 73.0243 100.094 73.0908 99.6035C73.1573 99.1134 73.6114 98.7675 74.1136 98.8251C74.2022 98.8359 76.2736 99.1026 77.5548 100.955C78.6367 102.522 78.8139 104.681 78.0754 107.369C78.0127 107.589 77.396 109.438 74.276 110.537C74.1727 110.573 74.0656 110.591 73.9622 110.591Z" fill="#231F20"/>
<path d="M29.8014 103.02C27.2795 103.02 25.0715 102.033 24.9312 101.971C24.4697 101.762 24.2703 101.225 24.4844 100.775C24.6986 100.324 25.2488 100.13 25.7103 100.339C25.7546 100.357 30.0377 102.26 32.7848 100.415C33.202 100.133 33.778 100.234 34.0697 100.645C34.3577 101.056 34.2543 101.614 33.8334 101.899C32.5743 102.742 31.1417 103.024 29.8014 103.024V103.02Z" fill="#231F20"/>
<path d="M31.4599 114.487C25.7811 114.487 23.0709 109.262 22.9565 109.035C22.7312 108.588 22.9195 108.047 23.3774 107.827C23.8352 107.607 24.3854 107.791 24.6143 108.235C24.714 108.433 27.0771 112.934 31.8771 112.674C32.3792 112.638 32.8223 113.027 32.8519 113.525C32.8814 114.022 32.49 114.447 31.9805 114.476C31.8069 114.487 31.6334 114.49 31.4635 114.49L31.4599 114.487Z" fill="#231F20"/>
<path d="M85.5633 158.602H52.17C51.6937 158.602 51.2986 158.249 51.2506 157.788L48.9983 135.207C48.9503 134.714 49.3196 134.27 49.8291 134.224C50.3386 134.177 50.7891 134.537 50.8371 135.034L53.0082 156.804H84.1676C82.5651 152.98 77.898 140.876 75.642 124.75C75.5719 124.256 75.9263 123.802 76.4322 123.737C76.938 123.669 77.4033 124.015 77.4697 124.508C80.1688 143.788 86.3386 157.204 86.4014 157.337C86.5306 157.615 86.5085 157.939 86.3386 158.198C86.1688 158.458 85.8771 158.613 85.5633 158.613V158.602Z" fill="#231F20"/>
<path d="M52.1743 158.602H31.287C31.0359 158.602 30.7959 158.501 30.6223 158.324C30.242 157.939 30.2014 157.899 30.722 140.753C30.9731 132.465 31.2574 124.097 31.2611 124.014C31.2796 123.517 31.7005 123.135 32.2137 123.142C32.7233 123.16 33.122 123.575 33.1073 124.072C32.7122 135.737 32.1768 152.922 32.1768 156.796H52.178C52.6876 156.796 53.1011 157.2 53.1011 157.697C53.1011 158.194 52.6876 158.598 52.178 158.598L52.1743 158.602Z" fill="#231F20"/>
<path d="M74.9044 185.261C74.9044 185.261 74.8749 185.261 74.8601 185.261C74.3506 185.239 73.9592 184.818 73.9814 184.321L75.2589 157.665C75.2811 157.167 75.7057 156.785 76.2226 156.807C76.7321 156.829 77.1235 157.25 77.1014 157.748L75.8238 184.403C75.8017 184.886 75.3918 185.261 74.9007 185.261H74.9044Z" fill="#231F20"/>
<path d="M71.0423 186.803C69.9014 186.803 68.9414 186.551 68.2029 186.245C66.5303 185.557 65.5999 184.458 65.5592 184.411C65.478 184.313 65.4152 184.198 65.382 184.072C62.9746 175.236 58.3888 158.411 58.2559 157.964L59.142 157.712L59.0202 156.807C59.8251 156.706 60.0208 157.416 60.1131 157.758L61.1506 161.549C61.8189 164 62.7125 167.268 63.6023 170.533L67.1063 183.394C67.686 183.982 70.3076 186.241 74.4614 184.068C74.9119 183.831 75.4694 183.996 75.7094 184.436C75.9494 184.876 75.7832 185.42 75.3328 185.654C73.7156 186.501 72.2682 186.796 71.0386 186.796L71.0423 186.803Z" fill="#231F20"/>
<path d="M56.5823 184.739C56.106 184.739 55.6998 184.379 55.6629 183.906L53.6026 157.77C53.562 157.272 53.9423 156.84 54.4518 156.804C54.9503 156.757 55.4044 157.135 55.4413 157.633L57.5017 183.769C57.5423 184.267 57.162 184.699 56.6524 184.735C56.6303 184.735 56.6044 184.735 56.5823 184.735V184.739Z" fill="#231F20"/>
<path d="M51.8339 186.357C48.3594 186.357 46.3804 184.602 46.2659 184.497C46.1588 184.4 46.0776 184.281 46.0259 184.144C42.5367 174.753 38.1613 158.09 38.1207 157.924C37.9951 157.441 38.2905 156.951 38.7853 156.829C39.28 156.706 39.7822 156.998 39.9077 157.477C39.952 157.643 44.2314 173.953 47.6764 183.301C48.3742 183.823 51.365 185.686 56.2019 183.535C56.6671 183.33 57.2136 183.528 57.424 183.982C57.6345 184.436 57.4314 184.969 56.9662 185.175C55.013 186.043 53.2923 186.353 51.8339 186.353V186.357Z" fill="#231F20"/>
<path d="M51.9078 189.985C47.3958 189.985 44.0985 187.42 44.0505 187.384C44.0136 187.355 43.9767 187.319 43.9435 187.283C43.8179 187.146 42.725 185.888 42.9096 184.295C43.0241 183.315 43.589 182.465 44.5822 181.776C44.9958 181.488 45.5755 181.585 45.8709 181.989C46.1662 182.396 46.0702 182.958 45.653 183.247C45.0992 183.632 44.8038 184.039 44.7447 184.494C44.6598 185.185 45.1361 185.852 45.2838 186.039C45.9816 186.562 51.3982 190.335 57.4425 186.515C57.7305 186.23 58.6352 185.135 57.317 183.636C56.9847 183.257 57.029 182.688 57.4167 182.364C57.8044 182.039 58.3841 182.083 58.7201 182.461C60.821 184.854 59.5841 187.059 58.6352 187.892C58.6019 187.921 58.565 187.949 58.5244 187.975C56.1982 189.466 53.9275 189.982 51.9041 189.982L51.9078 189.985Z" fill="#231F20"/>
<path d="M69.9852 190.753C67.5741 190.753 65.5728 190.299 65.3956 190.256C65.3513 190.245 65.3033 190.231 65.259 190.213C63.3648 189.456 62.2867 188.389 62.0578 187.049C61.6848 184.854 63.7932 182.984 64.0332 182.775C64.4172 182.447 65.0005 182.486 65.3365 182.861C65.6725 183.236 65.6319 183.802 65.2516 184.13C64.8085 184.512 63.7008 185.726 63.8781 186.757C64.0221 187.585 65.0338 188.169 65.8867 188.519C66.6732 188.688 74.187 190.184 76.395 186.378C76.5205 186.169 77.5064 184.382 75.9519 183.229C75.5458 182.93 75.4645 182.364 75.7747 181.967C76.0812 181.571 76.6608 181.492 77.067 181.795C79.3858 183.51 78.6879 186.133 77.9938 187.279C76.3618 190.097 72.8762 190.753 69.9815 190.753H69.9852Z" fill="#231F20"/>
<path d="M52.7099 199.168H34.7727C34.6324 199.168 34.4921 199.135 34.3665 199.074C30.5007 197.218 30.5893 193.517 31.1912 191.762C31.8853 188.62 34.4995 186.595 38.753 185.903C41.8139 185.406 44.6459 185.773 44.7641 185.791C45.2699 185.86 45.6207 186.314 45.5542 186.804C45.4841 187.297 45.0262 187.643 44.5167 187.575C44.4133 187.561 34.2447 186.288 32.9856 192.184C32.9782 192.224 32.9672 192.26 32.9524 192.299C32.8305 192.649 31.8705 195.73 34.9942 197.362H52.7099C53.2195 197.362 53.633 197.766 53.633 198.263C53.633 198.761 53.2195 199.164 52.7099 199.164V199.168Z" fill="#231F20"/>
<path d="M55.5557 200.043C55.4265 200.043 55.3009 200.018 55.1828 199.968C53.5323 199.258 52.4283 198.166 51.8966 196.724C50.9403 194.13 52.24 191.333 52.4209 190.966C54.4775 186.036 60.7102 186.281 63.7231 187.099C64.2142 187.233 64.5022 187.73 64.3655 188.209C64.2289 188.688 63.7231 188.97 63.2283 188.836C63.184 188.825 61.3194 188.335 59.2443 188.483C56.6412 188.667 54.9206 189.741 54.1231 191.672C54.112 191.694 54.1046 191.715 54.0935 191.737C54.0825 191.759 52.9009 194.133 53.6394 196.123C53.9828 197.042 54.6732 197.737 55.7551 198.242L77.9717 197.849C79.0092 196.696 82.7052 191.968 78.1378 187.456C77.7797 187.103 77.7834 186.533 78.1452 186.18C78.5071 185.831 79.0905 185.834 79.4523 186.188C85.888 192.541 79.1052 199.308 79.0351 199.377C78.8652 199.542 78.6363 199.636 78.4 199.64L55.5778 200.043H55.5631H55.5557Z" fill="#231F20"/>
<path d="M54.2533 62.9442C53.8249 62.9442 53.4446 62.8973 53.1529 62.8253C51.6797 62.4613 50.668 61.5712 50.38 60.3856C50.1216 59.3334 50.4797 58.2018 51.292 57.5099C53.0089 56.0433 55.0582 56.0829 56.6016 56.6054C56.4871 56.3856 56.3468 56.1802 56.1659 55.9964C55.5419 55.3586 54.5228 55.1207 53.1345 55.2901C53.116 55.2901 53.1013 55.2901 53.0828 55.2937C53.0643 55.2937 52.1486 55.409 51.3363 56.5802C51.052 56.9946 50.476 57.1027 50.0551 56.8216C49.6342 56.5442 49.5197 55.982 49.8077 55.5712C51.0668 53.755 52.6249 53.5244 52.9277 53.4991C54.9216 53.2613 56.4612 53.6865 57.5062 54.7604C59.3302 56.6307 58.8059 59.737 58.7837 59.8703C58.7763 59.9027 58.7689 59.9352 58.7616 59.9676C58.0674 62.3027 55.8446 62.9478 54.2569 62.9478L54.2533 62.9442ZM54.6373 58.0649C53.9505 58.0649 53.2046 58.2703 52.5105 58.8649C52.2188 59.1135 52.0822 59.5676 52.1782 59.9676C52.3037 60.4865 52.8133 60.8829 53.6108 61.0811C53.6366 61.0883 56.3246 61.5352 56.9745 59.5171C56.9892 59.4198 57.0188 59.1712 57.0262 58.8361C56.6348 58.5622 55.7043 58.0685 54.6373 58.0685V58.0649Z" fill="#231F20"/>
<path d="M34.0812 62.0002C33.6529 62.0002 33.2725 61.9533 32.9772 61.8813C31.5039 61.5173 30.4922 60.6272 30.2042 59.4416C29.9458 58.3894 30.3039 57.2578 31.1162 56.5659C32.8332 55.0993 34.8824 55.1353 36.4258 55.6614C36.3113 55.4416 36.171 55.2362 35.9901 55.0524C35.3661 54.4146 34.347 54.1768 32.9587 54.3425C32.9402 54.3425 32.9255 54.3425 32.907 54.3461C32.8885 54.3461 31.9729 54.4614 31.1605 55.6326C30.8762 56.0434 30.3002 56.1551 29.8793 55.8741C29.4584 55.5966 29.3439 55.0344 29.6319 54.6236C30.891 52.8074 32.4492 52.5768 32.7519 52.5515C34.7458 52.3173 36.2855 52.7389 37.3304 53.8128C39.1544 55.6831 38.6301 58.7894 38.6079 58.9227C38.6005 58.9551 38.5932 58.9876 38.5858 59.02C37.8916 61.3551 35.6689 62.0002 34.0812 62.0002ZM34.4615 57.1209C33.7747 57.1209 33.0289 57.3227 32.331 57.9209C32.0393 58.1696 31.9027 58.6236 31.9987 59.0236C32.1242 59.5425 32.6338 59.9389 33.4313 60.1371C33.4609 60.1443 36.1452 60.5912 36.795 58.5732C36.8098 58.4759 36.8393 58.2272 36.8467 57.8921C36.4553 57.6182 35.5285 57.1245 34.4578 57.1245L34.4615 57.1209Z" fill="#231F20"/>
<path d="M50.2362 79.3911C50.0664 79.3911 49.9039 79.3695 49.7451 79.3262C48.8553 79.0812 48.5156 78.2415 48.4528 77.7803C48.4233 77.5605 48.4787 77.337 48.6079 77.1532C49.5347 75.8415 49.8301 75.0992 49.915 74.7172C47.7107 75.9352 46.3925 76.1623 45.5728 75.492C44.8713 74.9154 44.9415 73.9208 45.211 73.2469C45.2479 73.1568 45.2959 73.074 45.3587 73.0019C46.0935 72.137 46.315 71.5785 46.3741 71.265C42.7002 73.5244 41.1125 71.5821 41.0424 71.492C40.9907 71.4235 40.9464 71.3478 40.9168 71.2686C39.6393 68.0541 40.8171 61.2325 40.8688 60.9442C40.9538 60.4541 41.4338 60.1262 41.9359 60.2091C42.4381 60.292 42.7778 60.7568 42.6891 61.2505C42.379 63.0307 41.7698 68.0433 42.5673 70.4217C42.8479 70.5803 43.8633 70.901 46.1193 69.2505C46.3888 69.0559 46.7433 69.0163 47.0498 69.1496C47.4596 69.3262 48.0024 69.8019 48.1833 70.5478C48.4196 71.528 47.9876 72.692 46.9021 74.0145L46.8947 74.0469C47.2418 73.9893 48.0319 73.7442 49.6159 72.8073C49.7599 72.7208 49.9261 72.6776 50.0959 72.6776C50.5648 72.6776 51.2368 72.9082 51.5876 73.5605C52.0602 74.4397 51.7538 75.6866 50.6239 77.4559C51.0892 77.2109 52.0048 76.5298 53.5445 74.6596C53.8658 74.274 54.4455 74.2091 54.8442 74.5226C55.243 74.8361 55.3058 75.4019 54.9845 75.7911C52.9501 78.2559 51.4584 79.3983 50.2399 79.3983L50.2362 79.3911Z" fill="#231F20"/>
<path d="M37.6416 34.6486C36.3973 34.6486 35.2157 34.4108 34.252 33.9603C32.9117 33.3333 32.1179 32.3639 32.0145 31.2324C31.8188 29.045 34.3554 27.1027 37.793 26.8072C41.2268 26.5081 44.0736 28 44.2693 30.1873C44.3727 31.3189 43.7597 32.4108 42.5524 33.254C41.489 33.9964 40.0453 34.4792 38.4908 34.6126C38.2028 34.6378 37.9185 34.6486 37.6379 34.6486H37.6416ZM38.6643 28.5729C38.4354 28.5729 38.1991 28.5837 37.9554 28.6018C35.4262 28.818 33.7647 30.0792 33.8533 31.0738C33.8939 31.5387 34.3296 32 35.0496 32.3351C35.9247 32.7423 37.121 32.9153 38.332 32.8144C39.5431 32.7099 40.6914 32.3351 41.4816 31.7837C42.1277 31.3333 42.4748 30.8072 42.4342 30.3387C42.353 29.4378 40.8243 28.5657 38.6643 28.5657V28.5729Z" fill="#231F20"/>
<path d="M54.8995 35.8053C54.6004 35.8053 54.2977 35.7909 53.9875 35.762C50.5537 35.4485 48.0244 33.4918 48.2349 31.3044C48.4453 29.117 51.2995 27.6503 54.7333 27.9602C58.1672 28.2737 60.6964 30.2305 60.486 32.4179C60.2977 34.4071 57.9161 35.8017 54.8995 35.8017V35.8053ZM53.8066 29.7224C51.6687 29.7224 50.1586 30.58 50.07 31.4737C49.974 32.4683 51.6281 33.7404 54.1573 33.971C56.6866 34.2017 58.5512 33.2503 58.6472 32.2557C58.7432 31.2611 57.0853 29.989 54.5598 29.7584C54.3013 29.7332 54.0503 29.7224 53.8066 29.7224Z" fill="#231F20"/>
<path d="M49.3595 31.6143C49.2265 31.6143 49.0899 31.5855 48.9607 31.5242C46.7859 30.5044 43.5736 31.1422 43.5441 31.1494C43.0456 31.2467 42.5582 30.9404 42.4512 30.4539C42.3478 29.9675 42.6653 29.4918 43.1638 29.3873C43.3188 29.3548 47.0148 28.6161 49.7619 29.9026C50.2235 30.1188 50.4155 30.6557 50.1939 31.1062C50.0352 31.4305 49.7065 31.6179 49.3595 31.6179V31.6143Z" fill="#231F20"/>
<path d="M76.1988 47.6723C75.8148 47.6723 75.4604 47.438 75.3275 47.0669C71.7902 37.1389 61.1748 33.4885 59.5465 33.2362C59.1441 33.229 58.7822 32.9624 58.6751 32.566C58.5459 32.0867 58.8376 31.593 59.3287 31.4633C60.0635 31.2759 63.7779 32.5732 66.9791 34.5263C70.3798 36.602 74.8918 40.3606 77.0665 46.4723C77.2327 46.9407 76.9779 47.4561 76.4979 47.6182C76.3982 47.6507 76.2948 47.6687 76.1951 47.6687L76.1988 47.6723Z" fill="#231F20"/>
<path d="M27.6935 35.9892C27.5679 35.9892 27.4387 35.964 27.3169 35.9099C26.8516 35.7045 26.6449 35.1748 26.8516 34.7207C28.4615 31.2216 32.5636 30.3171 32.7372 30.2811C33.2356 30.1802 33.7267 30.4829 33.8338 30.9694C33.9409 31.4559 33.627 31.9351 33.1286 32.0396C33.0916 32.0469 29.7538 32.8036 28.5316 35.4595C28.3766 35.7946 28.0406 35.9928 27.6898 35.9928L27.6935 35.9892Z" fill="#231F20"/>
<path d="M62.9103 55.2361C62.8475 55.2361 62.8032 55.2361 62.7737 55.2361C58.2026 55.2721 56.9213 53.0487 56.578 51.7154C56.5115 51.4523 56.3047 50.9622 56.2124 50.8397C55.8949 50.4974 55.33 50.4974 54.5398 50.8577C53.3804 51.3875 52.1029 51.5136 50.9398 51.2109C48.6137 50.6055 47.9749 48.7496 47.949 47.7154C47.314 45.7875 44.3823 46.4649 44.253 46.4938C44.1607 46.5154 44.061 46.5262 43.965 46.519C37.714 46.0685 37.7989 40.6631 37.7989 40.6091C37.8137 40.119 38.2235 39.7334 38.722 39.7334C38.7293 39.7334 38.7404 39.7334 38.7478 39.7334C39.2573 39.7478 39.6561 40.1586 39.645 40.6559C39.6377 41.0415 39.7115 44.3352 43.965 44.71C45.7115 44.3316 48.9681 44.4325 49.7657 47.355C49.7878 47.4415 49.7989 47.5316 49.7952 47.6217C49.7952 47.7586 49.821 49.0523 51.4161 49.4667C52.1583 49.6613 52.9927 49.5748 53.757 49.2217C55.3041 48.5118 56.7035 48.6703 57.6007 49.6469C58.0549 50.1406 58.365 51.2541 58.3687 51.2649C58.738 52.6811 60.2186 53.4271 62.6592 53.4271C62.7035 53.4271 62.7478 53.4271 62.7884 53.4271C62.8032 53.4271 62.818 53.4271 62.8327 53.4271C62.8549 53.4271 65.5466 53.5136 67.8395 51.6181C68.2309 51.2974 68.8106 51.3442 69.1392 51.7226C69.4678 52.101 69.4198 52.6703 69.0321 52.9911C66.4955 55.0848 63.634 55.2253 62.9103 55.2253V55.2361Z" fill="#231F20"/>
<path d="M73.2096 80.9621C72.7444 80.9621 72.3419 80.6162 72.2939 80.1549C72.2422 79.6612 72.6078 79.218 73.1173 79.1639C75.7204 78.8973 78.0244 77.3117 78.3456 77.0847C79.169 76.3063 79.5641 75.6108 79.4607 75.1207C79.3499 74.5838 78.6115 74.2018 78.3604 74.1081C78.3419 74.1009 78.3198 74.0937 78.305 74.0865C76.9499 73.4919 76.2078 72.7207 76.097 71.791C75.9456 70.5369 77.0349 69.6793 77.1604 69.5856C77.1899 69.5639 77.2232 69.5423 77.2564 69.5243C78.3235 68.9117 78.6779 68.4144 78.6521 68.1477C78.6078 67.6684 77.5629 67.0306 76.8539 66.7712C76.7764 66.7423 76.7025 66.7027 76.6324 66.6558C75.6909 65.9892 75.1961 65.2108 75.1629 64.3423C75.1112 63.0522 76.1192 62.173 76.2336 62.0757C76.2853 62.0324 76.3444 61.9928 76.4072 61.9603C78.7592 60.7603 78.593 59.5279 78.5856 59.4775C78.5598 59.4018 78.5709 59.4126 78.5672 59.3297C78.5266 57.9711 76.0379 56.4108 74.4761 55.7513C74.0109 55.5531 73.793 55.0234 73.9961 54.5657C74.1992 54.1081 74.7419 53.8991 75.2109 54.0973C75.7315 54.3171 80.2656 56.3171 80.4096 59.2216C80.4798 59.7477 80.5315 61.8306 77.3819 63.4919C77.2638 63.6144 76.9906 63.9351 77.009 64.2702C77.0275 64.5982 77.3376 64.9081 77.6293 65.1279C78.2312 65.3657 80.3395 66.3171 80.4909 67.982C80.5905 69.0847 79.8373 70.1081 78.2533 71.0342C78.1019 71.1675 77.9062 71.4198 77.9284 71.5784C77.9505 71.7549 78.257 72.0829 79.0361 72.4288C79.3536 72.5477 80.9376 73.218 81.2662 74.7423C81.5173 75.9063 80.9487 77.1423 79.5826 78.4216C79.5567 78.4432 79.5309 78.4648 79.505 78.4865C79.3905 78.573 76.6287 80.6162 73.3093 80.9549C73.2761 80.9549 73.2429 80.9585 73.2133 80.9585L73.2096 80.9621Z" fill="#231F20"/>
<path d="M31.7915 90.0899C30.8979 90.0899 30.1336 89.8376 29.6388 89.5494C29.0001 89.2214 28.2801 88.4322 28.2727 88.425C27.0579 87.0845 26.8696 84.8719 27.7262 82.0214C27.7447 81.9566 27.7742 81.8953 27.8075 81.834C28.0327 81.4412 28.0955 81.1241 27.9921 80.8935C27.7964 80.4611 27.0394 80.1584 26.7219 80.0863C26.6776 80.0755 26.6333 80.0611 26.589 80.0467C25.0013 79.4304 24.4585 78.443 24.2813 77.7259C23.8124 75.816 25.3631 73.8124 25.8062 73.2863C26.0241 72.7854 26.061 72.3566 25.9096 72.007C25.6438 71.3872 24.8684 71.0953 24.861 71.0917C23.1219 70.5007 22.5718 69.4629 22.4204 68.6989C21.8518 65.8701 25.8579 62.3277 26.3158 61.9313C26.6998 61.6034 27.2794 61.6394 27.6191 62.0106C27.9551 62.3818 27.9219 62.9512 27.5379 63.2827C26.0056 64.6052 23.9674 67.0485 24.2296 68.353C24.2628 68.5151 24.3625 69.016 25.4739 69.3908C25.6364 69.4485 27.0358 69.9638 27.6118 71.3115C27.981 72.1728 27.9182 73.1277 27.4308 74.1512C27.3939 74.2304 27.3459 74.3025 27.2868 74.3638C26.8918 74.8034 25.8247 76.2917 26.0758 77.3043C26.1164 77.4665 26.2382 77.953 27.2167 78.3494C27.6118 78.4503 29.1145 78.9151 29.6758 80.1656C29.9084 80.6845 30.0598 81.5277 29.469 82.616C29.0924 83.9025 28.6493 86.1187 29.6536 87.2286C29.8936 87.4917 30.3256 87.8376 30.4918 87.953C30.5213 87.9674 30.5545 87.9818 30.5841 87.9998C30.8056 88.1223 32.8954 89.1674 34.9705 86.3025C35.2659 85.8953 35.8419 85.798 36.2554 86.0863C36.6727 86.3746 36.7724 86.9367 36.477 87.3403C34.9484 89.4557 33.2019 90.0863 31.7878 90.0863L31.7915 90.0899ZM29.6905 87.9746C29.6056 88.0178 29.5244 88.0755 29.4505 88.1512C29.5207 88.0791 29.6019 88.0214 29.6905 87.9746Z" fill="#231F20"/>
<path d="M21.863 120.331C21.8372 120.331 21.8076 120.331 21.7818 120.331L15.3904 119.787C14.9399 119.748 14.5818 119.395 14.5485 118.955L13.9282 110.418C13.8913 109.921 14.2753 109.492 14.7849 109.456C15.2833 109.423 15.7338 109.795 15.7707 110.292L16.3356 118.061L21.1061 118.468L25.4852 95.3585L15.3904 94.4792C14.8809 94.436 14.5079 93.9963 14.5522 93.5026C14.5965 93.0089 15.0359 92.6414 15.5529 92.6846L26.6593 93.654C26.9178 93.6756 27.1541 93.8053 27.3129 94.0071C27.4716 94.2089 27.5307 94.4648 27.4864 94.717L22.7713 119.604C22.6901 120.032 22.3061 120.339 21.863 120.339V120.331Z" fill="#231F20"/>
<path d="M17.7843 110.883C16.7431 110.883 15.436 110.677 13.8335 110.263C13.3425 110.137 13.0471 109.643 13.1763 109.164C13.3055 108.685 13.8077 108.396 14.3025 108.522C18.3086 109.553 19.0138 108.836 19.0397 108.803C19.1357 108.695 19.0618 108.436 19.0397 108.378C19.036 108.367 19.0249 108.342 19.0212 108.331C18.6114 107.229 19.2538 106.259 20.0366 105.812C20.3948 105.578 20.4834 105.409 20.4834 105.369C20.4834 105.326 20.4095 105.211 20.3357 105.142C19.1209 104.281 19.4458 102.861 19.9701 102.108C19.9997 102.068 20.0292 102.029 20.0661 101.993C20.2471 101.805 20.3135 101.686 20.3357 101.632C20.2249 101.521 19.8852 101.366 19.6046 101.301C18.4785 101.066 18.0538 100.483 17.9025 100.036C17.5886 99.1241 18.1831 98.2485 18.4341 97.9313C18.6963 97.416 18.7111 97.1674 18.7074 97.0881C18.5745 97.0232 18.2052 97.0052 17.932 97.0485C17.9098 97.0485 17.884 97.0557 17.8655 97.0557C15.9825 97.2395 14.3283 98.1476 14.3098 98.1584C13.8668 98.4034 13.3018 98.2521 13.0508 97.8232C12.7997 97.3908 12.9511 96.8431 13.3941 96.5944C13.4754 96.5512 15.3769 95.4989 17.6477 95.2683C18.0243 95.207 19.4717 95.0485 20.2065 96.0178C20.7234 96.7025 20.6643 97.6539 20.0329 98.8395C19.9997 98.9007 19.9591 98.9584 19.9111 99.0124C19.8077 99.1313 19.7043 99.3187 19.6711 99.4304C19.7265 99.4593 19.8261 99.4989 19.9997 99.535C20.2914 99.5962 21.7572 99.9602 22.1191 101.11C22.2668 101.575 22.2705 102.303 21.4766 103.157C21.4138 103.268 21.2625 103.567 21.436 103.686C21.4508 103.697 21.4655 103.704 21.4766 103.715C21.5689 103.784 22.3738 104.429 22.3332 105.434C22.3037 106.155 21.868 106.789 21.0335 107.326C21.0151 107.337 20.9966 107.348 20.9818 107.358C20.9634 107.369 20.7086 107.528 20.7566 107.697C20.9708 108.198 21.1258 109.189 20.4575 109.96C19.9258 110.573 19.0545 110.875 17.788 110.875L17.7843 110.883Z" fill="#231F20"/>
<path d="M13.1054 108.793C12.7657 108.793 12.4371 108.609 12.2747 108.288C9.42052 102.616 12.2341 98.6848 12.3522 98.519C12.6513 98.1154 13.2273 98.0217 13.6408 98.3136C14.0544 98.6019 14.1504 99.1641 13.855 99.5677C13.7516 99.7118 11.5879 102.84 13.9325 107.496C14.1577 107.942 13.9694 108.483 13.5116 108.703C13.3824 108.764 13.2421 108.797 13.1054 108.797V108.793Z" fill="#231F20"/>
<path d="M19.7918 94.8542C19.3414 94.8542 18.95 94.5335 18.8798 94.0867L17.665 86.1876C17.606 85.8128 17.7943 85.4452 18.134 85.265L22.3838 82.9876C22.8306 82.7461 23.3918 82.9083 23.6355 83.3443C23.8792 83.7804 23.7167 84.3281 23.27 84.5659L19.585 86.5407L20.7038 93.82C20.7777 94.3137 20.4306 94.7713 19.9284 94.8434C19.8841 94.8506 19.8361 94.8542 19.7918 94.8542Z" fill="#231F20"/>
<path d="M81.3276 126.162C79.9282 126.162 78.3258 125.611 77.9307 125.467C77.4544 125.294 77.2107 124.775 77.3879 124.31C77.5652 123.845 78.0969 123.607 78.5732 123.78C79.8322 124.238 81.2981 124.479 81.7818 124.328C81.7486 124.22 81.6636 124.076 81.4679 123.957C81.1061 123.737 80.9473 123.308 81.0766 122.912C81.2058 122.519 81.6009 122.26 82.0218 122.292C82.9301 122.353 83.9824 122.27 84.2298 122.115C84.2372 122.108 84.3664 121.986 84.359 121.82C84.3553 121.723 84.2778 121.362 83.5282 120.811C83.5098 120.796 83.4876 120.782 83.4692 120.764C83.0482 120.4 82.6864 119.787 82.9264 119.16C83.2698 118.267 84.4402 118.26 84.8242 118.256C85.2747 118.245 85.7879 118.083 85.8692 117.964C85.8692 117.964 85.8802 117.834 85.703 117.528C85.6956 117.517 85.0015 116.335 83.7498 115.744C83.2919 115.528 83.0999 114.987 83.3215 114.541C83.543 114.094 84.0969 113.906 84.5547 114.123C86.3418 114.969 87.2722 116.58 87.3129 116.649C87.9073 117.683 87.7227 118.422 87.4642 118.861C86.9916 119.661 86.0095 119.924 85.3744 120.014C85.9098 120.58 86.1867 121.175 86.2015 121.791C86.2236 122.732 85.607 123.326 85.4482 123.46C85.0236 123.834 84.311 124.004 83.6095 124.072C83.6575 124.339 83.6538 124.577 83.6279 124.757C83.6206 124.807 83.6058 124.858 83.591 124.905C83.4359 125.351 83.1147 125.701 82.6569 125.914C82.2766 126.09 81.815 126.159 81.3239 126.159L81.3276 126.162Z" fill="#231F20"/>
<path d="M76.6575 139.672C76.2182 139.672 75.8009 139.589 75.4022 139.427C74.6009 139.095 74.0582 138.479 73.7037 137.881C72.2268 139.106 70.4102 138.901 69.4871 138.526C68.1394 137.964 67.6077 137.085 67.3935 136.443C67.2422 135.985 67.2052 135.528 67.2348 135.095C65.8686 135.355 64.6095 134.872 63.9634 134.432C63.9302 134.407 63.8969 134.382 63.8637 134.353C62.8594 133.441 62.3757 132.425 62.4274 131.333C62.4717 130.378 62.9185 129.582 63.3652 129.02C62.612 128.476 62.1394 127.809 61.9548 127.023C61.5302 125.236 62.8151 123.65 62.9628 123.477C63.2877 123.092 63.8711 123.041 64.2625 123.355C64.6538 123.672 64.7092 124.238 64.388 124.62C64.148 124.912 63.5646 125.838 63.7566 126.623C63.8859 127.16 64.3806 127.625 65.2262 127.996C65.5215 128.126 65.7246 128.4 65.7615 128.713C65.7985 129.027 65.6655 129.337 65.4108 129.531C65.108 129.766 64.3068 130.566 64.2699 131.423C64.2477 131.953 64.5099 132.465 65.0674 132.987C65.3702 133.171 66.7769 133.913 68.1062 132.667C68.4385 132.353 68.9591 132.331 69.3209 132.609C69.6828 132.89 69.7751 133.387 69.5388 133.776C69.3431 134.101 68.8889 135.124 69.1474 135.895C69.2877 136.313 69.6348 136.63 70.2034 136.868C70.5025 136.984 72.1271 137.499 73.172 135.69C73.364 135.362 73.7406 135.182 74.1246 135.243C74.5049 135.304 74.8077 135.593 74.8815 135.964C74.9628 136.357 75.3468 137.452 76.1259 137.773C76.868 138.079 77.8686 137.607 78.5775 137.157C79.0059 136.883 79.5745 137.002 79.8551 137.42C80.132 137.838 80.0138 138.396 79.5855 138.667C78.5295 139.34 77.5474 139.676 76.6538 139.676L76.6575 139.672Z" fill="#231F20"/>
<path d="M55.1085 155.398C53.9233 155.398 52.45 154.919 51.0765 153.124C50.77 152.724 50.855 152.162 51.2611 151.863C51.671 151.564 52.247 151.647 52.5534 152.043C54.3294 154.364 56.1054 153.452 56.4119 153.268C57.4827 152.414 57.0913 151.542 56.9473 151.294C56.7959 151.034 56.7811 150.713 56.914 150.447C57.047 150.176 57.3054 149.985 57.6082 149.942C59.2033 149.712 59.4248 148.562 59.4433 148.429C59.5097 147.712 59.3657 147.131 59.0076 146.746C58.4427 146.133 57.4679 146.094 57.4605 146.094C57.0433 146.09 56.6777 145.809 56.578 145.412C56.4747 145.016 56.6593 144.602 57.0248 144.403C58.7934 143.441 58.4537 142.198 58.3208 141.863C58.0291 141.402 57.6931 141.139 57.2907 141.059C56.5411 140.908 55.6476 141.394 55.367 141.593C55.1011 141.78 54.7504 141.82 54.4513 141.69C54.1522 141.56 53.9417 141.286 53.9048 140.969C53.7793 139.892 53.4765 139.185 53.0703 139.03C52.5239 138.825 51.4827 139.405 50.9473 139.863C50.5633 140.191 49.9799 140.151 49.6439 139.78C49.3079 139.405 49.3448 138.839 49.7251 138.512C49.9467 138.321 51.9294 136.674 53.7313 137.348C54.5694 137.661 55.1602 138.389 55.4925 139.51C56.0907 139.29 56.8513 139.135 57.6525 139.29C58.306 139.42 59.2328 139.82 59.9454 140.998C59.9602 141.023 59.975 141.052 59.9897 141.081C60.3627 141.874 60.5694 143.438 59.4211 144.8C59.7571 144.976 60.0894 145.214 60.3885 145.539C61.1048 146.313 61.4076 147.355 61.2857 148.627C61.1934 149.409 60.5768 150.811 58.9411 151.448C59.1073 152.403 58.8931 153.657 57.5343 154.706C57.5159 154.721 57.5011 154.731 57.4827 154.746C57.4642 154.757 56.482 155.391 55.1196 155.391L55.1085 155.398Z" fill="#231F20"/>
<path d="M72.2867 158.602C72.0393 158.602 71.7919 158.504 71.611 158.313C70.411 157.052 69.931 155.802 70.1784 154.591C70.363 153.69 70.9279 153.016 71.4707 152.555C70.5181 151.413 70.6731 149.913 70.9759 149.103C71.4264 147.499 72.3458 146.836 73.0436 146.566C74.0479 146.173 75.115 146.353 75.9051 146.613C76.2042 145.394 76.7802 144.562 77.6147 144.137C78.6596 143.607 79.9556 143.766 81.4695 144.613L81.5027 144.631C81.739 144.735 81.931 144.933 82.0122 145.196C82.1562 145.672 81.8793 146.176 81.3919 146.317C81.0079 146.429 80.7236 146.27 80.5538 146.176C79.3907 145.528 78.7778 145.578 78.4676 145.737C77.9839 145.982 77.6553 146.785 77.5445 148C77.515 148.31 77.323 148.584 77.0387 148.724C76.7544 148.865 76.4147 148.85 76.1414 148.685C75.7501 148.454 74.5427 147.917 73.723 148.238C73.2762 148.414 72.9476 148.876 72.7482 149.607C72.7408 149.636 72.7298 149.668 72.7187 149.697C72.6301 149.939 72.2276 151.203 73.4424 151.823C73.7562 151.982 73.9482 152.303 73.9371 152.645C73.9261 152.991 73.7193 153.297 73.3981 153.441C73.0621 153.593 72.1501 154.166 71.9913 154.951C71.8695 155.56 72.1981 156.277 72.9698 157.085C73.3168 157.449 73.2947 158.018 72.9218 158.357C72.7445 158.519 72.5193 158.598 72.2941 158.598L72.2867 158.602ZM80.9747 144.569C80.9414 144.576 80.9045 144.584 80.8676 144.594C80.9045 144.584 80.9378 144.576 80.9747 144.569Z" fill="#231F20"/>
<path d="M43.1127 133.463C42.4555 133.463 41.8536 133.344 41.4105 133.193C41.3958 133.189 41.381 133.182 41.3662 133.175C40.1995 132.71 39.4352 131.993 39.0918 131.041C38.9182 130.559 38.8776 130.083 38.9035 129.654C37.4413 129.773 36.2819 129.157 36.2155 129.121C36.1379 129.077 36.0641 129.023 36.0013 128.962C33.7564 126.71 34.9047 123.831 34.9564 123.712C35.1484 123.25 35.6838 123.027 36.1564 123.211C36.629 123.395 36.8579 123.917 36.6696 124.378C36.6364 124.461 35.9644 126.216 37.2235 127.596C37.5742 127.748 38.693 128.144 39.7601 127.55C40.1182 127.351 40.5687 127.405 40.8641 127.69C41.1595 127.975 41.2259 128.411 41.0265 128.768C41.0265 128.771 40.5428 129.672 40.8308 130.45C40.9933 130.886 41.3995 131.24 42.0345 131.499C42.3521 131.6 44.4235 132.177 45.2284 130.371C45.3318 130.141 45.5312 129.96 45.7748 129.881C46.0185 129.798 46.2881 129.82 46.5133 129.942C46.9084 130.148 48.1305 130.62 48.9945 130.313C49.4007 130.169 49.7035 129.852 49.9139 129.344C50.1133 128.775 50.3607 127.445 49.8105 127.085C49.5152 126.89 49.3564 126.548 49.4118 126.202C49.4635 125.856 49.7182 125.571 50.0579 125.474C50.165 125.441 51.1804 125.085 51.2468 124C51.2764 123.503 51.7232 123.132 52.2253 123.157C52.7349 123.186 53.1225 123.614 53.0893 124.112C53.0155 125.301 52.3915 126.115 51.7232 126.62C52.3398 127.971 51.7379 129.719 51.6493 129.968C51.2284 130.995 50.5305 131.694 49.6185 132.014C48.4739 132.418 47.2592 132.159 46.469 131.885C45.5865 133.103 44.2684 133.47 43.109 133.47L43.1127 133.463Z" fill="#231F20"/>
<path d="M43.3707 158.605C43.3006 158.605 43.2304 158.598 43.1602 158.58C42.6618 158.468 42.3553 157.982 42.4698 157.499C42.7356 156.382 42.6692 155.542 42.2778 155.074C41.8273 154.537 41.015 154.551 41.0002 154.551C40.6753 154.569 40.3541 154.393 40.1806 154.115C40.0107 153.838 39.9996 153.492 40.1584 153.211C41.4027 151.038 40.0144 149.975 39.9553 149.932C39.4827 149.6 39.0322 149.477 38.5892 149.56C37.7953 149.719 37.1344 150.537 36.9461 150.84C36.7615 151.139 36.4107 151.308 36.0562 151.268C35.7018 151.232 35.399 150.998 35.2809 150.67C34.9449 149.723 34.4575 149.16 33.8335 149.002C33.1393 148.825 32.4082 149.153 32.1719 149.312C32.0021 149.56 31.7141 149.723 31.3781 149.712C30.8686 149.697 30.4661 149.286 30.4809 148.789C30.5067 147.773 32.2162 147.286 32.8144 147.196C33.5639 147.081 35.207 147.067 36.3627 148.75C36.8279 148.342 37.4482 147.953 38.2015 147.798C39.1541 147.607 40.1399 147.841 41.0482 148.483C41.879 149.099 43.0126 150.721 42.2741 152.966C42.7467 153.128 43.2599 153.416 43.6846 153.91C44.4784 154.84 44.6741 156.184 44.2642 157.906C44.1646 158.324 43.7842 158.605 43.367 158.605H43.3707Z" fill="#231F20"/>
</svg>
