<svg width="100" height="210" viewBox="0 0 100 210" fill="none" xmlns="http://www.w3.org/2000/svg">
<path d="M17.0154 156L14 185.756C14 185.756 22.9731 189.119 26.4615 183.625L31.6846 156.795L17.0115 156H17.0154Z" fill="#FFBA57"/>
<path d="M80.877 83.7675L84.0885 101.733L91.4116 100.499L92.45 82.7837L80.877 83.7675Z" fill="#FF6A2F"/>
<path d="M33.534 51.8098C33.534 51.8098 34.1532 61.6628 38.5993 65.4958C42.5801 68.9314 48.6224 73.612 57.7686 69.552C66.9147 65.492 71.4955 49.6796 73.4455 37.6698C75.434 25.4255 68.3993 25.5655 68.3993 25.5655L44.0493 27.4271L36.7532 36.1828L33.7878 43.8677L30.957 44.965V48.1774L31.1378 49.8725L33.5301 51.806L33.534 51.8098Z" fill="white"/>
<path d="M15.9778 97.1624L13.5586 155.092L36.7547 159.148L44.7047 134.406L51.9471 156.515L72.2394 152.981C72.2394 152.981 71.897 95.0359 69.4317 86.4316L68.8086 69.3932L62.2009 67.77C62.2009 67.77 64.6624 77.6835 64.0817 85.3532L39.074 84.6721C39.074 84.6721 34.1471 66.3019 30.9894 64.8867H25.0047C25.0047 64.8867 35.0278 72.7986 33.2547 87.4267L15.9778 97.1624Z" fill="#2BE6AE"/>
<path d="M14.6465 92.8637C14.6465 92.8637 17.8888 105.653 27.9619 106.217C27.9619 106.217 38.0273 105.327 42.8965 103.617L45.5196 103.099L47.3042 103.564L47.8542 100.953L49.3503 99.5345L48.4465 97.4875L49.6772 94.8161L46.3696 93.5712L48.0503 89.935L45.3619 89.6172L36.4542 92.7994L33.2542 91.9177L32.108 91.0929L14.6465 92.8561V92.8637Z" fill="white"/>
<path d="M32.1657 65.4955L38.0926 78.296L39.0772 84.6755H64.3733V75.7003L62.2041 67.7733C62.2041 67.7733 55.3041 70.0284 50.2733 69.8317C45.2426 69.6349 38.6003 65.4992 38.6003 65.4992L31.1426 64.103L32.1657 65.4992V65.4955Z" fill="#F8B3FF"/>
<path d="M15.3199 183.44C15.3199 183.44 12.566 186.391 13.3814 192.449C14.1968 198.507 14.6199 198.855 14.6199 198.855H44.4968C44.4968 198.855 47.2006 192.729 42.5506 189.982C42.5506 189.982 35.1583 183.054 26.6814 182.672C26.6814 182.672 17.2622 180.402 15.3199 183.444V183.44Z" fill="#67A9F9"/>
<path d="M63.2085 183.44C63.2085 183.44 60.4547 186.391 61.2701 192.449C62.0855 198.507 62.5085 198.855 62.5085 198.855H92.3855C92.3855 198.855 95.0893 192.729 90.4393 189.982C90.4393 189.982 83.5 183 73.5 184C73.5 184 65.1509 180.402 63.2085 183.444V183.44Z" fill="#67A9F9"/>
<path d="M33.5351 51.8096C33.5351 51.8096 35.1428 53.0696 31.1428 53.7355C27.1428 54.4015 23.312 54.8669 23.6966 51.1815C24.0813 47.4961 34.0005 36.0766 38.2505 35.7437L34.3351 43.1107L30.1197 45.2674L30.312 48.0939L31.9697 51.6772L33.5313 51.8096H33.5351Z" fill="#FFBA57"/>
<path d="M42.3194 33.7042C42.3194 33.7042 48.204 36.3793 53.4271 32.4063L54.5348 35.3199L59.4925 32.728L61.7271 34.8961C61.7271 34.8961 68.8502 31.9523 66.8771 25.7847C64.904 19.6172 34.9656 31.4415 42.3232 33.7042H42.3194Z" fill="#FFBA57"/>
<path d="M69.9238 26.1597L73.6277 39.8153C73.6277 39.8153 82.5969 29.9964 79.2815 28.4337C75.9661 26.871 73.3354 24.4343 69.9277 26.1597H69.9238Z" fill="#FFBA57"/>
<path d="M35.9616 9.09459C35.9616 9.09459 25.3347 12.3903 22.2539 28.4297C22.2539 28.4297 22.3308 40.7724 27.3154 44.647C27.3154 44.647 29.8078 41.7676 34.5424 38.3849C39.8616 34.5822 48.0154 30.1438 58.6501 28.4297C78.7501 25.1908 72.5424 26.3373 72.5424 26.3373C72.5424 26.3373 61.2231 11.4557 59.4924 10.82C57.7654 10.1843 44.9154 3.60053 35.9654 9.09459H35.9616Z" fill="#FFF080"/>
<path d="M54.8652 156.008L62.5 185.5L68.7998 186.498L73.3268 184.742L69.4345 153.473L54.8652 156.008Z" fill="#FFBA57"/>
<path d="M56 156.37L57.2413 161L70 158.685L69.4947 154L56 156.37Z" fill="#FFF080"/>
<path d="M58 168.708L59.2413 174L72 171.354L71.4947 166L58 168.708Z" fill="#FFF080"/>
<path d="M61.1191 180.757L62.3191 185.249C66.096 187.148 69.7729 187.122 73.3229 184.745L72.5 177.5L61.1152 180.757H61.1191Z" fill="#FFF080"/>
<path d="M31.4936 162.352H16.959V155.946L31.4936 157.577V162.352Z" fill="#FFF080"/>
<path d="M29 174H16V168L29 169.525V174Z" fill="#FFF080"/>
<path d="M14.5 182L14 185.5C14 185.5 21.1923 188.786 26.5 184L27.45 180.553L14.5 182Z" fill="#FFF080"/>
<path d="M25 64.8901C25 64.8901 18.2393 64.4852 14.8624 74.2095C11.4893 83.9376 12.5162 93.0792 12.5162 93.0792L32.7624 91.036C32.7624 91.036 35.5 81 26.0085 64.89L25 64.8901Z" fill="#F8B3FF"/>
<path d="M30.2158 64.5798C30.2158 64.5798 33.7889 67.0582 34.2543 68.8668C34.7158 70.6755 57.4312 79.923 63.3197 71.8484L62.1235 67.0317C62.1235 67.0317 51.4851 74.0847 38.6004 64.8938C38.6004 64.8938 29.0889 63.1079 30.2158 64.5836V64.5798Z" fill="#FCDDFF"/>
<path d="M86.6616 76.8774V80.2564L84.877 81.7737L85.3116 84.2028L85.3039 86.4315C85.3039 86.4315 86.3808 89.4396 86.3808 89.4245C86.3808 89.4093 86.3808 90.3288 86.3808 90.3288L91.0693 91.0364L92.8923 89.4245L93.8423 84.6758V80.1126L92.877 78.4477L87.9693 77.2747L86.6654 76.8774H86.6616Z" fill="#FF6A2F"/>
<path d="M14.6465 92.8637C14.6465 92.8637 16.0349 101.006 19.9311 103.103C23.8273 105.199 31.2888 106.671 39.2965 105.119L43.9734 102.94L47.3042 103.568L47.8542 100.957L49.3503 99.5382L48.4465 97.4912L49.0003 94.6269L46.3734 93.575L48.0542 89.9388L44.4657 89.4204L38.3926 92.122C38.3926 92.122 35.4926 94.2296 34.3734 93.0756C33.2542 91.9215 32.108 91.1004 32.108 91.1004L14.6465 92.8637Z" fill="white"/>
<path d="M69.6038 80.4188C69.6038 80.4188 74.8731 83.9226 79.8577 81.7696L81.6808 90.3361C81.6808 90.3361 78.45 96.1404 70.3231 95.2361L68.75 86.4275L69.6038 80.415V80.4188Z" fill="white"/>
<path d="M49.2056 46.0279C51.1216 46.0279 52.6748 45.0623 52.6748 43.8711C52.6748 42.68 51.1216 41.7144 49.2056 41.7144C47.2896 41.7144 45.7363 42.68 45.7363 43.8711C45.7363 45.0623 47.2896 46.0279 49.2056 46.0279Z" fill="white"/>
<path d="M49.2065 46.2173C47.1872 46.2173 45.5449 45.1654 45.5449 43.8713C45.5449 42.5773 47.1872 41.5254 49.2065 41.5254C51.2257 41.5254 52.868 42.5773 52.868 43.8713C52.868 45.1654 51.2257 46.2173 49.2065 46.2173ZM49.2065 41.9038C47.3988 41.9038 45.9295 42.7854 45.9295 43.8713C45.9295 44.9573 47.3988 45.8389 49.2065 45.8389C51.0142 45.8389 52.4834 44.9573 52.4834 43.8713C52.4834 42.7854 51.0142 41.9038 49.2065 41.9038Z" fill="black"/>
<path d="M49.5877 47.4245C47.9339 47.4245 45.6185 46.7472 44.8954 44.2953C44.8839 44.2612 44.8762 44.2272 44.8723 44.1931C44.8492 44.0569 44.2992 40.7953 46.2031 38.8277C47.2916 37.7002 48.8992 37.2575 50.9723 37.5034C51.2877 37.5337 52.9146 37.772 54.2223 39.6791C54.5185 40.1104 54.4031 40.7007 53.9646 40.992C53.5262 41.2834 52.9262 41.1699 52.63 40.7385C51.7839 39.5088 50.83 39.3915 50.7916 39.3877C49.3108 39.2099 48.2454 39.4596 47.5954 40.1331C47.4108 40.3223 47.2646 40.538 47.1492 40.765C48.7569 40.2164 50.8916 40.1785 52.68 41.7148C53.5262 42.4412 53.8992 43.6293 53.63 44.7342C53.3262 45.9791 52.2723 46.9137 50.7416 47.2958C50.4339 47.3715 50.0377 47.4207 49.5954 47.4207L49.5877 47.4245ZM46.7608 43.8261C47.4377 45.945 50.2377 45.4758 50.2646 45.4683C51.0954 45.2602 51.6262 44.8439 51.7569 44.2991C51.8569 43.8829 51.7146 43.4061 51.4108 43.1412C49.5531 41.5407 47.3762 42.6342 46.7069 43.1072C46.7146 43.4553 46.7454 43.7202 46.7608 43.8223V43.8261Z" fill="black"/>
<path d="M68.0259 45.2637C69.9419 45.2637 71.4951 44.2981 71.4951 43.107C71.4951 41.9158 69.9419 40.9502 68.0259 40.9502C66.1099 40.9502 64.5566 41.9158 64.5566 43.107C64.5566 44.2981 66.1099 45.2637 68.0259 45.2637Z" fill="white"/>
<path d="M68.0268 45.4531C66.0075 45.4531 64.3652 44.4012 64.3652 43.1072C64.3652 41.8131 66.0075 40.7612 68.0268 40.7612C70.046 40.7612 71.6883 41.8131 71.6883 43.1072C71.6883 44.4012 70.046 45.4531 68.0268 45.4531ZM68.0268 41.1396C66.2191 41.1396 64.7498 42.0212 64.7498 43.1072C64.7498 44.1931 66.2191 45.0747 68.0268 45.0747C69.8345 45.0747 71.3037 44.1931 71.3037 43.1072C71.3037 42.0212 69.8345 41.1396 68.0268 41.1396Z" fill="black"/>
<path d="M68.4041 46.7091C66.7503 46.7091 64.4349 46.0319 63.7118 43.58C63.7003 43.5459 63.6926 43.5118 63.6887 43.4778C63.6656 43.3416 63.1156 40.08 65.0195 38.1124C66.108 36.9848 67.7118 36.5421 69.7887 36.7881C70.1041 36.8183 71.7272 37.0567 73.0387 38.9637C73.3349 39.3951 73.2195 39.9854 72.781 40.2767C72.3387 40.5681 71.7426 40.4546 71.4464 40.0232C70.5964 38.7897 69.6349 38.6724 69.6272 38.6724C69.608 38.6724 69.5926 38.6724 69.5733 38.6686C68.1272 38.4946 67.0657 38.7443 66.4118 39.4178C66.231 39.607 66.081 39.8227 65.9656 40.0497C67.5733 39.501 69.708 39.4632 71.4964 40.9994C72.3426 41.7297 72.7157 42.914 72.4464 44.0189C72.1426 45.2637 71.0887 46.1983 69.558 46.5805C69.2503 46.6562 68.8541 46.7054 68.4118 46.7054L68.4041 46.7091ZM65.5772 43.107C66.2541 45.2259 69.0541 44.7567 69.081 44.7491C69.9118 44.541 70.4426 44.1248 70.5733 43.58C70.6733 43.1637 70.5349 42.687 70.2272 42.4221C68.3695 40.8254 66.1926 41.9151 65.5233 42.3881C65.531 42.7362 65.5618 43.001 65.5772 43.1032V43.107Z" fill="black"/>
<path d="M57.4263 62.6086C57.3725 62.6086 57.3186 62.6048 57.2648 62.5935C55.0802 62.234 53.7071 61.3826 53.1763 60.0659C52.3763 58.0794 53.9148 56.0021 54.0917 55.7713C54.3994 55.3702 54.9763 55.2794 55.3994 55.5632C56.9802 56.6226 58.3879 56.2291 59.134 55.8583L57.6725 52.2145C57.5571 51.9232 57.5917 51.594 57.7725 51.3367C57.9532 51.0794 58.2494 50.9243 58.5686 50.9243H62.2763L60.334 44.1248C60.1917 43.6216 60.4879 43.0994 60.9994 42.9594C61.5109 42.8194 62.0417 43.1107 62.184 43.614L64.4686 51.6167C64.5494 51.9005 64.4917 52.207 64.3109 52.4453C64.1302 52.6799 63.8456 52.8199 63.5456 52.8199H59.984L61.2186 55.8924C61.3686 56.267 61.2609 56.6983 60.9456 56.9594C59.9994 57.754 57.6956 58.7794 55.2032 57.6291C54.9494 58.1551 54.7494 58.8399 54.9686 59.3772C55.2994 60.1945 56.5763 60.5653 57.5879 60.7318C58.1109 60.8189 58.4648 61.307 58.3763 61.8216C58.2956 62.2832 57.8917 62.6124 57.4302 62.6124L57.4263 62.6086Z" fill="black"/>
<path d="M28.2609 55.3892C25.5801 55.3892 23.8839 54.7043 23.1186 53.3233C22.2609 51.7757 22.7455 49.566 24.557 46.7584C25.8032 44.8287 27.2339 43.2925 27.2955 43.2281C36.5763 33.6892 47.8339 29.3492 55.6455 27.3892C64.1032 25.2665 70.2955 25.3876 70.557 25.3952C76.5532 25.433 79.9532 26.6779 80.9301 29.1979C82.4224 33.0422 77.2147 37.8362 76.6147 38.3698C76.2224 38.7216 75.6147 38.6914 75.257 38.3054C74.8993 37.9195 74.9301 37.3216 75.3224 36.9698C76.5878 35.8384 80.0032 32.1076 79.134 29.8714C78.4993 28.2368 75.4416 27.3211 70.5263 27.2871C70.2609 27.2795 45.8263 26.92 28.6955 44.526C26.5493 46.8227 23.9109 50.7995 24.807 52.4189C25.4378 53.5541 28.1263 53.8076 32.1839 53.1076C32.707 53.0168 33.207 53.3611 33.2955 53.8757C33.3878 54.3903 33.0378 54.8822 32.5147 54.9692C30.8916 55.2492 29.4763 55.3892 28.2609 55.3892Z" fill="black"/>
<path d="M69.9223 22.7693C69.6223 22.7693 69.3223 22.6293 69.1376 22.3683C63.03 13.8623 56.1915 9.03798 48.8146 8.03528C39.3684 6.74879 32.2992 12.2807 32.2261 12.3374C31.8146 12.6666 31.2069 12.6023 30.8723 12.1974C30.5376 11.7926 30.603 11.1947 31.0146 10.8656C31.3261 10.6158 38.8107 4.76231 49.0761 6.16231C57.003 7.24069 64.28 12.3261 70.7069 21.2785C71.0146 21.7061 70.9107 22.2964 70.4761 22.5953C70.3069 22.7126 70.1146 22.7693 69.9223 22.7693Z" fill="black"/>
<path d="M25.2187 42.6605C24.8687 42.6605 24.5302 42.4713 24.361 42.1421C19.8264 33.3675 21.1687 26.0951 23.0918 21.5356C25.1726 16.6053 28.3072 13.7751 28.4379 13.6578C28.8302 13.3059 29.4379 13.3362 29.7956 13.7221C30.1533 14.108 30.1226 14.7059 29.7302 15.0578C29.6995 15.0843 26.7456 17.767 24.8341 22.334C22.2956 28.407 22.711 34.7826 26.0726 41.2832C26.3149 41.7486 26.1264 42.3199 25.6495 42.5545C25.511 42.6226 25.361 42.6567 25.2149 42.6567L25.2187 42.6605Z" fill="black"/>
<path d="M54.1684 36.2659C53.9261 36.2659 53.6915 36.1751 53.5107 36.0124C53.3145 35.8346 53.2069 35.5848 53.2069 35.32V34.094C51.753 34.9378 49.5222 36.0237 47.6569 36.0237C47.1261 36.0237 46.6953 35.6 46.6953 35.0778C46.6953 34.5556 47.1261 34.1319 47.6569 34.1319C49.6107 34.1319 52.6107 32.3005 53.603 31.5929C53.8953 31.3848 54.2838 31.3546 54.603 31.5173C54.9261 31.68 55.1261 32.0054 55.1261 32.361V34.2302C57.8338 33.6324 59.753 31.5702 59.7761 31.5475C59.9953 31.3091 60.3184 31.1956 60.6415 31.2486C60.9645 31.2978 61.2376 31.5059 61.3684 31.7973L62.1761 33.5832C64.6607 31.9259 65.4992 28.2746 65.5107 28.2329C65.6261 27.7221 66.1376 27.4005 66.6569 27.5102C67.1761 27.6237 67.503 28.127 67.3915 28.6378C67.3415 28.861 66.1338 34.0902 62.0992 35.7702C61.6184 35.9708 61.0569 35.7551 60.8453 35.2821L60.1645 33.7724C58.9761 34.7335 56.8607 36.0919 54.2338 36.2659C54.2107 36.2659 54.1915 36.2659 54.1684 36.2659Z" fill="black"/>
<path d="M33.8421 52.1242C32.1536 52.1242 30.9152 51.6587 30.1498 50.7279C28.5729 48.8058 29.7767 45.8809 29.919 45.5555C29.9229 45.5442 29.9306 45.529 29.9383 45.5177C30.7613 43.8452 31.8729 42.8728 33.2383 42.6231C35.4306 42.2258 37.3306 43.9587 37.4113 44.0306C37.7959 44.3901 37.8152 44.9879 37.4536 45.3663C37.0883 45.7447 36.4844 45.7636 36.0959 45.4079C35.7421 45.0863 34.6036 44.2955 33.5806 44.4809C32.8575 44.6133 32.219 45.2339 31.6806 46.316C31.419 46.9328 30.9267 48.662 31.6498 49.5398C32.2421 50.2587 33.7498 50.4252 35.8998 50.009C36.419 49.9106 36.9267 50.2436 37.0306 50.7544C37.1344 51.2652 36.7921 51.7647 36.2729 51.8669C35.3806 52.0409 34.5729 52.1242 33.8459 52.1242H33.8421Z" fill="black"/>
<path d="M52.3801 71.0052C43.9378 71.0052 38.2801 66.4684 37.9839 66.2263C37.5763 65.8933 37.5224 65.2954 37.8609 64.8944C38.1993 64.4933 38.807 64.4403 39.2147 64.7733C39.3416 64.8754 47.8609 71.6371 59.1955 68.0387C59.6993 67.8798 60.2416 68.1522 60.407 68.6479C60.5686 69.1435 60.2916 69.6771 59.7878 69.8398C57.1493 70.676 54.6647 71.009 52.3801 71.009V71.0052Z" fill="black"/>
<path d="M52.6266 75.7538C43.1343 75.7538 37.3651 71.4327 37.0727 71.2057C36.6535 70.884 36.5804 70.29 36.9074 69.8775C37.2343 69.4651 37.8381 69.3932 38.2574 69.7111C38.3497 69.7792 46.5727 75.89 59.2843 73.124C59.8035 73.0105 60.3151 73.3321 60.4304 73.843C60.5458 74.3538 60.2189 74.857 59.6997 74.9705C57.1612 75.523 54.7997 75.7462 52.6304 75.7462L52.6266 75.7538Z" fill="black"/>
<path d="M33.2392 87.3775C32.7123 87.3775 32.2854 86.9613 32.2777 86.4429C32.1277 73.4229 24.4084 65.7077 24.3277 65.6321C24.0623 65.371 23.9738 64.9775 24.1046 64.6294C24.2354 64.2813 24.5623 64.0429 24.9392 64.0164L30.5431 63.6342C30.7892 63.6191 31.0354 63.6948 31.2238 63.8499C36.3431 68.0499 39.1931 80.4569 39.8661 83.7261H63.4777C64.5854 75.118 61.3661 68.2429 61.3315 68.171C61.1738 67.8418 61.2238 67.4483 61.4584 67.1683C61.6931 66.8845 62.0738 66.7634 62.4354 66.8504L69.0431 68.4737C69.4084 68.5645 69.6854 68.8521 69.7546 69.2153C69.8277 69.6012 71.5584 78.7467 69.7469 86.2688C69.6238 86.7758 69.1046 87.0899 68.5892 86.9726C68.0738 86.8515 67.7546 86.3407 67.8738 85.8337C69.3354 79.7645 68.3123 72.2953 67.9661 70.1613L63.7815 69.1358C64.7854 71.9548 66.3661 77.8575 65.2623 84.8234C65.1892 85.285 64.7854 85.6218 64.3123 85.6218H39.0738C38.6084 85.6218 38.2123 85.2964 38.1277 84.8461C38.1008 84.6985 35.3546 70.1575 30.2738 65.5526L26.9969 65.7758C29.3623 68.7045 34.0777 75.8521 34.1969 86.424C34.2046 86.9461 33.7777 87.3737 33.2469 87.3812H33.2354L33.2392 87.3775Z" fill="black"/>
<path d="M53.9121 157.461C53.4621 157.461 53.0582 157.147 52.9697 156.696C52.8659 156.186 53.2082 155.686 53.7274 155.588L71.3274 152.194C72.5774 131.417 68.6851 89.9315 68.6467 89.5115C68.5967 88.9931 68.9851 88.5315 69.5159 88.4823C70.0428 88.4331 70.5121 88.8153 70.5621 89.3374C70.6044 89.765 74.6005 132.378 73.2005 153.045C73.1697 153.473 72.8544 153.828 72.4274 153.911L54.0967 157.446C54.0351 157.457 53.9736 157.464 53.9121 157.464V157.461Z" fill="black"/>
<path d="M12.8231 94.0255C12.6039 94.0255 12.3885 93.9536 12.2193 93.8136C12.0193 93.6509 11.8885 93.4201 11.8654 93.1628C9.51929 67.7736 21.2116 65.265 21.7078 65.1704C22.2308 65.072 22.7347 65.4088 22.8347 65.9196C22.9347 66.4304 22.5962 66.9261 22.077 67.0245C21.9539 67.0509 19.4616 67.6109 17.1731 70.9747C15.0501 74.0963 12.7578 80.2639 13.6962 92.0201L33.1385 89.7272C33.6693 89.6666 34.1462 90.0336 34.2078 90.5558C34.2693 91.0742 33.8962 91.5472 33.3654 91.6077L12.9347 94.0142C12.8962 94.018 12.8578 94.0218 12.8193 94.0218L12.8231 94.0255Z" fill="black"/>
<path d="M30.9962 107.352C27.3308 107.352 23.3154 106.519 19.4962 104.026C19.4616 104.003 19.4308 103.981 19.4 103.954C19.2385 103.818 15.4731 100.56 13.9308 93.9006C13.8116 93.3898 14.1385 92.8827 14.6539 92.7692C15.1693 92.6519 15.6885 92.9735 15.8039 93.4806C17.1154 99.1487 20.2308 102.134 20.6193 102.486C30.9116 109.145 43.2923 102.372 43.4193 102.304C43.6539 102.172 43.9385 102.145 44.1962 102.229C46.1616 102.868 46.8346 102.732 46.9962 102.675C46.9962 102.584 46.9577 102.425 46.9077 102.316C46.8962 102.293 46.8808 102.259 46.8731 102.236C46.4462 101.078 47.1154 100.061 47.9308 99.5914C48.3039 99.3454 48.3962 99.1676 48.3962 99.126C48.3962 99.0806 48.3193 98.9595 48.2423 98.8876C46.977 97.9833 47.3154 96.4925 47.8616 95.7017C47.8923 95.66 47.9231 95.6184 47.9616 95.5806C48.15 95.3838 48.2193 95.259 48.2423 95.2022C48.127 95.0849 47.7731 94.9184 47.4808 94.8541C46.3077 94.6081 45.8654 93.9952 45.7077 93.526C45.3808 92.5687 46 91.6492 46.2616 91.3162C46.5346 90.7752 46.55 90.5141 46.5462 90.4308C46.4077 90.3627 46.0231 90.3438 45.7385 90.3892C45.7154 90.3892 45.6885 90.3968 45.6693 90.4006C44.0616 90.5595 41.5346 92.0541 40.7 92.6179C40.6577 92.6481 40.6116 92.6746 40.5616 92.6935C40.3308 92.7995 34.9039 95.2211 31.5193 92.2244C31.1231 91.8763 31.0923 91.2784 31.4462 90.8887C31.8 90.499 32.4077 90.4687 32.8039 90.8168C35.0962 92.8449 39.1385 91.2368 39.6885 91.0022C40.2116 90.6579 43.1962 88.7584 45.4423 88.52C45.8308 88.4557 47.3423 88.2854 48.1077 89.3071C48.6462 90.026 48.5846 91.0249 47.927 92.2698C47.8923 92.3341 47.85 92.3946 47.8 92.4514C47.6962 92.5762 47.5847 92.773 47.55 92.8903C47.6077 92.9206 47.7116 92.9622 47.8923 93C48.1962 93.0644 49.7231 93.4465 50.1 94.6535C50.2539 95.1417 50.2539 95.906 49.4308 96.8027C49.3654 96.92 49.2077 97.2341 49.3885 97.3589C49.4039 97.3703 49.4193 97.3779 49.4308 97.3892C49.527 97.4611 50.3654 98.1384 50.3231 99.1941C50.2923 99.9508 49.8385 100.617 48.9693 101.181C48.95 101.192 48.9308 101.203 48.9154 101.215C48.8962 101.226 48.6347 101.389 48.677 101.567C48.8193 101.884 49.2462 103.046 48.4693 103.916C47.5077 104.995 45.5423 104.616 43.9962 104.147C42.5462 104.892 37.2923 107.348 31.0039 107.348L30.9962 107.352Z" fill="black"/>
<path d="M36.7541 159.156C36.7194 159.156 36.681 159.156 36.6464 159.148L13.4271 156.602C12.9233 156.545 12.5502 156.117 12.5733 155.622L14.9617 101.086C14.9848 100.564 15.4387 100.151 15.9617 100.182C16.4925 100.204 16.9041 100.647 16.881 101.166L14.531 154.82L36.081 157.181L45.0579 130.301C45.2233 129.805 45.7694 129.533 46.2733 129.699C46.7771 129.862 47.0541 130.395 46.8848 130.895L37.6617 158.501C37.531 158.895 37.1579 159.152 36.7502 159.152L36.7541 159.156Z" fill="black"/>
<path d="M51.9469 157.461C51.5469 157.461 51.17 157.211 51.0354 156.817L45.0623 139.325C44.893 138.829 45.1623 138.292 45.6661 138.125C46.17 137.959 46.7161 138.224 46.8854 138.719L52.8584 156.212C53.0277 156.708 52.7584 157.245 52.2546 157.411C52.1546 157.445 52.0507 157.461 51.9469 157.461Z" fill="black"/>
<path d="M19.1085 133.505C18.7316 133.505 18.3739 133.286 18.2201 132.923C18.0162 132.438 18.2508 131.886 18.7393 131.685C26.3739 128.571 28.8047 119.872 28.8278 119.785C28.9624 119.282 29.4893 118.979 30.0047 119.116C30.5162 119.248 30.8239 119.766 30.6855 120.274C30.5778 120.667 27.9778 129.968 19.4778 133.437C19.3585 133.486 19.2316 133.509 19.1085 133.509V133.505Z" fill="black"/>
<path d="M69.4313 132.128C69.2352 132.128 69.0352 132.068 68.8659 131.947C63.1698 127.845 63.039 119.998 63.0352 119.668C63.0313 119.146 63.4583 118.719 63.989 118.715H63.9967C64.5236 118.715 64.9544 119.131 64.9583 119.653C64.9583 119.744 65.1006 126.892 70.0006 130.422C70.4275 130.732 70.5236 131.322 70.2083 131.742C70.0198 131.996 69.7275 132.128 69.4313 132.128Z" fill="black"/>
<path d="M92.2239 90.4237C84.6047 92.3988 86.1624 88.9858 86.1624 88.9858C86.5162 88.0323 85.5008 87.4685 85.5008 87.4685C83.6931 86.2956 85.1047 85.2134 85.1047 85.2134C86.1201 84.521 85.2816 83.3064 85.2816 83.3064C83.6047 81.5696 86.2508 81.0058 86.2508 81.0058C88.3239 80.5707 86.8701 78.9134 86.8701 78.9134C85.3278 75.9961 88.3701 76.5372 88.3701 76.5372C90.5739 76.7528 92.4547 77.8123 92.4547 77.8123C92.4547 77.8123 97.1201 83.768 92.2278 90.4237H92.2239Z" fill="white" stroke="black" stroke-miterlimit="10"/>
<path d="M75.8345 83.7337C74.4345 83.7337 72.9461 83.4423 71.6345 82.5531C71.1961 82.258 71.0884 81.6677 71.3884 81.2364C71.6884 80.805 72.2884 80.6953 72.7268 80.9942C75.5922 82.9315 80.0537 80.9374 80.0961 80.9147C80.5768 80.6953 81.1499 80.8996 81.373 81.3726C81.5961 81.8456 81.3884 82.4093 80.9076 82.6288C80.7614 82.6969 78.4614 83.7299 75.8345 83.7299V83.7337Z" fill="black"/>
<path d="M74.1115 95.7701C73.9346 95.7701 73.7576 95.7663 73.573 95.7549C73.0423 95.7247 72.6384 95.2782 72.6653 94.756C72.6961 94.2339 73.1499 93.8366 73.6807 93.863C78.6884 94.1393 81.1423 89.402 81.2461 89.2014C81.4846 88.736 82.0576 88.543 82.5346 88.7739C83.0076 89.0047 83.2038 89.5722 82.9692 90.0376C82.85 90.2798 80.0269 95.7663 74.1115 95.7663V95.7701Z" fill="black"/>
<path d="M84.1085 101.907C83.6508 101.907 83.2469 101.585 83.1623 101.131L78.2508 75.0006C78.2008 74.7395 78.2662 74.4671 78.4316 74.2552C78.5969 74.0433 78.8431 73.9071 79.1123 73.8844L90.6816 72.8665C91.2085 72.8173 91.6777 73.2033 91.7239 73.7255C91.77 74.2476 91.3816 74.7055 90.8508 74.7509L80.3354 75.6741L84.8969 99.9395L89.8662 99.5119L90.4546 91.3541C90.4931 90.8319 90.9508 90.4384 91.4816 90.4763C92.0123 90.5141 92.4085 90.9644 92.3739 91.4865L91.7277 100.45C91.6931 100.916 91.3239 101.287 90.8508 101.324L84.1931 101.896C84.1662 101.896 84.1354 101.896 84.1085 101.896V101.907Z" fill="black"/>
<path d="M88.3533 91.986C87.0341 91.986 86.1264 91.6644 85.5725 91.025C84.8764 90.2152 85.0418 89.1747 85.261 88.6487C85.311 88.4709 85.0418 88.3044 85.011 88.2855C85.0033 88.2817 84.9764 88.2666 84.9687 88.259C84.1033 87.699 83.6494 87.0293 83.6148 86.2725C83.5725 85.2169 84.411 84.5396 84.5071 84.4677C84.5225 84.4563 84.5341 84.445 84.5494 84.4374C84.7302 84.3163 84.5764 84.0023 84.5033 83.8774C83.6802 82.9806 83.6802 82.2201 83.8341 81.732C84.211 80.5287 85.7379 80.1466 86.0379 80.0823C86.2187 80.0444 86.3264 80.0028 86.3802 79.9725C86.3456 79.8514 86.2341 79.6547 86.1264 79.5298C86.0802 79.4768 86.0379 79.4125 86.0071 79.352C85.3494 78.1071 85.2879 77.1082 85.8264 76.3893C86.5879 75.3714 88.0994 75.5379 88.4917 75.6023C90.8571 75.8444 92.8418 76.9493 92.9225 76.9947C93.3841 77.2558 93.5418 77.8309 93.2802 78.285C93.0148 78.739 92.4302 78.8941 91.9687 78.6368C91.9379 78.6179 90.2187 77.672 88.2648 77.479C88.2418 77.479 88.2148 77.4714 88.1917 77.4677C87.911 77.4223 87.5264 77.4412 87.3879 77.5093C87.3841 77.5925 87.3994 77.8536 87.6725 78.3947C87.9379 78.7277 88.5571 79.6433 88.2264 80.6044C88.0648 81.0736 87.6264 81.6866 86.4418 81.9325C86.161 81.9969 85.8033 82.1596 85.6879 82.2769C85.711 82.3336 85.7802 82.4585 85.9687 82.6552C86.0033 82.6931 86.0379 82.7347 86.0687 82.7763C86.6148 83.5671 86.9571 85.0655 85.6802 85.966C85.611 86.0266 85.5302 86.1514 85.5341 86.2006C85.5341 86.246 85.6302 86.4201 85.9994 86.666C86.8148 87.1352 87.4841 88.1569 87.0571 89.3109C87.0494 89.3336 87.0418 89.3525 87.0302 89.3752C87.011 89.4206 86.9302 89.6931 87.0302 89.8066C87.061 89.8406 87.7918 90.5936 91.9687 89.5114C92.4802 89.379 93.0071 89.6817 93.1418 90.185C93.2764 90.6882 92.9687 91.2066 92.4571 91.339C90.7879 91.7704 89.4264 91.9898 88.3417 91.9898L88.3533 91.986Z" fill="black"/>
<path d="M93.2263 89.7916C93.084 89.7916 92.9378 89.7613 92.8032 89.6932C92.3263 89.4624 92.1301 88.8948 92.3647 88.4256C94.8109 83.5256 92.5417 80.2375 92.4417 80.1013C92.1378 79.6737 92.2417 79.0872 92.6724 78.7845C93.1032 78.4818 93.6993 78.5802 94.007 79.004C94.134 79.178 97.0609 83.3062 94.0878 89.2618C93.9224 89.5948 93.5801 89.7916 93.2224 89.7916H93.2263Z" fill="black"/>
<path d="M86.2624 75.156C86.2162 75.156 86.1662 75.156 86.1201 75.1446C85.5931 75.0689 85.2316 74.5846 85.3124 74.07L86.4778 66.4268L82.6393 64.3533C82.1739 64.1035 82.0047 63.5284 82.2585 63.0668C82.5162 62.6089 83.1008 62.4424 83.5662 62.6922L87.9932 65.0835C88.347 65.2727 88.5393 65.6624 88.4816 66.0522L87.2201 74.3462C87.147 74.8154 86.7393 75.1522 86.2701 75.1522L86.2624 75.156Z" fill="black"/>
<path d="M14.8662 182.748C14.6085 182.748 14.3623 182.646 14.1815 182.468C13.9892 182.275 13.8854 182.01 13.9046 181.737L15.6969 155.943C15.7315 155.421 16.1931 155.031 16.72 155.066C17.2508 155.1 17.6508 155.554 17.6123 156.072L15.8969 180.799L24.7008 180.307C25.2315 180.281 25.6854 180.678 25.7162 181.196C25.7469 181.719 25.3392 182.165 24.8123 182.195L14.92 182.748C14.92 182.748 14.8854 182.748 14.8662 182.748Z" fill="black"/>
<path d="M26.9623 182.598C26.9046 182.598 26.8431 182.594 26.7854 182.583C26.2623 182.488 25.92 181.993 26.0162 181.478L30.5239 157.773C30.62 157.258 31.1239 156.921 31.6469 157.016C32.17 157.111 32.5123 157.606 32.4162 158.121L27.9085 181.826C27.82 182.28 27.42 182.598 26.9662 182.598H26.9623Z" fill="black"/>
<path d="M61.7376 182.748C61.3029 182.748 60.9106 182.456 60.8029 182.021L54.6145 156.734C54.4914 156.227 54.8068 155.716 55.326 155.592C55.8414 155.471 56.3606 155.781 56.4876 156.292L62.676 181.579C62.7991 182.086 62.4837 182.596 61.9645 182.721C61.8876 182.74 61.8145 182.748 61.7376 182.748Z" fill="black"/>
<path d="M72.3302 181.703C71.8417 181.703 71.4225 181.34 71.3763 180.852L68.6417 153.809C68.5879 153.291 68.9763 152.825 69.5032 152.772C70.034 152.723 70.5032 153.102 70.5571 153.62L73.2917 180.663C73.3456 181.181 72.9571 181.646 72.4302 181.699C72.3994 181.699 72.3648 181.703 72.334 181.703H72.3302Z" fill="black"/>
<path d="M44.4151 199.801H14.242C13.842 199.801 13.4805 199.555 13.342 199.185C11.5728 194.504 12.5997 188.692 13.092 185.9C13.1843 185.374 13.2882 184.784 13.3036 184.564C13.2151 184.152 13.4151 183.717 13.8151 183.52C14.2882 183.285 14.8689 183.474 15.1036 183.944C15.3151 184.36 15.2382 184.795 14.9882 186.221C14.5459 188.723 13.6497 193.8 14.9343 197.906H43.792C44.3805 196.445 44.3997 195.049 43.8574 193.649C42.6882 190.637 38.8651 187.69 33.0959 185.351C32.9189 185.279 32.8035 185.23 32.7574 185.207C32.2843 184.973 32.0882 184.405 32.3266 183.94C32.5651 183.474 33.142 183.281 33.6151 183.516C33.642 183.527 33.7151 183.558 33.8228 183.599C41.8535 186.853 44.6843 190.493 45.6459 192.972C46.442 195.026 46.3189 197.141 45.2766 199.26C45.1151 199.586 44.7805 199.794 44.4112 199.794L44.4151 199.801Z" fill="black"/>
<path d="M38.1008 196.479C38.1008 196.479 38.0661 196.479 38.0508 196.479C29.4469 196.044 16.2623 195.431 15.1931 195.53C14.6623 195.579 14.1969 195.193 14.1469 194.674C14.0969 194.152 14.4854 193.694 15.0161 193.645C16.5623 193.501 35.9469 194.481 38.1508 194.591C38.6815 194.618 39.0892 195.064 39.0623 195.583C39.0354 196.086 38.6123 196.479 38.1046 196.479H38.1008Z" fill="black"/>
<path d="M19.6532 187.542C17.4379 187.542 16.084 186.751 15.984 186.694C15.5302 186.422 15.3879 185.839 15.6648 185.392C15.9417 184.95 16.5302 184.806 16.9802 185.075C17.134 185.162 20.4802 187.012 25.4609 183.591C25.8955 183.292 26.4955 183.398 26.7994 183.826C27.1032 184.254 26.9955 184.844 26.5609 185.143C23.8302 187.016 21.4571 187.542 19.6494 187.542H19.6532Z" fill="black"/>
<path d="M92.3037 199.801H62.1268C61.7268 199.801 61.3652 199.555 61.2268 199.185C59.4575 194.504 60.4845 188.692 60.9768 185.9C61.0691 185.374 61.1729 184.784 61.1883 184.564C61.0999 184.152 61.2999 183.717 61.6999 183.52C62.1729 183.285 62.7537 183.474 62.9883 183.944C63.1999 184.36 63.1229 184.795 62.8729 186.221C62.4306 188.723 61.5345 193.8 62.8191 197.906H91.6768C92.2652 196.445 92.2845 195.049 91.7422 193.649C90.5729 190.637 86.7499 187.69 80.9845 185.351C80.8076 185.279 80.6922 185.23 80.646 185.207C80.1729 184.973 79.9768 184.405 80.2152 183.94C80.4537 183.474 81.0306 183.281 81.5037 183.516C81.5306 183.527 81.6037 183.558 81.7114 183.599C89.7422 186.853 92.5729 190.493 93.5345 192.972C94.3306 195.026 94.2076 197.141 93.1652 199.26C93.0037 199.586 92.6691 199.794 92.2999 199.794L92.3037 199.801Z" fill="black"/>
<path d="M85.9894 196.479C85.9894 196.479 85.9548 196.479 85.9394 196.479C77.3356 196.044 64.151 195.431 63.0817 195.529C62.551 195.579 62.0856 195.193 62.0356 194.674C61.9856 194.152 62.374 193.694 62.9048 193.645C64.4548 193.505 83.8356 194.481 86.0394 194.591C86.5702 194.617 86.9779 195.064 86.951 195.582C86.924 196.086 86.501 196.479 85.9933 196.479H85.9894Z" fill="black"/>
<path d="M67.5419 187.542C65.3265 187.542 63.9727 186.751 63.8727 186.694C63.4188 186.422 63.2765 185.839 63.5535 185.392C63.8304 184.95 64.4188 184.806 64.8688 185.075C65.0265 185.165 68.3727 187.008 73.3496 183.591C73.7842 183.292 74.3842 183.398 74.6881 183.826C74.9919 184.254 74.8842 184.844 74.4496 185.143C71.7188 187.016 69.3458 187.542 67.5381 187.542H67.5419Z" fill="black"/>
<path d="M29.7365 164.369C29.7019 164.369 29.6673 164.369 29.6327 164.366L16.8558 162.886C16.3289 162.829 15.9481 162.364 16.0058 161.842C16.0635 161.324 16.5365 160.949 17.0673 161.006L29.8442 162.485C30.3712 162.542 30.7519 163.007 30.6942 163.529C30.6404 164.014 30.225 164.373 29.7404 164.373L29.7365 164.369Z" fill="black"/>
<path d="M29.0626 169.996C29.0364 169.996 29.0101 169.996 28.9876 169.996L15.8623 168.912C15.3445 168.87 14.9618 168.406 15.003 167.881C15.0443 167.352 15.5021 166.958 16.0124 167.004L29.1377 168.088C29.6555 168.13 30.0382 168.594 29.997 169.119C29.9557 169.621 29.5467 170 29.0626 170V169.996Z" fill="black"/>
<path d="M28.0982 176H15.9018C15.404 176 15 175.552 15 175C15 174.448 15.404 174 15.9018 174H28.0982C28.596 174 29 174.448 29 175C29 175.552 28.596 176 28.0982 176Z" fill="black"/>
<path d="M56.9598 162.791C56.5021 162.791 56.0944 162.465 56.0137 162.004C55.9252 161.489 56.2752 161.001 56.7983 160.91L69.6791 158.727C70.2021 158.64 70.6983 158.984 70.7906 159.499C70.8791 160.013 70.5291 160.501 70.006 160.592L57.1252 162.775C57.0714 162.783 57.0137 162.791 56.9598 162.791Z" fill="black"/>
<path d="M58.9624 168.804C58.497 168.804 58.0893 168.471 58.0124 168.005C57.9278 167.491 58.2855 167.002 58.8124 166.923L70.0047 165.012C70.5316 164.929 71.0239 165.281 71.1047 165.799C71.1893 166.314 70.8316 166.802 70.3047 166.881L59.1124 168.792C59.0624 168.8 59.0085 168.804 58.9585 168.804H58.9624Z" fill="black"/>
<path d="M59.9614 175.346C59.5191 175.346 59.123 175.044 59.023 174.605C58.9076 174.094 59.2384 173.591 59.7576 173.477L71.1268 171.021C71.646 170.912 72.1576 171.233 72.273 171.744C72.3884 172.255 72.0576 172.758 71.5384 172.872L60.1691 175.327C60.0999 175.343 60.0307 175.35 59.9614 175.35V175.346Z" fill="black"/>
<path d="M61.4342 181.499C60.9957 181.499 60.6034 181.204 60.4996 180.769C60.3803 180.262 60.6996 179.751 61.2188 179.633L71.8457 177.204C72.3649 177.087 72.8803 177.401 72.9996 177.912C73.1188 178.423 72.7996 178.93 72.2803 179.047L61.6534 181.476C61.5803 181.491 61.5073 181.503 61.4342 181.503V181.499Z" fill="black"/>
</svg>
