<svg width="100" height="210" viewBox="0 0 100 210" fill="none" xmlns="http://www.w3.org/2000/svg">
<path d="M71.7885 88.7153H78.027L78.5962 92.6467L78.027 100.108L74.2116 105.088L71.2539 105.799L71.7885 88.7153Z" fill="white"/>
<path d="M21.0156 116.083L19.8887 153.096H51.9541L52.2464 152.169L74.2117 152.54L71.0002 115.762L21.0156 116.083Z" fill="#67A9F9"/>
<path d="M20.584 130.197C20.584 130.197 30.6224 133.364 31.5071 116.015L21.0148 116.083L20.584 130.197Z" fill="#67A9F9"/>
<path d="M27.0469 161.231L29.8315 188.478C29.8315 188.478 40.9046 189.617 42.0469 184.244L43.043 161.492L27.0469 161.228V161.231Z" fill="#FFF080"/>
<path d="M52.2455 161.231L51.8301 189.322C51.8301 189.322 60.3455 189.235 62.7878 186.613L66.9378 161.719L52.2493 161.228L52.2455 161.231Z" fill="#FFF080"/>
<path d="M26.4316 161.231L27.497 165.969H43.197L43.8124 161.72L26.4316 161.231Z" fill="#FFBA57"/>
<path d="M52.247 161.231L52.1777 165.969L66.5354 166.192L67.8431 161.231H52.247Z" fill="#FFBA57"/>
<path d="M30.185 189.322C30.185 189.322 28.1657 199.993 31.7696 200.689C31.7696 200.689 43.1619 201.294 47.9196 200.98C52.6773 200.666 60.6311 200.348 60.6311 200.348C60.6311 200.348 64.6003 197.65 59.6196 194.979C54.6388 192.304 42.0426 185.705 42.0426 185.705L30.1811 189.326L30.185 189.322Z" fill="#2BE6AE"/>
<path d="M52.6192 189.322C52.6192 189.322 51.4192 199.993 55.0269 200.689C55.0269 200.689 66.4192 201.294 71.1769 200.98C75.9346 200.666 83.8885 200.348 83.8885 200.348C83.8885 200.348 87.8577 197.65 82.8769 194.979C77.8962 192.304 65.3 185.705 65.3 185.705L52.6192 189.326V189.322Z" fill="#2BE6AE"/>
<path d="M39.969 58.4106C39.969 58.4106 23.2613 62.7771 21.0267 64.6501C18.7921 66.5231 9.40747 77.2842 11.5152 91.6436H19.8882L18.8267 114.944L73.0998 115.765L71.4959 90.7923H80.1921C80.1921 90.7923 84.719 71.5593 66.9459 62.7544L65.1344 62.1642L58.1575 64.4117L39.969 58.4144V58.4106Z" fill="#F8B3FF"/>
<path d="M11.207 87.6029L11.5147 91.6402L33.107 91.3753V87.4023L11.207 87.6029Z" fill="#FFF080"/>
<path d="M39.9688 84.1519L45.5957 108.989L56.2149 107.543L54.9072 82.4644L39.9688 84.1519Z" fill="white"/>
<path d="M71.2539 87.0844L71.4924 90.7888H80.1885L80.2385 86.6455L71.2539 87.0844Z" fill="#FFF080"/>
<path d="M34 60.0492C34 60.0492 39.1769 72.8838 55.8154 70.254C55.8154 70.254 65.6962 71.4875 62.6308 63.2578C59.5654 55.0281 37.1577 58.4108 34 60.053V60.0492Z" fill="#FFF080"/>
<path d="M41.4688 89.7407L45.5957 108.989L56.2149 107.543L55.2341 88.7153L41.4688 89.7407Z" fill="#FF6A2F"/>
<path d="M65.3352 24.1678C65.3352 24.1678 75.589 54.9981 64.2275 63.1029C52.866 71.2078 40.016 63.6894 38.966 62.157C36.1698 58.0629 28.1313 44.7629 29.7467 46.2386C29.7467 46.2386 22.9736 45.6294 25.4967 39.8099C28.0198 33.9905 28.8929 17.9283 28.8929 17.9283C28.8929 17.9283 65.566 14.0916 65.3313 24.164L65.3352 24.1678Z" fill="white"/>
<path d="M24.7302 42.008C24.7302 42.008 11.0148 25.5069 25.0918 13.1944C25.0918 13.1944 34.8725 -2.02771 63.2264 8.1885C63.2264 8.1885 69.3225 10.9242 68.1379 17.2166C66.9533 23.509 64.511 24.4096 64.511 24.4096C64.511 24.4096 54.9725 20.1453 41.9379 25.3366C41.9379 25.3366 33.9495 23.1458 32.4187 20.2058C32.4187 20.2058 35.4533 27.9172 37.3225 27.9966C37.3225 27.9966 37.7456 35.322 38.311 35.5944C38.8764 35.8669 31.5956 39.3253 31.5956 39.3253C31.5956 39.3253 27.7649 37.1344 26.3225 38.8561C24.8802 40.5815 24.711 39.5409 24.7302 42.008Z" fill="#FFF080"/>
<path d="M14.9883 90.7885L17.2998 98.0155L21.5575 104.285L31.5075 106.495L41.469 104.735L44.3537 103.517L48.4344 103.903L48.7691 101.243L50.3498 100.108L49.9998 98.0155V95.2193L48.0921 93.0625V89.7744H44.7767L38.0921 93.0625" fill="white"/>
<path d="M46.5181 40.668C48.4341 40.668 49.9873 39.7024 49.9873 38.5112C49.9873 37.3201 48.4341 36.3545 46.5181 36.3545C44.6021 36.3545 43.0488 37.3201 43.0488 38.5112C43.0488 39.7024 44.6021 40.668 46.5181 40.668Z" fill="white"/>
<path d="M46.519 40.8574C44.4997 40.8574 42.8574 39.8055 42.8574 38.5115C42.8574 37.2174 44.4997 36.1655 46.519 36.1655C48.5382 36.1655 50.1805 37.2174 50.1805 38.5115C50.1805 39.8055 48.5382 40.8574 46.519 40.8574ZM46.519 36.5439C44.7113 36.5439 43.242 37.4255 43.242 38.5115C43.242 39.5974 44.7113 40.479 46.519 40.479C48.3267 40.479 49.7959 39.5974 49.7959 38.5115C49.7959 37.4255 48.3267 36.5439 46.519 36.5439Z" fill="black"/>
<path d="M46.9002 42.0646C45.2464 42.0646 42.931 41.3873 42.2079 38.9354C42.1964 38.9014 42.1887 38.8673 42.1848 38.8333C42.1617 38.6971 41.6117 35.4354 43.5156 33.4679C44.604 32.3403 46.2079 31.8976 48.2848 32.1435C48.6002 32.1738 50.2271 32.4122 51.5348 34.3192C51.831 34.7506 51.7156 35.3408 51.2771 35.6322C50.8387 35.9235 50.2387 35.81 49.9425 35.3787C49.0964 34.1489 48.1425 34.0316 48.104 34.0279C46.6271 33.85 45.5656 34.0998 44.9156 34.7695C44.731 34.9587 44.581 35.1781 44.4617 35.4089C46.0694 34.8603 48.204 34.8187 49.9925 36.3587C50.8387 37.0889 51.2117 38.2733 50.9425 39.3781C50.6387 40.623 49.5848 41.5576 48.0541 41.9398C47.7464 42.0154 47.3502 42.0646 46.9079 42.0646H46.9002ZM44.0694 38.4625C44.7464 40.5814 47.5464 40.1122 47.5733 40.1046C48.4041 39.8965 48.9348 39.4803 49.0656 38.9354C49.1656 38.5192 49.0271 38.0425 48.7194 37.7776C46.8617 36.1771 44.681 37.2706 44.0117 37.7473C44.0194 38.0954 44.054 38.3565 44.0656 38.4625H44.0694Z" fill="black"/>
<path d="M65.3325 39.9043C67.2485 39.9043 68.8017 38.9387 68.8017 37.7476C68.8017 36.5564 67.2485 35.5908 65.3325 35.5908C63.4165 35.5908 61.8633 36.5564 61.8633 37.7476C61.8633 38.9387 63.4165 39.9043 65.3325 39.9043Z" fill="white"/>
<path d="M65.3334 40.0937C63.3142 40.0937 61.6719 39.0419 61.6719 37.7478C61.6719 36.4537 63.3142 35.4019 65.3334 35.4019C67.3526 35.4019 68.9949 36.4537 68.9949 37.7478C68.9949 39.0419 67.3526 40.0937 65.3334 40.0937ZM65.3334 35.7802C63.5257 35.7802 62.0565 36.6619 62.0565 37.7478C62.0565 38.8337 63.5257 39.7154 65.3334 39.7154C67.1411 39.7154 68.6103 38.8337 68.6103 37.7478C68.6103 36.6619 67.1411 35.7802 65.3334 35.7802Z" fill="black"/>
<path d="M65.7147 41.3498C64.0608 41.3498 61.7454 40.6725 61.0223 38.2206C61.0108 38.1865 61.0031 38.1525 60.9993 38.1184C60.9762 37.9822 60.4262 34.7168 62.33 32.753C63.4185 31.6254 65.0224 31.1827 67.0993 31.4287C67.4147 31.459 69.0377 31.6973 70.3493 33.6044C70.6454 34.0357 70.53 34.626 70.0916 34.9173C69.6531 35.2087 69.0531 35.0952 68.757 34.6638C67.9108 33.4341 66.957 33.3168 66.9185 33.313C65.4377 33.1352 64.3762 33.3849 63.7223 34.0584C63.5416 34.2476 63.3916 34.4633 63.2762 34.6903C64.8839 34.1417 67.0185 34.1038 68.807 35.64C69.6531 36.3703 70.0262 37.5546 69.757 38.6595C69.4531 39.9044 68.3993 40.839 66.8685 41.2211C66.5608 41.2968 66.1647 41.346 65.7224 41.346L65.7147 41.3498ZM62.8839 37.7476C63.5608 39.8665 66.3608 39.3973 66.3877 39.3898C67.2185 39.1817 67.7493 38.7655 67.88 38.2206C67.98 37.8044 67.8416 37.3276 67.5339 37.0627C65.6762 35.466 63.4993 36.5557 62.83 37.0287C62.8377 37.3768 62.8685 37.6417 62.8839 37.7438V37.7476Z" fill="black"/>
<path d="M65.5344 24.1901C65.2921 24.1901 65.0537 24.103 64.8652 23.9252C64.4844 23.562 64.4729 22.9641 64.8421 22.5895C69.0114 18.3555 66.5306 13.2549 66.4229 13.0393C66.1883 12.5701 66.3844 12.0063 66.8575 11.7717C67.3344 11.5409 67.9075 11.7301 68.146 12.1955C68.1806 12.2598 71.3575 18.696 66.2267 23.9063C66.0383 24.0993 65.7883 24.1938 65.5344 24.1938V24.1901Z" fill="black"/>
<path d="M29.7507 47.1881C29.7007 47.1881 29.6469 47.1843 29.5969 47.1768C26.8007 46.7303 24.9854 45.7314 24.1969 44.1989C23.3469 42.5492 23.9123 40.7746 24.5315 39.5789C25.1123 38.4665 26.093 37.6492 27.2238 37.3389C30.1854 36.5292 32.2738 39.2043 32.3623 39.3216C32.6815 39.7378 32.5969 40.3319 32.1738 40.6459C31.7507 40.96 31.1507 40.8768 30.8315 40.4643C30.8084 40.4378 29.4238 38.7049 27.7392 39.1627C27.1238 39.3292 26.5815 39.7946 26.2469 40.4416C25.8277 41.2476 25.4315 42.4054 25.9161 43.3438C26.4046 44.2935 27.7854 44.9708 29.9084 45.3114C30.4315 45.3946 30.7892 45.8789 30.7046 46.3973C30.6277 46.8627 30.22 47.1919 29.7584 47.1919L29.7507 47.1881Z" fill="black"/>
<path d="M53.7162 49.3298C53.27 49.3298 52.8662 49.0195 52.7739 48.573C52.6662 48.0622 53.0047 47.5627 53.5239 47.4568L60.2662 46.1022L56.3162 33.3017C56.1624 32.8022 56.447 32.2725 56.9585 32.1211C57.4662 31.9698 58.0047 32.2498 58.1585 32.753L62.4162 46.5487C62.4931 46.8022 62.4624 47.0784 62.3239 47.3092C62.1854 47.54 61.9547 47.6989 61.6893 47.7519L53.9124 49.3146C53.847 49.326 53.7816 49.3335 53.72 49.3335L53.7162 49.3298Z" fill="black"/>
<path d="M55.854 54.6761C53.6924 54.6761 51.1155 54.3469 49.4001 53.0415C48.9809 52.7237 48.904 52.1258 49.227 51.7134C49.554 51.301 50.1578 51.2253 50.577 51.5431C52.8155 53.2496 57.7347 52.7956 59.4424 52.4777C59.9655 52.3793 60.4655 52.7161 60.5655 53.2307C60.6655 53.7453 60.3232 54.2372 59.8001 54.3356C59.6578 54.362 57.9501 54.6723 55.8501 54.6723L55.854 54.6761Z" fill="black"/>
<path d="M52.6959 67.8096C49.7882 67.8096 46.7613 67.2685 43.8575 65.8193C39.7959 63.795 37.9267 60.961 37.8498 60.8437C37.5652 60.4047 37.6959 59.8182 38.1421 59.5382C38.5882 59.2582 39.1805 59.3869 39.469 59.8258C39.7421 60.242 46.3267 69.9323 62.2921 64.0561C62.7882 63.8745 63.3421 64.1204 63.5305 64.6123C63.7152 65.1004 63.4652 65.6453 62.9652 65.8307C60.119 66.8788 56.5113 67.8096 52.6959 67.8096Z" fill="black"/>
<path d="M73.1003 116.707H18.8272C18.5695 116.707 18.3195 116.605 18.1387 116.423C17.958 116.242 17.858 115.996 17.8656 115.739L18.2233 101.22C18.2349 100.698 18.6656 100.278 19.208 100.297C19.7387 100.308 20.158 100.743 20.1464 101.266L19.8156 114.815H72.0772L69.9387 81.571C68.6887 72.5201 65.4464 71.2753 65.4156 71.2639C64.9041 71.1202 64.6272 70.598 64.7733 70.0985C64.9195 69.5953 65.4695 69.3115 65.9772 69.4553C66.4272 69.5839 70.4272 71.0104 71.8464 81.3477C71.8464 81.3704 71.8503 81.3931 71.8541 81.4158L74.058 115.701C74.0733 115.962 73.981 116.219 73.8003 116.408C73.6195 116.597 73.3656 116.707 73.1003 116.707Z" fill="black"/>
<path d="M33.1493 92.5857H13.0377C12.5069 92.5857 12.0762 92.1619 12.0762 91.6397C12.0762 91.1176 12.5069 90.6938 13.0377 90.6938H32.0954C30.5954 73.4549 36.3877 69.7127 36.6377 69.5614C37.0877 69.2852 37.6839 69.4252 37.9608 69.8679C38.2377 70.3068 38.1031 70.8857 37.6608 71.1619C37.5531 71.2376 32.4262 74.9116 34.1031 91.5489C34.13 91.8138 34.0416 92.0787 33.8608 92.2792C33.68 92.4797 33.4185 92.5895 33.1493 92.5895V92.5857Z" fill="black"/>
<path d="M11.5233 89.0632C11.0002 89.0632 10.5733 88.6545 10.5618 88.1362C10.4002 80.5345 11.9464 70.1859 20.2425 64.0372C25.2348 60.3367 30.2541 59.9508 30.4656 59.9356C31.0002 59.8978 31.4541 60.2913 31.4925 60.8135C31.531 61.3356 31.131 61.7859 30.6041 61.8237C30.5271 61.8313 25.8541 62.2172 21.3271 65.6075C15.2425 70.167 12.2695 77.7345 12.4887 88.0983C12.5002 88.6205 12.0771 89.0518 11.5464 89.0632C11.5387 89.0632 11.531 89.0632 11.5271 89.0632H11.5233Z" fill="black"/>
<path d="M80.1888 91.7343H73.1004C72.5696 91.7343 72.1388 91.3105 72.1388 90.7884C72.1388 90.2662 72.5696 89.8424 73.1004 89.8424H79.2735C79.5427 83.3343 78.785 74.7376 74.0273 68.9446C71.085 65.3613 67.9388 64.5327 67.9081 64.5251C67.3965 64.3965 67.085 63.8819 67.2119 63.3786C67.3427 62.8754 67.8581 62.5689 68.3735 62.69C68.5235 62.7278 72.0735 63.6284 75.4196 67.6316C78.4311 71.2338 81.8696 78.1846 81.1504 90.8413C81.1235 91.3408 80.7004 91.7343 80.1888 91.7343Z" fill="black"/>
<path d="M32.8312 88.6731H15.8658C15.3351 88.6731 14.9043 88.2494 14.9043 87.7272C14.9043 87.205 15.3351 86.7812 15.8658 86.7812H32.8312C33.362 86.7812 33.7928 87.205 33.7928 87.7272C33.7928 88.2494 33.362 88.6731 32.8312 88.6731Z" fill="black"/>
<path d="M78.0263 87.9168H71.2955C70.7648 87.9168 70.334 87.493 70.334 86.9708C70.334 86.4487 70.7648 86.0249 71.2955 86.0249H78.0263C78.5571 86.0249 78.9878 86.4487 78.9878 86.9708C78.9878 87.493 78.5571 87.9168 78.0263 87.9168Z" fill="black"/>
<path d="M31.9962 107.467C28.3308 107.467 24.3154 106.635 20.4962 104.141C20.4616 104.119 20.4308 104.096 20.4 104.069C20.2385 103.933 16.4731 100.675 14.9308 94.0159C14.8116 93.5051 15.1385 92.9981 15.6539 92.8846C16.1693 92.7673 16.6885 93.0889 16.8039 93.5959C18.127 99.3019 21.2308 102.253 21.6154 102.601C31.9077 109.261 44.2923 102.488 44.4154 102.42C44.65 102.287 44.9346 102.261 45.1923 102.344C47.1577 102.983 47.8308 102.847 47.9923 102.791C47.9923 102.7 47.9539 102.541 47.9039 102.431C47.8923 102.408 47.877 102.374 47.8693 102.352C47.4423 101.194 48.1116 100.176 48.927 99.7067C49.3 99.4608 49.3923 99.283 49.3923 99.2413C49.3923 99.1959 49.3154 99.0748 49.2385 99.003C47.9731 98.0986 48.3116 96.6078 48.8577 95.817C48.8885 95.7754 48.9193 95.7338 48.9577 95.6959C49.1462 95.4992 49.2154 95.3743 49.2385 95.3176C49.1154 95.1927 48.7346 95.0262 48.4808 94.9732C47.3 94.7273 46.8616 94.1143 46.7 93.6451C46.3731 92.6878 46.9923 91.7684 47.2539 91.4354C47.527 90.8943 47.5423 90.6332 47.5385 90.55C47.4 90.4819 47.0154 90.463 46.7308 90.5084C46.7077 90.5084 46.6808 90.5159 46.6616 90.5197C45.0577 90.6786 42.5308 92.1732 41.6923 92.737C41.65 92.7673 41.6039 92.7938 41.5539 92.8127C41.3231 92.9186 35.8962 95.3403 32.5116 92.3435C32.1154 91.9954 32.0846 91.3976 32.4385 91.0078C32.7923 90.6181 33.4 90.5878 33.7962 90.9359C36.077 92.9565 40.1308 91.3559 40.6846 91.1213C41.2116 90.777 44.1923 88.8776 46.4347 88.6392C46.8231 88.5748 48.3347 88.4046 49.1 89.4262C49.6385 90.1451 49.577 91.144 48.9193 92.3889C48.8847 92.4532 48.8423 92.5138 48.7923 92.5705C48.6885 92.6954 48.577 92.8921 48.5423 93.0094C48.6 93.0397 48.7039 93.0813 48.8846 93.1192C49.1885 93.1835 50.7154 93.5657 51.0923 94.7689C51.2462 95.257 51.2462 96.0213 50.4231 96.9181C50.3577 97.0354 50.2 97.3494 50.3808 97.4743C50.3962 97.4857 50.4116 97.4932 50.4231 97.5046C50.5193 97.5765 51.3577 98.2538 51.3154 99.3094C51.2846 100.066 50.8308 100.732 49.9616 101.296C49.9423 101.307 49.9231 101.319 49.9039 101.33C49.8846 101.341 49.6231 101.504 49.6654 101.682C49.8077 102 50.2346 103.161 49.4577 104.032C48.4962 105.11 46.5308 104.732 44.9846 104.262C43.5346 105.008 38.2808 107.463 31.9923 107.463L31.9962 107.467Z" fill="black"/>
<path d="M74.6622 104.849C74.4468 104.849 74.2314 104.781 74.0545 104.637C73.643 104.308 73.5814 103.71 73.9199 103.305C77.9968 98.3938 77.6738 90.9094 77.6699 90.8338C77.643 90.3116 78.0507 89.8689 78.5814 89.8424C79.1084 89.8121 79.5622 90.217 79.5891 90.7392C79.6084 91.0759 79.9622 99.0181 75.4084 104.501C75.2199 104.728 74.943 104.849 74.6622 104.849Z" fill="black"/>
<path d="M45.4851 110.029C45.0428 110.029 44.6505 109.73 44.5467 109.295L43.3467 104.115C43.2274 103.604 43.5544 103.097 44.0697 102.983C44.589 102.87 45.1043 103.188 45.2197 103.695L46.2236 108.031L54.8197 106.869L53.8813 83.3191L41.0582 84.6359L42.0967 91.8213C42.1697 92.3397 41.8044 92.8164 41.2813 92.8921C40.7544 92.964 40.2697 92.6045 40.1928 92.0899L39.012 83.9321C38.9736 83.6786 39.0467 83.4213 39.2044 83.2169C39.362 83.0126 39.6043 82.884 39.862 82.8575L54.6967 81.3326C54.962 81.3061 55.2236 81.3856 55.4274 81.5596C55.6313 81.7337 55.7467 81.9759 55.7582 82.2369L56.7697 107.653C56.789 108.141 56.4313 108.561 55.939 108.625L45.6082 110.021C45.5659 110.029 45.5197 110.029 45.4774 110.029H45.4851Z" fill="black"/>
<path d="M52.2454 154.042H19.8877C19.6262 154.042 19.38 153.94 19.1993 153.755C19.0185 153.569 18.9185 153.323 18.9262 153.066L20.0647 115.731C20.08 115.209 20.5262 114.804 21.0531 114.816C21.5839 114.831 22.0031 115.266 21.9839 115.788L20.8762 152.15H51.2839V131.181C51.2839 130.658 51.7147 130.235 52.2454 130.235C52.7762 130.235 53.207 130.658 53.207 131.181V153.096C53.207 153.618 52.7762 154.042 52.2454 154.042Z" fill="black"/>
<path d="M52.2467 183.76C51.7159 183.76 51.2852 183.336 51.2852 182.814V152.169C51.2852 151.647 51.7159 151.223 52.2467 151.223H73.1621L70.0429 115.845C69.9967 115.323 70.389 114.865 70.9159 114.82C71.4467 114.778 71.9121 115.16 71.9582 115.678L75.1698 152.086C75.1929 152.351 75.1044 152.612 74.9198 152.809C74.739 153.005 74.4813 153.115 74.2121 153.115H53.2082V182.814C53.2082 183.336 52.7775 183.76 52.2467 183.76Z" fill="black"/>
<path d="M24.6041 130.719C24.2195 130.719 23.8541 130.488 23.708 130.113C23.5157 129.625 23.7618 129.076 24.258 128.891C30.5618 126.5 30.5464 118.353 30.5426 118.274C30.5349 117.752 30.9618 117.324 31.4926 117.316H31.5041C32.0311 117.316 32.458 117.733 32.4657 118.251C32.4657 118.349 32.4811 120.654 31.5926 123.317C30.3887 126.927 28.0888 129.466 24.9503 130.658C24.8349 130.7 24.7195 130.722 24.6041 130.722V130.719Z" fill="black"/>
<path d="M28.0544 150.054C27.9082 150.054 27.7582 150.02 27.6159 149.952C27.1428 149.713 26.9544 149.146 27.1967 148.68L31.0813 141.196H26.9967C26.4659 141.196 26.0352 140.772 26.0352 140.25C26.0352 139.728 26.4659 139.304 26.9967 139.304H32.6505C32.9852 139.304 33.2967 139.474 33.4698 139.754C33.6428 140.034 33.6582 140.386 33.5044 140.678L28.9044 149.536C28.7352 149.865 28.3967 150.05 28.0467 150.05L28.0544 150.054Z" fill="black"/>
<path d="M46.892 84.0305C46.3805 84.0305 45.9536 83.6332 45.9305 83.1261L45.5574 74.5369C45.5382 74.064 45.8767 73.6478 46.3536 73.5645L50.1843 72.9061C50.7074 72.8153 51.2074 73.1596 51.2959 73.6742C51.3882 74.1888 51.0382 74.6807 50.5151 74.7678L47.5151 75.2823L47.8536 83.0429C47.8767 83.565 47.4651 84.0078 46.9343 84.0267C46.919 84.0267 46.9074 84.0267 46.892 84.0267V84.0305Z" fill="black"/>
<path d="M29.5808 186.647C29.0962 186.647 28.6769 186.284 28.6269 185.799L25.1769 153.195C25.1231 152.676 25.5039 152.211 26.0346 152.154C26.5616 152.097 27.0346 152.476 27.0923 152.998L30.5423 185.603C30.5962 186.121 30.2154 186.587 29.6846 186.643C29.65 186.643 29.6154 186.647 29.5846 186.647H29.5808Z" fill="black"/>
<path d="M42.0457 184.483C42.0265 184.483 42.0034 184.483 41.9842 184.483C41.4534 184.449 41.0534 183.998 41.088 183.476L43.0842 153.039C43.1188 152.517 43.5765 152.12 44.1073 152.158C44.638 152.192 45.038 152.642 45.0034 153.164L43.0073 183.601C42.9765 184.1 42.5496 184.486 42.0496 184.486L42.0457 184.483Z" fill="black"/>
<path d="M63.2312 183.76C63.1774 183.76 63.1236 183.756 63.0659 183.745C62.5428 183.654 62.1928 183.166 62.2812 182.651L67.6659 152.007C67.7582 151.492 68.2543 151.148 68.7774 151.235C69.3005 151.325 69.6505 151.814 69.562 152.328L64.1774 182.973C64.0966 183.435 63.6889 183.756 63.2312 183.756V183.76Z" fill="black"/>
<path d="M25.5009 31.4097C25.0548 31.4097 24.6586 31.1032 24.5625 30.6605C24.4509 30.1497 24.7855 29.6464 25.3048 29.5405L35.2394 27.4632C33.7279 26.2902 31.9125 24.1599 31.0779 20.4064C30.9817 19.9826 31.1932 19.5475 31.5894 19.3545C31.9855 19.1616 32.4625 19.2599 32.7509 19.5891C32.7894 19.6345 36.6355 23.9972 41.4971 24.3151C42.9086 23.6151 49.8202 20.6334 62.4009 22.3097C62.9279 22.3816 63.2971 22.8545 63.224 23.3729C63.1509 23.8913 62.6702 24.2545 62.1432 24.1826C55.2471 23.2632 50.1855 23.8345 47.1548 24.474C43.8779 25.1664 42.2048 26.0859 42.1855 26.0934C42.0317 26.1805 41.8509 26.2259 41.674 26.2183C38.7009 26.1086 36.1086 24.7653 34.2548 23.441C35.874 26.2486 38.0663 26.9221 38.1894 26.9599C38.6125 27.0848 38.8971 27.4745 38.8817 27.9059C38.8663 28.3372 38.5548 28.7043 38.124 28.7951L25.7086 31.3907C25.6432 31.4059 25.574 31.4134 25.5086 31.4134L25.5009 31.4097Z" fill="black"/>
<path d="M26.3197 13.5236C26.1851 13.5236 26.0466 13.4934 25.9158 13.4366C25.4351 13.2171 25.2274 12.6571 25.4466 12.1842C25.5235 12.0215 27.362 8.20741 33.0928 5.72903C40.5697 2.49768 50.812 3.02362 63.5389 7.29173C64.0428 7.462 64.312 7.9993 64.1389 8.49119C63.9658 8.98687 63.4235 9.25173 62.9197 9.08146C54.5581 6.27768 42.7581 3.70849 34.0235 7.39389C28.8812 9.562 27.212 12.9447 27.1966 12.9788C27.0312 13.3193 26.6851 13.5236 26.3235 13.5236H26.3197Z" fill="black"/>
<path d="M22.2663 39.4575C21.9047 39.4575 21.5586 39.2531 21.3932 38.9088C13.4624 22.1353 22.0855 14.6775 22.4547 14.3672C22.8586 14.0304 23.4663 14.0796 23.8086 14.4769C24.1509 14.8742 24.1009 15.4683 23.7009 15.8088C23.374 16.085 15.8624 22.7256 23.1355 38.1104C23.3586 38.5834 23.1509 39.1472 22.6701 39.3666C22.5393 39.4272 22.4009 39.4537 22.2663 39.4537V39.4575Z" fill="black"/>
<path d="M34.969 38.3226C34.6267 38.3226 34.296 38.1447 34.1229 37.8269C33.869 37.3691 34.0421 36.7939 34.5075 36.5442L37.6729 34.8529C36.6036 32.6507 36.7383 31.0464 36.7421 30.9707C36.7921 30.4523 37.2575 30.0664 37.7883 30.1156C38.3152 30.1647 38.7036 30.6188 38.6575 31.1372C38.6575 31.1826 38.5729 32.7074 39.7959 34.7583C39.9267 34.9777 39.9613 35.2426 39.8921 35.4923C39.8229 35.7383 39.6536 35.9464 39.4229 36.0712L35.419 38.2091C35.2729 38.2885 35.1152 38.3226 34.9613 38.3226H34.969Z" fill="black"/>
<path d="M52.0311 71.4233C48.0157 71.4233 43.7234 70.6287 39.9311 68.2222C36.0042 65.7287 34.4926 62.6941 34.4311 62.5693C34.2003 62.0963 34.4042 61.5325 34.8811 61.3093C35.358 61.086 35.9311 61.2828 36.1619 61.752C36.3811 62.1947 41.7465 72.5812 59.408 68.6839C59.9273 68.5703 60.4426 68.8882 60.558 69.399C60.6734 69.9098 60.3503 70.413 59.8311 70.5303C57.5542 71.0336 54.858 71.4271 52.0273 71.4271L52.0311 71.4233Z" fill="black"/>
<path d="M30.4611 189.769C30.0688 189.769 29.8226 189.757 29.7726 189.754C29.2418 189.727 28.8341 189.281 28.8649 188.758C28.8918 188.236 29.3418 187.831 29.8765 187.865C29.9803 187.869 36.5418 188.161 40.8226 184.948C41.2457 184.63 41.8495 184.71 42.1688 185.126C42.488 185.542 42.4111 186.136 41.988 186.45C37.9457 189.485 32.3918 189.769 30.4572 189.769H30.4611Z" fill="black"/>
<path d="M59.6202 195.921C59.4663 195.921 59.3086 195.883 59.1625 195.803L43.5817 187.441C43.1163 187.192 42.9432 186.616 43.1971 186.159C43.4509 185.701 44.0356 185.53 44.5009 185.78L60.0817 194.142C60.5471 194.392 60.7202 194.967 60.4663 195.425C60.2933 195.739 59.9625 195.917 59.6202 195.917V195.921Z" fill="black"/>
<path d="M58.4192 201.926H32.6576C32.5923 201.926 32.5269 201.918 32.4615 201.907C31.1884 201.646 30.1807 200.968 29.4653 199.886C27.4269 196.799 28.5923 191.376 28.6423 191.146C28.7538 190.635 29.2653 190.313 29.7846 190.423C30.3038 190.533 30.6346 191.036 30.5192 191.547C30.223 192.897 29.7461 196.848 31.0769 198.857C31.4884 199.481 32.0384 199.867 32.7576 200.034H58.3653C59.0076 199.962 60.673 199.587 61.2461 198.63C61.5615 198.104 61.5269 197.419 61.1423 196.537C60.9307 196.057 61.1576 195.501 61.6461 195.293C62.1346 195.084 62.7 195.308 62.9115 195.788C63.5499 197.245 63.5461 198.528 62.9038 199.599C61.7153 201.574 58.8346 201.891 58.5115 201.922C58.4807 201.922 58.4499 201.926 58.423 201.926H58.4192Z" fill="black"/>
<path d="M53.254 189.769C52.8617 189.769 52.6156 189.757 52.5656 189.754C52.0348 189.727 51.6271 189.281 51.6579 188.758C51.6848 188.236 52.1348 187.831 52.6694 187.865C52.7733 187.869 59.3348 188.161 63.6156 184.948C64.0387 184.63 64.6425 184.71 64.9617 185.126C65.281 185.542 65.204 186.136 64.781 186.45C60.7387 189.485 55.1848 189.769 53.2502 189.769H53.254Z" fill="black"/>
<path d="M82.4112 195.921C82.2573 195.921 82.0996 195.883 81.9535 195.803L66.3727 187.441C65.9073 187.192 65.7343 186.616 65.9881 186.159C66.242 185.701 66.8266 185.53 67.292 185.78L82.8727 194.142C83.3381 194.392 83.5112 194.967 83.2573 195.425C83.0843 195.739 82.7535 195.917 82.4112 195.917V195.921Z" fill="black"/>
<path d="M81.207 201.926H58.4147C57.8839 201.926 57.4531 201.502 57.4531 200.98C57.4531 200.458 57.8839 200.034 58.4147 200.034H81.157C81.7993 199.962 83.4647 199.587 84.0377 198.63C84.3531 198.104 84.3185 197.419 83.9339 196.538C83.7224 196.057 83.9493 195.501 84.4377 195.293C84.9262 195.085 85.4916 195.308 85.7031 195.788C86.3416 197.245 86.3377 198.528 85.6954 199.599C84.507 201.574 81.6262 201.892 81.3031 201.922C81.2724 201.922 81.2416 201.926 81.2147 201.926H81.207Z" fill="black"/>
<path d="M64.7928 201.926C64.6313 201.926 64.4697 201.888 64.3236 201.805C63.8621 201.547 63.6967 200.972 63.9582 200.514L67.8236 193.768C68.0851 193.314 68.6697 193.151 69.1351 193.408C69.5967 193.666 69.762 194.241 69.5005 194.699L65.6351 201.445C65.4582 201.752 65.1313 201.926 64.7967 201.926H64.7928Z" fill="black"/>
<path d="M69.1307 201.926C68.9692 201.926 68.8076 201.888 68.6615 201.805C68.1999 201.547 68.0346 200.972 68.2961 200.514L72.1615 193.768C72.423 193.314 73.0076 193.151 73.473 193.408C73.9346 193.666 74.0999 194.241 73.8384 194.699L69.973 201.445C69.7961 201.752 69.4692 201.926 69.1346 201.926H69.1307Z" fill="black"/>
<path d="M34.901 201.926C34.7318 201.926 34.5626 201.884 34.4087 201.793C33.951 201.525 33.8049 200.946 34.0741 200.496L38.4126 193.337C38.6856 192.886 39.2741 192.743 39.7318 193.007C40.1895 193.276 40.3356 193.855 40.0664 194.305L35.7279 201.464C35.5472 201.759 35.2279 201.926 34.901 201.926Z" fill="black"/>
<path d="M39.2389 201.926C39.0697 201.926 38.9004 201.884 38.7466 201.793C38.2889 201.525 38.1428 200.946 38.412 200.496L42.7504 193.337C43.0235 192.886 43.612 192.743 44.0697 193.007C44.5274 193.276 44.6735 193.855 44.4043 194.305L40.0658 201.464C39.8851 201.759 39.5658 201.926 39.2389 201.926Z" fill="black"/>
<path d="M43.5768 201.926C43.4076 201.926 43.2383 201.884 43.0845 201.793C42.6268 201.525 42.4806 200.946 42.7499 200.496L47.0883 193.337C47.3614 192.886 47.9499 192.743 48.4076 193.007C48.8653 193.276 49.0114 193.855 48.7422 194.305L44.4037 201.464C44.223 201.759 43.9037 201.926 43.5768 201.926Z" fill="black"/>
<path d="M43.0417 162.665H27.0455C26.5148 162.665 26.084 162.242 26.084 161.719C26.084 161.197 26.5148 160.773 27.0455 160.773H43.0417C43.5724 160.773 44.0032 161.197 44.0032 161.719C44.0032 162.242 43.5724 162.665 43.0417 162.665Z" fill="black"/>
<path d="M66.9352 162.177H52.2467C51.7159 162.177 51.2852 161.753 51.2852 161.231C51.2852 160.709 51.7159 160.285 52.2467 160.285H66.9352C67.4659 160.285 67.8967 160.709 67.8967 161.231C67.8967 161.753 67.4659 162.177 66.9352 162.177Z" fill="black"/>
<path d="M66.1236 166.914H52.2467C51.7159 166.914 51.2852 166.491 51.2852 165.968C51.2852 165.446 51.7159 165.022 52.2467 165.022H66.1236C66.6544 165.022 67.0852 165.446 67.0852 165.968C67.0852 166.491 66.6544 166.914 66.1236 166.914Z" fill="black"/>
<path d="M43.0429 166.914H27.4967C26.9659 166.914 26.5352 166.491 26.5352 165.968C26.5352 165.446 26.9659 165.022 27.4967 165.022H43.0429C43.5736 165.022 44.0044 165.446 44.0044 165.968C44.0044 166.491 43.5736 166.914 43.0429 166.914Z" fill="black"/>
</svg>
