<svg width="100" height="210" viewBox="0 0 100 210" fill="none" xmlns="http://www.w3.org/2000/svg">
<path d="M28.5 77.5L34 76L70 95L81 100L82 99L88 99.5L89 101L90 106L89 110.5L84.5 113L82 112L77 113L71 111.5L28.5 124.5L24 127L21.5 126.5L20.5 124.5L19.5 124L18.5 121.5L19 119.5H17.5L15.5 117.5L19 112.5L17 106.5L15.5 99.5V89L21 81.5L28.5 77.5Z" fill="white"/>
<path d="M73.797 29.0789C73.797 29.0789 86.197 53.4464 71.2124 73.5081C71.2124 73.5081 49.5547 80.7654 34.8586 68.6913C34.8586 68.6913 19.3586 38.3643 44.3739 17.6821C44.3739 17.6821 62.6009 19.7102 73.8009 29.0789H73.797Z" fill="white"/>
<path d="M25.8301 112.326L30.6916 177.797L27.5032 178.001L27.4416 186.972L68.2532 186.14L68.8108 176.098H66.0608L71.207 110.839L25.8301 112.326Z" fill="#2BE6AE"/>
<path d="M34 74C34 74 22.2007 95.5147 25.9814 113.681C25.9814 113.681 62.6084 121.558 72.2315 116.488L71.8507 75.332L34 74Z" fill="#F8B3FF"/>
<path d="M22.5184 55.2736C22.5184 55.2736 16.4915 55.1412 15.7261 62.2055C14.9607 69.2699 23.9722 71.8693 25.8299 70.9082C27.6876 69.9472 32.1646 66.205 32.1646 66.205L32.3953 58.8304L32.1646 52.0839C32.1646 52.0839 25.9453 50.9526 30.6876 44.5088L33.3338 44.3461C33.3338 44.3461 33.7876 36.7747 35.7261 34.7542L39.5646 32.1245L41.6107 27.7542V22.8882L45.5376 27.4326L51.453 28.9007L57.0607 26.0704L59.5184 24.2163L64.2915 31.2239L71.0799 35.0909L73.7915 35.4466L77 41.5L80.5 46L85.5 46L88.5 43.5L89.5 38.5L85.5 32.1245L81.2107 27.8034L79.9453 22.8807C79.9453 22.8807 81.503 14.632 72.8876 14.7909L67.7799 16.2666L65.2146 18.0753C65.2146 18.0753 59.7684 5.6531 48.6607 10.2428L43.053 14.2688C43.053 14.2688 30.7569 13.1639 25.4415 18.3401C25.4415 18.3401 18.0992 25.1699 22.8222 31.6401L25.4415 34.0277C25.4415 34.0277 18.8299 33.6001 16.9492 36.1466C15.0646 38.6893 6.00302 45.0612 22.0107 52.0082C22.0107 52.0082 26.8953 53.2682 22.5146 55.2661L22.5184 55.2736Z" fill="#FFF080"/>
<path d="M37.0994 76.8455C37.0994 76.8455 30.8033 126.125 37.0994 133.909H45.061C45.061 133.909 39.434 113.964 44.3648 80.5006C44.3648 80.5006 62.0802 84.7611 71.084 79.6871L71.2071 73.5082C71.2071 73.5082 53.9494 80.0617 34.8533 68.6914L33.3379 75.0444L37.0994 76.8455Z" fill="#FFF080"/>
<path d="M42.57 123.405H34.5469V126.564H42.57V123.405Z" fill="#FFBA57"/>
<path d="M42.57 111.24H34.5469V114.4H42.57V111.24Z" fill="#FFBA57"/>
<path d="M42.57 98.9883H34.5469V102.148H42.57V98.9883Z" fill="#FFBA57"/>
<path d="M42.57 86.3047H34.5469V89.4641H42.57V86.3047Z" fill="#FFBA57"/>
<path d="M43.4069 79.6832H40.1953V71.4497L43.4069 72.3616V79.6832Z" fill="#FFBA57"/>
<path d="M54.9615 82.5099H51.75V74.2764L54.9615 75.1883V82.5099Z" fill="#FFBA57"/>
<path d="M66.1393 81.0264L63.4393 81.3858L62.9277 75.7404L66.1393 75.188V81.0264Z" fill="#FFBA57"/>
<path d="M35.126 191.577C35.126 191.577 30.6914 190.056 30.6914 194.071V201.396L71.7068 201.105C71.7068 201.105 72.5799 189.802 51.1991 192.039L49.9991 193.999C49.9991 193.999 41.6299 189.908 35.126 191.573V191.577Z" fill="#67A9F9"/>
<path d="M79.4961 83.9399L92.5384 85.6048L85.8461 91.6626H83.7346L79.4961 83.9399Z" fill="#FF6A2F"/>
<path d="M49.5809 52.2291C49.154 52.2291 48.7694 52.1837 48.4732 52.108C46.9924 51.7372 45.9732 50.8329 45.6809 49.6296C45.4194 48.555 45.7809 47.4086 46.604 46.701C48.2924 45.248 50.3001 45.2556 51.8347 45.7513C51.7309 45.5659 51.6078 45.3956 51.4578 45.2405C50.8463 44.6123 49.8386 44.374 48.4771 44.5405C48.4578 44.5405 48.4424 44.5442 48.4232 44.5442C48.4078 44.5442 47.5117 44.6577 46.7155 45.8194C46.4194 46.2507 45.8194 46.3642 45.3809 46.0729C44.9424 45.7815 44.8271 45.1913 45.1232 44.7599C46.3847 42.9248 47.954 42.6902 48.2617 42.6599C50.2617 42.4215 51.8078 42.8529 52.8578 43.9388C54.6924 45.8307 54.1655 48.9713 54.1424 49.1037C54.1347 49.1377 54.1271 49.1718 54.1194 49.2059C53.4194 51.5745 51.1847 52.2291 49.5886 52.2291H49.5809ZM49.9655 47.3329C49.2886 47.3329 48.5578 47.5334 47.8694 48.1275C47.5886 48.3696 47.4578 48.8086 47.5501 49.1907C47.6732 49.6977 48.1694 50.0837 48.9463 50.2767C48.9732 50.2842 51.6078 50.7269 52.2463 48.7367C52.2617 48.6383 52.2886 48.3999 52.2963 48.0821C51.904 47.8096 51.0001 47.3291 49.9617 47.3291L49.9655 47.3329Z" fill="black"/>
<path d="M70.077 52.6983C69.6501 52.6983 69.2654 52.6529 68.9693 52.5773C67.4885 52.2065 66.4693 51.3021 66.177 50.0989C65.9155 49.0243 66.277 47.8778 67.1001 47.1702C68.7885 45.7173 70.7962 45.7248 72.3308 46.2205C72.227 46.0351 72.1039 45.8648 71.9539 45.7097C71.3424 45.0816 70.3385 44.847 68.9731 45.0097C68.9539 45.0097 68.9385 45.0135 68.9193 45.0135C68.9039 45.0135 68.0078 45.127 67.2116 46.2886C66.9155 46.72 66.3155 46.8373 65.877 46.5421C65.4385 46.2508 65.3231 45.6605 65.6193 45.2292C66.8808 43.394 68.4462 43.1594 68.7578 43.1291C70.7578 42.8908 72.3039 43.3221 73.3539 44.4081C75.1885 46.3 74.6616 49.4405 74.6385 49.5729C74.6308 49.607 74.6231 49.641 74.6155 49.6751C73.9155 52.0437 71.6808 52.6983 70.0847 52.6983H70.077ZM70.4578 47.7983C69.7808 47.7983 69.0501 47.9989 68.3616 48.5929C68.0808 48.8351 67.9501 49.274 68.0424 49.6562C68.1654 50.1632 68.6616 50.5492 69.4385 50.7421C69.4654 50.7497 72.1001 51.1924 72.7385 49.2021C72.7539 49.1037 72.7808 48.8654 72.7885 48.5475C72.3962 48.2751 71.4924 47.7946 70.4539 47.7946L70.4578 47.7983Z" fill="black"/>
<path d="M22.8968 127.51C21.5891 127.51 20.8776 127 20.5045 126.542C20.0006 125.925 19.8891 125.176 19.9083 124.57C18.6083 124.275 17.7853 123.681 17.4583 122.8C17.1276 121.903 17.4237 120.953 17.8429 120.185C16.6199 119.984 15.8122 119.47 15.4276 118.645C14.8929 117.495 15.2891 115.989 16.6353 114.04C17.1583 113.283 17.716 112.617 18.0968 112.194C13.2968 102.08 12.5237 93.585 15.8006 86.9331C20.0814 78.2304 29.6545 76.0093 30.0622 75.9185C30.5814 75.805 31.0968 76.1228 31.2122 76.6336C31.3276 77.1444 31.0045 77.6477 30.4891 77.765C30.3968 77.7839 21.3891 79.8952 17.5237 87.7769C14.466 94.0088 15.3353 102.144 20.1122 111.955C20.2853 112.311 20.216 112.735 19.9391 113.018C18.3006 114.695 16.8045 117.041 17.1853 117.858C17.3276 118.161 18.0391 118.456 19.616 118.373C20.0122 118.35 20.3776 118.573 20.5429 118.925C20.7083 119.281 20.6353 119.697 20.3583 119.973C19.7968 120.548 19.0891 121.657 19.2699 122.149C19.366 122.406 19.8968 122.72 21.1006 122.841C21.3853 122.871 21.6429 123.023 21.8045 123.257C21.966 123.492 22.0083 123.787 21.9237 124.056C21.8391 124.34 21.7506 125.032 22.0083 125.346C22.2429 125.63 22.8506 125.622 23.1929 125.596C23.7199 125.554 24.1853 125.94 24.2314 126.458C24.2737 126.981 23.8814 127.435 23.3545 127.48C23.1968 127.491 23.0468 127.499 22.9045 127.499L22.8968 127.51Z" fill="black"/>
<path d="M32.9531 115.75C32.9031 115.75 32.8493 115.747 32.7954 115.739L25.8223 114.615C25.3993 114.547 25.0723 114.21 25.0223 113.794C22.5647 93.3239 29.1877 81.6774 29.4685 81.1931C29.7339 80.739 30.3185 80.5839 30.78 80.845C31.2416 81.1061 31.3993 81.6812 31.1377 82.1352C31.0723 82.2488 24.707 93.4979 26.8493 112.867L33.1031 113.877C33.6262 113.961 33.9839 114.449 33.8954 114.963C33.8185 115.429 33.4108 115.758 32.9493 115.758L32.9531 115.75Z" fill="black"/>
<path d="M30.6915 178.19C30.1953 178.19 29.7722 177.816 29.7338 177.32L24.8722 117.162C24.8299 116.639 25.2261 116.185 25.753 116.144C26.2799 116.102 26.7453 116.492 26.7876 117.01L31.6492 177.169C31.6915 177.691 31.2953 178.145 30.7684 178.186C30.7415 178.186 30.7184 178.186 30.6915 178.186V178.19Z" fill="black"/>
<path d="M47.1729 187.499L27.4422 187.423C27.1883 187.423 26.9422 187.321 26.7614 187.143C26.5806 186.965 26.4806 186.723 26.4845 186.469L26.546 177.994C26.546 177.506 26.9268 177.101 27.4229 177.059C34.1768 176.461 45.1806 176.817 45.646 176.832C46.1768 176.851 46.5922 177.286 46.5729 177.808C46.5537 178.33 46.1114 178.739 45.5806 178.72C45.4729 178.72 35.1614 178.38 28.4653 178.868L28.4191 185.531L47.1845 185.603C47.7153 185.603 48.146 186.03 48.1422 186.553C48.1422 187.075 47.7114 187.495 47.1806 187.495L47.1729 187.499Z" fill="black"/>
<path d="M50.2274 175.53C50.2274 175.53 50.212 175.53 50.2043 175.53C49.6736 175.519 49.2543 175.084 49.2659 174.562L50.2736 132.592C50.2851 132.07 50.7312 131.65 51.2582 131.669C51.7889 131.68 52.2082 132.115 52.1966 132.637L51.1889 174.607C51.1774 175.122 50.7466 175.53 50.2274 175.53Z" fill="black"/>
<path d="M82.5576 47.4953C80.3038 47.4953 78.2076 46.3715 77.2346 44.5553C76.4884 43.1591 76.3 41.7061 76.7115 40.4537C77.0807 39.3299 77.9192 38.418 79.1384 37.824C80.4538 37.1807 82.15 37.2791 83.3576 38.0699C84.5153 38.8267 85.1038 40.0677 85.0115 41.5661C84.9807 42.0883 84.5153 42.4856 83.9923 42.4515C83.4615 42.4213 83.0576 41.971 83.0923 41.4488C83.1423 40.6277 82.8769 40.0223 82.2961 39.644C81.65 39.224 80.7038 39.171 79.9923 39.5153C79.2384 39.8861 78.7461 40.3931 78.5384 41.0326C78.2923 41.7818 78.4346 42.7429 78.9307 43.6699C79.7653 45.2288 81.7769 45.7888 83.3269 45.5391C85.0269 45.2742 86.4923 44.2829 87.3576 42.8223C88.3192 41.1953 88.4461 39.1407 87.6999 37.1807C86.8499 34.9521 85.8153 33.9002 83.0807 32.4926C82.6115 32.2504 82.4269 31.6791 82.673 31.2175C82.9192 30.7559 83.4999 30.5742 83.9692 30.8164C87.0923 32.4245 88.4884 33.8623 89.4961 36.5148C90.4461 39.0083 90.2692 41.6531 89.0153 43.7721C87.8615 45.7245 85.8961 47.0488 83.6307 47.4045C83.2692 47.4613 82.9076 47.4915 82.5499 47.4915L82.5576 47.4953Z" fill="black"/>
<path d="M24.1846 53.0298C20.1423 53.0298 18.0269 52.3184 15.5307 50.1428C13.1923 48.1033 11.9192 45.3109 12.0346 42.4844C12.1423 39.8811 13.4153 37.4936 15.5269 35.9309C17.973 34.1033 21.2846 33.9028 23.573 35.439C25.0884 36.4568 26.0692 37.8303 26.3346 39.306C26.573 40.6265 26.2192 41.9811 25.3115 43.2222C24.3384 44.5541 22.5846 45.3374 20.9461 45.1784C19.3846 45.0271 18.1307 44.0887 17.4153 42.5374C17.1961 42.0606 17.4115 41.5006 17.8961 41.2849C18.3807 41.0692 18.9499 41.2811 19.1692 41.7579C19.5923 42.6811 20.273 43.2109 21.1384 43.2979C22.0999 43.3925 23.1769 42.9082 23.7499 42.1174C24.3538 41.2887 24.5884 40.4525 24.4422 39.6352C24.2692 38.6665 23.5769 37.7319 22.4922 37.0017C20.6884 35.7909 18.2076 36.3092 16.6884 37.4406C15.0346 38.6628 14.0384 40.5319 13.9576 42.5601C13.8653 44.819 14.9038 47.0665 16.8076 48.7276C18.9692 50.6119 20.6499 51.1455 24.3307 51.1379H24.3346C24.8653 51.1379 25.2922 51.5579 25.2961 52.0801C25.2961 52.6022 24.8692 53.026 24.3384 53.0298C24.2884 53.0298 24.2346 53.0298 24.1846 53.0298Z" fill="black"/>
<path d="M52.419 22.1919C51.5228 22.6346 50.4113 22.5211 49.5113 22.1427C49.0728 21.9573 48.6921 21.7341 48.4036 21.3784C48.4882 21.4844 48.3421 21.2687 48.3228 21.2346C48.2574 21.1249 48.1959 21.0114 48.1421 20.8979C48.0497 20.7011 47.9767 20.4968 47.919 20.2849C47.7151 19.5471 47.7882 18.7714 48.1382 18.1395C48.5459 17.4017 49.1998 16.8644 50.0498 16.5276C51.8344 15.8125 54.2844 16.0319 55.9651 16.8984C57.6459 17.7649 58.6267 19.2708 58.5536 21.14C58.4767 23.0849 57.5613 25.0676 56.0921 26.32C54.8305 27.3946 53.0421 27.8941 51.3882 27.9698C49.5113 28.0568 47.819 27.7957 46.2613 26.7892C44.8228 25.8584 43.6728 24.3335 43.0997 22.7254C42.4497 20.9092 42.3959 19.006 42.9882 17.1633C43.7113 14.9044 45.3151 13.1638 47.3767 11.9908C47.9536 11.6617 48.5497 11.3665 49.1459 11.0789C49.6113 10.8557 49.7382 10.2011 49.4921 9.78489C49.2113 9.31571 48.6459 9.22111 48.1767 9.44435C46.7613 10.1217 45.3767 10.8708 44.1959 11.9076C43.1651 12.8119 42.3113 13.9735 41.7228 15.2033C40.6574 17.4206 40.3767 19.9141 40.969 22.3016C41.4997 24.4546 42.7497 26.4827 44.5151 27.8638C46.2805 29.2449 48.5459 29.8957 50.8882 29.8768C53.2305 29.8579 55.3767 29.2789 57.1574 27.8979C59.1497 26.3503 60.269 23.8568 60.4651 21.3973C60.6613 18.9379 59.3805 16.6752 57.2459 15.4341C56.1574 14.8022 54.9382 14.4654 53.6882 14.3254C52.3459 14.1741 50.9344 14.2081 49.6536 14.666C47.4574 15.4492 45.6767 17.4092 45.8997 19.8271C46.0113 21 46.469 22.3092 47.419 23.0811C48.4613 23.9287 49.8574 24.3941 51.2074 24.3714C51.9767 24.3562 52.6997 24.1746 53.3882 23.8341C54.4921 23.2854 53.5228 21.6546 52.419 22.1995V22.1919Z" fill="black"/>
<path d="M33.4962 25.1393C34.2962 26.0247 34.0386 27.3377 33.2155 28.0869C32.7924 28.4766 32.2116 28.768 31.6809 28.8399C31.1501 28.9118 30.6539 28.8172 30.2693 28.6393C29.7578 28.4047 29.4193 28.1323 29.0578 27.7312C28.827 27.4739 28.6078 27.0501 28.5039 26.6983C28.2655 25.8885 28.3732 24.9804 28.7424 24.2388C29.7347 22.2561 32.0462 21.5183 34.2424 21.4918C35.3078 21.4804 36.4232 21.6583 37.3386 22.0593C38.3001 22.4793 39.1001 23.0847 39.6386 23.8793C40.9155 25.7674 40.7962 28.488 39.6001 30.4707C38.3309 32.5783 36.0039 33.8647 33.6347 34.421C30.9386 35.0528 28.1616 34.7274 25.8501 33.1685C24.7578 32.4307 23.7193 31.4355 23.0424 30.308C22.3539 29.1577 22.0616 27.8334 22.0809 26.5053C22.1232 23.7431 23.5193 21.2118 25.6155 19.422C27.7116 17.6323 30.4809 16.5804 33.1424 15.7707C33.8193 15.5664 34.5001 15.3734 35.1847 15.188C36.377 14.8626 35.8693 13.035 34.6732 13.3642C31.4693 14.2383 28.1693 15.2485 25.4347 17.1745C22.7001 19.1004 20.6732 22.0139 20.2386 25.4042C20.0232 27.0766 20.2386 28.7907 20.9116 30.342C21.5847 31.8934 22.7193 33.1458 24.0116 34.1674C25.3039 35.1891 26.8655 36.0177 28.5386 36.3734C30.2116 36.7291 31.9078 36.6761 33.5655 36.3658C36.5539 35.8096 39.4655 34.1977 41.1232 31.6323C42.7809 29.0669 42.9924 25.601 41.377 23.0583C39.8847 20.7085 37.0886 19.5999 34.3539 19.5961C31.6193 19.5923 28.4001 20.6291 27.077 23.2815C25.8501 25.7372 26.527 28.5826 28.9155 30.062C30.2655 30.8983 31.9501 30.9399 33.3693 30.255C34.9924 29.4755 36.0693 27.8372 35.8539 26.0437C35.7501 25.1923 35.427 24.4355 34.8462 23.7961C34.0232 22.8842 32.6655 24.2237 33.4847 25.1356L33.4962 25.1393Z" fill="black"/>
<path d="M23.0274 64.6159C25.162 64.6613 27.6197 64.0975 28.3044 61.8386C28.8505 60.0375 27.9928 58.0018 26.689 56.7229C25.3851 55.444 23.1967 54.8273 21.312 54.9067C19.5467 54.9824 17.812 55.69 16.6236 56.9991C13.7967 60.117 14.4351 65.0018 16.8697 68.1348C18.1851 69.8262 20.039 71.1845 22.1813 71.6537C24.162 72.0889 26.1928 71.7332 27.9967 70.8516C29.9697 69.8829 31.6505 68.2521 32.712 66.3564C33.239 65.4105 33.639 64.3737 33.8159 63.3067C34.0813 61.71 33.7197 60.1208 33.3274 58.5732C33.0274 57.3927 31.1736 57.8921 31.4736 59.0764C31.7736 60.2608 32.0544 61.377 31.9813 62.5689C31.9351 63.2991 31.6928 64.0559 31.3928 64.7256C30.7544 66.1559 29.712 67.4424 28.4351 68.3694C27.1582 69.2964 25.689 69.9056 24.1659 69.9548C22.6428 70.004 21.0582 69.444 19.839 68.4716C17.2659 66.4208 15.812 62.6218 17.1851 59.591C17.7197 58.4067 18.6774 57.4873 19.8274 57.09C21.2274 56.6056 22.6236 56.7759 24.062 57.2602C25.3697 57.6991 26.4774 59.2051 26.539 60.5332C26.5697 61.1727 26.4274 61.7818 25.8544 62.1754C25.0736 62.7127 23.9428 62.7429 23.0274 62.724C21.789 62.6975 21.789 64.5894 23.0274 64.6159Z" fill="black"/>
<path d="M32.5723 52.6317C31.5261 52.6317 30.6338 52.3857 29.8953 51.89C28.0338 50.6414 28.0069 48.3333 28.0069 48.2349C27.9261 45.9722 28.5569 44.3944 29.8838 43.5771C32.2684 42.1127 35.7761 43.8722 36.1646 44.0803C36.6338 44.3263 36.8107 44.8976 36.5607 45.3592C36.3107 45.8209 35.73 45.9949 35.2607 45.749C34.5184 45.363 32.1223 44.4284 30.8992 45.1814C30.1953 45.6127 29.8684 46.6306 29.9261 48.1971C29.9261 48.2349 29.9607 49.6538 30.9876 50.3349C31.9223 50.9554 33.5184 50.8646 35.6069 50.07C36.103 49.8809 36.6607 50.123 36.8492 50.6111C37.0377 51.0992 36.7953 51.6479 36.2992 51.8333C34.8992 52.3668 33.653 52.6317 32.5684 52.6317H32.5723Z" fill="black"/>
<path d="M59.3876 67.2206C59.3876 67.2206 59.3606 67.2206 59.3452 67.2206C56.3452 67.092 55.2645 64.7044 55.1106 63.4595C55.0722 63.1493 55.1914 62.8428 55.426 62.6384C55.6645 62.4341 55.9876 62.3547 56.2952 62.4266C57.5376 62.7293 58.9414 62.4341 59.9491 62.1125L57.4183 59.9406C57.1106 59.6757 57.0068 59.252 57.1568 58.8811C57.3068 58.5103 57.6722 58.2644 58.0837 58.2833L62.2991 58.4233C62.5799 53.6255 61.1529 48.6801 61.1376 48.6271C60.9914 48.1239 61.2837 47.6017 61.7952 47.4579C62.3029 47.3141 62.8376 47.6017 62.9837 48.1049C63.0529 48.3471 64.7106 54.072 64.1376 59.4979C64.0837 59.9936 63.6452 60.3644 63.1491 60.3455L60.7183 60.266L62.3914 61.7001C62.6299 61.9044 62.7529 62.2147 62.7145 62.5249C62.676 62.8352 62.4876 63.1076 62.2029 63.2514C62.0914 63.3082 59.9299 64.4017 57.5491 64.4433C57.8991 64.886 58.4799 65.2909 59.4299 65.3325C59.9606 65.3552 60.3722 65.7979 60.3491 66.3201C60.326 66.8271 59.8991 67.2244 59.3876 67.2244V67.2206Z" fill="black"/>
<path d="M56.4047 83.0809C43.147 83.0809 34.3047 77.4809 33.8277 77.1706C33.3854 76.883 33.2624 76.2965 33.5547 75.8614C33.847 75.4263 34.4431 75.3052 34.8854 75.5928C35.07 75.7138 49.7277 84.9349 69.1777 79.3765C69.6854 79.2328 70.2547 78.6084 70.3508 78.0938L70.9047 75.1576C70.92 75.0819 70.897 75.0214 70.8431 74.9684C70.8008 74.9306 70.7316 74.8927 70.6316 74.9192C55.6547 78.7484 43.8047 74.5068 38.0777 71.6387C36.7777 70.9879 35.7508 70.39 35.0008 69.9209L34.2854 73.6819C34.1893 74.1965 33.6854 74.5333 33.1624 74.4387C32.6393 74.3441 32.297 73.8484 32.3931 73.3338L33.2585 68.7857C33.3431 68.3317 33.6547 67.9571 34.0854 67.7792C34.52 67.6014 35.0085 67.6506 35.397 67.9117C35.97 68.2976 37.197 69.0771 38.947 69.9511C44.4316 72.6982 55.7816 76.7582 70.147 73.0879C70.8624 72.9063 71.6124 73.0879 72.1508 73.5836C72.6854 74.0754 72.9277 74.7906 72.7931 75.5019L72.2393 78.4382C72.0085 79.6603 70.9239 80.8446 69.7124 81.1927C64.9393 82.5549 60.4624 83.0809 56.4047 83.0809Z" fill="black"/>
<path d="M43.7914 134.854H36.7299C36.3645 134.854 36.0299 134.65 35.8683 134.329C30.2299 123.163 35.276 79.9593 35.4953 78.1242C35.5568 77.6058 36.0337 77.235 36.5606 77.2955C37.0876 77.3561 37.4645 77.8253 37.403 78.3436C37.353 78.7788 32.3645 121.452 37.3453 132.963H43.7914C44.3222 132.963 44.753 133.386 44.753 133.909C44.753 134.431 44.3222 134.854 43.7914 134.854Z" fill="black"/>
<path d="M43.7915 131.445C43.3838 131.445 43.0069 131.188 42.8762 130.787C39.5531 120.495 42.6992 84.6776 42.8338 83.1565C42.88 82.6344 43.3492 82.2522 43.8762 82.2976C44.4069 82.343 44.7954 82.8009 44.7492 83.323C44.7185 83.69 41.5031 120.279 44.7069 130.215C44.8685 130.715 44.5877 131.245 44.08 131.404C43.9838 131.434 43.8838 131.449 43.7877 131.449L43.7915 131.445Z" fill="black"/>
<path d="M38.246 141.624C38.0575 141.624 37.8652 141.571 37.6998 141.453C36.4152 140.579 35.9345 134.76 36.2614 133.757C36.4537 133.163 36.9268 132.955 37.3075 132.963C37.8383 132.97 38.2614 133.402 38.2537 133.924C38.2537 134.128 38.1845 134.313 38.0691 134.469C37.9498 135.498 38.446 139.247 38.8922 139.978C39.246 140.292 39.3152 140.822 39.0383 141.219C38.8498 141.484 38.5537 141.627 38.246 141.627V141.624Z" fill="black"/>
<path d="M41.119 141.624C40.9306 141.624 40.7383 141.571 40.5729 141.453C39.2883 140.579 38.8075 134.76 39.1344 133.757C39.3267 133.163 39.8114 132.955 40.1806 132.963C40.7114 132.97 41.1344 133.402 41.1267 133.924C41.1267 134.128 41.0575 134.313 40.9421 134.469C40.8229 135.498 41.319 139.247 41.7652 139.978C42.119 140.292 42.1883 140.822 41.9114 141.219C41.7229 141.484 41.4267 141.627 41.119 141.627V141.624Z" fill="black"/>
<path d="M44.3651 141.624C44.1767 141.624 43.9844 141.571 43.819 141.453C42.5344 140.579 42.0536 134.76 42.3805 133.757C42.5767 133.163 43.0574 132.955 43.4267 132.963C43.9574 132.97 44.3805 133.402 44.3728 133.924C44.3728 134.128 44.3036 134.313 44.1882 134.469C44.069 135.498 44.5651 139.247 45.0113 139.978C45.3651 140.292 45.4344 140.822 45.1574 141.219C44.969 141.484 44.6728 141.627 44.3651 141.627V141.624Z" fill="black"/>
<path d="M36.969 127.703C36.2651 127.703 35.5651 127.673 34.869 127.612C34.3382 127.567 33.9498 127.109 33.9959 126.587C34.0421 126.065 34.5036 125.683 35.0382 125.728C37.5267 125.94 40.0574 125.739 42.7728 125.123C43.2882 125.005 43.8074 125.319 43.9267 125.83C44.0459 126.337 43.7267 126.848 43.2074 126.965C41.0459 127.461 38.9882 127.703 36.969 127.703Z" fill="black"/>
<path d="M37.5382 123.844C36.6613 123.844 35.8113 123.783 34.869 123.704C34.3382 123.658 33.9498 123.2 33.9959 122.678C34.0421 122.156 34.5113 121.77 35.0382 121.819C37.3036 122.012 38.8882 122.08 41.7728 121.422C42.2921 121.305 42.8074 121.619 42.9267 122.13C43.0459 122.637 42.7267 123.147 42.2074 123.265C40.2959 123.7 38.8844 123.844 37.5382 123.844Z" fill="black"/>
<path d="M37.0382 115.917C36.1613 115.917 35.3113 115.856 34.369 115.777C33.8382 115.731 33.4498 115.273 33.4959 114.751C33.5421 114.229 34.0036 113.847 34.5382 113.892C36.8036 114.085 38.3882 114.153 41.2728 113.495C41.7921 113.374 42.3074 113.692 42.4267 114.203C42.5459 114.713 42.2267 115.22 41.7074 115.338C39.7959 115.773 38.3844 115.917 37.0382 115.917Z" fill="black"/>
<path d="M37.0382 112.337C36.1613 112.337 35.3113 112.277 34.369 112.197C33.8382 112.152 33.4498 111.694 33.4959 111.172C33.5421 110.65 34.0113 110.267 34.5382 110.313C36.8036 110.506 38.3882 110.574 41.2728 109.915C41.7882 109.798 42.3074 110.116 42.4267 110.623C42.5459 111.13 42.2267 111.641 41.7074 111.758C39.7959 112.193 38.3844 112.337 37.0382 112.337Z" fill="black"/>
<path d="M35.3469 103.707C34.8777 103.707 34.4662 103.366 34.3969 102.897C34.32 102.378 34.6854 101.902 35.2123 101.826C36.6585 101.622 41.4854 100.982 42.8431 101.372C43.3508 101.52 43.6431 102.045 43.4969 102.545C43.3469 103.044 42.8123 103.332 42.3046 103.188C41.6508 102.999 38.2546 103.305 35.4893 103.699C35.4431 103.707 35.3969 103.71 35.3508 103.71L35.3469 103.707Z" fill="black"/>
<path d="M35.3471 99.8884C34.8663 99.8884 34.4509 99.5328 34.3932 99.0522C34.3317 98.5338 34.7125 98.0646 35.2394 98.0041C36.2817 97.8868 41.5509 97.3003 42.6856 97.429C43.2125 97.4895 43.5894 97.9587 43.5317 98.4771C43.4702 98.9955 42.9932 99.3701 42.4663 99.3095C41.8009 99.2338 37.9702 99.5971 35.4625 99.8846C35.424 99.8884 35.3894 99.8922 35.3509 99.8922L35.3471 99.8884Z" fill="black"/>
<path d="M35.7308 91.2427C35.2231 91.2427 34.8 90.853 34.7731 90.3498C34.7423 89.8276 35.15 89.3811 35.6808 89.3509C36.277 89.3168 41.5539 89.033 42.6847 89.1617C43.2116 89.2222 43.5885 89.6914 43.5308 90.2098C43.4693 90.7282 42.9923 91.1027 42.4654 91.0422C41.7385 90.959 37.9847 91.1217 35.7923 91.2427C35.7731 91.2427 35.7539 91.2427 35.7385 91.2427H35.7308Z" fill="black"/>
<path d="M40.2802 79.2933C39.8263 79.2933 39.4225 78.9755 39.334 78.5176C38.9302 76.3609 38.4071 72.5619 39.4532 71.3246C39.7417 70.9841 40.1417 70.7949 40.5763 70.7949C41.1071 70.7949 41.5379 71.2187 41.5379 71.7409C41.5379 72.1571 41.2648 72.509 40.8879 72.6376C40.6379 73.3452 40.7802 75.8198 41.2225 78.1771C41.3186 78.6917 40.9725 79.1836 40.4532 79.2782C40.3956 79.2895 40.334 79.2933 40.2763 79.2933H40.2802Z" fill="black"/>
<path d="M43.8924 80.6294C43.4347 80.6294 43.0309 80.3078 42.9463 79.8499C42.8617 79.3921 42.1424 75.3018 42.8117 73.1072C42.9655 72.6078 43.5001 72.3202 44.0078 72.4715C44.5155 72.6229 44.8078 73.1488 44.654 73.6483C44.2001 75.1429 44.6347 78.3894 44.8386 79.5169C44.9309 80.0315 44.5847 80.5234 44.0617 80.6142C44.004 80.6256 43.9463 80.6294 43.8886 80.6294H43.8924Z" fill="black"/>
<path d="M51.9394 81.9723C51.5433 81.9723 51.174 81.7302 51.0356 81.3442C50.8779 80.9091 49.5163 77.0458 50.2087 74.7718C50.3625 74.2723 50.8933 73.9847 51.4048 74.1361C51.9125 74.2874 52.2048 74.8134 52.051 75.3129C51.6164 76.7393 52.4779 79.6907 52.8471 80.7085C53.024 81.2004 52.7664 81.7415 52.2664 81.9156C52.1587 81.9534 52.051 81.9723 51.9433 81.9723H51.9394Z" fill="black"/>
<path d="M55.7113 82.3317C55.2844 82.3317 54.8959 82.0517 54.7806 81.6241C54.6652 81.1928 53.6844 77.3598 54.3613 75.1311C54.5152 74.6317 55.0498 74.3441 55.5575 74.4955C56.0652 74.6468 56.3536 75.1728 56.2036 75.6722C55.7575 77.1366 56.369 80.122 56.6421 81.1474C56.7767 81.6544 56.469 82.169 55.9536 82.3014C55.8729 82.3241 55.7921 82.3317 55.7113 82.3317Z" fill="black"/>
<path d="M63.4379 82.3317C63.011 82.3317 62.6225 82.0517 62.5071 81.6241C62.3917 81.1928 61.411 77.3598 62.0879 75.1311C62.2379 74.6317 62.7763 74.3441 63.284 74.4955C63.7917 74.6468 64.084 75.1728 63.9302 75.6722C63.4879 77.1366 64.0956 80.122 64.3687 81.1474C64.5033 81.6544 64.1956 82.169 63.6802 82.3014C63.5994 82.3241 63.5187 82.3317 63.4379 82.3317Z" fill="black"/>
<path d="M67.3657 81.5749C66.9619 81.5749 66.5849 81.3214 66.4503 80.9203C66.4042 80.7803 65.3195 77.4279 66.0157 75.1311C66.1695 74.6317 66.7042 74.3441 67.2119 74.4955C67.7195 74.6468 68.008 75.1728 67.858 75.6722C67.4234 77.1101 68.0157 79.5279 68.2811 80.3376C68.4426 80.8333 68.1657 81.3668 67.6619 81.5295C67.5619 81.5598 67.4657 81.5749 67.3657 81.5749Z" fill="black"/>
<path d="M35.7313 87.406C35.2082 87.406 34.7813 86.9936 34.7698 86.479C34.7582 85.9568 35.1813 85.5255 35.7121 85.5141L43.389 85.359C43.9236 85.3514 44.3582 85.7639 44.3698 86.286C44.3813 86.8082 43.9582 87.2395 43.4275 87.2509L35.7505 87.406C35.7505 87.406 35.7351 87.406 35.7313 87.406Z" fill="black"/>
<path d="M60.9775 118.978C52.4582 118.978 43.3659 117.51 42.8313 117.419C42.3082 117.332 41.9544 116.844 42.0429 116.329C42.1313 115.814 42.6236 115.463 43.1505 115.553C43.3313 115.584 61.4736 118.512 70.1967 116.17C70.7082 116.034 71.239 116.329 71.3775 116.832C71.5159 117.336 71.2159 117.858 70.7044 117.994C68.0121 118.717 64.5467 118.974 60.9813 118.974L60.9775 118.978Z" fill="black"/>
<path d="M66.0618 176.287C66.0041 176.287 65.9464 176.283 65.8887 176.272C65.3656 176.177 65.0195 175.685 65.1156 175.171C65.8926 170.99 69.4503 120.59 69.4849 120.083C69.5233 119.56 69.981 119.175 70.5118 119.205C71.0426 119.243 71.4426 119.693 71.4041 120.215C71.2579 122.296 67.8041 171.232 67.008 175.515C66.9233 175.973 66.5195 176.291 66.0618 176.291V176.287Z" fill="black"/>
<path d="M68.2532 187.086H52.7955C52.2648 187.086 51.834 186.662 51.834 186.14C51.834 185.618 52.2648 185.194 52.7955 185.194H67.3417L67.7955 177.044H64.9724C64.4417 177.044 64.0109 176.62 64.0109 176.098C64.0109 175.576 64.4417 175.152 64.9724 175.152H68.8109C69.0763 175.152 69.3263 175.258 69.5109 175.447C69.6917 175.636 69.7878 175.89 69.7724 176.147L69.2148 186.189C69.1878 186.692 68.7648 187.082 68.2532 187.082V187.086Z" fill="black"/>
<path d="M32.2955 191.709C31.7648 191.709 31.334 191.286 31.334 190.764V186.968C31.334 186.446 31.7648 186.022 32.2955 186.022C32.8263 186.022 33.2571 186.446 33.2571 186.968V190.764C33.2571 191.286 32.8263 191.709 32.2955 191.709Z" fill="black"/>
<path d="M50.7311 192.989C50.2003 192.989 49.7695 192.565 49.7695 192.043V188.834C49.7695 188.312 50.2003 187.888 50.7311 187.888C51.2618 187.888 51.6926 188.312 51.6926 188.834V192.043C51.6926 192.565 51.2618 192.989 50.7311 192.989Z" fill="black"/>
<path d="M58.5651 191.71C58.0343 191.71 57.6035 191.286 57.6035 190.764V186.548C57.6035 186.026 58.0343 185.603 58.5651 185.603C59.0958 185.603 59.5266 186.026 59.5266 186.548V190.764C59.5266 191.286 59.0958 191.71 58.5651 191.71Z" fill="black"/>
<path d="M39.3776 191.645C38.8468 191.645 38.416 191.222 38.416 190.699V186.972C38.416 186.45 38.8468 186.026 39.3776 186.026C39.9083 186.026 40.3391 186.45 40.3391 186.972V190.699C40.3391 191.222 39.9083 191.645 39.3776 191.645Z" fill="black"/>
<path d="M72.3998 114.396C72.3767 114.396 72.3537 114.396 72.3306 114.396C71.7998 114.358 71.4037 113.904 71.4421 113.385C71.7806 108.765 71.596 100.146 71.3767 93.7286C71.1729 87.6443 70.9114 82.6535 70.9075 82.6043C70.8806 82.0821 71.2883 81.6394 71.819 81.6091C72.3537 81.5827 72.7998 81.9837 72.8306 82.5059C72.8306 82.5551 73.096 87.5648 73.2998 93.6681C73.519 100.131 73.7037 108.822 73.3614 113.522C73.3229 114.021 72.9037 114.399 72.4037 114.399L72.3998 114.396Z" fill="black"/>
<path d="M76.1388 113.76C73.9119 113.76 72.7657 112.962 72.6965 112.913C72.2696 112.602 72.1734 112.012 72.4888 111.592C72.8004 111.176 73.3927 111.081 73.8196 111.38C73.9196 111.445 75.6811 112.546 79.4504 111.259C79.9504 111.085 80.5004 111.35 80.6734 111.842C80.8465 112.334 80.5811 112.875 80.0811 113.045C78.5196 113.579 77.2042 113.764 76.1388 113.764V113.76Z" fill="black"/>
<path d="M81.5145 101.429C81.4645 101.429 81.4145 101.425 81.3607 101.417C75.4953 100.494 72.2683 96.5438 72.1337 96.3735C71.8068 95.9649 71.876 95.3671 72.2914 95.0454C72.7068 94.7238 73.3107 94.7919 73.6414 95.2006C73.6683 95.2346 76.5645 98.746 81.6607 99.5481C82.1837 99.6314 82.5414 100.116 82.4568 100.63C82.3799 101.096 81.9722 101.429 81.5068 101.429H81.5145Z" fill="black"/>
<path d="M83.2147 113.813C82.5917 113.813 81.7224 113.669 81.1994 112.973C80.6609 112.254 80.7224 111.255 81.3801 110.01C81.4147 109.946 81.457 109.885 81.507 109.828C81.6109 109.704 81.7224 109.507 81.757 109.39C81.6994 109.359 81.5955 109.318 81.4147 109.28C81.1109 109.215 79.584 108.833 79.207 107.63C79.0532 107.142 79.0532 106.378 79.8763 105.481C79.9417 105.364 80.0994 105.05 79.9186 104.925C79.9032 104.913 79.8878 104.906 79.8763 104.894C79.7801 104.822 78.9417 104.145 78.984 103.09C79.0147 102.333 79.4686 101.667 80.3378 101.103C80.357 101.092 80.3763 101.08 80.3955 101.069C80.4147 101.058 80.6647 100.899 80.634 100.728C80.3994 100.237 80.2109 99.3284 80.8186 98.6133C81.7955 97.4592 84.1417 97.5538 88.434 98.9236C88.9378 99.0863 89.2147 99.6198 89.0532 100.115C88.8878 100.611 88.3494 100.884 87.8417 100.725C83.7494 99.4192 82.5801 99.7068 82.3417 99.809C82.3532 99.8619 82.3724 99.9187 82.3801 99.9263C82.4032 99.9679 82.4224 100.01 82.4378 100.055C82.8647 101.213 82.1955 102.231 81.3801 102.7C81.007 102.946 80.9147 103.124 80.9147 103.165C80.9147 103.211 80.9917 103.332 81.0686 103.404C82.334 104.308 81.9955 105.799 81.4494 106.59C81.4186 106.631 81.3878 106.673 81.3494 106.711C81.1609 106.907 81.0917 107.028 81.0686 107.089C81.184 107.206 81.5378 107.369 81.8301 107.437C83.0032 107.683 83.4455 108.296 83.6032 108.765C83.9301 109.722 83.3109 110.642 83.0494 110.975C82.7763 111.516 82.7609 111.777 82.7647 111.86C82.9109 111.932 83.3186 111.947 83.5686 111.902C83.5917 111.898 83.6186 111.894 83.6417 111.891C84.3686 111.819 85.3609 111.588 86.507 111.217C87.7455 110.82 88.6647 109.806 88.8994 108.572C89.6955 104.387 88.6224 101.716 88.6109 101.69C88.4109 101.205 88.6494 100.653 89.1417 100.456C89.634 100.259 90.1955 100.494 90.3955 100.978C90.4494 101.107 91.6917 104.198 90.7917 108.92C90.4263 110.835 89.0147 112.405 87.107 113.018C85.8263 113.427 84.7378 113.68 83.8724 113.771C83.7494 113.79 83.5109 113.82 83.2224 113.82L83.2147 113.813Z" fill="black"/>
<path d="M85.3531 99.6845C85.33 99.6845 85.3069 99.6845 85.2877 99.6845C84.7569 99.6504 84.3569 99.1963 84.3954 98.6742L84.8877 91.5985C84.9069 91.3412 85.03 91.1028 85.23 90.9363L93.5415 84.118L79.0108 82.3585L84.2531 90.6185C84.5338 91.0612 84.3954 91.6439 83.9454 91.9201C83.4954 92.1963 82.9031 92.0601 82.6223 91.6174L76.3146 81.6774C76.1185 81.3672 76.1185 80.9736 76.3185 80.6672C76.5185 80.3607 76.88 80.1942 77.2454 80.2358L95.98 82.5023C96.3608 82.5477 96.6761 82.8126 96.7838 83.1758C96.8915 83.5391 96.7723 83.9288 96.4761 84.1709L86.7723 92.1282L86.3069 98.7991C86.2723 99.2985 85.8492 99.6807 85.3492 99.6807L85.3531 99.6845Z" fill="black"/>
<path d="M83.735 117.6C83.2042 117.6 82.7734 117.177 82.7734 116.655V112.825C82.7734 112.303 83.2042 111.879 83.735 111.879C84.2657 111.879 84.6965 112.303 84.6965 112.825V116.655C84.6965 117.177 84.2657 117.6 83.735 117.6Z" fill="black"/>
<path d="M86.3695 117.6H81.1041C80.5733 117.6 80.1426 117.177 80.1426 116.654C80.1426 116.132 80.5733 115.708 81.1041 115.708H86.3695C86.9003 115.708 87.331 116.132 87.331 116.654C87.331 117.177 86.9003 117.6 86.3695 117.6Z" fill="black"/>
<path d="M53.1189 202.346C53.0959 202.346 53.0766 202.346 53.0535 202.346L31.5151 202.055C30.4997 202.013 29.7305 201.219 29.7305 200.25V193.356C29.7305 192.834 30.1612 192.41 30.692 192.41C31.2228 192.41 31.6535 192.834 31.6535 193.356V200.167L52.6343 200.45C51.8189 197.594 49.3805 191.513 35.1997 192.527C34.6728 192.569 34.2112 192.172 34.1728 191.653C34.1343 191.131 34.5343 190.681 35.0612 190.643C51.6574 189.455 53.8882 197.722 54.6228 200.435C54.7497 200.904 54.642 201.408 54.3343 201.782C54.042 202.142 53.592 202.354 53.1228 202.354L53.1189 202.346ZM53.0959 200.454H53.1112C53.1112 200.454 53.1035 200.454 53.0959 200.454Z" fill="black"/>
<path d="M70.619 202.054C70.619 202.054 70.6036 202.054 70.5959 202.054L53.6728 201.797C53.1421 201.79 52.719 201.358 52.7267 200.836C52.7344 200.314 53.1805 199.886 53.7036 199.905L70.1267 200.155L70.1151 200.113C69.3151 197.219 67.8267 191.827 53.8074 193.208C53.2767 193.257 52.8074 192.879 52.7536 192.36C52.6997 191.842 53.0882 191.377 53.6151 191.324C69.2536 189.787 71.1574 196.674 71.969 199.618C72.0151 199.792 72.0613 199.951 72.1036 200.098C72.2421 200.564 72.1497 201.067 71.8497 201.453C71.5574 201.831 71.0959 202.054 70.6151 202.054H70.619Z" fill="black"/>
<path d="M50.0006 187.086C49.4698 187.086 49.0391 186.662 49.0391 186.14V177.403C49.0391 176.366 49.8968 175.519 50.9468 175.511L61.9775 175.436C62.5121 175.447 62.9429 175.852 62.9468 176.374C62.9468 176.896 62.5237 177.324 61.9929 177.327L50.9621 177.403V186.14C50.9621 186.662 50.5314 187.086 50.0006 187.086Z" fill="black"/>
<path d="M73.1534 28.329C72.011 28.3933 70.9726 27.8825 70.1764 27.0955C69.8495 26.7739 69.5072 26.3236 69.3687 25.9604C69.3303 25.8658 69.2803 25.6425 69.2687 25.5328C69.2418 25.2414 69.238 24.9463 69.2572 24.6587C69.3918 22.7668 70.9687 21.5447 72.8649 21.4879C74.0726 21.4501 75.1957 21.8171 76.261 22.3544C77.3264 22.8917 78.361 23.5879 79.111 24.5528C79.7534 25.3777 80.1995 26.3955 80.2457 27.4209C80.2995 28.6204 79.8841 29.7177 79.211 30.7014C77.938 32.5631 75.9726 34.0236 73.7495 34.2658C71.6264 34.4966 69.5457 33.8798 67.6841 32.8696C66.0572 31.9841 64.938 30.7998 64.1418 29.1047C64.0764 28.9647 64.1418 29.1085 64.0803 28.9647C64.0341 28.8587 63.9957 28.749 63.9534 28.6393C63.8726 28.4198 63.7995 28.2004 63.7341 27.9771C63.6149 27.5647 63.4957 27.0198 63.4495 26.6793C63.4034 26.3387 63.3687 25.8052 63.3726 25.389C63.3726 25.1506 63.3803 24.9123 63.3995 24.6739C63.4072 24.5717 63.4149 24.4695 63.4264 24.3674C63.4341 24.3031 63.4687 24.0079 63.4572 24.1063C63.7341 22.2106 64.5226 20.4814 65.7918 19.0852C67.4649 17.2463 69.7072 16.1452 72.1995 15.8198C72.9841 15.7177 73.7764 15.6798 74.5687 15.6458C75.8034 15.5966 75.8072 13.7047 74.5687 13.7539C72.7995 13.8258 70.988 13.962 69.3034 14.5409C67.911 15.0214 66.638 15.7744 65.511 16.709C63.6803 18.2301 62.361 20.3452 61.7918 22.6344C60.7226 26.9366 62.2572 31.8555 66.2149 34.2241C68.3534 35.5031 70.9303 36.3658 73.4572 36.1841C76.3957 35.976 78.8149 34.3982 80.5457 32.1052C81.4726 30.8755 82.0957 29.4604 82.1687 27.9204C82.2303 26.5582 81.811 25.1733 81.0687 24.0268C79.4918 21.5901 76.4687 19.8344 73.5457 19.615C70.9303 19.4144 68.361 20.7993 67.5687 23.3344C67.188 24.5528 67.1957 25.9944 67.811 27.1333C68.4687 28.3441 69.6457 29.309 70.9226 29.8312C71.6264 30.1187 72.3841 30.2663 73.1534 30.2247C74.3841 30.1566 74.3918 28.2647 73.1534 28.3328V28.329Z" fill="black"/>
</svg>
