<svg width="100" height="210" viewBox="0 0 100 210" fill="none" xmlns="http://www.w3.org/2000/svg">
<path d="M33.3298 56.4391C36.3295 56.4391 38.7612 53.3979 38.7612 49.6463C38.7612 45.8948 36.3295 42.8535 33.3298 42.8535C30.3302 42.8535 27.8984 45.8948 27.8984 49.6463C27.8984 53.3979 30.3302 56.4391 33.3298 56.4391Z" fill="white"/>
<path d="M44.588 34.4639C44.588 34.4639 57.5738 23.5702 75.0422 33.2963C75.0422 33.2963 81.3338 57.8405 70.1905 69.7396C70.1905 69.7396 68.2188 83.2423 56.2815 89.2603C56.2815 89.2603 40.3492 79.1414 38.1191 67.408C38.1191 67.408 36.1511 42.0279 44.588 34.4639Z" fill="white"/>
<path d="M78.2568 129.79C80.7824 131.001 80.2876 128.677 80.2876 128.677C80.018 127.304 80.6568 127.401 80.6568 127.401C81.5614 128.053 82.3627 127.401 82.3627 127.401C84.338 126.061 82.3627 119.7 82.3627 119.7L74.498 119.318L75.8236 129.599L78.2568 129.787V129.79Z" fill="white"/>
<path d="M71.3336 148.248C71.304 148.533 71.293 148.821 71.293 149.113C71.293 154.14 75.5391 158.219 80.7785 158.219C86.0179 158.219 90.264 154.144 90.264 149.113C90.264 144.083 86.0179 140.007 80.7785 140.007C79.8997 140.007 79.0468 140.122 78.2382 140.338C78.2382 140.338 72.109 141.21 71.3336 148.248Z" fill="#F8B3FF"/>
<path d="M21.6021 78.5722C18.5153 74.0533 21.9898 70.7307 21.9898 70.7307C27.1369 62.1362 21.3473 53.9632 21.3473 53.9632C16.7172 41.156 20.9042 33.6857 20.9042 33.6857C28.7246 17.2497 37.9849 14.201 44.5904 14.6803C44.5904 14.6803 51.5541 8.90732 63.7535 14.0028C63.7535 14.0028 71.7141 18.0136 71.5738 25.9668C71.5738 25.9668 39.1147 32.2911 36.5264 46.3055C36.5264 46.3055 32.0698 43.2821 29.2969 46.9398C29.2969 46.9398 25.3276 54.6334 35.7436 54.5145C35.7436 54.5145 38.2212 64.9109 44.2322 68.8749C44.2322 68.8749 31.9849 69.3253 23.1196 80.4461L21.6058 78.5722H21.6021Z" fill="#67A9F9"/>
<path d="M66.2421 29.707C66.2421 29.707 65.5332 40.1287 73.6932 43.0692C74.9375 43.516 76.0969 44.1719 77.0162 45.1016C78.375 46.4818 79.7412 48.7449 79.3682 52.1178C79.3682 52.1178 79.4384 36.8638 73.8963 31.3755L66.2421 29.707Z" fill="#67A9F9"/>
<path d="M49.133 31.376C49.133 31.376 54.1139 39.6607 43.4357 48.8535C42.0437 50.0535 40.8843 51.4949 40.1311 53.1526C38.8794 55.9093 38.0302 60.176 40.637 65.3363C40.637 65.3363 28.8991 52.8318 41.0727 35.1958C41.0727 35.1958 44.669 31.2931 49.1293 31.3796L49.133 31.376Z" fill="#67A9F9"/>
<path d="M40.0166 69.7393C40.0166 69.7393 18.0511 74.1573 17.9219 97.3861C17.9219 97.3861 18.221 104.896 25.1846 113.631L21.4259 149.116L78.7785 147.714L76.6813 119.264L85.2991 119.934C85.2991 119.934 90.2579 84.7086 69.6659 70.9429C69.6659 70.9429 67.181 89.2708 57.5477 90.7519C57.5477 90.7519 45.3668 85.3825 40.0129 69.7429L40.0166 69.7393Z" fill="#FFF080"/>
<path d="M42.3535 94.0498L55.9117 95.5309L50.3252 119.56L42.3535 118.738V94.0498Z" fill="white"/>
<path d="M39.8091 184.003C38.3433 170.374 41.323 148.626 41.323 148.626L28.1377 149.112C28.1377 149.112 27.355 171.134 29.6036 184.572L39.8128 183.999L39.8091 184.003Z" fill="white"/>
<path d="M50.6981 182.861C47.8661 170.183 50.1073 148.414 50.1073 148.414L61.5387 148.133C61.5387 148.133 58.1713 170.374 60.6119 181.621L50.7018 182.861H50.6981Z" fill="white"/>
<path d="M40.1149 159.974C39.502 167.307 39.033 176.792 39.8084 184.003L29.5992 184.576C28.377 177.271 28.0521 167.426 28.0078 159.967L40.1149 159.978V159.974Z" fill="#2BE6AE"/>
<path d="M60.2498 159.506C59.6516 166.681 59.3193 175.682 60.6079 181.618L50.6978 182.857C49.2208 176.241 49.1248 167.149 49.3685 159.967L60.2498 159.506Z" fill="#2BE6AE"/>
<path d="M26.1849 185.052C26.1849 185.052 24.0286 195.855 26.1849 198.648H51.4182C51.4182 198.648 58.9098 191.989 40.932 184.003C40.932 184.003 33.9092 183.679 26.1849 185.052Z" fill="#F8B3FF"/>
<path d="M48.8405 184.003C48.8405 184.003 46.8171 191.376 47.5704 197.776H75.2738C75.2738 197.776 81.8054 189.196 60.6079 181.617L48.8405 183.999V184.003Z" fill="#F8B3FF"/>
<path d="M32.0808 96.0859C32.0808 96.0859 32.45 97.8769 34.8463 99.6175C34.8463 99.6175 28.7023 104.234 29.7953 115.639C29.7953 115.639 27.351 114.929 23.127 110.807C23.127 110.807 23.5848 100.032 32.0808 96.0859Z" fill="#FFBA57"/>
<path d="M75.8242 107.57L85.7676 107.53L85.8304 114.954L76.367 114.946L75.8242 107.57Z" fill="#FFBA57"/>
<path d="M22.6068 137.992L77.8695 135.318L78.2388 140.338L22.0898 142.857L22.6068 137.992Z" fill="#FFBA57"/>
<path d="M40.0172 69.7399C40.0172 69.7399 42.7311 79.9561 60.2991 90.7489L56.6215 93.2787C56.6215 93.2787 44.5846 87.221 34.9883 71.6282L40.0172 69.7363V69.7399Z" fill="#FFBA57"/>
<path d="M56.7832 88.5755C68.857 81.6638 69.6694 70.9395 69.6694 70.9395L72.8041 73.2926C72.8041 73.2926 71.5746 83.6854 60.2983 90.7485L56.7832 88.5755Z" fill="#FFBA57"/>
<path d="M32.1513 44.7996C36.6523 20.4428 60.8369 21.0699 60.8369 21.0699C81.2923 23.2032 76.9169 36.1365 76.9169 36.1365C49.6455 23.0807 36.523 46.3059 36.523 46.3059C36.523 46.3059 34.2079 44.9545 32.0664 45.1383L32.1476 44.7996H32.1513Z" fill="#FFF080"/>
<path d="M42.3535 103.729L54.0914 103.357L50.3252 119.559L42.3535 118.738V103.729Z" fill="#FF6A2F"/>
<path d="M40.2188 113.596C47.5332 115.477 46.0378 112.227 46.0378 112.227C45.6981 111.318 46.6729 110.782 46.6729 110.782C48.4083 109.664 47.0532 108.634 47.0532 108.634C46.0785 107.974 46.8834 106.818 46.8834 106.818C48.4932 105.164 45.9529 104.627 45.9529 104.627C43.9628 104.212 45.3585 102.634 45.3585 102.634C46.8391 99.8554 43.9185 100.371 43.9185 100.371C41.8028 100.576 39.9972 101.585 39.9972 101.585L38.1105 101.971C38.1105 101.971 37.1135 105.185 36.8145 112.623L40.2114 113.596H40.2188Z" fill="white"/>
<path d="M33.7068 55.4154C33.6625 55.4154 33.6182 55.4154 33.5702 55.4046C31.1665 55.0587 29.457 54.1506 28.4896 52.6983C27.2711 50.8749 27.7031 48.8569 27.7881 48.5182C28.1684 46.5506 29.0804 45.2353 30.5019 44.6082C30.7604 44.4929 31.0262 44.41 31.2958 44.3488C34.4527 27.974 46.5118 22.756 53.4459 21.1019C58.4416 19.9091 63.5739 20.1073 68.2964 21.6677C81.1752 25.9308 77.8262 36.3127 77.793 36.4173C77.7081 36.6659 77.5198 36.8641 77.2724 36.965C77.025 37.0659 76.7481 37.0587 76.5081 36.9434C65.5345 31.6893 55.6244 31.7254 47.0508 37.0443C40.6115 41.0407 37.3622 46.6839 37.329 46.7416C37.2072 46.9542 37.0041 47.1127 36.7604 47.174C36.5167 47.2353 36.2619 47.2028 36.0478 47.0767C35.2465 46.6118 32.8244 45.556 31.2552 46.2515C30.4133 46.6263 29.8558 47.5055 29.5936 48.8749C29.5899 48.9001 29.5825 48.9254 29.5752 48.9506C29.5752 48.9614 29.1838 50.4641 30.0404 51.729C30.7124 52.72 31.9862 53.3578 33.8324 53.6209C34.3382 53.6929 34.6853 54.1506 34.6115 54.6443C34.545 55.0911 34.1499 55.4154 33.6995 55.4154H33.7068ZM33.1973 44.2659C34.3788 44.392 35.4718 44.8028 36.1844 45.1236C37.3216 43.3794 40.545 38.9722 46.0022 35.5704C52.1536 31.7326 62.3444 28.5614 76.2792 34.8461C76.6742 32.4281 76.6779 26.3524 67.7093 23.3794C63.3228 21.9272 58.545 21.747 53.8927 22.8569C46.0281 24.7344 36.1216 29.9776 33.201 44.2695L33.1973 44.2659Z" fill="#231F20"/>
<path d="M21.6025 79.4729C21.3034 79.4729 21.0117 79.3323 20.8345 79.0729C18.1169 75.0981 19.8708 71.5774 21.248 70.1792C25.9261 62.2368 20.8049 54.7882 20.5834 54.4747C20.5391 54.4098 20.4985 54.3377 20.4726 54.2621C15.9237 41.6891 20.0258 34.1143 20.5132 33.2855C25.0585 22.5143 30.9957 16.0566 38.1551 14.0927C46.5957 11.7792 53.5003 16.6188 53.792 16.8278C54.2018 17.1233 54.2905 17.6855 53.9914 18.0855C53.6886 18.4891 53.1126 18.5756 52.7028 18.2801C52.5883 18.1972 46.1748 13.7539 38.6351 15.8332C32.0443 17.653 26.5169 23.772 22.1969 34.0278C22.1785 34.0711 22.1563 34.1107 22.1341 34.1503C22.0935 34.2188 17.8289 41.4224 22.1785 53.5557C22.8874 54.6116 27.9089 62.6296 22.7877 71.1846C22.7471 71.253 22.6954 71.3179 22.6363 71.3756C22.5218 71.4873 19.7637 74.2548 22.3705 78.0747C22.6548 78.4891 22.5403 79.0476 22.1157 79.3251C21.9569 79.426 21.7797 79.4765 21.6061 79.4765L21.6025 79.4729Z" fill="#231F20"/>
<path d="M71.571 24.9829C71.1353 24.9829 70.7476 24.6838 70.6664 24.2513C70.6553 24.1973 69.507 18.6405 64.227 15.3216C59.8922 12.5973 54.0177 12.0784 46.7734 13.7829C46.2824 13.8982 45.7802 13.6027 45.6584 13.1198C45.5402 12.6369 45.843 12.1504 46.3377 12.0315C54.1064 10.2045 60.4682 10.8063 65.2497 13.8225C71.1944 17.5739 72.4239 23.6567 72.4756 23.9126C72.5679 24.4027 72.2393 24.8712 71.7371 24.9649C71.678 24.9757 71.6227 24.9793 71.5673 24.9793L71.571 24.9829Z" fill="#231F20"/>
<path d="M47.3309 71.6317C47.1906 71.6317 47.0503 71.5993 46.9174 71.5344C40.1715 68.2083 38.3032 63.5921 37.9266 60.3056C37.2767 54.6515 40.5001 49.1704 42.8854 47.2425C51.5327 40.2587 49.2657 35.0587 49.166 34.8389C48.9592 34.3884 49.1586 33.8551 49.6164 33.6461C50.0743 33.4407 50.6207 33.6281 50.8349 34.0749C50.9641 34.3416 53.8921 40.6875 44.0595 48.6299C42.2651 50.0785 39.1635 54.9326 39.758 60.1038C40.2343 64.2443 42.9223 67.5488 47.7444 69.9236C48.1986 70.147 48.3832 70.6912 48.1506 71.1344C47.9881 71.4479 47.6632 71.6281 47.3272 71.6281L47.3309 71.6317Z" fill="#231F20"/>
<path d="M39.1115 62.5974C38.8937 62.5974 38.6721 62.5217 38.4949 62.3668C36.1134 60.2875 34.8211 57.21 34.762 53.4695C34.7177 50.7019 35.3527 48.5505 35.3823 48.4604C35.5263 47.9812 36.0395 47.7073 36.5269 47.8514C37.0143 47.992 37.2949 48.4929 37.1546 48.9685C37.1324 49.0478 34.8912 56.8028 39.7281 61.0262C40.1084 61.3577 40.1417 61.9271 39.802 62.2983C39.6211 62.4965 39.3663 62.5974 39.1152 62.5974H39.1115Z" fill="#231F20"/>
<path d="M73.8233 65.3001C73.635 65.3001 73.443 65.2424 73.2806 65.1271C72.867 64.8352 72.7784 64.2694 73.0775 63.8694C77.4196 58.0532 79.1772 52.9433 78.1618 49.091C77.2941 45.7974 74.7243 44.4136 74.307 44.2082C65.0541 41.5415 65.32 32.6694 65.3236 32.5793C65.3458 32.082 65.7704 31.6965 66.2837 31.7145C66.7932 31.7361 67.1883 32.1541 67.1698 32.6478C67.1587 32.9577 66.9815 40.255 74.8978 42.4965C74.9421 42.5073 74.9827 42.5253 75.0233 42.5433C75.1747 42.6118 78.7747 44.2586 79.9378 48.5974C81.1341 53.055 79.3286 58.5505 74.5692 64.9289C74.3883 65.1703 74.1076 65.3001 73.8233 65.3001Z" fill="#231F20"/>
<path d="M58.2308 88.5613C57.9355 88.5613 57.6475 88.4243 57.4702 88.1685C57.1822 87.7577 57.2893 87.1991 57.7102 86.9144C67.6647 80.2478 68.7428 70.9397 68.7502 70.846C68.8019 70.3523 69.2524 69.9919 69.7619 70.0388C70.2678 70.0892 70.637 70.5289 70.589 71.0225C70.5484 71.437 69.4518 81.2388 58.7552 88.3991C58.5964 88.5072 58.4155 88.5577 58.2345 88.5577L58.2308 88.5613Z" fill="#231F20"/>
<path d="M61.5173 90.9358C61.2145 90.9358 60.9192 90.7917 60.7419 90.525C60.465 90.107 60.5868 89.5485 61.0188 89.2782C70.1499 83.5232 71.8779 73.2566 71.8964 73.1521C71.9739 72.662 72.4465 72.3268 72.9487 72.3989C73.4508 72.4746 73.7979 72.9322 73.7204 73.4259C73.6502 73.88 71.8668 84.5863 62.0195 90.7917C61.8644 90.889 61.6908 90.9358 61.521 90.9358H61.5173Z" fill="#231F20"/>
<path d="M56.6236 93.4331C56.5128 93.4331 56.402 93.4151 56.2913 93.3718C51.554 91.5952 46.7983 88.0061 42.1571 82.7124C38.7233 78.7916 36.6888 75.4367 36.6039 75.2961C36.3454 74.8673 36.4931 74.316 36.9325 74.0637C37.3719 73.8115 37.9368 73.9556 38.1953 74.3844C38.2765 74.5178 46.3183 87.7034 56.9559 91.6961C57.4322 91.8763 57.6685 92.3952 57.4876 92.8601C57.3473 93.2169 56.9965 93.4367 56.6273 93.4367L56.6236 93.4331Z" fill="#231F20"/>
<path d="M60.2986 91.6494C60.1399 91.6494 59.9811 91.6097 59.8371 91.5268C46.7479 84.125 40.5263 73.4692 40.2679 73.0187C40.0205 72.5863 40.1756 72.035 40.6223 71.7935C41.0654 71.5485 41.6303 71.7034 41.8777 72.1395C41.9405 72.244 48.1288 82.8277 60.7602 89.9701C61.2033 90.2187 61.351 90.7701 61.0962 91.2025C60.9263 91.4908 60.6162 91.653 60.295 91.653L60.2986 91.6494Z" fill="#231F20"/>
<path d="M21.4291 150.014C21.1706 150.014 20.9269 149.909 20.7534 149.725C20.5725 149.534 20.4839 149.278 20.5134 149.023L24.2722 113.538C24.3239 113.044 24.7817 112.68 25.2839 112.734C25.7897 112.785 26.1589 113.228 26.1072 113.722L22.4592 148.187L71.2752 146.994C71.2752 146.994 71.29 146.994 71.2974 146.994C71.7959 146.994 72.2057 147.383 72.2205 147.873C72.2352 148.37 71.8291 148.785 71.3196 148.796L21.4549 150.014C21.4549 150.014 21.4402 150.014 21.4328 150.014H21.4291Z" fill="#231F20"/>
<path d="M71.2946 148.796C70.7961 148.796 70.3863 148.406 70.3715 147.916C70.3567 147.419 70.7629 147.005 71.2724 146.994L77.7967 146.835L73.665 90.8136C73.6281 90.3163 74.0121 89.8875 74.5179 89.8515C75.0275 89.8082 75.4669 90.1902 75.5038 90.6839L79.7019 147.646C79.7204 147.891 79.6355 148.133 79.4656 148.316C79.2958 148.5 79.0558 148.605 78.8047 148.612L71.313 148.796C71.313 148.796 71.2983 148.796 71.2909 148.796H71.2946Z" fill="#231F20"/>
<path d="M36.8999 117.981H36.8852C30.095 117.887 24.5307 114.749 20.7941 108.9C18.0101 104.54 17.231 100.262 17.2015 100.082C17.2015 100.064 17.1941 100.042 17.1941 100.024C16.0162 89.1666 20.4249 81.8009 24.3313 77.5342C28.5553 72.918 33.0119 70.8928 33.2002 70.8063C33.6655 70.6009 34.2119 70.7955 34.4261 71.2495C34.6402 71.7036 34.4372 72.2369 33.9719 72.4423C33.9276 72.4603 29.6298 74.4279 25.6605 78.7847C20.3842 84.5792 18.1541 91.6495 19.0292 99.7973C19.0956 100.147 19.8932 104.093 22.3965 107.988C25.6421 113.041 30.1836 115.776 35.9067 116.132C35.7996 114.086 35.7701 109.156 37.2138 102.435C37.3172 101.949 37.8082 101.635 38.3067 101.74C38.8052 101.841 39.1264 102.32 39.0193 102.806C37.1916 111.304 37.8119 116.918 37.8193 116.972C37.8489 117.228 37.7639 117.487 37.5867 117.678C37.4132 117.866 37.1621 117.974 36.9036 117.974L36.8999 117.981Z" fill="#231F20"/>
<path d="M38.1175 101.805C38.0363 101.805 37.9513 101.794 37.8701 101.772C28.9015 99.3217 30.2307 89.9992 30.2455 89.9055C30.323 89.4118 30.792 89.0731 31.2941 89.1488C31.7963 89.2244 32.1433 89.6821 32.0695 90.1722C32.0215 90.4929 30.9803 98.0208 38.3686 100.039C38.8596 100.172 39.1476 100.669 39.0073 101.149C38.8929 101.545 38.5236 101.808 38.1175 101.808V101.805Z" fill="#231F20"/>
<path d="M29.7955 116.543C29.3414 116.543 28.9426 116.215 28.8798 115.761C28.8651 115.646 28.5032 112.914 28.9795 109.473C29.6183 104.846 31.494 101.159 34.3998 98.8063C34.7912 98.4892 35.3746 98.5433 35.6995 98.9252C36.0244 99.3072 35.9691 99.8766 35.5777 100.194C29.3783 105.206 30.6965 115.419 30.7112 115.523C30.7777 116.017 30.4232 116.471 29.9174 116.536C29.8768 116.54 29.8361 116.543 29.7955 116.543Z" fill="#231F20"/>
<path d="M23.8363 112.273C23.4006 112.273 23.0129 111.97 22.9317 111.538C22.9132 111.437 21.1631 101.538 31.6012 95.318C32.0369 95.0585 32.6055 95.1919 32.8714 95.6171C33.1372 96.0423 33.0006 96.5973 32.5649 96.8567C23.2455 102.413 24.6855 110.857 24.752 111.213C24.8443 111.704 24.512 112.172 24.0098 112.262C23.9544 112.273 23.8991 112.277 23.8437 112.277L23.8363 112.273Z" fill="#231F20"/>
<path d="M85.3069 120.832C85.2811 120.832 85.2589 120.832 85.2331 120.832L76.6153 120.161C76.1057 120.122 75.7291 119.689 75.7697 119.192C75.8103 118.695 76.2571 118.334 76.7629 118.367L84.502 118.969C88.235 88.8136 74.9611 75.61 74.8245 75.4803C74.4626 75.1308 74.459 74.5614 74.8171 74.2046C75.1753 73.8515 75.7586 73.8479 76.1242 74.1974C76.2719 74.3416 79.8054 77.801 82.8257 85.2208C85.5876 92.0064 88.4196 103.56 86.2263 120.05C86.1673 120.5 85.7722 120.835 85.3106 120.835L85.3069 120.832Z" fill="#231F20"/>
<path d="M75.824 108.471C75.4252 108.471 75.056 108.215 74.9378 107.823C74.7938 107.343 75.0782 106.846 75.5655 106.705C75.728 106.659 76.0049 106.583 86.0886 106.669C86.5982 106.673 87.008 107.08 87.0043 107.578C87.0006 108.071 86.5871 108.471 86.0812 108.471H86.0738C82.4849 108.439 76.6215 108.406 75.9791 108.457C75.9274 108.464 75.8757 108.471 75.824 108.471ZM76.0825 108.435C76.0529 108.442 76.0234 108.45 75.9938 108.457C76.0345 108.45 76.064 108.442 76.0825 108.435Z" fill="#231F20"/>
<path d="M85.8298 115.848H76.3664C75.8569 115.848 75.4434 115.444 75.4434 114.947C75.4434 114.45 75.8569 114.046 76.3664 114.046H85.8298C86.3394 114.046 86.7529 114.45 86.7529 114.947C86.7529 115.444 86.3394 115.848 85.8298 115.848Z" fill="#231F20"/>
<path d="M22.0941 143.757C22.0609 143.757 22.0314 143.757 21.9981 143.754C21.4923 143.703 21.1231 143.26 21.1748 142.766C21.256 141.992 21.9686 141.934 22.6554 141.88C23.0726 141.848 23.6855 141.808 24.4646 141.765C25.9268 141.685 28.072 141.581 30.8412 141.462C35.5046 141.26 41.9994 141.001 50.152 140.694C64.0314 140.172 78.0843 139.685 78.2246 139.682C78.7304 139.657 79.1624 140.053 79.1809 140.55C79.1994 141.048 78.8006 141.466 78.2911 141.484C56.8498 142.226 24.5052 143.426 22.3784 143.714C22.2861 143.743 22.1901 143.757 22.0904 143.757H22.0941ZM23.0098 142.95C22.9877 143.156 22.8991 143.336 22.7624 143.476C22.8843 143.35 22.984 143.177 23.0098 142.95Z" fill="#231F20"/>
<path d="M22.6079 138.889C22.1205 138.889 21.7106 138.514 21.6848 138.031C21.659 137.534 22.0503 137.112 22.5599 137.087L77.8227 134.417C78.3322 134.395 78.7642 134.774 78.79 135.271C78.8159 135.768 78.4245 136.19 77.915 136.215L22.6522 138.885C22.6522 138.885 22.6226 138.885 22.6042 138.885L22.6079 138.889Z" fill="#231F20"/>
<path d="M29.5998 185.477C29.1567 185.477 28.7653 185.163 28.6915 184.72C26.4577 171.347 27.2072 149.304 27.2146 149.084C27.233 148.587 27.6503 148.197 28.1672 148.215C28.6767 148.233 29.0755 148.651 29.057 149.145C29.0497 149.365 28.3038 171.235 30.5118 184.432C30.593 184.922 30.2533 185.387 29.7475 185.466C29.6958 185.473 29.6478 185.477 29.5961 185.477H29.5998Z" fill="#231F20"/>
<path d="M39.6617 183.761C39.1964 183.761 38.794 183.415 38.746 182.954C37.2875 169.369 40.3817 148.706 40.4149 148.497C40.4887 148.003 40.9614 147.664 41.4635 147.736C41.9694 147.808 42.3164 148.266 42.2426 148.76C42.213 148.965 39.1484 169.408 40.5847 182.767C40.6364 183.261 40.2709 183.704 39.7614 183.758C39.7281 183.758 39.6949 183.761 39.6654 183.761H39.6617Z" fill="#231F20"/>
<path d="M50.6976 183.761C50.273 183.761 49.889 183.473 49.7966 183.051C48.6077 177.721 48.1425 170.255 48.4194 160.857C48.6225 153.876 49.1837 148.377 49.1911 148.323C49.2428 147.83 49.6859 147.462 50.2028 147.516C50.7086 147.566 51.0816 148.006 51.0299 148.503C51.0077 148.72 48.8366 170.276 51.6059 182.669C51.713 183.156 51.3991 183.635 50.9006 183.739C50.8342 183.754 50.7677 183.761 50.705 183.761H50.6976Z" fill="#231F20"/>
<path d="M60.561 181.855C60.1327 181.855 59.7524 181.563 59.6601 181.141C58.6299 176.392 58.4786 169.365 59.2133 160.255C59.7598 153.502 60.6164 148.049 60.6238 147.995C60.7013 147.505 61.1776 147.17 61.6761 147.242C62.1782 147.318 62.5253 147.779 62.4478 148.269C62.4146 148.482 59.0841 169.808 61.4619 180.763C61.569 181.249 61.2478 181.729 60.7493 181.83C60.6866 181.844 60.6201 181.851 60.5573 181.851L60.561 181.855Z" fill="#231F20"/>
<path d="M28.0054 185.952C27.8171 185.952 27.6287 185.898 27.4663 185.779C27.0527 185.487 26.9604 184.925 27.2595 184.522C27.5475 184.132 27.9426 183.599 38.5432 183.102C39.0638 183.084 39.4847 183.462 39.5106 183.959C39.5364 184.457 39.1414 184.878 38.6318 184.903C34.3081 185.105 29.4343 185.484 28.5555 185.776C28.3931 185.891 28.2011 185.952 28.0054 185.952Z" fill="#231F20"/>
<path d="M26.1858 199.549C25.8018 199.549 25.4437 199.314 25.3144 198.94C23.6898 194.349 25.2147 186.273 25.2812 185.931C25.3735 185.441 25.8572 185.12 26.3594 185.21C26.8615 185.3 27.1901 185.772 27.0978 186.262C27.0831 186.342 25.5987 194.212 27.0646 198.349C27.2307 198.817 26.976 199.333 26.4923 199.495C26.3926 199.527 26.2929 199.545 26.1895 199.545L26.1858 199.549Z" fill="#231F20"/>
<path d="M50.699 200.154C50.4221 200.154 50.1488 200.035 49.9679 199.804C49.6541 199.412 49.7279 198.846 50.1304 198.54C51.7402 197.322 52.3827 196.017 52.0947 194.554C51.1938 189.999 42.0147 185.268 40.7851 184.889C40.3458 184.821 40.0098 184.449 40.0098 183.999C40.0098 183.502 40.4233 183.098 40.9328 183.098C41.9039 183.098 51.7845 187.967 53.6824 193.383C54.2842 195.095 54.3507 197.628 51.2676 199.963C51.0978 200.089 50.8984 200.15 50.7027 200.15L50.699 200.154Z" fill="#231F20"/>
<path d="M75.467 197.675C75.3156 197.675 75.1606 197.639 75.0203 197.563C74.5735 197.322 74.4147 196.774 74.6621 196.338C75.4781 194.9 75.5113 193.473 74.7655 191.97C72.3987 187.214 62.9353 183.484 61.5655 183.185C61.3809 183.192 61.1889 183.141 61.0227 183.033C60.5981 182.756 60.4873 182.197 60.768 181.783C61.2332 181.109 61.9126 181.268 64.3827 182.269C65.4461 182.702 67.5618 183.621 69.7513 184.925C76.2535 188.799 78.5686 193.163 76.272 197.21C76.1021 197.505 75.7883 197.675 75.4633 197.675H75.467Z" fill="#231F20"/>
<path d="M48.5117 189.387C48.4895 189.387 48.4674 189.387 48.4452 189.387C47.9357 189.351 47.5554 188.918 47.5923 188.424L47.9246 183.945C47.9542 183.556 48.2348 183.232 48.6225 183.134C49.0102 183.041 58.2926 180.842 58.6877 180.749C59.1788 180.63 59.6809 180.929 59.8028 181.412C59.9246 181.895 59.6182 182.381 59.1234 182.5C59.0422 182.518 51.9455 184.197 49.7191 184.727L49.4385 188.554C49.4052 189.03 48.9991 189.39 48.5191 189.39L48.5117 189.387Z" fill="#231F20"/>
<path d="M27.4555 199.549C27.3485 199.549 27.2377 199.531 27.1306 199.491C26.6543 199.314 26.4143 198.795 26.5915 198.331C26.8278 197.722 27.3411 197.707 28.3601 197.675C28.9214 197.657 29.7337 197.646 30.7823 197.642C32.5361 197.632 34.9731 197.635 38.0266 197.653C43.2217 197.686 48.4721 197.747 48.5238 197.747C49.0334 197.754 49.4432 198.161 49.4358 198.659C49.4285 199.152 49.0186 199.549 48.5128 199.549H48.5017C41.0838 199.459 29.0432 199.372 27.7325 199.505C27.6438 199.534 27.5515 199.549 27.4555 199.549ZM28.3195 198.968C28.2715 199.087 28.2014 199.195 28.1128 199.282C28.194 199.203 28.2678 199.102 28.3195 198.968Z" fill="#231F20"/>
<path d="M73.9405 198.68H52.1965C51.687 198.68 51.2734 198.277 51.2734 197.779C51.2734 197.282 51.687 196.878 52.1965 196.878H73.9405C74.4501 196.878 74.8636 197.282 74.8636 197.779C74.8636 198.277 74.4501 198.68 73.9405 198.68Z" fill="#231F20"/>
<path d="M53.0875 195.959C52.685 195.959 52.3158 195.7 52.1976 195.304C52.0573 194.824 52.3453 194.327 52.8364 194.19C53.0026 194.143 53.309 194.06 71.4087 194.158C71.9183 194.158 72.3281 194.565 72.3281 195.062C72.3281 195.559 71.9146 195.959 71.405 195.959H71.4013C64.5263 195.923 54.077 195.891 53.2315 195.949C53.1835 195.956 53.1392 195.959 53.0912 195.959H53.0875ZM53.3386 195.927C53.3053 195.934 53.2721 195.941 53.2426 195.949C53.2906 195.941 53.3238 195.931 53.3386 195.927Z" fill="#231F20"/>
<path d="M47.5698 195.96H25.8332C25.3237 195.96 24.9102 195.556 24.9102 195.059C24.9102 194.561 25.3237 194.158 25.8332 194.158H47.5698C48.0794 194.158 48.4929 194.561 48.4929 195.059C48.4929 195.556 48.0794 195.96 47.5698 195.96Z" fill="#231F20"/>
<path d="M49.2655 160.868C48.7707 160.868 48.3646 160.486 48.3424 160.003C48.324 159.505 48.719 159.087 49.2286 159.069L60.5713 158.641C60.5713 158.641 60.5972 158.641 60.6083 158.641C61.103 158.641 61.5092 159.023 61.5313 159.505C61.5498 160.003 61.1547 160.421 60.6452 160.439L49.3024 160.868C49.3024 160.868 49.2766 160.868 49.2655 160.868Z" fill="#231F20"/>
<path d="M40.0016 160.868H28.009C27.4995 160.868 27.0859 160.464 27.0859 159.967C27.0859 159.47 27.4995 159.066 28.009 159.066H40.0016C40.5112 159.066 40.9247 159.47 40.9247 159.967C40.9247 160.464 40.5112 160.868 40.0016 160.868Z" fill="#231F20"/>
<path d="M52.0864 54.6764C50.6427 54.6764 48.6193 54.0891 47.9879 51.9593C47.9769 51.9269 47.9695 51.8945 47.9658 51.862C47.9436 51.7431 47.471 48.9395 49.1252 47.2458C50.0778 46.2692 51.4698 45.8837 53.2753 46.0963C53.5633 46.1215 54.9812 46.3377 56.1184 47.9773C56.4027 48.3882 56.2919 48.9503 55.871 49.2278C55.4501 49.5053 54.8741 49.3972 54.5898 48.9864C53.8993 47.9918 53.1313 47.8909 53.0981 47.8873C51.8722 47.7395 51.0009 47.9413 50.4692 48.4819C50.3806 48.5719 50.303 48.6692 50.2329 48.7737C51.5953 48.381 53.3233 48.4278 54.7855 49.6746C55.535 50.3161 55.8636 51.3539 55.6273 52.3269C55.3615 53.4152 54.4347 54.2332 53.0907 54.5647C52.8249 54.6296 52.4778 54.6728 52.0901 54.6728L52.0864 54.6764ZM49.775 51.5089C50.3289 53.2098 52.6107 52.8278 52.6292 52.8242C53.2975 52.6584 53.7221 52.3341 53.8255 51.9125C53.903 51.5954 53.7959 51.235 53.5633 51.0368C52.0642 49.7575 50.3178 50.5864 49.7307 50.9828C49.7381 51.1918 49.7566 51.3755 49.775 51.5089Z" fill="#231F20"/>
<path d="M69.1821 54.6764C67.7384 54.6764 65.715 54.0891 65.0836 51.9593C65.0726 51.9269 65.0652 51.8945 65.0615 51.862C65.0393 51.7431 64.5667 48.9395 66.2209 47.2458C67.1735 46.2692 68.5692 45.8837 70.371 46.0963C70.659 46.1251 72.0769 46.3377 73.2141 47.9773C73.4984 48.3882 73.3876 48.9503 72.9667 49.2278C72.5458 49.5053 71.9698 49.3972 71.6855 48.9864C70.995 47.9918 70.227 47.8909 70.1938 47.8873C68.9679 47.7395 68.0929 47.9413 67.5612 48.4855C67.4726 48.5755 67.395 48.6728 67.3286 48.7737C68.691 48.381 70.4227 48.4278 71.8812 49.6746C72.6307 50.3161 72.9593 51.3539 72.723 52.3269C72.4572 53.4152 71.5304 54.2332 70.1864 54.5647C69.9206 54.6296 69.5735 54.6728 69.1858 54.6728L69.1821 54.6764ZM66.8744 51.5125C67.4283 53.2098 69.7064 52.8278 69.7286 52.8242C70.3969 52.6584 70.8215 52.3341 70.9249 51.9125C71.0024 51.5954 70.8953 51.235 70.6627 51.0368C69.1673 49.7611 67.4209 50.5864 66.8301 50.9828C66.8375 51.2386 66.8596 51.4296 66.8744 51.5125Z" fill="#231F20"/>
<path d="M61.3988 64.8025C60.136 64.8025 58.36 64.3953 55.9711 63.5737C55.4911 63.4079 55.2363 62.8926 55.4062 62.4241C55.576 61.9557 56.1003 61.707 56.584 61.8728C59.9145 63.0187 61.2917 63.0476 61.8013 62.9719C60.317 61.5448 59.6339 60.3376 59.7151 59.2926C59.7631 58.6476 60.1102 58.2007 60.4167 57.9989C60.6677 57.8331 60.989 57.7971 61.2733 57.9052C62.7243 58.4602 63.496 58.5971 63.8727 58.6223C64.0277 55.1989 62.5434 52.5863 62.5286 52.5611C62.2776 52.1286 62.4326 51.5809 62.8757 51.3322C63.3188 51.0872 63.88 51.2385 64.1348 51.6674C64.216 51.8043 66.088 55.0584 65.6745 59.3322C65.6745 59.3683 65.6671 59.4007 65.6597 59.4367C65.6265 59.5881 65.4973 59.9629 65.0247 60.2115C64.5927 60.4385 63.7877 60.6331 61.72 59.9773C61.9305 60.4025 62.4105 61.08 63.4997 62.0602C63.5994 62.1503 63.677 62.262 63.7286 62.3845C63.8837 62.7557 63.9908 63.5485 63.3963 64.1539C62.9754 64.5863 62.3219 64.8025 61.3988 64.8025Z" fill="#231F20"/>
<path d="M61.516 67.3432C61.4422 67.3432 61.3683 67.336 61.2945 67.318C61.2243 67.3252 61.1283 67.318 61.0102 67.3252C59.8656 67.3504 57.1886 67.4153 54.8883 66.118C54.4452 65.8693 54.2976 65.318 54.5523 64.8856C54.8071 64.4531 55.372 64.309 55.8151 64.5576C57.6649 65.6027 59.98 65.545 60.9696 65.5234C61.5419 65.509 62.044 65.4982 62.3283 66.0099C62.572 66.4459 62.4095 66.9937 61.9628 67.2315C61.8225 67.3072 61.6711 67.3432 61.5197 67.3432H61.516ZM60.7074 66.8783C60.7296 66.9216 60.7554 66.9576 60.7849 66.9937C60.7554 66.9576 60.7296 66.918 60.7074 66.8783Z" fill="#231F20"/>
<path d="M43.9329 115.084C42.8916 115.084 41.5845 114.878 39.9821 114.464C39.4873 114.338 39.1956 113.844 39.3249 113.365C39.4541 112.882 39.9599 112.594 40.451 112.724C44.4572 113.754 45.1624 113.037 45.1919 113.005C45.2879 112.896 45.2141 112.637 45.1919 112.579C45.1882 112.569 45.1772 112.543 45.1735 112.533C44.7636 111.43 45.4061 110.46 46.1889 110.014C46.547 109.779 46.6356 109.61 46.6356 109.57C46.6356 109.527 46.5618 109.412 46.4879 109.343C45.2732 108.482 45.5981 107.062 46.1224 106.309C46.1519 106.269 46.1815 106.23 46.2184 106.194C46.3993 106.006 46.4658 105.887 46.4879 105.833C46.3772 105.722 46.0375 105.567 45.7569 105.502C44.6307 105.268 44.2061 104.684 44.0547 104.237C43.7409 103.325 44.3316 102.45 44.5864 102.133C44.8485 101.617 44.8633 101.369 44.8596 101.289C44.7267 101.228 44.3575 101.206 44.0842 101.25C44.0621 101.25 44.0362 101.257 44.0178 101.257C42.1199 101.441 40.4805 102.349 40.4658 102.36C40.0227 102.608 39.4578 102.457 39.2067 102.024C38.9519 101.592 39.107 101.041 39.5501 100.796C39.6313 100.752 41.5329 99.7001 43.8036 99.4695C44.1802 99.4082 45.6276 99.2496 46.3624 100.219C46.8793 100.904 46.8202 101.855 46.1889 103.041C46.1556 103.102 46.115 103.16 46.067 103.214C45.9636 103.333 45.8602 103.52 45.827 103.632C45.8824 103.66 45.9821 103.7 46.1556 103.736C46.4473 103.797 47.9132 104.161 48.275 105.311C48.4227 105.776 48.4264 106.504 47.6325 107.358C47.5698 107.469 47.4184 107.772 47.5919 107.887C47.6067 107.898 47.6215 107.905 47.6325 107.916C47.7249 107.988 48.5298 108.63 48.4892 109.635C48.4596 110.356 48.0239 110.99 47.1895 111.527C47.171 111.538 47.1525 111.549 47.1378 111.56C47.1193 111.57 46.8645 111.729 46.9125 111.898C47.1267 112.399 47.2818 113.39 46.6135 114.161C46.0818 114.774 45.2067 115.077 43.9439 115.077L43.9329 115.084Z" fill="#231F20"/>
<path d="M50.3281 120.46C50.2949 120.46 50.2654 120.46 50.2321 120.457L42.2568 119.639C41.7878 119.592 41.4297 119.203 41.4297 118.741V114.046C41.4297 113.548 41.8432 113.145 42.3528 113.145C42.8623 113.145 43.2758 113.548 43.2758 114.046V117.93L49.6081 118.583L54.7848 96.3161L43.2758 95.0584V100.666C43.2758 101.163 42.8623 101.567 42.3528 101.567C41.8432 101.567 41.4297 101.163 41.4297 100.666V94.0494C41.4297 93.7935 41.5405 93.5485 41.7361 93.3791C41.9318 93.2062 42.194 93.1269 42.4525 93.1557L56.0106 94.6368C56.2728 94.6656 56.5091 94.8025 56.6605 95.0116C56.8118 95.2206 56.8672 95.4836 56.8082 95.7323L51.2254 119.761C51.1294 120.176 50.7528 120.464 50.3245 120.464L50.3281 120.46Z" fill="#231F20"/>
<path d="M79.4803 131.041C79.0077 131.041 78.4649 130.893 77.852 130.601C77.3942 130.381 77.2058 129.841 77.4311 129.394C77.6563 128.947 78.2102 128.763 78.668 128.983C79.052 129.167 79.2846 129.221 79.4028 129.235C79.4175 129.12 79.4102 128.954 79.3917 128.864C79.3215 128.515 79.1258 127.495 79.7351 126.879C80.0711 126.54 80.5068 126.468 80.8058 126.515C80.9535 126.536 81.0902 126.594 81.212 126.68C81.4151 126.824 81.6108 126.832 81.7954 126.698C81.8175 126.68 81.8212 126.68 81.8397 126.666C82.6778 126.097 82.3234 122.68 81.4852 119.967C81.3375 119.491 81.6145 118.987 82.1019 118.842C82.5929 118.698 83.1062 118.969 83.2538 119.444C83.276 119.513 83.7708 121.124 84.0255 122.933C84.4058 125.642 84.0477 127.343 82.9252 128.129C82.5929 128.385 81.9505 128.677 81.212 128.583C81.2748 128.929 81.4003 130.068 80.5622 130.706C80.2594 130.933 79.9012 131.048 79.484 131.048L79.4803 131.041Z" fill="#231F20"/>
<path d="M86.5236 142.622C86.4645 142.622 86.4092 142.619 86.3501 142.608C85.8479 142.514 85.5193 142.042 85.6153 141.556C87.1919 133.498 83.555 127.174 82.8202 126.273C82.7501 126.237 82.6799 126.194 82.6209 126.136C82.2442 125.801 82.2147 125.231 82.5581 124.864C82.8498 124.55 83.3076 124.471 83.7064 124.666C84.7624 125.177 89.2264 132.716 87.4282 141.894C87.3433 142.327 86.9556 142.626 86.5236 142.626V142.622Z" fill="#231F20"/>
<path d="M80.7797 159.12C75.0419 159.12 70.3711 154.63 70.3711 149.116C70.3711 148.799 70.3859 148.482 70.4154 148.165C70.4634 147.671 70.9176 147.314 71.4234 147.354C71.9329 147.401 72.3022 147.84 72.2542 148.338C72.2283 148.597 72.2172 148.86 72.2172 149.12C72.2172 153.642 76.0572 157.321 80.7797 157.321C85.5022 157.321 89.3422 153.642 89.3422 149.12C89.3422 144.597 85.5022 140.918 80.7797 140.918C80.0006 140.918 79.2252 141.019 78.4831 141.217C77.992 141.347 77.4825 141.066 77.3496 140.586C77.2166 140.107 77.5046 139.61 77.9957 139.48C78.8966 139.239 79.8345 139.12 80.776 139.12C86.5139 139.12 91.1846 143.61 91.1846 149.123C91.1846 154.637 86.5139 159.127 80.776 159.127L80.7797 159.12Z" fill="#231F20"/>
<path d="M64.6819 101.809L64.6376 100.767L68.7176 100.594C69.1717 100.576 69.5262 100.486 69.7847 100.331C70.0431 100.176 70.165 99.924 70.1465 99.5817C70.1354 99.3582 70.0727 99.178 69.9545 99.0447C69.8363 98.9114 69.6702 98.8177 69.4523 98.7636C69.2382 98.7096 68.976 98.688 68.6733 98.7024L66.6536 98.7889L66.613 97.8483L68.1748 97.7834C68.581 97.7654 68.9059 97.6789 69.1496 97.5204C69.3933 97.3618 69.5077 97.1096 69.493 96.7672C69.4819 96.5294 69.4191 96.3456 69.3047 96.2195C69.1902 96.0934 69.0499 96.0033 68.8764 95.9564C68.7028 95.9096 68.5219 95.888 68.3336 95.8952L64.4271 96.0609L64.3828 95.0195L68.3705 94.8501C68.8985 94.8285 69.3379 94.8861 69.696 95.0267C70.0505 95.1672 70.3237 95.369 70.5157 95.6321C70.7077 95.8952 70.8111 96.2015 70.8259 96.551C70.8407 96.8609 70.7779 97.1348 70.645 97.369C70.5084 97.6033 70.3311 97.7979 70.1059 97.9528C69.8844 98.1078 69.6333 98.2231 69.3637 98.3024C69.0942 98.3816 68.8283 98.4249 68.5699 98.4357L68.5477 97.9492C68.8727 97.9348 69.205 97.9492 69.541 97.9816C69.877 98.0177 70.1908 98.0898 70.4751 98.2051C70.7594 98.3204 70.9994 98.4934 71.184 98.7276C71.3724 98.9618 71.472 99.2645 71.4905 99.6321C71.5164 100.234 71.3059 100.71 70.8591 101.059C70.4087 101.409 69.7477 101.603 68.8653 101.639L64.6856 101.816L64.6819 101.809ZM65.8745 101.182L65.6271 95.5456L66.9453 95.4916L67.1927 101.128L65.8745 101.182Z" fill="black"/>
</svg>
