<svg width="100" height="210" viewBox="0 0 100 210" fill="none" xmlns="http://www.w3.org/2000/svg">
<g clip-path="url(#clip0_2045_99884)">
<path d="M29 157.656L20.2018 185.993L19.8061 190L11.0579 186.913C11.0579 186.913 10.374 157.898 13.7088 153L29 157.659V157.656Z" fill="white"/>
<path d="M85.788 96.9519C90.2251 97.6367 95.0419 90.9255 96.5491 81.9577C98.0524 72.9899 95.6747 65.167 91.2338 64.4823L88.4457 64L83 96.4697L85.788 96.9519Z" fill="#F8B3FF"/>
<path d="M50 156.745C50 156.745 53.3696 183.403 57.6986 190L65 189.578L63.8868 155L50 156.741V156.745Z" fill="white"/>
<path d="M10.0784 153.839L32.9039 160L40.8633 140.106L47.4494 160L65.9218 157.358C65.9218 157.358 66.552 133.564 64.2352 124C64.2352 124 44.2474 127.15 38.0402 127.004C38.0402 127.004 20.289 126.452 14.0272 124C14.0272 124 9.34259 141.647 10.0784 153.839Z" fill="#2BE6AE"/>
<path d="M19.199 127L19 132.19L22.9083 133L25 128.694L19.199 127Z" fill="white"/>
<path d="M27.4737 22C27.4737 22 26.1482 18.2411 27.9319 17.5941C27.9319 17.5941 29.9905 15.6941 32 18.6899C32 18.6899 28.6388 20.3094 27.4769 22H27.4737Z" fill="#67A9F9"/>
<path d="M67.9964 35.6792C67.9964 35.6792 66.5585 19.7534 51.8111 16.4371C51.8111 16.4371 35.3703 12.9998 24.6227 25.404C24.6227 25.404 15.4078 39.5196 22.9987 49.0326C22.9987 49.0326 26.8999 44.5326 29.9691 50C29.9691 50 39.9102 36.9325 52.6942 34.349C52.6942 34.349 50.4863 26.7672 56.8546 26.2835C56.8546 26.2835 63.4382 25.0889 62.4747 33.9643C62.4747 33.9643 65.9746 34.1511 68 35.6719L67.9964 35.6792Z" fill="#67A9F9"/>
<path d="M52 31.6686C52 31.6686 56.6049 28.6176 63.8468 30.7668C63.8468 30.7668 64.3147 33.0002 63.615 34.2524C63.615 34.2524 56.3469 32.9161 52.9227 35L52 31.6733V31.6686Z" fill="#67A9F9"/>
<path d="M20.8281 46C20.8281 46 9.86262 52.2772 12.3737 57.9474C12.3737 57.9474 14.4388 61.1935 20.8281 56.2848C20.8281 56.2848 23.9835 53.9096 24 52.7862V49.706L20.8281 46Z" fill="#67A9F9"/>
<path d="M67.3496 36.6291C67.3496 36.6291 71.967 63.0637 56.5958 73.206C56.5958 73.206 51.9679 78.1738 48.5666 79C48.5666 79 36.9245 74.4595 31.9441 66.9882C31.9441 66.9882 29.4416 63.2489 31.0877 55.2363C31.0877 55.2363 24.4401 57.1949 24.1828 52.6758C24.1828 52.6758 22.7941 47.6438 27.6722 47.7151C27.6722 47.7151 30.3827 47.5976 30.6224 50.069C30.6224 50.069 36.78 41.4225 48.267 36.3763C48.267 36.3763 59.2358 30.8671 67.3532 36.6256L67.3496 36.6291Z" fill="white"/>
<path d="M20.593 55.6673C20.593 55.6673 19.2588 60.3566 20.593 63.5623C20.593 63.5623 22.76 63.3448 24.2792 60.9556C24.2792 60.9556 23.3962 64.4752 24.6648 65.9943C24.6648 65.9943 27.4063 66.3509 29.8355 61.4121C29.8355 61.4121 29.6003 56.9047 31 55.054C31 55.054 23.5041 58.5344 22.8834 53L20.5968 55.6709L20.593 55.6673Z" fill="white"/>
<path d="M31.7279 69C31.7279 69 18.7983 70.3149 14.4652 82.3555C14.4652 82.3555 12.8788 86.6943 13.011 90.7791C13.011 90.7791 24.0642 90.6096 31.0522 91.7146C31.0522 91.7146 30.5088 103.402 41.2828 104.971L38.9547 115.928C38.9547 115.928 21.1338 121.479 15.016 104.507L13 122.845C13 122.845 24.7986 129.807 51.6015 125.707L66 122.845L63.7159 77.1068C63.7159 77.1068 59.056 75.8656 56.4304 75.5046C56.4304 75.5046 51.0728 80.7348 48.976 80.7348C48.976 80.7348 36.05 74.7569 31.7279 69Z" fill="#FFF080"/>
<path d="M14 102.371C14 102.371 22.9018 97.878 32.2364 98.0025C32.2364 98.0025 34.1209 104.076 42 104.733L39.5715 115.956C39.5715 115.956 26.3146 120.596 17.9414 110.312C17.9414 110.312 15.6279 108.117 14 102.371Z" fill="#FFF080"/>
<path d="M13.0241 91.033C13.0241 91.033 26.2851 90.7407 31.1267 91.8962C31.1267 91.8962 30.4856 95.5598 32 98.0645C32 98.0645 21.4582 98.2276 14.4574 102C14.4574 102 12.7809 95.5598 13.0241 91.033Z" fill="#FFBA57"/>
<path d="M64.5772 99C64.5772 99 71.244 96.4442 75.7066 89.9955C75.7066 89.9955 84.6976 87.9996 82.7142 83.425L77.0004 83.7259L78.0773 77.144C78.0773 77.144 73.9053 75.5594 70.5583 82.9032C70.5583 82.9032 66.2003 86.7236 64 86.0799L64.5772 99Z" fill="white"/>
<path d="M57.744 190.593L69.0201 189.675L67.3555 187.713C67.1456 187.469 67.1788 187.096 67.4292 186.889L70.3274 184.517C70.9939 183.972 71.8999 183.847 72.6842 184.194L83.8241 189.133C83.8241 189.133 87.4072 191.504 86.9616 195.736L58.4474 198.988C57.3831 199.109 56.4293 198.303 56.3483 197.211L56.0058 192.675C55.9248 191.61 56.7018 190.68 57.744 190.593Z" fill="#F8B3FF"/>
<path d="M8.46798 187.986L8.0077 192.948C7.92331 193.865 8.54086 194.707 9.46143 194.927L34.4894 200.918C36.4839 201.395 38.3327 199.715 37.9492 197.755C37.627 196.108 36.7601 194.133 34.7272 192.218L26.5955 184.45C26.1314 184.006 25.4333 183.876 24.8349 184.125L20.8496 185.776C20.2896 186.007 19.9482 186.566 20.0134 187.155L20.3126 189.971L10.428 186.745C9.51896 186.447 8.56004 187.054 8.47565 187.986H8.46798Z" fill="#F8B3FF"/>
<path d="M93.3089 81.504C94.7556 72.522 92.4678 64.6832 88.199 63.9956C83.9301 63.308 79.2968 70.032 77.85 79.0141C76.4033 87.9962 78.6911 95.835 82.9599 96.5226C87.2288 97.2101 91.8621 90.4861 93.3089 81.504Z" fill="white"/>
<path d="M93.7384 58.4663L90.8811 57.4991C90.1982 57.268 89.4571 57.6342 89.226 58.3171C88.9948 59 89.3611 59.741 90.044 59.9722L92.9013 60.9393C93.5842 61.1705 94.3252 60.8043 94.5564 60.1214C94.7876 59.4384 94.4213 58.6974 93.7384 58.4663Z" fill="#F8B3FF"/>
<path d="M93.0255 59.8544L90.5908 59.0303L89.3706 62.6351L91.8053 63.4592L93.0255 59.8544Z" fill="#F8B3FF"/>
<path d="M42.2213 104.881C42.2213 104.881 43.3601 100.274 47.7991 101.099C47.7991 101.099 48.9378 102.725 46.2295 105.305C46.2295 105.305 51.5675 102.65 54.9613 103.479C54.9613 103.479 55.6318 105.737 51.3914 108.569C51.3914 108.569 52.6201 111.063 50.4512 112.312C50.4512 112.312 50.4212 114.696 48.0238 115.092C48.0238 115.092 48.9341 117.629 44.4389 116.852C44.4389 116.852 40.648 116 40 114.523L42.2213 104.877V104.881Z" fill="white"/>
<path d="M45.8552 85L48 79.0442C48 79.0442 41.1586 76.9653 38.8793 74C38.8793 74 37.3552 74.771 37 76.3816C37 76.3816 39.5862 81.3465 45.8517 85H45.8552Z" fill="#FFBA57"/>
<path d="M50 78.7083L52.956 83C52.956 83 56.8403 80.8032 59 75.4902L56.8869 74C56.8869 74 51.3284 78.554 50 78.7113V78.7083Z" fill="#FFBA57"/>
<path d="M55.3733 94.9969L55.3173 94.2606L58.7072 94.0804C59.0843 94.0618 59.3792 93.9934 59.5883 93.8785C59.7974 93.7635 59.8982 93.5833 59.8758 93.341C59.8646 93.1826 59.8086 93.0552 59.7078 92.962C59.607 92.8688 59.4688 92.8036 59.2859 92.7694C59.1067 92.7352 58.8864 92.7228 58.6363 92.7383L56.9563 92.8284L56.904 92.1605L58.2032 92.0921C58.5392 92.0735 58.808 92.0051 59.0096 91.8902C59.2112 91.7752 59.3008 91.595 59.2822 91.3496C59.271 91.1818 59.215 91.0514 59.1179 90.9644C59.0208 90.8743 58.9014 90.8153 58.7558 90.7842C58.6102 90.7531 58.4608 90.7407 58.304 90.7469L55.056 90.9209L55 90.1846L58.3152 90.0075C58.752 89.9827 59.1216 90.0199 59.4203 90.1131C59.719 90.2063 59.9505 90.3461 60.1147 90.5294C60.279 90.7127 60.3723 90.9302 60.391 91.1756C60.4097 91.3962 60.3611 91.5888 60.2529 91.7566C60.1446 91.9244 59.999 92.0641 59.8161 92.1791C59.6331 92.294 59.4278 92.3779 59.2038 92.437C58.9798 92.496 58.7595 92.5302 58.5467 92.5426L58.5206 92.1977C58.7894 92.1822 59.0656 92.1853 59.3456 92.2071C59.6257 92.2257 59.887 92.2754 60.1259 92.3531C60.3649 92.4307 60.5665 92.5488 60.727 92.7135C60.8875 92.875 60.9771 93.0894 60.9958 93.3503C61.0294 93.776 60.8614 94.1177 60.4955 94.3724C60.1297 94.6272 59.5808 94.7732 58.8491 94.8136L55.3733 95V94.9969ZM56.3515 94.5371L56.0416 90.5419L57.1392 90.4828L57.4491 94.4781L56.3515 94.5371Z" fill="black"/>
<path d="M44 126.425C44 126.425 47.0382 131.939 47.1079 133C47.1079 133 59.4696 130.99 65 125.339L64.7288 123C64.7288 123 46.899 126.789 44.0037 126.425H44Z" fill="white"/>
<path d="M38.4343 134L42 126.479C42 126.479 28.3735 127.992 13.6175 123L13 124.579C13 124.579 28.991 133.013 38.4343 133.996V134Z" fill="white"/>
<path d="M17.4338 132.109L17.0166 134.589C16.9123 135.2 17.3079 135.792 17.9625 136.001L20.8504 136.925C21.5805 137.156 22.3825 136.838 22.6774 136.198L23.8895 133.563C24.2311 132.823 23.7492 131.99 22.8788 131.807L19.1961 131.035C18.3725 130.861 17.5597 131.356 17.4338 132.103V132.109Z" fill="white"/>
<path d="M11.8412 187.519C11.3692 187.519 10.9672 187.162 10.923 186.682C10.344 180.49 10.7754 171.308 11.0852 166.385C11.2807 163.265 11.5314 160.175 11.7859 157.682C12.1878 153.788 12.339 153.622 12.5677 153.371C12.741 153.179 13.0028 153.061 13.261 153.061C13.7699 153.061 14.1829 153.478 14.1792 153.987C14.1792 154.153 14.135 154.307 14.0575 154.44C13.5449 156.465 11.8154 176.445 12.7521 186.512C12.8 187.021 12.4275 187.468 11.9186 187.516C11.8891 187.516 11.8596 187.519 11.8301 187.519H11.8412ZM13.3458 154.901C13.32 154.901 13.2942 154.901 13.2684 154.905C13.2942 154.905 13.32 154.905 13.3458 154.901Z" fill="#241F20"/>
<path d="M22.3289 179.259C22.233 179.259 22.1371 179.244 22.0412 179.215C21.5581 179.056 21.2926 178.536 21.4512 178.053C23.2213 172.625 27.2557 158.372 27.2963 158.228C27.4364 157.737 27.9453 157.454 28.4358 157.594C28.9262 157.734 29.2102 158.243 29.0701 158.733C29.0295 158.877 24.984 173.163 23.2066 178.625C23.0812 179.016 22.7198 179.263 22.3289 179.263V179.259Z" fill="#241F20"/>
<path d="M57.7843 191.288C57.4413 191.288 57.1094 191.093 56.9509 190.765C54.5796 185.797 52.6915 177.448 51.5299 171.323C50.7776 167.37 50.2945 164.165 50.0732 162.609C49.4943 158.537 49.4979 158.32 50.158 157.981C50.6006 157.752 51.1611 157.933 51.4008 158.368C51.5151 158.574 51.5409 158.803 51.493 159.017C51.6073 161.123 54.4616 181.28 58.614 189.972C58.8316 190.433 58.6398 190.982 58.1789 191.2C58.0498 191.262 57.917 191.292 57.7806 191.292L57.7843 191.288Z" fill="#241F20"/>
<path d="M65.3245 183.316C64.8377 183.316 64.4284 182.932 64.4026 182.438C64.185 178.009 63.9268 171.544 63.7203 166.352C63.5396 161.776 63.3663 157.454 63.3184 157.055C63.3257 157.114 63.3737 157.413 63.6613 157.638L64.2255 156.908L64.8156 156.2C65.0418 156.389 65.2003 157.53 65.2913 159.622C65.365 161.315 65.4572 163.66 65.5605 166.282C65.767 171.471 66.0215 177.928 66.239 182.349C66.2649 182.858 65.8703 183.29 65.365 183.316C65.3503 183.316 65.3355 183.316 65.3208 183.316H65.3245Z" fill="#241F20"/>
<path d="M34.2864 202.341C34.0098 202.341 33.7332 202.308 33.4566 202.234L9.55642 196.12C7.9707 195.714 6.90863 194.183 7.08564 192.557L7.49867 188.703C7.60561 187.723 8.15877 186.878 9.01432 186.388C9.86988 185.897 10.8766 185.853 11.7764 186.259C16.1612 188.246 18.1783 189.013 19.0929 189.308C19.0413 188.958 18.9417 188.46 18.7647 187.796C18.4955 186.79 19.0265 185.742 19.9964 185.362L24.241 183.688C24.9896 183.393 25.8488 183.566 26.4241 184.127L35.4296 192.871C37.2624 194.652 38.0442 197.207 37.5205 199.708C37.3324 200.6 36.8051 201.36 36.0307 201.843C35.4959 202.175 34.8985 202.344 34.29 202.344L34.2864 202.341ZM9.33516 188.903L8.92213 192.756C8.84469 193.475 9.31672 194.158 10.0174 194.335L33.9176 200.449C34.3085 200.548 34.7141 200.486 35.0571 200.272C35.4001 200.058 35.6361 199.722 35.7172 199.328C36.1118 197.447 35.5217 195.529 34.1462 194.191L25.1408 185.447C25.0818 185.388 24.9933 185.373 24.9158 185.403L20.6712 187.077C20.5717 187.118 20.5164 187.221 20.5422 187.324C21.1617 189.648 21.0511 190.444 20.6897 190.92C20.1771 191.598 19.4211 191.488 16.4267 190.286C14.6639 189.577 12.5103 188.619 11.0131 187.94C10.6591 187.782 10.2645 187.8 9.92519 187.992C9.58592 188.184 9.36835 188.515 9.32778 188.906L9.33516 188.903Z" fill="#241F20"/>
<path d="M58.8808 199.464C58.0695 199.464 57.2877 199.184 56.6497 198.664C55.9195 198.063 55.4696 197.215 55.3811 196.274L55.064 192.9C54.9828 192.019 55.252 191.167 55.8273 190.496C56.4026 189.825 57.2065 189.426 58.0879 189.375L66.9237 188.855C65.9612 187.778 66.046 187.21 66.3411 186.771C66.4627 186.587 66.6951 186.24 70.5967 183.279C71.2863 182.755 72.2009 182.652 72.99 183.01L83.3599 187.715C86.2032 189.006 88.0434 191.857 88.0434 194.984V195.164C88.0434 195.673 87.6303 196.086 87.1214 196.086C86.6125 196.086 86.1995 195.673 86.1995 195.164V194.984C86.1995 192.583 84.7871 190.389 82.6003 189.397L72.2304 184.695C72.0607 184.618 71.8616 184.64 71.7141 184.754C69.8333 186.181 68.727 187.063 68.1997 187.516C68.5279 187.889 69.1327 188.453 69.7338 188.932C70.0325 189.172 70.1505 189.566 70.0362 189.932C69.9218 190.297 69.5936 190.551 69.2101 190.573L58.1985 191.222C57.8224 191.244 57.4757 191.414 57.2323 191.702C56.9853 191.989 56.871 192.354 56.9041 192.731L57.2213 196.105C57.2619 196.551 57.4794 196.957 57.8261 197.241C58.1727 197.525 58.6079 197.657 59.0578 197.613C73.6059 196.153 83.0944 195.187 84.0643 195.058C84.1344 195.039 84.2081 195.032 84.2856 195.032C84.776 195.032 85.1927 195.419 85.2185 195.909C85.2628 196.787 84.5658 196.861 83.6033 196.968C83.0907 197.023 82.3495 197.104 81.4386 197.196C79.6206 197.384 77.1203 197.643 74.4098 197.919C68.9852 198.472 62.6976 199.103 59.2459 199.45C59.1278 199.461 59.0061 199.468 58.8881 199.468L58.8808 199.464Z" fill="#241F20"/>
<path d="M19.0007 131.628C18.9638 131.628 18.927 131.628 18.8901 131.621C18.3849 131.558 18.0235 131.101 18.0862 130.595L18.4365 127.689C18.4992 127.184 18.9528 126.827 19.4617 126.886C19.9669 126.948 20.3283 127.405 20.2656 127.911L19.9153 130.817C19.86 131.285 19.4617 131.628 19.0007 131.628Z" fill="#241F20"/>
<path d="M22.7749 132.509C22.6716 132.509 22.5684 132.491 22.4651 132.457C21.9857 132.288 21.735 131.76 21.9046 131.281L22.5905 129.349C22.7601 128.869 23.2875 128.619 23.7669 128.788C24.2463 128.958 24.4971 129.485 24.3274 129.965L23.6415 131.897C23.5088 132.273 23.151 132.513 22.7712 132.513L22.7749 132.509Z" fill="#241F20"/>
<path d="M33.3343 160.19C33.2568 160.19 33.1794 160.179 33.0983 160.161L9.99092 154.072C9.57789 153.966 9.29394 153.589 9.305 153.162C9.59264 138.602 12.6129 124.287 12.6424 124.143C12.7493 123.645 13.2398 123.328 13.7377 123.435C14.2355 123.542 14.5526 124.032 14.4457 124.53C14.4162 124.67 11.5324 138.352 11.1673 152.476L32.7774 158.17L41.4399 136.032C41.6243 135.56 42.159 135.324 42.6347 135.508C43.1104 135.693 43.3428 136.228 43.1584 136.703L34.1972 159.604C34.0571 159.965 33.7104 160.19 33.338 160.19H33.3343Z" fill="#241F20"/>
<path d="M48.0582 160.19C47.671 160.19 47.3207 159.947 47.1879 159.574L41.0663 142.109C40.8966 141.63 41.1511 141.102 41.6305 140.933C42.1099 140.763 42.6373 141.018 42.8069 141.497L48.6778 158.25L65.8552 155.853C66.2055 140.298 64.5534 125.459 64.5387 125.308C64.4797 124.803 64.8448 124.345 65.35 124.286C65.8626 124.231 66.3125 124.592 66.3715 125.098C66.3899 125.253 68.1121 140.712 67.6806 156.679C67.6696 157.129 67.334 157.505 66.8878 157.568L48.1873 160.179C48.143 160.186 48.1025 160.186 48.0582 160.186V160.19Z" fill="#241F20"/>
<path d="M47.4506 133.952C47.056 133.952 46.702 133.702 46.5766 133.318C45.5773 130.265 43.5343 126.787 43.5158 126.75C43.2577 126.311 43.4015 125.747 43.8403 125.489C44.2792 125.231 44.8434 125.375 45.1015 125.813C45.1827 125.95 46.9565 128.97 48.0628 131.987C50.5041 131.518 58.3036 129.785 62.8285 125.954C63.2157 125.625 63.7984 125.673 64.1266 126.061C64.4548 126.448 64.4068 127.03 64.0196 127.359C58.2336 132.26 48.0222 133.875 47.5908 133.941C47.5428 133.949 47.4949 133.952 47.4506 133.952Z" fill="#241F20"/>
<path d="M38.6366 134.966C38.5849 134.966 38.5296 134.962 38.478 134.951C38.3231 134.925 34.6575 134.273 29.8487 132.842C23.3657 130.913 18.1807 128.597 14.445 125.953C14.0283 125.658 13.9324 125.083 14.2238 124.67C14.5188 124.253 15.0941 124.154 15.5071 124.449C22.9563 129.718 35.0263 132.385 38.076 132.997L41.0852 125.92C41.2844 125.452 41.8265 125.234 42.2948 125.433C42.7631 125.632 42.9807 126.174 42.7816 126.643L39.4811 134.405C39.3335 134.748 38.998 134.966 38.6329 134.966H38.6366Z" fill="#241F20"/>
<path d="M65.1242 87.4091C64.6338 87.4091 64.2244 87.0219 64.2023 86.524C64.1654 85.6537 65.0357 85.532 65.3639 85.4841C66.131 85.3735 67.9195 85.119 69.52 83.5923C69.8888 83.242 70.4715 83.253 70.8255 83.6218C71.1758 83.9906 71.1647 84.5732 70.796 84.9272C68.7677 86.8633 66.485 87.1915 65.6258 87.3132C65.5778 87.3206 65.5373 87.3243 65.5041 87.3316C65.4008 87.3796 65.2865 87.4054 65.1648 87.4128C65.1501 87.4128 65.139 87.4128 65.1279 87.4128L65.1242 87.4091ZM66.0462 86.4503C66.0499 86.583 66.0277 86.7121 65.9835 86.8301C66.0277 86.7195 66.0536 86.5941 66.0462 86.4503Z" fill="#241F20"/>
<path d="M71.8478 83.8175C71.7851 83.8175 71.7187 83.8101 71.656 83.7954C71.1582 83.6884 70.841 83.2016 70.9443 82.7038C71.3315 80.8784 73.1127 77.316 77.0844 76.9214C77.5933 76.8735 78.0432 77.2423 78.0948 77.7475C78.1464 78.2527 77.7777 78.7063 77.2688 78.7579C73.629 79.123 72.7587 83.0504 72.7476 83.091C72.6554 83.5262 72.2719 83.8212 71.8478 83.8212V83.8175Z" fill="#241F20"/>
<path d="M77.0294 90.7579C76.7012 90.7579 76.373 90.7321 76.0411 90.6731C75.5396 90.5846 75.204 90.1089 75.2925 89.6073C75.381 89.1058 75.8567 88.7702 76.3582 88.8587C78.4861 89.2238 80.7835 87.686 81.1043 87.4611C82.5831 86.0634 82.6532 85.3111 82.6163 85.0493C82.5942 84.8944 82.5131 84.7764 82.4282 84.6953C80.459 85.0862 77.778 85.1341 76.4467 85.1599C76.1812 85.1636 75.912 85.171 75.8124 85.1747C75.3847 85.2484 74.9495 85.0087 74.7946 84.5847C74.6176 84.1089 74.8647 83.5779 75.3404 83.4009C75.5248 83.3308 75.6281 83.3308 76.4136 83.3161C77.778 83.2903 80.6102 83.2386 82.4061 82.8145C82.6016 82.7666 82.8081 82.785 82.9925 82.8699C83.1178 82.9252 84.2168 83.4451 84.4344 84.7285C84.6446 85.9565 83.9328 87.3431 82.325 88.8477C82.2992 88.8698 82.2734 88.8919 82.2475 88.9141C82.1332 88.9989 79.7362 90.7616 77.0368 90.7616L77.0294 90.7579Z" fill="#241F20"/>
<path d="M65.5802 99.9072C65.5323 99.9072 65.4917 99.9035 65.4549 99.8925C65.0603 99.7929 64.7763 99.4463 64.7542 99.0406C64.7358 98.6903 64.9201 98.3584 65.2299 98.1887C65.3037 98.1482 65.3848 98.115 65.4659 98.0966C65.8863 97.9343 72.0375 95.4414 74.8586 90.6879C75.1204 90.2491 75.6846 90.1052 76.1235 90.3671C76.5623 90.6289 76.7061 91.1931 76.4443 91.632C74.7516 94.4826 72.0227 96.5661 70.035 97.8126C70.0018 97.8347 66.6091 99.9035 65.5802 99.9035V99.9072ZM65.8089 98.0855C65.9453 98.1076 66.0818 98.1592 66.1998 98.2404C66.0633 98.1482 65.9269 98.1039 65.8089 98.0855Z" fill="#241F20"/>
<path d="M83.9581 97.5728C83.7073 97.5728 83.4566 97.5544 83.2058 97.5138C80.5138 97.0824 78.4228 94.3313 77.4751 89.965C77.3681 89.4672 77.6816 88.9767 78.1794 88.8698C78.6809 88.7628 79.1677 89.0763 79.2747 89.5741C80.0417 93.107 81.6201 95.3934 83.4971 95.6958C85.1529 95.9613 87.0742 94.6927 88.7743 92.2183C90.6366 89.5078 92.0342 85.7094 92.7054 81.5238C94.033 73.2559 92.0564 65.7698 88.3908 65.1835C84.7178 64.5934 80.5101 71.0875 79.1825 79.3554C78.917 81.0149 78.7768 82.6707 78.7658 84.2712C78.7658 84.7801 78.3491 85.1857 77.8438 85.1857H77.8365C77.3276 85.1857 76.9182 84.769 76.9219 84.2564C76.933 82.5638 77.0805 80.8158 77.3607 79.0604C78.8985 69.4834 83.8696 62.591 88.6784 63.3581C93.4909 64.1288 96.0575 72.2344 94.5198 81.8115C93.8043 86.2626 92.3034 90.3264 90.2899 93.2582C88.3612 96.0682 86.1375 97.5728 83.9507 97.5728H83.9581Z" fill="#241F20"/>
<path d="M89.9075 96.6358C89.6383 96.6358 89.3764 96.5215 89.1921 96.2966C88.8712 95.902 88.9302 95.3193 89.3248 94.9985C92.1201 92.7194 94.4286 87.7152 95.3543 81.9439C96.2319 76.4713 95.6898 71.1462 93.9419 68.0448C93.6911 67.6023 93.8497 67.0381 94.2922 66.7873C94.7347 66.5365 95.2989 66.6951 95.5497 67.1376C97.5227 70.6373 98.1311 76.2832 97.176 82.2352C96.1803 88.4343 93.621 93.8737 90.4938 96.4256C90.3242 96.5658 90.1177 96.6321 89.9112 96.6321L89.9075 96.6358Z" fill="#241F20"/>
<path d="M89.0292 85.7091C88.808 85.7091 88.5867 85.6317 88.4097 85.4694L84.1061 81.5715C83.9143 81.3982 83.8037 81.1474 83.8037 80.8893V72.5919C83.8037 72.0829 84.2167 71.6699 84.7256 71.6699C85.2346 71.6699 85.6476 72.0829 85.6476 72.5919V80.4799L89.6488 84.105C90.0249 84.4479 90.0544 85.0306 89.7115 85.4067C89.5308 85.6059 89.28 85.7091 89.0292 85.7091Z" fill="#241F20"/>
<path d="M93.6803 62.3065C93.4369 62.3065 93.1898 62.2659 92.9464 62.1848L89.6681 61.0748C89.0854 60.8793 88.617 60.4663 88.3442 59.9168C88.0713 59.3673 88.0307 58.7441 88.2261 58.1615C88.4216 57.5788 88.8346 57.1105 89.3841 56.8376C89.9336 56.5647 90.5568 56.5241 91.1395 56.7196L94.4179 57.8296C95.6164 58.2352 96.2617 59.5407 95.8561 60.7429C95.5315 61.698 94.6354 62.3028 93.6766 62.3028L93.6803 62.3065ZM90.4019 58.4491C90.3134 58.4491 90.2433 58.4749 90.2028 58.497C90.1401 58.5265 90.0258 58.604 89.9741 58.7589C89.9225 58.9138 89.9668 59.0428 89.9963 59.1055C90.0258 59.1682 90.1032 59.2825 90.2581 59.3342L93.5365 60.4442C93.7725 60.5216 94.0306 60.3962 94.1118 60.1602C94.1929 59.9242 94.0638 59.6661 93.8278 59.5849L90.5494 58.4749C90.4978 58.4565 90.4499 58.4491 90.4056 58.4491H90.4019Z" fill="#241F20"/>
<path d="M91.8414 64.4492C91.7381 64.4492 91.6348 64.4308 91.5353 64.3976L89.5218 63.6858C89.046 63.5162 88.7953 62.9962 88.9575 62.5168L89.6767 60.4259C89.8426 59.9465 90.3663 59.6883 90.8494 59.8543C91.3324 60.0202 91.5869 60.5439 91.421 61.027L91.0005 62.255L91.2587 62.3472L91.657 61.1155C91.8119 60.6324 92.3318 60.3669 92.8186 60.5218C93.3017 60.6767 93.5672 61.1966 93.4123 61.6834L92.7227 63.8149C92.6453 64.0509 92.4756 64.2464 92.2544 64.357C92.1253 64.4197 91.9852 64.4529 91.845 64.4529L91.8414 64.4492Z" fill="#241F20"/>
<path d="M45.8521 86.2101C45.7267 86.2101 45.605 86.1843 45.487 86.1364C45.2215 86.0221 38.9818 83.2821 35.5707 76.9023C35.331 76.4524 35.5006 75.8955 35.9505 75.6558C36.4004 75.4161 36.9573 75.5858 37.197 76.0357C39.5866 80.4978 43.6136 83.0608 45.3616 84.0159L46.9289 80.0258C43.2817 79.1666 38.4102 75.2428 37.8054 74.745C37.4109 74.4204 37.3555 73.8415 37.6764 73.4469C38.0009 73.0523 38.5799 72.997 38.9745 73.3178C40.6782 74.7155 45.664 78.3442 48.2159 78.3442C48.522 78.3442 48.8059 78.4954 48.9793 78.7462C49.1526 78.9969 49.1858 79.3178 49.0752 79.6017L46.7076 85.6275C46.6154 85.8598 46.4347 86.0442 46.2024 86.1401C46.0881 86.188 45.9701 86.2101 45.8484 86.2101H45.8521Z" fill="#241F20"/>
<path d="M53.9565 85.7089C53.8716 85.7089 53.7868 85.6978 53.702 85.672C53.4586 85.6019 53.2558 85.436 53.1415 85.2147L50.0585 79.3328C49.9368 79.0968 49.9184 78.8202 50.0143 78.5731C50.1102 78.3261 50.3056 78.1306 50.5564 78.0384C50.5859 78.0273 53.8569 76.7809 56.3019 73.4767C56.6043 73.0673 57.1832 72.9788 57.5926 73.2849C58.0019 73.5873 58.0867 74.1663 57.7843 74.5756C55.8261 77.2197 53.4439 78.6838 52.1458 79.3402L54.2589 83.3709C55.0702 82.6112 56.3646 81.0955 57.3271 78.5104C57.5041 78.0347 58.0351 77.7876 58.5108 77.9683C58.9865 78.1454 59.2336 78.6764 59.0529 79.1521C57.3086 83.854 54.5391 85.5134 54.4211 85.5798C54.2773 85.6646 54.1187 85.7052 53.9565 85.7052V85.7089Z" fill="#241F20"/>
<path d="M49.5939 81.0071C48.3474 81.0071 47.5582 80.4319 47.5103 80.395C47.101 80.0889 47.0198 79.5136 47.3259 79.1043C47.6283 78.7023 48.1962 78.6138 48.6055 78.9088C48.6646 78.9494 49.5238 79.4989 50.8551 78.8314C51.3087 78.6027 51.8655 78.7871 52.0941 79.2407C52.3228 79.6943 52.1384 80.2512 51.6848 80.4798C50.903 80.8707 50.1987 81.0035 49.5976 81.0035L49.5939 81.0071Z" fill="#241F20"/>
<path d="M23.5442 50.9966C23.3487 50.9966 23.1533 50.9339 22.9873 50.8085C19.3844 48.0685 19.1189 42.4595 19.1115 42.2234C18.8239 34.0809 21.0587 27.5831 25.7494 22.9108C33.8366 14.8531 46.5114 14.9268 48.9711 15.019C58.9243 15.4063 64.0097 21.0042 66.5173 25.6323C69.2094 30.5923 69.5634 35.4011 69.5745 35.6003C69.5966 35.9248 69.4454 36.2346 69.1799 36.419C68.9144 36.6033 68.5714 36.6365 68.2764 36.5038C60.5248 33.0152 51.995 34.1141 42.9232 39.7748C36.0603 44.0562 31.4654 49.4735 31.4175 49.5252C31.0893 49.9124 30.5066 49.964 30.1194 49.6358C29.7285 49.3076 29.6806 48.7286 30.0051 48.3377C30.1969 48.1091 34.8065 42.6697 41.9054 38.2333C50.8371 32.6501 59.6545 31.2709 67.5241 34.2026C67.2217 32.4583 66.5026 29.4565 64.8615 26.4547C61.5389 20.3699 56.1659 17.1432 48.8937 16.8592C46.5704 16.7707 34.5926 16.697 27.0475 24.2162C22.7329 28.5161 20.6825 34.5493 20.948 42.1534C20.948 42.1976 21.1914 47.1281 24.101 49.3408C24.5067 49.6505 24.5841 50.2258 24.278 50.6315C24.0973 50.8712 23.8208 50.9966 23.5442 50.9966Z" fill="#241F20"/>
<path d="M53.1947 35.2466C52.8186 35.2466 52.4682 35.018 52.3318 34.6455C52.2691 34.4796 50.8604 30.5742 52.7153 27.7826C53.77 26.1932 55.6139 25.3229 58.1916 25.2012C58.5346 25.168 60.5849 25.05 62.1965 26.6247C63.7379 28.1293 64.3427 30.6222 63.9924 34.0333C63.9408 34.5386 63.4872 34.911 62.982 34.8557C62.4767 34.8041 62.108 34.3505 62.1596 33.8453C62.4435 31.0795 62.0158 29.0438 60.9242 27.9596C59.8437 26.8865 58.4239 27.0266 58.3649 27.034C58.3465 27.034 58.317 27.0377 58.2985 27.0377C56.3293 27.1262 54.9685 27.7163 54.2531 28.7931C52.9144 30.7992 54.0466 33.9743 54.0576 34.0075C54.231 34.4869 53.9876 35.0143 53.5082 35.1913C53.4049 35.2282 53.2943 35.2466 53.191 35.2466H53.1947Z" fill="#241F20"/>
<path d="M52.7005 32.8016C52.3502 32.8016 52.0146 32.6025 51.8597 32.2595C51.6495 31.7948 51.856 31.2491 52.317 31.0389C52.5493 30.9319 58.0293 28.4906 63.4207 30.3419C63.9038 30.5078 64.1583 31.0315 63.9923 31.5146C63.8264 31.9977 63.3027 32.2558 62.8196 32.0862C58.1325 30.4783 53.1283 32.6947 53.0766 32.7168C52.9549 32.7721 52.8259 32.7979 52.6968 32.7979L52.7005 32.8016Z" fill="#241F20"/>
<path d="M27.4863 56.7162C24.5915 56.7162 23.3303 55.1526 22.8029 54.061C21.9179 52.2245 22.1207 49.0383 23.7064 47.8361C25.0709 46.8036 26.4316 46.4606 27.7482 46.8183C30.2484 47.5005 31.517 50.5282 31.5686 50.6572C31.7604 51.1293 31.5355 51.6677 31.0671 51.8594C30.5951 52.0512 30.0604 51.8299 29.8649 51.3579C29.5957 50.7125 28.6037 48.9572 27.2577 48.5958C26.5091 48.3967 25.7125 48.6253 24.8201 49.3038C24.2669 49.7242 23.7248 51.7267 24.4624 53.2608C25.3991 55.2005 27.8256 55.0383 29.699 54.5625C30.1894 54.4335 30.6947 54.7359 30.82 55.23C30.9454 55.7242 30.6467 56.2257 30.1526 56.3511C29.1347 56.6092 28.2497 56.7199 27.4826 56.7199L27.4863 56.7162Z" fill="#241F20"/>
<path d="M15.2796 59.8835C15.1505 59.8835 15.0251 59.8798 14.8998 59.8687C13.1776 59.7139 12.44 58.5707 12.3589 58.4416C12.3147 58.3678 12.2815 58.2904 12.2593 58.2093C10.3749 51.3759 19.9372 45.494 20.3428 45.2469C20.778 44.9851 21.3459 45.1215 21.6077 45.5567C21.8733 45.9918 21.7331 46.5597 21.298 46.8215C21.2095 46.8732 12.6908 52.1208 13.9926 57.5528C14.1216 57.6893 14.4757 57.9917 15.121 58.0323C16.1794 58.106 18.5801 57.4975 22.8026 52.7109C23.1382 52.3273 23.7245 52.2941 24.1043 52.6297C24.4879 52.9653 24.5211 53.548 24.1855 53.9315C20.7006 57.8811 17.7061 59.8835 15.2796 59.8835Z" fill="#241F20"/>
<path d="M27.6746 23.3123C27.3796 23.3123 27.0883 23.1722 26.9113 22.9067C26.7896 22.7223 25.7238 21.0665 26.2069 19.289C26.4946 18.2306 27.2505 17.4009 28.4564 16.8256C29.5443 16.3019 32.0225 16.0106 33.5713 18.6621C33.8295 19.1009 33.6783 19.6651 33.2394 19.9233C32.8006 20.1814 32.2364 20.0339 31.9782 19.5914C30.9493 17.8286 29.5185 18.3671 29.2456 18.4924C28.5486 18.828 28.1356 19.2447 27.9881 19.7684C27.7595 20.5871 28.2389 21.5717 28.4454 21.8815C28.7256 22.3056 28.6113 22.8772 28.1872 23.1574C28.0287 23.2607 27.8516 23.3123 27.6746 23.3123Z" fill="#241F20"/>
<path d="M25.2161 67.1339C25.1718 67.1339 25.146 67.1339 25.1386 67.1339C24.8252 67.1118 24.5449 66.9348 24.3937 66.6582C23.8664 65.703 23.6636 64.652 23.6119 63.7264C21.8898 64.936 20.824 64.3423 20.5806 64.169C20.4331 64.0657 20.3188 63.9182 20.2524 63.7486C19.1608 60.9496 20.1639 55.8273 20.2082 55.6097C20.3077 55.1119 20.7908 54.7837 21.2923 54.8869C21.7902 54.9865 22.1147 55.4733 22.0151 55.9711C21.7717 57.1954 21.3108 60.566 21.816 62.5832C22.1737 62.4947 22.8965 62.1444 23.9881 60.8168C24.261 60.4849 24.7256 60.389 25.1091 60.5771C25.4927 60.7689 25.6955 61.1966 25.5959 61.617C25.5922 61.6355 25.1608 63.542 25.7471 65.1831C26.3187 64.9766 27.296 64.3681 28.1737 62.5759C28.3986 62.1186 28.9518 61.9305 29.4054 62.1518C29.8626 62.3767 30.0507 62.9262 29.8294 63.3835C28.0851 66.9458 25.6881 67.1265 25.2161 67.1265V67.1339Z" fill="#241F20"/>
<path d="M53.217 68.5571C51.7824 68.5571 50.6282 67.4876 50.1119 66.7353C50.0308 66.6173 49.9754 66.4809 49.957 66.3371C49.6435 64.0212 49.9902 62.5387 51.0228 61.8048C52.1143 61.0304 53.4235 61.5061 53.8217 61.6831C55.3817 62.074 56.1598 62.1072 56.5212 62.0777C56.488 62.0261 56.4548 61.9782 56.429 61.945C56.4179 61.9302 56.4068 61.9192 56.3958 61.9044C55.6361 60.894 55.3853 59.9942 55.6509 59.2345C55.8832 58.5633 56.4658 58.1909 56.8973 58.0765C57.0043 58.047 57.1149 58.0397 57.2218 58.047C58.7412 58.1909 59.2206 57.859 59.3312 57.752C59.3533 57.7299 59.4087 57.7336 59.4087 57.7004C59.4087 57.6635 59.4087 57.6266 59.4087 57.5898C59.523 56.0852 57.8709 51.8295 57.491 51.2395C57.1776 50.8818 57.1886 50.3397 57.5242 49.993C57.8782 49.6279 58.4609 49.6169 58.826 49.9709C59.4787 50.6015 61.3779 55.6943 61.2488 57.6967C61.2451 57.9327 61.1677 58.5449 60.5998 59.087C59.936 59.7176 58.8629 59.9942 57.4025 59.9093C57.4173 60.0274 57.5021 60.3039 57.8561 60.7796C58.0737 61.0452 58.8739 62.133 58.2618 63.1066C57.6533 64.0765 56.1671 64.1797 53.2833 63.4496C53.217 63.4348 53.1543 63.409 53.0953 63.3795C52.8924 63.2799 52.3466 63.1214 52.0885 63.3094C51.8009 63.5159 51.5722 64.2904 51.7529 65.8466C52.0369 66.1822 52.7744 66.9197 53.5747 66.6505C54.0578 66.4919 54.5814 66.7501 54.74 67.2332C54.9022 67.7163 54.6404 68.2399 54.1573 68.3985C53.8328 68.5054 53.5157 68.5534 53.2133 68.5534L53.217 68.5571ZM57.5058 51.2505C57.5058 51.2505 57.5353 51.2801 57.5464 51.2911C57.5316 51.2764 57.5169 51.2616 57.5058 51.2505Z" fill="#241F20"/>
<path d="M47.3829 53.9685C45.7972 53.9685 43.5772 53.3084 42.8839 50.9188C42.8728 50.8856 42.8654 50.8524 42.8617 50.8192C42.8396 50.6864 42.3123 47.5039 44.1377 45.59C45.1813 44.4947 46.7191 44.0596 48.7105 44.2993C49.0129 44.3288 50.5728 44.5611 51.8266 46.4197C52.1106 46.8401 51.9999 47.4154 51.5795 47.6994C51.1591 47.9833 50.5838 47.8727 50.2999 47.4523C49.4886 46.2538 48.574 46.1395 48.5372 46.1321C47.1174 45.9588 46.0996 46.2022 45.4726 46.8586C45.2993 47.043 45.1555 47.2532 45.0449 47.4744C46.5863 46.9397 48.633 46.9028 50.3478 48.4001C51.1591 49.1081 51.5168 50.266 51.2587 51.3429C50.9674 52.5561 49.9569 53.467 48.4892 53.8395C48.1942 53.9132 47.8144 53.9612 47.3866 53.9612L47.3829 53.9685ZM44.6724 50.4578C45.3215 52.5229 48.0061 52.0657 48.0319 52.0583C48.8285 51.8555 49.3374 51.4535 49.4628 50.9188C49.5587 50.5131 49.4222 50.0485 49.1309 49.7903C47.3497 48.2341 45.2624 49.2962 44.6208 49.7571C44.6282 50.0964 44.6577 50.3545 44.6724 50.4541V50.4578Z" fill="#241F20"/>
<path d="M65.2313 52.4717C63.6456 52.4717 61.4256 51.8116 60.7286 49.422C60.7175 49.3888 60.7101 49.3556 60.7065 49.3224C60.6843 49.1897 60.157 46.0108 61.9824 44.0932C63.026 42.9943 64.5675 42.5628 66.5552 42.8025C66.8576 42.832 68.4175 43.0643 69.6713 44.923C69.9553 45.3434 69.8447 45.9186 69.4243 46.2026C69.0002 46.4866 68.4286 46.3759 68.1446 45.9555C67.3333 44.757 66.4188 44.6427 66.3819 44.6353C64.9621 44.462 63.9406 44.7054 63.3174 45.3618C63.1404 45.5462 63.0002 45.7564 62.8896 45.9776C64.4311 45.4429 66.4778 45.406 68.1926 46.9033C69.0039 47.615 69.3616 48.7693 69.1034 49.8498C68.8121 51.063 67.8017 51.9702 66.3339 52.3464C66.0389 52.4201 65.6591 52.4681 65.235 52.4681L65.2313 52.4717ZM62.5171 48.961C63.1662 51.0261 65.8508 50.5689 65.8767 50.5615C66.6732 50.3587 67.1821 49.9567 67.3075 49.422C67.4034 49.0163 67.2669 48.5517 66.9756 48.2935C65.1944 46.7336 63.1072 47.7994 62.4655 48.2604C62.4729 48.5996 62.5024 48.8578 62.5171 48.9573V48.961Z" fill="#241F20"/>
<path d="M32.4783 117.475C28.6209 117.475 25.2245 116.524 22.3297 114.632C15.4041 110.096 13.8921 101.821 13.7852 101.183C11.5984 91.2111 12.465 83.1202 16.3592 77.1387C20.8546 70.2353 27.7064 68.7786 27.9977 68.7196C28.4956 68.6163 28.9823 68.9409 29.0856 69.4387C29.1889 69.9366 28.8643 70.4233 28.3665 70.5266C28.3038 70.5413 21.9461 71.9169 17.8896 78.175C14.2867 83.7287 13.516 91.3438 15.5959 100.81C15.5996 100.829 15.6032 100.843 15.6069 100.862C15.618 100.939 16.9898 108.934 23.3622 113.098C27.404 115.738 32.6037 116.317 38.8249 114.824L40.4991 106.773C40.6024 106.275 41.0929 105.955 41.5907 106.058C42.0885 106.161 42.4094 106.648 42.3061 107.149L40.5139 115.764C40.4438 116.107 40.182 116.38 39.8427 116.468C37.2355 117.14 34.7795 117.475 32.4894 117.475H32.4783Z" fill="#241F20"/>
<path d="M41.9412 105.527C41.9043 105.527 41.8674 105.527 41.8305 105.519C37.8773 105.051 34.9124 103.469 33.0095 100.828C29.6389 96.1376 30.9075 89.8427 30.9628 89.5772C31.0661 89.0793 31.5565 88.7622 32.0544 88.8654C32.5522 88.9687 32.873 89.4592 32.7661 89.957C32.755 90.016 31.6155 95.7394 34.5104 99.7627C36.0961 101.964 38.6296 103.284 42.0444 103.69C42.5497 103.749 42.9111 104.21 42.852 104.715C42.7967 105.184 42.3985 105.53 41.9375 105.53L41.9412 105.527Z" fill="#241F20"/>
<path d="M14.9841 103.218C14.5748 103.218 14.1986 102.941 14.0917 102.528C14.0216 102.256 14.0843 101.949 14.254 101.724C14.8809 100.895 24.2182 97.314 32.5156 97.1038C32.523 97.1038 32.5304 97.1038 32.5377 97.1038C33.0356 97.1038 33.4449 97.502 33.4597 98.0036C33.4744 98.5125 33.0688 98.9366 32.5599 98.9476C24.7972 99.1431 16.7137 102.326 15.6332 102.949C15.5225 103.059 15.3787 103.148 15.2128 103.189C15.1353 103.207 15.0579 103.218 14.9804 103.218H14.9841Z" fill="#241F20"/>
<path d="M31.6646 92.2541C31.5982 92.2541 31.5355 92.2468 31.4691 92.232C27.9768 91.4723 21.7483 91.1441 13.934 91.3101C13.7164 91.3138 13.5799 91.3138 13.5357 91.3175C13.0268 91.3138 12.6174 90.8971 12.6211 90.3882C12.6248 89.8829 13.0378 89.4736 13.5431 89.4736C13.5431 89.4736 13.5504 89.4736 13.5541 89.4736C13.5984 89.4736 13.7127 89.4736 13.8934 89.4662C21.8478 89.2966 28.2276 89.6395 31.86 90.4324C32.3579 90.5393 32.675 91.0298 32.5644 91.5277C32.4722 91.9591 32.0887 92.2541 31.6646 92.2541Z" fill="#241F20"/>
<path d="M35.5918 127.591C26.3614 127.591 18.8348 126.163 13.1225 123.328C12.7869 123.162 12.5878 122.808 12.6136 122.435C12.6209 122.336 13.3696 112.202 14.6492 104C14.7266 103.495 15.1987 103.152 15.7002 103.233C16.2017 103.311 16.5484 103.783 16.4672 104.284C15.3831 111.243 14.6824 119.621 14.498 121.945C23.9828 126.396 37.3988 126.127 47.0717 125.094C56.0514 124.139 63.5227 122.369 65.8017 121.794C65.6874 119.363 65.3186 111.394 64.9536 103.425C64.736 98.6456 64.5184 93.8663 64.3635 90.2782C64.2861 88.4822 64.2234 86.9887 64.1791 85.9414C64.157 85.414 64.1423 85.001 64.1349 84.7171C64.1201 84.2045 64.098 83.5038 64.8724 83.3526C65.3223 83.2678 65.7685 83.5185 65.9197 83.9463C65.9677 84.0754 65.9824 84.2081 65.9714 84.3372C65.9824 85.8123 67.2068 112.272 67.6825 122.454C67.7009 122.885 67.4207 123.272 67.0039 123.387C66.9154 123.409 58.2013 125.758 47.3004 126.919C43.1406 127.362 39.2316 127.583 35.5918 127.587V127.591Z" fill="#241F20"/>
<path d="M21.1942 138.462C20.925 138.462 20.6484 138.418 20.3792 138.318L17.4217 137.26C16.3412 136.873 15.681 135.77 15.8507 134.634L16.2785 131.791C16.378 131.127 16.7542 130.533 17.3073 130.157C17.8605 129.781 18.5575 129.652 19.2065 129.807L22.9828 130.692C23.6724 130.854 24.2513 131.308 24.5759 131.935C24.9004 132.562 24.9299 133.299 24.6607 133.952L23.4179 136.972C23.0344 137.898 22.142 138.466 21.1942 138.466V138.462ZM18.1039 132.067L17.6761 134.911C17.6355 135.176 17.7904 135.434 18.0449 135.526L21.0061 136.585C21.2901 136.688 21.6035 136.548 21.7179 136.268L22.9606 133.247C23.0455 133.037 22.9864 132.86 22.9422 132.775C22.8979 132.691 22.791 132.536 22.5697 132.484L18.7935 131.603C18.5833 131.555 18.4247 131.632 18.3473 131.684C18.2698 131.735 18.1371 131.854 18.1039 132.067Z" fill="#241F20"/>
<path d="M45.1515 116.996C44.1844 116.996 42.5365 116.734 40.4242 115.396C40.0122 115.134 39.876 114.569 40.1239 114.129C40.3718 113.693 40.906 113.549 41.3215 113.811C43.9679 115.485 45.6508 115.104 45.6682 115.101C45.7206 115.086 45.7869 115.079 45.8428 115.075C46.7087 115.038 46.7645 114.879 46.8832 114.524C47.0054 114.162 47.2359 113.486 48.0389 113.272C48.9187 113.035 48.8419 111.982 48.8175 111.775C48.7651 111.339 49.013 110.918 49.4075 110.777C50.1302 110.522 50.235 110.16 50.2489 110.06C50.235 109.979 50.2489 109.972 50.2594 109.876C50.3048 109.528 50.029 109.041 49.8858 108.856C49.7287 108.656 49.6589 108.394 49.6903 108.135C49.7252 107.877 49.8579 107.644 50.0604 107.5C52.5986 105.667 53.1887 104.521 53.2585 104.093C52.2006 104.052 48.8593 104.813 46.0837 105.634C45.6857 105.752 45.2632 105.556 45.0747 105.168C44.8862 104.78 44.9769 104.303 45.2981 104.026C46.5795 102.921 46.6633 102.312 46.6598 102.149C46.6598 102.057 46.6214 101.99 46.5865 101.95C45.0084 101.429 43.9051 102.962 43.748 103.195C43.6537 103.435 43.4652 103.631 43.2138 103.72C42.7564 103.882 42.2606 103.616 42.1105 103.132C42.0337 102.892 41.894 102.441 42.924 101.392C44.2053 100.083 45.8079 99.6733 47.3162 100.265C47.3685 100.283 47.4174 100.309 47.4628 100.338C47.5501 100.394 48.3217 100.919 48.395 102.005C48.4194 102.371 48.3601 102.748 48.2134 103.132C53.4435 101.787 54.1628 102.378 54.4211 102.589C54.7353 102.866 55.0321 103.394 54.9972 104.115C54.9378 105.416 53.8625 106.86 51.7153 108.523C51.8969 108.941 52.0435 109.473 51.9876 110.049C51.9911 110.659 51.6839 111.638 50.5597 112.263C50.4898 113.279 50.022 114.594 48.5626 115.038C48.5486 115.075 48.5347 115.119 48.5207 115.156C48.2274 116.017 47.7142 116.826 45.9859 116.922C45.8358 116.956 45.5495 117 45.148 117L45.1515 116.996Z" fill="#241F20"/>
</g>
<defs>
<clipPath id="clip0_2045_99884">
<rect width="100" height="210" fill="white"/>
</clipPath>
</defs>
</svg>
