<svg width="100" height="210" viewBox="0 0 100 210" fill="none" xmlns="http://www.w3.org/2000/svg">
<path d="M81.8575 85.7487C81.8575 85.7487 91.0403 96.1487 82.836 114.642C82.836 114.642 86.964 115.482 86.964 118.033C86.964 118.033 85.6422 119.133 84.4089 119.251C84.4089 119.251 87.0083 120.783 86.5468 122.134C86.5468 122.134 85.4317 123.734 83.7148 123.655C83.7148 123.655 85.0625 124.322 84.7634 125.136C84.7634 125.136 83.2163 126.621 80.4102 125.918L81.8575 85.7451V85.7487Z" fill="white"/>
<path d="M71.126 43.0672L67.5526 42.8942C64.6381 42.7531 62.1582 44.9446 62.0136 47.7891L61.537 57.165C61.3924 60.0095 63.6379 62.4298 66.5524 62.5709L70.1259 62.7439C73.0404 62.885 75.5203 60.6935 75.6649 57.849L76.1415 48.4731C76.286 45.6286 74.0406 43.2083 71.126 43.0672Z" fill="#67A9F9"/>
<path d="M68.1663 37.036C68.1663 37.036 76.2303 72.5928 49.8118 75.2054L35.6407 74.9027C35.6407 74.9027 32.2106 62.218 31.8672 47.5261C31.8672 47.5261 42.7595 34.3802 58.6733 35.7063C58.6733 35.7063 62.5613 35.3351 68.1626 37.036H68.1663Z" fill="white"/>
<path d="M26.9246 44.6102C26.9246 44.6102 27.1683 19.5976 52.1172 19.7778C52.1172 19.7778 54.4914 19.4642 58.6784 20.9633C58.6784 20.9633 54.9861 14.3796 41.4243 16.8985C41.4243 16.8985 23.3578 21.0138 22.084 45.0318L26.9209 44.6102H26.9246Z" fill="#67A9F9"/>
<path d="M31.8713 47.5253C31.8713 47.5253 47.2904 28.9992 69.3704 38.4262C69.3704 38.4262 71.0688 25.9577 59.9587 21.5253C59.9587 21.5253 48.7821 15.3956 35.0245 25.6334C35.0245 25.6334 27.6288 32.0622 26.9199 44.61L31.8676 47.5253H31.8713Z" fill="#F8B3FF"/>
<path d="M74.0781 151.976L30.2541 153.133C27.4332 153.208 25.0332 151.136 24.7637 148.394L18.136 80.8047C17.8406 77.7777 20.2369 75.1399 23.3495 75.0678L76.4338 73.8101C79.5317 73.738 82.0461 76.2281 81.9317 79.248L79.2954 146.938C79.1883 149.698 76.9027 151.904 74.0744 151.979L74.0781 151.976Z" fill="white"/>
<path d="M53.7559 156.481L56.9792 171.919L66.4094 171.112L67.3989 155.277L53.7559 156.481Z" fill="white"/>
<path d="M35.2168 157.202L39.33 173.432L48.5276 172.499V156.232L35.2168 157.202Z" fill="white"/>
<path d="M74.6075 151.807L75.4161 156.232L67.0309 156.47L67.0899 157.201H59.0518V157.897L51.5675 158.102L51.4124 157.338L44.2493 157.702L44.3342 158.531L37.2413 158.744V158.102L28.3613 158.744L28.4979 152.61L74.6075 151.807Z" fill="#2BE6AE"/>
<path d="M53.7559 172.192L68.7872 170.909V183.464C68.7872 183.464 78.3983 180.797 77.4642 187.713C77.4642 187.713 76.6592 194.012 74.3183 196.841H59.2574L53.7559 172.188V172.192Z" fill="#FFF080"/>
<path d="M34.6973 173.901L51.0911 172.239L51.5527 186.218C51.5527 186.218 59.5391 181.929 62.6923 185.364C62.6923 185.364 66.1262 187.929 61.5736 198.538H39.2831L34.6973 173.901Z" fill="#FFF080"/>
<path d="M26.9016 44.6102L23.3265 44.7467C20.4107 44.858 18.1393 47.2552 18.2534 50.1011L18.6293 59.4813C18.7434 62.3271 21.1996 64.5439 24.1155 64.4325L27.6906 64.2961C30.6065 64.1847 32.8778 61.7875 32.7638 58.9417L32.3878 49.5615C32.2738 46.7156 29.8175 44.4989 26.9016 44.6102Z" fill="#67A9F9"/>
<path d="M27.0172 64.322L24.728 67.7778L25.8726 68.6499L24.3477 70.3904L25.6843 72.2895L24.5729 73.8067L34.4757 73.6733L35.7901 72.0013L34.4757 70.358L36.0153 68.6859L34.5089 67.6085L36.0153 64.8805L32.7698 60.8301L30.3772 63.4679L27.0172 64.322Z" fill="#FFF080"/>
<path d="M69.8727 62.9567L67.6536 66.6972L68.8389 67.9657L67.4062 69.1945L68.8389 71.5296L67.7496 72.5927H74.2887L75.4001 71.3134L73.6093 69.4396L75.4001 67.5405L73.9121 66.6612L75.8062 63.9657L73.9379 61.7314L69.8727 62.9567Z" fill="#FFF080"/>
<path d="M52.6817 92.5166C52.6817 92.5166 73.4509 109.133 68.1931 120.589C68.1931 120.589 65.2651 127.335 56.6583 123.245L58.2423 131.439H49.2515L50.806 123.468C50.806 123.468 42.0146 129.886 37.5691 121.234C37.5691 121.234 34.9919 115.205 39.7143 108.704C39.7143 108.704 47.7414 96.2355 52.678 92.5166H52.6817Z" fill="#F8B3FF"/>
<path d="M37.3444 101.173L50.8028 103.944C50.8028 103.944 48.9567 111.796 41.8564 110.874C41.8564 110.874 36.4582 109.746 37.3444 101.173Z" fill="white"/>
<path d="M19.0112 93.2051C19.0112 93.2051 9.48875 100.791 14.418 113.472C14.418 113.472 18.354 124.124 31.3583 123.054C31.3583 123.054 36.4795 125.865 39.0088 124.535C39.0088 124.535 39.3041 123.645 39.0863 122.578C39.0863 122.578 40.3601 121.688 40.7441 121.032C40.7441 121.032 40.9435 119.983 40.0537 119.256C40.0537 119.256 41.5491 117.14 40.9841 116.517C40.9841 116.517 39.4555 115.111 38.6506 115.039C38.6506 115.039 40.4894 112.373 39.5257 111.785C39.5257 111.785 37.4654 110.614 33.1306 112.578C33.1306 112.578 27.4297 113.623 20.0561 102.809L19.0149 93.2051H19.0112Z" fill="white"/>
<path d="M34.8927 46.6606L42.414 45.1796L42.8349 42.8372H45.9955L46.889 40.3688L49.0823 40.7832L50.6515 36.2246C50.6515 36.2246 40.3721 37.9399 33.918 46.657H34.8964L34.8927 46.6606Z" fill="#FFF080"/>
<path d="M24.4588 89.4252L24.3406 88.391L28.3985 87.9513C28.8489 87.9009 29.196 87.7928 29.4434 87.6198C29.6908 87.4468 29.7941 87.191 29.7535 86.8486C29.7277 86.6252 29.6501 86.4522 29.5246 86.3261C29.3991 86.2 29.2255 86.1171 29.004 86.0775C28.7861 86.0378 28.524 86.0342 28.2212 86.0667L26.2126 86.2865L26.1055 85.3495L27.66 85.1802C28.0625 85.1369 28.3837 85.0288 28.6126 84.8522C28.8452 84.6757 28.9412 84.4198 28.9006 84.0775C28.8748 83.8396 28.7972 83.6631 28.6754 83.5441C28.5535 83.4252 28.4058 83.3459 28.2286 83.3099C28.0551 83.2739 27.8705 83.2631 27.6821 83.2847L23.7978 83.7063L23.6797 82.6721L27.6452 82.2396C28.1695 82.182 28.6126 82.2108 28.9781 82.3297C29.3437 82.445 29.628 82.6288 29.8385 82.8811C30.0489 83.1297 30.1708 83.4288 30.2114 83.7784C30.2483 84.0883 30.204 84.3622 30.0858 84.6036C29.9677 84.845 29.8015 85.0504 29.5911 85.2198C29.3769 85.3892 29.1406 85.5225 28.8748 85.6162C28.6089 85.7099 28.3505 85.7748 28.0957 85.8L28.0403 85.3171C28.3652 85.2811 28.6938 85.2703 29.0335 85.2847C29.3732 85.2991 29.6871 85.3532 29.9825 85.4468C30.2742 85.5405 30.5252 85.6991 30.7246 85.9189C30.924 86.1387 31.0495 86.4342 31.0902 86.8018C31.1566 87.4 30.9794 87.8865 30.5585 88.2649C30.1338 88.6432 29.484 88.8811 28.6126 88.9748L24.4551 89.4252H24.4588ZM25.6034 88.7225L24.9646 83.1189L26.2754 82.9748L26.9141 88.5784L25.6034 88.7225Z" fill="black"/>
<path d="M67.5764 146.106L67.5321 145.064L71.6121 144.891C72.0663 144.873 72.4207 144.783 72.6792 144.628C72.9377 144.473 73.0595 144.221 73.041 143.879C73.03 143.655 72.9672 143.475 72.849 143.342C72.7309 143.208 72.5647 143.115 72.3469 143.061C72.1327 143.006 71.8706 142.985 71.5678 142.999L69.5481 143.086L69.5075 142.145L71.0693 142.08C71.4755 142.062 71.8004 141.976 72.0441 141.817C72.2878 141.659 72.4023 141.406 72.3875 141.064C72.3764 140.826 72.3137 140.642 72.1992 140.516C72.0847 140.39 71.9444 140.3 71.7709 140.253C71.5973 140.206 71.4164 140.185 71.2281 140.192L67.3217 140.358L67.2773 139.316L71.265 139.147C71.793 139.125 72.2324 139.183 72.5906 139.324C72.945 139.464 73.2183 139.666 73.4103 139.929C73.6023 140.192 73.7057 140.498 73.7204 140.848C73.7352 141.158 73.6724 141.432 73.5395 141.666C73.4029 141.9 73.2257 142.095 73.0004 142.25C72.7789 142.405 72.5278 142.52 72.2583 142.599C71.9887 142.679 71.7229 142.722 71.4644 142.733L71.4423 142.246C71.7672 142.232 72.0995 142.246 72.4355 142.279C72.7715 142.315 73.0853 142.387 73.3697 142.502C73.654 142.617 73.894 142.79 74.0786 143.024C74.2669 143.259 74.3666 143.561 74.385 143.929C74.4109 144.531 74.2004 145.006 73.7537 145.356C73.3032 145.706 72.6423 145.9 71.7598 145.936L67.5801 146.113L67.5764 146.106ZM68.7653 145.482L68.518 139.846L69.8361 139.792L70.0835 145.428L68.7653 145.482Z" fill="black"/>
<path d="M37.5684 106.222H49.8933C49.8933 106.222 47.0059 112.651 39.9942 110.088C39.9942 110.088 37.7973 107.764 37.5721 106.222H37.5684Z" fill="#FF6A2F"/>
<path d="M20.1484 104.618C19.6832 104.618 19.2807 104.275 19.2327 103.811L16.8069 81.4357C16.6186 79.688 17.1872 77.9222 18.3724 76.5997C19.5577 75.2736 21.2672 74.4808 23.069 74.4267L36.7306 74.0051C37.2475 73.9943 37.6684 74.3799 37.6832 74.8772C37.698 75.3745 37.2992 75.7889 36.7897 75.8069L23.1281 76.2285C21.821 76.2682 20.6247 76.8231 19.7644 77.7853C18.9041 78.7474 18.5054 79.9799 18.6457 81.2483L21.0715 103.623C21.1269 104.117 20.7577 104.56 20.2518 104.614C20.2186 104.614 20.1854 104.618 20.1521 104.618H20.1484Z" fill="black"/>
<path d="M82.8369 115.543C82.7114 115.543 82.5822 115.518 82.4603 115.464C81.9951 115.262 81.7846 114.729 81.9951 114.275C90.0222 96.7254 80.9206 86.0804 80.8283 85.9759C80.496 85.5975 80.5403 85.0281 80.928 84.7038C81.312 84.3795 81.8954 84.4227 82.2314 84.8011C82.6412 85.266 92.1859 96.4263 83.6862 115.01C83.5311 115.345 83.1951 115.543 82.8443 115.543H82.8369Z" fill="black"/>
<path d="M81.5448 126.949C81.0427 126.949 80.6439 126.92 80.4704 126.906C79.9609 126.862 79.5842 126.43 79.6285 125.933C79.6692 125.439 80.1159 125.071 80.6255 125.111C81.9658 125.219 83.4427 125.068 83.8673 124.794C83.8045 124.697 83.6864 124.581 83.4612 124.516C83.055 124.401 82.7818 124.03 82.7965 123.616C82.815 123.201 83.1178 122.852 83.535 122.769C84.4285 122.589 85.4181 122.232 85.6101 122.019C85.6138 122.012 85.7061 121.857 85.6507 121.702C85.6175 121.608 85.4439 121.284 84.5725 120.949C84.5504 120.942 84.5282 120.931 84.5024 120.92C83.9965 120.679 83.4796 120.185 83.5387 119.518C83.6236 118.567 84.7461 118.25 85.1153 118.149C85.5473 118.019 85.9941 117.731 86.0384 117.594C86.0384 117.594 86.0125 117.464 85.7615 117.219C85.7504 117.208 84.7572 116.257 83.391 116.016C82.8888 115.925 82.5565 115.457 82.6489 114.967C82.7412 114.477 83.2175 114.152 83.7233 114.243C85.6765 114.589 87.0205 115.893 87.0759 115.951C87.9325 116.79 87.9621 117.551 87.8328 118.041C87.6002 118.934 86.7252 119.45 86.1381 119.702C86.8101 120.106 87.2421 120.603 87.423 121.194C87.7036 122.095 87.2753 122.826 87.1609 122.999C86.8581 123.471 86.2156 123.825 85.5584 124.073C85.6802 124.315 85.743 124.545 85.7652 124.725C85.7725 124.776 85.7725 124.826 85.7689 124.877C85.743 125.345 85.5289 125.767 85.1485 126.095C84.3067 126.812 82.6673 126.949 81.5448 126.949Z" fill="black"/>
<path d="M46.8996 55.3993C45.4744 55.3993 43.5839 54.8408 42.8971 52.8372C42.886 52.8047 42.8787 52.7723 42.8713 52.7399C42.8454 52.6209 42.2584 49.839 43.846 48.0804C44.758 47.0678 46.139 46.6317 47.9445 46.7759C48.2325 46.7903 49.6577 46.9525 50.8577 48.5489C51.1605 48.9489 51.0719 49.5146 50.6584 49.8101C50.2485 50.1056 49.6688 50.0191 49.366 49.6155C48.6387 48.6462 47.8633 48.5777 47.83 48.5741C46.6005 48.4768 45.7365 48.7074 45.227 49.266C45.142 49.3597 45.0682 49.4606 45.0017 49.5687C46.3494 49.1254 48.0774 49.1038 49.5876 50.2966C50.363 50.9092 50.7322 51.9362 50.5328 52.9128C50.3113 54.0119 49.4177 54.8624 48.0885 55.248C47.7784 55.3381 47.3611 55.3993 46.8885 55.3993H46.8996ZM44.6657 52.3146C45.286 53.9939 47.5494 53.5254 47.5716 53.5182C48.2325 53.3272 48.6424 52.9885 48.731 52.5633C48.7974 52.2426 48.6756 51.8858 48.4356 51.6984C46.8885 50.4768 45.1753 51.3741 44.603 51.7921C44.6177 52.0011 44.6436 52.1813 44.6694 52.3146H44.6657Z" fill="black"/>
<path d="M63.9818 54.7468C62.5566 54.7468 60.6661 54.1883 59.9831 52.1847C59.972 52.1522 59.9646 52.1198 59.9572 52.0874C59.9314 51.9684 59.3443 49.1865 60.932 47.4279C61.844 46.4189 63.2175 45.9793 65.0304 46.1234C65.3184 46.1378 66.7437 46.3 67.9437 47.8964C68.2464 48.2964 68.1578 48.8621 67.7443 49.1576C67.3344 49.4531 66.7548 49.3666 66.452 48.963C65.7246 47.9937 64.9492 47.9252 64.916 47.9216C63.6864 47.8207 62.8224 48.0549 62.3129 48.6135C62.228 48.7072 62.1541 48.8081 62.0877 48.9162C63.4317 48.4729 65.1634 48.4513 66.6735 49.6441C67.4489 50.2567 67.8181 51.2838 67.6188 52.2603C67.3935 53.3594 66.5037 54.2099 65.1744 54.5919C64.8643 54.682 64.4434 54.7432 63.9744 54.7432L63.9818 54.7468ZM61.7517 51.6657C62.372 53.345 64.6354 52.8766 64.6575 52.8693C65.3184 52.6784 65.7283 52.3396 65.8169 51.9144C65.8834 51.5937 65.7615 51.2369 65.5215 51.0495C63.9744 49.8315 62.2612 50.7252 61.6889 51.1432C61.7037 51.3522 61.7295 51.5324 61.7554 51.6657H61.7517Z" fill="black"/>
<path d="M59.1076 60.6927C58.4246 60.6927 57.4018 60.5197 55.803 59.9755C55.323 59.8134 55.0682 59.2981 55.2344 58.8296C55.4006 58.3611 55.9286 58.1089 56.4086 58.2746C57.8818 58.7755 58.6572 58.8836 59.0338 58.8909C59.0522 55.4638 57.4646 52.9125 57.4461 52.8836C57.1803 52.462 57.3132 51.9071 57.7452 51.644C58.1772 51.3809 58.7458 51.5107 59.0153 51.9323C59.1003 52.0656 61.1015 55.244 60.8615 59.5323C60.8615 59.5683 60.8541 59.6044 60.8504 59.6368C60.8246 59.7881 60.7101 60.1701 60.2486 60.4368C60.0233 60.5665 59.691 60.6927 59.1113 60.6927H59.1076Z" fill="black"/>
<path d="M23.8753 65.3379C20.5781 65.3379 17.8347 62.7866 17.7054 59.5433L17.3288 50.1091C17.2661 48.4983 17.8458 46.9631 18.9682 45.7811C20.0907 44.5992 21.6156 43.9109 23.2624 43.8496L26.8919 43.7127C30.2999 43.5757 33.1725 46.1811 33.3054 49.5037L33.6821 58.9379C33.815 62.2604 31.1528 65.0676 27.7485 65.1974L24.119 65.3343C24.0378 65.3343 23.9565 65.3379 23.8753 65.3379ZM27.1319 45.5073C27.0765 45.5073 27.0174 45.5073 26.9621 45.5073L23.3325 45.6442C20.9436 45.7343 19.079 47.7055 19.1713 50.0334L19.5479 59.4676C19.6402 61.7956 21.6562 63.6082 24.0451 63.5289L27.6747 63.392C30.0636 63.3019 31.9282 61.3307 31.8359 59.0028L31.4593 49.5685C31.367 47.2947 29.4433 45.5037 27.1319 45.5037V45.5073Z" fill="black"/>
<path d="M70.2738 63.8712C70.1187 63.8712 69.9636 63.864 69.8085 63.8532C69.299 63.8172 68.9187 63.3848 68.9556 62.8875C68.9925 62.3902 69.4467 62.0226 69.9451 62.055C72.3267 62.2244 74.4091 60.4766 74.5864 58.1523L75.3027 48.7361C75.4799 46.4118 73.6854 44.3793 71.3039 44.2064C70.7944 44.1703 70.4141 43.7379 70.451 43.2406C70.4879 42.7433 70.9384 42.3721 71.4405 42.4082C73.0873 42.5271 74.5864 43.2658 75.6645 44.4839C76.7427 45.7019 77.267 47.2622 77.1451 48.8658L76.4288 58.2821C76.307 59.8893 75.5501 61.3523 74.3021 62.4046C73.1722 63.3559 71.7581 63.8676 70.2774 63.8676L70.2738 63.8712Z" fill="black"/>
<path d="M24.602 61.3454C23.7306 61.3454 22.9072 61.0282 22.2648 60.4517C21.5891 59.8427 21.1977 59.0102 21.1608 58.1129L20.9244 52.1598C20.906 51.6625 21.3011 51.2445 21.8106 51.2228C22.3128 51.1976 22.7484 51.5904 22.7706 52.0877L23.0069 58.0408C23.0217 58.4589 23.2063 58.8444 23.5201 59.1291C23.834 59.4138 24.2512 59.558 24.6721 59.5436L26.6291 59.4679C27.1312 59.4499 27.5669 59.8354 27.5891 60.3327C27.6075 60.83 27.2125 61.2481 26.7029 61.2697L24.746 61.3454C24.7017 61.3454 24.6537 61.3454 24.6094 61.3454H24.602Z" fill="black"/>
<path d="M27.2014 43.0674C27.1793 43.0674 27.1534 43.0674 27.1276 43.0674C26.6181 43.0278 26.2377 42.5954 26.2784 42.1017C26.2968 41.8854 26.7214 36.7755 29.5571 31.4134C32.2045 26.408 37.5177 20.2782 47.8008 19.4927C48.3067 19.4494 48.7534 19.8242 48.7941 20.3215C48.8347 20.8188 48.4544 21.2512 47.9448 21.2909C40.3904 21.8674 34.7633 25.5359 31.2224 32.1918C28.5417 37.2332 28.1171 42.1918 28.1134 42.2422C28.0765 42.7143 27.6704 43.0746 27.1941 43.0746L27.2014 43.0674Z" fill="black"/>
<path d="M22.1841 42.7073C22.1583 42.7073 22.1361 42.7073 22.1103 42.7073C21.6007 42.6677 21.2241 42.2352 21.2647 41.7379C21.2832 41.5073 21.7521 36.0587 24.5804 30.1415C28.365 22.2244 34.5903 17.3379 42.5841 16.0118C43.0899 15.9325 43.5626 16.2605 43.6475 16.7506C43.7324 17.2406 43.3964 17.7055 42.8906 17.7884C25.0161 20.7542 23.1183 41.6695 23.1035 41.8821C23.0666 42.3542 22.6604 42.7109 22.1841 42.7109V42.7073Z" fill="black"/>
<path d="M68.8402 31.857C68.4673 31.857 68.1165 31.6372 67.9762 31.2768C64.7897 23.0966 56.5669 21.2083 56.4857 21.1903C55.9909 21.0822 55.6771 20.5993 55.7879 20.1164C55.8986 19.6299 56.3897 19.3272 56.8882 19.4317C57.2648 19.5146 66.1559 21.5254 69.7042 30.6354C69.8851 31.1002 69.6451 31.6191 69.1688 31.7993C69.0617 31.839 68.951 31.857 68.8402 31.857Z" fill="black"/>
<path d="M33.9144 46.826C33.7113 46.826 33.5082 46.7611 33.3384 46.6278C32.9396 46.3179 32.8768 45.7485 33.1944 45.3629C33.3347 45.1936 36.6578 41.1936 42.7132 38.1305C48.3107 35.3017 57.3716 32.8044 68.7513 36.9665C69.2276 37.1395 69.4713 37.6584 69.2904 38.1269C69.1131 38.5918 68.5778 38.8296 68.1015 38.653C47.5427 31.1359 34.7562 46.3323 34.6307 46.4872C34.4498 46.7107 34.1802 46.826 33.9107 46.826H33.9144Z" fill="black"/>
<path d="M40.0799 46.6534C39.6811 46.6534 39.3119 46.3975 39.1937 46.0047C39.0497 45.5254 39.334 45.0281 39.8214 44.8876L41.686 44.3579L41.8189 42.8155C41.8559 42.3867 42.1992 42.0408 42.6386 41.9939L45.4411 41.6948L46.0245 40.1417C46.1796 39.7345 46.6116 39.4894 47.0472 39.5651L48.5057 39.8101L49.2663 38.0732C49.4657 37.6155 50.0085 37.4029 50.4774 37.5975C50.9463 37.7921 51.1642 38.3218 50.9648 38.7795L49.9199 41.1687C49.75 41.5543 49.3365 41.7741 48.9156 41.702L47.4977 41.4606L46.9808 42.8336C46.8589 43.1543 46.5636 43.3813 46.2128 43.4173L43.5949 43.6984L43.4731 45.1182C43.4399 45.4894 43.1777 45.8029 42.8122 45.9074L40.3383 46.6101C40.2534 46.6354 40.1648 46.6462 40.0799 46.6462V46.6534Z" fill="black"/>
<path d="M49.5961 64.8657C49.153 64.8657 48.7616 64.5521 48.6878 64.1089C48.6065 63.6188 48.9462 63.1539 49.4521 63.0747L55.7069 62.0801C56.2127 62.0008 56.6853 62.3323 56.7665 62.826C56.8478 63.3161 56.5081 63.781 56.0022 63.8602L49.7475 64.8548C49.6958 64.862 49.6478 64.8657 49.5961 64.8657Z" fill="black"/>
<path d="M30.5463 154.17C27.2491 154.17 24.4281 151.713 24.0811 148.491L21.1715 121.651C21.1161 121.158 21.4854 120.714 21.9912 120.66C22.4971 120.614 22.9512 120.967 23.0066 121.46L25.9161 148.3C26.1709 150.653 28.2644 152.444 30.694 152.365L73.8164 151.032C76.2423 150.956 78.2177 149.046 78.3211 146.678L81.2232 79.3091C81.2786 78.0334 80.8023 76.8298 79.8792 75.9217C78.9598 75.0136 77.7377 74.5307 76.4232 74.5775C75.9284 74.5955 75.4891 74.2028 75.4706 73.7055C75.4558 73.2082 75.8546 72.7937 76.3641 72.7757C78.1586 72.7145 79.9235 73.4064 81.19 74.6532C82.4564 75.9036 83.1432 77.6262 83.0657 79.3847L80.1635 146.754C80.0232 150.059 77.2577 152.725 73.8718 152.83L30.7494 154.163C30.6792 154.163 30.6127 154.163 30.5426 154.163L30.5463 154.17Z" fill="black"/>
<path d="M39.3305 174.333C38.917 174.333 38.5403 174.059 38.437 173.648L34.7225 159.071C34.6006 158.588 34.8997 158.098 35.3945 157.979C35.8893 157.857 36.3914 158.152 36.5133 158.635L40.2277 173.212C40.3496 173.695 40.0505 174.185 39.5557 174.304C39.4819 174.322 39.4043 174.333 39.3305 174.333Z" fill="black"/>
<path d="M61.5724 199.439H39.2819C38.8351 199.439 38.4548 199.129 38.3736 198.7L33.7878 174.062C33.7434 173.813 33.8025 173.561 33.9576 173.359C34.1127 173.158 34.3453 173.031 34.6001 173.003L51.4554 171.295C51.7139 171.266 51.9761 171.352 52.1681 171.522C52.3638 171.691 52.4745 171.936 52.4745 172.192V184.866C57.8062 182.801 61.3804 182.765 63.3779 184.758C65.0468 186.419 65.3681 189.349 64.3342 193.464C63.6031 196.372 62.4585 198.812 62.4105 198.913C62.2591 199.23 61.9342 199.435 61.5724 199.435V199.439ZM40.0536 197.637H60.9705C62.237 194.747 64.3638 188.318 62.0561 186.019C60.5422 184.513 57.0382 184.866 51.917 187.046C51.6327 187.168 51.3041 187.14 51.0419 186.974C50.7798 186.808 50.6247 186.523 50.6247 186.221V173.194L35.7779 174.696L40.0499 197.637H40.0536Z" fill="black"/>
<path d="M48.3317 170.963C48.3317 170.963 48.3169 170.963 48.3095 170.963C47.8 170.953 47.3938 170.542 47.4086 170.044L47.6043 161.389C47.6154 160.898 48.0252 160.509 48.5274 160.509C48.5347 160.509 48.5421 160.509 48.5495 160.509C49.0591 160.52 49.4652 160.931 49.4504 161.428L49.2547 170.084C49.2437 170.574 48.8338 170.963 48.3317 170.963Z" fill="black"/>
<path d="M56.9804 172.819C56.5448 172.819 56.1608 172.52 56.0758 172.088L53.5577 159.241C53.4617 158.751 53.7903 158.279 54.2924 158.189C54.7946 158.095 55.2783 158.416 55.3706 158.906L57.8888 171.753C57.9848 172.243 57.6561 172.715 57.154 172.805C57.0949 172.816 57.0358 172.819 56.9804 172.819Z" fill="black"/>
<path d="M74.3192 197.745H64.7008C64.1912 197.745 63.7777 197.342 63.7777 196.844C63.7777 196.347 64.1912 195.943 64.7008 195.943H73.7506C77.31 188.96 76.8411 186.077 75.7962 184.888C74.2675 183.147 70.4275 183.889 69.0762 184.322C68.7955 184.412 68.4854 184.365 68.2454 184.196C68.0054 184.026 67.8651 183.756 67.8651 183.468V171.893L54.8571 173.003L56.718 182.473C56.814 182.963 56.4854 183.435 55.9869 183.529C55.4885 183.623 55.0011 183.302 54.9051 182.816L52.8522 172.365C52.8042 172.116 52.8632 171.857 53.022 171.652C53.1808 171.45 53.4171 171.32 53.6792 171.298L68.7106 170.016C68.9654 169.99 69.2239 170.077 69.4159 170.25C69.6079 170.419 69.7149 170.661 69.7149 170.913V182.304C71.6165 181.907 75.2682 181.511 77.2029 183.716C79.3186 186.127 78.6429 190.552 75.1463 197.252C74.9875 197.554 74.67 197.745 74.3229 197.745H74.3192Z" fill="black"/>
<path d="M66.4141 169.586C66.3919 169.586 66.3697 169.586 66.3476 169.586C65.8381 169.55 65.4577 169.118 65.4947 168.624L66.1113 160.314C66.1482 159.817 66.595 159.442 67.0971 159.482C67.6067 159.518 67.987 159.95 67.9501 160.444L67.3334 168.754C67.3002 169.23 66.8941 169.59 66.4141 169.59V169.586Z" fill="black"/>
<path d="M32.2999 113.478C32.2999 113.478 32.2888 113.478 32.2814 113.478C25.9233 113.356 21.9836 106.423 21.8174 106.127C21.5737 105.691 21.7399 105.143 22.1866 104.906C22.6334 104.668 23.1946 104.83 23.4383 105.266C23.4789 105.342 27.042 111.572 32.3183 111.677C32.8279 111.688 33.234 112.098 33.2229 112.596C33.2119 113.086 32.802 113.478 32.2999 113.478Z" fill="black"/>
<path d="M29.195 124.145C28.5045 124.145 27.7882 124.095 27.0534 123.997C21.419 123.244 16.5156 119.731 13.9384 114.599C8.23744 103.255 16.9181 93.655 17.0067 93.5577C17.3464 93.1866 17.9334 93.1577 18.3101 93.4929C18.6867 93.8244 18.7199 94.3938 18.3802 94.7649C18.0553 95.1181 10.4528 103.572 15.5962 113.806C17.9039 118.397 22.2793 121.54 27.3045 122.214C28.715 122.401 30.0221 122.387 31.1851 122.17C31.6873 122.077 32.171 122.397 32.267 122.884C32.363 123.374 32.0344 123.846 31.5359 123.94C30.7974 124.077 30.0147 124.149 29.1987 124.149L29.195 124.145Z" fill="black"/>
<path d="M28.4973 159.756C28.2647 159.756 28.0394 159.67 27.8659 159.511C27.6813 159.342 27.5742 159.104 27.5742 158.855V152.888C27.5742 152.39 27.9878 151.987 28.4973 151.987C29.0068 151.987 29.4204 152.39 29.4204 152.888V157.893L36.5059 157.443V154.794C36.5059 154.297 36.9195 153.893 37.429 153.893C37.9385 153.893 38.3521 154.297 38.3521 154.794V158.29C38.3521 158.765 37.9755 159.158 37.4881 159.19L28.5564 159.76C28.5379 159.76 28.5158 159.76 28.4973 159.76V159.756Z" fill="black"/>
<path d="M59.2575 158.102C58.759 158.102 58.3491 157.716 58.3344 157.226C58.3196 156.729 58.7221 156.314 59.2316 156.3L66.0587 156.113L65.8039 153.922C65.7448 153.428 66.1104 152.981 66.6162 152.923C67.1295 152.869 67.5799 153.223 67.639 153.716L68.0082 156.88C68.0378 157.132 67.9565 157.381 67.7867 157.572C67.6168 157.763 67.3731 157.875 67.1147 157.882L59.2833 158.095C59.2833 158.095 59.2648 158.095 59.2575 158.095V158.102Z" fill="black"/>
<path d="M51.4254 159.003C50.927 159.003 50.5171 158.617 50.5023 158.127C50.4876 157.63 50.89 157.215 51.3996 157.201L57.8685 157.017L57.599 154.455C57.5473 153.961 57.9165 153.518 58.4223 153.468C58.9245 153.417 59.3823 153.778 59.434 154.271L59.8033 157.796C59.8291 158.044 59.7479 158.293 59.578 158.48C59.4082 158.668 59.1682 158.779 58.9097 158.787L51.4476 158.999C51.4476 158.999 51.4291 158.999 51.4217 158.999L51.4254 159.003Z" fill="black"/>
<path d="M44.3336 158.603C43.8352 158.603 43.4253 158.217 43.4106 157.731C43.3958 157.233 43.7946 156.819 44.3041 156.801L50.4075 156.617L50.1379 154.055C50.0862 153.561 50.4555 153.118 50.9613 153.068C51.4635 153.021 51.9213 153.378 51.973 153.871L52.3422 157.396C52.3681 157.644 52.2869 157.893 52.117 158.08C51.9472 158.268 51.7072 158.379 51.4524 158.387L44.3595 158.599C44.3595 158.599 44.341 158.599 44.3299 158.599L44.3336 158.603Z" fill="black"/>
<path d="M37.2399 159.644C36.7414 159.644 36.3316 159.259 36.3168 158.772C36.302 158.275 36.7008 157.861 37.2103 157.843L43.3137 157.659L43.0442 155.097C42.9925 154.603 43.3617 154.16 43.8676 154.109C44.3734 154.059 44.8276 154.419 44.8793 154.913L45.2485 158.437C45.2743 158.686 45.1931 158.934 45.0233 159.122C44.8534 159.309 44.6134 159.421 44.3586 159.428L37.2657 159.641C37.2657 159.641 37.2473 159.641 37.2362 159.641L37.2399 159.644Z" fill="black"/>
<path d="M67.3947 157.381C66.9036 157.381 66.4974 157.006 66.4716 156.523C66.4494 156.026 66.8408 155.605 67.3504 155.583L74.3584 155.266L73.8968 151.929C73.8304 151.435 74.1848 150.981 74.687 150.916C75.1928 150.848 75.6581 151.197 75.7245 151.687L76.319 156.001C76.3522 156.25 76.2784 156.505 76.1122 156.696C75.9461 156.891 75.7061 157.006 75.4476 157.021L67.4316 157.381C67.4316 157.381 67.4021 157.381 67.3873 157.381H67.3947Z" fill="black"/>
<path d="M49.1771 132.783C49.0553 132.783 48.9334 132.761 48.8153 132.711C48.0879 132.404 48.1839 131.965 48.5383 130.322C48.7156 129.5 48.963 128.412 49.214 127.323C49.3691 126.646 49.5242 125.972 49.6682 125.363C47.102 126.808 44.222 127.111 42.291 126.559C41.7999 126.419 41.523 125.918 41.667 125.442C41.811 124.967 42.3242 124.689 42.8116 124.833C44.3476 125.273 47.7888 125.042 50.4879 122.538C50.7833 122.264 51.2263 122.21 51.5808 122.408C51.9353 122.606 52.1162 123.006 52.0239 123.392C51.4848 125.68 50.6983 129.085 50.318 130.837C51.5402 130.747 53.6227 130.689 57.2559 130.639L55.683 123.096C55.6091 122.736 55.7642 122.372 56.0743 122.167C56.3845 121.965 56.7906 121.965 57.1045 122.167C57.7285 122.577 58.3673 122.913 58.995 123.161C61.1328 124.001 63.4442 123.727 65.331 122.412C67.262 121.064 68.3439 118.873 68.2183 116.549C67.646 105.767 52.2565 93.5395 52.1014 93.417C51.7027 93.1035 51.6436 92.5377 51.9611 92.1521C52.2787 91.763 52.862 91.7017 53.2571 92.0152C53.4233 92.1449 57.3334 95.2332 61.3802 99.7738C66.8817 105.943 69.8023 111.554 70.0608 116.455C70.2159 119.395 68.8497 122.17 66.4017 123.878C64.0276 125.532 60.9999 125.893 58.3045 124.833C58.1679 124.779 58.0276 124.722 57.891 124.66L59.2866 131.341C59.342 131.604 59.2719 131.878 59.102 132.087C58.9285 132.296 58.67 132.419 58.3931 132.422C54.5753 132.469 50.3143 132.585 49.55 132.707C49.4319 132.758 49.3063 132.783 49.1771 132.783ZM49.9488 132.386C49.9488 132.386 49.9267 132.415 49.9156 132.43C49.9267 132.415 49.9377 132.401 49.9488 132.386Z" fill="black"/>
<path d="M45.4567 101.313C45.2536 101.313 45.0505 101.248 44.8807 101.114C44.4819 100.805 44.4191 100.235 44.7404 99.8496C48.4474 95.3487 51.9108 92.1919 52.0585 92.0586C52.4314 91.7198 53.0148 91.7415 53.3619 92.1054C53.709 92.4694 53.6868 93.0388 53.3139 93.3775C53.2807 93.4099 49.7988 96.5811 46.1804 100.978C45.9994 101.197 45.7299 101.313 45.4604 101.313H45.4567Z" fill="black"/>
<path d="M37.4199 125.947C36.2974 125.947 34.8353 125.63 32.9854 124.988C32.5054 124.823 32.2543 124.307 32.4242 123.839C32.594 123.37 33.122 123.122 33.602 123.291C37.5085 124.639 38.2691 123.979 38.3023 123.951C38.4094 123.85 38.354 123.587 38.3356 123.529C38.3356 123.518 38.3245 123.489 38.3208 123.482C38.0033 122.351 38.7307 121.435 39.5467 121.053C39.9233 120.848 40.0267 120.686 40.0303 120.646C40.0377 120.588 39.9454 120.455 39.9085 120.415C38.7602 119.461 39.207 118.066 39.794 117.356C39.8273 117.316 39.8605 117.28 39.8974 117.248C40.0931 117.079 40.167 116.963 40.1965 116.913C40.0968 116.794 39.7682 116.61 39.495 116.524C38.391 116.199 38.018 115.587 37.9036 115.129C37.6673 114.196 38.3319 113.37 38.6125 113.075C38.919 112.585 38.9522 112.336 38.9559 112.257C38.8267 112.181 38.4648 112.134 38.1879 112.156C38.1657 112.156 38.1399 112.156 38.1214 112.16C36.231 112.192 34.503 112.963 34.4845 112.97C34.023 113.179 33.4728 112.985 33.2587 112.534C33.0445 112.084 33.2402 111.551 33.7017 111.338C33.7867 111.298 35.7694 110.405 38.055 110.358C38.4353 110.329 39.8937 110.286 40.5399 111.313C40.9977 112.037 40.8574 112.978 40.1263 114.113C40.0894 114.17 40.0414 114.228 39.9934 114.275C39.8827 114.383 39.7608 114.563 39.7165 114.671C39.7682 114.704 39.8642 114.751 40.034 114.801C40.322 114.888 41.751 115.367 42.0131 116.538C42.1202 117.014 42.0611 117.738 41.2008 118.524C41.127 118.628 40.9534 118.916 41.1159 119.05C41.1307 119.061 41.1417 119.071 41.1528 119.082C41.2377 119.158 41.9873 119.868 41.8617 120.866C41.7694 121.583 41.282 122.181 40.407 122.646C40.3885 122.657 40.37 122.664 40.3516 122.675C40.3331 122.686 40.0636 122.823 40.0968 122.996C40.2667 123.511 40.3405 124.513 39.6094 125.226C39.1147 125.709 38.3947 125.947 37.4199 125.947Z" fill="black"/>
<path d="M43.1739 111.871C42.7087 111.871 42.2287 111.832 41.7228 111.745C41.4754 111.713 40.3604 111.525 39.1936 110.632C38.0674 109.767 36.6717 108.044 36.4244 104.747C36.3874 104.25 36.7677 103.817 37.2773 103.781C37.7905 103.745 38.2299 104.116 38.2668 104.614C38.636 109.554 41.9259 109.954 41.9591 109.958C41.9813 109.958 41.9997 109.961 42.0219 109.965C46.7259 110.769 48.8822 106.549 49.6133 104.621L37.5727 102.354C37.0705 102.26 36.7456 101.788 36.8416 101.298C36.9376 100.808 37.425 100.491 37.9234 100.585L50.9868 103.042C51.2342 103.089 51.4557 103.233 51.5887 103.442C51.7216 103.651 51.7659 103.907 51.7068 104.145C50.9831 106.97 48.3136 111.868 43.1813 111.868L43.1739 111.871Z" fill="black"/>
<path d="M40.4185 116.131C40.3262 116.131 40.2302 116.116 40.1342 116.088C39.6505 115.936 39.381 115.428 39.536 114.956L40.976 110.578C41.1311 110.102 41.6517 109.842 42.1354 109.994C42.6191 110.145 42.8887 110.653 42.7336 111.125L41.2936 115.504C41.168 115.886 40.8062 116.131 40.4148 116.131H40.4185Z" fill="black"/>
<path d="M39.0083 129.694C38.916 129.694 38.8237 129.68 38.7351 129.655L32.5578 127.781C32.0704 127.633 31.8009 127.129 31.9486 126.653C32.1 126.177 32.6169 125.914 33.1043 126.058L39.2815 127.932C39.7689 128.08 40.0384 128.585 39.8907 129.06C39.7689 129.446 39.4034 129.694 39.0083 129.694Z" fill="black"/>
<path d="M36.0994 128.812C35.9887 128.812 35.8705 128.79 35.7597 128.747C35.2871 128.563 35.0545 128.041 35.2391 127.579L36.3985 124.714C36.5868 124.253 37.1185 124.023 37.5948 124.206C38.0674 124.39 38.3 124.913 38.1154 125.374L36.956 128.239C36.812 128.592 36.465 128.808 36.0957 128.808L36.0994 128.812Z" fill="black"/>
<path d="M23.7153 74.5742C23.479 74.5742 23.2427 74.4841 23.0618 74.3075C22.7036 73.9544 22.7036 73.385 23.0618 73.0318L23.7633 72.3472L22.5412 70.9778C22.2089 70.603 22.2458 70.0372 22.6261 69.7093L23.5787 68.8913L23.047 68.4841C22.6519 68.185 22.5744 67.63 22.8735 67.2372L24.2839 65.3814C24.5867 64.9814 25.1664 64.8985 25.5763 65.194C25.9861 65.4895 26.071 66.0553 25.7682 66.4553L24.8932 67.6048L25.5947 68.1381C25.8126 68.3039 25.9418 68.5526 25.9492 68.8228C25.9566 69.0931 25.8421 69.349 25.6353 69.5255L24.535 70.4697L25.7203 71.7994C26.0378 72.1562 26.0193 72.6931 25.6759 73.0282L24.3615 74.3075C24.1806 74.4841 23.9442 74.5706 23.7116 74.5706L23.7153 74.5742Z" fill="black"/>
<path d="M27.4009 74.5742C27.1646 74.5742 26.9283 74.4841 26.7473 74.3075C26.3892 73.9544 26.3892 73.385 26.7473 73.0318L27.4489 72.3472L26.2267 70.9778C25.8944 70.603 25.9313 70.0372 26.3116 69.7093L27.2643 68.8913L26.7326 68.4841C26.3375 68.185 26.26 67.63 26.559 67.2372L27.9695 65.3814C28.2723 64.9814 28.852 64.8985 29.2618 65.194C29.6716 65.4895 29.7566 66.0553 29.4538 66.4553L28.5787 67.6048L29.2803 68.1381C29.4981 68.3039 29.6273 68.5526 29.6347 68.8228C29.6421 69.0931 29.5276 69.349 29.3209 69.5255L28.2206 70.4697L29.4058 71.7994C29.7233 72.1562 29.7049 72.6931 29.3615 73.0282L28.047 74.3075C27.8661 74.4841 27.6298 74.5706 27.3972 74.5706L27.4009 74.5742Z" fill="black"/>
<path d="M31.4536 74.5745C31.2173 74.5745 30.981 74.4844 30.8001 74.3114C30.4419 73.9583 30.4419 73.3889 30.8001 73.0357L31.5016 72.3511L30.2795 70.9817C29.9471 70.6069 29.9841 70.0411 30.3644 69.7132L31.317 68.8952L30.7853 68.488C30.3902 68.1889 30.3127 67.6339 30.6118 67.2411L32.0222 65.3853C32.325 64.9853 32.9047 64.9024 33.3145 65.1979C33.7244 65.4934 33.8093 66.0592 33.5065 66.4592L32.6315 67.6087L33.333 68.142C33.5508 68.3078 33.6801 68.5565 33.6875 68.8267C33.6948 69.097 33.5804 69.3529 33.3736 69.5294L32.2733 70.4736L33.4585 71.8033C33.7761 72.1601 33.7576 72.697 33.4142 73.0321L32.0998 74.3114C31.9188 74.488 31.6825 74.5745 31.4462 74.5745H31.4536Z" fill="black"/>
<path d="M35.2137 74.5742C35.018 74.5742 34.8187 74.5129 34.6525 74.3868C34.2464 74.0841 34.1725 73.5183 34.4827 73.1255L35.3614 72.0048L34.4864 70.9093C34.2168 70.5706 34.2279 70.0949 34.5122 69.7706L35.2027 68.9814L34.5528 68.4841C34.1577 68.185 34.0802 67.63 34.3793 67.2372L35.7897 65.3814C36.0925 64.9814 36.6722 64.8985 37.082 65.194C37.4919 65.4895 37.5768 66.0553 37.274 66.4553L36.399 67.6048L37.1005 68.1381C37.2999 68.2895 37.4254 68.5129 37.4513 68.758C37.4771 69.003 37.3996 69.2445 37.2371 69.4318L36.41 70.376L37.2593 71.439C37.5177 71.7634 37.5214 72.2174 37.263 72.5417L35.9485 74.2138C35.7676 74.4444 35.4944 74.567 35.2137 74.567V74.5742Z" fill="black"/>
<path d="M67.7505 73.4929C67.5142 73.4929 67.2779 73.4028 67.0969 73.2299C66.7388 72.8767 66.7388 72.3074 67.0969 71.9542L67.7985 71.2695L66.5763 69.9001C66.244 69.5254 66.2809 68.9596 66.6613 68.6317L67.6139 67.8137L67.0822 67.4064C66.6871 67.1074 66.6096 66.5524 66.9086 66.1596L68.3191 64.3037C68.6219 63.9037 69.2016 63.8209 69.6114 64.1164C70.0213 64.4119 70.1062 64.9776 69.8034 65.3776L68.9283 66.5272L69.6299 67.0605C69.8477 67.2263 69.9769 67.4749 69.9843 67.7452C69.9917 68.0155 69.8773 68.2713 69.6705 68.4479L68.5702 69.392L69.7554 70.7218C70.0729 71.0785 70.0545 71.6155 69.7111 71.9506L68.3966 73.2299C68.2157 73.4065 67.9794 73.4929 67.7431 73.4929H67.7505Z" fill="black"/>
<path d="M71.4341 73.4929C71.1978 73.4929 70.9615 73.4028 70.7805 73.2299C70.4224 72.8767 70.4224 72.3074 70.7805 71.9542L71.4821 71.2695L70.2599 69.9001C69.9276 69.5254 69.9645 68.9596 70.3448 68.6317L71.2975 67.8137L70.7658 67.4064C70.3707 67.1074 70.2932 66.5524 70.5922 66.1596L72.0027 64.3037C72.3055 63.9037 72.8852 63.8209 73.295 64.1164C73.7048 64.4119 73.7898 64.9776 73.487 65.3776L72.6119 66.5272L73.3135 67.0605C73.5313 67.2263 73.6605 67.4749 73.6679 67.7452C73.6753 68.0155 73.5608 68.2713 73.3541 68.4479L72.2538 69.392L73.439 70.7218C73.7565 71.0785 73.7381 71.6155 73.3947 71.9506L72.0802 73.2299C71.8993 73.4065 71.663 73.4929 71.4267 73.4929H71.4341Z" fill="black"/>
<path d="M74.9972 73.4677C74.7462 73.4677 74.4951 73.3668 74.3105 73.1722C73.9671 72.8011 74.0003 72.2317 74.3769 71.9002L75.1154 71.2515L73.9634 69.8245C73.6495 69.4353 73.716 68.8695 74.1148 68.5632L75.108 67.7921L74.5985 67.3596C74.2182 67.0389 74.1702 66.4839 74.4877 66.1056L75.9905 64.3182C76.3154 63.9326 76.8951 63.8785 77.2902 64.1957C77.6852 64.5128 77.7406 65.0785 77.4157 65.4641L76.4852 66.5704L77.1572 67.1398C77.364 67.3164 77.4822 67.5722 77.4785 67.8389C77.4748 68.1092 77.3455 68.3578 77.1314 68.5272L75.9831 69.4173L77.1018 70.8011C77.4009 71.1722 77.3566 71.7092 76.9948 72.0263L75.6175 73.2407C75.4403 73.3957 75.2188 73.4713 75.0009 73.4713L74.9972 73.4677Z" fill="black"/>
<path d="M49.816 76.1053C49.3176 76.1053 48.9077 75.7162 48.893 75.2261C48.8782 74.7288 49.2807 74.3144 49.7902 74.3035C50.4142 74.2855 65.128 73.7053 67.4394 57.936C67.5096 57.4423 67.9748 57.0963 68.4844 57.172C68.9902 57.2441 69.341 57.6981 69.2671 58.1918C67.9453 67.2225 62.7317 71.6189 58.589 73.7162C54.125 75.9792 50.0117 76.1054 49.8382 76.109C49.8308 76.109 49.8234 76.109 49.816 76.109V76.1053Z" fill="black"/>
</svg>
