<svg width="100" height="210" viewBox="0 0 100 210" fill="none" xmlns="http://www.w3.org/2000/svg">
<path d="M28.0342 45.1287L29 63L42.2881 70.919L51.1919 74.9146L61.5688 64.793L64.7035 35.9417L59.2342 25.6309L35.8342 25.6725L29.6342 34.2541L22.415 34.5871L17.5996 42.8509L23.3265 45.9914L28.0342 45.1287Z" fill="white"/>
<path d="M11.1803 76.8934L8.72266 88.1956C9.21496 95.0556 11.2419 100.546 14.015 105.378L9.24573 107.372L8.72266 109.423L10.6727 110.77L10.8727 111.829L9.68804 113.997L11.0457 115.072L11.7265 115.25L10.988 117.096L11.5842 118.277L13.538 118.542L18.0803 116.669C26.5073 114.395 21.688 95.4718 20.0188 80.5107L12.6188 77.4799L11.1803 76.8896V76.8934Z" fill="white"/>
<path d="M48.666 189.476L50.0006 198.822L81.1006 198.803L81.4314 194.758L79 190.286L72.5 189.113H68.0737L48.666 189.476Z" fill="#2BE6AE"/>
<path d="M20.1467 187.66C20.189 188.636 19.9082 198.902 19.9082 198.902L52.2044 200.578L52.6197 197.237L48.6582 192.341L38.7928 189.828L20.1505 187.664L20.1467 187.66Z" fill="#2BE6AE"/>
<path d="M19 131L19.7086 184L43.0772 183.935L45 131H19Z" fill="#67A9F9"/>
<path d="M39.6953 136.026L50.3492 180.206L69.5799 178.881L66.3415 132.451L39.6953 136.026Z" fill="#67A9F9"/>
<path d="M17.1426 179.801L17.4733 190.831L44.9733 191.508L45.3041 181.22L17.1426 179.801Z" fill="#67A9F9"/>
<path d="M47.8809 180.206L48.7386 189.529L73.5539 188.599V179.801L47.8809 180.206Z" fill="#67A9F9"/>
<path d="M19.1965 111.833L16.1504 132.451H26.9312V135.247L42.2888 133.998V136.026L58.135 135.444L58.4081 133.514L71.0004 133.226L66.5658 107.985L19.1965 111.833Z" fill="#F8B3FF"/>
<path d="M13.2237 72.039L9.54297 82.0773L19.9084 83.5908L19.1968 111.829L68.1968 108.84L66.566 93.1146L71.693 79.6557L67.293 74.8654L66.2045 69.8519L63.4122 67.9865L58.5199 79.5876L53.466 74.8844L55.7314 88.1125L49.416 89.4557L47.7699 74.3017L43.6276 80.8249L35.0353 65.8146L29.5 59.5C24.0192 56.8703 23.0731 57.5351 19 62L13.2237 70.6162" fill="#FFF080"/>
<path d="M36.0505 73.3101H22.3882C21.3283 73.3101 20.4524 74.137 20.3915 75.1951L19.9082 83.5906L48.8428 84.2376L47.7659 74.3014L43.6236 80.8246L36.0505 73.3101Z" fill="#FFBA57"/>
<path d="M53.4609 74.888L55.1032 84.4799L65.4148 84.2377L62.634 71.7134L58.5148 79.5912L53.4609 74.888Z" fill="#FFBA57"/>
<path d="M19.6684 93.7808L19.1953 105.189L67.2915 104.209L66.3415 94.6018L19.6684 93.7808Z" fill="#FFBA57"/>
<path d="M30.9574 68.2512L43.6228 80.8247L47.7651 74.3015L49.4112 89.4555L55.7266 88.1123L53.0074 73.6166L57.4689 79.6517L63.4151 67.9826L61.5728 64.7853L54.6458 71.1117C54.6458 71.1117 52.0728 71.8571 47.0458 71.7058C42.0189 71.5544 34.4881 68.2058 33.3497 63.3853C33.3497 63.3853 26.4112 66.6355 30.9689 68.2474L30.9574 68.2512Z" fill="white"/>
<path d="M48.3416 26.7584C48.3416 26.7584 52.9377 23.58 56.4262 25.6724C59.9147 27.7648 62.73 33.3081 62.73 33.3081C62.73 33.3081 63.0377 51.2584 62.7454 53.9638C62.4531 56.6692 62.2031 58.9394 62.2031 58.9394L71.03 56.8508C71.03 56.8508 72.2224 45.4011 69.58 36.914C66.9339 28.4232 60.7877 19.6448 60.7877 19.6448L57.4608 11.0821L48.8724 7.51025L38.3877 9.50431L35.8301 10.6584H28.0031L20.1416 14.0448L12.1377 24.8665L11.2031 38.5335L11.807 50.9254C11.807 50.9254 12.83 59.034 14.4531 59.874L17.5993 60.9032L25.0031 60.7405L32.2031 58.9432L28.3762 52.6697L28.1262 47.9286L27.9916 44.0351L20.1416 44.7162L19.1916 41.0876L21.0916 37.3605L21.6224 35.9454L23.3262 36.4562L25.307 38.1135L28.7762 39.0935L31.6185 31.507L35.8339 26.8378L41.4339 26.0621L46.3685 26.3459L48.3377 26.7584H48.3416Z" fill="#2BE6AE"/>
<path d="M33.8887 23.4815C37.1323 23.4815 39.7618 22.067 39.7618 20.3221C39.7618 18.5771 37.1323 17.1626 33.8887 17.1626C30.6451 17.1626 28.0156 18.5771 28.0156 20.3221C28.0156 22.067 30.6451 23.4815 33.8887 23.4815Z" fill="#FFF080"/>
<path d="M56.4278 20.9879C59.6714 20.9879 62.3008 19.5733 62.3008 17.8284C62.3008 16.0835 59.6714 14.6689 56.4278 14.6689C53.1842 14.6689 50.5547 16.0835 50.5547 17.8284C50.5547 19.5733 53.1842 20.9879 56.4278 20.9879Z" fill="#FFF080"/>
<path d="M80.4727 71.8193L85.865 78.0928L91.515 71.7134L80.4727 71.8193Z" fill="#FF6A2F"/>
<path d="M71.6918 79.6596L66.3418 94.6017L67.2918 98.658C67.2918 98.658 78.0803 99.7628 80.7764 96.558C83.4726 93.3531 88.5687 92.4034 88.5687 92.4034L90.4841 90.0385L91.1072 85.3958L88.3456 79.4969L83.1726 78.7817L82.4303 79.3001L83.5072 82.085C83.5072 82.085 79.7495 83.0915 71.6956 79.6671L71.6918 79.6596Z" fill="white"/>
<path d="M39.7869 47.0783C38.1331 47.0783 35.8177 46.401 35.0946 43.9491C35.0831 43.915 35.0754 43.881 35.0715 43.8469C35.0485 43.7107 34.4985 40.4453 36.4023 38.4815C37.4908 37.354 39.0985 36.9113 41.1715 37.1572C41.4869 37.1875 43.11 37.4259 44.4215 39.3329C44.7177 39.7642 44.6023 40.3545 44.1638 40.6459C43.7254 40.9372 43.1254 40.8237 42.8292 40.3923C41.9792 39.1588 41.0177 39.0415 41.01 39.0415C40.9908 39.0415 40.9754 39.0415 40.9562 39.0377C39.5138 38.8637 38.4523 39.1134 37.7985 39.7832C37.6138 39.9723 37.4638 40.1918 37.3446 40.4226C38.9523 39.874 41.0869 39.8323 42.8754 41.3723C43.7215 42.1026 44.0946 43.2869 43.8254 44.3918C43.5215 45.6367 42.4677 46.5713 40.9369 46.9534C40.6292 47.0291 40.2331 47.0783 39.7908 47.0783H39.7869ZM36.9562 43.4761C37.6331 45.5988 40.4331 45.1259 40.46 45.1183C41.2908 44.9102 41.8215 44.494 41.9523 43.9491C42.0523 43.5329 41.91 43.0561 41.6062 42.7913C39.7485 41.1907 37.5677 42.2842 36.8985 42.761C36.9062 43.1091 36.9408 43.3702 36.9523 43.4761H36.9562Z" fill="black"/>
<path d="M59.5721 45.9811C57.9182 45.9811 55.6028 45.3038 54.8798 42.8519C54.8682 42.8179 54.8605 42.7838 54.8567 42.7498C54.8336 42.6136 54.2836 39.3519 56.1875 37.3844C57.2759 36.2568 58.8798 35.8141 60.9567 36.06C61.2721 36.0903 62.899 36.3287 64.2067 38.2357C64.5028 38.6671 64.3875 39.2573 63.949 39.5487C63.5105 39.84 62.9105 39.7265 62.6144 39.2952C61.7682 38.0654 60.8144 37.9481 60.7759 37.9444C59.2952 37.7665 58.2336 38.0163 57.5798 38.6898C57.399 38.879 57.249 39.0946 57.1336 39.3217C58.7413 38.773 60.8759 38.7352 62.6644 40.2714C63.5105 41.0017 63.8836 42.186 63.6144 43.2908C63.3105 44.5357 62.2567 45.4703 60.7259 45.8525C60.4182 45.9281 60.0221 45.9773 59.5798 45.9773L59.5721 45.9811ZM56.7413 42.379C57.4182 44.4979 60.2182 44.0287 60.2452 44.0211C61.0759 43.813 61.6067 43.3968 61.7375 42.8519C61.8375 42.4357 61.699 41.959 61.3913 41.6941C59.5336 40.0973 57.3567 41.1871 56.6875 41.66C56.6952 42.0081 56.7259 42.273 56.7413 42.3752V42.379Z" fill="black"/>
<path d="M51.319 56.118C50.2767 56.118 48.796 55.7813 46.7306 55.1002C46.2267 54.9337 45.9575 54.3964 46.1267 53.9007C46.296 53.4051 46.8421 53.1402 47.346 53.3067C49.2267 53.9272 50.3229 54.1429 50.9421 54.2072C49.8844 53.0494 49.4806 52.1072 49.6883 51.2861C49.8537 50.624 50.3806 50.257 50.7806 50.1397C50.9113 50.1018 51.0498 50.0905 51.1883 50.1094C52.0344 50.2267 52.8498 50.2834 53.419 50.3099C53.6498 47.6045 51.2075 44.1613 50.5652 43.4991C50.1306 43.2456 49.9652 42.7007 50.1998 42.2505C50.4267 41.8191 50.969 41.6224 51.4267 41.8002C52.2844 42.1332 56.3037 47.5591 55.1383 51.5397C55.019 51.9445 54.6421 52.2245 54.2152 52.2245C54.1614 52.2245 53.069 52.2245 51.7152 52.0807C51.8806 52.3683 52.2267 52.8375 52.9498 53.5261C53.0075 53.5791 53.0575 53.6434 53.0998 53.7078C53.3998 54.1883 53.5037 54.9224 53.0537 55.4786C52.7113 55.9061 52.1575 56.118 51.3229 56.118H51.319Z" fill="black"/>
<path d="M50.5688 58.7966C47.2727 58.7966 44.965 56.8631 44.8612 56.7761C44.4612 56.4355 44.415 55.8377 44.765 55.4404C45.1112 55.0469 45.7188 55.0015 46.1188 55.342C46.1535 55.3723 48.2842 57.1166 51.1112 56.882C51.6381 56.8366 52.1073 57.2225 52.1496 57.7447C52.1958 58.2669 51.8035 58.7247 51.2727 58.7663C51.0342 58.7852 50.7958 58.7966 50.5688 58.7966Z" fill="black"/>
<path d="M29.2265 39.4796C29.165 39.4796 29.1034 39.472 29.0419 39.4607C28.5227 39.3585 28.1804 38.8628 28.2842 38.352C29.4804 32.3396 32.0188 28.238 35.8188 26.1682C40.9765 23.3569 46.4919 25.3774 46.7227 25.4645C47.2188 25.6499 47.465 26.1985 47.2765 26.6866C47.088 27.1747 46.5304 27.4169 46.0342 27.2315C45.9573 27.2012 41.0804 25.4493 36.7304 27.8331C33.4573 29.6266 31.2496 33.2893 30.1688 38.7191C30.0804 39.1693 29.6765 39.4834 29.2265 39.4834V39.4796Z" fill="black"/>
<path d="M20.8873 62.0117C18.9027 62.0117 16.695 61.8301 14.2719 61.376C13.7489 61.2776 13.4104 60.782 13.5065 60.2674C13.6065 59.7528 14.1104 59.416 14.6335 59.5144C22.5796 61.0128 28.1335 59.3214 30.4681 58.349C25.5989 53.5739 27.0181 45.3328 27.0873 44.9582C27.1796 44.4436 27.6796 44.103 28.2027 44.1939C28.7258 44.2847 29.0719 44.7766 28.9796 45.2912C28.9642 45.3782 27.495 53.9939 32.7719 57.8079C33.0296 57.9933 33.1758 58.2922 33.1642 58.6063C33.1527 58.9203 32.9796 59.2079 32.7104 59.3744C32.4912 59.5106 28.2681 62.0117 20.8912 62.0117H20.8873Z" fill="black"/>
<path d="M12.5444 56.9038C12.0944 56.9038 11.6906 56.5898 11.6021 56.1357C11.5867 56.0676 10.2483 49.1282 10.2175 40.7849C10.1713 29.4752 12.4175 21.079 16.8867 15.8384C20.429 11.6838 25.3329 9.62545 31.456 9.71626C34.5252 9.76166 37.4136 10.6206 39.8175 12.1946C43.2636 14.4536 45.8483 17.9498 47.2906 22.3011C47.456 22.7968 47.179 23.3303 46.6752 23.493C46.1713 23.6557 45.629 23.3833 45.4636 22.8876C44.1406 18.8881 41.8829 15.8195 38.756 13.7687C36.6636 12.3952 34.129 11.6498 31.4329 11.6081C25.9252 11.5325 21.5213 13.3563 18.3675 17.053C13.179 23.1373 12.1213 33.293 12.1483 40.7433C12.1752 48.9163 13.4867 55.7081 13.4983 55.7763C13.5983 56.2909 13.256 56.7865 12.7367 56.8849C12.6752 56.8963 12.6136 56.9038 12.5521 56.9038H12.5444Z" fill="black"/>
<path d="M59.3597 15.6C59.0482 15.6 58.7444 15.4524 58.5559 15.1762C50.9867 3.94974 39.3444 10.0681 38.852 10.333C38.3867 10.5865 37.802 10.4162 37.5444 9.96218C37.2867 9.50434 37.4559 8.9292 37.9213 8.67947C38.0559 8.6038 51.5982 1.43731 60.1559 14.1319C60.4482 14.567 60.329 15.1535 59.8867 15.4449C59.7251 15.5508 59.5405 15.6038 59.3559 15.6038L59.3597 15.6Z" fill="black"/>
<path d="M62.7295 34.2542C62.3257 34.2542 61.9488 34.0007 61.8141 33.6034C60.5372 29.7553 58.6603 27.2996 56.2411 26.3083C53.3526 25.1239 50.5795 26.4596 50.5526 26.4747C50.0795 26.7093 49.5026 26.5201 49.2603 26.0585C49.0218 25.5931 49.2064 25.0255 49.6795 24.791C49.8218 24.7191 53.2334 23.0428 56.9488 24.5526C59.9218 25.7596 62.1757 28.6088 63.6372 33.0169C63.8026 33.5126 63.5257 34.0461 63.0218 34.2088C62.9218 34.2391 62.8218 34.2542 62.7218 34.2542H62.7295Z" fill="black"/>
<path d="M64.1945 59.4086C63.2253 59.4086 62.2407 59.2951 61.2868 59.0113C60.9868 58.9205 60.7484 58.6935 60.6522 58.4021C60.5561 58.1108 60.6099 57.7854 60.7984 57.5394C63.4368 54.081 62.4753 48.8405 62.4638 48.7875C62.3676 48.2729 62.7099 47.781 63.233 47.6826C63.7561 47.5881 64.2561 47.9248 64.3561 48.4394C64.3984 48.6626 65.283 53.4945 63.1253 57.4599C65.9214 57.7816 68.9176 56.7108 70.0945 56.2302C70.9368 31.4351 62.5061 22.8345 62.4214 22.7475C62.0484 22.3805 62.0445 21.7789 62.4214 21.4118C62.7945 21.041 63.3984 21.0372 63.7753 21.4043C64.1522 21.7713 73.033 30.6897 71.9984 56.8924C71.983 57.2405 71.7791 57.5508 71.4599 57.7059C71.2791 57.7929 67.8714 59.4124 64.1984 59.4124L64.1945 59.4086Z" fill="black"/>
<path d="M32.7521 24.6393C29.7444 24.6393 27.4598 23.4285 27.1675 21.5215C26.9867 20.3447 27.606 19.1679 28.9175 18.2069C30.0521 17.3744 31.6175 16.7766 33.3252 16.5231C35.0329 16.2696 36.7098 16.3831 38.0444 16.8485C39.5829 17.382 40.529 18.3279 40.7137 19.5047C41.0637 21.7787 38.4175 23.9279 34.556 24.5031C33.9367 24.5939 33.3329 24.6393 32.756 24.6393H32.7521ZM35.0752 18.2825C34.5983 18.2825 34.106 18.3204 33.6137 18.3923C32.2329 18.5966 30.9406 19.0847 30.0675 19.7242C29.3752 20.2312 29.0021 20.7987 29.0714 21.2377C29.206 22.1231 31.2521 23.0804 34.2675 22.6339C37.056 22.2177 38.9637 20.7874 38.8098 19.7885C38.7406 19.3458 38.2175 18.9144 37.4021 18.6306C36.7406 18.3998 35.9329 18.2825 35.0752 18.2825Z" fill="black"/>
<path d="M54.8138 21.915C51.5908 21.915 49.1485 20.5869 48.9177 18.5777C48.6562 16.2923 51.3869 14.2452 55.2677 13.8177C59.1485 13.3901 62.2715 14.7939 62.5292 17.0793C62.7908 19.3647 60.06 21.4117 56.1792 21.8393C55.71 21.8923 55.2562 21.915 54.8138 21.915ZM56.5946 15.6377C56.2369 15.6377 55.8638 15.6566 55.4831 15.6982C52.6831 16.0085 50.7177 17.3631 50.8292 18.3696C50.9446 19.376 53.1638 20.269 55.9677 19.9625C58.7677 19.6523 60.7331 18.2977 60.6215 17.2912C60.5215 16.4247 58.8523 15.6377 56.5985 15.6377H56.5946Z" fill="black"/>
<path d="M39.76 20.5911C39.4139 20.5911 39.0754 20.4057 38.9062 20.0802C38.6639 19.6148 38.8447 19.0473 39.3177 18.8051C39.5139 18.7067 44.2062 16.3646 50.0639 17.5451C50.5831 17.6511 50.9177 18.1505 50.8139 18.6613C50.7062 19.1721 50.1985 19.5013 49.6793 19.3992C44.4754 18.3511 40.2447 20.4624 40.2024 20.4851C40.06 20.557 39.91 20.5911 39.76 20.5911Z" fill="black"/>
<path d="M22.723 45.6544C21.0345 45.6544 19.796 45.189 19.0307 44.2582C17.4537 42.336 18.6576 39.4112 18.7999 39.0858C18.8037 39.0744 18.8114 39.0593 18.8191 39.0479C19.6422 37.3755 20.7537 36.3993 22.1191 36.1533C24.3114 35.756 26.2114 37.489 26.2922 37.5609C26.6768 37.9204 26.696 38.5182 26.3307 38.8966C25.9691 39.275 25.3614 39.2939 24.973 38.9382C24.6191 38.6166 23.4807 37.822 22.4576 38.0112C21.7345 38.1436 21.096 38.7642 20.5576 39.8463C20.296 40.4631 19.8037 42.1923 20.5268 43.0701C21.1191 43.789 22.6268 43.9555 24.7768 43.5393C25.296 43.4409 25.8037 43.7739 25.9076 44.2847C26.0114 44.7955 25.6691 45.295 25.1499 45.3971C24.2576 45.5712 23.4499 45.6544 22.723 45.6544Z" fill="black"/>
<path d="M47.0385 72.6596C47.0193 72.6596 47 72.6596 46.9769 72.6596C37.6269 72.0959 33.1923 65.058 33.0077 64.7591C32.7346 64.3126 32.877 63.7299 33.3308 63.4613C33.7846 63.1888 34.3769 63.3326 34.65 63.7791C34.7 63.8586 38.7846 70.2721 47.0923 70.7715C47.6231 70.8018 48.0269 71.2521 47.9923 71.7742C47.9616 72.2775 47.5385 72.6634 47.0346 72.6634L47.0385 72.6596Z" fill="black"/>
<path d="M53.3608 72.6596C52.98 72.6596 52.6146 72.4325 52.4685 72.0617C52.2723 71.5774 52.5146 71.025 53.0069 70.832C53.0608 70.8093 58.58 68.6071 60.7069 64.3693C60.9416 63.9001 61.5185 63.7071 61.9954 63.9417C62.4723 64.1725 62.6685 64.7401 62.43 65.2093C59.9723 70.1055 53.9685 72.4931 53.7146 72.5914C53.5993 72.6368 53.48 72.6596 53.3608 72.6596Z" fill="black"/>
<path d="M49.4102 90.4055C49.2102 90.4055 49.014 90.345 48.8486 90.2277C48.6294 90.0687 48.4832 89.8266 48.4563 89.5617L47.1063 77.132L44.4409 81.332C44.2871 81.5779 44.0256 81.7406 43.7332 81.7709C43.4409 81.805 43.1486 81.7028 42.9448 81.4985L28.6563 67.3131C28.2833 66.9423 28.2871 66.3444 28.664 65.9736C29.0409 65.6066 29.6486 65.6104 30.0256 65.9812L43.4602 79.3152L46.9602 73.806C47.1794 73.4655 47.5909 73.2952 47.9909 73.386C48.3909 73.4769 48.6871 73.806 48.7332 74.2071L50.264 88.3168L54.6371 87.3898L52.4256 74.4682C52.3563 74.0596 52.564 73.6509 52.9409 73.4655C53.3179 73.2801 53.7756 73.3558 54.0679 73.6547L58.2448 77.9417L62.5486 68.7358C62.7717 68.2628 63.3409 68.0547 63.8256 68.2704C64.3063 68.4898 64.5179 69.0498 64.2986 69.5266L59.4063 79.9963C59.2717 80.2801 59.0063 80.4806 58.6909 80.5336C58.3756 80.5866 58.0563 80.4806 57.8371 80.2574L54.8409 77.185L56.6871 87.9725C56.7717 88.472 56.4448 88.9487 55.9409 89.0547L49.6256 90.3979C49.5602 90.4131 49.4909 90.4206 49.4217 90.4206L49.4102 90.4055Z" fill="black"/>
<path d="M22.414 111.98C21.9024 111.98 21.4793 111.587 21.4524 111.08C21.4255 110.558 21.837 110.115 22.3678 110.089L67.1293 107.947L64.2178 82.1794C64.1601 81.661 64.5409 81.1918 65.0678 81.1351C65.5986 81.0783 66.0717 81.4529 66.1293 81.9713L69.1524 108.738C69.1832 108.999 69.1024 109.256 68.9293 109.457C68.7563 109.653 68.5101 109.775 68.2447 109.79L22.464 111.98C22.464 111.98 22.4332 111.98 22.4178 111.98H22.414Z" fill="black"/>
<path d="M19.1944 110.573C19.1944 110.573 19.1751 110.573 19.1674 110.573C18.6367 110.558 18.2174 110.122 18.2328 109.6L19.1828 76.0419C19.1982 75.5198 19.6521 75.1073 20.1713 75.1225C20.7021 75.1376 21.1213 75.5727 21.1059 76.0949L20.1559 109.653C20.1405 110.168 19.7136 110.573 19.1944 110.573Z" fill="black"/>
<path d="M13.4608 105.155C13.1454 105.155 12.8377 105.003 12.6531 104.723C7.41464 96.7546 6.48387 87.1173 9.96464 76.8595C12.5723 69.1708 16.6646 63.9114 16.8377 63.6919C17.1608 63.2795 17.7646 63.2038 18.1877 63.5216C18.6108 63.8395 18.6839 64.4335 18.3608 64.8498C18.3185 64.9027 14.2685 70.1168 11.7723 77.5141C8.4608 87.3254 9.29926 96.1379 14.2723 103.698C14.5608 104.137 14.4339 104.723 13.9877 105.007C13.8262 105.109 13.6454 105.158 13.4685 105.158L13.4608 105.155Z" fill="black"/>
<path d="M85.1376 94.0681C84.203 94.0681 83.503 93.8373 83.003 93.3719C82.2184 92.6454 82.2646 91.5897 82.4261 91.0449C82.4569 90.8557 82.153 90.7157 82.153 90.7157C82.1338 90.7081 82.1146 90.6968 82.0953 90.6892C81.1722 90.2276 80.6453 89.6108 80.5261 88.8654C80.3646 87.8211 81.1222 87.0568 81.2069 86.9735C81.2184 86.9622 81.2338 86.9508 81.2453 86.9395C81.4107 86.7957 81.2222 86.5006 81.1415 86.3908C80.2184 85.5887 80.1338 84.8319 80.2338 84.3287C80.4722 83.0914 81.9453 82.5427 82.2376 82.4481C82.4146 82.3914 82.5146 82.3384 82.5684 82.3006C82.5184 82.187 82.3876 82.0016 82.2646 81.8881C82.2146 81.8427 82.1646 81.7822 82.1261 81.7254C81.3299 80.56 81.1569 79.5762 81.6107 78.8006C82.253 77.7033 83.7722 77.707 84.1684 77.726C86.5453 77.6995 88.6415 78.5887 88.7299 78.6265C89.2184 78.8346 89.4415 79.3908 89.2299 79.8714C89.0184 80.3519 88.453 80.5714 87.9646 80.3633C87.9338 80.3519 86.1146 79.5989 84.153 79.6179C84.1261 79.6179 84.103 79.6179 84.0761 79.6179C83.7915 79.6027 83.4146 79.6633 83.2838 79.7465C83.2876 79.8297 83.3338 80.087 83.6646 80.5941C83.9646 80.8968 84.6838 81.7406 84.4646 82.7281C84.3569 83.2124 83.9915 83.867 82.8415 84.2416C82.5684 84.3362 82.2338 84.5368 82.1338 84.6654C82.1646 84.7184 82.2453 84.8357 82.453 85.0097C82.4915 85.0438 82.5299 85.0779 82.5646 85.1195C83.1953 85.846 83.703 87.2951 82.5415 88.3319C82.4799 88.4 82.4146 88.5324 82.4222 88.5779C82.4299 88.6195 82.5415 88.786 82.9376 88.9903C83.7992 89.3687 84.5838 90.307 84.2876 91.5027C84.2838 91.5254 84.2761 91.5481 84.2684 91.5708C84.253 91.62 84.2069 91.8962 84.3223 91.9984C84.353 92.0287 85.1684 92.6984 89.1953 91.166C89.6915 90.9768 90.2492 91.2189 90.4376 91.707C90.6299 92.1951 90.3838 92.7438 89.8876 92.9292C87.8915 93.6897 86.3223 94.0681 85.1338 94.0681H85.1376Z" fill="black"/>
<path d="M90.3638 91.3171C90.2561 91.3171 90.1446 91.2982 90.0369 91.2603C89.5369 91.0825 89.2792 90.5414 89.4561 90.0495C91.3331 84.9112 88.7062 81.8955 88.5946 81.7668C88.2446 81.3771 88.2792 80.7793 88.6754 80.4349C89.0715 80.0868 89.6715 80.1171 90.0254 80.5068C90.1715 80.6658 93.5485 84.4495 91.2677 90.6928C91.1254 91.0787 90.7561 91.3171 90.3638 91.3171Z" fill="black"/>
<path d="M82.9564 99.0477C82.4564 99.0477 82.0333 98.6693 81.9987 98.1699C81.9602 97.6477 82.3564 97.1936 82.8871 97.1558L89.6064 96.6715C90.1371 96.6299 90.5948 97.0234 90.6371 97.5455C90.6794 98.0677 90.2794 98.5217 89.7487 98.5596L83.0294 99.0439C83.0064 99.0439 82.9833 99.0439 82.9602 99.0439L82.9564 99.0477Z" fill="black"/>
<path d="M86.5143 98.7901C85.9835 98.7901 85.5527 98.3663 85.5527 97.8442L85.5604 93.3112C85.5604 92.789 85.9912 92.3652 86.522 92.3652C87.0527 92.3652 87.4835 92.789 87.4835 93.3112L87.4758 97.8442C87.4758 98.3663 87.045 98.7901 86.5143 98.7901Z" fill="black"/>
<path d="M85.8643 79.0387C85.5912 79.0387 85.3335 78.9252 85.1489 78.7247L76.572 69.3485C76.3181 69.0722 76.2527 68.6749 76.4066 68.3344C76.5604 67.9939 76.8989 67.7744 77.2758 67.7668L94.3258 67.5776C94.7143 67.5852 95.0527 67.7895 95.2104 68.1263C95.3681 68.463 95.3104 68.8641 95.0643 69.1441L86.5873 78.7095C86.4066 78.9139 86.145 79.0311 85.872 79.0349H85.8643V79.0387ZM79.422 69.6398L85.8489 76.6663L92.2027 69.496L79.422 69.6398Z" fill="black"/>
<path d="M78.4604 83.0231C78.4604 83.0231 78.4335 83.0231 78.4181 83.0231C68.4258 82.6144 65.4373 72.0652 65.4104 71.9593C65.2719 71.4561 65.5758 70.9377 66.0912 70.8015C66.6066 70.6652 67.1335 70.9642 67.2681 71.4712C67.2758 71.4939 67.9412 73.8739 69.6912 76.2501C71.9681 79.3452 74.9296 80.9874 78.4989 81.135C79.0296 81.1577 79.4412 81.5966 79.4181 82.1188C79.395 82.6258 78.9719 83.0269 78.4566 83.0269L78.4604 83.0231Z" fill="black"/>
<path d="M71.5218 100.251C70.1872 100.251 69.3987 100.046 69.3218 100.024C68.8102 99.8838 68.5102 99.3616 68.6526 98.8584C68.7949 98.3551 69.3218 98.06 69.8333 98.2C69.8987 98.2151 74.0833 99.2367 79.9756 95.7481C80.4295 95.4794 81.0218 95.6232 81.2949 96.0697C81.5679 96.5162 81.4218 97.0989 80.9679 97.3676C76.9218 99.7627 73.5756 100.251 71.5218 100.251Z" fill="black"/>
<path d="M66.5641 95.3621C66.4602 95.3621 66.3564 95.347 66.2525 95.3129C65.7487 95.1427 65.4833 94.6054 65.6525 94.1135L70.7795 79.3567C70.9525 78.861 71.4987 78.6 71.9987 78.7665C72.5025 78.9367 72.7679 79.474 72.5987 79.9659L67.4718 94.7227C67.3371 95.1162 66.9602 95.3621 66.5602 95.3621H66.5641Z" fill="black"/>
<path d="M22.4149 106.135C21.8918 106.135 21.4649 105.726 21.4534 105.207C21.4418 104.685 21.8649 104.254 22.3957 104.243L67.2726 103.293C67.8072 103.278 68.2418 103.698 68.2534 104.22C68.2649 104.742 67.8418 105.173 67.311 105.185L22.4341 106.135C22.4341 106.135 22.4187 106.135 22.4149 106.135Z" fill="black"/>
<path d="M66.2037 95.5477H23.3268C22.796 95.5477 22.3652 95.1239 22.3652 94.6017C22.3652 94.0795 22.796 93.6558 23.3268 93.6558H66.1998C66.7306 93.6558 67.1614 94.0795 67.1614 94.6017C67.1614 95.1239 66.7306 95.5477 66.1998 95.5477H66.2037Z" fill="black"/>
<path d="M48.3407 85.1836C48.3407 85.1836 48.3253 85.1836 48.3138 85.1836L23.3022 84.5404C22.7714 84.5252 22.3522 84.0939 22.3676 83.5717C22.383 83.0496 22.833 82.6371 23.3522 82.6523L48.3638 83.2955C48.8945 83.3106 49.3137 83.742 49.2984 84.2642C49.283 84.7787 48.8561 85.1836 48.3368 85.1836H48.3407Z" fill="black"/>
<path d="M63.4108 85.6681C63.4108 85.6681 63.3724 85.6681 63.3531 85.6681L55.0031 85.1838C54.4724 85.1535 54.0685 84.707 54.0993 84.1849C54.1301 83.6627 54.5839 83.2692 55.1147 83.2957L63.4647 83.78C63.9955 83.8103 64.3993 84.2568 64.3685 84.7789C64.3378 85.2822 63.9147 85.6681 63.4108 85.6681Z" fill="black"/>
<path d="M35.9383 74.5701H23.3268C22.796 74.5701 22.3652 74.1463 22.3652 73.6242C22.3652 73.102 22.796 72.6782 23.3268 72.6782H35.9383C36.4691 72.6782 36.8999 73.102 36.8999 73.6242C36.8999 74.1463 36.4691 74.5701 35.9383 74.5701Z" fill="black"/>
<path d="M26.4026 133.397H16.1487C15.8718 133.397 15.6103 133.279 15.4295 133.079C15.2487 132.875 15.1603 132.606 15.1949 132.337L17.4141 114.198C17.4795 113.679 17.9526 113.309 18.4834 113.373C19.0103 113.437 19.3872 113.906 19.3218 114.425L17.2334 131.505H26.4026C26.9334 131.505 27.3641 131.929 27.3641 132.451C27.3641 132.973 26.9334 133.397 26.4026 133.397Z" fill="black"/>
<path d="M41.2377 135.675H26.9301C26.6647 135.675 26.4108 135.565 26.2301 135.376C26.0493 135.187 25.957 134.929 25.9724 134.668L26.7262 123.321C26.7608 122.798 27.2147 122.401 27.7493 122.439C28.2801 122.473 28.6801 122.923 28.6454 123.446L27.957 133.787H41.2377C41.7685 133.787 42.1993 134.21 42.1993 134.733C42.1993 135.255 41.7685 135.678 41.2377 135.678V135.675Z" fill="black"/>
<path d="M42.2877 136.708C42.0377 136.708 41.7992 136.613 41.6185 136.443C41.43 136.265 41.3262 136.019 41.3262 135.762V123.381C41.3262 122.859 41.7569 122.435 42.2877 122.435C42.8185 122.435 43.2492 122.859 43.2492 123.381V134.782L57.3762 134.29L56.3992 121.383C56.3608 120.861 56.7569 120.407 57.2877 120.369C57.8185 120.328 58.28 120.721 58.3185 121.243L59.3685 135.13C59.3877 135.387 59.2992 135.641 59.1262 135.83C58.9531 136.023 58.7069 136.136 58.4454 136.144L42.3262 136.708C42.3262 136.708 42.3031 136.708 42.2916 136.708H42.2877Z" fill="black"/>
<path d="M58.4062 134.831C57.8985 134.831 57.4754 134.441 57.4485 133.934C57.4216 133.412 57.8293 132.965 58.3562 132.939L69.8524 132.341L66.0255 112.007C65.9293 111.492 66.2755 111.001 66.7947 110.906C67.3178 110.808 67.8178 111.152 67.9139 111.663L71.9408 133.056C71.9908 133.325 71.9216 133.601 71.7524 133.813C71.5793 134.025 71.3254 134.157 71.0485 134.172L58.4562 134.831C58.4562 134.831 58.4216 134.831 58.4062 134.831Z" fill="black"/>
<path d="M20.1456 179.827C19.6187 179.827 19.1879 179.411 19.184 178.889L18.711 132.458C18.7071 131.936 19.1302 131.509 19.6648 131.501H19.6763C20.2033 131.501 20.634 131.917 20.6379 132.436L21.111 178.866C21.1148 179.389 20.6917 179.816 20.1571 179.82H20.1456V179.827Z" fill="black"/>
<path d="M43.3765 181.152C43.3765 181.152 43.3496 181.152 43.3342 181.152C42.8034 181.129 42.3919 180.686 42.415 180.168L44.3458 135.989C44.3688 135.466 44.815 135.058 45.3458 135.084C45.8765 135.107 46.2881 135.55 46.265 136.068L44.3342 180.247C44.3111 180.755 43.8881 181.152 43.3727 181.152H43.3765Z" fill="black"/>
<path d="M50.3452 181.152C49.8952 181.152 49.4914 180.838 49.4029 180.384L43.6952 151.37C43.5952 150.855 43.9337 150.359 44.4568 150.261C44.9798 150.162 45.4837 150.495 45.5837 151.01L51.2914 180.024C51.3914 180.539 51.0529 181.034 50.5299 181.133C50.4683 181.144 50.4068 181.152 50.3452 181.152Z" fill="black"/>
<path d="M69.5806 179.828C69.0768 179.828 68.6576 179.446 68.6229 178.946L65.6076 134.067C65.5729 133.545 65.9729 133.094 66.5037 133.06C67.0383 133.03 67.4922 133.42 67.5268 133.942L70.5422 178.821C70.5768 179.343 70.1768 179.794 69.646 179.828C69.6229 179.828 69.6037 179.828 69.5806 179.828Z" fill="black"/>
<path d="M44.9724 192.454C44.9724 192.454 44.957 192.454 44.9493 192.454L17.4493 191.777C16.9378 191.766 16.5263 191.361 16.5109 190.861L16.1801 180.236C16.1724 179.975 16.2724 179.726 16.457 179.54C16.6416 179.355 16.8916 179.253 17.1609 179.26L36.8224 179.684C37.3532 179.695 37.7763 180.127 37.7609 180.649C37.7455 181.171 37.2993 181.58 36.7801 181.572L18.1301 181.171L18.4032 189.904L44.0416 190.536L44.3147 182.121L39.7647 181.913C39.2339 181.89 38.8263 181.447 38.8493 180.925C38.8724 180.403 39.3224 180.002 39.8532 180.024L45.3493 180.278C45.8724 180.301 46.2801 180.736 46.2647 181.254L45.9339 191.539C45.9186 192.049 45.4916 192.454 44.9724 192.454Z" fill="black"/>
<path d="M48.7371 190.475C48.2409 190.475 47.8256 190.105 47.7794 189.616L46.9217 180.293C46.8986 180.036 46.9832 179.782 47.1525 179.589C47.3217 179.396 47.5679 179.279 47.8294 179.264L73.5025 177.913C73.7679 177.898 74.0256 177.993 74.214 178.171C74.4063 178.348 74.514 178.598 74.514 178.855V188.599C74.514 189.106 74.1063 189.526 73.5909 189.545L48.7756 190.475C48.7756 190.475 48.7525 190.475 48.7371 190.475ZM48.9256 181.099L49.6102 188.549L72.5871 187.69V179.854L48.9217 181.099H48.9256Z" fill="black"/>
<path d="M52.2421 201.217C52.2421 201.217 52.2267 201.217 52.2152 201.217L19.8844 200.393C19.3767 200.381 18.9652 199.976 18.9498 199.477L18.7114 192.042C18.696 191.52 19.1114 191.084 19.6421 191.066C20.1806 191.047 20.6152 191.459 20.6344 191.981L20.8421 198.523L51.519 199.307C51.7113 198.452 51.896 196.893 51.1383 195.633C50.4844 194.543 49.2075 193.843 47.3498 193.559C46.8267 193.48 46.4652 192.995 46.5498 192.477C46.6306 191.962 47.1229 191.607 47.6498 191.69C50.1114 192.068 51.8421 193.075 52.8037 194.687C54.3613 197.301 53.1998 200.468 53.1498 200.601C53.0114 200.971 52.6498 201.217 52.2498 201.217H52.2421Z" fill="black"/>
<path d="M52.614 199.42C52.0909 199.42 51.6601 199.007 51.6524 198.489C51.6448 197.967 52.0678 197.536 52.5986 197.528L80.5563 197.108C80.6986 195.927 80.7909 193.57 79.5563 192.026C78.764 191.031 77.4909 190.509 75.7717 190.475C75.2409 190.464 74.8178 190.032 74.8294 189.51C74.8409 188.988 75.2871 188.576 75.8101 188.583C78.1371 188.632 79.9063 189.4 81.0717 190.865C83.3217 193.699 82.3524 198.065 82.3101 198.247C82.214 198.674 81.8294 198.977 81.3871 198.985L52.6217 199.416C52.6217 199.416 52.6101 199.416 52.6063 199.416L52.614 199.42Z" fill="black"/>
<path d="M12.9646 119.518C11.8761 119.518 11.0876 119.242 10.5761 118.686C9.67609 117.709 10.1261 116.434 10.1799 116.294C10.2415 116.132 10.3453 115.992 10.4838 115.886C9.59148 115.545 9.02609 115.042 8.79917 114.38C8.41455 113.267 9.19532 112.321 9.28378 112.219C9.34532 112.147 9.4184 112.083 9.50301 112.034C9.97224 111.742 10.1838 111.515 10.2838 111.368H10.2684C9.44148 111.368 8.79532 111.16 8.34917 110.747C7.78763 110.233 7.75686 109.608 7.76455 109.404C7.8184 106.49 11.9184 105.359 12.0915 105.31C12.603 105.17 13.1338 105.469 13.2722 105.972C13.4107 106.475 13.1107 106.994 12.5992 107.134C11.8607 107.334 9.7684 108.174 9.68763 109.385C9.78763 109.442 10.1261 109.533 10.8338 109.434C11.1107 109.396 11.3915 109.48 11.5992 109.657C11.953 109.96 12.3415 110.581 12.2838 111.334C12.2184 112.136 11.6876 112.874 10.6953 113.528C10.6453 113.619 10.6069 113.729 10.6222 113.77C10.653 113.854 10.9569 114.13 11.9222 114.33C11.9492 114.334 11.9722 114.342 11.9992 114.349C12.3838 114.463 12.8684 114.803 12.9646 115.401C13.0838 116.154 12.5146 116.756 11.9492 117.183C11.9492 117.274 11.9569 117.369 12.0069 117.422C12.0299 117.444 12.5761 117.978 15.3146 117.259C15.8261 117.123 16.353 117.426 16.4915 117.929C16.6299 118.432 16.3222 118.95 15.8107 119.087C14.703 119.378 13.7569 119.522 12.9684 119.522L12.9646 119.518ZM9.68378 109.461C9.68378 109.461 9.68378 109.483 9.68378 109.499C9.68378 109.487 9.68378 109.472 9.68378 109.461Z" fill="black"/>
<rect x="10.1543" y="81.4131" width="10" height="1.91419" transform="rotate(6.82022 10.1543 81.4131)" fill="black"/>
</svg>
