<svg width="100" height="210" viewBox="0 0 100 210" fill="none" xmlns="http://www.w3.org/2000/svg">
<path d="M28.7324 37.6537C28.7324 37.6537 28.666 72.288 40.9355 84.7132L50.0001 90.5546L66.5343 80.7348C66.5343 80.7348 69.3552 65.733 68.794 57.3078C68.794 57.3078 75.6432 60.9186 74.3398 49.47C74.3398 49.47 71.3712 45.5348 69.0857 48.0249L66.9737 41.8411L50.7866 33.7402L28.7324 37.6537Z" fill="white"/>
<path d="M74.1594 52.6449C74.1594 52.6449 72.2135 58.5043 68.7944 57.3079V61.416L71.2572 63.7043L74.5766 66.944C74.5766 66.944 75.9686 58.0611 75.8615 57.7476C75.7544 57.434 79.0738 59.2106 79.0738 59.5241C79.0738 59.8376 78.6455 47.6863 78.6455 47.6863L82.072 50.0142C82.072 50.0142 78.1101 32.4575 78.1101 32.1439C78.1101 31.8304 83.2498 32.771 83.2498 32.771L68.6874 14.5872L71.0431 12.1259H60.3391L61.9415 6.54035L56.8018 10.0935L53.4824 3.92773L52.5187 10.9295C45.1304 5.18179 33.352 5.70431 33.352 5.70431L36.7784 9.989L16.8621 15.8412L26.6061 20.962L15.8984 34.5476H26.9274L23.3938 42.4899L33.7803 36.9512L33.9944 42.4899L38.92 36.8467L41.9181 42.4899L45.3446 38.2052L49.2363 42.4899L52.7329 36.8467L64.4043 49.1782L66.3317 43.0124L68.7944 47.6863C68.7944 47.6863 74.9643 46.6304 74.1594 52.6485V52.6449Z" fill="#67A9F9"/>
<g opacity="0.2">
<path d="M85.8117 168.631C85.509 168.631 85.2616 168.393 85.2579 168.094C85.1028 150.281 79.2689 128.67 79.2099 128.454C79.1323 128.166 79.3059 127.87 79.6013 127.795C79.8966 127.715 80.1994 127.888 80.2769 128.177C80.336 128.393 86.2031 150.133 86.3619 168.083C86.3619 168.382 86.1182 168.627 85.8117 168.627H85.808L85.8117 168.631Z" fill="#231F20"/>
</g>
<g opacity="0.2">
<path d="M64.7837 192.361C62.4834 192.361 60.929 192.285 60.7259 192.274C56.1917 192.361 53.6847 191.813 53.0754 190.591C52.7542 189.95 53.0422 189.334 53.2637 189.071C53.3191 189.006 53.3893 188.952 53.4705 188.916C55.4385 188.072 55.7745 187.362 55.8299 187.096C55.8668 186.908 55.8114 186.768 55.7671 186.692C53.0791 185.517 51.6613 184.235 51.5542 182.883C51.4545 181.633 52.4994 180.822 52.7653 180.638C55.3093 178.098 55.4422 176.725 55.2908 176.13C55.1099 175.409 54.3862 175.161 54.3788 175.161C54.3567 175.153 54.3345 175.146 54.3123 175.135C51.5763 173.878 50.0219 172.418 49.697 170.804C49.4053 169.373 50.1917 168.335 50.3874 168.108C53.3154 163.406 52.3185 159.979 52.3074 159.943C52.3074 159.932 52.3 159.917 52.2963 159.903C50.4022 151.683 49.9074 138.937 49.9037 138.811C49.8927 138.512 50.1327 138.263 50.4354 138.253C50.7382 138.238 50.9967 138.476 51.0077 138.771C51.0114 138.898 51.5025 151.525 53.3708 159.647C53.4742 160.004 54.449 163.69 51.3068 168.703C51.2883 168.732 51.2662 168.761 51.244 168.786C51.2182 168.815 50.561 169.553 50.7825 170.609C51.0447 171.842 52.4182 173.067 54.7591 174.148C54.988 174.231 56.0625 174.681 56.3616 175.874C56.7271 177.326 55.7671 179.197 53.5148 181.435C53.4853 181.463 53.452 181.489 53.4188 181.51C53.4114 181.514 52.5917 182.051 52.6545 182.808C52.6988 183.341 53.2416 184.429 56.3431 185.762C56.4096 185.791 56.4687 185.831 56.5167 185.881C56.5757 185.939 57.0779 186.48 56.9117 187.308C56.7234 188.235 55.7708 189.089 54.0723 189.842C54.0428 189.914 54.017 190.022 54.0723 190.13C54.1757 190.328 54.9917 191.323 60.7222 191.2C60.737 191.2 60.7517 191.2 60.7665 191.2C60.9622 191.211 80.4724 192.235 87.7499 186.804C88.3296 186.177 89.6404 184.4 89.2416 183.168C89.0127 182.462 88.2225 181.964 86.8896 181.68C86.7419 181.651 85.42 181.348 85.1874 180.26C84.9696 179.233 85.8631 178.04 87.9234 176.624C87.953 176.606 87.9825 176.588 88.012 176.573C88.0231 176.57 89.1677 176.04 89.2305 175.175C89.2859 174.4 88.4773 173.471 86.897 172.476C86.6385 172.314 86.5647 171.979 86.7308 171.73C86.897 171.478 87.2403 171.406 87.4951 171.568C89.4705 172.804 90.4231 174.047 90.3345 175.258C90.2348 176.635 88.8243 177.391 88.5253 177.535C86.2767 179.092 86.2324 179.849 86.273 180.044C86.3468 180.393 86.9634 180.595 87.1222 180.627C88.876 180.999 89.9431 181.744 90.2976 182.847C90.9807 184.959 88.6324 187.471 88.5327 187.575C88.5105 187.597 88.4883 187.618 88.4662 187.636C85.2687 190.047 79.6157 191.561 71.6625 192.137C69.0927 192.325 66.6853 192.375 64.7874 192.375L64.7837 192.361Z" fill="#231F20"/>
</g>
<g opacity="0.2">
<path d="M39.1007 192.425C36.5789 192.425 34.6958 192.367 34.5038 192.36C32.0336 192.194 30.6933 191.611 30.3869 190.576C29.9327 189.034 32.1666 187.391 32.425 187.207C33.4773 186.421 34.0275 185.675 33.961 185.113C33.8872 184.497 33.1044 184.147 33.097 184.144C31.9487 183.625 31.2767 182.89 31.0921 181.953C30.7487 180.202 32.3143 178.421 32.5949 178.119C33.518 176.67 33.7949 175.434 33.4146 174.443C32.8792 173.045 31.1733 172.533 31.1549 172.529C31.1106 172.515 31.0663 172.497 31.0256 172.475C27.23 170.248 30.1949 161.733 30.4496 161.023C31.8749 154.447 30.446 133.164 30.4312 132.951C30.4127 132.652 30.6416 132.396 30.9481 132.374C31.2435 132.353 31.5167 132.58 31.5389 132.879C31.598 133.762 32.9973 154.598 31.5278 161.283C31.5241 161.304 31.5167 161.329 31.5093 161.351C30.6675 163.661 29.0466 169.953 31.55 171.517C31.9561 171.65 33.7838 172.335 34.4484 174.054C34.9653 175.391 34.6478 176.965 33.5069 178.735C33.4884 178.764 33.4663 178.792 33.4404 178.818C33.0158 179.257 31.9598 180.645 32.1813 181.751C32.2958 182.335 32.7463 182.792 33.5549 183.16C33.5992 183.178 34.91 183.751 35.0613 184.98C35.1832 185.967 34.5186 187.009 33.086 188.075C32.318 188.623 31.2767 189.693 31.4503 190.277C31.5056 190.468 31.897 191.102 34.5555 191.283C34.6552 191.283 46.3598 191.643 51.1819 190.555C51.481 190.49 51.7764 190.67 51.8466 190.958C51.9167 191.25 51.7284 191.538 51.433 191.607C48.4201 192.284 42.9998 192.425 39.097 192.425H39.1007Z" fill="#231F20"/>
</g>
<g opacity="0.2">
<path d="M54.3787 198.234C53.5738 198.234 52.8279 197.82 52.4181 197.139C51.9935 196.436 51.9935 195.597 52.4181 194.901C53.6919 192.822 55.719 191.438 55.8039 191.38C56.055 191.211 56.4021 191.272 56.5756 191.517C56.7491 191.762 56.6864 192.097 56.4353 192.27C56.4168 192.285 54.5153 193.582 53.3707 195.456C53.1565 195.809 53.1565 196.234 53.3707 196.591C53.5922 196.959 53.991 197.171 54.4156 197.153L82.4476 196.267C83.3596 196.238 84.1571 195.622 84.3824 194.771C84.6888 193.604 84.9288 191.964 84.3196 190.768C84.183 190.501 84.2938 190.177 84.567 190.043C84.8402 189.91 85.1725 190.018 85.3092 190.285C86.0735 191.777 85.8113 193.694 85.4532 195.042C85.1061 196.357 83.8839 197.305 82.4845 197.348L54.4525 198.234C54.4267 198.234 54.4045 198.234 54.3787 198.234Z" fill="#231F20"/>
</g>
<g opacity="0.2">
<path d="M49.1686 197.413C49.128 197.413 49.0873 197.409 49.0467 197.398C48.4264 197.344 42.1532 197.344 32.2024 197.398H32.1913C31.3236 197.398 30.5446 196.926 30.1569 196.166C29.7692 195.409 29.8541 194.519 30.3784 193.849C31.667 192.198 33.251 191.301 33.3175 191.261C33.5833 191.114 33.9193 191.2 34.0744 191.46C34.2258 191.719 34.1372 192.047 33.8713 192.198C33.8566 192.206 32.4092 193.034 31.2609 194.505C30.9913 194.851 30.947 195.294 31.1501 195.687C31.3532 196.083 31.7557 196.314 32.1987 196.317C49.2978 196.231 49.331 196.263 49.5637 196.49C49.7815 196.703 49.7815 197.045 49.5637 197.254C49.4566 197.359 49.3126 197.413 49.1723 197.413H49.1686Z" fill="#231F20"/>
</g>
<path d="M63.868 110.75C63.868 110.75 63.8459 110.75 63.8348 110.75L53.1271 110.123C52.8207 110.105 52.588 109.849 52.6065 109.55C52.625 109.251 52.8945 109.027 53.1936 109.042L63.9013 109.669C64.2077 109.687 64.4403 109.943 64.4219 110.242C64.4034 110.53 64.1597 110.75 63.868 110.75Z" fill="#231F20"/>
<path d="M72.3835 121.189C72.2321 121.189 72.0844 121.132 71.9736 121.013L65.933 114.584C65.7262 114.364 65.741 114.022 65.9662 113.82C66.1915 113.618 66.5422 113.633 66.749 113.853L72.7896 120.281C72.9964 120.501 72.9816 120.844 72.7564 121.045C72.6493 121.139 72.5164 121.186 72.3835 121.186V121.189Z" fill="#231F20"/>
<path d="M67.1334 129.787C65.7783 129.787 65.0398 128.241 65.0103 128.173C64.7555 127.575 64.0207 127.712 63.9358 127.73C62.9389 127.888 62.2078 127.73 61.7278 127.257C61.0669 126.609 61.2035 125.679 61.222 125.575C61.3881 124.85 60.5721 124.576 60.3617 124.519C59.4312 124.447 58.8183 124.119 58.5414 123.546C58.0429 122.522 58.9364 121.236 59.0398 121.095C59.302 120.735 59.4017 120.443 59.3241 120.27C59.206 120.011 58.6632 119.834 58.3346 119.794C58.294 119.791 58.2497 119.78 58.2127 119.766C56.9204 119.308 56.2226 118.685 56.1377 117.91C56.0121 116.778 57.2749 115.928 57.5001 115.784C59.5641 114.288 63.8029 113.676 63.9838 113.65C64.2866 113.607 64.5672 113.812 64.6115 114.108C64.6558 114.403 64.4454 114.677 64.1426 114.721C64.102 114.728 59.9814 115.319 58.15 116.659C58.1389 116.666 58.1278 116.677 58.113 116.685C57.8214 116.865 57.1974 117.398 57.2417 117.794C57.2786 118.101 57.7475 118.439 58.5414 118.728C58.8552 118.775 59.9629 118.994 60.3432 119.827C60.5943 120.378 60.4614 121.016 59.9481 121.719C59.6934 122.076 59.3869 122.757 59.5457 123.081C59.6786 123.348 60.1992 123.423 60.4983 123.441C60.5278 123.441 60.5574 123.448 60.5869 123.456C61.329 123.625 62.6435 124.331 62.3149 125.776C62.3149 125.776 62.2632 126.245 62.5217 126.494C62.7838 126.746 63.3118 126.728 63.7143 126.666C64.3161 126.537 65.5457 126.598 66.0294 127.737C66.1475 127.985 66.6349 128.721 67.1777 128.703C67.6429 128.674 68.8983 128.065 70.5377 123.041C70.63 122.757 70.9401 122.602 71.2318 122.692C71.5235 122.782 71.686 123.088 71.59 123.369C70.2127 127.593 68.7875 129.69 67.2404 129.78C67.2035 129.78 67.1703 129.78 67.137 129.78L67.1334 129.787Z" fill="#231F20"/>
<path d="M31.1545 105.283C31.1545 105.283 28.3484 123.11 30.9847 132.915L59.685 132.079L45.3404 116.685L46.5293 114.223L31.1508 105.279L31.1545 105.283Z" fill="#F8B3FF"/>
<path d="M29.4662 99.5532L21.2693 92.8613L19.7148 94.9442L22.7499 102.789L29.4662 104.303V99.5532Z" fill="#FFBA57"/>
<path d="M51.3105 191.081C46.3628 192.195 34.5216 191.82 34.5216 191.82C27.5358 191.352 32.753 187.644 32.753 187.644C36.3715 184.948 33.3253 183.651 33.3253 183.651C29.6145 181.979 33.041 178.447 33.041 178.447C36.2755 173.431 31.3167 172.011 31.3167 172.011C27.7831 169.939 30.9881 161.172 30.9881 161.172C32.4576 154.483 30.9881 132.916 30.9881 132.916L80.5167 131.33C80.5167 131.33 86.4465 158.249 85.8151 171.013L87.1961 172.011C92.3358 175.236 88.2447 177.056 88.2447 177.056C83.3893 180.4 87.0078 181.143 87.0078 181.143C92.7198 182.35 88.1302 187.193 88.1302 187.193C80.6311 192.847 60.7407 191.73 60.7407 191.73C56.1733 191.824 54.4121 191.244 53.7918 190.638L51.3179 191.078L51.3105 191.081Z" fill="#FFF080"/>
<path d="M79.225 123.834L80.5136 131.333L76.7031 131.456L77.5745 125.362L79.225 123.834Z" fill="white"/>
<path d="M49.1685 196.872C49.0762 196.782 37.5857 196.829 32.1986 196.858C30.7808 196.865 29.9611 195.279 30.8177 194.176C32.0546 192.594 33.5906 191.73 33.5906 191.73C33.5906 191.73 47.2891 192.14 53.7876 190.638C53.7876 190.638 69.8085 193.975 84.3156 189.196C84.3156 189.196 86.7857 194.504 83.3814 196.609L54.4337 197.69C54.4337 197.69 53.374 197.69 52.8977 196.868H49.1685V196.872Z" fill="#67A9F9"/>
<path d="M65.4493 111.795C65.309 111.795 65.165 111.741 65.0579 111.636C64.8401 111.427 64.8401 111.085 65.0579 110.872C70.2198 105.813 66.6567 99.8452 66.5016 99.5929C66.3465 99.3371 66.4278 99.0055 66.6899 98.8506C66.9521 98.6956 67.2918 98.7785 67.4505 99.0344C67.4911 99.1028 71.6228 105.964 65.8444 111.633C65.7373 111.737 65.5933 111.791 65.453 111.791L65.4493 111.795Z" fill="#231F20"/>
<path d="M50.1844 107.849L91.8151 112.195L77.5739 125.362L74.3616 147.831L45.3438 116.688L50.1844 107.849Z" fill="#2BE6AE"/>
<path d="M53.2379 111.603L29.4668 99.5527V104.302L51.6613 117.21L53.2379 111.603Z" fill="#FFF080"/>
<path d="M71.0576 123.208C67.8674 132.988 65.508 127.946 65.508 127.946C65.0686 126.912 63.8059 127.2 63.8059 127.2C61.4317 127.575 61.7603 125.662 61.7603 125.662C62.0594 124.354 60.4459 123.982 60.4459 123.982C57.7505 123.802 59.4859 121.406 59.4859 121.406C60.852 119.536 58.3929 119.254 58.3929 119.254C54.9037 118.018 57.8059 116.227 57.8059 116.227C59.7739 114.786 64.0532 114.184 64.0532 114.184L66.3351 112.703L72.3757 119.1L71.0539 123.204L71.0576 123.208Z" fill="white"/>
<path d="M31.4691 100.595C31.9934 96.2451 32.6322 91.755 33.5257 86.2126C33.5257 86.2126 25.4765 80.609 31.9454 75.9568C31.9454 75.9568 34.77 75.1315 36.9485 77.773C36.9485 77.773 42.2691 85.3261 49.6279 87.5135C49.6279 87.5135 59.0728 87.0523 69.0088 75.2865V72.2847C69.0088 72.2847 77.3682 71.0847 78.1583 79.9748C78.1583 79.9748 77.8814 82.6811 76.8512 84.0721C76.8512 84.0721 87.9872 95.8955 82.7848 110.627C82.7848 110.627 79.4137 118.443 73.6906 121.712L64.4599 112.486L66.3909 110.205L49.2365 109.578L32.9238 101.351L31.4691 100.595Z" fill="#F8B3FF"/>
<path d="M47.1592 92.9744L45.447 92.7754C44.6532 92.6832 43.9332 93.2364 43.8386 94.0111C43.7441 94.7858 44.311 95.4886 45.1047 95.5808L46.817 95.7798C47.6107 95.872 48.3308 95.3188 48.4253 94.5441C48.5198 93.7694 47.953 93.0666 47.1592 92.9744Z" fill="#FFF080"/>
<path d="M55.2654 92.8613H53.5411C52.7418 92.8613 52.0938 93.4938 52.0938 94.2739C52.0938 95.0541 52.7418 95.6866 53.5411 95.6866H55.2654C56.0648 95.6866 56.7128 95.0541 56.7128 94.2739C56.7128 93.4938 56.0648 92.8613 55.2654 92.8613Z" fill="#FFF080"/>
<path d="M30.1493 114.944C29.8022 113.07 31.3715 104.303 31.3715 104.303L25.4305 103.395C23.3887 105.398 19.7148 107.719 19.7148 107.719L24.2859 116.425C24.2859 116.425 27.2435 117.196 30.1493 114.948" fill="white"/>
<path d="M5.96484 106.623L16.9495 101.499L25.1279 119.877L16.3365 124.166L5.96484 106.623Z" fill="white"/>
<path d="M8.99219 111.741L20.7706 110.699L25.1276 119.878L16.3362 124.166L8.99219 111.741Z" fill="#FF6A2F"/>
<path d="M12.2321 121.715C19.7312 120.76 17.0912 118.302 17.0912 118.302C16.4266 117.585 17.1208 116.731 17.1208 116.731C18.2949 115.059 16.6408 114.601 16.6408 114.601C15.4851 114.349 15.7804 112.98 15.7804 112.98C16.6297 110.857 14.0709 111.297 14.0709 111.297C12.0697 111.646 12.7528 109.672 12.7528 109.672C13.0481 106.554 10.5448 108.108 10.5448 108.108C8.66537 109.081 7.38414 110.681 7.38414 110.681C7.38414 110.681 5.66721 118.281 12.2321 121.722" fill="white"/>
<path d="M33.9924 43.3914C33.8927 43.3914 33.7893 43.377 33.6896 43.341C33.3315 43.2184 33.0841 42.8941 33.0693 42.523L32.9106 38.4401L23.8312 43.2797C23.4841 43.4635 23.0595 43.413 22.7678 43.1536C22.4761 42.8941 22.3875 42.4833 22.5426 42.1302L25.5149 35.4491H15.8927C15.5419 35.4491 15.2207 35.2545 15.0656 34.9446C14.9106 34.6347 14.9475 34.2707 15.1616 33.9968L25.2084 21.2509L16.4207 16.6311C16.0921 16.4581 15.9038 16.1085 15.9407 15.7482C15.9776 15.3842 16.2361 15.0815 16.5943 14.977L35.2183 9.50314L32.6226 6.25629C32.4084 5.98962 32.3678 5.63287 32.5118 5.32656C32.6558 5.02025 32.9623 4.81845 33.3093 4.80404C33.7783 4.78242 44.2681 4.38242 51.8078 9.30854L52.5647 3.80584C52.6164 3.41665 52.9229 3.10674 53.3179 3.03827C53.713 2.97341 54.1081 3.15719 54.2964 3.50674L57.1247 8.76079L61.4041 5.80224C61.7253 5.58242 62.1499 5.58242 62.4712 5.80224C62.7924 6.02206 62.9327 6.41485 62.8293 6.78242L60.5807 14.6203C60.4441 15.0995 59.9383 15.3806 59.4435 15.2437C58.9524 15.1103 58.6644 14.613 58.8047 14.1338L60.3518 8.74278L57.3352 10.8257C57.1173 10.977 56.8441 11.0275 56.5856 10.9662C56.3272 10.9049 56.1093 10.7392 55.9838 10.5085L54.0121 6.84368L53.4324 11.0455C53.3881 11.3662 53.1702 11.6401 52.8638 11.7626C52.5536 11.8851 52.2029 11.8347 51.9444 11.6329C46.6275 7.49593 38.7961 6.73917 35.2515 6.61665L37.5038 9.43467C37.6921 9.6689 37.7475 9.97881 37.6552 10.2635C37.5629 10.5482 37.3339 10.768 37.0423 10.8545L19.2564 16.0797L27.0398 20.1698C27.2798 20.2959 27.4496 20.5157 27.505 20.7752C27.5604 21.0347 27.4976 21.3049 27.3352 21.5139L17.7721 33.6509H26.9253C27.2355 33.6509 27.5272 33.8022 27.697 34.0581C27.8669 34.3103 27.8964 34.6311 27.7709 34.9121L25.3081 40.4473L33.3352 36.1662C33.6158 36.0148 33.9555 36.0184 34.2324 36.1734C34.5093 36.3284 34.6866 36.6094 34.6976 36.923L34.8232 40.1518L38.2127 36.2671C38.4121 36.0401 38.7149 35.9212 39.0213 35.9572C39.3278 35.9896 39.5936 36.1698 39.7376 36.4365L42.0749 40.8329L44.6152 37.6545C44.929 37.2617 45.5087 37.1932 45.9112 37.4995C46.3136 37.8058 46.3838 38.3716 46.0699 38.7644L42.6435 43.0491C42.4515 43.2905 42.145 43.4166 41.8312 43.3914C41.5173 43.3626 41.2404 43.1824 41.0964 42.9085L38.7296 38.4545L34.6939 43.0779C34.5167 43.2833 34.2583 43.395 33.9924 43.395V43.3914Z" fill="#231F20"/>
<path d="M74.5745 67.8456C74.3345 67.8456 74.0982 67.7519 73.9209 67.5825L70.6015 64.3429C70.2397 63.9897 70.2397 63.4204 70.6015 63.0672C70.9634 62.7141 71.5468 62.7141 71.9086 63.0672L73.9357 65.0456C74.4563 61.6654 74.9289 58.3717 74.9437 57.8384C74.9142 57.5501 75.0249 57.2474 75.2428 57.0492C75.7375 56.6096 76.3357 56.869 76.6938 57.024C77.1 57.1969 77.5948 57.4276 78.0748 57.687L77.7203 47.7123C77.7092 47.3699 77.8938 47.0528 78.2003 46.8906C78.5068 46.7285 78.8834 46.7465 79.1677 46.9411L80.6594 47.9537C77.1812 32.5231 77.1812 32.2564 77.1812 32.1375C77.1812 31.8708 77.3178 31.5897 77.5283 31.4204C77.8126 31.1897 78.0489 30.9987 81.036 31.4708L67.9542 15.1393C67.6735 14.7897 67.6957 14.2924 68.0058 13.9681L68.9105 13.024H60.3332C59.8237 13.024 59.4102 12.6204 59.4102 12.1231C59.4102 11.6258 59.8237 11.2222 60.3332 11.2222H71.0372C71.4065 11.2222 71.7388 11.4348 71.8828 11.7627C72.0268 12.0906 71.9603 12.4726 71.7092 12.7357L69.8926 14.6348L83.9677 32.2132C84.204 32.5087 84.2298 32.9159 84.0305 33.2366C83.8311 33.5573 83.4508 33.7267 83.0705 33.6546C81.7339 33.4096 80.1942 33.1645 79.2231 33.0456C79.836 35.9069 81.6748 44.1087 82.9634 49.8168C83.0446 50.1807 82.8895 50.5519 82.5757 50.7609C82.2582 50.9663 81.8483 50.9627 81.5345 50.7501L79.6218 49.4492C79.7548 53.1969 79.9652 59.1357 79.9837 59.46C79.9837 59.4816 79.9837 59.4996 79.9837 59.5213C79.9837 60.0114 79.5812 60.4186 79.0754 60.4294C78.6545 60.4294 78.4145 60.2528 78.2852 59.9969C78.0378 59.7843 77.292 59.3519 76.6569 59.0204C76.5092 60.2744 76.1732 62.6132 75.4754 67.078C75.4237 67.4132 75.18 67.6906 74.8514 67.7987C74.7554 67.8276 74.6594 67.842 74.5634 67.842L74.5745 67.8456ZM78.1486 59.5249C78.1486 59.7375 78.2262 59.8888 78.2815 59.9681C78.2188 59.8312 78.1818 59.6798 78.1634 59.5249H78.1486Z" fill="#231F20"/>
<path d="M64.4037 50.0797C64.1489 50.0797 63.9015 49.9752 63.7243 49.7914L52.0529 37.4599C51.7058 37.0959 51.728 36.5229 52.1046 36.1878C52.4775 35.849 53.0646 35.8743 53.408 36.2382L63.9864 47.4166L65.4449 42.7535C65.5557 42.404 65.8695 42.1517 66.2461 42.1193C66.6227 42.0869 66.9772 42.2779 67.1507 42.6058L69.6135 47.2797C69.8461 47.7229 69.6689 48.2671 69.2147 48.4941C68.7606 48.7211 68.203 48.5481 67.9704 48.1049L66.5489 45.4058L65.2861 49.449C65.1901 49.759 64.9317 49.9932 64.6104 50.0653C64.5403 50.0797 64.4738 50.0869 64.4037 50.0869V50.0797Z" fill="#231F20"/>
<path d="M69.6716 58.3752C69.0587 58.3752 68.3867 58.2094 67.7221 57.7481C67.3085 57.4598 67.2125 56.8977 67.5079 56.4905C67.8033 56.0869 68.3793 55.9932 68.7965 56.2815C69.6199 56.8544 70.3842 56.4328 70.5651 56.3175C72.3227 54.6887 73.2236 53.1211 73.2384 51.6544C73.2494 50.4112 72.6107 49.604 72.4002 49.3734C71.5547 48.9121 70.4211 48.4761 69.6162 48.858C68.815 49.2364 68.4864 50.3643 68.4273 50.7643C68.3534 51.2544 67.8882 51.5968 67.3861 51.5319C66.8839 51.4635 66.5294 51.013 66.5959 50.5229C66.6107 50.4256 66.943 48.1337 68.7928 47.2436C70.0556 46.6382 71.6174 46.8508 73.4341 47.8743C73.4968 47.9103 73.5522 47.9499 73.6039 47.9968C73.663 48.0508 75.0845 49.3806 75.0808 51.6148C75.0808 53.6184 73.9694 55.6544 71.7799 57.6689C71.7578 57.6905 71.7356 57.7085 71.7097 57.7265C71.3147 58.0256 70.5578 58.3716 69.6679 58.3716L69.6716 58.3752Z" fill="#231F20"/>
<path d="M66.972 78.087C66.9055 78.087 66.8391 78.0797 66.7726 78.0653C66.2741 77.9572 65.9603 77.4779 66.0711 76.9915C67.7437 69.6437 67.8692 60.7536 67.8692 60.6635C67.8766 60.1698 68.2864 59.7734 68.7923 59.7734H68.8034C69.3129 59.7806 69.7228 60.1879 69.7154 60.6851C69.7117 61.0563 69.5861 69.8527 67.8729 77.3806C67.7769 77.8023 67.3966 78.087 66.972 78.087Z" fill="#231F20"/>
<path d="M46.8421 93.7626C46.7388 93.7626 46.6317 93.7446 46.5283 93.7086C36.3929 90.1302 30.4668 86.1662 28.916 81.9284C28.0557 79.568 28.9234 78.0401 29.0231 77.8743C29.9129 76.3896 31.0834 75.4923 32.4901 75.2221C34.8384 74.768 36.9246 76.2851 37.0132 76.35C37.1055 76.4185 37.1794 76.5014 37.2421 76.595C37.2901 76.6671 41.924 83.8707 49.7369 86.6023C51.0477 86.4401 59.6544 85.0059 68.2944 74.7212C68.6194 74.3356 69.1991 74.2815 69.5941 74.595C69.9892 74.9122 70.0446 75.4779 69.7234 75.8635C59.8391 87.6293 50.0988 88.3932 49.6889 88.4185C49.5671 88.4293 49.4415 88.4113 49.3271 88.3716C41.348 85.6761 36.5591 78.8833 35.78 77.7086C35.3923 77.4599 34.1221 76.7392 32.8446 76.995C31.9806 77.1644 31.2311 77.7734 30.6181 78.7968C30.5997 78.8293 30.0717 79.8059 30.6957 81.4203C31.6741 83.95 35.3258 87.8419 47.1597 92.0185C47.6397 92.1878 47.8871 92.7031 47.7135 93.1716C47.5769 93.5392 47.2224 93.7662 46.8458 93.7662L46.8421 93.7626Z" fill="#231F20"/>
<path d="M52.7317 93.7627C52.2221 93.7627 51.8086 93.3591 51.8086 92.8618C51.8086 92.3645 52.2221 91.9609 52.7317 91.9609C58.0043 91.9609 63.576 90.5411 63.6314 90.5267C63.6424 90.5267 63.6535 90.5194 63.6683 90.5194C78.4744 87.3194 77.2597 79.4204 77.2006 79.0852C75.8861 73.0276 70.9864 72.8906 68.1877 73.3483C68.0511 73.3699 67.9772 73.3843 67.8812 73.3843C67.3717 73.3843 66.9581 72.9807 66.9581 72.4834C66.9581 72.0149 67.3274 71.6258 67.7963 71.5861L67.8812 71.5717C73.6707 70.6203 77.832 73.3014 79.0098 78.7393C79.0911 79.1645 80.6972 88.6744 64.0818 92.2708C63.6572 92.3789 58.1446 93.7591 52.728 93.7591L52.7317 93.7627Z" fill="#231F20"/>
<path d="M75.2169 121.561C74.9585 121.561 74.7037 121.456 74.5228 121.251C74.1868 120.876 74.2274 120.307 74.6114 119.979C82.3431 113.391 84.972 105.485 82.428 96.4689C80.5043 89.6509 76.1917 84.7103 76.1511 84.6599C75.8188 84.2815 75.8631 83.7157 76.2471 83.3914C76.6348 83.0671 77.2145 83.1067 77.5468 83.4851C77.7351 83.6977 82.1437 88.7391 84.1892 95.9319C86.0982 102.642 86.1979 112.498 75.8262 121.337C75.6526 121.485 75.4348 121.561 75.2206 121.561H75.2169Z" fill="#231F20"/>
<path d="M65.4486 112.155C65.2123 112.155 64.976 112.069 64.7987 111.892C64.4369 111.543 64.4369 110.97 64.7987 110.616C69.776 105.737 66.224 99.8381 66.187 99.7804C65.9249 99.3552 66.0652 98.8002 66.5009 98.5444C66.9366 98.2885 67.5052 98.4255 67.7673 98.8507C67.8116 98.9228 72.0836 106.025 66.1058 111.889C65.9249 112.065 65.6886 112.155 65.4523 112.155H65.4486Z" fill="#231F20"/>
<path d="M32.0662 100.974C31.601 100.974 31.1985 100.631 31.1505 100.166C30.604 95.161 31.9665 89.3484 32.0256 89.1033C32.14 88.6204 32.6385 88.3177 33.1333 88.4294C33.628 88.5412 33.9382 89.0276 33.8237 89.5105C33.809 89.5682 32.4724 95.2763 32.9856 99.9754C33.041 100.469 32.6717 100.912 32.1659 100.966C32.1327 100.966 32.0994 100.97 32.0662 100.97V100.974Z" fill="#231F20"/>
<path d="M51.6605 118.112C51.4944 118.112 51.3319 118.069 51.1879 117.986L28.9934 105.078C28.7128 104.916 28.543 104.62 28.543 104.303V99.5571C28.543 99.24 28.7128 98.9481 28.9897 98.7859C29.2667 98.6238 29.6137 98.6129 29.898 98.7643L53.5916 111.092C53.9719 111.29 54.1602 111.719 54.0494 112.126L52.5504 117.456C52.4728 117.726 52.2734 117.95 52.0039 118.054C51.8931 118.098 51.775 118.119 51.6605 118.119V118.112ZM30.3891 103.788L51.0919 115.827L52.074 112.332L30.3891 101.049V103.784V103.788Z" fill="#231F20"/>
<path d="M29.4666 105.204C29.3965 105.204 29.3263 105.197 29.2598 105.179L22.5435 103.665C22.2592 103.6 22.0229 103.409 21.9048 103.15L18.2642 95.0491C18.1275 94.75 18.1718 94.4004 18.3749 94.141L20.0882 91.9464C20.2395 91.7518 20.4685 91.6257 20.7195 91.5968C20.9669 91.568 21.2217 91.6437 21.4137 91.8023L30.0574 98.8617C30.4488 99.1824 30.5005 99.7482 30.1718 100.13C29.8432 100.512 29.2635 100.563 28.8722 100.242L20.9706 93.7878L20.1731 94.8113L23.4075 102.011L29.6697 103.424C30.1645 103.536 30.4746 104.018 30.3602 104.505C30.2605 104.923 29.8838 105.204 29.4629 105.204H29.4666Z" fill="#231F20"/>
<path d="M74.3603 148.732C74.1055 148.732 73.8545 148.627 73.6772 148.436L44.6594 117.294C44.4083 117.024 44.3492 116.635 44.508 116.303L45.6969 113.842C45.9148 113.391 46.4649 113.197 46.9265 113.413C47.388 113.626 47.5837 114.162 47.3658 114.613L46.4391 116.526L73.7178 145.802L76.6569 125.236C76.6865 125.035 76.7825 124.847 76.9375 124.707L89.6095 112.988L82.2508 112.631C81.7412 112.606 81.3498 112.184 81.3757 111.687C81.4015 111.189 81.8372 110.807 82.3431 110.833L91.8582 111.29C92.2274 111.308 92.5486 111.539 92.6778 111.878C92.8071 112.217 92.7148 112.598 92.4489 112.844L78.444 125.795L75.276 147.95C75.228 148.296 74.9769 148.584 74.6335 148.685C74.5449 148.714 74.4526 148.725 74.3603 148.725V148.732Z" fill="#231F20"/>
<path d="M63.8667 111.11C63.8667 111.11 63.8298 111.11 63.8113 111.11L53.1037 110.483C52.5941 110.454 52.2064 110.025 52.236 109.532C52.2655 109.034 52.6975 108.642 53.2107 108.685L63.9184 109.312C64.428 109.341 64.8156 109.77 64.7861 110.263C64.7566 110.743 64.3504 111.11 63.8667 111.11Z" fill="#231F20"/>
<path d="M30.9833 133.817C30.5698 133.817 30.2005 133.546 30.0935 133.15C27.4018 123.41 29.9642 108.84 30.075 108.224C30.1636 107.734 30.6436 107.41 31.1421 107.492C31.6442 107.579 31.9802 108.044 31.8916 108.534C31.8658 108.678 29.4104 122.62 31.6922 131.986L56.0799 131.092C56.5821 131.085 57.0178 131.46 57.0362 131.957C57.0547 132.455 56.6596 132.873 56.1501 132.891L31.0165 133.81C31.0165 133.81 30.9944 133.81 30.9833 133.81V133.817Z" fill="#231F20"/>
<path d="M85.8111 168.992C85.3053 168.992 84.8918 168.592 84.8881 168.098C84.733 150.325 78.9139 128.765 78.8548 128.548C78.7256 128.069 79.0173 127.575 79.5084 127.446C79.9994 127.316 80.5053 127.604 80.6382 128.083C80.6973 128.3 86.5791 150.083 86.7342 168.08C86.7379 168.577 86.3281 168.984 85.8185 168.988H85.8111V168.992Z" fill="#231F20"/>
<path d="M64.8904 192.732C62.6123 192.732 61.043 192.653 60.7144 192.635C55.9661 192.728 53.4295 192.13 52.739 190.75C52.3366 189.946 52.6984 189.172 52.9717 188.844C53.064 188.732 53.1821 188.645 53.315 188.588C55.176 187.791 55.4233 187.164 55.4566 187.049C55.4677 187.013 55.4677 186.984 55.4677 186.959C52.7058 185.727 51.3027 184.404 51.1809 182.916C51.0812 181.694 51.9341 180.768 52.5212 180.361C54.984 177.892 55.0283 176.653 54.9286 176.231C54.8067 175.701 54.2677 175.507 54.2455 175.496C54.2197 175.485 54.1753 175.471 54.1495 175.46C51.3027 174.148 49.6781 172.606 49.3273 170.872C49.0541 169.528 49.6449 168.404 50.0806 167.889C52.8904 163.359 51.9821 160.177 51.9452 160.04C51.9415 160.022 51.9341 159.997 51.9304 159.979C50.0289 151.727 49.5489 139.345 49.5304 138.822C49.512 138.325 49.9107 137.907 50.4203 137.889C50.4313 137.889 50.4424 137.889 50.4535 137.889C50.9483 137.889 51.3581 138.271 51.3766 138.757C51.3803 138.883 51.8713 151.471 53.7286 159.561C53.8615 160.022 54.7993 163.82 51.624 168.894C51.5944 168.945 51.5575 168.988 51.5169 169.031C51.5021 169.049 50.9593 169.676 51.1477 170.548C51.3175 171.323 52.104 172.519 54.8953 173.813C55.4677 174.015 56.4313 174.635 56.7193 175.788C57.1218 177.391 56.1581 179.319 53.7766 181.687C53.7286 181.734 53.6732 181.777 53.6178 181.813C53.6178 181.813 52.9753 182.249 53.0233 182.779C53.0492 183.063 53.3741 184.094 56.4904 185.431C56.6012 185.478 56.7009 185.546 56.7821 185.629C57.107 185.957 57.4283 186.609 57.2732 187.377C57.0701 188.39 56.1544 189.265 54.4818 190.051C54.7735 190.292 56.003 190.93 60.7107 190.836C60.7329 190.836 60.7587 190.836 60.7846 190.836C60.9803 190.847 80.3021 191.86 87.491 186.534C88.008 185.961 89.2227 184.318 88.883 183.269C88.6504 182.555 87.624 182.199 86.8043 182.026C86.6344 181.99 85.0984 181.64 84.8215 180.325C84.5667 179.125 85.4824 177.853 87.7052 176.321C87.7532 176.289 87.8012 176.26 87.8529 176.238C88.0966 176.127 88.8203 175.676 88.8572 175.139C88.8757 174.847 88.7058 174.033 86.6898 172.772C86.2615 172.501 86.136 171.946 86.4129 171.525C86.6898 171.107 87.2584 170.984 87.6904 171.254C89.7877 172.57 90.7993 173.921 90.6997 175.272C90.5852 176.808 89.123 177.633 88.7095 177.835C86.6049 179.298 86.627 179.954 86.6307 179.961C86.6455 180.029 86.9261 180.202 87.1993 180.263C89.0861 180.663 90.2492 181.492 90.648 182.725C91.3827 184.995 89.0677 187.525 88.8018 187.806C88.7686 187.842 88.728 187.878 88.6873 187.907C83.0972 192.123 71.2486 192.728 64.8904 192.728V192.732Z" fill="#231F20"/>
<path d="M39.0845 192.786C36.5627 192.786 34.6833 192.728 34.4913 192.721C32.7854 192.606 30.5036 192.274 30.0347 190.674C29.5214 188.934 31.7553 187.236 32.2094 186.916C33.5719 185.899 33.6162 185.308 33.5977 185.153C33.5534 184.804 33.0513 184.519 32.9553 184.476C31.375 183.763 30.8765 182.75 30.7325 182.022C30.3633 180.141 31.914 178.321 32.3017 177.899C33.1473 176.566 33.4057 175.449 33.0697 174.573C32.6008 173.348 31.0648 172.876 31.05 172.872C30.9762 172.851 30.9023 172.818 30.8396 172.782C26.8482 170.44 29.6617 162.134 30.0974 160.923C31.5042 154.368 30.0827 133.186 30.0679 132.973C30.0347 132.476 30.4187 132.047 30.9282 132.015C31.4377 131.986 31.8771 132.357 31.9103 132.854C31.9694 133.741 33.3725 154.624 31.8919 161.359C31.8845 161.399 31.8734 161.435 31.8587 161.471C31.1017 163.543 29.4771 169.719 31.7147 171.19C32.2427 171.37 34.0962 172.123 34.794 173.925C35.3553 175.37 35.0267 177.053 33.8193 178.926C33.786 178.977 33.7491 179.024 33.7085 179.067C33.3467 179.442 32.3534 180.735 32.5454 181.683C32.5787 181.853 32.682 182.368 33.7122 182.833C33.8562 182.894 35.2556 183.532 35.4291 184.937C35.5694 186.062 34.8568 187.211 33.3134 188.361C32.4716 188.963 31.7183 189.874 31.8107 190.177C31.855 190.325 32.4568 190.779 34.5873 190.923C34.6722 190.923 46.3325 191.28 51.1067 190.206C51.6051 190.094 52.0999 190.397 52.2143 190.88C52.3288 191.366 52.0187 191.849 51.5239 191.961C48.474 192.649 43.0094 192.786 39.0882 192.786H39.0845Z" fill="#231F20"/>
<path d="M54.3779 198.595C53.4437 198.595 52.576 198.112 52.0997 197.319C51.6049 196.501 51.6086 195.525 52.1034 194.714C53.4179 192.566 55.5077 191.139 55.5963 191.081C56.0136 190.8 56.5896 190.901 56.8812 191.308C57.1729 191.716 57.0659 192.278 56.6486 192.562C56.6486 192.562 54.7914 193.835 53.6874 195.64C53.4769 195.982 53.6172 196.292 53.6874 196.408C53.8388 196.66 54.1083 196.804 54.4037 196.793L82.4357 195.907C83.1852 195.881 83.8388 195.381 84.0234 194.681C84.3151 193.575 84.5477 192.026 83.9865 190.93C83.7576 190.483 83.9422 189.943 84.4 189.723C84.8579 189.499 85.4117 189.68 85.6369 190.126C86.4529 191.719 86.1797 193.73 85.8105 195.135C85.4228 196.602 84.0603 197.662 82.4948 197.712L54.4628 198.599C54.4332 198.599 54.4037 198.599 54.3779 198.599V198.595Z" fill="#231F20"/>
<path d="M49.1684 197.773C49.1093 197.773 49.0539 197.77 48.9986 197.759C48.2675 197.708 41.8724 197.712 32.2022 197.759H32.1875C31.1795 197.759 30.2749 197.211 29.8244 196.328C29.3739 195.445 29.4736 194.411 30.0829 193.633C31.4158 191.925 33.0626 190.991 33.129 190.952C33.5721 190.703 34.137 190.851 34.3881 191.283C34.6429 191.716 34.4915 192.263 34.0484 192.512C34.0152 192.53 32.6379 193.326 31.5487 194.725C31.2866 195.063 31.4084 195.399 31.4749 195.525C31.5266 195.626 31.7296 195.957 32.1875 195.957H32.1912C34.8866 195.943 39.1069 195.925 42.6662 195.921C47.2127 195.914 49.5967 196.02 49.8182 196.238C50.1801 196.591 50.1801 197.161 49.8182 197.514C49.6373 197.69 49.401 197.777 49.1647 197.777L49.1684 197.773Z" fill="#231F20"/>
<path d="M72.383 121.55C72.1319 121.55 71.8845 121.453 71.7036 121.258L65.663 114.829C65.3196 114.462 65.3418 113.892 65.7184 113.557C66.095 113.218 66.6784 113.244 67.0218 113.611L73.0624 120.04C73.4058 120.407 73.3836 120.977 73.007 121.312C72.8298 121.471 72.6045 121.55 72.383 121.55Z" fill="#231F20"/>
<path d="M53.9095 57.0815C53.4812 57.0815 53.1009 57.0347 52.8092 56.9626C51.336 56.5987 50.3243 55.7086 50.0363 54.523C49.7778 53.4707 50.136 52.3392 50.9483 51.6473C52.6652 50.1806 54.7144 50.2167 56.2578 50.7428C56.1433 50.523 56.003 50.3176 55.8221 50.1338C55.1981 49.4959 54.179 49.2581 52.7907 49.4275C52.7723 49.4275 52.7575 49.4275 52.739 49.4311C52.7206 49.4311 51.8049 49.5464 50.9926 50.7176C50.7083 51.1284 50.1323 51.2365 49.7113 50.959C49.2904 50.6815 49.176 50.1194 49.464 49.7086C50.723 47.8923 52.2812 47.6617 52.584 47.6365C54.5741 47.4023 56.1175 47.8239 57.1624 48.8978C58.9864 50.768 58.4621 53.8743 58.44 54.0077C58.4326 54.0401 58.4252 54.0725 58.4178 54.105C57.7237 56.4401 55.5009 57.0851 53.9095 57.0851V57.0815ZM54.2898 52.2059C53.603 52.2059 52.8572 52.4113 52.163 53.0059C51.8713 53.2545 51.7347 53.7086 51.8307 54.1086C51.9563 54.6275 52.4658 55.0239 53.2633 55.2221C53.2892 55.2293 55.9772 55.6761 56.627 53.6581C56.6418 53.5608 56.6713 53.3122 56.6787 52.977C56.2873 52.7032 55.3569 52.2095 54.2898 52.2095V52.2059Z" fill="#231F20"/>
<path d="M35.253 56.1372C34.8247 56.1372 34.4444 56.0904 34.149 56.0183C32.6758 55.6543 31.6641 54.7643 31.3761 53.5787C31.1177 52.5264 31.4758 51.3949 32.2881 50.703C34.005 49.2363 36.0543 49.276 37.5977 49.7985C37.4832 49.5787 37.3392 49.3733 37.162 49.1895C36.538 48.5516 35.5189 48.3138 34.1306 48.4796C34.1121 48.4796 34.0973 48.4796 34.0789 48.4832C34.0604 48.4832 33.1447 48.5985 32.3324 49.7697C32.0481 50.1805 31.4721 50.2886 31.0512 50.0111C30.6303 49.7336 30.5158 49.1715 30.8038 48.7607C32.0629 46.9444 33.621 46.7138 33.9238 46.6886C35.914 46.4507 37.4573 46.876 38.5023 47.9498C40.3263 49.8201 39.802 52.9264 39.7798 53.0598C39.7724 53.0922 39.765 53.1246 39.7577 53.157C39.0635 55.4922 36.8407 56.1372 35.253 56.1372ZM35.6297 51.2616C34.9429 51.2616 34.197 51.4634 33.5029 52.0616C33.2112 52.3102 33.0746 52.7643 33.1706 53.1643C33.2961 53.6832 33.8057 54.0796 34.6032 54.2778C34.6327 54.285 37.317 54.7318 37.9669 52.7138C37.9817 52.6165 38.0112 52.3679 38.0186 52.0363C37.6272 51.7625 36.6967 51.2688 35.6297 51.2688V51.2616Z" fill="#231F20"/>
<path d="M47.3219 75.3879C47.1188 75.3879 46.912 75.3231 46.7385 75.1861C46.3434 74.8726 46.2843 74.3032 46.6056 73.9177C49.1422 70.8762 49.7477 69.2113 49.8363 68.3825C47.488 70.0149 46.1108 70.4474 45.1988 69.8852C44.5932 69.5104 44.4456 68.7933 44.5674 68.2492C44.5859 68.1591 44.6191 68.0726 44.6671 67.9933C45.3982 66.7357 45.6936 65.9753 45.8117 65.5357C43.0056 66.3249 41.1336 65.8095 41.0486 65.7843C40.6794 65.6798 40.4172 65.3627 40.3877 64.9879C40.0111 60.1879 41.7354 54.3537 41.8092 54.1086C41.9532 53.633 42.4628 53.3555 42.9539 53.496C43.4449 53.6366 43.7256 54.1339 43.5816 54.6132C43.5668 54.6672 42.0492 59.8059 42.1896 64.1483C42.9391 64.2095 44.3163 64.1915 46.0702 63.5573C46.1883 63.514 46.3102 63.496 46.4394 63.5032C46.7828 63.5213 47.2443 63.7122 47.5176 64.1951C47.9643 64.9915 47.7132 66.224 46.6942 68.1303C47.2332 67.8996 48.1674 67.3843 49.7182 66.2276C50.0062 66.0113 50.4012 65.9825 50.7188 66.1519C50.8406 66.2168 51.4536 66.5879 51.6492 67.5429C51.9926 69.2438 50.7779 71.7699 48.0345 75.0564C47.8536 75.2762 47.5877 75.3879 47.3182 75.3879H47.3219Z" fill="#231F20"/>
<path d="M46.9979 96.6889C46.9019 96.6889 46.8096 96.6817 46.7136 96.6708L45.0041 96.4726C43.7044 96.3213 42.7739 95.1681 42.929 93.9033C43.0028 93.2907 43.3204 92.7393 43.8151 92.3573C44.3136 91.9753 44.9339 91.806 45.5616 91.878L47.2712 92.0762C48.5708 92.2276 49.5013 93.3808 49.3462 94.6456C49.2724 95.2582 48.9548 95.8096 48.4601 96.1916C48.0392 96.5159 47.5259 96.6889 46.9979 96.6889ZM45.2847 93.6618C45.1665 93.6618 45.0558 93.7015 44.9598 93.7699C44.849 93.8564 44.7788 93.9753 44.7641 94.1123C44.7493 94.2492 44.7862 94.3825 44.8712 94.4907C44.9561 94.5988 45.0816 94.6672 45.2219 94.6816L46.9315 94.8799C47.0718 94.8943 47.2084 94.8582 47.3191 94.7753C47.4299 94.6925 47.5001 94.5699 47.5148 94.433C47.5481 94.1519 47.3413 93.8961 47.057 93.8636L45.3475 93.6654C45.3253 93.6654 45.3068 93.6654 45.2847 93.6654V93.6618Z" fill="#231F20"/>
<path d="M55.261 96.588H53.5404C52.2333 96.588 51.1699 95.5501 51.1699 94.2744C51.1699 92.9988 52.2333 91.9609 53.5404 91.9609H55.261C56.5681 91.9609 57.6315 92.9988 57.6315 94.2744C57.6315 95.5501 56.5681 96.588 55.261 96.588ZM53.5404 93.7627C53.2524 93.7627 53.0161 93.9934 53.0161 94.2744C53.0161 94.5555 53.2524 94.7862 53.5404 94.7862H55.261C55.549 94.7862 55.7853 94.5555 55.7853 94.2744C55.7853 93.9934 55.549 93.7627 55.261 93.7627H53.5404Z" fill="#231F20"/>
<path d="M55.7107 102.401C55.371 102.401 55.0424 102.217 54.8799 101.896C53.2848 98.7285 53.4695 95.7519 53.4768 95.6258C53.5101 95.1285 53.9568 94.7537 54.459 94.7861C54.9685 94.8186 55.3525 95.2474 55.3193 95.7447C55.3193 95.7699 55.1679 98.3825 56.5341 101.1C56.7593 101.546 56.571 102.087 56.1131 102.307C55.9839 102.368 55.8436 102.401 55.707 102.401H55.7107Z" fill="#231F20"/>
<path d="M45.0744 102.4C44.9895 102.4 44.9046 102.39 44.8159 102.364C44.3249 102.227 44.0442 101.726 44.1846 101.247C45.1667 97.939 45.211 95.9354 45.211 95.9138C45.2184 95.4201 45.6319 95.0273 46.1341 95.0273H46.1489C46.6584 95.0346 47.0646 95.4418 47.0572 95.9391C47.0572 96.0291 47.0166 98.1805 45.9569 101.748C45.8387 102.141 45.4695 102.397 45.0707 102.397L45.0744 102.4Z" fill="#231F20"/>
<path d="M17.0455 124.707C16.7058 124.707 16.3809 124.523 16.2184 124.206C15.9895 123.759 16.1778 123.218 16.632 122.999L23.9316 119.453L16.4769 102.699C14.4867 103.59 9.53164 105.817 7.19072 107.002L8.62334 109.806C8.85226 110.253 8.66395 110.793 8.2098 111.013C7.75564 111.236 7.19811 111.056 6.97288 110.609L5.14149 107.024C4.92364 106.595 5.08611 106.076 5.51072 105.838C7.76303 104.581 16.211 100.836 16.5692 100.674C16.7944 100.573 17.0529 100.566 17.2818 100.653C17.5144 100.739 17.699 100.912 17.7987 101.136L25.9772 119.514C26.1729 119.954 25.9809 120.465 25.5415 120.678L17.4553 124.606C17.3224 124.671 17.1821 124.699 17.0455 124.699V124.707Z" fill="#231F20"/>
<path d="M12.2293 122.617C11.7715 122.617 11.3764 122.285 11.3136 121.831C11.2471 121.338 11.6053 120.887 12.1111 120.822C16.2391 120.296 16.5973 119.37 16.6084 119.33C16.6564 119.183 16.4533 118.956 16.4533 118.952C16.4385 118.938 16.4201 118.923 16.4053 118.905C15.6004 118.037 15.8182 116.902 16.3721 116.199C16.6121 115.853 16.6268 115.662 16.6158 115.622C16.601 115.579 16.4865 115.503 16.3905 115.467C14.9321 115.118 14.6847 113.683 14.8767 112.793C14.8878 112.747 14.9025 112.7 14.921 112.653C15.017 112.415 15.0318 112.282 15.0318 112.22C14.8841 112.156 14.5075 112.138 14.2268 112.184C13.0933 112.383 12.4767 112.001 12.1591 111.644C11.513 110.916 11.7271 109.889 11.8379 109.5C11.8822 108.927 11.7973 108.689 11.7641 108.62C11.609 108.602 11.2656 108.729 11.033 108.869C11.0145 108.88 10.9924 108.894 10.9739 108.902C9.3013 109.766 8.11976 111.219 8.10868 111.233C7.79484 111.622 7.21515 111.694 6.81268 111.384C6.41392 111.078 6.34007 110.512 6.65392 110.123C6.7093 110.051 8.06438 108.375 10.0804 107.327C10.4053 107.132 11.6865 106.447 12.7388 107.078C13.4847 107.521 13.7948 108.422 13.6693 109.756C13.6619 109.824 13.6471 109.893 13.625 109.961C13.577 110.109 13.5511 110.321 13.5622 110.437C13.6213 110.44 13.7321 110.444 13.9056 110.411C14.201 110.361 15.7001 110.159 16.4791 111.085C16.793 111.46 17.0773 112.134 16.6748 113.215C16.6601 113.341 16.6342 113.676 16.841 113.723C16.8558 113.723 16.8742 113.73 16.889 113.734C16.9998 113.766 17.9967 114.065 18.3475 115.01C18.5985 115.687 18.4398 116.437 17.8785 117.24C17.8675 117.258 17.8527 117.273 17.8416 117.291C17.8305 117.309 17.6533 117.55 17.7641 117.691C18.1555 118.076 18.6871 118.938 18.3622 119.896C17.897 121.287 15.9844 122.152 12.3475 122.613C12.3068 122.617 12.2662 122.62 12.2256 122.62L12.2293 122.617Z" fill="#231F20"/>
<path d="M10.7566 121.583C10.5388 121.583 10.3209 121.507 10.1437 121.356C5.30679 117.157 6.38864 112.48 6.43664 112.282C6.55479 111.799 7.05325 111.5 7.54802 111.615C8.04279 111.73 8.34925 112.213 8.2311 112.696C8.19048 112.866 7.39664 116.559 11.3696 120.008C11.7499 120.339 11.7831 120.909 11.4471 121.28C11.2662 121.482 11.0114 121.583 10.7566 121.583Z" fill="#231F20"/>
<path d="M10.7607 105.2C10.4468 105.2 10.1441 105.045 9.97053 104.764L6.437 99.0597C6.28192 98.811 6.25976 98.5047 6.37792 98.2381L8.90715 92.5047C9.11023 92.0471 9.653 91.8381 10.1219 92.0327C10.5908 92.2309 10.805 92.7606 10.6056 93.2182L8.261 98.5264L11.5471 103.834C11.8093 104.26 11.669 104.815 11.2333 105.071C11.0856 105.157 10.9195 105.2 10.757 105.2H10.7607Z" fill="#231F20"/>
<path d="M19.7147 108.616C19.412 108.616 19.1166 108.472 18.9394 108.206C18.6624 107.788 18.7843 107.229 19.2126 106.959C19.2495 106.937 22.8311 104.667 24.7769 102.757C25.1351 102.404 25.7221 102.404 26.084 102.753C26.4458 103.103 26.4458 103.676 26.0877 104.029C24.0015 106.076 20.372 108.375 20.2169 108.472C20.0618 108.57 19.8883 108.616 19.7147 108.616Z" fill="#231F20"/>
<path d="M25.5571 117.449C24.6783 117.449 24.106 117.305 24.0506 117.29C23.5596 117.161 23.2642 116.667 23.3971 116.188C23.53 115.708 24.0322 115.424 24.5233 115.55C24.634 115.579 27.1042 116.155 29.5817 114.238C29.9805 113.928 30.5602 113.993 30.8777 114.386C31.1953 114.775 31.1288 115.341 30.7263 115.651C28.8026 117.139 26.8494 117.449 25.5571 117.449Z" fill="#231F20"/>
<path d="M67.1244 130.148C65.57 130.148 64.7576 128.512 64.669 128.321C64.5287 127.993 64.093 128.062 64.0044 128.08C63.9933 128.08 63.9675 128.087 63.9564 128.09C62.8672 128.263 62.029 128.065 61.4604 127.51C60.6703 126.735 60.8327 125.636 60.8512 125.514C60.8512 125.499 60.8586 125.481 60.8623 125.467C60.9435 125.11 60.482 124.934 60.29 124.876C58.9866 124.764 58.4364 124.18 58.2038 123.701C57.6278 122.519 58.5435 121.15 58.7355 120.887C58.9829 120.544 58.9792 120.397 58.9792 120.397C58.9238 120.325 58.562 120.188 58.285 120.152C58.2186 120.144 58.1447 120.126 58.082 120.105C56.6456 119.597 55.8666 118.872 55.7669 117.95C55.6192 116.627 57.0001 115.669 57.2844 115.489C59.426 113.943 63.7423 113.319 63.9269 113.294C64.4327 113.225 64.898 113.564 64.9718 114.058C65.0456 114.552 64.6949 115.006 64.189 115.078C63.0629 115.236 59.821 115.885 58.3663 116.948C58.3478 116.962 58.3256 116.977 58.3072 116.988C57.9343 117.222 57.5909 117.625 57.6057 117.752C57.6057 117.752 57.709 118.036 58.6284 118.375C59.0678 118.443 60.2346 118.714 60.674 119.68C60.8844 120.144 60.9841 120.912 60.2456 121.925C59.9835 122.296 59.8173 122.793 59.8764 122.923C59.9023 122.952 60.0795 123.049 60.5189 123.081C60.5706 123.081 60.6186 123.092 60.6666 123.103C61.6635 123.334 63.0112 124.245 62.6752 125.816C62.6641 125.917 62.6789 126.148 62.7749 126.238C62.8672 126.325 63.1441 126.389 63.6426 126.314C64.3589 126.166 65.7915 126.249 66.3675 127.6C66.4893 127.856 66.8733 128.364 67.154 128.343C67.2869 128.335 68.4943 128.108 70.1853 122.934C70.3404 122.458 70.861 122.195 71.3447 122.35C71.8321 122.501 72.098 123.009 71.9429 123.481C70.4918 127.925 69.0038 130.043 67.261 130.144C67.2167 130.144 67.1724 130.148 67.1281 130.148H67.1244Z" fill="#231F20"/>
</svg>
