<svg width="100" height="210" viewBox="0 0 100 210" fill="none" xmlns="http://www.w3.org/2000/svg">
<g clip-path="url(#clip0_1837_672393)">
<path d="M29 157.656L20.2018 185.993L19.8061 190L11.0579 186.913C11.0579 186.913 10.374 157.898 13.7088 153L29 157.659V157.656Z" fill="white"/>
<path d="M85.788 96.9519C90.2251 97.6367 95.0419 90.9255 96.5491 81.9577C98.0524 72.9899 95.6747 65.167 91.2338 64.4823L88.4457 64L83 96.4697L85.788 96.9519Z" fill="#F8B3FF"/>
<path d="M50 156.745C50 156.745 53.3696 183.403 57.6986 190L65 189.578L63.8868 155L50 156.741V156.745Z" fill="white"/>
<path d="M10.0784 153.839L32.9039 160L40.8633 140.106L47.4494 160L65.9218 157.358C65.9218 157.358 66.552 133.564 64.2352 124C64.2352 124 44.2474 127.15 38.0402 127.004C38.0402 127.004 20.289 126.452 14.0272 124C14.0272 124 9.34259 141.647 10.0784 153.839Z" fill="#2BE6AE"/>
<path d="M19.199 127L19 132.19L22.9083 133L25 128.694L19.199 127Z" fill="white"/>
<path d="M27.4737 22C27.4737 22 26.1482 18.2411 27.9319 17.5941C27.9319 17.5941 29.9905 15.6941 32 18.6899C32 18.6899 28.6388 20.3094 27.4769 22H27.4737Z" fill="#76DD9F"/>
<path d="M67.9964 35.6792C67.9964 35.6792 66.5585 19.7534 51.8111 16.4371C51.8111 16.4371 35.3703 12.9998 24.6227 25.404C24.6227 25.404 15.4078 39.5196 22.9987 49.0326C22.9987 49.0326 26.8999 44.5326 29.9691 50C29.9691 50 39.9102 36.9325 52.6942 34.349C52.6942 34.349 50.4863 26.7672 56.8546 26.2835C56.8546 26.2835 63.4382 25.0889 62.4747 33.9643C62.4747 33.9643 65.9746 34.1511 68 35.6719L67.9964 35.6792Z" fill="#67A9F9"/>
<path d="M54 31.6686C54 31.6686 57.0699 28.6176 61.8979 30.7668C61.8979 30.7668 62.2098 33.0002 61.7433 34.2524C61.7433 34.2524 56.8979 32.9161 54.6152 35L54 31.6733V31.6686Z" fill="#67A9F9"/>
<path d="M20.8281 46C20.8281 46 9.86262 52.2772 12.3737 57.9474C12.3737 57.9474 14.4388 61.1935 20.8281 56.2848C20.8281 56.2848 23.9835 53.9096 24 52.7862V49.706L20.8281 46Z" fill="#67A9F9"/>
<path d="M67.3496 36.6291C67.3496 36.6291 71.967 63.0637 56.5958 73.206C56.5958 73.206 51.9679 78.1738 48.5666 79C48.5666 79 36.9245 74.4595 31.9441 66.9882C31.9441 66.9882 29.4416 63.2489 31.0877 55.2363C31.0877 55.2363 24.4401 57.1949 24.1828 52.6758C24.1828 52.6758 22.7941 47.6438 27.6722 47.7151C27.6722 47.7151 30.3827 47.5976 30.6224 50.069C30.6224 50.069 36.78 41.4225 48.267 36.3763C48.267 36.3763 59.2358 30.8671 67.3532 36.6256L67.3496 36.6291Z" fill="white"/>
<path d="M20.593 55.6673C20.593 55.6673 19.2588 60.3566 20.593 63.5623C20.593 63.5623 22.76 63.3448 24.2792 60.9556C24.2792 60.9556 23.3962 64.4752 24.6648 65.9943C24.6648 65.9943 27.4063 66.3509 29.8355 61.4121C29.8355 61.4121 29.6003 56.9047 31 55.054C31 55.054 23.5041 58.5344 22.8834 53L20.5968 55.6709L20.593 55.6673Z" fill="white"/>
<path d="M31.7279 69C31.7279 69 18.7983 70.3149 14.4652 82.3555C14.4652 82.3555 12.8788 86.6943 13.011 90.7791C13.011 90.7791 24.0642 90.6096 31.0522 91.7146C31.0522 91.7146 30.5088 103.402 41.2828 104.971L38.9547 115.928C38.9547 115.928 21.1338 121.479 15.016 104.507L13 122.845C13 122.845 24.7986 129.807 51.6015 125.707L66 122.845L63.7159 77.1068C63.7159 77.1068 59.056 75.8656 56.4304 75.5046C56.4304 75.5046 51.0728 80.7348 48.976 80.7348C48.976 80.7348 36.05 74.7569 31.7279 69Z" fill="#FFF080"/>
<path d="M14 102.371C14 102.371 22.9018 97.878 32.2364 98.0025C32.2364 98.0025 34.1209 104.076 42 104.733L39.5715 115.956C39.5715 115.956 26.3146 120.596 17.9414 110.312C17.9414 110.312 15.6279 108.117 14 102.371Z" fill="#FFF080"/>
<path d="M13.0241 91.033C13.0241 91.033 26.2851 90.7407 31.1267 91.8962C31.1267 91.8962 30.4856 95.5598 32 98.0645C32 98.0645 21.4582 98.2276 14.4574 102C14.4574 102 12.7809 95.5598 13.0241 91.033Z" fill="#FFBA57"/>
<path d="M64.5772 99C64.5772 99 71.244 96.4442 75.7066 89.9955C75.7066 89.9955 84.6976 87.9996 82.7142 83.425L77.0004 83.7259L78.0773 77.144C78.0773 77.144 73.9053 75.5594 70.5583 82.9032C70.5583 82.9032 66.2003 86.7236 64 86.0799L64.5772 99Z" fill="white"/>
<path d="M57.744 190.593L69.0201 189.675L67.3555 187.713C67.1456 187.469 67.1788 187.096 67.4292 186.889L70.3274 184.517C70.9939 183.972 71.8999 183.847 72.6842 184.194L83.8241 189.133C83.8241 189.133 87.4072 191.504 86.9616 195.736L58.4474 198.988C57.3831 199.109 56.4293 198.303 56.3483 197.211L56.0058 192.675C55.9248 191.61 56.7018 190.68 57.744 190.593Z" fill="#F8B3FF"/>
<path d="M8.46798 187.986L8.0077 192.948C7.92331 193.865 8.54086 194.707 9.46143 194.927L34.4894 200.918C36.4839 201.395 38.3327 199.715 37.9492 197.755C37.627 196.108 36.7601 194.133 34.7272 192.218L26.5955 184.45C26.1314 184.006 25.4333 183.876 24.8349 184.125L20.8496 185.776C20.2896 186.007 19.9482 186.566 20.0134 187.155L20.3126 189.971L10.428 186.745C9.51896 186.447 8.56004 187.054 8.47565 187.986H8.46798Z" fill="#F8B3FF"/>
<path d="M93.3089 81.5043C94.7556 72.5222 92.4678 64.6834 88.199 63.9958C83.9301 63.3082 79.2968 70.0323 77.85 79.0143C76.4033 87.9964 78.6911 95.8352 82.9599 96.5228C87.2288 97.2104 91.8621 90.4864 93.3089 81.5043Z" fill="white"/>
<path d="M93.7384 58.4663L90.8811 57.4991C90.1982 57.268 89.4571 57.6342 89.226 58.3171C88.9948 59 89.3611 59.741 90.044 59.9722L92.9013 60.9393C93.5842 61.1705 94.3252 60.8043 94.5564 60.1214C94.7876 59.4384 94.4213 58.6974 93.7384 58.4663Z" fill="#F8B3FF"/>
<path d="M93.0245 59.8544L90.5898 59.0303L89.3697 62.6351L91.8043 63.4592L93.0245 59.8544Z" fill="#F8B3FF"/>
<path d="M42.2213 104.881C42.2213 104.881 43.3601 100.274 47.7991 101.099C47.7991 101.099 48.9378 102.725 46.2295 105.305C46.2295 105.305 51.5675 102.65 54.9613 103.479C54.9613 103.479 55.6318 105.737 51.3914 108.569C51.3914 108.569 52.6201 111.063 50.4512 112.312C50.4512 112.312 50.4212 114.696 48.0238 115.092C48.0238 115.092 48.9341 117.629 44.4389 116.852C44.4389 116.852 40.648 116 40 114.523L42.2213 104.877V104.881Z" fill="white"/>
<path d="M45.8552 85L48 79.0442C48 79.0442 41.1586 76.9653 38.8793 74C38.8793 74 37.3552 74.771 37 76.3816C37 76.3816 39.5862 81.3465 45.8517 85H45.8552Z" fill="#FFBA57"/>
<path d="M50 78.7083L52.956 83C52.956 83 56.8403 80.8032 59 75.4902L56.8869 74C56.8869 74 51.3284 78.554 50 78.7113V78.7083Z" fill="#FFBA57"/>
<path d="M55.3733 94.9969L55.3173 94.2606L58.7072 94.0804C59.0843 94.0618 59.3792 93.9934 59.5883 93.8785C59.7974 93.7635 59.8982 93.5833 59.8758 93.341C59.8646 93.1826 59.8086 93.0552 59.7078 92.962C59.607 92.8688 59.4688 92.8036 59.2859 92.7694C59.1067 92.7352 58.8864 92.7228 58.6363 92.7383L56.9563 92.8284L56.904 92.1605L58.2032 92.0921C58.5392 92.0735 58.808 92.0051 59.0096 91.8902C59.2112 91.7752 59.3008 91.595 59.2822 91.3496C59.271 91.1818 59.215 91.0514 59.1179 90.9644C59.0208 90.8743 58.9014 90.8153 58.7558 90.7842C58.6102 90.7531 58.4608 90.7407 58.304 90.7469L55.056 90.9209L55 90.1846L58.3152 90.0075C58.752 89.9827 59.1216 90.0199 59.4203 90.1131C59.719 90.2063 59.9505 90.3461 60.1147 90.5294C60.279 90.7127 60.3723 90.9302 60.391 91.1756C60.4097 91.3962 60.3611 91.5888 60.2529 91.7566C60.1446 91.9244 59.999 92.0641 59.8161 92.1791C59.6331 92.294 59.4278 92.3779 59.2038 92.437C58.9798 92.496 58.7595 92.5302 58.5467 92.5426L58.5206 92.1977C58.7894 92.1822 59.0656 92.1853 59.3456 92.2071C59.6257 92.2257 59.887 92.2754 60.1259 92.3531C60.3649 92.4307 60.5665 92.5488 60.727 92.7135C60.8875 92.875 60.9771 93.0894 60.9958 93.3503C61.0294 93.776 60.8614 94.1177 60.4955 94.3724C60.1297 94.6272 59.5808 94.7732 58.8491 94.8136L55.3733 95V94.9969ZM56.3515 94.5371L56.0416 90.5419L57.1392 90.4828L57.4491 94.4781L56.3515 94.5371Z" fill="black"/>
<path d="M44 126.425C44 126.425 47.0382 131.939 47.1079 133C47.1079 133 59.4696 130.99 65 125.339L64.7288 123C64.7288 123 46.899 126.789 44.0037 126.425H44Z" fill="white"/>
<path d="M38.4343 134L42 126.479C42 126.479 28.3735 127.992 13.6175 123L13 124.579C13 124.579 28.991 133.013 38.4343 133.996V134Z" fill="white"/>
<path d="M17.4338 132.109L17.0166 134.589C16.9123 135.2 17.3079 135.792 17.9625 136.001L20.8504 136.925C21.5805 137.156 22.3825 136.838 22.6774 136.198L23.8895 133.563C24.2311 132.823 23.7492 131.99 22.8788 131.807L19.1961 131.035C18.3725 130.861 17.5597 131.356 17.4338 132.103V132.109Z" fill="white"/>
<path d="M11.8402 187.519C11.3682 187.519 10.9662 187.162 10.922 186.682C10.343 180.49 10.7745 171.308 11.0842 166.385C11.2797 163.265 11.5305 160.175 11.7849 157.682C12.1869 153.788 12.3381 153.622 12.5667 153.371C12.74 153.179 13.0019 153.061 13.26 153.061C13.7689 153.061 14.1819 153.478 14.1782 153.987C14.1782 154.153 14.134 154.307 14.0566 154.44C13.544 156.465 11.8144 176.445 12.7511 186.512C12.799 187.021 12.4266 187.468 11.9177 187.516C11.8882 187.516 11.8587 187.519 11.8292 187.519H11.8402ZM13.3448 154.901C13.319 154.901 13.2932 154.901 13.2674 154.905C13.2932 154.905 13.319 154.905 13.3448 154.901Z" fill="#241F20"/>
<path d="M22.3299 179.259C22.234 179.259 22.1381 179.244 22.0422 179.215C21.5591 179.056 21.2936 178.536 21.4522 178.053C23.2223 172.625 27.2567 158.372 27.2972 158.228C27.4374 157.737 27.9463 157.453 28.4367 157.593C28.9272 157.734 29.2112 158.242 29.071 158.733C29.0305 158.877 24.985 173.163 23.2075 178.625C23.0821 179.015 22.7208 179.263 22.3299 179.263V179.259Z" fill="#241F20"/>
<path d="M57.7843 191.288C57.4413 191.288 57.1094 191.092 56.9509 190.764C54.5796 185.797 52.6915 177.448 51.5299 171.323C50.7776 167.369 50.2945 164.165 50.0732 162.608C49.4943 158.537 49.4979 158.32 50.158 157.98C50.6006 157.752 51.1611 157.932 51.4008 158.368C51.5151 158.574 51.5409 158.803 51.493 159.017C51.6073 161.122 54.4616 181.279 58.614 189.971C58.8316 190.432 58.6398 190.982 58.1789 191.199C58.0498 191.262 57.917 191.292 57.7806 191.292L57.7843 191.288Z" fill="#241F20"/>
<path d="M65.3245 183.316C64.8377 183.316 64.4284 182.932 64.4026 182.438C64.185 178.009 63.9268 171.544 63.7203 166.352C63.5396 161.776 63.3663 157.454 63.3184 157.055C63.3257 157.114 63.3737 157.413 63.6613 157.638L64.2255 156.908L64.8156 156.2C65.0418 156.389 65.2003 157.53 65.2913 159.622C65.365 161.315 65.4572 163.66 65.5605 166.282C65.767 171.471 66.0215 177.928 66.239 182.349C66.2649 182.858 65.8703 183.29 65.365 183.316C65.3503 183.316 65.3355 183.316 65.3208 183.316H65.3245Z" fill="#241F20"/>
<path d="M34.2864 202.34C34.0098 202.34 33.7332 202.307 33.4566 202.234L9.55642 196.119C7.9707 195.714 6.90863 194.183 7.08564 192.557L7.49867 188.703C7.60561 187.722 8.15877 186.878 9.01432 186.387C9.86988 185.897 10.8766 185.853 11.7764 186.258C16.1612 188.246 18.1783 189.013 19.0929 189.308C19.0413 188.958 18.9417 188.46 18.7647 187.796C18.4955 186.789 19.0265 185.742 19.9964 185.362L24.241 183.688C24.9896 183.393 25.8488 183.566 26.4241 184.127L35.4296 192.87C37.2624 194.652 38.0442 197.207 37.5205 199.707C37.3324 200.6 36.8051 201.36 36.0307 201.843C35.4959 202.175 34.8985 202.344 34.29 202.344L34.2864 202.34ZM9.33516 188.902L8.92213 192.756C8.84469 193.475 9.31672 194.157 10.0174 194.334L33.9176 200.449C34.3085 200.548 34.7141 200.486 35.0571 200.272C35.4001 200.058 35.6361 199.722 35.7172 199.328C36.1118 197.447 35.5217 195.529 34.1462 194.191L25.1408 185.447C25.0818 185.388 24.9933 185.373 24.9158 185.403L20.6712 187.077C20.5717 187.118 20.5164 187.221 20.5422 187.324C21.1617 189.647 21.0511 190.444 20.6897 190.92C20.1771 191.598 19.4211 191.487 16.4267 190.285C14.6639 189.577 12.5103 188.618 11.0131 187.94C10.6591 187.781 10.2645 187.8 9.92519 187.992C9.58592 188.183 9.36835 188.515 9.32778 188.906L9.33516 188.902Z" fill="#241F20"/>
<path d="M58.8817 199.464C58.0704 199.464 57.2886 199.184 56.6507 198.664C55.9205 198.063 55.4706 197.215 55.3821 196.274L55.0649 192.9C54.9838 192.019 55.253 191.167 55.8283 190.496C56.4036 189.824 57.2075 189.426 58.0889 189.374L66.9247 188.855C65.9622 187.778 66.047 187.21 66.342 186.771C66.4637 186.587 66.696 186.24 70.5977 183.279C71.2873 182.755 72.2018 182.652 72.991 183.009L83.3609 187.715C86.2042 189.006 88.0443 191.856 88.0443 194.984V195.164C88.0443 195.673 87.6313 196.086 87.1224 196.086C86.6135 196.086 86.2005 195.673 86.2005 195.164V194.984C86.2005 192.583 84.7881 190.389 82.6012 189.397L72.2313 184.695C72.0617 184.617 71.8626 184.639 71.7151 184.754C69.8343 186.181 68.728 187.062 68.2006 187.516C68.5289 187.888 69.1336 188.453 69.7347 188.932C70.0334 189.172 70.1515 189.566 70.0371 189.931C69.9228 190.296 69.5946 190.551 69.2111 190.573L58.1995 191.222C57.8234 191.244 57.4767 191.414 57.2333 191.701C56.9862 191.989 56.8719 192.354 56.9051 192.73L57.2223 196.105C57.2628 196.551 57.4804 196.956 57.827 197.24C58.1737 197.524 58.6089 197.657 59.0588 197.613C73.6069 196.153 83.0954 195.186 84.0653 195.057C84.1353 195.039 84.2091 195.031 84.2865 195.031C84.777 195.031 85.1937 195.419 85.2195 195.909C85.2638 196.787 84.5668 196.861 83.6043 196.968C83.0917 197.023 82.3505 197.104 81.4396 197.196C79.6215 197.384 77.1213 197.642 74.4108 197.919C68.9861 198.472 62.6985 199.103 59.2468 199.449C59.1288 199.46 59.0071 199.468 58.8891 199.468L58.8817 199.464Z" fill="#241F20"/>
<path d="M19.0017 131.628C18.9648 131.628 18.9279 131.628 18.8911 131.621C18.3859 131.558 18.0245 131.101 18.0871 130.596L18.4375 127.69C18.5002 127.184 18.9538 126.827 19.4627 126.886C19.9679 126.948 20.3293 127.406 20.2666 127.911L19.9163 130.817C19.8609 131.285 19.4627 131.628 19.0017 131.628Z" fill="#241F20"/>
<path d="M22.7749 132.509C22.6716 132.509 22.5684 132.491 22.4651 132.458C21.9857 132.288 21.735 131.761 21.9046 131.281L22.5905 129.349C22.7601 128.87 23.2875 128.619 23.7669 128.788C24.2463 128.958 24.4971 129.485 24.3274 129.965L23.6415 131.897C23.5088 132.273 23.151 132.513 22.7712 132.513L22.7749 132.509Z" fill="#241F20"/>
<path d="M33.3343 160.19C33.2568 160.19 33.1794 160.179 33.0983 160.161L9.99092 154.072C9.57789 153.966 9.29394 153.589 9.305 153.162C9.59264 138.602 12.6129 124.287 12.6424 124.143C12.7493 123.645 13.2398 123.328 13.7377 123.435C14.2355 123.542 14.5526 124.032 14.4457 124.53C14.4162 124.67 11.5324 138.352 11.1673 152.476L32.7774 158.17L41.4399 136.032C41.6243 135.56 42.159 135.324 42.6347 135.508C43.1104 135.693 43.3428 136.228 43.1584 136.703L34.1972 159.604C34.0571 159.965 33.7104 160.19 33.338 160.19H33.3343Z" fill="#241F20"/>
<path d="M48.0582 160.19C47.671 160.19 47.3207 159.947 47.1879 159.574L41.0663 142.109C40.8966 141.63 41.1511 141.102 41.6305 140.933C42.1099 140.763 42.6373 141.018 42.8069 141.497L48.6778 158.25L65.8552 155.853C66.2055 140.298 64.5534 125.459 64.5387 125.308C64.4797 124.803 64.8448 124.345 65.35 124.286C65.8626 124.231 66.3125 124.592 66.3715 125.098C66.3899 125.253 68.1121 140.712 67.6806 156.679C67.6696 157.129 67.334 157.505 66.8878 157.568L48.1873 160.179C48.143 160.186 48.1025 160.186 48.0582 160.186V160.19Z" fill="#241F20"/>
<path d="M47.4497 133.952C47.0551 133.952 46.701 133.702 46.5757 133.318C45.5763 130.265 43.5333 126.787 43.5148 126.75C43.2567 126.311 43.4005 125.747 43.8394 125.489C44.2782 125.231 44.8424 125.375 45.1006 125.813C45.1817 125.95 46.9555 128.97 48.0618 131.987C50.5031 131.518 58.3027 129.785 62.8275 125.954C63.2147 125.625 63.7974 125.673 64.1256 126.061C64.4538 126.448 64.4058 127.03 64.0186 127.359C58.2326 132.26 48.0213 133.875 47.5898 133.941C47.5418 133.949 47.4939 133.952 47.4497 133.952Z" fill="#241F20"/>
<path d="M38.6356 134.966C38.584 134.966 38.5286 134.962 38.477 134.951C38.3221 134.925 34.6565 134.273 29.8477 132.842C23.3647 130.913 18.1797 128.597 14.4441 125.953C14.0273 125.658 13.9315 125.083 14.2228 124.67C14.5178 124.253 15.0931 124.154 15.5061 124.449C22.9553 129.718 35.0253 132.385 38.0751 132.997L41.0842 125.92C41.2834 125.452 41.8255 125.234 42.2938 125.433C42.7622 125.632 42.9797 126.174 42.7806 126.643L39.4801 134.405C39.3326 134.748 38.997 134.966 38.6319 134.966H38.6356Z" fill="#241F20"/>
<path d="M65.1242 87.4093C64.6338 87.4093 64.2244 87.0221 64.2023 86.5243C64.1654 85.654 65.0357 85.5323 65.3639 85.4843C66.131 85.3737 67.9195 85.1193 69.52 83.5925C69.8888 83.2422 70.4715 83.2533 70.8255 83.622C71.1758 83.9908 71.1647 84.5735 70.796 84.9275C68.7677 86.8636 66.485 87.1918 65.6258 87.3135C65.5778 87.3208 65.5373 87.3245 65.5041 87.3319C65.4008 87.3798 65.2865 87.4056 65.1648 87.413C65.1501 87.413 65.139 87.413 65.1279 87.413L65.1242 87.4093ZM66.0462 86.4505C66.0499 86.5833 66.0277 86.7124 65.9835 86.8304C66.0277 86.7197 66.0536 86.5943 66.0462 86.4505Z" fill="#241F20"/>
<path d="M71.8468 83.8172C71.7841 83.8172 71.7177 83.8099 71.655 83.7951C71.1572 83.6882 70.8401 83.2014 70.9433 82.7035C71.3305 80.8781 73.1117 77.3158 77.0834 76.9212C77.5923 76.8732 78.0422 77.242 78.0938 77.7472C78.1455 78.2525 77.7767 78.706 77.2678 78.7577C73.628 79.1228 72.7577 83.0502 72.7466 83.0908C72.6544 83.5259 72.2709 83.8209 71.8468 83.8209V83.8172Z" fill="#241F20"/>
<path d="M77.0284 90.7579C76.7002 90.7579 76.372 90.7321 76.0401 90.6731C75.5386 90.5846 75.203 90.1089 75.2915 89.6073C75.38 89.1058 75.8557 88.7702 76.3573 88.8587C78.4851 89.2238 80.7825 87.686 81.1034 87.4611C82.5822 86.0634 82.6522 85.3111 82.6153 85.0493C82.5932 84.8944 82.5121 84.7764 82.4273 84.6953C80.458 85.0862 77.777 85.1341 76.4458 85.1599C76.1802 85.1636 75.911 85.171 75.8115 85.1747C75.3837 85.2484 74.9485 85.0087 74.7937 84.5847C74.6166 84.1089 74.8637 83.5779 75.3394 83.4009C75.5238 83.3308 75.6271 83.3308 76.4126 83.3161C77.777 83.2903 80.6092 83.2386 82.4051 82.8145C82.6006 82.7666 82.8071 82.785 82.9915 82.8699C83.1169 82.9252 84.2158 83.4451 84.4334 84.7285C84.6436 85.9565 83.9319 87.3431 82.324 88.8477C82.2982 88.8698 82.2724 88.8919 82.2466 88.9141C82.1322 88.9989 79.7352 90.7616 77.0358 90.7616L77.0284 90.7579Z" fill="#241F20"/>
<path d="M65.5793 99.9072C65.5313 99.9072 65.4908 99.9035 65.4539 99.8925C65.0593 99.7929 64.7753 99.4463 64.7532 99.0406C64.7348 98.6903 64.9192 98.3584 65.2289 98.1887C65.3027 98.1482 65.3838 98.115 65.4649 98.0966C65.8853 97.9343 72.0365 95.4414 74.8576 90.6879C75.1194 90.2491 75.6837 90.1052 76.1225 90.3671C76.5613 90.6289 76.7052 91.1931 76.4433 91.632C74.7507 94.4826 72.0217 96.5661 70.034 97.8126C70.0009 97.8347 66.6081 99.9035 65.5793 99.9035V99.9072ZM65.8079 98.0855C65.9444 98.1076 66.0808 98.1592 66.1988 98.2404C66.0624 98.1482 65.9259 98.1039 65.8079 98.0855Z" fill="#241F20"/>
<path d="M83.9581 97.5728C83.7073 97.5728 83.4566 97.5544 83.2058 97.5138C80.5138 97.0824 78.4228 94.3313 77.4751 89.965C77.3681 89.4672 77.6816 88.9767 78.1794 88.8698C78.6809 88.7628 79.1677 89.0763 79.2747 89.5741C80.0417 93.107 81.6201 95.3934 83.4971 95.6958C85.1529 95.9613 87.0742 94.6927 88.7743 92.2183C90.6366 89.5078 92.0342 85.7094 92.7054 81.5238C94.033 73.2559 92.0564 65.7698 88.3908 65.1835C84.7178 64.5934 80.5101 71.0875 79.1825 79.3554C78.917 81.0149 78.7768 82.6707 78.7658 84.2712C78.7658 84.7801 78.3491 85.1857 77.8438 85.1857H77.8365C77.3276 85.1857 76.9182 84.769 76.9219 84.2564C76.933 82.5638 77.0805 80.8158 77.3607 79.0604C78.8985 69.4834 83.8696 62.591 88.6784 63.3581C93.4909 64.1288 96.0575 72.2344 94.5198 81.8115C93.8043 86.2626 92.3034 90.3264 90.2899 93.2582C88.3612 96.0682 86.1375 97.5728 83.9507 97.5728H83.9581Z" fill="#241F20"/>
<path d="M89.9065 96.6361C89.6373 96.6361 89.3755 96.5217 89.1911 96.2968C88.8703 95.9022 88.9293 95.3195 89.3238 94.9987C92.1191 92.7197 94.4277 87.7154 95.3533 81.9441C96.231 76.4715 95.6889 71.1465 93.9409 68.0451C93.6901 67.6025 93.8487 67.0383 94.2912 66.7876C94.7337 66.5368 95.298 66.6954 95.5487 67.1379C97.5217 70.6375 98.1301 76.2835 97.175 82.2355C96.1793 88.4345 93.62 93.874 90.4929 96.4259C90.3232 96.566 90.1167 96.6324 89.9102 96.6324L89.9065 96.6361Z" fill="#241F20"/>
<path d="M89.0302 85.7091C88.8089 85.7091 88.5877 85.6317 88.4107 85.4694L84.1071 81.5715C83.9153 81.3982 83.8047 81.1474 83.8047 80.8893V72.5919C83.8047 72.0829 84.2177 71.6699 84.7266 71.6699C85.2355 71.6699 85.6486 72.0829 85.6486 72.5919V80.4799L89.6497 84.105C90.0259 84.4479 90.0554 85.0306 89.7124 85.4067C89.5317 85.6059 89.281 85.7091 89.0302 85.7091Z" fill="#241F20"/>
<path d="M93.6813 62.3067C93.4379 62.3067 93.1908 62.2661 92.9474 62.185L89.669 61.075C89.0864 60.8796 88.618 60.4665 88.3451 59.9171C88.0722 59.3676 88.0317 58.7444 88.2271 58.1617C88.4226 57.579 88.8356 57.1107 89.3851 56.8378C89.9345 56.5649 90.5578 56.5244 91.1404 56.7198L94.4188 57.8298C95.6173 58.2355 96.2627 59.5409 95.857 60.7431C95.5325 61.6982 94.6364 62.303 93.6776 62.303L93.6813 62.3067ZM90.4029 58.4493C90.3144 58.4493 90.2443 58.4752 90.2037 58.4973C90.1411 58.5268 90.0267 58.6042 89.9751 58.7591C89.9235 58.914 89.9677 59.0431 89.9972 59.1058C90.0267 59.1685 90.1042 59.2828 90.2591 59.3344L93.5375 60.4444C93.7735 60.5219 94.0316 60.3965 94.1127 60.1605C94.1939 59.9244 94.0648 59.6663 93.8288 59.5852L90.5504 58.4752C90.4988 58.4567 90.4508 58.4493 90.4066 58.4493H90.4029Z" fill="#241F20"/>
<path d="M91.8414 64.449C91.7381 64.449 91.6348 64.4305 91.5353 64.3973L89.5218 63.6856C89.046 63.516 88.7953 62.996 88.9575 62.5166L89.6767 60.4256C89.8426 59.9462 90.3663 59.6881 90.8494 59.854C91.3324 60.02 91.5869 60.5437 91.421 61.0267L91.0005 62.2548L91.2587 62.347L91.657 61.1153C91.8119 60.6322 92.3318 60.3666 92.8186 60.5215C93.3017 60.6764 93.5672 61.1964 93.4123 61.6832L92.7227 63.8147C92.6453 64.0507 92.4756 64.2461 92.2544 64.3568C92.1253 64.4195 91.9852 64.4527 91.845 64.4527L91.8414 64.449Z" fill="#241F20"/>
<path d="M45.8511 86.2099C45.7257 86.2099 45.604 86.1841 45.486 86.1361C45.2205 86.0218 38.9809 83.2818 35.5697 76.902C35.33 76.4521 35.4996 75.8953 35.9495 75.6556C36.3994 75.4159 36.9563 75.5855 37.196 76.0354C39.5856 80.4976 43.6126 83.0606 45.3606 84.0157L46.9279 80.0256C43.2807 79.1663 38.4093 75.2426 37.8045 74.7447C37.4099 74.4202 37.3546 73.8412 37.6754 73.4466C37.9999 73.0521 38.5789 72.9967 38.9735 73.3176C40.6772 74.7152 45.663 78.3439 48.2149 78.3439C48.521 78.3439 48.805 78.4951 48.9783 78.7459C49.1516 78.9967 49.1848 79.3175 49.0742 79.6015L46.7067 85.6272C46.6145 85.8595 46.4338 86.0439 46.2014 86.1398C46.0871 86.1878 45.9691 86.2099 45.8474 86.2099H45.8511Z" fill="#241F20"/>
<path d="M53.9565 85.7086C53.8716 85.7086 53.7868 85.6976 53.702 85.6718C53.4586 85.6017 53.2558 85.4358 53.1415 85.2145L50.0585 79.3326C49.9368 79.0965 49.9184 78.82 50.0143 78.5729C50.1102 78.3258 50.3056 78.1304 50.5564 78.0382C50.5859 78.0271 53.8569 76.7806 56.3019 73.4764C56.6043 73.0671 57.1832 72.9786 57.5926 73.2847C58.0019 73.5871 58.0867 74.166 57.7843 74.5754C55.8261 77.2195 53.4439 78.6835 52.1458 79.3399L54.2589 83.3706C55.0702 82.611 56.3646 81.0953 57.3271 78.5102C57.5041 78.0345 58.0351 77.7874 58.5108 77.9681C58.9865 78.1451 59.2336 78.6761 59.0529 79.1519C57.3086 83.8537 54.5391 85.5132 54.4211 85.5796C54.2773 85.6644 54.1187 85.705 53.9565 85.705V85.7086Z" fill="#241F20"/>
<path d="M49.5939 81.0074C48.3474 81.0074 47.5582 80.4321 47.5103 80.3952C47.101 80.0891 47.0198 79.5139 47.3259 79.1045C47.6283 78.7026 48.1962 78.614 48.6055 78.9091C48.6646 78.9496 49.5238 79.4991 50.8551 78.8316C51.3087 78.603 51.8655 78.7874 52.0941 79.241C52.3228 79.6945 52.1384 80.2514 51.6848 80.48C50.903 80.8709 50.1987 81.0037 49.5976 81.0037L49.5939 81.0074Z" fill="#241F20"/>
<path d="M23.5432 50.9966C23.3478 50.9966 23.1523 50.9339 22.9864 50.8085C19.3834 48.0685 19.1179 42.4595 19.1106 42.2234C18.8229 34.0809 21.0577 27.5831 25.7485 22.9108C33.8357 14.8531 46.5104 14.9268 48.9701 15.019C58.9233 15.4063 64.0087 21.0042 66.5163 25.6323C69.2084 30.5923 69.5624 35.4011 69.5735 35.6003C69.5956 35.9248 69.4444 36.2346 69.1789 36.419C68.9134 36.6033 68.5704 36.6365 68.2754 36.5038C60.5238 33.0152 51.9941 34.1141 42.9222 39.7748C36.0594 44.0562 31.4645 49.4735 31.4165 49.5252C31.0883 49.9124 30.5056 49.964 30.1184 49.6358C29.7275 49.3076 29.6796 48.7286 30.0041 48.3377C30.1959 48.1091 34.8055 42.6697 41.9044 38.2333C50.8361 32.6501 59.6535 31.2709 67.5231 34.2026C67.2207 32.4583 66.5016 29.4565 64.8606 26.4547C61.5379 20.3699 56.1649 17.1432 48.8927 16.8592C46.5694 16.7707 34.5917 16.697 27.0466 24.2162C22.7319 28.5161 20.6815 34.5493 20.947 42.1534C20.947 42.1976 21.1904 47.1281 24.1001 49.3408C24.5057 49.6505 24.5831 50.2258 24.2771 50.6315C24.0964 50.8712 23.8198 50.9966 23.5432 50.9966Z" fill="#241F20"/>
<path d="M53.1937 35.2464C52.8176 35.2464 52.4673 35.0177 52.3308 34.6453C52.2681 34.4793 50.8594 30.574 52.7143 27.7824C53.769 26.193 55.6129 25.3227 58.1906 25.201C58.5336 25.1678 60.584 25.0498 62.1955 26.6244C63.737 28.129 64.3418 30.6219 63.9914 34.0331C63.9398 34.5383 63.4862 34.9108 62.981 34.8555C62.4758 34.8038 62.107 34.3502 62.1586 33.845C62.4426 31.0792 62.0148 29.0436 60.9232 27.9594C59.8427 26.8863 58.4229 27.0264 58.3639 27.0338C58.3455 27.0338 58.316 27.0375 58.2976 27.0375C56.3283 27.126 54.9675 27.716 54.2521 28.7928C52.9135 30.799 54.0456 33.9741 54.0567 34.0073C54.23 34.4867 53.9866 35.014 53.5072 35.191C53.4039 35.2279 53.2933 35.2464 53.19 35.2464H53.1937Z" fill="#241F20"/>
<path d="M52.7005 32.8018C52.3502 32.8018 52.0146 32.6027 51.8597 32.2597C51.6495 31.7951 51.856 31.2493 52.317 31.0391C52.5493 30.9322 58.0293 28.4909 63.4207 30.3421C63.9038 30.5081 64.1583 31.0317 63.9923 31.5148C63.8264 31.9979 63.3027 32.2561 62.8196 32.0864C58.1325 30.4786 53.1283 32.6949 53.0766 32.717C52.9549 32.7723 52.8259 32.7982 52.6968 32.7982L52.7005 32.8018Z" fill="#241F20"/>
<path d="M27.4863 56.7162C24.5915 56.7162 23.3303 55.1526 22.8029 54.061C21.9179 52.2245 22.1207 49.0383 23.7064 47.8361C25.0709 46.8036 26.4316 46.4606 27.7482 46.8183C30.2484 47.5005 31.517 50.5282 31.5686 50.6572C31.7604 51.1293 31.5355 51.6677 31.0671 51.8594C30.5951 52.0512 30.0604 51.8299 29.8649 51.3579C29.5957 50.7125 28.6037 48.9572 27.2577 48.5958C26.5091 48.3967 25.7125 48.6253 24.8201 49.3038C24.2669 49.7242 23.7248 51.7267 24.4624 53.2608C25.3991 55.2005 27.8256 55.0383 29.699 54.5625C30.1894 54.4335 30.6947 54.7359 30.82 55.23C30.9454 55.7242 30.6467 56.2257 30.1526 56.3511C29.1347 56.6092 28.2497 56.7199 27.4826 56.7199L27.4863 56.7162Z" fill="#241F20"/>
<path d="M15.2796 59.8837C15.1505 59.8837 15.0251 59.8801 14.8998 59.869C13.1776 59.7141 12.44 58.5709 12.3589 58.4418C12.3147 58.3681 12.2815 58.2906 12.2593 58.2095C10.3749 51.3761 19.9372 45.4942 20.3428 45.2471C20.778 44.9853 21.3459 45.1217 21.6077 45.5569C21.8733 45.992 21.7331 46.56 21.298 46.8218C21.2095 46.8734 12.6908 52.1211 13.9926 57.5531C14.1216 57.6895 14.4757 57.9919 15.121 58.0325C16.1794 58.1063 18.5801 57.4978 22.8026 52.7111C23.1382 52.3276 23.7245 52.2944 24.1043 52.63C24.4879 52.9656 24.5211 53.5482 24.1855 53.9317C20.7006 57.8813 17.7061 59.8837 15.2796 59.8837Z" fill="#241F20"/>
<path d="M27.6746 23.3121C27.3796 23.3121 27.0883 23.1719 26.9113 22.9064C26.7896 22.722 25.7238 21.0662 26.2069 19.2887C26.4946 18.2304 27.2505 17.4006 28.4564 16.8253C29.5443 16.3017 32.0225 16.0104 33.5713 18.6618C33.8295 19.1007 33.6783 19.6649 33.2394 19.923C32.8006 20.1812 32.2364 20.0337 31.9782 19.5911C30.9493 17.8284 29.5185 18.3668 29.2456 18.4922C28.5486 18.8278 28.1356 19.2445 27.9881 19.7682C27.7595 20.5868 28.2389 21.5715 28.4454 21.8812C28.7256 22.3053 28.6113 22.8769 28.1872 23.1572C28.0287 23.2604 27.8516 23.3121 27.6746 23.3121Z" fill="#241F20"/>
<path d="M25.2151 67.1336C25.1709 67.1336 25.145 67.1336 25.1377 67.1336C24.8242 67.1115 24.5439 66.9345 24.3928 66.6579C23.8654 65.7028 23.6626 64.6518 23.611 63.7262C21.8888 64.9358 20.823 64.342 20.5796 64.1687C20.4321 64.0655 20.3178 63.9179 20.2514 63.7483C19.1599 60.9493 20.1629 55.8271 20.2072 55.6095C20.3067 55.1116 20.7898 54.7834 21.2914 54.8867C21.7892 54.9863 22.1137 55.473 22.0142 55.9709C21.7708 57.1952 21.3098 60.5658 21.815 62.583C22.1727 62.4945 22.8955 62.1441 23.9871 60.8166C24.26 60.4847 24.7246 60.3888 25.1082 60.5769C25.4917 60.7686 25.6945 61.1964 25.595 61.6168C25.5913 61.6352 25.1598 63.5418 25.7461 65.1828C26.3177 64.9763 27.295 64.3678 28.1727 62.5756C28.3976 62.1183 28.9508 61.9303 29.4044 62.1515C29.8617 62.3765 30.0497 62.9259 29.8285 63.3832C28.0842 66.9456 25.6871 67.1263 25.2151 67.1263V67.1336Z" fill="#241F20"/>
<path d="M53.217 68.5573C51.7824 68.5573 50.6282 67.4879 50.1119 66.7356C50.0308 66.6176 49.9754 66.4811 49.957 66.3373C49.6435 64.0214 49.9902 62.5389 51.0228 61.8051C52.1143 61.0307 53.4235 61.5064 53.8217 61.6834C55.3817 62.0743 56.1598 62.1075 56.5212 62.078C56.488 62.0263 56.4548 61.9784 56.429 61.9452C56.4179 61.9305 56.4068 61.9194 56.3958 61.9047C55.6361 60.8942 55.3853 59.9944 55.6509 59.2347C55.8832 58.5636 56.4658 58.1911 56.8973 58.0768C57.0043 58.0473 57.1149 58.0399 57.2218 58.0473C58.7412 58.1911 59.2206 57.8592 59.3312 57.7523C59.3533 57.7301 59.4087 57.7338 59.4087 57.7006C59.4087 57.6638 59.4087 57.6269 59.4087 57.59C59.523 56.0854 57.8709 51.8298 57.491 51.2397C57.1776 50.882 57.1886 50.3399 57.5242 49.9933C57.8782 49.6282 58.4609 49.6171 58.826 49.9711C59.4787 50.6018 61.3779 55.6945 61.2488 57.6969C61.2451 57.933 61.1677 58.5451 60.5998 59.0872C59.936 59.7178 58.8629 59.9944 57.4025 59.9096C57.4173 60.0276 57.5021 60.3042 57.8561 60.7799C58.0737 61.0454 58.8739 62.1333 58.2618 63.1069C57.6533 64.0767 56.1671 64.18 53.2833 63.4498C53.217 63.4351 53.1543 63.4092 53.0953 63.3797C52.8924 63.2802 52.3466 63.1216 52.0885 63.3097C51.8009 63.5162 51.5722 64.2906 51.7529 65.8468C52.0369 66.1824 52.7744 66.92 53.5747 66.6508C54.0578 66.4922 54.5814 66.7503 54.74 67.2334C54.9022 67.7165 54.6404 68.2402 54.1573 68.3987C53.8328 68.5057 53.5157 68.5536 53.2133 68.5536L53.217 68.5573ZM57.5058 51.2508C57.5058 51.2508 57.5353 51.2803 57.5464 51.2914C57.5316 51.2766 57.5169 51.2619 57.5058 51.2508Z" fill="#241F20"/>
<path d="M47.3839 53.9685C45.7981 53.9685 43.5781 53.3084 42.8848 50.9188C42.8738 50.8856 42.8664 50.8524 42.8627 50.8192C42.8406 50.6864 42.3132 47.5039 44.1387 45.59C45.1823 44.4947 46.7201 44.0596 48.7115 44.2993C49.0138 44.3288 50.5738 44.5611 51.8276 46.4197C52.1115 46.8401 52.0009 47.4154 51.5805 47.6994C51.1601 47.9833 50.5848 47.8727 50.3009 47.4523C49.4896 46.2538 48.575 46.1395 48.5381 46.1321C47.1184 45.9588 46.1005 46.2022 45.4736 46.8586C45.3003 47.043 45.1565 47.2532 45.0458 47.4744C46.5873 46.9397 48.634 46.9028 50.3488 48.4001C51.1601 49.1081 51.5178 50.266 51.2597 51.3429C50.9683 52.5561 49.9579 53.467 48.4902 53.8395C48.1952 53.9132 47.8153 53.9612 47.3876 53.9612L47.3839 53.9685ZM44.6734 50.4578C45.3224 52.5229 48.0071 52.0657 48.0329 52.0583C48.8295 51.8555 49.3384 51.4535 49.4637 50.9188C49.5596 50.5131 49.4232 50.0485 49.1319 49.7903C47.3507 48.2341 45.2634 49.2962 44.6218 49.7571C44.6291 50.0964 44.6586 50.3545 44.6734 50.4541V50.4578Z" fill="#241F20"/>
<path d="M65.2313 52.4717C63.6456 52.4717 61.4256 51.8116 60.7286 49.422C60.7175 49.3888 60.7101 49.3556 60.7065 49.3224C60.6843 49.1897 60.157 46.0108 61.9824 44.0932C63.026 42.9943 64.5675 42.5628 66.5552 42.8025C66.8576 42.832 68.4175 43.0643 69.6713 44.923C69.9553 45.3434 69.8447 45.9186 69.4243 46.2026C69.0002 46.4866 68.4286 46.3759 68.1446 45.9555C67.3333 44.757 66.4188 44.6427 66.3819 44.6353C64.9621 44.462 63.9406 44.7054 63.3174 45.3618C63.1404 45.5462 63.0002 45.7564 62.8896 45.9776C64.4311 45.4429 66.4778 45.406 68.1926 46.9033C69.0039 47.615 69.3616 48.7693 69.1034 49.8498C68.8121 51.063 67.8017 51.9702 66.3339 52.3464C66.0389 52.4201 65.6591 52.4681 65.235 52.4681L65.2313 52.4717ZM62.5171 48.961C63.1662 51.0261 65.8508 50.5689 65.8767 50.5615C66.6732 50.3587 67.1821 49.9567 67.3075 49.422C67.4034 49.0163 67.2669 48.5517 66.9756 48.2935C65.1944 46.7336 63.1072 47.7994 62.4655 48.2604C62.4729 48.5996 62.5024 48.8578 62.5171 48.9573V48.961Z" fill="#241F20"/>
<path d="M32.4783 117.475C28.6209 117.475 25.2245 116.524 22.3297 114.632C15.4041 110.096 13.8921 101.821 13.7852 101.183C11.5984 91.2113 12.465 83.1204 16.3592 77.1389C20.8546 70.2355 27.7064 68.7789 27.9977 68.7198C28.4956 68.6166 28.9823 68.9411 29.0856 69.439C29.1889 69.9368 28.8643 70.4236 28.3665 70.5268C28.3038 70.5416 21.9461 71.9171 17.8896 78.1752C14.2867 83.7289 13.516 91.3441 15.5959 100.81C15.5996 100.829 15.6032 100.844 15.6069 100.862C15.618 100.94 16.9898 108.935 23.3622 113.098C27.404 115.738 32.6037 116.317 38.8249 114.824L40.4991 106.774C40.6024 106.276 41.0929 105.955 41.5907 106.058C42.0885 106.161 42.4094 106.648 42.3061 107.15L40.5139 115.764C40.4438 116.107 40.182 116.38 39.8427 116.469C37.2355 117.14 34.7795 117.475 32.4894 117.475H32.4783Z" fill="#241F20"/>
<path d="M41.9412 105.527C41.9043 105.527 41.8674 105.527 41.8305 105.519C37.8773 105.051 34.9124 103.469 33.0095 100.829C29.6389 96.1379 30.9075 89.8429 30.9628 89.5774C31.0661 89.0796 31.5565 88.7624 32.0544 88.8657C32.5522 88.9689 32.873 89.4594 32.7661 89.9573C32.755 90.0163 31.6155 95.7396 34.5104 99.7629C36.0961 101.965 38.6296 103.285 42.0444 103.69C42.5497 103.749 42.9111 104.21 42.852 104.716C42.7967 105.184 42.3985 105.531 41.9375 105.531L41.9412 105.527Z" fill="#241F20"/>
<path d="M14.9832 103.218C14.5738 103.218 14.1977 102.942 14.0907 102.529C14.0207 102.256 14.0834 101.95 14.253 101.725C14.8799 100.895 24.2172 97.3142 32.5146 97.104C32.522 97.104 32.5294 97.104 32.5368 97.104C33.0346 97.104 33.444 97.5023 33.4587 98.0038C33.4735 98.5127 33.0678 98.9368 32.5589 98.9479C24.7962 99.1433 16.7127 102.326 15.6322 102.949C15.5216 103.06 15.3777 103.148 15.2118 103.189C15.1344 103.207 15.0569 103.218 14.9795 103.218H14.9832Z" fill="#241F20"/>
<path d="M31.6646 92.2541C31.5982 92.2541 31.5355 92.2468 31.4691 92.232C27.9768 91.4723 21.7483 91.1441 13.934 91.3101C13.7164 91.3138 13.5799 91.3138 13.5357 91.3175C13.0268 91.3138 12.6174 90.8971 12.6211 90.3882C12.6248 89.8829 13.0378 89.4736 13.5431 89.4736C13.5431 89.4736 13.5504 89.4736 13.5541 89.4736C13.5984 89.4736 13.7127 89.4736 13.8934 89.4662C21.8478 89.2966 28.2276 89.6395 31.86 90.4324C32.3579 90.5393 32.675 91.0298 32.5644 91.5277C32.4722 91.9591 32.0887 92.2541 31.6646 92.2541Z" fill="#241F20"/>
<path d="M35.5918 127.591C26.3614 127.591 18.8348 126.164 13.1225 123.328C12.7869 123.162 12.5878 122.808 12.6136 122.435C12.6209 122.336 13.3696 112.202 14.6492 104C14.7266 103.495 15.1987 103.152 15.7002 103.233C16.2017 103.311 16.5484 103.783 16.4672 104.284C15.3831 111.243 14.6824 119.622 14.498 121.945C23.9828 126.396 37.3988 126.127 47.0717 125.094C56.0514 124.139 63.5227 122.369 65.8017 121.794C65.6874 119.364 65.3186 111.394 64.9536 103.425C64.736 98.6459 64.5184 93.8666 64.3635 90.2784C64.2861 88.4825 64.2234 86.9889 64.1791 85.9416C64.157 85.4143 64.1423 85.0013 64.1349 84.7173C64.1201 84.2047 64.098 83.504 64.8724 83.3528C65.3223 83.268 65.7685 83.5188 65.9197 83.9466C65.9677 84.0756 65.9824 84.2084 65.9714 84.3375C65.9824 85.8126 67.2068 112.272 67.6825 122.454C67.7009 122.885 67.4207 123.273 67.0039 123.387C66.9154 123.409 58.2013 125.758 47.3004 126.92C43.1406 127.362 39.2316 127.584 35.5918 127.587V127.591Z" fill="#241F20"/>
<path d="M21.1942 138.462C20.925 138.462 20.6484 138.418 20.3792 138.318L17.4217 137.26C16.3412 136.873 15.681 135.77 15.8507 134.634L16.2785 131.791C16.378 131.127 16.7542 130.533 17.3073 130.157C17.8605 129.781 18.5575 129.652 19.2065 129.807L22.9828 130.692C23.6724 130.854 24.2513 131.308 24.5759 131.935C24.9004 132.562 24.9299 133.299 24.6607 133.952L23.4179 136.972C23.0344 137.898 22.142 138.466 21.1942 138.466V138.462ZM18.1039 132.067L17.6761 134.911C17.6355 135.176 17.7904 135.434 18.0449 135.526L21.0061 136.585C21.2901 136.688 21.6035 136.548 21.7179 136.268L22.9606 133.247C23.0455 133.037 22.9864 132.86 22.9422 132.775C22.8979 132.691 22.791 132.536 22.5697 132.484L18.7935 131.603C18.5833 131.555 18.4247 131.632 18.3473 131.684C18.2698 131.735 18.1371 131.854 18.1039 132.067Z" fill="#241F20"/>
<path d="M45.1515 116.996C44.1844 116.996 42.5365 116.734 40.4242 115.396C40.0122 115.134 39.876 114.569 40.1239 114.129C40.3718 113.693 40.906 113.549 41.3215 113.811C43.9679 115.485 45.6508 115.104 45.6682 115.101C45.7206 115.086 45.7869 115.079 45.8428 115.075C46.7087 115.038 46.7645 114.879 46.8832 114.524C47.0054 114.162 47.2359 113.486 48.0389 113.272C48.9187 113.035 48.8419 111.982 48.8175 111.775C48.7651 111.339 49.013 110.918 49.4075 110.777C50.1302 110.522 50.235 110.16 50.2489 110.06C50.235 109.979 50.2489 109.972 50.2594 109.876C50.3048 109.528 50.029 109.041 49.8858 108.856C49.7287 108.656 49.6589 108.394 49.6903 108.135C49.7252 107.877 49.8579 107.644 50.0604 107.5C52.5986 105.667 53.1887 104.521 53.2585 104.093C52.2006 104.052 48.8593 104.813 46.0837 105.634C45.6857 105.752 45.2632 105.556 45.0747 105.168C44.8862 104.78 44.9769 104.303 45.2981 104.026C46.5795 102.921 46.6633 102.312 46.6598 102.149C46.6598 102.057 46.6214 101.99 46.5865 101.95C45.0084 101.429 43.9051 102.962 43.748 103.195C43.6537 103.435 43.4652 103.631 43.2138 103.72C42.7564 103.882 42.2606 103.616 42.1105 103.132C42.0337 102.892 41.894 102.441 42.924 101.392C44.2053 100.083 45.8079 99.6733 47.3162 100.265C47.3685 100.283 47.4174 100.309 47.4628 100.338C47.5501 100.394 48.3217 100.919 48.395 102.005C48.4194 102.371 48.3601 102.748 48.2134 103.132C53.4435 101.787 54.1628 102.378 54.4211 102.589C54.7353 102.866 55.0321 103.394 54.9972 104.115C54.9378 105.416 53.8625 106.86 51.7153 108.523C51.8969 108.941 52.0435 109.473 51.9876 110.049C51.9911 110.659 51.6839 111.638 50.5597 112.263C50.4898 113.279 50.022 114.594 48.5626 115.038C48.5486 115.075 48.5347 115.119 48.5207 115.156C48.2274 116.017 47.7142 116.826 45.9859 116.922C45.8358 116.956 45.5495 117 45.148 117L45.1515 116.996Z" fill="#241F20"/>
</g>
<defs>
<clipPath id="clip0_1837_672393">
<rect width="100" height="210" fill="white"/>
</clipPath>
</defs>
</svg>
