<svg width="100" height="210" viewBox="0 0 100 210" fill="none" xmlns="http://www.w3.org/2000/svg">
<path d="M19.2305 90.1517L19.8228 99.1079L22.1343 106.554L29.6535 112.105V85.2441L19.2305 90.1517Z" fill="white"/>
<path d="M26.7529 22.5657L25.1875 49.6955L27.6298 73.4273L43.3952 80.1473L66.1375 66.1927L71.7106 43.8382L67.0452 33.4971L55.8567 19.5122L26.7529 22.5657Z" fill="white"/>
<path d="M54.3008 134.827L58.3316 165.975L68.5085 164.337L70.5585 134.827H54.3008Z" fill="white"/>
<path d="M35.0684 136.17L39.5145 169.854L49.2068 163.258L51.7222 131.626L35.0684 136.17Z" fill="white"/>
<path d="M40.0039 184.27L37.8654 188.466L25.0154 194.346L23.0039 197.176L23.4847 200.226H29.6539L43.4078 200.748L69.5308 200.226L69.8424 193.714L56.7385 188.466L52.7078 190.293L40.0039 184.27Z" fill="#FFBA57"/>
<path d="M35.7969 163.258L37.743 175.469L35.97 178.575L37.743 182.067L35.7969 185.904L39.5007 187.558L52.7084 188.92L51.3161 186.529L52.7084 183.971L51.6084 180.562L52.7084 177.879L51.2392 174.64L52.1123 163.258H35.7969Z" fill="#FFF080"/>
<path d="M56.4609 164.337L57.4609 173.823L56.4609 176.089L58.034 179.147L56.4609 181.334L58.3302 184.921L56.7379 188.088L71.3956 193.956L73.5302 190.888L71.6302 188.088L72.4802 183.513L70.5571 181.833L72.9109 179.945L70.6186 176.089L71.7686 174.133L71.284 171.322L71.4879 164.337H56.4609Z" fill="#FFF080"/>
<path d="M27.67 128.527L25.0469 138.599H34.2623L34.6469 140.484L47.8738 139.844L47.4546 138.599H56.0969V140.484L67.8046 139.943L68.5084 138.599H78.4007L76.1853 128.527L50.0007 128.512L47.5623 120.097L43.4084 119.692L42.6123 128.527H27.67Z" fill="#2BE6AE"/>
<path d="M26.7531 120.097L25.5762 128.527H42.6108L43.4069 119.692L26.7531 120.097Z" fill="#FFBA57"/>
<path d="M47.5625 120.097L50.001 128.515C50.001 128.515 77.4433 128.769 77.6317 127.808C77.8202 126.847 75.8702 118.901 75.8702 118.901L47.5625 120.1V120.097Z" fill="#FFBA57"/>
<path d="M39.1615 71.4072L39.9192 79.2888L37 108.757L41.9769 114.402L49.0269 109.029L43.4077 84.6656L47.4538 84.2191L46.9192 78.7629L49.0269 72.164L39.1615 71.4072Z" fill="#2BE6AE"/>
<path d="M24.0041 71.6341L19.231 78.5812L16.6387 92.339H27.631L26.7541 120.097L75.8694 118.897L74.2541 102.173L66.0194 104.25L62.2964 103.717L58.7733 103.868L57.5348 104.046L57.0233 109.09L47.4541 110.104L41.9771 114.402L37.0002 108.757L39.9194 79.2887L39.1617 71.4071L31.6848 64.4185L29.8733 65.4325L32.8117 73.7985L26.7541 76.7385L24.0041 71.6341Z" fill="#FFF080"/>
<path d="M55.3689 8.77004C55.3689 8.77004 40.1843 0.899771 30.8112 10.2609C21.4382 19.6257 19.2305 38.9608 19.2305 38.9608C19.2305 38.9608 19.6535 67.99 26.7535 76.7344L32.8151 73.7944L29.8728 65.4284L32.8151 63.3095L27.9151 51.5835L25.192 49.6917L26.0151 38.31L29.1343 36.2933C29.1343 36.2933 40.5612 21.7333 50.7689 22.0284C60.9766 22.3236 66.2497 37.0425 67.0535 42.563C67.8574 48.0836 65.5382 65.0841 61.6112 66.189H66.1497C66.1497 66.189 67.7651 77.1581 64.3343 79.9544L68.2151 80.6733C68.2151 80.6733 82.4882 59.6354 80.0035 36.789C77.5189 13.9463 71.1228 9.20518 55.3805 8.76626L55.3689 8.77004Z" fill="#67A9F9"/>
<path d="M61.6007 66.1929L49.0276 72.1637L46.9199 78.7626L47.4545 84.2188L57.0238 83.1669V88.9864L60.8853 91.0826L66.4622 88.9864L84.1738 95.3394L86.0776 81.6307L81.6007 71.4069L75.3892 68.168L68.2045 80.6772L64.3238 78.9102L67.0468 72.1637L66.1392 66.1929H61.6007Z" fill="#FFF080"/>
<path d="M44.9805 90.9464L54.142 90.1519L54.892 93.2319L52.4612 94.9156L52.8343 97.3259V99.7248L54.0228 103.24L57.5343 104.046V109.324L48.7882 109.896L44.9805 90.9464Z" fill="#FF6A2F"/>
<path d="M54.1421 90.152L54.8921 93.232L52.4613 94.9158L53.6767 97.8028L52.1113 99.5472L53.0306 100.679L53.9459 101.579L54.2306 103.929H59.2575L65.3344 104.046L75.1883 101.636L81.9075 94.1666L67.4306 88.4077L64.6959 90.7991L61.5998 90.8142L54.1421 90.152Z" fill="white"/>
<path d="M54.1458 49.4084C53.7419 49.4084 53.3842 49.363 53.1073 49.2949C51.7112 48.9467 50.7535 48.0916 50.4727 46.9527C50.2265 45.9349 50.5688 44.8451 51.3458 44.1754C52.8573 42.8738 54.6458 42.8208 56.0612 43.2294C55.9919 43.1235 55.9112 43.0251 55.8227 42.9305C55.2727 42.3667 54.3688 42.1586 53.1304 42.3062C53.1112 42.3062 53.0958 42.31 53.0765 42.31C53.065 42.31 52.2688 42.4159 51.5573 43.4527C51.2612 43.884 50.6612 44.0013 50.2227 43.7062C49.7842 43.4149 49.6688 42.8246 49.965 42.3932C51.1458 40.6754 52.615 40.4521 52.915 40.4219C54.7842 40.1986 56.2342 40.6035 57.2227 41.6251C58.9419 43.3997 58.4496 46.3321 58.4265 46.457C58.4188 46.4911 58.4112 46.5251 58.4035 46.5592C57.7458 48.7878 55.6458 49.4008 54.1458 49.4008V49.4084ZM54.5035 44.883C53.8958 44.883 53.2342 45.0646 52.615 45.5981C52.3765 45.8024 52.265 46.1808 52.3458 46.51C52.4535 46.9489 52.8919 47.2857 53.5842 47.4597C53.6073 47.4635 55.9688 47.8646 56.5419 46.09C56.5612 45.95 56.5804 45.7646 56.5881 45.5451C56.2227 45.2954 55.4227 44.8867 54.5073 44.8867L54.5035 44.883Z" fill="black"/>
<path d="M33.9817 48.818C33.5817 48.818 33.2202 48.7726 32.9432 48.7045C31.5471 48.3564 30.5856 47.5013 30.3086 46.3624C30.0625 45.3445 30.4048 44.2548 31.1817 43.5851C32.6932 42.2834 34.4817 42.2305 35.8971 42.6391C35.8279 42.5332 35.7471 42.4348 35.6586 42.3402C35.1086 41.7764 34.2048 41.5683 32.9663 41.7159C32.9471 41.7159 32.9317 41.7197 32.9125 41.7197C32.9009 41.7197 32.1048 41.8256 31.3932 42.8624C31.0971 43.2937 30.4971 43.411 30.0586 43.1159C29.6202 42.8245 29.5048 42.2343 29.8009 41.8029C30.9779 40.0851 32.4509 39.8618 32.7509 39.8315C34.6202 39.6083 36.0702 40.0132 37.0586 41.0348C38.7779 42.8094 38.2856 45.7418 38.2625 45.8667C38.2548 45.9007 38.2471 45.9348 38.2394 45.9688C37.5817 48.1975 35.4817 48.8105 33.9817 48.8105V48.818ZM34.3432 44.2964C33.7356 44.2964 33.074 44.478 32.4548 45.0115C32.2163 45.2159 32.1048 45.5943 32.1856 45.9234C32.2932 46.3624 32.7317 46.6991 33.424 46.8732C33.4471 46.877 35.8086 47.278 36.3817 45.5034C36.4009 45.3634 36.4202 45.178 36.4279 44.9586C36.0625 44.7088 35.2625 44.3002 34.3471 44.3002L34.3432 44.2964Z" fill="black"/>
<path d="M42.2348 59.3671C41.4002 59.3671 40.8502 59.1514 40.5041 58.7276C40.0541 58.1714 40.1579 57.4374 40.4579 56.9568C40.5002 56.8887 40.5502 56.8282 40.6079 56.7752C41.331 56.0865 41.6772 55.6211 41.8425 55.3298C40.4887 55.4736 39.3964 55.4736 39.3425 55.4736C38.9156 55.4736 38.5387 55.1936 38.4195 54.7887C37.5272 51.7352 39.6233 48.1746 40.5656 46.786C40.8618 46.3509 41.4579 46.2336 41.9002 46.5249C42.3425 46.8163 42.4618 47.4028 42.1656 47.8379C41.6079 48.6628 39.9502 51.319 40.1387 53.5628C40.7079 53.5363 41.5233 53.4833 42.3695 53.3622C42.5041 53.3433 42.6464 53.3546 42.7772 53.3925C43.1772 53.5098 43.7041 53.8768 43.8695 54.539C44.0733 55.3601 43.6733 56.3022 42.6156 57.4601C43.2348 57.3957 44.331 57.1838 46.2118 56.5595C46.7156 56.393 47.2618 56.6617 47.431 57.1536C47.6002 57.6492 47.3272 58.1865 46.8272 58.353C44.7618 59.0341 43.281 59.3709 42.2387 59.3709L42.2348 59.3671Z" fill="black"/>
<path d="M42.9848 62.0459C42.7541 62.0459 42.5195 62.0383 42.281 62.0156C41.7502 61.9702 41.3579 61.5124 41.4041 60.994C41.4502 60.4718 41.9156 60.0859 42.4425 60.1313C45.281 60.3697 47.4156 58.6102 47.4348 58.5913C47.8387 58.2545 48.4425 58.2999 48.7887 58.6934C49.1348 59.087 49.0925 59.681 48.6887 60.0253C48.5848 60.1124 46.2733 62.0459 42.981 62.0459H42.9848Z" fill="black"/>
<path d="M59.9391 52.6547H51.3968C50.866 52.6547 50.4353 52.2309 50.4353 51.7088C50.4353 51.1866 50.866 50.7628 51.3968 50.7628H59.9391C61.2353 50.7628 62.2891 49.7261 62.2891 48.451V40.051C62.2891 38.7758 61.2353 37.7391 59.9391 37.7391H49.7007C48.4045 37.7391 47.3507 38.7758 47.3507 40.051V43.3504C47.3507 43.8726 46.9199 44.2964 46.3891 44.2964H42.366C41.8353 44.2964 41.4045 43.8726 41.4045 43.3504V40.051C41.4045 38.7758 40.3507 37.7391 39.0545 37.7391H28.816C27.5199 37.7391 26.466 38.7758 26.466 40.051V48.451C26.466 49.7261 27.5199 50.7628 28.816 50.7628H37.3584C37.8891 50.7628 38.3199 51.1866 38.3199 51.7088C38.3199 52.2309 37.8891 52.6547 37.3584 52.6547H28.816C26.4584 52.6547 24.543 50.7704 24.543 48.451V40.051C24.543 37.7315 26.4584 35.8472 28.816 35.8472H39.0545C41.4122 35.8472 43.3276 37.7315 43.3276 40.051V42.4045H45.4276V40.051C45.4276 37.7315 47.343 35.8472 49.7007 35.8472H59.9391C62.2968 35.8472 64.2122 37.7315 64.2122 40.051V48.451C64.2122 50.7704 62.2968 52.6547 59.9391 52.6547Z" fill="black"/>
<path d="M28.8074 37.7388C28.642 37.7388 28.4766 37.6972 28.3266 37.6101C27.8689 37.3491 27.7112 36.7701 27.9766 36.3199C28.2497 35.8545 34.8766 24.8626 50.5304 21.1128C51.0458 20.988 51.5651 21.302 51.692 21.8091C51.8189 22.3161 51.4997 22.8269 50.9843 22.9518C36.1612 26.501 29.6997 37.1599 29.6381 37.2696C29.4612 37.5723 29.1381 37.7388 28.8074 37.7388Z" fill="black"/>
<path d="M42.3629 35.3666C42.0321 35.3666 41.709 35.1963 41.5321 34.8974C41.2667 34.4471 41.4206 33.8682 41.8821 33.6033C49.5552 29.2179 53.286 22.9255 53.3244 22.865C53.5898 22.4109 54.1783 22.2558 54.636 22.5168C55.0975 22.7779 55.2552 23.3568 54.9898 23.8071C54.8283 24.0833 50.959 30.6028 42.8475 35.2417C42.6937 35.3287 42.5283 35.3704 42.3667 35.3704L42.3629 35.3666Z" fill="black"/>
<path d="M21.3424 27.1065C21.2462 27.1065 21.15 27.0914 21.05 27.0611C20.5424 26.9022 20.2654 26.3725 20.4231 25.873C23.8462 15.2557 29.1847 8.5357 36.2924 5.8984C46.0693 2.26976 55.4654 7.72597 55.8616 7.96057C56.3154 8.22922 56.4616 8.81192 56.1885 9.2584C55.9154 9.70489 55.3231 9.84867 54.8693 9.58003C54.7808 9.52705 45.85 4.36219 36.9539 7.673C30.4308 10.1022 25.4847 16.4173 22.2539 26.4443C22.1231 26.8454 21.7462 27.1027 21.3385 27.1027L21.3424 27.1065Z" fill="black"/>
<path d="M67.0393 43.2518C67.0393 43.2518 67.0201 43.2518 67.0124 43.2518C66.4816 43.2367 66.0624 42.8015 66.0778 42.2794C66.3585 32.381 57.1047 26.1378 57.0085 26.0734C56.5701 25.7821 56.4508 25.1956 56.747 24.7605C57.0431 24.3253 57.6393 24.2118 58.0816 24.5032C58.5008 24.7794 68.3085 31.3745 68.0008 42.3323C67.9855 42.8469 67.5585 43.2518 67.0393 43.2518Z" fill="black"/>
<path d="M79.3426 48.254C79.3042 48.254 79.2657 48.254 79.2234 48.2464C78.6965 48.1821 78.3196 47.7091 78.3849 47.1908C80.2273 32.4454 78.1503 21.7146 72.2196 15.2973C66.6273 9.24699 59.4272 9.36807 59.358 9.36807C58.8311 9.37564 58.3849 8.97077 58.3696 8.44861C58.3542 7.92645 58.7696 7.49131 59.3003 7.47618C59.6311 7.46861 67.408 7.30213 73.6119 13.9881C79.9619 20.8292 82.208 32.0746 80.2926 47.4178C80.2311 47.8983 79.8196 48.2502 79.3388 48.2502L79.3426 48.254Z" fill="black"/>
<path d="M68.2044 81.6233C67.9967 81.6233 67.7852 81.5552 67.6082 81.419C67.1929 81.0974 67.1198 80.4995 67.4467 80.0909C75.639 69.8671 77.7467 51.7882 77.7659 51.6066C77.8236 51.0882 78.2967 50.7136 78.8275 50.7703C79.3544 50.8271 79.7352 51.2963 79.6775 51.8147C79.6544 52.0038 79.1352 56.5557 77.5621 62.4774C75.439 70.4649 72.5467 76.7838 68.9544 81.2638C68.7659 81.5022 68.4813 81.6233 68.2006 81.6233H68.2044Z" fill="black"/>
<path d="M64.3227 80.102C64.1496 80.102 63.9727 80.0566 63.815 79.9582C63.365 79.682 63.2265 79.0993 63.5034 78.6566C65.8534 74.9295 65.5111 69.2236 65.2881 67.1387H61.5996C61.2342 67.1387 60.8958 66.9344 60.7342 66.609C60.5727 66.2836 60.615 65.8977 60.8381 65.6139C65.1573 60.1349 66.0765 51.7009 66.0842 51.6139C66.1381 51.0955 66.6073 50.7171 67.1381 50.7701C67.665 50.8231 68.0496 51.2885 67.9957 51.8068C67.9611 52.1436 67.1611 59.4804 63.4419 65.2468H66.1342C66.6073 65.2468 67.0073 65.5836 67.0842 66.0414C67.1419 66.382 68.4227 74.4414 65.1342 79.6517C64.9534 79.9393 64.6381 80.0982 64.315 80.0982L64.3227 80.102Z" fill="black"/>
<path d="M26.7551 77.6841C26.4205 77.6841 26.0974 77.5139 25.9205 77.2074C22.0089 70.4457 19.7205 60.7895 19.1205 48.5074C18.6782 39.3998 19.382 32.1539 19.3897 32.082C19.4397 31.5636 19.9128 31.1814 20.4397 31.2344C20.9666 31.2836 21.3551 31.749 21.3051 32.2674C21.2974 32.3393 20.6051 39.4717 21.0436 48.4468C21.4474 56.6766 22.9089 68.1868 27.5936 76.2728C27.8551 76.7268 27.6936 77.3058 27.232 77.563C27.082 77.6463 26.9166 77.6879 26.7589 77.6879L26.7551 77.6841Z" fill="black"/>
<path d="M32.8158 74.1425C32.5081 74.1425 32.2082 73.9988 32.0235 73.7339C30.6005 71.6944 29.012 65.9204 28.9466 65.6782C28.8428 65.2998 28.9851 64.8988 29.3081 64.6679L31.3928 63.1696C28.9389 60.1009 27.9158 54.8717 27.8697 54.6296C27.7735 54.115 28.1158 53.6231 28.6389 53.5247C29.1581 53.4301 29.662 53.7669 29.762 54.2777C29.7735 54.3382 30.9235 60.222 33.4851 62.6285C33.6889 62.8215 33.7966 63.0939 33.7812 63.3739C33.7658 63.6539 33.6197 63.9112 33.3889 64.0739L30.9851 65.8069C31.5351 67.7101 32.7005 71.3539 33.612 72.6593C33.912 73.0907 33.8005 73.6771 33.3658 73.9761C33.2005 74.0896 33.0081 74.1425 32.8235 74.1425H32.8158Z" fill="black"/>
<path d="M46.7498 80.2346C46.7498 80.2346 46.7152 80.2346 46.696 80.2346L39.8998 79.8562C39.4498 79.8297 39.0767 79.5005 39.0036 79.0616L37.8229 71.7892C37.7767 71.5054 37.8613 71.2216 38.0575 71.0059C38.2498 70.7941 38.5306 70.6805 38.8229 70.6957L49.0729 71.2254C49.369 71.2405 49.6421 71.3919 49.8113 71.6303C49.9806 71.8687 50.0267 72.1751 49.9383 72.4551L47.6613 79.5762C47.5344 79.9735 47.1613 80.2384 46.746 80.2384L46.7498 80.2346ZM40.7844 78.0059L46.0613 78.3011L47.7421 73.0454L39.9152 72.6405L40.7844 78.0059Z" fill="black"/>
<path d="M46.9205 84.794C46.4051 84.794 45.9782 84.393 45.9589 83.8822L45.7897 79.3227C45.7705 78.8005 46.1859 78.3616 46.7166 78.3427C47.2512 78.32 47.6936 78.7324 47.7128 79.2546L47.882 83.814C47.9012 84.3362 47.4859 84.7751 46.9551 84.794C46.9435 84.794 46.932 84.794 46.9205 84.794Z" fill="black"/>
<path d="M41.9766 115.348C41.7074 115.348 41.4382 115.238 41.2497 115.023L36.2728 109.377C36.0997 109.181 36.0151 108.923 36.042 108.666L38.9997 78.8195C39.0497 78.3011 39.5189 77.9189 40.0497 77.9681C40.5766 78.0173 40.9651 78.4827 40.9151 79.0011L37.9997 108.447L42.1036 113.101L47.2805 109.037C47.6959 108.711 48.2997 108.776 48.6305 109.188C48.9613 109.597 48.892 110.191 48.4766 110.516L42.5805 115.144C42.4036 115.284 42.192 115.352 41.9805 115.352L41.9766 115.348Z" fill="black"/>
<path d="M26.7549 121.043C26.5011 121.043 26.2549 120.944 26.0741 120.763C25.8895 120.577 25.7857 120.327 25.7934 120.066L26.9357 81.6004C26.9511 81.0782 27.3972 80.6695 27.9241 80.6809C28.4549 80.696 28.8741 81.1312 28.8588 81.6533L27.7472 119.12L74.8049 117.974L73.9434 110.213C73.8857 109.695 74.2664 109.226 74.7934 109.169C75.3203 109.112 75.7972 109.487 75.8549 110.005L76.828 118.787C76.8588 119.052 76.7741 119.313 76.5972 119.514C76.4203 119.714 76.1664 119.832 75.8972 119.835L26.7818 121.035C26.7818 121.035 26.7664 121.035 26.7588 121.035L26.7549 121.043Z" fill="black"/>
<path d="M34.2623 139.546H25.047C24.7508 139.546 24.4739 139.413 24.2931 139.186C24.1123 138.959 24.0431 138.664 24.1123 138.38L26.3546 129.118C26.4777 128.611 26.997 128.296 27.5123 128.418C28.0277 128.539 28.347 129.049 28.2239 129.556L26.2623 137.654H34.2585C34.7893 137.654 35.22 138.078 35.22 138.6C35.22 139.122 34.7893 139.546 34.2585 139.546H34.2623Z" fill="black"/>
<path d="M47.4551 140.889H34.6474C34.3743 140.889 34.1127 140.775 33.932 140.575C33.7512 140.374 33.6627 140.105 33.6935 139.84L34.8474 129.613C34.9051 129.095 35.3781 128.72 35.9089 128.777C36.4358 128.833 36.8166 129.303 36.7589 129.821L35.7243 139H46.382L45.3474 129.991C45.2897 129.473 45.6666 129.004 46.1935 128.947C46.7243 128.886 47.1974 129.261 47.2551 129.779L48.4089 139.84C48.4397 140.109 48.3512 140.378 48.1704 140.578C47.9897 140.779 47.7281 140.892 47.4551 140.892V140.889Z" fill="black"/>
<path d="M67.8033 140.889H55.7649C55.4957 140.889 55.2418 140.779 55.061 140.586C54.8803 140.393 54.788 140.132 54.8072 139.871L55.5764 130.022C55.6187 129.499 56.0841 129.11 56.6072 129.151C57.138 129.193 57.5341 129.647 57.4918 130.165L56.8033 138.997H66.6918L65.311 129.639C65.2341 129.121 65.5995 128.644 66.1264 128.569C66.6533 128.493 67.138 128.852 67.2149 129.371L68.7533 139.81C68.7918 140.083 68.711 140.359 68.5303 140.567C68.3495 140.775 68.0841 140.892 67.8033 140.892V140.889Z" fill="black"/>
<path d="M55.7614 139.545H47.4498C46.9191 139.545 46.4883 139.121 46.4883 138.599C46.4883 138.077 46.9191 137.653 47.4498 137.653H55.7614C56.2921 137.653 56.7229 138.077 56.7229 138.599C56.7229 139.121 56.2921 139.545 55.7614 139.545Z" fill="black"/>
<path d="M78.4006 139.546H67.7506C67.2198 139.546 66.7891 139.122 66.7891 138.6C66.7891 138.077 67.2198 137.654 67.7506 137.654H77.2083L75.2468 128.728C75.1352 128.217 75.4621 127.714 75.9814 127.604C76.5006 127.494 77.0121 127.816 77.1237 128.327L79.3391 138.395C79.4006 138.675 79.3314 138.967 79.1468 139.19C78.9621 139.413 78.6891 139.542 78.3968 139.542L78.4006 139.546Z" fill="black"/>
<path d="M55.8845 105.196C54.5653 105.196 53.6576 104.874 53.1038 104.235C52.4076 103.425 52.573 102.385 52.7922 101.859C52.8422 101.681 52.5768 101.514 52.5422 101.495C52.5345 101.492 52.5076 101.476 52.4999 101.469C51.6345 100.909 51.1807 100.239 51.1461 99.4824C51.1038 98.4268 51.9422 97.7495 52.0384 97.6776C52.0538 97.6662 52.0653 97.6549 52.0807 97.6473C52.2615 97.5262 52.1076 97.2122 52.0345 97.0873C51.2115 96.1906 51.2115 95.43 51.3653 94.9419C51.7422 93.7387 53.2692 93.3565 53.5692 93.2922C53.7538 93.2543 53.8576 93.2127 53.9153 93.1824C53.8768 93.05 53.7499 92.8419 53.6653 92.7435C53.6153 92.6868 53.573 92.6262 53.5384 92.5619C52.8807 91.317 52.8192 90.3181 53.3576 89.5992C54.1192 88.5814 55.6307 88.7478 56.023 88.8122C58.0038 89.0127 59.7153 89.8224 60.2692 90.1062C61.6576 90.2424 64.9922 90.1819 66.2576 88.4376C66.5653 88.0138 67.1692 87.9154 67.5999 88.2181C68.0307 88.5208 68.1307 89.1149 67.823 89.5387C65.5576 92.6527 60.0845 91.9906 59.8538 91.9603C59.7307 91.9451 59.6076 91.9035 59.4999 91.843C59.4845 91.8354 57.7615 90.8781 55.7999 90.6852C55.773 90.6852 55.7499 90.6776 55.7268 90.6738C55.4461 90.6284 55.0615 90.6473 54.923 90.7154C54.9192 90.7987 54.9345 91.0597 55.2076 91.6008C55.473 91.9338 56.0922 92.8495 55.7615 93.8106C55.5999 94.2797 55.1615 94.8927 53.9807 95.1387C53.6961 95.203 53.3422 95.3657 53.2268 95.483C53.2499 95.5397 53.3192 95.6646 53.5076 95.8614C53.5422 95.8992 53.5769 95.9408 53.6076 95.9824C54.1538 96.7733 54.4961 98.2716 53.2192 99.1722C53.1499 99.2327 53.0692 99.3576 53.073 99.4068C53.073 99.4522 53.1692 99.6262 53.5384 99.8722C54.3538 100.341 55.023 101.363 54.5961 102.517C54.5884 102.54 54.5807 102.559 54.5692 102.581C54.5499 102.627 54.4692 102.899 54.5692 103.013C54.5999 103.047 55.3307 103.8 59.5076 102.718C60.023 102.585 60.5461 102.888 60.6807 103.391C60.8153 103.894 60.5076 104.413 59.9961 104.545C58.3269 104.976 56.9653 105.196 55.8807 105.196H55.8845Z" fill="black"/>
<path d="M49.2272 110.842C48.7849 110.842 48.3888 110.539 48.2888 110.104L42.4734 84.8734C42.4118 84.6124 42.4695 84.3361 42.6272 84.1167C42.7849 83.8972 43.0311 83.7534 43.3041 83.7232L57.4272 82.168C57.7003 82.1378 57.9734 82.2248 58.1734 82.4026C58.3772 82.5805 58.4926 82.8378 58.4926 83.1064V89.2096L63.7311 89.8151L66.8695 87.6318C67.1426 87.4426 67.4926 87.4048 67.7965 87.5334L75.7542 90.8291C76.2426 91.0334 76.4734 91.5859 76.2657 92.0664C76.058 92.5469 75.4965 92.774 75.008 92.5696L67.5426 89.4783L64.5388 91.5707C64.3465 91.7069 64.108 91.7637 63.8734 91.7372L57.4195 90.9918C56.9349 90.9351 56.5695 90.534 56.5695 90.0534V84.1659L44.5811 85.4864L49.9695 108.866L56.5657 108.182V104.103C56.5657 103.58 56.9965 103.157 57.5272 103.157C58.058 103.157 58.4888 103.58 58.4888 104.103V109.033C58.4888 109.517 58.1157 109.922 57.6272 109.975L49.3195 110.834C49.2849 110.834 49.2503 110.838 49.2195 110.838L49.2272 110.842Z" fill="black"/>
<path d="M65.9008 104.969C63.6701 104.969 62.1354 104.647 62.0854 104.636C61.5662 104.523 61.2393 104.016 61.3585 103.505C61.4739 102.994 61.9893 102.672 62.5085 102.79C62.5393 102.797 65.9085 103.508 69.7739 102.733C74.8393 101.715 78.3547 98.7182 80.2278 93.8296C80.4162 93.3414 80.9701 93.0917 81.4662 93.2771C81.9624 93.4625 82.2124 94.0074 82.0278 94.4955C78.5778 103.508 70.6585 104.965 65.9047 104.965L65.9008 104.969Z" fill="black"/>
<path d="M84.1777 96.2853C84.0508 96.2853 83.9238 96.2588 83.8046 96.2096L64.3238 88.1464C63.8546 87.9534 63.62 87.4313 63.7892 86.9583L65.0315 83.5302C65.2085 83.0383 65.7623 82.781 66.2585 82.955C66.7585 83.1291 67.02 83.6702 66.8431 84.1621L65.9046 86.7464L83.5854 94.0642C84.7162 90.4053 88.0469 77.0334 78.6662 70.8507C78.2238 70.5594 78.1085 69.9729 78.4008 69.5378C78.6969 69.1026 79.2931 68.9891 79.7354 69.2767C84.7892 72.6064 87.3085 78.2556 87.0162 85.6113C86.8008 91.0599 85.1469 95.4756 85.0777 95.661C84.9854 95.9032 84.7969 96.0961 84.5585 96.1983C84.4354 96.2513 84.3085 96.2777 84.1777 96.2777V96.2853Z" fill="black"/>
<path d="M27.6312 93.2851H16.6351C16.3697 93.2851 16.1197 93.1792 15.9389 92.99C15.7582 92.8008 15.662 92.5473 15.6774 92.29C16.5312 76.5835 23.3505 70.9116 23.6428 70.677C24.0543 70.3478 24.6582 70.4046 24.9966 70.8094C25.3312 71.2143 25.2735 71.8083 24.8658 72.1375C24.7697 72.217 18.6928 77.3894 17.662 91.3932H27.6312C28.162 91.3932 28.5928 91.817 28.5928 92.3392C28.5928 92.8613 28.162 93.2851 27.6312 93.2851Z" fill="black"/>
<path d="M26.7498 111.878C26.5383 111.878 26.3229 111.81 26.146 111.667C17.3229 104.617 18.2768 92.759 18.3191 92.2557C18.3652 91.7336 18.8344 91.3476 19.3614 91.3968C19.8883 91.4422 20.2806 91.9 20.2344 92.4222C20.2229 92.5357 19.3383 103.792 27.3575 110.198C27.7691 110.528 27.8344 111.122 27.4998 111.53C27.3114 111.761 27.0306 111.878 26.7537 111.878H26.7498Z" fill="black"/>
<path d="M42.436 129.473H25.5783C25.3013 129.473 25.036 129.356 24.8552 129.148C24.6744 128.943 24.5898 128.667 24.6283 128.399L25.8052 119.964C25.8783 119.446 26.359 119.087 26.8898 119.155C27.4167 119.227 27.7821 119.703 27.7129 120.222L26.686 127.581H41.586L42.4629 119.987C42.5244 119.469 42.9975 119.094 43.5283 119.155C44.0552 119.215 44.436 119.681 44.3744 120.203L43.4013 128.637C43.3475 129.114 42.936 129.477 42.4475 129.477L42.436 129.473Z" fill="black"/>
<path d="M49.4119 129.473C48.9619 129.473 48.5696 129.163 48.4735 128.728L46.5158 119.79C46.4042 119.28 46.735 118.776 47.2542 118.667C47.7735 118.557 48.285 118.882 48.3965 119.393L50.1889 127.562L76.4773 126.889L74.9312 119.079C74.8312 118.568 75.1696 118.069 75.6927 117.97C76.2119 117.872 76.7196 118.205 76.8196 118.72L78.5812 127.627C78.635 127.899 78.5658 128.183 78.3889 128.398C78.2119 128.614 77.9465 128.747 77.6658 128.75L49.4465 129.473C49.4465 129.473 49.4312 129.473 49.4196 129.473H49.4119Z" fill="black"/>
<path d="M68.513 165.283C68.486 165.283 68.463 165.283 68.436 165.283C67.9053 165.241 67.513 164.787 67.5514 164.265L69.5976 138.528C69.6399 138.005 70.1053 137.616 70.6322 137.657C71.163 137.699 71.5553 138.153 71.5168 138.675L69.4707 164.412C69.4322 164.908 69.0091 165.283 68.513 165.283Z" fill="black"/>
<path d="M58.3321 165.283C57.8474 165.283 57.4282 164.923 57.3782 164.435L54.759 139.943C54.7051 139.424 55.0859 138.959 55.6128 138.902C56.1398 138.849 56.6128 139.224 56.6705 139.742L59.2897 164.234C59.3436 164.753 58.9628 165.218 58.4359 165.275C58.4013 165.275 58.3667 165.279 58.3359 165.279L58.3321 165.283Z" fill="black"/>
<path d="M49.2112 164.205C49.2112 164.205 49.1728 164.205 49.1535 164.205C48.6228 164.174 48.2189 163.728 48.2497 163.206L49.6843 138.547C49.7151 138.025 50.1766 137.631 50.6997 137.658C51.2305 137.688 51.6343 138.134 51.6035 138.656L50.1689 163.315C50.1382 163.819 49.7151 164.208 49.2112 164.208V164.205Z" fill="black"/>
<path d="M38.4841 164.204C37.9995 164.204 37.5841 163.849 37.5303 163.364L34.8457 139.95C34.788 139.432 35.1649 138.963 35.6918 138.906C36.2226 138.845 36.6957 139.22 36.7534 139.738L39.438 163.152C39.4957 163.671 39.1187 164.14 38.5918 164.197C38.5534 164.2 38.5188 164.204 38.4841 164.204Z" fill="black"/>
<path d="M71.3925 194.902C71.2694 194.902 71.1502 194.879 71.031 194.834L56.3733 188.965C56.1271 188.867 55.931 188.67 55.8348 188.424C55.7387 188.178 55.754 187.906 55.8733 187.667L57.2117 185.007L55.3079 182.363C55.0656 182.026 55.0733 181.579 55.3233 181.25L56.7656 179.354L55.3079 177.326C55.1117 177.05 55.0771 176.694 55.2194 176.388L56.4771 173.667L55.5002 164.435C55.4733 164.17 55.5617 163.901 55.7425 163.705C55.9233 163.508 56.1848 163.391 56.4579 163.391H71.2271C71.5002 163.391 71.7579 163.504 71.9425 163.705C72.1271 163.905 72.2117 164.17 72.1848 164.435L71.5348 170.534L72.8271 173.448C72.9502 173.724 72.931 174.038 72.7771 174.299L71.4387 176.581L73.3463 178.893C73.6387 179.248 73.631 179.759 73.331 180.107L71.8963 181.75L73.5387 183.184C73.8463 183.452 73.9463 183.887 73.7848 184.262L72.381 187.501L74.3271 190.369C74.5463 190.691 74.5425 191.111 74.3194 191.428L72.181 194.497C71.9963 194.762 71.6963 194.91 71.3887 194.91L71.3925 194.902ZM58.0579 187.595L71.0387 192.794L72.3694 190.884L70.4963 188.121C70.3156 187.857 70.2848 187.52 70.4117 187.225L71.7463 184.141L69.9156 182.54C69.5233 182.196 69.4848 181.61 69.8233 181.216L71.3502 179.468L69.531 177.266C69.281 176.963 69.2463 176.535 69.4463 176.195L70.8733 173.766L69.6733 171.064C69.6079 170.913 69.581 170.75 69.6002 170.587L70.1656 165.286H57.5271L58.4194 173.728C58.4387 173.894 58.4079 174.065 58.3387 174.216L57.2002 176.675L58.7425 178.825C58.981 179.158 58.9771 179.608 58.7271 179.937L57.2848 181.833L59.1156 184.375C59.3194 184.659 59.3502 185.03 59.1925 185.344L58.0579 187.599V187.595Z" fill="black"/>
<path d="M49.027 73.1097C48.6501 73.1097 48.2924 72.8902 48.1386 72.527C47.9347 72.0464 48.1655 71.4902 48.6578 71.2897L58.404 67.2902C58.8924 67.0897 59.4578 67.3167 59.6616 67.801C59.8655 68.2815 59.6347 68.8378 59.1424 69.0383L49.3963 73.0378C49.277 73.087 49.1501 73.1097 49.027 73.1097Z" fill="black"/>
<path d="M52.7077 189.866C52.6692 189.866 52.6307 189.866 52.5923 189.858L38.5307 188.209C38.423 188.197 38.3192 188.167 38.223 188.118L35.3731 186.748C35.1423 186.638 34.9654 186.442 34.8846 186.203C34.8038 185.965 34.8192 185.704 34.9346 185.477L36.6654 182.064L35.1077 178.991C34.9654 178.711 34.973 178.378 35.1307 178.106L36.7384 175.287L34.8461 163.398C34.8038 163.126 34.8846 162.846 35.0654 162.638C35.2461 162.426 35.5154 162.309 35.7961 162.309H52.1077C52.3769 162.309 52.6307 162.418 52.8115 162.611C52.9923 162.804 53.0846 163.062 53.0654 163.326L52.2115 174.47L53.5807 177.489C53.6961 177.739 53.6923 178.026 53.573 178.276L52.3615 180.808L53.5846 183.589C53.7 183.85 53.6884 184.145 53.5577 184.398L52.4077 186.593L53.5269 188.424C53.7154 188.735 53.7115 189.12 53.5115 189.427C53.3346 189.699 53.0269 189.858 52.7038 189.858L52.7077 189.866ZM38.923 186.351L50.8731 187.755L50.4884 187.126C50.3154 186.846 50.3038 186.498 50.4577 186.207L51.6461 183.94L50.4307 181.178C50.3192 180.929 50.3269 180.645 50.4423 180.399L51.65 177.871L50.3615 175.03C50.2961 174.886 50.2692 174.731 50.2807 174.572L51.073 164.204H36.923L38.6923 175.321C38.7269 175.529 38.6846 175.745 38.5807 175.93L37.0577 178.598L38.6038 181.644C38.7384 181.909 38.7384 182.223 38.6038 182.488L37.0923 185.469L38.923 186.351Z" fill="black"/>
<path d="M69.5313 200.793H41.8736C41.3429 200.793 40.9121 200.37 40.9121 199.847V198.107C40.9121 195.75 42.316 193.589 44.4929 192.601L56.3313 187.225C56.8121 187.005 57.3852 187.213 57.6083 187.686C57.8313 188.159 57.6198 188.723 57.139 188.943L45.3006 194.319C43.8044 194.997 42.839 196.484 42.839 198.107V198.901H68.616L68.8813 193.29C68.9044 192.768 69.3583 192.367 69.8852 192.39C70.416 192.412 70.8236 192.855 70.8006 193.377L70.489 199.889C70.466 200.392 70.0429 200.79 69.5275 200.79L69.5313 200.793Z" fill="black"/>
<path d="M41.8776 200.793H25.3084C23.5084 200.793 22.043 199.352 22.043 197.581C22.043 195.545 23.2584 193.676 25.1391 192.821L37.4622 187.225C37.943 187.005 38.516 187.213 38.7391 187.686C38.9622 188.159 38.7507 188.723 38.2699 188.943L25.9468 194.539C24.7468 195.084 23.9699 196.279 23.9699 197.581C23.9699 198.307 24.5699 198.901 25.3122 198.901H41.8814C42.4122 198.901 42.843 199.325 42.843 199.847C42.843 200.37 42.4122 200.793 41.8814 200.793H41.8776Z" fill="black"/>
</svg>
