<svg width="100" height="210" viewBox="0 0 100 210" fill="none" xmlns="http://www.w3.org/2000/svg">
<path d="M80.4838 34.9891C80.4838 34.9891 89.7183 58.4774 69.7059 78.0125C69.7059 78.0125 56.7607 90.7188 34.6143 71.3206L36.885 61.2521C36.885 61.2521 29.0167 64.517 28.8395 56.2215C28.8395 56.2215 28.0752 48.1711 36.1983 50.8557C36.1983 50.8557 39.2333 46.481 37.5607 44.5963L43.7379 38.1891C43.7379 38.1891 54.1503 41.9548 55.1509 29.8828C55.1509 29.8828 67.1546 26.6503 80.4801 34.9927L80.4838 34.9891Z" fill="white"/>
<path d="M17.2422 70.3806C17.0908 67.2383 19.9375 65.8148 19.9375 65.8148C21.8095 63.4437 19.7123 61.3932 19.7123 61.3932C17.5412 56.7914 22.3449 55.0869 22.3449 55.0869C25.1289 52.359 22.6292 48.4275 22.6292 48.4275C21.1339 43.2779 25.9966 40.2076 25.9966 40.2076L29.2828 34.9824C29.2828 34.9824 42.9332 27.995 55.9117 29.8905L56.2329 34.3626C56.2329 34.3626 56.3511 39.9374 50.5431 40.2076C48.5862 40.2977 45.156 38.7482 43.7308 42.1788C43.7308 42.1788 43.5794 47.3788 38.9234 46.7085C38.9234 46.7085 38.9455 50.5932 35.2311 51.9806C35.2311 51.9806 31.0551 51.0581 30.5899 56.2148C30.5899 56.2148 30.6268 61.8941 37.5979 60.2509L38.2662 61.2455C38.2662 61.2455 40.4335 64.3878 36.8815 66.359C36.8815 66.359 35.3455 67.5266 36.8815 69.0617C36.8815 69.0617 39.2372 71.0401 36.8815 73.4112C36.8815 73.4112 33.8095 72.1067 27.7283 74.5175C27.7283 74.5175 25.6975 75.2419 19.3911 71.9914C18.5862 71.577 17.8551 71.0293 17.2385 70.3806H17.2422Z" fill="#FFF080"/>
<path d="M82.944 47.386C82.944 47.3067 89.2578 51.0689 84.8381 59.0473C84.8381 59.0473 82.656 61.3968 85.2 63.2238C85.2 63.2238 88.4935 64.0635 86.1747 68.7193C86.1747 68.7193 84.0037 71.2635 87.7477 73.4148C87.7477 73.4148 82.571 77.7319 71.2578 75.8581C71.2578 75.8581 80.4886 68.9824 82.9477 47.386H82.944Z" fill="#FFF080"/>
<path d="M70.0613 75.0293C71.2539 75.8581 81.5629 82.9032 79.0041 97.3824C79.0041 97.3824 77.7856 101.743 76.8921 102.813L78.6459 103.613C80.1893 104.345 80.9979 105.768 80.9979 105.768C82.161 107.793 79.3216 107.836 79.3216 107.836C77.5124 107.851 78.5721 108.77 78.5721 108.77C80.721 110.348 79.3253 111.469 79.3253 111.469C78.7087 112.027 76.4453 111.865 76.4453 111.865C77.3462 112.413 77.2059 113.3 77.2059 113.3C76.7112 114.745 72.7419 113.3 72.7419 113.3C72.7419 113.3 70.1204 112.673 67.041 109.202L70.0613 75.0329V75.0293Z" fill="white"/>
<path d="M27.207 38.179C27.207 38.179 62.7713 20.7988 83.2009 41.4727C83.2009 41.4727 87.927 31.8691 80.14 25.5376C80.14 25.5376 70.5473 13.3069 52.1375 15.6781C52.1375 15.6781 27.207 15.3718 27.2107 38.179" fill="#2BE6AE"/>
<path d="M39.2485 179.595C43.0552 164.928 45.5254 144.135 45.5254 144.135L46.0017 138.107L28.8398 137.202V143.13C28.8398 143.13 30.2909 171.66 30.2909 180.802H39.2448V179.595H39.2485Z" fill="white"/>
<path d="M59.6295 176.784C64.7766 162.72 66.32 141.426 66.32 141.426V137.206H52.0123V141.426C52.0123 141.426 51.2923 171.462 50.5723 178.694L58.9649 179.098L59.6295 176.788V176.784Z" fill="white"/>
<path d="M43.7938 156.521C42.7009 163.527 41.139 172.316 39.2523 179.595V180.803H30.2984C30.2984 175.855 29.8738 165.231 29.4824 156.525H43.7975L43.7938 156.521Z" fill="#FFF080"/>
<path d="M64.5772 155.991C63.5323 162.651 61.9446 170.449 59.6295 176.784L58.9649 179.094L50.5723 178.69C50.9526 174.878 51.3329 164.734 51.6061 155.991H64.5772Z" fill="#FFF080"/>
<path d="M48.5115 179.851C48.5115 179.851 50.9632 177.556 62.1583 177.916C62.1583 177.916 62.5091 184.72 71.4297 186.187C71.4297 186.187 78.1608 187.131 78.9325 193.913C78.9325 193.913 62.9669 195.805 49.0432 192.064C49.0432 192.064 46.8648 187.25 48.5078 179.851H48.5115Z" fill="#67A9F9"/>
<path d="M48.8588 196.716C48.8588 196.716 47.2526 195.79 48.7554 191.822C48.7554 191.822 57.724 195.037 78.1129 193.747C78.1129 193.747 78.5412 195.512 77.9763 197.206L48.8588 196.712V196.716Z" fill="#73B3FF"/>
<path d="M44.3133 72.6768C44.3133 72.6768 52.1927 86.8317 71.2561 75.8587C71.2561 75.8587 73.6783 99.4407 70.6506 109.181C70.6506 109.181 56.5533 116.605 30.2973 104.356C30.2973 104.356 29.57 89.5092 36.8881 72.6768H44.3133Z" fill="#F8B3FF"/>
<path d="M79.5354 139.786C75.3778 144.129 71.9698 140.939 71.9698 140.939C68.7871 137.127 65.9662 139.876 65.9662 139.876C62.1372 143.865 57.0788 140.366 57.0788 140.366C52.7182 137.577 49.8529 141.426 49.8529 141.426C45.0788 144.658 41.9292 140.366 41.9292 140.366C37.4025 137.22 34.2862 141.426 34.2862 141.426C27.2929 144.835 25.8382 140.056 25.8382 140.056C22.3858 136.954 18.664 138.374 18.4388 138.637L17.2388 139.293C10.5225 118.579 31.0849 104.694 31.0849 104.694C31.0849 104.694 56.9422 115.548 70.6517 109.181C70.6517 109.181 83.512 122.348 81.0418 138.107L79.5391 139.786H79.5354Z" fill="#F8B3FF"/>
<path d="M39.2477 107.368C16.913 109.278 18.4563 92.9031 18.4563 92.9031C19.1763 74.4202 32.1474 73.4148 32.1474 73.4148C32.1474 73.4148 38.2139 71.6599 38.6311 77.2599C38.6311 77.2599 38.7493 80.9932 37.841 82.8166C37.841 82.8166 27.809 92.64 39.6207 96.5175L40.9831 95.7247C40.9831 95.7247 42.7887 94.7157 44.9043 94.5103C44.9043 94.5103 47.825 93.995 46.3443 96.7734C46.3443 96.7734 44.9487 98.3518 46.9388 98.7662C46.9388 98.7662 49.4791 99.3031 47.8693 100.957C47.8693 100.957 47.0643 102.114 48.0391 102.773C48.0391 102.773 49.3942 103.808 47.6588 104.921C47.6588 104.921 46.684 105.458 47.0237 106.366C47.0237 106.366 48.5191 109.617 41.2047 107.736L39.2514 107.368H39.2477Z" fill="white"/>
<path d="M48.2915 84.6875L60.3247 90.2226C60.3247 90.2226 56.2558 97.5704 49.9013 94.774C49.9013 94.774 47.121 93.7614 46.9253 89.974C46.8662 88.8389 47.0915 87.7073 47.5124 86.6479L48.2915 84.6875Z" fill="white"/>
<path d="M27.9278 182.309C27.9278 182.309 30.2318 179.22 41.9253 179.595C41.9253 179.595 42.7376 187.271 48.5124 188.636C48.5124 188.636 58.4447 188.11 58.585 195.57C58.585 195.57 39.7579 196.784 28.2305 194.37C28.2305 194.37 26.2145 190.035 27.9241 182.309H27.9278Z" fill="#67A9F9"/>
<path d="M28.0353 198.669C28.0353 198.669 26.3553 197.704 27.9282 193.56C27.9282 193.56 37.2956 196.915 58.5891 195.57C58.5891 195.57 59.0359 197.415 58.4488 199.185L28.039 198.669H28.0353Z" fill="#73B3FF"/>
<path d="M46.0385 195.804C46.0385 195.804 45.6988 190.81 49.6644 188.647C49.6644 188.647 57.6139 189.664 58.585 195.57C58.585 195.57 50.7204 196.669 46.0348 195.804H46.0385Z" fill="#A1D0FF"/>
<path d="M66.0698 193.728C66.0698 193.728 65.7301 188.733 69.6956 186.571C69.6956 186.571 77.6452 187.588 78.6162 193.494C78.6162 193.494 70.7516 194.593 66.0661 193.728H66.0698Z" fill="#A1D0FF"/>
<path d="M29.4785 156.521H43.7936L43.1807 160.326L29.6336 160.056L29.4785 156.521Z" fill="#FFBA57"/>
<path d="M51.6055 155.991H64.8202L63.9599 159.685H51.7827L51.6055 155.991Z" fill="#FFBA57"/>
<path d="M47.0271 90.8884L59.256 91.7496C59.256 91.7496 54.397 97.5875 48.4413 93.7496L47.0234 90.8848L47.0271 90.8884Z" fill="#FF6A2F"/>
<path d="M27.1711 39.0974C27.0049 39.0974 26.8683 39.0434 26.7022 38.9353C26.44 38.7695 26.2812 38.4812 26.2812 38.1785C26.2812 37.7245 26.6283 37.3461 27.0788 37.2848C27.2376 37.2236 27.5662 37.0866 27.8837 36.9497C39.2708 32.1136 49.6388 30.1605 58.6997 31.1335C59.2056 31.1875 59.5711 31.6344 59.5157 32.1281C59.4603 32.6218 59.0062 32.9785 58.4966 32.9245C49.7606 31.9803 39.7065 33.8938 28.6222 38.6037C27.8357 38.9389 27.4554 39.0974 27.1711 39.0974Z" fill="#231F20"/>
<path d="M27.2082 37.4513C26.7171 37.4513 26.311 37.0765 26.2851 36.5936C26.2704 36.2621 25.9787 28.4206 32.322 22.2116C37.6537 16.9972 45.9577 14.5936 56.9941 15.0585C57.5036 15.0801 57.8987 15.5017 57.8765 15.999C57.8544 16.4963 57.4187 16.8819 56.9128 16.8603C46.4267 16.4134 38.599 18.6369 33.6513 23.4657C27.8765 29.0981 28.1276 36.4387 28.1313 36.5143C28.1534 37.0116 27.7584 37.4297 27.2488 37.4549C27.234 37.4549 27.2193 37.4549 27.2082 37.4549V37.4513Z" fill="#231F20"/>
<path d="M78.2618 25.0943C77.9812 25.0943 77.7006 24.9682 77.5196 24.7303C71.8926 17.343 60.9375 16.8024 60.8267 16.7988C60.3172 16.7772 59.9221 16.3592 59.9442 15.8619C59.9664 15.3646 60.391 14.9826 60.9042 15.0006C61.3879 15.0186 72.8415 15.57 79.0002 23.6565C79.303 24.0565 79.2181 24.6186 78.8119 24.9177C78.6458 25.0366 78.4538 25.0943 78.2618 25.0943Z" fill="#231F20"/>
<path d="M68.8936 32.6947C68.8308 32.6947 68.7644 32.6875 68.7016 32.6731C68.6721 32.6659 65.5816 32.0353 62.8567 32.1254C62.5982 32.1362 62.3619 32.0425 62.181 31.8731C62.0001 31.7037 61.9004 31.4695 61.9004 31.2245V26.2226C61.9004 25.7254 62.3139 25.3217 62.8234 25.3217C63.333 25.3217 63.7465 25.7254 63.7465 26.2226V30.3127C65.5853 30.3416 67.3798 30.6046 68.3508 30.7704C69.8462 27.2497 69.1668 24.5109 68.853 23.5884C66.4641 22.8497 63.8647 24.3848 63.573 24.7163C63.2924 25.1308 62.7274 25.2281 62.3028 24.9542C61.8782 24.6767 61.7748 24.1073 62.0554 23.6929C62.7016 22.7488 66.5231 20.6587 69.9238 22.0569C70.1379 22.1434 70.3078 22.3055 70.4038 22.5109C70.485 22.6839 72.3533 26.8028 69.7281 32.1794C69.573 32.4965 69.2444 32.6911 68.8936 32.6911V32.6947Z" fill="#231F20"/>
<path d="M83.2026 42.3734C83.2026 42.3734 83.1841 42.3734 83.173 42.3734C82.8038 42.3626 82.4789 42.1356 82.3422 41.8005C82.3349 41.7824 80.7029 38.3338 70.3902 32.5752C69.9472 32.3266 69.7958 31.7788 70.0469 31.3464C70.3016 30.914 70.8629 30.7626 71.3059 31.0113C78.4025 34.9752 81.6001 37.9086 83.0105 39.5806C86.0309 31.505 80.6142 26.95 80.0899 26.532C77.3133 24.8311 72.037 26.6293 71.9816 26.6473C71.5016 26.8131 70.9736 26.568 70.8038 26.0996C70.6339 25.6311 70.8813 25.1158 71.3613 24.95C71.6124 24.8599 77.5939 22.8167 81.1275 25.0401C81.1496 25.0545 81.1718 25.0689 81.1939 25.087C81.2752 25.1482 89.1287 31.2779 84.037 41.8509C83.8856 42.168 83.557 42.3698 83.2026 42.3698V42.3734Z" fill="#231F20"/>
<path d="M35.2384 25.8076C34.9246 25.8076 34.6181 25.6527 34.4483 25.3716C34.1861 24.9464 34.3264 24.3914 34.7658 24.1356C34.9172 24.0455 38.5504 21.9374 43.7049 20.7734C50.5948 19.2166 56.8864 20.1428 61.9006 23.4473C62.3215 23.7247 62.436 24.2869 62.148 24.6977C61.8637 25.1085 61.2877 25.2202 60.8668 24.9392C49.7492 17.6094 35.8551 25.5986 35.7148 25.6779C35.5671 25.7644 35.4009 25.8076 35.2384 25.8076Z" fill="#231F20"/>
<path d="M60.8637 28.0459C60.7308 28.0459 60.5942 28.017 60.4649 27.9558C56.1412 25.9233 52.9806 27.4405 52.8477 27.5053C52.3935 27.7287 51.8397 27.5558 51.6071 27.1161C51.3745 26.6765 51.548 26.136 51.9985 25.9053C52.1609 25.8224 56.0711 23.8909 61.2662 26.3305C61.724 26.5468 61.9197 27.0837 61.6982 27.5341C61.5394 27.8549 61.2108 28.0459 60.8674 28.0459H60.8637Z" fill="#231F20"/>
<path d="M35.2317 61.4041C33.4041 61.4041 31.9973 60.9176 31.0262 59.9446C29.1247 58.0347 29.7782 55.0617 29.8077 54.9356C29.8077 54.9212 29.8151 54.9068 29.8188 54.8923C30.3357 53.0653 31.3216 51.8689 32.7505 51.332C35.5714 50.2725 38.9868 52.3734 39.1308 52.4635C39.5591 52.7302 39.6847 53.2887 39.4114 53.7068C39.1382 54.1248 38.5659 54.2473 38.1376 53.9806C37.3696 53.505 35.025 52.4059 33.4077 53.0149C32.5548 53.3356 31.9641 54.0996 31.6059 55.3428C31.5653 55.541 31.2034 57.5446 32.3554 58.6905C33.2601 59.595 35.0139 59.8293 37.4287 59.368C37.9271 59.2743 38.4145 59.5914 38.5105 60.0815C38.6065 60.568 38.2816 61.0437 37.7794 61.1374C36.8564 61.314 36.0034 61.4005 35.228 61.4005L35.2317 61.4041Z" fill="#231F20"/>
<path d="M57.8695 80.8888C49.5322 80.8888 45.0535 75.1375 44.9944 75.0582C44.6916 74.6582 44.7802 74.0924 45.1901 73.797C45.5999 73.5015 46.1759 73.5879 46.4787 73.9843C46.7815 74.3807 54.0406 83.5952 67.8387 76.3411C68.2855 76.1069 68.8467 76.269 69.0904 76.7087C69.3304 77.1483 69.1642 77.6924 68.7138 77.9303C64.5858 80.0997 60.9599 80.8924 57.8658 80.8924L57.8695 80.8888Z" fill="#231F20"/>
<path d="M70.5405 110.583C70.4741 110.583 70.4039 110.576 70.3375 110.561C69.839 110.453 69.5288 109.97 69.6396 109.484C72.4531 97.3287 70.1639 79.5378 70.1381 79.3576C70.0716 78.8639 70.4298 78.4134 70.9356 78.3486C71.4451 78.2837 71.903 78.6333 71.9695 79.1269C72.0655 79.8657 74.3251 97.408 71.4415 109.876C71.3455 110.295 70.9652 110.579 70.5405 110.579V110.583Z" fill="#231F20"/>
<path d="M59.7223 112.331C53.9586 112.331 49.4946 110.515 49.4392 110.486C48.985 110.262 48.8004 109.722 49.0257 109.279C49.2509 108.835 49.8047 108.655 50.2589 108.875C50.3955 108.933 58.6589 112.161 66.7413 109.433C67.225 109.271 67.7494 109.52 67.9155 109.992C68.0817 110.461 67.8269 110.976 67.3432 111.138C64.729 112.021 62.1149 112.331 59.7223 112.331Z" fill="#231F20"/>
<path d="M76.097 105.055C75.9308 105.055 75.761 105.011 75.6096 104.918C75.1776 104.655 75.0447 104.1 75.3142 103.678C83.02 91.5879 74.7271 80.6545 74.6422 80.5464C74.3357 80.15 74.4133 79.5843 74.8194 79.2852C75.2256 78.9861 75.8053 79.0617 76.1117 79.4581C76.204 79.5771 85.2502 91.4978 76.8797 104.629C76.7062 104.903 76.4034 105.055 76.097 105.055Z" fill="#231F20"/>
<path d="M35.7625 108.427C29.5521 108.427 24.8111 106.86 21.6394 103.75C17.1016 99.303 17.4967 93.3606 17.5373 92.8489C17.7514 87.3895 19.2247 79.9624 25.0031 75.5228C28.5145 72.8237 31.9336 72.5318 32.0739 72.521C32.5834 72.485 33.0265 72.8525 33.0671 73.3462C33.1077 73.8399 32.7311 74.2759 32.2216 74.3156C31.7268 74.3588 20.0554 75.5336 19.3797 92.939C19.3797 92.9534 19.3797 92.9714 19.3797 92.9859C19.3761 93.0399 18.9293 98.5498 22.965 102.492C26.3176 105.764 31.7674 107.105 39.1705 106.471C39.68 106.427 40.1268 106.795 40.1711 107.289C40.2154 107.786 39.8388 108.222 39.333 108.265C38.0961 108.37 36.9034 108.424 35.7662 108.424L35.7625 108.427Z" fill="#231F20"/>
<path d="M38.6325 97.4224C38.507 97.4224 38.3777 97.3971 38.2559 97.3431C35.2134 96.0097 33.4374 94.1431 32.9722 91.7899C32.0861 87.2926 36.4467 82.8242 36.6313 82.6368C36.9857 82.28 37.5691 82.2692 37.9384 82.6151C38.3076 82.9611 38.315 83.5305 37.9605 83.8872C37.9199 83.9269 34.0762 87.88 34.7851 91.4548C35.1322 93.1953 36.5537 94.6224 39.0128 95.7034C39.4781 95.9088 39.6848 96.4386 39.4781 96.8926C39.323 97.2278 38.987 97.426 38.6362 97.426L38.6325 97.4224Z" fill="#231F20"/>
<path d="M38.6324 80.9029C38.6324 80.9029 38.6102 80.9029 38.5991 80.9029C38.0896 80.8848 37.6908 80.4668 37.7093 79.9695C37.8607 75.7749 35.7598 74.7551 34.9659 74.3731C34.7001 74.2434 34.209 74.0056 34.209 73.4146C34.209 72.9173 34.6225 72.5137 35.1321 72.5137C35.361 72.5137 35.5751 72.5966 35.7339 72.7335C35.7487 72.7407 35.7671 72.7479 35.7856 72.7587C38.4145 74.0308 39.681 76.4812 39.5518 80.0344C39.5333 80.5209 39.1234 80.9029 38.6287 80.9029H38.6324Z" fill="#231F20"/>
<path d="M81.0374 139.007C81.0041 139.007 80.9672 139.007 80.9303 139C80.4245 138.943 80.0589 138.499 80.118 138.002C81.1481 129.162 78.5414 122.766 76.1709 118.957C73.5974 114.813 70.7321 112.734 70.7026 112.712C70.2928 112.416 70.2041 111.854 70.5032 111.454C70.806 111.054 71.3783 110.968 71.7918 111.26C72.294 111.616 84.0429 120.215 81.9494 138.207C81.894 138.669 81.4952 139.007 81.0337 139.007H81.0374Z" fill="#231F20"/>
<path d="M16.6035 138.107C16.1678 138.107 15.7801 137.804 15.6989 137.372C13.5647 126.273 16.7217 118.885 19.7457 114.64C23.0429 110.017 26.8275 108.057 26.9863 107.977C27.4404 107.747 27.998 107.92 28.2306 108.359C28.4669 108.799 28.2897 109.343 27.8392 109.574C27.7875 109.599 24.2318 111.462 21.2078 115.743C17.1463 121.491 15.902 128.655 17.5118 137.037C17.6041 137.527 17.2755 137.995 16.7734 138.089C16.7143 138.1 16.6589 138.103 16.6035 138.103V138.107Z" fill="#231F20"/>
<path d="M50.5718 179.592C50.5422 179.592 50.5127 179.592 50.4795 179.588C49.9736 179.541 49.6007 179.098 49.6487 178.604C50.3576 171.487 51.0776 141.703 51.085 141.401C51.0961 140.911 51.5059 140.521 52.0081 140.521C52.0155 140.521 52.0228 140.521 52.0302 140.521C52.5398 140.532 52.9422 140.947 52.9312 141.444C52.9016 142.673 52.2001 171.595 51.4875 178.777C51.4395 179.242 51.0407 179.592 50.5681 179.592H50.5718Z" fill="#231F20"/>
<path d="M59.6297 177.685C59.5263 177.685 59.423 177.667 59.3196 177.631C58.8396 177.465 58.5885 176.946 58.762 176.478C63.8094 162.69 65.386 141.57 65.4008 141.357C65.4377 140.86 65.8771 140.492 66.3866 140.521C66.8962 140.557 67.2765 140.986 67.2433 141.483C67.2285 141.696 65.6297 163.065 60.5011 177.083C60.3645 177.451 60.01 177.681 59.6334 177.681L59.6297 177.685Z" fill="#231F20"/>
<path d="M30.2953 181.703C29.7857 181.703 29.3722 181.299 29.3722 180.802C29.3722 171.786 27.9359 143.462 27.9211 143.177C27.8953 142.68 28.2867 142.258 28.7962 142.233C29.2984 142.218 29.7377 142.59 29.7636 143.087C29.7784 143.372 31.2184 171.743 31.2184 180.802C31.2184 181.299 30.8048 181.703 30.2953 181.703Z" fill="#231F20"/>
<path d="M39.252 180.497C39.1782 180.497 39.1006 180.486 39.0231 180.468C38.5283 180.345 38.2293 179.855 38.3548 179.372C42.1062 164.933 44.5874 144.237 44.6133 144.028C44.6723 143.534 45.1265 143.174 45.636 143.235C46.1419 143.293 46.5037 143.74 46.4483 144.234C46.4225 144.443 43.9265 165.257 40.1493 179.812C40.0422 180.219 39.6693 180.493 39.2557 180.493L39.252 180.497Z" fill="#231F20"/>
<path d="M27.9287 194.46C27.5041 194.46 27.1238 194.172 27.0278 193.754C26.0789 189.531 26.9761 182.493 27.013 182.197C27.0463 181.945 27.1866 181.714 27.4044 181.57C27.578 181.451 31.7207 178.698 37.5029 178.698C38.0124 178.698 38.426 179.102 38.426 179.599C38.426 180.096 38.0124 180.5 37.5029 180.5C33.2087 180.5 29.845 182.233 28.7964 182.842C28.6192 184.41 28.0764 190.006 28.8334 193.369C28.9441 193.855 28.6266 194.334 28.1281 194.442C28.0617 194.457 27.9952 194.464 27.9287 194.464V194.46Z" fill="#231F20"/>
<path d="M48.4096 188.032C47.9776 188.032 47.5899 187.732 47.505 187.304C46.7592 183.563 47.4718 179.606 47.505 179.437C47.5604 179.145 47.7561 178.896 48.033 178.774C48.2102 178.698 52.3973 176.886 58.4638 176.986C58.9733 176.994 59.3795 177.405 59.3721 177.902C59.3647 178.395 58.9512 178.788 58.449 178.788H58.4342C53.8927 178.705 50.4441 179.801 49.2478 180.241C49.0927 181.368 48.7862 184.277 49.3216 186.958C49.4176 187.448 49.0927 187.92 48.5906 188.014C48.5315 188.024 48.4724 188.032 48.4133 188.032H48.4096Z" fill="#231F20"/>
<path d="M47.2784 189.538C47.1233 189.538 46.9682 189.502 46.8279 189.423C41.5184 186.507 41.0273 181.102 41.0088 180.871C40.9682 180.374 41.3485 179.941 41.8581 179.902C42.3639 179.859 42.8107 180.233 42.8513 180.727C42.8698 180.922 43.3091 185.419 47.7362 187.851C48.1793 188.096 48.3381 188.644 48.087 189.077C47.9171 189.372 47.6033 189.534 47.2821 189.534L47.2784 189.538Z" fill="#231F20"/>
<path d="M69.6142 186.626C69.5883 186.626 69.5625 186.626 69.5366 186.626C64.168 186.183 61.9969 181.602 61.6018 179.242C61.5206 178.752 61.8603 178.287 62.3625 178.208C62.8646 178.125 63.3372 178.46 63.4222 178.95C63.4628 179.181 64.4338 184.395 69.6917 184.831C70.2012 184.875 70.5778 185.311 70.5335 185.804C70.4929 186.273 70.0905 186.63 69.6142 186.63V186.626Z" fill="#231F20"/>
<path d="M78.2571 197.977H59.1125C58.603 197.977 58.1895 197.574 58.1895 197.076C58.1895 196.579 58.603 196.175 59.1125 196.175H77.4965C77.8399 194.06 77.4596 192.201 76.3704 190.64C74.8602 188.485 72.4639 187.588 72.0061 187.48C71.6664 187.491 71.323 187.303 71.1568 186.983C70.9279 186.536 71.1125 185.995 71.5704 185.775C72.4455 185.35 74.7531 186.658 75.7907 187.451C77.5778 188.817 80.395 191.912 79.1618 197.274C79.0658 197.685 78.6928 197.977 78.2608 197.977H78.2571Z" fill="#231F20"/>
<path d="M58.444 200.085H58.4292L28.1153 199.57C27.783 199.613 27.4397 199.516 27.1701 199.293C26.1104 198.403 26.4686 195.722 26.6052 194.922C26.6864 194.431 27.1627 194.1 27.6649 194.179C28.167 194.258 28.5104 194.723 28.4255 195.213C28.2114 196.489 28.2704 197.365 28.3664 197.776L57.6612 198.273C58.5067 191.999 53.7769 190.356 50.0809 189.667C49.5418 189.567 49.3166 189.527 49.0914 189.361C48.6852 189.062 48.6003 188.496 48.9067 188.1C49.1726 187.754 49.6415 187.649 50.0255 187.819C50.1067 187.837 50.2803 187.869 50.4243 187.898C51.5652 188.111 54.2347 188.608 56.38 190.215C59.8027 192.777 59.884 196.601 59.3523 199.358C59.271 199.783 58.887 200.093 58.444 200.093V200.085Z" fill="#231F20"/>
<path d="M52.3338 196.813C43.919 196.813 30.9701 196.013 30.2354 195.966C29.7258 195.934 29.3418 195.505 29.3751 195.008C29.4083 194.51 29.8514 194.136 30.3572 194.168C37.0366 194.586 55.092 195.494 58.3671 194.698C58.8618 194.579 59.364 194.871 59.4858 195.354C59.6077 195.836 59.3086 196.327 58.8138 196.445C57.7135 196.712 55.3061 196.813 52.3375 196.813H52.3338Z" fill="#231F20"/>
<path d="M71.1011 195.267C66.2236 195.267 60.9695 194.968 60.4525 194.716C59.9984 194.493 59.8101 193.952 60.039 193.509C60.2421 193.116 60.6962 192.929 61.1171 193.044C62.3725 193.246 74.871 193.894 78.3159 193.037C78.807 192.914 79.3128 193.206 79.4384 193.685C79.5639 194.168 79.2648 194.658 78.7738 194.781C77.3522 195.134 74.3098 195.264 71.1048 195.264L71.1011 195.267Z" fill="#231F20"/>
<path d="M66.0611 195.04C65.6365 195.04 65.2561 194.752 65.1601 194.334C65.1195 194.15 64.1854 189.768 68.2321 186.442C68.6235 186.121 69.2032 186.172 69.5318 186.55C69.8604 186.932 69.8088 187.498 69.4211 187.819C66.2198 190.453 66.9546 193.912 66.962 193.945C67.0728 194.431 66.7552 194.91 66.2604 195.019C66.194 195.033 66.1275 195.04 66.0611 195.04Z" fill="#231F20"/>
<path d="M46.038 196.702C45.5839 196.702 45.1925 196.378 45.126 195.927C45.1039 195.761 44.587 191.877 47.8842 188.878C48.2571 188.54 48.8405 188.561 49.1876 188.925C49.5347 189.289 49.5125 189.859 49.1396 190.197C46.5624 192.54 46.9353 195.552 46.95 195.678C47.0165 196.168 46.662 196.623 46.1599 196.691C46.1193 196.698 46.075 196.698 46.0344 196.698L46.038 196.702Z" fill="#231F20"/>
<path d="M43.7931 157.422H29.4817C28.9721 157.422 28.5586 157.018 28.5586 156.521C28.5586 156.024 28.9721 155.62 29.4817 155.62H43.7931C44.3026 155.62 44.7161 156.024 44.7161 156.521C44.7161 157.018 44.3026 157.422 43.7931 157.422Z" fill="#231F20"/>
<path d="M43.2254 160.957H29.634C29.1245 160.957 28.7109 160.553 28.7109 160.056C28.7109 159.559 29.1245 159.155 29.634 159.155H43.2254C43.7349 159.155 44.1485 159.559 44.1485 160.056C44.1485 160.553 43.7349 160.957 43.2254 160.957Z" fill="#231F20"/>
<path d="M64.5777 156.893H51.6067C51.0971 156.893 50.6836 156.489 50.6836 155.992C50.6836 155.494 51.0971 155.091 51.6067 155.091H64.5777C65.0873 155.091 65.5008 155.494 65.5008 155.992C65.5008 156.489 65.0873 156.893 64.5777 156.893Z" fill="#231F20"/>
<path d="M63.9621 160.586H51.4895C50.9799 160.586 50.5664 160.182 50.5664 159.685C50.5664 159.188 50.9799 158.784 51.4895 158.784H63.9621C64.4716 158.784 64.8852 159.188 64.8852 159.685C64.8852 160.182 64.4716 160.586 63.9621 160.586Z" fill="#231F20"/>
<path d="M29.8396 143.552C29.031 143.552 28.2852 143.408 27.6095 143.123C25.9996 142.442 25.2907 141.141 25.0507 140.579C22.1633 138.118 19.2944 139.217 19.0212 139.332C18.6888 139.599 18.1941 139.61 17.8507 139.332C17.4556 139.015 17.4002 138.449 17.7252 138.064C18.1239 137.588 19.3756 137.267 20.4021 137.199C21.9381 137.094 24.2384 137.39 26.4648 139.39C26.5867 139.502 26.679 139.642 26.7233 139.797C26.7381 139.837 27.1147 140.961 28.3738 141.48C29.655 142.01 31.4901 141.743 33.6833 140.705C35.0532 139.019 38.4464 136.835 42.4673 139.628C42.5485 139.685 42.6224 139.757 42.6815 139.837C42.9473 140.193 45.4027 143.249 49.2242 140.748C49.8593 140.01 53.0679 136.716 57.5873 139.606C57.7941 139.747 62.0698 142.612 65.2932 139.253C65.3707 139.177 66.6815 137.92 68.6236 138.017C70.0599 138.089 71.4113 138.86 72.6408 140.312C73.0507 140.666 75.5836 142.59 78.8587 139.166C79.2058 138.802 79.7892 138.784 80.1621 139.123C80.535 139.462 80.5535 140.031 80.2064 140.395C78.6224 142.053 76.9276 142.914 75.1738 142.961C72.8993 143.019 71.3892 141.642 71.3264 141.581C71.3005 141.556 71.2747 141.527 71.2489 141.502C70.3516 140.428 69.4359 139.862 68.5239 139.815C67.4236 139.765 66.6187 140.5 66.6113 140.507C63.1664 144.096 58.5141 142.46 56.5387 141.094C53.0753 138.878 50.8341 141.628 50.5904 141.952C50.5313 142.031 50.4538 142.103 50.3725 142.161C46.1116 145.044 42.6187 142.741 41.271 141.019C37.5972 138.568 35.1307 141.812 35.0273 141.948C34.9387 142.067 34.8242 142.161 34.6913 142.226C32.8821 143.109 31.2575 143.548 29.8359 143.548L29.8396 143.552Z" fill="#231F20"/>
<path d="M71.9694 136.182C71.9362 136.182 71.9067 136.182 71.8734 136.179C71.3676 136.128 70.9984 135.685 71.05 135.191C71.8144 128.017 68.8014 121.436 68.7719 121.368C68.5614 120.914 68.7682 120.381 69.2297 120.175C69.695 119.97 70.2414 120.172 70.4519 120.622C70.5848 120.907 73.7011 127.7 72.8851 135.375C72.8371 135.84 72.4347 136.182 71.9694 136.182Z" fill="#231F20"/>
<path d="M27.3563 134.435C26.9465 134.435 26.5736 134.168 26.4628 133.761C25.5508 130.363 26.0456 126.456 27.8954 122.464C29.2763 119.483 30.9083 117.512 30.9748 117.429C31.296 117.044 31.8794 116.986 32.2745 117.3C32.6696 117.613 32.7286 118.183 32.4074 118.568C32.3188 118.673 26.3003 126.049 28.2499 133.303C28.3791 133.786 28.0837 134.276 27.5926 134.402C27.5151 134.424 27.4339 134.431 27.3563 134.431V134.435Z" fill="#231F20"/>
<path d="M43.7938 136.183C43.6904 136.183 43.587 136.165 43.4836 136.129C43.0036 135.96 42.7525 135.444 42.9261 134.976C44.6984 130.147 43.539 119.56 43.5242 119.455C43.4689 118.961 43.8344 118.515 44.3402 118.46C44.8498 118.406 45.3039 118.763 45.3593 119.257C45.411 119.707 46.5778 130.363 44.6615 135.581C44.5249 135.949 44.1704 136.179 43.7938 136.179V136.183Z" fill="#231F20"/>
<path d="M59.1167 137.364C59.0244 137.364 58.9321 137.35 58.8398 137.321C58.3524 137.173 58.0829 136.665 58.2342 136.193C60.217 130.027 57.2484 121.368 57.2189 121.281C57.0564 120.809 57.3112 120.298 57.7949 120.139C58.2785 119.977 58.8029 120.229 58.9653 120.701C59.0982 121.08 62.1592 130.009 59.9955 136.734C59.8736 137.119 59.5081 137.364 59.1167 137.364Z" fill="#231F20"/>
<path d="M50.8896 57.0404C49.3019 57.0404 47.0791 56.3953 46.385 54.0602C46.3739 54.0278 46.3665 53.9953 46.3628 53.9629C46.3407 53.8332 45.8127 50.7268 47.6404 48.8566C48.6853 47.7827 50.2287 47.3575 52.2188 47.5953C52.5216 47.6241 54.0834 47.8512 55.3388 49.6674C55.6231 50.0782 55.5124 50.6404 55.0914 50.9178C54.6705 51.1953 54.0945 51.0872 53.8102 50.6764C52.9979 49.5052 52.0822 49.3935 52.0453 49.3899C50.6237 49.2205 49.6047 49.4584 48.9807 50.0962C48.8034 50.2764 48.6594 50.4854 48.545 50.7052C50.0884 50.1791 52.1376 50.1431 53.8545 51.6097C54.6668 52.3052 55.025 53.4332 54.7665 54.4854C54.4748 55.671 53.4631 56.5575 51.9936 56.925C51.6982 56.9971 51.3179 57.044 50.8933 57.044L50.8896 57.0404ZM48.172 53.6097C48.8219 55.6278 51.5099 55.1809 51.5357 55.1737C52.3333 54.9755 52.8428 54.5791 52.9684 54.0602C53.0644 53.6638 52.9277 53.2097 52.636 52.9575C50.8527 51.4332 48.7591 52.4782 48.1167 52.9287C48.124 53.2602 48.1573 53.5088 48.1684 53.6097H48.172Z" fill="#231F20"/>
<path d="M71.9892 55.9951C70.4015 55.9951 68.1787 55.3501 67.4846 53.0149C67.4735 52.9825 67.4661 52.9501 67.4624 52.9176C67.4403 52.7879 66.9123 49.6816 68.74 47.8113C69.7849 46.7375 71.3283 46.3158 73.3184 46.5501C73.6212 46.5789 75.183 46.8059 76.4384 48.6221C76.7227 49.0329 76.612 49.5951 76.191 49.8726C75.7701 50.1501 75.1941 50.042 74.9098 49.6311C74.0975 48.46 73.1818 48.3483 73.1449 48.3447C71.7233 48.1753 70.708 48.4131 70.0803 49.051C69.903 49.2311 69.759 49.4402 69.6446 49.66C71.188 49.1375 73.2372 49.0978 74.9541 50.5645C75.7664 51.26 76.1246 52.3879 75.8661 53.4402C75.5744 54.6257 74.5627 55.5122 73.0932 55.8798C72.7978 55.9519 72.4175 55.9987 71.9929 55.9987L71.9892 55.9951ZM69.2717 52.5645C69.9215 54.5825 72.6095 54.1357 72.6354 54.1284C73.4329 53.9302 73.9424 53.5338 74.068 53.0149C74.164 52.6185 74.0274 52.1645 73.7357 51.9122C71.9523 50.3879 69.8587 51.4329 69.2163 51.8834C69.2237 52.2149 69.2569 52.4636 69.268 52.5645H69.2717Z" fill="#231F20"/>
<path d="M63.3735 66.7194C62.2584 66.7194 60.6522 66.3555 58.4036 65.6203C57.9199 65.4618 57.6615 64.9501 57.8239 64.478C57.9864 64.0059 58.507 63.7537 58.9944 63.9122C61.4129 64.705 62.6609 64.8924 63.2738 64.914C61.9852 63.5843 61.4904 62.532 61.7156 61.6311C61.8818 60.9681 62.4172 60.5933 62.8233 60.478C62.9489 60.442 63.0855 60.4347 63.2147 60.4492C64.2042 60.5861 65.1569 60.6474 65.7845 60.6726C66.1316 57.6383 63.3476 53.7789 62.6313 53.0654C62.1993 52.8275 62.0332 52.3014 62.2621 51.869C62.4799 51.4582 63.0042 51.2708 63.4436 51.4401C64.3667 51.7969 68.6756 57.5915 67.4239 61.8438C67.3095 62.2293 66.9476 62.496 66.5378 62.496C66.475 62.496 65.1679 62.496 63.5876 62.3158C63.7169 62.6149 64.0787 63.1843 65.0682 64.1176C65.1236 64.1717 65.1716 64.2293 65.2122 64.2942C65.5187 64.7771 65.6221 65.5122 65.1716 66.0708C64.8209 66.5032 64.2485 66.723 63.3809 66.723L63.3735 66.7194Z" fill="#231F20"/>
<path d="M62.55 69.6208C58.998 69.6208 56.5094 67.5559 56.3987 67.4586C56.0147 67.1343 55.9704 66.5649 56.3064 66.1865C56.6387 65.8117 57.222 65.7685 57.606 66.0928C57.6467 66.1253 60.0097 68.0568 63.1519 67.7901C63.6688 67.7469 64.1082 68.1144 64.1525 68.6117C64.1968 69.109 63.8202 69.5451 63.3107 69.5883C63.0522 69.6099 62.7974 69.6208 62.55 69.6208Z" fill="#231F20"/>
<path d="M87.7428 74.3158C87.5841 74.3158 87.4216 74.2762 87.2739 74.1897C85.7637 73.3212 84.8887 72.2654 84.6745 71.0438C84.4271 69.6564 85.125 68.5825 85.3834 68.2402C86.0702 66.8347 86.2511 65.696 85.9114 64.9429C85.6124 64.2834 84.981 64.096 84.9514 64.0852C84.8481 64.0564 84.7373 64.0059 84.6524 63.9411C83.4597 63.087 83.1274 62.1104 83.061 61.4474C82.9133 60.0311 83.781 58.8744 84.0727 58.5284C85.6382 55.66 85.9077 53.0942 84.8739 50.8924C84.0801 49.2059 82.7951 48.3411 82.5847 48.2077C82.2561 48.0708 82.0234 47.7501 82.0234 47.3789C82.0234 47.0077 82.2634 46.6654 82.6216 46.5357C83.3564 46.2654 84.4234 47.2275 85.1877 48.0852C86.7496 49.8329 88.8837 53.6384 85.653 59.469C85.6161 59.5338 85.5754 59.5915 85.5237 59.6456C85.3281 59.8618 84.8259 60.5861 84.8997 61.2744C84.9441 61.6852 85.1877 62.0564 85.6382 62.4095C86.0702 62.5645 87.045 63.0293 87.5767 64.1645C88.1859 65.4546 87.9939 67.1194 87.0007 69.1086C86.9674 69.1735 86.9268 69.2347 86.8788 69.2924C86.8788 69.2924 86.3434 69.9591 86.4948 70.7519C86.6204 71.4221 87.2001 72.0564 88.2117 72.6366C88.6511 72.8888 88.7988 73.4402 88.5404 73.869C88.3668 74.1537 88.0604 74.3122 87.7428 74.3122V74.3158Z" fill="#231F20"/>
<path d="M82.507 76.7631C82.4294 76.7631 82.3519 76.7523 82.2743 76.7342C80.6386 76.3198 79.5826 75.5703 79.1285 74.5C78.6079 73.2748 79.0916 72.1072 79.3057 71.6856C79.9408 68.5108 78.6153 67.7901 78.187 67.646C77.8177 67.5198 77.5371 67.1667 77.5371 66.7847C77.5371 66.2874 77.9506 65.8838 78.4602 65.8838C78.5894 65.8838 78.7113 65.909 78.822 65.9559C79.6528 66.2514 82.0713 67.527 81.0854 72.1757C81.0633 72.273 81.0263 72.3667 80.9783 72.4496C80.9783 72.4496 80.5611 73.1847 80.838 73.8225C81.115 74.464 82.0233 74.8135 82.7359 74.9937C83.2306 75.1198 83.526 75.6099 83.3968 76.0928C83.2897 76.5 82.9131 76.7667 82.5033 76.7667L82.507 76.7631Z" fill="#231F20"/>
<path d="M17.2424 71.2817C16.7514 71.2817 16.3452 70.9069 16.3194 70.424C16.168 67.242 18.568 65.57 19.3064 65.1303C20.451 63.5195 19.203 62.179 19.0517 62.0276C18.9778 61.9556 18.915 61.8655 18.8707 61.7718C18.1138 60.1646 18.0178 58.6727 18.5864 57.3393C19.3692 55.5087 21.1784 54.6006 21.8098 54.3303C23.8554 52.1357 21.8652 48.9393 21.843 48.9069C21.7987 48.8348 21.7618 48.7592 21.7397 48.6799C20.4067 44.0997 23.6153 40.6475 25.4947 39.4583C25.923 39.188 26.4954 39.3069 26.7723 39.7249C27.0492 40.1429 26.9274 40.6979 26.499 40.9682C26.3255 41.0799 22.2972 43.7105 23.4824 48.0709C24.4609 49.6961 25.539 53.2276 22.995 55.7249C22.899 55.8186 22.7846 55.8907 22.6554 55.9375C22.6406 55.9411 20.8978 56.5898 20.2849 58.0457C19.9415 58.8601 20.008 59.815 20.488 60.8889C21.3926 61.8691 22.4523 64.0997 20.6652 66.3664C20.5803 66.4709 20.4769 66.5574 20.355 66.6186C20.2664 66.6655 18.0437 67.8366 18.1618 70.3375C18.184 70.8348 17.7926 71.2565 17.283 71.2781C17.2683 71.2781 17.2535 71.2781 17.2387 71.2781L17.2424 71.2817Z" fill="#231F20"/>
<path d="M36.8846 74.3157C36.6519 74.3157 36.423 74.2328 36.2421 74.0598C35.8766 73.7139 35.8655 73.1445 36.2236 72.7842C36.7664 72.24 37.0286 71.6959 37.0101 71.1733C36.9806 70.3589 36.2864 69.7463 36.279 69.7391C36.2643 69.7247 36.2421 69.7067 36.2273 69.6923C35.3855 68.849 35.2526 68.049 35.2858 67.5229C35.3633 66.4094 36.2199 65.7247 36.3196 65.649C36.3566 65.6238 36.3935 65.5986 36.4304 65.5769C37.2723 65.1085 37.7818 64.5391 37.9443 63.8833C38.2101 62.8094 37.5123 61.7535 37.5049 61.7427C37.2279 61.3283 37.3424 60.7697 37.7633 60.4959C38.1879 60.222 38.7566 60.3301 39.0372 60.7409C39.0852 60.8094 40.1855 62.4346 39.7424 64.2833C39.4655 65.4256 38.6864 66.3733 37.4236 67.0941C37.3461 67.1661 37.1393 67.3896 37.1246 67.649C37.1098 67.9229 37.3276 68.2112 37.5233 68.4094C37.7633 68.622 38.7824 69.6058 38.8489 71.0761C38.8969 72.1211 38.4575 73.1157 37.5455 74.0346C37.3646 74.2184 37.1246 74.3085 36.8846 74.3085V74.3157Z" fill="#231F20"/>
<path d="M26.0015 74.9354C25.9757 74.9354 25.9498 74.9354 25.9203 74.9354C21.3123 74.5462 18.5947 72.0814 18.4803 71.9768C18.111 71.6345 18.0926 71.0651 18.4433 70.7048C18.7941 70.3444 19.3738 70.3264 19.7467 70.6687C19.7837 70.7012 22.1504 72.8129 26.079 73.1408C26.5886 73.1841 26.9615 73.6201 26.9209 74.1174C26.8803 74.5858 26.4741 74.9426 26.0015 74.9426V74.9354Z" fill="#231F20"/>
<path d="M34.6155 44.3307C34.2832 44.3307 33.9656 44.1577 33.7995 43.8514C33.5595 43.4118 33.733 42.8676 34.1835 42.6334C39.7884 39.7433 39.4709 36.8064 39.4561 36.6838C39.3933 36.1974 39.7367 35.7397 40.2352 35.6712C40.7299 35.5992 41.1952 35.9199 41.2801 36.4064C41.3096 36.5793 41.9262 40.6802 35.0475 44.2298C34.9109 44.3019 34.7632 44.3343 34.6155 44.3343V44.3307Z" fill="#231F20"/>
<path d="M39.7364 47.6784C39.4336 47.6784 39.1198 47.6532 38.7948 47.6064C38.289 47.5343 37.9419 47.0766 38.0158 46.5829C38.0896 46.0892 38.5548 45.7469 39.0644 45.8226C40.0798 45.9703 40.8662 45.801 41.4681 45.3109C42.7271 44.2874 42.8158 42.1793 42.8158 42.1577C42.8158 42.0532 42.8416 41.9451 42.8822 41.8478C44.2373 38.5757 47.1579 38.9505 49.0927 39.1955C49.6244 39.264 50.1302 39.3289 50.5068 39.3109C55.2441 39.091 55.3216 34.864 55.3142 34.3811C55.3068 33.8838 55.713 33.4766 56.2225 33.4658H56.2373C56.7395 33.4658 57.1493 33.855 57.1604 34.3451C57.1604 34.41 57.2195 40.8028 50.5918 41.1055C50.049 41.1307 49.4656 41.055 48.849 40.9757C46.7628 40.7091 45.4225 40.6694 44.6471 42.3847C44.5955 43.0478 44.3001 45.3361 42.657 46.6802C41.8521 47.3397 40.8736 47.6676 39.7327 47.6676L39.7364 47.6784Z" fill="#231F20"/>
<path d="M75.814 114.835C74.4146 114.835 72.8121 114.283 72.417 114.139C71.9407 113.966 71.697 113.447 71.8743 112.982C72.0515 112.517 72.5832 112.28 73.0595 112.453C74.3186 112.91 75.7881 113.152 76.2681 113C76.2349 112.892 76.15 112.748 75.9543 112.629C75.5924 112.409 75.4337 111.981 75.5629 111.584C75.6921 111.191 76.0798 110.932 76.5081 110.964C77.4201 111.026 78.4687 110.946 78.7161 110.788C78.7235 110.781 78.8527 110.658 78.8453 110.492C78.838 110.395 78.7641 110.035 78.0146 109.483C77.9961 109.469 77.974 109.454 77.9555 109.436C77.5346 109.072 77.1727 108.46 77.4127 107.833C77.7561 106.939 78.9266 106.932 79.3106 106.928C79.761 106.917 80.2743 106.755 80.3555 106.636C80.3555 106.636 80.3666 106.507 80.1893 106.2C80.182 106.19 79.4878 105.011 78.2361 104.417C77.7783 104.2 77.5863 103.66 77.8078 103.213C78.0293 102.766 78.5832 102.579 79.041 102.795C80.8281 103.642 81.7586 105.253 81.7992 105.321C82.3937 106.355 82.209 107.094 81.9506 107.534C81.478 108.334 80.4958 108.597 79.8607 108.687C80.3961 109.253 80.673 109.847 80.6878 110.463C80.71 111.404 80.0933 111.999 79.9346 112.132C79.51 112.507 78.7973 112.676 78.0958 112.744C78.1438 113.011 78.1401 113.249 78.1143 113.429C78.1069 113.48 78.0921 113.53 78.0773 113.577C77.9223 114.024 77.601 114.373 77.1432 114.586C76.7629 114.763 76.3013 114.831 75.8103 114.831L75.814 114.835Z" fill="#231F20"/>
<path d="M44.9153 109.228C43.874 109.228 42.567 109.023 40.9645 108.608C40.4697 108.482 40.178 107.988 40.3073 107.509C40.4365 107.026 40.9424 106.738 41.4334 106.868C45.4396 107.898 46.1448 107.181 46.1744 107.149C46.2704 107.041 46.1965 106.781 46.1744 106.723C46.1707 106.713 46.1596 106.687 46.1559 106.677C45.746 105.574 46.3885 104.604 47.1713 104.158C47.5294 103.923 47.618 103.754 47.618 103.714C47.618 103.671 47.5442 103.556 47.4704 103.487C46.2556 102.626 46.5805 101.206 47.1048 100.453C47.1344 100.414 47.1639 100.374 47.2008 100.338C47.3817 100.15 47.4482 100.032 47.4704 99.9775C47.3596 99.8658 47.0199 99.7108 46.7393 99.6459C45.6131 99.4117 45.1885 98.8279 45.0371 98.3811C44.7233 97.4694 45.314 96.5937 45.5688 96.2766C45.831 95.7613 45.8457 95.5126 45.842 95.4333C45.7091 95.3685 45.3436 95.3504 45.0667 95.3937C45.0445 95.3937 45.0187 95.4009 45.0002 95.4009C43.1024 95.5847 41.463 96.4928 41.4482 96.5036C41.0051 96.7522 40.4439 96.6009 40.1891 96.1685C39.9344 95.736 40.0894 95.1847 40.5325 94.9396C40.6137 94.8964 42.5153 93.8441 44.786 93.6135C45.1627 93.5522 46.61 93.3937 47.3448 94.3631C47.8617 95.0477 47.8027 95.9991 47.1713 97.1847C47.138 97.2459 47.0974 97.3036 47.0494 97.3576C46.946 97.4766 46.8427 97.664 46.8094 97.7757C46.8648 97.8045 46.9645 97.8441 47.138 97.8802C47.4297 97.9414 48.8956 98.3054 49.2574 99.4549C49.4051 99.9198 49.4088 100.648 48.615 101.502C48.5522 101.614 48.4008 101.916 48.5744 102.032C48.5891 102.042 48.6039 102.05 48.615 102.06C48.7073 102.129 49.5122 102.774 49.4716 103.779C49.442 104.5 49.0064 105.134 48.1719 105.671C48.1534 105.682 48.135 105.693 48.1202 105.704C48.1017 105.714 47.847 105.873 47.895 106.042C48.1091 106.543 48.2642 107.534 47.5959 108.305C47.0642 108.918 46.1891 109.221 44.9264 109.221L44.9153 109.228Z" fill="#231F20"/>
<path d="M52.7433 96.3054C51.7316 96.3054 50.6608 96.0964 49.542 95.6063C49.3131 95.5162 48.2793 95.0658 47.3747 93.9162C46.5033 92.8063 45.5876 90.7991 46.1857 87.545C46.2744 87.055 46.7544 86.7306 47.2565 86.8171C47.7587 86.9036 48.091 87.3721 48.0024 87.8622C47.1199 92.673 50.1033 93.8874 50.2325 93.9342C50.2473 93.9378 50.2694 93.9486 50.2805 93.9522C54.63 95.8694 57.7944 92.2982 58.9907 90.6045L47.899 85.5018C47.4374 85.2892 47.2417 84.7523 47.4559 84.3018C47.6737 83.8514 48.2239 83.6568 48.6854 83.8694L60.7187 89.4045C60.9476 89.509 61.1211 89.7036 61.2024 89.9378C61.2799 90.1721 61.2577 90.4279 61.1359 90.6477C59.8953 92.8856 56.8196 96.2982 52.7433 96.2982V96.3054Z" fill="#231F20"/>
<path d="M47.3941 99.5704C47.2242 99.5704 47.0581 99.5272 46.903 99.4335C46.471 99.1704 46.3418 98.6119 46.6113 98.1903L49.1147 94.2984C49.3842 93.8767 49.9565 93.7506 50.3885 94.0137C50.8205 94.2767 50.9498 94.8353 50.6802 95.2569L48.1768 99.1488C48.0033 99.4227 47.7005 99.5704 47.3941 99.5704Z" fill="#231F20"/>
<path d="M42.0024 113.887C41.8363 113.887 41.6701 113.844 41.5187 113.754L36.0098 110.446C35.5741 110.186 35.4412 109.631 35.707 109.206C35.9766 108.781 36.5452 108.651 36.9772 108.911L42.4861 112.219C42.9218 112.478 43.0547 113.033 42.7889 113.459C42.6153 113.736 42.3126 113.887 42.0024 113.887Z" fill="#231F20"/>
<path d="M39.4097 112.33C39.2214 112.33 39.033 112.276 38.8706 112.161C38.457 111.869 38.3647 111.307 38.6638 110.903L41.2558 107.404C41.5549 107.001 42.1309 106.911 42.5444 107.203C42.958 107.494 43.0503 108.057 42.7512 108.46L40.1592 111.959C39.9783 112.204 39.6977 112.334 39.4097 112.334V112.33Z" fill="#231F20"/>
</svg>
