<svg width="100" height="210" viewBox="0 0 100 210" fill="none" xmlns="http://www.w3.org/2000/svg">
<path d="M29.4531 131.247L32.807 166.723H43.9493L48.5877 131.814L29.4531 131.247Z" fill="white"/>
<path d="M50.373 131.318V166.723H60.4846L66.1269 131.784L50.373 131.318Z" fill="white"/>
<path d="M26.5586 122.623V134.137L69.4778 134.674L70.0855 121.942L51.9855 112.35L26.5586 122.623Z" fill="#A0D7FB"/>
<path d="M51.4842 10.4491C51.4842 10.4491 27.6073 10.4567 22.5996 21.5242C17.5919 32.5918 16.9458 33.5529 16.3958 45.5021C15.8458 57.4513 17.6304 84.8837 23.165 90.5858C23.165 90.5858 26.9688 76.1394 30.2573 72.8021C33.5419 69.4648 37.8842 71.8032 37.8842 71.8032C35.365 64.3831 33.7842 42.1231 36.3458 45.4188C36.3458 45.4188 42.4573 47.8518 51.4881 30.5826C51.4881 30.5826 66.1842 22.7048 71.8996 35.6037C79.465 52.6723 68.7919 69.8356 65.1304 72.2269C65.1304 72.2269 69.7919 79.9685 70.5919 81.7999C71.2534 83.3134 71.6227 86.7529 71.6227 86.7529C71.6227 86.7529 76.7842 81.6977 76.9496 54.1783C76.9496 54.1783 87.7265 13.4686 51.4881 10.4453L51.4842 10.4491Z" fill="#FFF080"/>
<path d="M69.5879 78.4704L65.5379 72.6396L41.0379 73.9601L40.411 73.385C37.6802 70.8801 33.5994 70.4412 30.3841 72.3066C30.3841 72.3066 27.1148 76.5747 24.2956 83.3969C21.3725 90.465 21.5533 95.7925 22.5187 96.9201C23.4841 98.0439 28.5648 99.478 28.5648 99.478L38.2687 107.443L34.8841 112.698L28.7725 117.012H23.0841V127.565H49.5341L50.3225 119.914C50.461 118.586 52.3494 118.393 52.761 119.664L54.9994 126.596H75.2956C75.2956 126.596 73.0725 101.385 72.6725 99.7693C72.2725 98.1574 67.6725 98.358 67.6725 98.358L64.8571 101.956L65.5994 103.228V105.362L65.8571 106.868L64.8571 111.707L58.711 111.344L55.0033 110.02L55.6071 103.231L54.6687 99.3607L62.4725 97.4196L64.8571 98.3655L63.6418 101.408L64.2187 101.786L67.0379 98.0477L64.8571 94.6498C64.8571 94.6498 63.9917 87.5363 65.5994 87.1088L71.5456 90.3023" fill="#67A9F9"/>
<path d="M65.4113 71.8032C65.4113 71.8032 55.119 87.7594 42.3574 90.5859C42.3574 90.5859 46.5767 96.2805 48.9767 97.3438C48.9767 97.3438 65.9305 83.3551 66.4459 73.9562L65.4151 71.8032H65.4113Z" fill="#F8B3FF"/>
<path d="M22.154 92.3832C22.154 92.3832 11.1925 106.697 19.4117 114.454C19.4117 114.454 33.4079 123.13 37.8848 106.856L28.6502 99.1259C28.6502 99.1259 23.0694 99.807 22.1579 92.3794L22.154 92.3832Z" fill="#F8B3FF"/>
<path d="M64.8348 90.1431L75.8848 95.1944L72.0925 98.1912L67.231 97.6766L64.6387 93.0528L64.8348 90.1431Z" fill="#FF6A2F"/>
<path d="M35.9338 46.8001C35.9338 46.8001 30.6338 61.5228 41.0377 73.9563C41.0377 73.9563 47.8223 84.0287 65.5069 72.1477C65.5069 72.1477 76.78 59.5552 73.9992 39.9174C73.9992 39.9174 67.5415 24.0709 51.4838 30.5866C51.4838 30.5866 46.8954 41.5179 35.9338 46.8039V46.8001Z" fill="white"/>
<path d="M40.6121 73.4341L39.2852 76.0071C39.2852 76.0071 42.3775 83.3022 49.7698 83.5027L50.7505 77.6303C50.7505 77.6303 43.1736 77.3238 40.6121 73.4341Z" fill="white"/>
<path d="M53.8418 77.0171L56.3033 82.3484C56.3033 82.3484 64.3341 74.5122 65.3341 72.1436C65.3341 72.1436 57.3995 76.4344 53.8456 77.0133L53.8418 77.0171Z" fill="white"/>
<path d="M30.416 163.779L34.0699 198.647L52.9891 198.064C52.9891 198.064 53.6891 189.414 51.1929 188.798C48.6968 188.181 44.0929 187.704 44.0929 187.704L46.8506 163.779H30.416Z" fill="#2BE6AE"/>
<path d="M47.8809 163.779L51.5347 198.647L70.4539 198.064C70.4539 198.064 71.1539 189.414 68.6578 188.798C66.1616 188.181 61.5578 187.704 61.5578 187.704L64.3155 163.779H47.8809Z" fill="#2BE6AE"/>
<path d="M54.6621 99.3529L55.4775 104.635L55.0006 110.016L60.8467 112.35L64.8506 111.703L65.139 107.579L65.7467 106.258L65.5929 103.224L63.6275 100.163L64.1006 96.9653L54.6621 99.3529Z" fill="white"/>
<path d="M51.0192 53.6259C49.5153 53.6259 47.4077 53.0091 46.75 50.7729C46.7384 50.7388 46.7307 50.7048 46.7269 50.6707C46.7038 50.5459 46.2115 47.6021 47.9346 45.8237C48.9269 44.7983 50.3807 44.3934 52.2577 44.6167C52.5577 44.6432 54.0346 44.8702 55.2192 46.5918C55.5154 47.0232 55.4 47.6134 54.9615 47.9048C54.523 48.1961 53.923 48.0826 53.6269 47.6513C52.9077 46.6069 52.1077 46.501 52.073 46.4972C50.7961 46.3421 49.8846 46.554 49.3307 47.1253C49.2384 47.2199 49.1577 47.3221 49.0884 47.428C50.5077 47.0156 52.3077 47.0648 53.8307 48.374C54.6115 49.0475 54.9538 50.1372 54.7077 51.1588C54.4307 52.3015 53.4653 53.1605 52.0653 53.5086C51.7884 53.5767 51.4269 53.6221 51.023 53.6221L51.0192 53.6259ZM48.6154 50.3037C49.1923 52.0859 51.5654 51.6848 51.5884 51.681C52.2846 51.5069 52.7269 51.1664 52.8346 50.7237C52.9153 50.3907 52.8038 50.0124 52.5615 49.8042C51.0038 48.4648 49.1846 49.3313 48.5692 49.7475C48.5769 50.0161 48.6 50.2167 48.6154 50.3037Z" fill="black"/>
<path d="M68.8278 53.6259C67.3239 53.6259 65.2163 53.0091 64.5586 50.7729C64.547 50.7388 64.5393 50.7048 64.5355 50.6707C64.5124 50.5459 64.0201 47.6021 65.7432 45.8237C66.7355 44.7983 68.1893 44.3934 70.0663 44.6167C70.3663 44.6432 71.8432 44.8702 73.0278 46.5918C73.3239 47.0232 73.2086 47.6134 72.7701 47.9048C72.3316 48.1961 71.7316 48.0826 71.4355 47.6513C70.7239 46.6145 69.9124 46.501 69.9047 46.501C69.8855 46.501 69.8701 46.501 69.8509 46.4972C68.6086 46.3459 67.697 46.5578 67.1432 47.1253C67.0509 47.2199 66.9701 47.3221 66.897 47.4318C68.3162 47.0194 70.1163 47.0686 71.6393 48.3778C72.4201 49.0513 72.7624 50.141 72.5162 51.1626C72.2393 52.3053 71.2739 53.1642 69.8739 53.5124C69.597 53.5805 69.2355 53.6259 68.8316 53.6259H68.8278ZM66.4201 50.2999C66.997 52.0859 69.3701 51.6848 69.3932 51.681C70.0893 51.5069 70.5316 51.1664 70.6393 50.7237C70.7201 50.3907 70.6086 50.0124 70.3663 49.8042C68.8047 48.461 66.9855 49.3313 66.3739 49.7475C66.3816 49.9669 66.397 50.1599 66.4201 50.2999Z" fill="black"/>
<path d="M60.7195 64.2586C59.4041 64.2586 57.5541 63.831 55.0656 62.9683C54.5656 62.7943 54.3041 62.2532 54.4772 61.7613C54.6503 61.2694 55.2041 61.0083 55.7041 61.1824C59.1733 62.3856 60.608 62.4159 61.1387 62.3402C59.5926 60.8418 58.881 59.5743 58.9656 58.477C59.0156 57.7997 59.3772 57.3305 59.6964 57.1148C59.958 56.9407 60.2926 56.9029 60.5887 57.0164C62.1003 57.5991 62.9041 57.7429 63.2964 57.7694C63.458 54.1748 61.9118 51.4316 61.8964 51.4051C61.6349 50.951 61.7964 50.3721 62.258 50.1148C62.7195 49.8575 63.3041 50.0126 63.5656 50.4667C63.6503 50.6105 65.6003 54.0272 65.1695 58.5148C65.1695 58.5526 65.1618 58.5867 65.1541 58.6245C65.1195 58.7834 64.9849 59.177 64.4926 59.438C64.0426 59.6764 63.2041 59.8807 61.0503 59.1921C61.2695 59.6386 61.7695 60.3499 62.9041 61.3791C63.008 61.4737 63.0887 61.591 63.1426 61.7197C63.3041 62.1094 63.4118 62.9418 62.7964 63.5775C62.358 64.0316 61.6772 64.2586 60.7156 64.2586H60.7195Z" fill="black"/>
<path d="M60.8418 66.9257C60.7648 66.9257 60.6879 66.9182 60.611 66.8992C60.5495 66.8992 60.4341 66.8992 60.3148 66.9068C59.1225 66.9371 56.3341 67.0052 53.9379 65.6392C53.4802 65.3782 53.3225 64.7992 53.5879 64.3452C53.8533 63.8949 54.4418 63.7398 54.9033 64.0009C56.8302 65.0982 59.2418 65.0414 60.2725 65.0149C60.8725 64.9998 61.3879 64.9884 61.6879 65.5257C61.9456 65.9836 61.7725 66.5587 61.3071 66.8122C61.161 66.8917 61.0033 66.9295 60.8456 66.9295L60.8418 66.9257ZM60.0033 66.4376C60.0264 66.4792 60.0495 66.5133 60.0764 66.5474C60.0495 66.5133 60.0264 66.4755 60.0033 66.4376Z" fill="black"/>
<path d="M55.3581 39.7586C55.1851 39.7586 55.0081 39.7132 54.8504 39.6148C54.4004 39.3386 54.262 38.7559 54.5466 38.3132C57.912 33.0196 56.962 24.6991 56.9504 24.6121C56.8889 24.0937 57.2658 23.6245 57.7927 23.5602C58.3197 23.4996 58.7966 23.8705 58.862 24.3888C58.9081 24.7559 59.9043 33.4472 56.1774 39.3121C55.9966 39.5996 55.6812 39.7586 55.362 39.7586H55.3581Z" fill="black"/>
<path d="M41.2145 42.4639C40.8875 42.4639 40.5645 42.2974 40.3875 41.9985C40.1183 41.5482 40.2683 40.9693 40.726 40.7007C48.1798 36.3493 52.3298 26.012 52.3721 25.9099C52.5645 25.4218 53.1221 25.1796 53.6183 25.3726C54.1145 25.5618 54.3606 26.1104 54.1645 26.5985C53.9875 27.0488 49.726 37.6547 41.7068 42.3315C41.5529 42.4223 41.3837 42.4639 41.2183 42.4639H41.2145Z" fill="black"/>
<path d="M73.3686 41.6199C72.8648 41.6199 72.4417 41.234 72.4109 40.7307C71.8917 32.081 65.7032 27.8356 65.6417 27.794C65.2032 27.4988 65.0878 26.9123 65.3878 26.481C65.684 26.0496 66.2801 25.9361 66.7225 26.2275C67.0109 26.4167 73.7532 31.0064 74.334 40.621C74.3648 41.1432 73.9609 41.5896 73.4301 41.6199C73.4109 41.6199 73.3917 41.6199 73.3725 41.6199H73.3686Z" fill="black"/>
<path d="M16.6375 50.0352C16.1414 50.0352 15.7221 49.6606 15.6798 49.1687C14.5721 36.0881 17.176 25.9476 23.4145 19.0233C31.0068 10.5968 41.1337 10.1352 41.5606 10.12C42.0952 10.0973 42.5375 10.5098 42.5568 11.0319C42.576 11.5541 42.1606 11.993 41.6337 12.0119C41.5029 12.0157 31.8529 12.4925 24.8298 20.3022C18.9683 26.8217 16.5337 36.4817 17.5952 49.0098C17.6375 49.5319 17.2452 49.986 16.7183 50.0314C16.6914 50.0314 16.6645 50.0314 16.6375 50.0314V50.0352Z" fill="black"/>
<path d="M77.7149 33.8217C77.2611 33.8217 76.8611 33.5076 76.7726 33.0536C74.8649 23.2611 70.0649 16.6433 62.5072 13.3817C56.8342 10.9374 51.6303 11.3876 51.5765 11.3914C51.0457 11.4368 50.5803 11.0584 50.5265 10.5401C50.4726 10.0217 50.8611 9.56007 51.388 9.50709C51.6149 9.48439 57.0726 9.00007 63.1919 11.6109C73.4342 15.9849 77.2534 25.4898 78.6572 32.6941C78.7572 33.2087 78.4149 33.7044 77.8919 33.8028C77.8303 33.8141 77.7688 33.8179 77.7111 33.8179L77.7149 33.8217Z" fill="black"/>
<path d="M35.8803 60.8796C35.5342 60.8796 35.1957 60.6942 35.0265 60.3688C31.2226 53.1455 35.3188 45.3093 35.4957 44.9801C35.7419 44.5185 36.3265 44.3407 36.7957 44.5828C37.2649 44.825 37.4457 45.3964 37.1996 45.858C37.1611 45.9299 33.3996 53.1607 36.738 59.4985C36.9842 59.9639 36.7996 60.5315 36.3265 60.7737C36.1842 60.8455 36.0342 60.8796 35.8842 60.8796H35.8803Z" fill="black"/>
<path d="M61.2305 40.8631C61.1536 40.8631 61.0728 40.8555 60.9959 40.8328C60.4805 40.7041 60.169 40.1933 60.2959 39.6863C62.2613 31.9749 60.8382 24.7555 60.8228 24.6836C60.719 24.1728 61.0574 23.6733 61.5767 23.5712C62.0959 23.469 62.6036 23.802 62.7074 24.3128C62.769 24.6231 64.2344 32.0052 62.1574 40.1441C62.0497 40.5755 61.6574 40.8593 61.2267 40.8593L61.2305 40.8631Z" fill="black"/>
<path d="M62.5568 112.52C61.4722 112.52 60.1107 112.305 58.4414 111.87C57.9299 111.737 57.6222 111.219 57.7568 110.716C57.8914 110.209 58.4184 109.91 58.9299 110.042C63.1261 111.128 63.8414 110.367 63.8684 110.333C63.9761 110.209 63.8684 109.91 63.8684 109.906C63.8607 109.883 63.8491 109.864 63.8414 109.842C63.4145 108.684 64.0838 107.666 64.8991 107.197C65.2722 106.951 65.3645 106.773 65.3645 106.731C65.3645 106.686 65.2876 106.565 65.2107 106.493C63.9453 105.589 64.2837 104.098 64.8299 103.307C64.8607 103.265 64.8914 103.224 64.9299 103.186C65.1184 102.989 65.1876 102.864 65.2107 102.808C65.0953 102.69 64.7414 102.524 64.4491 102.459C63.2761 102.213 62.8338 101.6 62.6761 101.131C62.3491 100.174 62.9684 99.2545 63.2299 98.9215C63.503 98.3805 63.5184 98.1194 63.5145 98.0361C63.3684 97.9643 62.9607 97.9491 62.7107 97.9945C62.6876 97.9983 62.6607 98.0021 62.6376 98.0059C60.6761 98.1989 58.953 99.1524 58.9337 99.1637C58.4722 99.421 57.8876 99.2659 57.6222 98.8118C57.3607 98.3578 57.5184 97.7826 57.9799 97.5216C58.0645 97.4761 60.0453 96.3713 62.4107 96.1291C62.7991 96.0648 64.3107 95.8983 65.0761 96.9161C65.6145 97.6351 65.553 98.634 64.8953 99.8788C64.8607 99.9432 64.8184 100.004 64.7684 100.06C64.6645 100.185 64.553 100.382 64.5184 100.499C64.5761 100.53 64.6799 100.571 64.8607 100.609C65.1645 100.673 66.6914 101.056 67.0684 102.263C67.2222 102.751 67.2222 103.515 66.3991 104.412C66.3337 104.529 66.1761 104.843 66.3568 104.968C66.3722 104.979 66.3876 104.987 66.3991 104.998C66.4953 105.07 67.3338 105.748 67.2914 106.803C67.2607 107.56 66.8068 108.226 65.9376 108.79C65.9184 108.801 65.8991 108.812 65.8838 108.824C65.8645 108.835 65.5991 109.002 65.6491 109.179C65.8722 109.705 66.0376 110.746 65.3376 111.556C64.7838 112.199 63.8722 112.517 62.5568 112.517V112.52Z" fill="black"/>
<path d="M70.71 98.9517C69.6562 98.9517 68.5408 98.7322 67.3754 98.2176C67.137 98.123 66.06 97.65 65.1177 96.443C64.21 95.2776 63.2562 93.17 63.8793 89.7533C63.9716 89.2387 64.4716 88.8944 64.9947 88.989C65.5177 89.0798 65.8639 89.5717 65.7716 90.0863C64.8523 95.1376 67.96 96.4127 68.0947 96.4619C68.11 96.4657 68.1331 96.4771 68.1447 96.4846C72.6793 98.4976 75.9716 94.7517 77.2177 92.9695L65.6639 87.6117C65.1831 87.3884 64.9793 86.8246 65.2023 86.3517C65.4293 85.8787 66.0023 85.6744 66.4831 85.8976L79.0177 91.7095C79.2562 91.8192 79.437 92.0236 79.5216 92.2695C79.6062 92.5154 79.5793 92.7841 79.4523 93.0149C78.16 95.3646 74.9562 98.9479 70.71 98.9479V98.9517Z" fill="black"/>
<path d="M65.1376 102.38C64.9645 102.38 64.7876 102.334 64.6261 102.236C64.1761 101.96 64.0415 101.373 64.3222 100.93L66.9299 96.8439C67.2107 96.4012 67.8068 96.2687 68.2568 96.545C68.7068 96.8212 68.8415 97.4077 68.5607 97.8504L65.953 101.937C65.7722 102.224 65.4568 102.38 65.1376 102.38Z" fill="black"/>
<path d="M59.5224 117.413C59.3493 117.413 59.1762 117.367 59.0185 117.273L53.2801 113.799C52.8262 113.527 52.6878 112.944 52.9647 112.498C53.2416 112.051 53.8339 111.915 54.2877 112.187L60.0262 115.661C60.4801 115.933 60.6185 116.516 60.3416 116.963C60.1608 117.254 59.8454 117.413 59.5224 117.413Z" fill="black"/>
<path d="M56.8231 115.782C56.6269 115.782 56.4307 115.725 56.2615 115.604C55.8307 115.298 55.7346 114.707 56.0461 114.284L58.7461 110.61C59.0577 110.186 59.6577 110.091 60.0884 110.398C60.5192 110.704 60.6154 111.294 60.3038 111.718L57.6038 115.392C57.4154 115.65 57.1231 115.786 56.8231 115.786V115.782Z" fill="black"/>
<path d="M54.7425 99.9586C54.7425 99.9586 54.7155 99.9586 54.704 99.9586C50.0309 99.7732 45.7963 97.1889 42.4617 92.478C39.9925 88.9932 38.8848 85.6029 38.8386 85.4591C38.6771 84.9597 38.9579 84.4299 39.4655 84.271C39.9694 84.1121 40.5117 84.3883 40.6732 84.884C40.7155 85.0126 44.9309 97.677 54.7848 98.0667C55.3155 98.0894 55.7271 98.5283 55.7079 99.0505C55.6886 99.5613 55.2617 99.9586 54.7463 99.9586H54.7425Z" fill="black"/>
<path d="M50.6816 110.841C48.9163 110.841 46.6855 110.678 44.2086 110.129C38.797 108.93 31.1701 105.566 25.5701 96.3564C25.297 95.9062 25.447 95.3273 25.9009 95.0586C26.3586 94.79 26.947 94.9375 27.2201 95.384C36.2586 110.247 50.897 109.134 53.847 108.741C55.2893 104.492 54.4932 102.066 54.4855 102.043C54.3163 101.552 54.5816 101.014 55.0816 100.844C55.5816 100.674 56.1239 100.927 56.3009 101.419C56.347 101.548 57.4201 104.639 55.4701 109.91C55.3547 110.22 55.0855 110.447 54.7586 110.512C54.6509 110.534 53.1009 110.837 50.6778 110.837L50.6816 110.841Z" fill="black"/>
<path d="M49.7377 84.4487C49.7107 84.4487 49.68 84.4487 49.653 84.4487C49.3569 84.4222 42.3992 83.7449 38.4377 76.4573C38.1877 75.9957 38.3646 75.4244 38.8338 75.1784C39.303 74.9325 39.8838 75.1065 40.1338 75.5682C42.8453 80.559 47.1184 82.0119 48.9492 82.4206L49.6107 78.5952C44.3453 78.2357 40.453 74.6298 40.28 74.4671C39.8953 74.1076 39.8838 73.506 40.2492 73.1314C40.6146 72.753 41.2223 72.7417 41.6069 73.1011C41.6453 73.139 45.6915 76.8622 50.7184 76.7336C51.003 76.726 51.2838 76.8471 51.4723 77.059C51.6607 77.2746 51.7415 77.5584 51.6953 77.8384L50.6838 83.6768C50.603 84.1346 50.1992 84.4638 49.7377 84.4638V84.4487Z" fill="black"/>
<path d="M55.6808 82.4318C55.25 82.4318 54.8577 82.1443 54.75 81.7129C54.1462 79.3102 53.0385 77.5356 53.027 77.5167C52.8616 77.2556 52.8385 76.9302 52.9577 76.6502C53.0808 76.3664 53.3308 76.1583 53.6385 76.094C53.6731 76.0864 57.2193 75.2994 59.5654 73.2524C59.9616 72.9043 60.5693 72.9421 60.9231 73.3318C61.277 73.7216 61.2385 74.3194 60.8424 74.6675C59.0193 76.2605 56.6654 77.1724 55.2616 77.6151C55.6808 78.4626 56.2347 79.7416 56.6193 81.2626C56.7462 81.7697 56.4308 82.2843 55.9154 82.4091C55.8385 82.4281 55.7616 82.4356 55.6847 82.4356L55.6808 82.4318Z" fill="black"/>
<path d="M42.3571 91.5319C41.9609 91.5319 41.5879 91.2897 41.4494 90.9C41.2725 90.4081 41.5379 89.867 42.0379 89.693C54.4263 85.3984 62.3648 74.6524 62.4417 74.5465C62.7494 74.1227 63.3532 74.0243 63.784 74.327C64.2148 74.6297 64.3148 75.22 64.0071 75.6476C63.6725 76.1092 55.6532 86.98 42.6802 91.4789C42.5763 91.5167 42.4648 91.5319 42.3609 91.5319H42.3571Z" fill="black"/>
<path d="M48.3499 97.9112C48.0461 97.9112 47.7461 97.7712 47.5614 97.5063C47.2576 97.0787 47.3653 96.4885 47.7999 96.1896C55.2999 91.0587 59.5114 86.2155 61.7191 83.056C64.1076 79.6431 64.7384 77.4106 64.7422 77.3879C64.8807 76.8847 65.4076 76.582 65.9191 76.7182C66.4307 76.8506 66.7384 77.369 66.5999 77.8723C66.4961 78.2582 63.8845 87.4869 48.8922 97.7447C48.7268 97.8582 48.5345 97.915 48.3461 97.915L48.3499 97.9112Z" fill="black"/>
<path d="M28.6112 100.371C23.9381 100.371 22.015 96.7308 21.6535 94.8049C21.6381 94.7254 21.6343 94.6459 21.6381 94.5703C22.5035 81.9022 29.3073 72.1741 29.5958 71.7654C29.8996 71.3378 30.4996 71.2319 30.9343 71.5308C31.3689 71.8297 31.4766 72.42 31.1727 72.8476C31.1035 72.9422 24.4343 82.5 23.565 94.5665C23.7227 95.2059 24.7189 98.4827 28.6112 98.4827C28.6227 98.4827 28.6304 98.4827 28.642 98.4827C29.1727 98.4827 29.5996 98.9027 29.6035 99.4249C29.6035 99.947 29.1766 100.371 28.6458 100.375H28.6073L28.6112 100.371Z" fill="black"/>
<path d="M17.4454 113.565C17.0454 113.565 16.6762 113.319 16.5377 112.929C13.3492 103.897 18.3954 96.4319 18.6146 96.1217C18.9146 95.6903 19.5108 95.5768 19.9492 95.8719C20.3877 96.1671 20.5031 96.7536 20.2031 97.1849C20.1377 97.2795 15.4954 104.215 18.3531 112.309C18.5262 112.801 18.2608 113.342 17.7608 113.512C17.6569 113.546 17.5492 113.565 17.4454 113.565Z" fill="black"/>
<path d="M26.4608 118.071C22.1339 118.071 18.9224 115.298 18.7685 115.162C18.3724 114.813 18.3378 114.216 18.6916 113.826C19.0455 113.436 19.6531 113.402 20.0493 113.75C20.0839 113.78 23.707 116.883 28.0224 116.024C31.4647 115.339 34.4916 112.358 37.0147 107.17C37.2455 106.697 37.8185 106.5 38.2955 106.724C38.7762 106.951 38.9762 107.515 38.7493 107.984C35.9455 113.746 32.4608 117.076 28.3839 117.878C27.7224 118.007 27.0801 118.064 26.4608 118.064V118.071Z" fill="black"/>
<path d="M72.0928 89.4924C71.5889 89.4924 71.1658 89.1065 71.1351 88.6032C70.9312 85.2622 68.2312 79.0757 68.2043 79.0113C67.9928 78.5308 68.2197 77.9746 68.7043 77.7665C69.1928 77.5584 69.7581 77.7816 69.9697 78.2584C70.0851 78.5232 72.8312 84.8119 73.0543 88.4859C73.0851 89.0081 72.6812 89.4546 72.1504 89.4849C72.1312 89.4849 72.112 89.4849 72.0928 89.4849V89.4924Z" fill="black"/>
<path d="M74.5152 127.198H55.0768C54.546 127.198 54.1152 126.774 54.1152 126.252C54.1152 125.73 54.546 125.306 55.0768 125.306H73.6229C74.5191 112.789 72.046 101.37 72.0191 101.256C71.9075 100.745 72.2345 100.242 72.7537 100.132C73.2729 100.023 73.7845 100.344 73.896 100.855C73.9229 100.976 76.5729 113.186 75.4691 126.331C75.4268 126.823 75.0114 127.198 74.5114 127.198H74.5152Z" fill="black"/>
<path d="M49.6147 128.163H23.1647C22.6339 128.163 22.2031 127.739 22.2031 127.217V116.664C22.2031 116.142 22.6339 115.718 23.1647 115.718C23.6954 115.718 24.1262 116.142 24.1262 116.664V126.271H48.7377L49.68 116.573C49.73 116.051 50.2031 115.669 50.73 115.722C51.257 115.771 51.6454 116.233 51.5954 116.755L50.5724 127.308C50.5262 127.792 50.1108 128.163 49.6147 128.163Z" fill="black"/>
<path d="M55.0769 127.198C54.6576 127.198 54.2692 126.926 54.1499 126.506L52.0884 119.248C51.9461 118.745 52.2422 118.223 52.7538 118.083C53.2653 117.943 53.7961 118.234 53.9384 118.738L55.9999 125.995C56.1422 126.498 55.8461 127.02 55.3345 127.16C55.2461 127.183 55.1615 127.194 55.0769 127.194V127.198Z" fill="black"/>
<path d="M69.4765 135.62H69.4649L26.5457 135.083C26.0188 135.075 25.5957 134.655 25.5957 134.137V127.217C25.5957 126.694 26.0265 126.271 26.5572 126.271C27.088 126.271 27.5188 126.694 27.5188 127.217V133.202L68.5842 133.713L69.1265 126.184C69.1649 125.661 69.6226 125.268 70.1534 125.306C70.6842 125.344 71.0842 125.794 71.0457 126.316L70.4419 134.739C70.4072 135.234 69.988 135.617 69.4842 135.617L69.4765 135.62Z" fill="black"/>
<path d="M32.8876 164.726C32.3953 164.726 31.9722 164.355 31.9299 163.859L29.4568 135.254C29.4107 134.732 29.803 134.274 30.3337 134.232C30.8684 134.194 31.3299 134.573 31.3722 135.095L33.8453 163.7C33.8914 164.222 33.4991 164.68 32.9684 164.722C32.9414 164.722 32.9145 164.722 32.8876 164.722V164.726Z" fill="black"/>
<path d="M44.9158 164.725C44.8851 164.725 44.8505 164.725 44.8158 164.722C44.2889 164.669 43.9043 164.203 43.9582 163.685L46.8851 135.488C46.9389 134.97 47.412 134.588 47.9389 134.644C48.4658 134.697 48.8505 135.163 48.7966 135.681L45.8697 163.878C45.8197 164.366 45.4005 164.729 44.9158 164.729V164.725Z" fill="black"/>
<path d="M50.5005 164.725C49.9736 164.725 49.5428 164.309 49.539 163.787L49.2813 135.541C49.2774 135.019 49.7044 134.591 50.2351 134.587H50.2428C50.7697 134.587 51.2005 135.004 51.2044 135.526L51.462 163.772C51.4659 164.294 51.039 164.721 50.5082 164.725H50.5005Z" fill="black"/>
<path d="M61.1233 164.725C61.0771 164.725 61.0348 164.725 60.9887 164.718C60.4618 164.646 60.0964 164.165 60.1695 163.651L64.2156 135.405C64.2887 134.887 64.7771 134.527 65.3002 134.599C65.8271 134.671 66.1925 135.151 66.1195 135.666L62.0733 163.912C62.0041 164.385 61.5925 164.725 61.1233 164.725Z" fill="black"/>
<path d="M52.5079 199.597H34.0694C33.5771 199.597 33.1617 199.23 33.1117 198.749L29.4579 163.882C29.431 163.617 29.5194 163.348 29.7002 163.151C29.881 162.951 30.1425 162.837 30.4156 162.837H46.8502C47.1233 162.837 47.3848 162.951 47.5694 163.155C47.754 163.36 47.8386 163.624 47.8079 163.893L45.1002 187.129H47.5733C49.4617 187.129 51.2579 187.931 52.5002 189.331C53.7425 190.731 54.3117 192.589 54.0579 194.428L53.4617 198.783C53.3963 199.253 52.9886 199.604 52.5079 199.604V199.597ZM34.9386 197.705H51.6694L52.154 194.171C52.331 192.869 51.931 191.56 51.054 190.569C50.1771 189.581 48.9079 189.014 47.5733 189.014H44.0233C43.7502 189.014 43.4886 188.9 43.304 188.696C43.1194 188.491 43.0348 188.227 43.0656 187.958L45.7733 164.722H31.481L34.9386 197.697V197.705Z" fill="black"/>
<path d="M52.9894 196.717H33.7701C33.2394 196.717 32.8086 196.293 32.8086 195.771C32.8086 195.249 33.2394 194.825 33.7701 194.825H52.9894C53.5201 194.825 53.9509 195.249 53.9509 195.771C53.9509 196.293 53.5201 196.717 52.9894 196.717Z" fill="black"/>
<path d="M69.9355 199.597H51.4971C50.9663 199.597 50.5355 199.173 50.5355 198.651C50.5355 198.129 50.9663 197.705 51.4971 197.705H69.0932L69.5779 194.171C69.7548 192.869 69.3548 191.56 68.4779 190.569C67.6009 189.581 66.3317 189.014 64.9971 189.014H61.4471C61.174 189.014 60.9125 188.9 60.7279 188.696C60.5432 188.492 60.4586 188.227 60.4894 187.958L63.1971 164.722H48.9048L51.3394 187.966C51.3932 188.484 51.0086 188.949 50.4817 189.002C49.9548 189.055 49.4817 188.677 49.4279 188.159L46.8817 163.87C46.8548 163.606 46.9432 163.337 47.124 163.14C47.3048 162.94 47.5663 162.826 47.8394 162.826H64.274C64.5471 162.826 64.8086 162.94 64.9932 163.144C65.1779 163.348 65.2625 163.613 65.2317 163.882L62.524 187.118H64.9971C66.8855 187.118 68.6817 187.92 69.924 189.32C71.1663 190.72 71.7355 192.578 71.4817 194.417L70.8855 198.772C70.8202 199.241 70.4125 199.593 69.9317 199.593L69.9355 199.597Z" fill="black"/>
<path d="M70.4151 196.717H51.1959C50.6651 196.717 50.2344 196.293 50.2344 195.771C50.2344 195.249 50.6651 194.825 51.1959 194.825H70.4151C70.9459 194.825 71.3767 195.249 71.3767 195.771C71.3767 196.293 70.9459 196.717 70.4151 196.717Z" fill="black"/>
<path d="M20.5617 87.0177C20.154 87.0177 19.7732 86.7566 19.6425 86.3517C14.5848 70.4069 16.1925 55.5139 16.2079 55.3663C16.2656 54.8479 16.7425 54.4733 17.2694 54.5301C17.7963 54.5869 18.1771 55.056 18.1194 55.5744C18.104 55.7182 16.5425 70.2366 21.4771 85.7879C21.6348 86.2874 21.354 86.8171 20.8463 86.9723C20.7502 87.0025 20.654 87.0139 20.5579 87.0139L20.5617 87.0177Z" fill="black"/>
<path d="M74.8041 82.7498C74.7157 82.7498 74.6272 82.7384 74.5426 82.7119C74.0311 82.5681 73.7349 82.046 73.8811 81.5427C77.8272 67.8568 76.0157 54.4433 76.0003 54.3071C75.9272 53.7887 76.2965 53.3119 76.8234 53.24C77.3503 53.1681 77.8349 53.5314 77.908 54.0498C77.9888 54.6135 79.7926 67.993 75.7349 82.0573C75.6157 82.4735 75.2311 82.746 74.8118 82.746L74.8041 82.7498Z" fill="black"/>
</svg>
