<svg width="100" height="210" viewBox="0 0 100 210" fill="none" xmlns="http://www.w3.org/2000/svg">
<g clip-path="url(#clip0_1837_669014)">
<path d="M29.4434 41.2332C29.4434 41.2332 8.6815 53.9756 26.6187 87.799C26.6187 87.799 43.548 101.024 62.855 83.7521C62.855 83.7521 75.3166 37.9179 42.9203 37.9972L29.4397 41.2332H29.4434Z" fill="white"/>
<path d="M29.292 123.478C24.1154 117.532 23.6465 104.729 23.6465 104.729L29.292 100.008V123.478Z" fill="white"/>
<path d="M67.8102 153.694V145.716L55.7031 146.166L57.6637 155.233H67.8102V153.694Z" fill="white"/>
<path d="M40.8938 157.183L38.623 146.801L50.2575 146.368V156.498V157.183H40.8938Z" fill="white"/>
<path d="M29.2928 104.635V86.4401C29.2928 86.4401 42.2786 94.6239 63.7235 81.7158L73.5635 114.599L77.0823 145.366L29.2891 147.143V104.631" fill="#FFF080"/>
<path d="M54.5442 192.815L51.9264 156.502L37.6113 157.388L47.0526 188.967L37.6113 197.706H47.8279L51.9264 194.725L52.4987 197.706H54.5479V192.819L54.5442 192.815Z" fill="#2BE6AE"/>
<path d="M56.0878 155.345L69.369 154.39V197.701H66.5887L65.6657 193.056L59.529 197.701H47.8281L61.0724 188.062L56.0878 155.345Z" fill="#2BE6AE"/>
<path d="M29.4434 141.958L76.5129 139.197L77.2366 145.511L29.4434 147.287V141.958Z" fill="#FFBA57"/>
<path d="M44.8672 99.6262L57.5023 98.4658L57.9084 121.295L49.442 122.307L44.8672 99.6262Z" fill="white"/>
<path d="M46.668 108.083L57.6526 106.844L58.0587 121.431L49.4409 122.307L46.668 108.083Z" fill="#FF6A2F"/>
<path d="M79.4415 99.0417C81.6569 106.822 78.0679 111.074 78.0679 111.074C72.0495 118.451 61.9695 115.308 61.9695 115.308L60.9393 115.009L59.5326 115.971C51.6421 120.379 53.1596 115.824 53.1596 115.824C53.4993 114.916 52.5246 114.379 52.5246 114.379C50.7892 113.262 52.1442 112.231 52.1442 112.231C53.119 111.571 52.3141 110.415 52.3141 110.415C50.7042 108.761 53.2446 108.224 53.2446 108.224C55.2347 107.809 53.839 106.231 53.839 106.231C52.3584 103.452 55.279 103.968 55.279 103.968C57.3947 104.173 60.4778 106.231 60.4778 106.231C60.4778 106.231 64.6021 106.26 68.3572 104.112L79.4452 99.0381L79.4415 99.0417Z" fill="white"/>
<path d="M21.0031 32.6164C21.0031 32.6164 2.02467 73.3731 25.5077 107.597C25.5077 107.597 33.9668 102.108 37.6111 93.8524C37.6111 93.8524 31.4782 92.2885 29.2924 87.1641C29.2924 87.1641 13.3564 61.2686 27.365 45.6002C27.365 45.6002 31.1053 41.6831 35.1816 43.2398C35.1816 43.2398 38.0764 39.1173 46.3434 41.7227C46.3434 41.7227 57.2431 43.9786 62.4678 61.5533C62.4678 61.5533 64.997 81.0632 57.125 88.7822C57.125 88.7822 60.5219 102.555 75.5201 107.597C75.5201 107.597 98.0911 66.7822 75.3059 30.6957C75.3059 30.6957 64.8862 11.8632 44.3164 23.8272C44.3164 23.8272 33.7268 15.038 24.8764 27.1173L20.9994 32.62L21.0031 32.6164Z" fill="#67A9F9"/>
<path d="M66.8801 73.7444C68.228 73.7444 69.3207 72.678 69.3207 71.3625C69.3207 70.0469 68.228 68.9805 66.8801 68.9805C65.5322 68.9805 64.4395 70.0469 64.4395 71.3625C64.4395 72.678 65.5322 73.7444 66.8801 73.7444Z" fill="#FFF080"/>
<path d="M67.6812 77.9066C68.8579 77.9066 69.8117 76.9757 69.8117 75.8273C69.8117 74.679 68.8579 73.748 67.6812 73.748C66.5046 73.748 65.5508 74.679 65.5508 75.8273C65.5508 76.9757 66.5046 77.9066 67.6812 77.9066Z" fill="#FFF080"/>
<path d="M61.574 61.9425C61.574 61.9425 67.3451 59.6217 68.4269 64.5839C68.4269 64.5839 68.4971 71.2686 62.4122 68.3965L61.5703 61.9425H61.574Z" fill="white"/>
<path d="M44.2657 30.3535C44.2657 30.3535 44.2361 35.867 46.0158 37.9967C46.0158 37.9967 56.1032 35.6291 62.7087 26.7318C62.7087 26.7318 50.4318 25.4346 44.2657 30.3535Z" fill="#FFF080"/>
<path d="M14.6938 25.9323C14.6052 25.5791 28.7061 26.3359 33.0335 30.8584C33.0335 30.8584 30.3529 33.8746 30.0464 37.0926C30.0464 37.0926 16.2409 31.9647 14.6938 25.9287V25.9323Z" fill="#FFF080"/>
<path d="M75.6756 108.635C75.5759 108.635 75.4762 108.62 75.3765 108.588C59.998 103.445 56.5199 89.7085 56.3796 89.1284C56.2947 88.7788 56.4313 88.4112 56.7304 88.1986C62.2134 84.2455 62.0547 68.6959 62.051 68.541C62.0473 68.2203 62.2171 67.9212 62.5014 67.7554C62.7857 67.5896 63.1365 67.586 63.4245 67.741C64.8756 68.5266 65.9537 68.368 66.814 67.2401C67.5931 66.2239 67.7556 64.8293 67.2313 63.6869C66.19 61.4275 63.0664 62.4941 62.9334 62.541C62.6934 62.6239 62.4313 62.6094 62.206 62.4977C61.9808 62.386 61.8073 62.1914 61.7371 61.9536C58.8239 52.5121 54.0387 46.0833 47.8984 43.3626C43.5156 41.4203 39.8454 41.9968 39.4614 42.0653C37.0799 42.7824 35.7876 43.7374 35.6177 44.9085C35.2485 47.4563 39.9599 51.0707 41.6399 52.1338C42.0682 52.404 42.19 52.9626 41.9131 53.3806C41.6362 53.7986 41.0639 53.9176 40.6356 53.6473C40.5617 53.6004 38.8005 52.4797 37.0836 50.8761C34.6356 48.5878 33.5279 46.4977 33.79 44.6599C34.067 42.7284 35.8097 41.2725 38.9667 40.332C38.9925 40.3248 39.0184 40.3176 39.0405 40.3139C39.2177 40.2779 43.4011 39.4383 48.5408 41.6761C53.1045 43.6617 59.3113 48.559 63.2325 60.5986C65.0565 60.2347 67.7371 60.4076 68.9113 62.9518C69.7199 64.7067 69.4836 66.7644 68.291 68.3212C67.1648 69.795 65.603 70.3248 63.886 69.8707C63.8011 73.8022 63.1328 85.0815 58.3291 89.2509C59.1119 91.7302 63.0737 102.209 75.2325 106.631C76.3254 104.566 79.6596 97.8527 82.0596 88.4257C84.7291 77.9572 86.7636 61.8923 81.3174 44.8221C81.299 44.7608 80.0473 40.559 77.4073 35.723C74.9999 31.3158 70.9125 25.4599 65.1045 22.5914C60.6331 20.3824 55.7113 20.2239 50.4719 22.1121C50.3353 22.1554 39.635 25.7842 34.5211 39.6437C34.3476 40.1121 33.8196 40.3536 33.3396 40.1878C32.8596 40.0185 32.6122 39.5031 32.782 39.0347C38.2134 24.3103 49.3863 20.5662 49.859 20.4148C55.571 18.3536 60.9913 18.5446 65.9427 20.9878C77.843 26.8689 82.8756 43.5968 83.0824 44.3067C88.6577 61.7806 86.5679 78.2131 83.8319 88.923C80.867 100.519 76.6467 107.882 76.4694 108.188C76.3033 108.476 75.9894 108.645 75.6645 108.645L75.6756 108.635Z" fill="#231F20"/>
<path d="M46.1664 39.0381C45.8969 39.0381 45.6384 38.9228 45.4612 38.7174C45.3837 38.6273 43.5892 36.4939 43.7 31.8813C43.7037 31.6471 43.8034 31.4345 43.9584 31.2759C43.9252 31.2579 43.892 31.2363 43.8587 31.2111C39.2397 27.7876 34.1701 30.9084 33.8526 31.1174C33.5498 31.4273 33.0514 31.4885 32.6747 31.2435C32.2501 30.966 32.1357 30.4075 32.42 29.993C32.7523 29.5066 34.8347 28.3714 37.2384 27.975C39.8304 27.5498 42.2821 28.0291 44.372 29.3588C46.0667 28.1264 51.439 25.139 62.9295 25.975C63.2544 26.0003 63.5424 26.1876 63.6864 26.4723C63.8304 26.757 63.812 27.0958 63.6347 27.3624C63.4132 27.6976 58.0594 35.6255 46.4286 39.0021C46.34 39.0273 46.2514 39.0381 46.1664 39.0381ZM45.0772 31.121C45.3615 31.2795 45.5498 31.5822 45.5424 31.9246C45.4797 34.6381 46.1517 36.3102 46.5689 37.0741C54.3818 34.6273 59.1338 29.9426 61.0723 27.6759C49.5597 27.2111 45.3098 30.912 45.0809 31.121H45.0772Z" fill="#231F20"/>
<path d="M30.1944 38.1338C30.0836 38.1338 29.9728 38.1158 29.8658 38.0761C29.2824 37.8599 15.5876 32.7068 13.9445 26.2888C13.8412 25.8888 14.0479 25.4527 14.4172 25.2545C15.4621 24.696 29.3378 25.6581 33.8572 30.3825C34.1784 30.7176 34.1895 31.2401 33.8793 31.5861C33.8535 31.6149 31.3907 34.4329 31.1138 37.3158C31.0879 37.5969 30.9292 37.8491 30.6818 37.9969C30.5341 38.087 30.3642 38.1338 30.1944 38.1338ZM16.1562 26.9086C18.1944 30.7356 25.579 34.3933 29.4744 35.9825C29.9839 33.8924 31.2135 32.0437 31.9335 31.0924C30.187 29.6906 27.0153 28.505 22.8578 27.7158C20.107 27.1933 17.5556 26.9698 16.1562 26.9122V26.9086Z" fill="#231F20"/>
<path d="M25.0284 28.1553C24.8437 28.1553 24.6554 28.1013 24.493 27.986C24.0794 27.6977 23.9834 27.1355 24.2788 26.7283C27.1847 22.7643 30.5964 20.5193 34.4179 20.0616C40.2702 19.3589 44.8745 23.1139 45.0665 23.2761C45.4542 23.5968 45.5022 24.1661 45.1736 24.5445C44.845 24.9229 44.2616 24.9697 43.8739 24.649C43.8185 24.6022 39.6573 21.24 34.6284 21.8526C31.3459 22.2526 28.3699 24.2454 25.7816 27.777C25.6007 28.022 25.3164 28.1553 25.0284 28.1553Z" fill="#231F20"/>
<path d="M25.6557 108.635C25.3566 108.635 25.0649 108.494 24.8877 108.235C12.5997 90.3283 12.0126 70.6526 13.6815 57.3013C15.4871 42.8653 20.2649 32.4869 20.3129 32.3824C20.5234 31.9283 21.0698 31.7301 21.5351 31.9355C22.0003 32.1409 22.2034 32.6743 21.9929 33.1283C21.9449 33.2292 17.2704 43.4022 15.5092 57.5788C13.9104 70.4184 14.4458 89.2364 25.8994 106.458C27.9191 104.988 33.4944 100.559 36.4926 94.5301C34.5431 93.8166 30.3855 91.8562 28.5911 87.6472C28.3954 87.186 28.6169 86.6598 29.0895 86.4689C29.5584 86.2779 30.1012 86.4941 30.2969 86.9553C32.2723 91.5932 37.94 93.1031 37.9954 93.1211C38.2538 93.1896 38.4717 93.3625 38.5898 93.5968C38.708 93.831 38.7154 94.1085 38.6083 94.3463C34.8975 102.75 26.5234 108.256 26.1652 108.487C26.0101 108.588 25.8292 108.638 25.6557 108.638V108.635Z" fill="#231F20"/>
<path d="M40.657 90.0939C37.8435 90.0939 35.2183 89.6327 32.8404 88.703C32.3678 88.5192 32.1352 87.993 32.3272 87.5318C32.5155 87.0705 33.0509 86.8435 33.5272 87.0309C45.697 91.7732 60.5438 81.6795 60.6915 81.575C61.105 81.2867 61.6847 81.384 61.9764 81.7912C62.2718 82.1984 62.1721 82.7606 61.7549 83.0453C61.5961 83.157 57.782 85.7696 52.321 87.7984C48.2115 89.3264 44.2792 90.0939 40.657 90.0939Z" fill="#231F20"/>
<path d="M65.931 39.0381C65.5212 39.0381 65.1446 38.7678 65.0375 38.3606C63.8855 33.9823 59.2553 31.2651 59.211 31.2399C58.7716 30.9877 58.6276 30.4327 58.8861 30.0075C59.1446 29.5786 59.7095 29.4345 60.1489 29.6868C60.3667 29.8129 65.4842 32.8003 66.8282 37.9138C66.9538 38.3967 66.6584 38.8868 66.1636 39.0093C66.0861 39.0273 66.0086 39.0381 65.9347 39.0381H65.931Z" fill="#231F20"/>
<path d="M67.112 116.992C64.1065 116.992 61.8837 116.321 61.8357 116.307C61.3483 116.156 61.0825 115.647 61.2375 115.175C61.3926 114.7 61.9132 114.44 62.3969 114.592C62.7994 114.714 71.9563 117.438 77.4948 110.653C77.6351 110.483 80.7477 106.606 78.7022 99.4204C78.5655 98.9411 78.8535 98.4438 79.3446 98.3105C79.8357 98.1771 80.3452 98.4582 80.4819 98.9375C82.7969 107.074 79.0899 111.597 78.9311 111.784C75.4714 116.022 70.7268 116.992 67.1157 116.992H67.112Z" fill="#231F20"/>
<path d="M29.4446 142.858C29.1566 142.858 28.876 142.728 28.6951 142.483C28.396 142.08 28.4883 141.518 28.9018 141.226C29.116 141.074 37.148 140.541 52.9978 139.626C64.7431 138.952 76.4624 138.296 76.4624 138.296C76.9757 138.267 77.4077 138.649 77.4372 139.143C77.4668 139.64 77.0791 140.065 76.5695 140.094C63.9972 140.797 31.2354 142.653 29.6366 142.837C29.5738 142.851 29.5111 142.855 29.4446 142.855V142.858Z" fill="#231F20"/>
<path d="M69.5161 198.743H66.7358C66.2927 198.743 65.9124 198.437 65.8275 198.011L65.1924 194.804L60.241 198.552C60.0786 198.674 59.8792 198.739 59.6761 198.739H47.9752C47.5764 198.739 47.2257 198.491 47.1001 198.123C46.9746 197.755 47.1038 197.348 47.425 197.118L60.23 187.799L55.3266 155.615C55.2897 155.366 55.3598 155.114 55.5186 154.919C55.6773 154.725 55.9173 154.602 56.1721 154.584L69.4533 153.629C69.7081 153.611 69.9629 153.698 70.1475 153.867C70.3358 154.037 70.4429 154.278 70.4429 154.527V197.838C70.4429 198.336 70.0293 198.739 69.5198 198.739L69.5161 198.743ZM67.4964 196.941H68.593V155.5L57.2946 156.314L62.1352 188.073C62.1869 188.4 62.0466 188.728 61.7733 188.927L50.7592 196.945H59.3623L65.2515 192.487C65.5063 192.296 65.8423 192.246 66.1413 192.357C66.4404 192.469 66.662 192.721 66.721 193.031L67.4964 196.948V196.941Z" fill="#231F20"/>
<path d="M47.2035 198.743H37.7623C37.3857 198.743 37.046 198.519 36.9057 198.177C36.7654 197.835 36.854 197.442 37.1272 197.189L46.1623 188.829L36.8798 157.777C36.8023 157.514 36.8503 157.233 37.0091 157.006C37.1715 156.782 37.4263 156.642 37.7069 156.624L52.022 155.737C52.5352 155.716 52.9672 156.08 53.0004 156.573L55.6183 192.887C55.6552 193.384 55.2712 193.813 54.7617 193.849C54.2632 193.885 53.8128 193.51 53.7758 193.013L51.2208 157.59L38.9734 158.346L48.0934 188.844C48.1894 189.168 48.0934 189.517 47.8423 189.748L40.0811 196.934H47.2072C47.7168 196.934 48.1303 197.337 48.1303 197.835C48.1303 198.332 47.7168 198.735 47.2072 198.735L47.2035 198.743Z" fill="#231F20"/>
<path d="M67.9621 154.736C67.4526 154.736 67.0391 154.332 67.0391 153.835V145.856C67.0391 145.359 67.4526 144.956 67.9621 144.956C68.4717 144.956 68.8852 145.359 68.8852 145.856V153.835C68.8852 154.332 68.4717 154.736 67.9621 154.736Z" fill="#231F20"/>
<path d="M57.8118 156.271C57.3835 156.271 56.9995 155.979 56.9109 155.554L54.9503 146.487C54.8432 146.001 55.1644 145.521 55.6629 145.42C56.1614 145.32 56.6524 145.629 56.7558 146.116L58.7164 155.183C58.8235 155.669 58.5023 156.148 58.0038 156.249C57.9411 156.264 57.8746 156.267 57.8118 156.267V156.271Z" fill="#231F20"/>
<path d="M50.4094 157.539C49.8999 157.539 49.4863 157.135 49.4863 156.638V146.508C49.4863 146.011 49.8999 145.607 50.4094 145.607C50.9189 145.607 51.3325 146.011 51.3325 146.508V156.638C51.3325 157.135 50.9189 157.539 50.4094 157.539Z" fill="#231F20"/>
<path d="M41.0421 158.22C40.6175 158.22 40.2335 157.932 40.1411 157.507L37.8704 147.125C37.7633 146.638 38.0808 146.159 38.5793 146.054C39.0741 145.95 39.5688 146.26 39.6759 146.746L41.9467 157.128C42.0538 157.615 41.7362 158.094 41.2378 158.199C41.1713 158.213 41.1085 158.22 41.0421 158.22Z" fill="#231F20"/>
<path d="M29.4442 124.519C29.1821 124.519 28.9236 124.411 28.739 124.202C23.4147 118.09 22.8941 105.438 22.8756 104.901C22.8572 104.404 23.2559 103.986 23.7655 103.968C24.2787 103.961 24.7033 104.339 24.7218 104.836C24.7255 104.962 25.2424 117.402 30.1495 123.035C30.4781 123.413 30.4338 123.982 30.0424 124.303C29.8688 124.447 29.6547 124.516 29.4442 124.516V124.519Z" fill="#231F20"/>
<path d="M62.4165 99.5029C62.1691 99.5029 61.918 99.4056 61.7371 99.2146C61.39 98.8506 61.4159 98.2777 61.7888 97.9425C65.7064 94.4146 67.2202 86.2452 67.235 86.1624C67.3236 85.6723 67.8036 85.3443 68.3057 85.4308C68.8079 85.5173 69.1439 85.9858 69.0553 86.4759C68.9888 86.8362 67.4159 95.3299 63.0442 99.2651C62.867 99.4236 62.6417 99.5029 62.4202 99.5029H62.4165Z" fill="#231F20"/>
<path d="M66.7149 103.791C66.449 103.791 66.1869 103.68 66.006 103.467C65.681 103.085 65.7327 102.516 66.1278 102.199C70.1044 98.9806 71.3118 92.8257 71.3229 92.7608C71.4152 92.2707 71.8989 91.9536 72.3973 92.0401C72.8995 92.1302 73.2281 92.5986 73.1395 93.0887C73.0878 93.3662 71.8066 99.9428 67.3093 103.586C67.1358 103.727 66.929 103.795 66.7186 103.795L66.7149 103.791Z" fill="#231F20"/>
<path d="M33.6576 101.355C33.5394 101.355 33.4176 101.334 33.3031 101.287C30.0465 99.9608 27.0742 97.2473 24.7074 93.4455C22.9388 90.6059 22.1302 88.177 22.0969 88.0725C21.9419 87.6005 22.2077 87.0923 22.6914 86.941C23.1751 86.786 23.6957 87.0491 23.8545 87.5212C23.884 87.6149 26.9856 96.7608 34.0157 99.6221C34.4846 99.8131 34.7099 100.343 34.5105 100.8C34.3628 101.146 34.0194 101.355 33.6576 101.355Z" fill="#231F20"/>
<path d="M29.4437 148.188C29.2037 148.188 28.9747 148.098 28.8049 147.936C28.624 147.766 28.5206 147.532 28.5206 147.287V105.273C24.7618 102.826 22.24 97.4059 22.1329 97.1645C21.9261 96.7104 22.1329 96.1771 22.5981 95.9753C23.0633 95.7699 23.6098 95.9753 23.8166 96.4293C23.8424 96.4834 26.4123 102.008 29.9089 103.997C30.1932 104.159 30.3667 104.455 30.3667 104.775V146.35L76.2104 144.646L72.8024 114.84C72.747 114.346 73.1089 113.9 73.6184 113.846C74.1206 113.791 74.5821 114.145 74.6375 114.642L78.1563 145.41C78.1858 145.658 78.1046 145.907 77.9384 146.098C77.7723 146.289 77.5286 146.401 77.2738 146.411L29.4806 148.188C29.4806 148.188 29.4584 148.188 29.4473 148.188H29.4437Z" fill="#231F20"/>
<path d="M50.445 67.1069C50.0167 67.1069 49.6364 67.0601 49.3447 66.988C47.8714 66.624 46.8598 65.734 46.5718 64.5484C46.3133 63.4961 46.6714 62.3646 47.4838 61.6727C49.2007 60.206 51.2499 60.2457 52.7933 60.7682C52.6788 60.5484 52.5385 60.343 52.3576 60.1592C51.7336 59.5213 50.7108 59.2835 49.3262 59.4529C49.3078 59.4529 49.293 59.4529 49.2745 59.4565C49.2561 59.4565 48.3404 59.5718 47.5281 60.743C47.2438 61.1538 46.6678 61.2619 46.2468 60.9844C45.8259 60.7069 45.7151 60.1448 45.9994 59.734C47.2585 57.9177 48.8167 57.6907 49.1194 57.6619C51.1096 57.4276 52.653 57.8493 53.6979 58.9231C55.5219 60.7934 54.9976 63.8997 54.9754 64.0331C54.9681 64.0655 54.9607 64.0979 54.9533 64.1304C54.2591 66.4655 52.0364 67.1105 50.4487 67.1105L50.445 67.1069ZM50.8253 62.2312C50.1385 62.2312 49.3927 62.4367 48.6985 63.0312C48.4068 63.2799 48.2702 63.734 48.3662 64.134C48.4918 64.6529 49.0013 65.0493 49.7988 65.2475C49.8247 65.2547 52.5127 65.7015 53.1625 63.6835C53.1773 63.5862 53.2068 63.3376 53.2142 63.0024C52.8228 62.7285 51.8924 62.2349 50.8253 62.2349V62.2312Z" fill="#231F20"/>
<path d="M30.2745 66.1626C29.8462 66.1626 29.4659 66.1158 29.1705 66.0437C27.6973 65.6797 26.6856 64.7896 26.3976 63.6041C26.1391 62.5518 26.4973 61.4203 27.3096 60.7284C29.0265 59.2653 31.0758 59.3014 32.6191 59.8239C32.5047 59.6041 32.3607 59.3987 32.1834 59.2149C31.5594 58.577 30.5404 58.3392 29.1521 58.505C29.1336 58.505 29.1188 58.505 29.1004 58.5086C29.0819 58.5086 28.1662 58.6239 27.3539 59.7951C27.0696 60.2059 26.4936 60.3176 26.0727 60.0365C25.6518 59.759 25.5373 59.1969 25.8253 58.786C27.0844 56.9698 28.6425 56.7392 28.9453 56.714C30.9354 56.4761 32.4788 56.9014 33.5238 57.9752C35.3478 59.8455 34.8234 62.9518 34.8013 63.0851C34.7939 63.1176 34.7865 63.15 34.7791 63.1824C34.085 65.5176 31.8622 66.1626 30.2745 66.1626ZM30.6511 61.2869C29.9644 61.2869 29.2185 61.4887 28.5244 62.0869C28.2327 62.3356 28.0961 62.7896 28.1921 63.1896C28.3176 63.7086 28.8271 64.105 29.6247 64.3032C29.6542 64.3104 32.3385 64.7572 32.9884 62.7392C33.0031 62.6419 33.0327 62.3932 33.0401 62.0617C32.6487 61.7878 31.7182 61.2942 30.6511 61.2942V61.2869Z" fill="#231F20"/>
<path d="M37.8442 77.9933C36.7882 77.9933 36.1088 77.7338 35.7285 77.2149C35.2042 76.4978 35.4885 75.6149 35.891 75.078C35.9464 75.0059 36.0091 74.9411 36.083 74.887C37.3827 73.9356 38.0842 73.2834 38.4608 72.8618C36.899 72.9338 35.3851 72.7609 35.3076 72.7501C34.8867 72.6996 34.5544 72.3753 34.5027 71.9645C33.7938 66.332 37.3864 63.2582 37.5378 63.132C37.9255 62.8077 38.5088 62.851 38.8375 63.2293C39.1698 63.6077 39.1255 64.1735 38.7378 64.4978C38.6196 64.5987 36.0424 66.8438 36.2639 71.0239C37.0615 71.078 38.3501 71.1248 39.395 70.9627C39.5316 70.9411 39.6682 70.9519 39.8011 70.9879C40.1556 71.0888 40.6061 71.4167 40.7131 72.0041C40.9051 73.0492 39.9119 74.3032 37.3975 76.1699C37.8701 76.242 39.2141 76.2311 42.6442 75.2005C43.1316 75.0528 43.6485 75.3194 43.7962 75.7951C43.9439 76.2708 43.6744 76.7753 43.187 76.9194C40.8128 77.6329 39.0664 77.9861 37.8368 77.9861L37.8442 77.9933Z" fill="#231F20"/>
<path d="M39.1335 80.4653C38.768 80.4653 38.5391 80.44 38.5022 80.4364C37.9963 80.3788 37.6308 79.9319 37.6899 79.4382C37.7489 78.9445 38.2068 78.5878 38.7089 78.6454C38.7422 78.6454 41.6259 78.9229 43.8486 76.9517C44.2252 76.6166 44.8086 76.6454 45.152 77.013C45.4954 77.3806 45.4659 77.9499 45.0892 78.2851C42.9108 80.2166 40.3077 80.4616 39.1299 80.4616L39.1335 80.4653Z" fill="#231F20"/>
<path d="M49.2571 122.026C48.8251 122.026 48.4374 121.727 48.3525 121.298L44.11 99.9394C44.062 99.6907 44.1211 99.4313 44.2762 99.2295C44.4312 99.0241 44.6676 98.8979 44.9297 98.8727L57.5648 97.7124C57.8232 97.6907 58.0817 97.7736 58.2737 97.943C58.4657 98.1124 58.5765 98.3538 58.5765 98.6097V104.123C58.5765 104.62 58.1629 105.024 57.6534 105.024C57.1439 105.024 56.7303 104.62 56.7303 104.123V99.6006L46.1186 100.577L50.1654 120.963C50.2614 121.453 49.9365 121.925 49.4343 122.019C49.3752 122.029 49.3162 122.037 49.2571 122.037V122.026Z" fill="#231F20"/>
<path d="M50.295 123.345C49.8409 123.345 49.4421 123.017 49.383 122.563C49.3165 122.069 49.671 121.615 50.1769 121.55L57.1369 120.642V118.595C57.1369 118.098 57.5504 117.694 58.0599 117.694C58.5695 117.694 58.983 118.098 58.983 118.595V121.428C58.983 121.878 58.6396 122.26 58.1818 122.321L50.4205 123.334C50.3799 123.341 50.3393 123.341 50.2987 123.341L50.295 123.345Z" fill="#231F20"/>
<path d="M54.5662 118.934C53.9311 118.934 53.4216 118.775 53.0228 118.458C51.856 117.532 52.3656 115.874 52.4284 115.691C52.5059 115.485 52.2364 115.319 52.2031 115.301C52.1957 115.298 52.1699 115.283 52.1625 115.276C51.3317 114.743 50.896 114.105 50.8628 113.384C50.8222 112.379 51.6271 111.734 51.7194 111.665C51.7342 111.655 51.7453 111.644 51.76 111.637C51.9336 111.518 51.7859 111.222 51.7157 111.103C50.9256 110.249 50.9293 109.525 51.0733 109.06C51.4351 107.914 52.901 107.55 53.189 107.489C53.3625 107.453 53.4659 107.413 53.5176 107.384C53.4844 107.269 53.3773 107.085 53.2739 106.963C53.2296 106.912 53.189 106.851 53.1594 106.793C52.528 105.608 52.469 104.656 52.9859 103.972C53.7207 102.999 55.1717 103.161 55.5447 103.222C57.5127 103.428 60.0751 104.959 60.8837 105.471C61.8142 105.431 65.0708 105.175 68.0284 103.482C68.4677 103.229 69.0327 103.374 69.2911 103.802C69.5496 104.231 69.4019 104.783 68.9625 105.035C65.0339 107.283 60.7988 107.28 60.6105 107.276C60.4259 107.276 60.2487 107.219 60.0973 107.118C59.2924 106.581 56.8665 105.157 55.3268 105.006C55.301 105.006 55.2788 104.999 55.2567 104.995C54.9871 104.952 54.6179 104.97 54.485 105.035C54.4813 105.114 54.496 105.363 54.7582 105.878C55.013 106.195 55.6074 107.067 55.2936 107.979C55.1385 108.426 54.7176 109.01 53.584 109.244C53.3108 109.305 52.9711 109.46 52.8604 109.572C52.8825 109.626 52.949 109.745 53.1299 109.932C53.1631 109.968 53.1964 110.008 53.2259 110.047C53.7502 110.801 54.0788 112.228 52.853 113.085C52.7865 113.143 52.709 113.262 52.7127 113.309C52.7127 113.352 52.805 113.521 53.1594 113.752C53.9348 114.195 54.5773 115.157 54.1822 116.249C54.0862 116.566 54.0899 116.977 54.1896 117.056C54.197 117.064 55.0425 117.662 59.2185 115.33C59.6579 115.085 60.2228 115.233 60.4776 115.665C60.7324 116.098 60.5773 116.649 60.1342 116.894C57.6899 118.26 55.8659 118.93 54.5662 118.93V118.934Z" fill="#231F20"/>
<path d="M67.0278 74.786C65.1705 74.786 63.6641 73.3121 63.6641 71.5031C63.6641 69.6941 65.1742 68.2202 67.0278 68.2202C68.8813 68.2202 70.3914 69.6941 70.3914 71.5031C70.3914 73.3121 68.8813 74.786 67.0278 74.786ZM67.0278 70.0184C66.1896 70.0184 65.5102 70.6815 65.5102 71.4995C65.5102 72.3175 66.1896 72.9806 67.0278 72.9806C67.8659 72.9806 68.5453 72.3175 68.5453 71.4995C68.5453 70.6815 67.8659 70.0184 67.0278 70.0184Z" fill="#231F20"/>
<path d="M67.8328 78.9447C66.1491 78.9447 64.7793 77.6078 64.7793 75.9646C64.7793 74.3213 66.1491 72.9844 67.8328 72.9844C69.5165 72.9844 70.8864 74.3213 70.8864 75.9646C70.8864 77.6078 69.5165 78.9447 67.8328 78.9447ZM67.8328 74.7862C67.1682 74.7862 66.6255 75.3159 66.6255 75.9646C66.6255 76.6132 67.1682 77.1429 67.8328 77.1429C68.4975 77.1429 69.0402 76.6132 69.0402 75.9646C69.0402 75.3159 68.4975 74.7862 67.8328 74.7862Z" fill="#231F20"/>
</g>
<defs>
<clipPath id="clip0_1837_669014">
<rect width="100" height="210" fill="white"/>
</clipPath>
</defs>
</svg>
