<svg width="100" height="210" viewBox="0 0 100 210" fill="none" xmlns="http://www.w3.org/2000/svg">
<path d="M30.3535 127.958C30.3535 127.958 34.6381 167.756 41.1535 187.769L49.9997 189.49C49.9997 189.49 50.9689 147.714 53.3074 137.028L30.3535 127.958Z" fill="white"/>
<path d="M75.6073 129.468C75.6073 129.468 69.9688 171.665 76.4034 191.454L64.688 186.225C64.688 186.225 51.9149 152.107 53.3073 137.028L75.6073 129.464V129.468Z" fill="white"/>
<path d="M27.4923 43.7808C27.4923 43.7808 25.6846 63.8727 25.8154 74.5278C25.9461 85.1829 32.4961 91.3883 32.4961 91.3883L38.8384 74.5278L27.4923 43.7808Z" fill="#67A9F9"/>
<path d="M38.8382 74.5274C38.8382 74.5274 28.1382 95.9776 30.7728 129.366L52.4267 140.38L75.5267 129.4C75.5267 129.4 71.3305 79.4917 64.8536 67.7241L38.8382 74.5274Z" fill="#FFF080"/>
<path d="M53.0886 9.25375C53.0886 9.25375 23.3925 3.27159 24.7002 37.6473C24.7002 37.6473 44.8078 27.1473 68.454 44.7986C68.454 44.7986 72.5925 42.2294 74.4848 44.7986C74.4848 44.7986 84.3309 17.1505 53.0886 9.25375Z" fill="#F8B3FF"/>
<path d="M24.6992 37.6469C24.6992 37.6469 25.2454 81.7999 51.6415 77.2177C51.6415 77.2177 66.1146 78.7577 68.0338 54.1253C68.0338 54.1253 74.5415 55.6766 74.1915 46.1793C74.1915 46.1793 72.5492 41.1355 68.4531 44.7982C68.4531 44.7982 47.5608 29.2734 24.6992 37.6469Z" fill="white"/>
<path d="M64.8535 67.7245L68.9766 80.3283L75.9574 81.5958C75.9574 81.5958 80.7727 60.9894 73.392 51.3975L68.0343 54.1256L64.8535 67.7245Z" fill="#67A9F9"/>
<path d="M24.6992 37.6472L25.2338 44.7986C25.2338 44.7986 42.3645 45.4872 45.0953 34.8813C45.0953 34.8813 30.4838 33.9505 24.6953 37.6472H24.6992Z" fill="#67A9F9"/>
<path d="M39.5306 183.194L18.396 194.163C18.396 194.163 10.0921 202.124 44.4344 198.98H72.8652C72.8652 198.98 79.2383 199.547 75.3075 186.811L63.2883 183.701L54.5075 188.045C54.5075 188.045 41.3383 185.286 39.5306 183.194Z" fill="#2BE6AE"/>
<path d="M29.6465 109.751V123.861L34.1196 126.627C34.1196 126.627 36.7465 125.628 36.7465 125.446V122.589L39.5465 121.363V117.629L38.0388 116.059L39.1003 113.788L38.1311 111.249H34.5965L34.0734 109.751H29.6465Z" fill="#FFBA57"/>
<path d="M58.9689 109.895C60.6843 109.422 61.4305 107.322 60.9151 105.755C60.3305 103.965 58.3112 103.485 58.2035 103.462C58.2843 103.451 60.0805 103.193 60.7612 101.6C60.8189 101.464 61.2805 100.325 60.6958 99.1637C60.0651 97.9151 58.6189 97.4156 57.4612 97.5216C56.5112 97.6086 55.8497 98.0929 55.5728 98.3199C55.4766 96.0875 53.8035 94.4037 51.9689 94.3205C50.5882 94.2599 48.8574 95.0924 48.4535 96.7421C48.1305 98.0513 48.7382 99.4853 49.992 100.287C48.2651 99.9016 46.5305 100.56 45.6843 101.888C44.9843 102.989 44.7612 104.752 45.8612 105.952C46.6497 106.811 47.9189 107.163 49.1612 106.883C49.0535 107.053 48.292 108.275 48.7805 109.69C49.242 111.022 50.5651 111.817 51.7728 111.847C53.4843 111.892 55.1728 110.402 55.3882 108.29C56.1843 109.615 57.6882 110.254 58.9689 109.898V109.895Z" fill="#FFBA57"/>
<path d="M65.4354 67.7241L62.3277 71.803L56.3969 75.916L54.9238 78.4171L55.2084 81.1717L59.2046 82.023L58.9084 84.5279L61.67 86.3593L64.4238 84.596L66.1161 87.5247L70.6084 87.0857L65.4354 67.7241Z" fill="#FFBA57"/>
<path d="M35.9299 25.8537C38.9263 25.5958 41.2297 23.9742 41.0748 22.2318C40.9198 20.4893 38.3652 19.2859 35.3688 19.5438C32.3724 19.8017 30.069 21.4233 30.2239 23.1657C30.3789 24.9082 32.9336 26.1116 35.9299 25.8537Z" fill="#2BE6AE"/>
<path d="M57.9603 24.4056C58.1251 22.664 55.8309 21.0298 52.8361 20.7554C49.8412 20.4811 47.2797 21.6705 47.1149 23.412C46.95 25.1536 49.2442 26.7878 52.2391 27.0622C55.234 27.3366 57.7954 26.1471 57.9603 24.4056Z" fill="#2BE6AE"/>
<path d="M65.3147 134.493L74.8762 129.04L74.0224 120.966L70.5916 118.926L68.4262 120.879L68.3839 122.252L65.8262 121.98L63.6301 124.205L63.7262 126.134L64.7762 127.175L63.3301 128.798L63.7262 133.384L65.3147 134.493Z" fill="#FFBA57"/>
<path d="M18.6842 115.854L23.5957 89.7234L10.3457 88.7056L12.0303 115.283L18.6842 115.854Z" fill="white"/>
<path d="M10.8809 97.1699L22.1039 97.6769L18.6847 115.854L12.0309 115.283L10.8809 97.1699Z" fill="#FF6A2F"/>
<path d="M72.9582 105.626C75.8389 104.605 76.312 102.944 76.312 102.944C78.2582 95.7886 72.9966 95.1567 72.9966 95.1567C72.4428 88.5843 74.6236 83.1016 74.6236 83.1016C74.6236 83.1016 92.8043 90.1697 86.9582 105.498C86.9582 105.498 85.012 109.459 81.8928 110.224L83.5774 111.136C85.1851 111.904 86.0274 113.398 86.0274 113.398C87.2389 115.525 84.2813 115.57 84.2813 115.57C82.3966 115.585 83.5005 116.55 83.5005 116.55C85.7389 118.208 84.2851 119.384 84.2851 119.384C83.6428 119.971 81.2851 119.8 81.2851 119.8C82.2236 120.376 82.0774 121.306 82.0774 121.306C81.562 122.824 77.4274 121.306 77.4274 121.306L74.362 119.687C75.5043 119.687 74.5082 113.13 72.0312 105.604L72.9543 105.626H72.9582Z" fill="white"/>
<path d="M22.2913 96.6626L21.7567 96.4507L20.6875 104.518C20.6875 104.518 23.4452 110.019 29.1644 109.705L30.6106 96.6664C27.2452 98.9442 22.2875 96.6664 22.2875 96.6664" fill="white"/>
<path d="M10.5687 105.312C18.1879 107.287 16.6303 103.874 16.6303 103.874C16.2764 102.921 17.2918 102.357 17.2918 102.357C19.0995 101.184 17.6879 100.102 17.6879 100.102C16.6726 99.4096 17.511 98.195 17.511 98.195C19.1879 96.4583 16.5418 95.8945 16.5418 95.8945C14.4687 95.4594 15.9226 93.8021 15.9226 93.8021C17.4649 90.8848 14.4226 91.4258 14.4226 91.4258C12.2187 91.6415 10.3379 92.701 10.3379 92.701C10.3379 92.701 5.67256 98.6567 10.5649 105.312H10.5687Z" fill="white"/>
<path d="M74.1917 47.1253C74.1225 47.1253 74.0532 47.1178 73.984 47.1026C73.4648 46.9891 73.1378 46.4859 73.2494 45.9751C75.8263 34.4307 74.6148 25.4026 69.6455 19.1442C62.9071 10.6534 51.4417 10.2334 51.3263 10.2296C41.734 9.89667 34.6648 12.2653 30.3032 17.2675C24.6494 23.7605 25.0917 32.9891 25.4686 36.2583C27.3648 35.494 31.3725 34.1848 37.0225 33.954C44.2571 33.6551 55.6725 35.161 68.984 44.0113C69.4225 44.3026 69.5378 44.8929 69.2417 45.3242C68.9455 45.7556 68.3455 45.8691 67.9071 45.5778C55.0801 37.0491 44.1378 35.5734 37.2186 35.8383C29.7263 36.1221 25.1917 38.4529 25.1494 38.4756C24.8801 38.6156 24.5571 38.6232 24.284 38.4945C24.0071 38.3659 23.8109 38.1161 23.7532 37.821C23.6494 37.2875 21.3032 24.6951 28.8455 16.0378C33.6032 10.574 41.1917 7.98586 51.3917 8.33775C51.8917 8.35289 63.8763 8.79559 71.1648 17.9788C76.4994 24.7026 77.834 34.2567 75.1301 46.3799C75.0301 46.8226 74.634 47.1215 74.1917 47.1215V47.1253Z" fill="black"/>
<path d="M68.9613 55.7334C68.4921 55.7334 68.0805 55.3966 68.0113 54.9237C67.9344 54.4053 68.2998 53.9247 68.8228 53.8491C69.1421 53.8037 69.4613 53.7129 69.7728 53.5804C70.7613 53.1604 71.5728 52.3053 71.9998 51.2383C73.6921 47.0042 72.8344 45.2107 72.0998 44.8172C71.1382 44.6242 70.4036 44.7377 69.8536 45.1577C68.719 46.0242 68.6459 47.9426 68.6421 47.9653C68.6267 48.4875 68.1767 48.8961 67.6536 48.881C67.1228 48.8658 66.7074 48.4345 66.719 47.9123C66.719 47.7988 66.8113 45.0934 68.6613 43.6707C69.6998 42.8723 71.0305 42.6453 72.6151 42.9896C72.6574 42.9972 72.6998 43.0123 72.7421 43.0275C72.8536 43.0691 73.8536 43.4626 74.4536 44.7869C75.2267 46.4858 75.0036 48.8923 73.7844 51.9307C73.169 53.4669 71.9844 54.7004 70.5305 55.321C70.0651 55.5177 69.5805 55.6539 69.0959 55.7258C69.0498 55.7334 69.0036 55.7372 68.9536 55.7372L68.9613 55.7334Z" fill="black"/>
<path d="M82.3993 109.664C81.9686 109.664 81.5763 109.376 81.4686 108.949C81.3416 108.442 81.6532 107.927 82.1686 107.802C84.6647 107.189 86.3916 103.984 86.5839 103.613C88.8378 97.6577 87.5686 92.3112 82.8147 87.7215C79.1801 84.2139 74.8186 82.4923 74.7763 82.4772C74.2839 82.2842 74.0416 81.7356 74.2339 81.2512C74.4301 80.7631 74.9878 80.5285 75.4801 80.7177C75.6724 80.7934 94.4686 88.3118 88.3647 104.329C88.3532 104.355 88.3416 104.382 88.3301 104.408C88.2416 104.586 86.1455 108.778 82.6339 109.641C82.557 109.66 82.4763 109.671 82.3993 109.671V109.664Z" fill="black"/>
<path d="M72.9577 106.573C72.5654 106.573 72.1961 106.334 72.0538 105.948C71.8731 105.456 72.1308 104.915 72.6308 104.737C74.9385 103.916 75.3769 102.717 75.3923 102.668C75.9961 100.447 75.9077 98.7099 75.1192 97.5369C74.2885 96.3034 72.9308 96.1028 72.8731 96.0953C72.35 96.0234 71.9808 95.5504 72.05 95.0358C72.1192 94.5212 72.5923 94.158 73.1154 94.2185C73.2077 94.2299 75.3654 94.5099 76.7 96.4547C77.8269 98.1007 78.0115 100.367 77.2423 103.19C77.1769 103.421 76.5346 105.362 73.2846 106.516C73.1769 106.554 73.0654 106.573 72.9577 106.573Z" fill="black"/>
<path d="M26.9581 98.6225C24.3274 98.6225 22.0312 97.5858 21.8851 97.5214C21.4043 97.302 21.1966 96.7382 21.4197 96.2652C21.6427 95.7922 22.2158 95.5879 22.6966 95.8074C22.7504 95.8301 27.2043 97.8241 30.0658 95.8868C30.5043 95.5917 31.1004 95.7014 31.4043 96.129C31.7043 96.5603 31.5966 97.1468 31.1581 97.4458C29.8466 98.3349 28.3543 98.6263 26.9581 98.6263V98.6225Z" fill="black"/>
<path d="M28.6853 110.663C22.7699 110.663 19.9469 105.176 19.8276 104.934C19.593 104.465 19.7892 103.897 20.2661 103.666C20.743 103.436 21.3161 103.629 21.5545 104.094C21.6584 104.302 24.1315 109.036 29.1161 108.756C29.6468 108.725 30.1007 109.126 30.1315 109.649C30.1622 110.171 29.7545 110.617 29.2238 110.648C29.043 110.659 28.8622 110.663 28.6853 110.663Z" fill="black"/>
<path d="M50.8145 54.4054C50.4068 54.4054 50.0414 54.36 49.7606 54.2918C48.3452 53.94 47.3722 53.0735 47.0914 51.9194C46.8414 50.8902 47.1875 49.7891 47.976 49.1118C49.526 47.7762 51.3645 47.7383 52.8029 48.1659C52.726 48.041 52.6337 47.9275 52.5337 47.8216C51.9722 47.2427 51.0452 47.0308 49.7799 47.1821C49.7606 47.1821 49.7452 47.1859 49.726 47.1859C49.7145 47.1859 48.8952 47.2918 48.1645 48.3589C47.8683 48.7902 47.2683 48.9037 46.8299 48.6124C46.3914 48.321 46.2722 47.7308 46.5722 47.2994C47.7683 45.5551 49.2645 45.3281 49.5645 45.3016C51.4606 45.0745 52.9299 45.4832 53.9337 46.52C55.676 48.321 55.176 51.2989 55.1529 51.4237C55.1452 51.4578 55.1375 51.4918 55.1299 51.5259C54.4645 53.7848 52.3337 54.4091 50.8145 54.4091V54.4054ZM51.176 49.8005C50.5529 49.8005 49.876 49.9859 49.2414 50.5346C48.9914 50.7502 48.876 51.1362 48.9606 51.4805C49.0722 51.9345 49.5222 52.2827 50.2337 52.4605C50.2568 52.4681 52.6799 52.8767 53.2645 51.0529C53.2875 50.9091 53.3029 50.7124 53.3106 50.4854C52.9375 50.2318 52.1183 49.8043 51.176 49.8043V49.8005Z" fill="black"/>
<path d="M32.4845 53.2817C32.0883 53.2817 31.7345 53.2401 31.4652 53.172C30.0883 52.8276 29.1422 51.9838 28.8691 50.8601C28.6268 49.8574 28.9653 48.779 29.7306 48.1206C31.2037 46.853 32.9422 46.7887 34.3229 47.1747C34.2614 47.0876 34.1922 47.0044 34.1191 46.9249C33.5845 46.3763 32.7037 46.172 31.496 46.3195C31.4768 46.3195 31.4614 46.3233 31.4422 46.3233C31.4345 46.3233 30.6576 46.4255 29.9653 47.4395C29.6691 47.8709 29.0691 47.9844 28.6306 47.693C28.1922 47.4017 28.0729 46.8114 28.3729 46.3801C29.5345 44.6925 30.9845 44.4693 31.2806 44.439C33.1191 44.2195 34.546 44.6168 35.5191 45.6233C37.2114 47.3714 36.7268 50.2547 36.7037 50.3795C36.696 50.4136 36.6883 50.4476 36.6806 50.4817C36.0306 52.6763 33.9653 53.2817 32.4883 53.2817H32.4845ZM32.8383 48.8433C32.246 48.8433 31.5999 49.0211 30.996 49.5395C30.8076 49.7022 30.646 50.0466 30.7383 50.4174C30.8422 50.8411 31.2691 51.1665 31.9383 51.3368C31.9614 51.3406 34.2614 51.7303 34.8152 50.0049C34.8345 49.8725 34.8537 49.6909 34.8576 49.4828C34.4999 49.2406 33.7229 48.8433 32.8383 48.8433Z" fill="black"/>
<path d="M35.1149 26.8367C31.9456 26.8367 29.4495 25.3534 29.261 23.2497C29.0572 20.9529 31.7033 18.9134 35.2803 18.6032C36.8995 18.4632 38.4687 18.7053 39.6995 19.288C41.0956 19.9464 41.9226 20.9643 42.0303 22.1524C42.1341 23.3405 41.4995 24.4832 40.2418 25.3724C39.1303 26.1518 37.6303 26.6589 36.011 26.7989C35.7072 26.8253 35.411 26.8367 35.1149 26.8367ZM36.1572 20.4572C35.9226 20.4572 35.6841 20.4686 35.4495 20.4875C32.8149 20.7145 31.0841 22.0389 31.1764 23.0832C31.2687 24.1313 33.211 25.1378 35.8418 24.9107C37.1033 24.801 38.2995 24.4075 39.1226 23.8286C39.7956 23.3556 40.1572 22.8032 40.1149 22.3113C40.0726 21.8232 39.6187 21.3389 38.8687 20.987C38.1303 20.6389 37.1687 20.4497 36.1572 20.4497V20.4572Z" fill="black"/>
<path d="M53.0965 28.0477C52.785 28.0477 52.4696 28.0326 52.1542 28.0061C50.535 27.8585 49.0388 27.3439 47.9311 26.5569C46.6773 25.6639 46.0465 24.5174 46.1619 23.3293C46.2773 22.1412 47.108 21.1272 48.508 20.4764C49.7426 19.905 51.3119 19.6704 52.9311 19.818C54.5503 19.9655 56.0465 20.4801 57.1542 21.2672C58.408 22.1601 59.0388 23.3066 58.9234 24.4947C58.808 25.6828 57.9773 26.6969 56.5773 27.3477C55.585 27.8093 54.3773 28.0477 53.1003 28.0477H53.0965ZM51.9926 21.6645C51.0003 21.6645 50.0542 21.8461 49.3234 22.1866C48.5734 22.5347 48.1157 23.0153 48.0696 23.5034C48.0234 23.9915 48.3811 24.5477 49.0542 25.0245C49.8734 25.6072 51.0657 26.0082 52.3273 26.1218C53.5888 26.2353 54.835 26.0612 55.7503 25.6374C56.5003 25.2893 56.958 24.8088 57.0042 24.3207C57.0503 23.8326 56.6926 23.2764 56.0196 22.7996C55.2003 22.2169 54.008 21.8158 52.7465 21.7023C52.4926 21.6796 52.2426 21.6682 51.9926 21.6682V21.6645Z" fill="black"/>
<path d="M47.3317 23.6468C47.1933 23.6468 47.0509 23.6166 46.9163 23.5523C44.6548 22.4814 41.3048 23.1512 41.274 23.1587C40.7509 23.2647 40.2433 22.9393 40.1356 22.4285C40.0279 21.9177 40.3586 21.4182 40.8779 21.3085C41.0394 21.2744 44.8933 20.4987 47.7509 21.8495C48.2279 22.0766 48.4317 22.6404 48.2009 23.1133C48.0356 23.4539 47.6933 23.6506 47.3317 23.6506V23.6468Z" fill="black"/>
<path d="M75.2877 40.5077C74.8915 40.5077 74.5184 40.2618 74.38 39.872C70.6954 29.4477 59.6377 25.6147 57.9415 25.3499C57.5223 25.3423 57.1454 25.0623 57.0338 24.6461C56.8992 24.1428 57.2031 23.6245 57.7184 23.4882C58.4761 23.2877 62.3531 24.6536 65.6877 26.7045C69.23 28.8839 73.93 32.8304 76.1954 39.2477C76.3684 39.7396 76.1031 40.2807 75.6031 40.4509C75.4992 40.485 75.3915 40.5039 75.2877 40.5039V40.5077Z" fill="black"/>
<path d="M24.7612 28.2407C24.6304 28.2407 24.4958 28.2142 24.3689 28.1575C23.8843 27.9418 23.6689 27.3818 23.8843 26.9088C25.5612 23.2348 29.8343 22.285 30.015 22.2472C30.5343 22.1337 31.0458 22.4591 31.1573 22.9699C31.2689 23.4807 30.942 23.984 30.4227 24.0937C30.3843 24.1013 26.9073 24.8959 25.6343 27.6845C25.4727 28.0364 25.1227 28.2445 24.7573 28.2445L24.7612 28.2407Z" fill="black"/>
<path d="M18.6879 116.8C18.6609 116.8 18.6302 116.8 18.6032 116.8L11.9456 116.229C11.4763 116.187 11.1032 115.816 11.0686 115.355L10.4225 106.391C10.384 105.869 10.784 105.418 11.3148 105.38C11.8456 105.343 12.3032 105.736 12.3417 106.258L12.9302 114.416L17.8994 114.844L22.4609 90.5783L11.9456 89.6551C11.4148 89.6097 11.0263 89.148 11.0725 88.6297C11.1186 88.1075 11.5879 87.7253 12.1148 87.7708L23.684 88.7886C23.9532 88.8113 24.1994 88.9475 24.3648 89.1594C24.5302 89.3713 24.5956 89.6399 24.5456 89.9048L19.634 116.036C19.5494 116.486 19.1494 116.811 18.6879 116.811V116.8Z" fill="black"/>
<path d="M14.4378 106.879C13.3532 106.879 11.9917 106.663 10.3224 106.228C9.81089 106.096 9.50319 105.577 9.63781 105.074C9.77242 104.571 10.2993 104.268 10.8109 104.4C14.984 105.483 15.7186 104.73 15.7493 104.696C15.8532 104.582 15.7724 104.31 15.7493 104.249C15.7455 104.238 15.734 104.211 15.7301 104.2C15.3032 103.042 15.9724 102.024 16.7878 101.555C17.1609 101.309 17.2532 101.131 17.2532 101.09C17.2532 101.044 17.1763 100.923 17.0993 100.851C15.834 99.947 16.1724 98.4562 16.7186 97.6653C16.7493 97.6237 16.7801 97.5821 16.8186 97.5443C17.007 97.3475 17.0763 97.2227 17.0993 97.1659C16.984 97.0486 16.6301 96.8821 16.3378 96.8178C15.1647 96.5718 14.7224 95.9589 14.5647 95.4897C14.2378 94.5324 14.857 93.6129 15.1186 93.2799C15.3917 92.7389 15.407 92.4778 15.4032 92.3945C15.257 92.3226 14.8493 92.3075 14.5993 92.3529C14.5763 92.3567 14.5493 92.3605 14.5263 92.3643C12.5647 92.5572 10.8417 93.5108 10.8224 93.5221C10.3609 93.7794 9.77627 93.6243 9.51089 93.1702C9.24935 92.7162 9.40704 92.141 9.86858 91.8799C9.95319 91.8345 11.934 90.7297 14.2993 90.4875C14.6917 90.4232 16.1993 90.2567 16.9647 91.2745C17.5032 91.9935 17.4417 92.9924 16.784 94.2372C16.7493 94.3016 16.707 94.3621 16.657 94.4189C16.5532 94.5437 16.4417 94.7405 16.407 94.8578C16.4647 94.8881 16.5686 94.9297 16.7493 94.9675C17.0532 95.0318 18.5801 95.414 18.957 96.621C19.1109 97.1091 19.1109 97.8735 18.2878 98.7702C18.2224 98.8875 18.0647 99.2016 18.2455 99.3264C18.2609 99.3378 18.2763 99.3453 18.2878 99.3567C18.384 99.4286 19.2224 100.106 19.1801 101.162C19.1493 101.918 18.6955 102.584 17.8263 103.148C17.807 103.159 17.7878 103.171 17.7724 103.182C17.7532 103.193 17.4878 103.36 17.5378 103.538C17.7609 104.064 17.9263 105.104 17.2263 105.914C16.6724 106.557 15.7609 106.875 14.4455 106.875L14.4378 106.879Z" fill="black"/>
<path d="M9.56512 104.684C9.21128 104.684 8.86897 104.491 8.69974 104.155C5.72666 98.1989 8.65358 94.0708 8.78051 93.8967C9.09204 93.4729 9.69204 93.3745 10.1228 93.681C10.5536 93.9837 10.6536 94.574 10.3459 94.9978C10.2382 95.1491 7.98435 98.4335 10.4267 103.322C10.6613 103.791 10.4651 104.359 9.9882 104.59C9.85358 104.654 9.70743 104.688 9.56512 104.688V104.684Z" fill="black"/>
<path d="M16.5313 90.0487C16.0621 90.0487 15.6544 89.7119 15.5813 89.2427L14.3198 80.9487C14.2583 80.5551 14.4544 80.1692 14.8083 79.98L19.2352 77.5887C19.7006 77.3389 20.2852 77.5054 20.5429 77.9632C20.7967 78.4211 20.6275 78.9962 20.1621 79.2497L16.3236 81.3233L17.489 88.9665C17.5698 89.4849 17.2044 89.9654 16.6813 90.0411C16.6313 90.0487 16.5852 90.0524 16.539 90.0524L16.5313 90.0487Z" fill="black"/>
<path d="M80.6309 122.922C79.1732 122.922 77.504 122.343 77.0925 122.192C76.5963 122.01 76.3425 121.465 76.5271 120.977C76.7117 120.489 77.2655 120.239 77.7617 120.421C79.0732 120.901 80.604 121.155 81.104 120.996C81.0694 120.883 80.9809 120.731 80.7771 120.606C80.4001 120.376 80.2348 119.925 80.3694 119.509C80.504 119.097 80.9117 118.828 81.354 118.858C82.3001 118.926 83.3963 118.836 83.654 118.673C83.6617 118.665 83.7963 118.537 83.7886 118.363C83.7809 118.26 83.704 117.882 82.9232 117.303C82.904 117.288 82.8809 117.273 82.8617 117.254C82.4232 116.872 82.0463 116.228 82.2963 115.57C82.654 114.632 83.8732 114.624 84.2732 114.62C84.7425 114.609 85.2771 114.439 85.3617 114.314C85.3617 114.314 85.3732 114.178 85.1886 113.856C85.1809 113.845 84.4578 112.604 83.154 111.983C82.6771 111.756 82.4771 111.188 82.7078 110.719C82.9386 110.25 83.5155 110.053 83.9925 110.28C85.854 111.17 86.8232 112.861 86.8655 112.933C87.4848 114.019 87.2925 114.794 87.0232 115.256C86.5309 116.096 85.5078 116.372 84.8463 116.467C85.404 117.061 85.6925 117.685 85.704 118.332C85.7271 119.32 85.0848 119.944 84.9194 120.088C84.4771 120.481 83.7348 120.659 83.004 120.731C83.054 121.007 83.0501 121.261 83.0232 121.45C83.0155 121.503 83.0001 121.556 82.9848 121.605C82.8232 122.074 82.4886 122.441 82.0117 122.665C81.6155 122.85 81.1348 122.922 80.6232 122.922H80.6309Z" fill="black"/>
<path d="M52.4271 141.323C52.2771 141.323 52.1232 141.289 51.9848 141.217L30.3309 130.202C30.0425 130.055 29.8463 129.775 29.8155 129.457C29.8078 129.385 29.0925 122.237 29.2963 112.978C29.4809 104.404 30.5155 92.2016 34.3694 82.7459C34.5655 82.2616 35.1271 82.027 35.6194 82.2199C36.1117 82.4129 36.3501 82.9654 36.154 83.4497C29.504 99.7578 31.3501 124.882 31.6848 128.757L52.4348 139.31L73.6848 128.81C73.6271 124.568 72.9771 97.8697 65.6963 70.8951C65.5617 70.3918 65.8655 69.8735 66.3771 69.7372C66.8886 69.601 67.4155 69.9037 67.554 70.407C75.5194 99.9167 75.6117 129.097 75.6117 129.389C75.6117 129.748 75.4078 130.073 75.0809 130.232L52.8578 141.213C52.7232 141.281 52.5732 141.315 52.4271 141.315V141.323Z" fill="black"/>
<path d="M39.9339 180.209C39.5531 180.209 39.1916 179.985 39.0416 179.615C33.6262 166.303 29.8147 134.406 29.657 133.055C29.5954 132.537 29.9724 132.068 30.4993 132.007C31.0262 131.946 31.5031 132.317 31.5647 132.836C31.6031 133.165 35.5031 165.838 40.8262 178.911C41.0224 179.395 40.7839 179.947 40.2916 180.14C40.1762 180.186 40.0531 180.209 39.9339 180.209Z" fill="black"/>
<path d="M50.0426 184.14C49.5465 184.14 49.1273 183.765 49.085 183.27C49.0657 183.02 48.6157 176.958 50.9157 156.496C50.9734 155.977 51.4503 155.603 51.9773 155.659C52.5042 155.716 52.885 156.185 52.8273 156.704C50.558 176.902 50.9965 183.062 51.0042 183.118C51.0465 183.641 50.6503 184.095 50.1196 184.136C50.0926 184.136 50.0696 184.136 50.0426 184.136V184.14Z" fill="black"/>
<path d="M63.726 182.377C63.3606 182.377 63.0144 182.173 62.8529 181.825C54.8567 164.646 51.5067 140.744 51.4721 140.506C51.399 139.987 51.7683 139.51 52.2952 139.442C52.8221 139.374 53.3067 139.734 53.376 140.252C53.4067 140.49 56.726 164.116 64.599 181.038C64.8183 181.514 64.6067 182.074 64.126 182.29C63.9952 182.347 63.8606 182.377 63.726 182.377Z" fill="black"/>
<path d="M74.4568 184.37C73.9607 184.37 73.5414 183.996 73.4991 183.5C71.9568 164.608 73.6682 129.642 73.6874 129.332C73.7259 128.81 74.1874 128.42 74.7143 128.458C75.2451 128.495 75.6413 128.95 75.6028 129.468C75.5797 129.774 73.8799 164.6 75.4107 183.349C75.453 183.871 75.0568 184.325 74.5299 184.366C74.503 184.366 74.476 184.366 74.453 184.366L74.4568 184.37Z" fill="black"/>
<path d="M48.7238 78.33C43.043 78.33 38.5776 76.3171 38.4969 76.283C38.0161 76.0598 37.8084 75.496 38.0353 75.023C38.2623 74.55 38.8353 74.3457 39.3161 74.569C39.8699 74.8225 52.6969 80.5587 61.793 70.9933C62.1546 70.6111 62.7623 70.5922 63.1507 70.9479C63.5392 71.3035 63.5584 71.9052 63.1969 72.2835C58.6969 77.0133 53.3161 78.3263 48.7276 78.3263L48.7238 78.33Z" fill="black"/>
<path d="M74.6732 187.769C72.7386 187.769 67.1847 187.485 63.1424 184.45C62.7193 184.133 62.6386 183.538 62.9616 183.126C63.2847 182.71 63.8886 182.63 64.3078 182.948C68.6001 186.172 75.1886 185.869 75.254 185.865C75.7847 185.835 76.2347 186.236 76.2655 186.758C76.2924 187.281 75.8886 187.723 75.3578 187.754C75.3078 187.754 75.0655 187.769 74.6693 187.769H74.6732Z" fill="black"/>
<path d="M45.5198 193.921C45.1775 193.921 44.8506 193.743 44.6737 193.429C44.4198 192.972 44.5929 192.396 45.0583 192.147L60.639 183.785C61.1044 183.535 61.689 183.705 61.9429 184.163C62.1967 184.621 62.0237 185.196 61.5583 185.446L45.9775 193.808C45.8313 193.887 45.6737 193.925 45.5198 193.925V193.921Z" fill="black"/>
<path d="M72.8646 199.926H47.1031C47.0723 199.926 47.0415 199.926 47.0146 199.922C46.6915 199.892 43.8108 199.574 42.6223 197.599C41.9761 196.528 41.9761 195.245 42.6146 193.789C42.8261 193.308 43.3915 193.089 43.88 193.293C44.3685 193.501 44.5915 194.057 44.3838 194.538C43.9954 195.42 43.9646 196.104 44.28 196.634C44.8569 197.591 46.5492 197.97 47.1569 198.034H72.7646C73.4838 197.868 74.0338 197.482 74.4454 196.857C75.7761 194.848 75.2992 190.898 75.0031 189.547C74.8915 189.036 75.2223 188.533 75.7377 188.423C76.2569 188.314 76.7685 188.635 76.88 189.146C76.93 189.377 78.0954 194.799 76.0569 197.887C75.3415 198.969 74.3338 199.646 73.0608 199.907C72.9954 199.918 72.93 199.926 72.8646 199.926Z" fill="black"/>
<path d="M49.9583 187.769C48.0237 187.769 42.4699 187.485 38.4276 184.45C38.0045 184.133 37.9237 183.538 38.2468 183.126C38.5699 182.71 39.1737 182.63 39.593 182.948C43.8853 186.172 50.4737 185.869 50.5391 185.865C51.0699 185.835 51.5237 186.236 51.5506 186.758C51.5776 187.281 51.1737 187.723 50.643 187.754C50.593 187.754 50.3507 187.769 49.9545 187.769H49.9583Z" fill="black"/>
<path d="M20.803 193.921C20.4607 193.921 20.1338 193.743 19.9569 193.429C19.703 192.972 19.8761 192.396 20.3415 192.147L35.9222 183.785C36.3876 183.535 36.9722 183.705 37.2261 184.163C37.4799 184.621 37.3069 185.196 36.8415 185.446L21.2607 193.808C21.1145 193.887 20.9569 193.925 20.803 193.925V193.921Z" fill="black"/>
<path d="M44.7958 199.926H22.0035C21.9727 199.926 21.9419 199.926 21.915 199.922C21.5919 199.892 18.7112 199.574 17.5227 197.599C16.8765 196.528 16.8765 195.246 17.515 193.789C17.7265 193.308 18.2919 193.089 18.7804 193.293C19.2688 193.501 19.4919 194.057 19.2842 194.538C18.8996 195.42 18.865 196.104 19.1804 196.63C19.7535 197.588 21.415 197.962 22.0612 198.034H44.8035C45.3342 198.034 45.765 198.458 45.765 198.98C45.765 199.502 45.3342 199.926 44.8035 199.926H44.7958Z" fill="black"/>
<path d="M64.7505 68.886C64.6159 68.886 64.4813 68.8595 64.3505 68.799C63.8659 68.5833 63.6544 68.0195 63.8736 67.5465C64.5967 65.9876 65.5428 62.6957 66.5428 58.2725C66.6582 57.7617 67.1697 57.44 67.689 57.5535C68.2082 57.6671 68.5351 58.1703 68.4197 58.6811C67.6928 61.8973 66.6197 66.1806 65.6236 68.3298C65.462 68.6779 65.112 68.8822 64.7467 68.8822L64.7505 68.886Z" fill="black"/>
<path d="M76.747 79.9268C76.7124 79.9268 76.6778 79.9268 76.6432 79.923C76.1163 79.8663 75.7355 79.4008 75.7932 78.8787C77.1893 66.3014 73.9586 53.7922 73.9239 53.6673C73.7893 53.1603 74.1009 52.6457 74.6124 52.5133C75.1239 52.3808 75.6509 52.6873 75.7855 53.1906C75.9239 53.7127 79.1393 66.15 77.7047 79.083C77.6509 79.5673 77.2355 79.9268 76.7509 79.9268H76.747Z" fill="black"/>
<path d="M29.1649 87.0028C28.7803 87.0028 28.4149 86.7757 28.2688 86.4011C24.338 76.4649 24.8572 66.5703 24.8803 66.1541C24.9111 65.632 25.3649 65.2384 25.8957 65.2649C26.4265 65.2952 26.8303 65.7417 26.7995 66.2639C26.7957 66.3622 26.2842 76.1774 30.0572 85.7163C30.2495 86.2044 30.0034 86.753 29.5111 86.9422C29.3957 86.9876 29.2803 87.0066 29.1611 87.0066L29.1649 87.0028Z" fill="black"/>
<path d="M34.0997 127.247C32.8151 127.247 31.1805 126.717 29.7728 124.587C29.4843 124.148 29.6112 123.562 30.0535 123.278C30.4997 122.994 31.0958 123.119 31.3843 123.554C33.0689 126.104 34.9805 125.268 35.3074 125.098C36.4805 124.277 36.1343 123.335 35.9997 123.062C35.8574 122.782 35.8651 122.442 36.0228 122.173C36.1805 121.904 36.4612 121.715 36.7766 121.692C38.4497 121.56 38.7612 120.368 38.7881 120.232C38.9074 119.49 38.7997 118.877 38.4612 118.45C37.9151 117.757 36.892 117.655 36.8843 117.655C36.4535 117.617 36.0997 117.296 36.0228 116.876C35.9458 116.456 36.1612 116.039 36.5535 115.858C38.4574 114.969 38.192 113.641 38.0766 113.285C37.8074 112.785 37.4766 112.487 37.0612 112.373C36.2958 112.165 35.3305 112.611 35.0266 112.801C34.7381 112.982 34.3689 112.997 34.0651 112.842C33.7612 112.687 33.5612 112.384 33.5458 112.048C33.492 110.909 33.2228 110.148 32.8112 109.959C32.2343 109.698 31.0535 110.303 30.5497 110.685C30.1305 111.003 29.5266 110.928 29.1997 110.515C28.8766 110.103 28.9535 109.509 29.3728 109.187C29.6151 109.002 31.792 107.409 33.6189 108.237C34.4689 108.623 35.0305 109.422 35.2997 110.621C35.9381 110.432 36.742 110.318 37.5612 110.538C38.2305 110.716 39.1689 111.2 39.8266 112.479C39.842 112.509 39.8535 112.536 39.8651 112.566C40.1997 113.421 40.3035 115.075 39.0151 116.422C39.3497 116.63 39.6805 116.902 39.9689 117.258C40.6612 118.121 40.8997 119.229 40.6881 120.557C40.5343 121.371 39.7997 122.797 38.0535 123.357C38.1612 124.368 37.8497 125.669 36.3651 126.676C36.3458 126.687 36.3266 126.702 36.3074 126.714C36.2881 126.725 35.3651 127.243 34.0997 127.243V127.247Z" fill="black"/>
<path d="M51.8502 112.793C51.8155 112.793 51.7809 112.793 51.7463 112.793C50.0155 112.748 48.4232 111.597 47.8694 109.997C47.6002 109.217 47.6155 108.491 47.7425 107.893C46.7386 107.768 45.8155 107.318 45.1502 106.591C43.6963 105.006 43.9886 102.785 44.8732 101.392C45.5425 100.337 46.6348 99.6254 47.8771 99.3567C47.4271 98.4865 47.2848 97.4876 47.5194 96.5265C48.0463 94.3811 50.2232 93.3065 52.0117 93.3822C53.9732 93.4692 55.6463 94.8957 56.2732 96.833C56.6002 96.7119 56.9655 96.6211 57.3732 96.5832C58.8463 96.447 60.7117 97.0676 61.5579 98.7476C62.3117 100.242 61.7655 101.695 61.6502 101.971C61.354 102.664 60.9079 103.163 60.4348 103.519C61.0271 103.984 61.5579 104.624 61.8348 105.468C62.2002 106.591 62.0732 107.897 61.4925 108.964C60.9886 109.887 60.1848 110.542 59.2348 110.806C58.0771 111.128 56.8386 110.863 55.8425 110.156C55.0694 111.73 53.5463 112.793 51.854 112.793H51.8502ZM49.1617 105.941C49.4694 105.941 49.7655 106.088 49.9463 106.342C50.1694 106.656 50.1809 107.068 49.9732 107.394C49.8694 107.556 49.3579 108.426 49.6886 109.388C50.0232 110.356 51.0002 110.882 51.7925 110.901C52.9232 110.931 54.2502 109.902 54.4271 108.192C54.4694 107.787 54.7732 107.45 55.1771 107.363C55.5809 107.276 56.0002 107.454 56.2117 107.806C56.7694 108.733 57.8194 109.229 58.704 108.986C59.2732 108.828 59.6079 108.4 59.7886 108.071C60.1232 107.458 60.204 106.682 59.9963 106.046C59.5771 104.764 58.004 104.389 57.9886 104.385C57.5348 104.283 57.2194 103.875 57.2425 103.417C57.2655 102.959 57.6155 102.584 58.0771 102.524C58.1271 102.516 59.404 102.327 59.8694 101.237C59.9079 101.15 60.2194 100.363 59.8309 99.5838C59.3925 98.7097 58.3348 98.3919 57.5463 98.4638C56.9348 98.5205 56.4732 98.8081 56.1886 99.0427C55.9079 99.2735 55.5194 99.3303 55.1809 99.1865C54.8463 99.0427 54.6232 98.7211 54.6079 98.3616C54.5386 96.7195 53.3309 95.3308 51.9194 95.2703C51.0502 95.2324 49.6848 95.7319 49.3809 96.9692C49.1502 97.9038 49.604 98.9216 50.5079 99.4968C50.9002 99.7465 51.0502 100.235 50.8694 100.658C50.6886 101.082 50.2232 101.317 49.7694 101.211C48.4463 100.916 47.1271 101.389 46.4925 102.391C46.0617 103.065 45.7271 104.404 46.5655 105.32C47.1155 105.922 48.0271 106.168 48.9386 105.963C49.0117 105.948 49.0809 105.941 49.154 105.941H49.1617Z" fill="black"/>
<path d="M67.4962 88.8683C66.8731 88.8683 66.3039 88.7245 65.7923 88.4407C65.0039 87.998 64.5193 87.2942 64.2231 86.6283C62.5462 87.7331 60.6885 87.3018 59.7808 86.8023C58.4577 86.0569 58.0116 85.0769 57.8693 84.3845C57.7693 83.8888 57.7885 83.4083 57.8693 82.9618C56.4231 83.0753 55.1808 82.4207 54.5654 81.8834C54.5308 81.8531 54.5 81.8229 54.4731 81.7926C53.5462 80.7218 53.1693 79.6056 53.3577 78.4742C53.6731 76.5634 55.4693 75.4472 55.6731 75.3261C56.127 75.0575 56.7193 75.1975 56.9923 75.6477C57.2654 76.0942 57.1231 76.6732 56.6693 76.9456C56.3231 77.1575 55.3962 77.8953 55.2539 78.7883C55.1654 79.3369 55.3731 79.9007 55.8885 80.5137C56.177 80.7407 57.5462 81.6829 59.0731 80.5364C59.4577 80.2488 59.9962 80.2867 60.3347 80.6234C60.6731 80.9602 60.7116 81.4899 60.4154 81.8683C60.1731 82.1861 59.577 83.1964 59.75 84.0326C59.8424 84.4829 60.1616 84.8575 60.7231 85.1715C61.0193 85.3267 62.6347 86.0569 63.9424 84.2937C64.1808 83.9721 64.5962 83.8321 64.9847 83.9418C65.3731 84.0515 65.65 84.3845 65.6808 84.7818C65.7154 85.2018 65.977 86.3899 66.7462 86.8137C67.4808 87.2186 68.5693 86.844 69.3577 86.458C69.8308 86.2272 70.4116 86.4164 70.6462 86.8818C70.8847 87.351 70.6885 87.9186 70.2154 88.1494C69.2193 88.6375 68.3116 88.8834 67.4962 88.8834V88.8683Z" fill="black"/>
<path d="M64.0803 133.888C63.8226 133.888 63.5649 133.785 63.3764 133.585C62.1264 132.261 61.6264 130.948 61.8841 129.676C62.0764 128.73 62.6649 128.023 63.2303 127.538C62.238 126.339 62.3995 124.765 62.7149 123.914C63.1841 122.23 64.1418 121.534 64.8687 121.25C65.9149 120.837 67.0264 121.027 67.8495 121.299C68.1649 120.02 68.7611 119.146 69.6303 118.699C70.7187 118.143 72.0687 118.31 73.6457 119.199L73.6803 119.218C73.9303 119.328 74.1264 119.536 74.2111 119.816C74.3611 120.315 74.0726 120.841 73.5611 120.992C73.1611 121.11 72.8649 120.943 72.6918 120.845C71.4803 120.164 70.8418 120.217 70.5187 120.383C70.0149 120.641 69.6726 121.484 69.5572 122.759C69.5264 123.085 69.3264 123.372 69.0303 123.52C68.7341 123.668 68.3803 123.652 68.0957 123.478C67.688 123.236 66.4303 122.672 65.5764 123.009C65.1072 123.195 64.7687 123.679 64.5611 124.447C64.5534 124.481 64.5418 124.511 64.5303 124.542C64.438 124.795 64.0187 126.123 65.2841 126.774C65.6111 126.941 65.8111 127.277 65.7995 127.637C65.788 127.996 65.5726 128.322 65.238 128.473C64.888 128.632 63.938 129.234 63.7726 130.058C63.6457 130.698 63.988 131.451 64.7918 132.298C65.1534 132.681 65.1303 133.278 64.7418 133.634C64.5572 133.804 64.3226 133.888 64.088 133.888H64.0803ZM73.1149 119.154C73.0841 119.157 73.0534 119.165 73.0226 119.176C73.0534 119.169 73.0841 119.161 73.1149 119.154Z" fill="black"/>
<path d="M37.9074 43.3871C37.4651 43.3871 37.0651 43.0844 36.9689 42.6379C36.8574 42.1271 37.1881 41.6238 37.7074 41.5141C41.5112 40.7119 44.2112 35.5546 44.2381 35.5017C44.4766 35.0363 45.0574 34.8509 45.5304 35.0854C46.0035 35.32 46.1958 35.8876 45.9535 36.3568C45.8266 36.6027 42.8189 42.373 38.1074 43.3644C38.0381 43.3795 37.9727 43.3871 37.9035 43.3871H37.9074Z" fill="black"/>
<path d="M43.8496 68.6701C43.5073 68.6701 43.1727 68.4885 42.9996 68.1707C42.7496 67.709 42.9266 67.1377 43.3958 66.8917C44.4419 66.3431 45.0958 65.7188 45.2804 65.0907C45.2881 65.068 45.2919 65.0453 45.2996 65.0226C43.2496 65.8739 41.965 65.9761 41.2073 65.3707C40.6458 64.9242 40.5804 64.2545 40.6919 63.8193C40.7266 63.6869 40.7881 63.5658 40.8727 63.4599C41.4842 62.7107 41.8381 62.1696 42.0458 61.795C40.4919 62.0788 39.4496 62.0145 38.8112 61.6058C38.3804 61.3296 38.2535 60.9739 38.215 60.7999C37.2073 56.0853 38.7804 52.6193 38.8458 52.4717C39.065 51.995 39.6381 51.7869 40.1189 52.0026C40.5996 52.2182 40.815 52.7782 40.5958 53.255C40.5727 53.3042 39.3035 56.1723 40.0227 60.0544C40.3342 60.0999 41.115 60.115 42.815 59.6874C42.9804 59.6458 43.1535 59.6496 43.3189 59.695C43.6304 59.782 44.0189 60.0545 44.1842 60.5615C44.4342 61.3372 44.0766 62.355 43.0266 63.7966C43.5189 63.6869 44.3266 63.422 45.6073 62.809C46.0496 62.5972 46.5804 62.7485 46.8419 63.1572C46.9112 63.2631 47.5035 64.2431 47.1496 65.5523C46.8304 66.729 45.8727 67.7431 44.3035 68.568C44.1612 68.6436 44.0035 68.6777 43.8535 68.6777L43.8496 68.6701ZM40.0919 60.4063C40.0919 60.4063 40.0958 60.4328 40.0996 60.4442C40.0996 60.4328 40.0958 60.4177 40.0919 60.4063Z" fill="black"/>
</svg>
