<svg width="100" height="210" viewBox="0 0 100 210" fill="none" xmlns="http://www.w3.org/2000/svg">
<path d="M23.9355 41.7761L25.0009 48.9728L26.7471 52.5598H28.4394L32.1432 61.7469L39.8279 71.6982L53.0355 76.1177L63.9086 70.9263L69.4048 64.0966C70.5932 64.0928 72.2702 34.8025 71.2471 30.9317C70.2548 27.182 36.4971 34.0685 36.4971 34.0685L23.9432 41.7685L23.9355 41.7761Z" fill="white"/>
<path d="M55.0383 184.667L53.2383 192.995L54.1767 200.237L84.2921 199.783L84.8844 195.273L81.9421 190.918L72.7614 185.484L55.0383 184.667Z" fill="#2BE6AE"/>
<path d="M24.9465 184.667L23.1465 192.995L24.0849 200.237L54.2003 199.783L54.7926 195.273L51.8503 190.918L42.6696 185.484L24.9465 184.667Z" fill="#2BE6AE"/>
<path d="M19.8075 123.343L19.3383 161.476L20.2729 170.625L17.6152 171.341V185.753L52.8768 184.989H78.1191V172.34H69.6998C69.6998 172.34 72.8998 127.691 71.2383 122.916C69.5768 118.144 20.0614 118.031 19.8037 123.343H19.8075Z" fill="#F8B3FF"/>
<path d="M44.4267 5.00184C44.4267 5.00184 20.9767 10.8251 19.8075 20.1521C18.6382 29.4791 15.7229 32.5289 17.8498 36.1764C17.8498 36.1764 19.3113 42.7186 22.7152 44.4932C22.7152 44.4932 40.119 32.3094 50.5613 32.2413C50.5613 32.2413 70.719 30.8981 72.4959 33.2591C72.4959 33.2591 75.2844 26.7094 74.0921 22.7478C74.0921 22.7478 69.7921 0.480215 44.4306 4.99805L44.4267 5.00184Z" fill="#2BE6AE"/>
<path d="M39.0532 35.0864C39.0532 35.0864 36.6494 36.9935 36.7994 39.7707C36.9494 42.5443 37.6225 43.8156 37.6225 43.8156L30.8763 46.6497C30.8763 46.6497 28.7032 42.4951 26.4532 46.6497H25.1494L22.7109 44.4929L39.0494 35.0864H39.0532Z" fill="#FFF080"/>
<path d="M53.0353 76.1254L41.8161 71.5206L33.0546 63.533L31.3123 60.1352C31.3123 60.1352 26.343 59.5865 25.0007 64.9103L23.3123 68.1227C23.3123 68.1227 16.0046 72.266 15.9777 72.2925C15.9507 72.3189 7.61227 81.5287 10.1507 94.4692L14.8507 105.117L16.6161 106.35L15.9777 112.155V119.332L16.6161 122.848L26.4661 124.959L48.0661 125.746L71.2392 122.916L73.293 105.499L78.393 99.32L81.7623 92.4222L82.7276 83.2238L79.4815 77.0941L73.3007 70.8281C73.3007 70.8281 75.6315 64.6871 71.8392 64.5735C68.0469 64.46 65.9084 65.4514 64.543 67.7935C63.1776 70.1357 53.0315 76.1254 53.0315 76.1254H53.0353Z" fill="#67A9F9"/>
<path d="M43.3301 99.248L43.8839 102.268L43.5724 120.369L51.3185 121.039L56.6685 100.83L43.3301 99.248Z" fill="#FF6A2F"/>
<path d="M43.8838 94.7681V102.268L43.5723 120.369L51.3184 121.039L57.2184 96.3535L43.8838 94.7681Z" fill="white"/>
<path d="M47.7654 102.514L56 103.354L51.8077 121.255L43.5 120.396L43.8846 102.268L49.5846 103.354" fill="#FF6A2F"/>
<path d="M38.9076 103.353L38.3691 112.809L44.423 115.617L46.423 115.969L47.3807 113.906L48.7768 112.385L48.623 109.661L49.5845 107.864L47.7807 105.499L49.1807 102.513L47.723 101.961L38.9076 103.353Z" fill="white"/>
<path d="M48.6685 47.4136C50.5845 47.4136 52.1377 46.448 52.1377 45.2569C52.1377 44.0657 50.5845 43.1001 48.6685 43.1001C46.7524 43.1001 45.1992 44.0657 45.1992 45.2569C45.1992 46.448 46.7524 47.4136 48.6685 47.4136Z" fill="white"/>
<path d="M48.6694 47.603C46.6501 47.603 45.0078 46.5511 45.0078 45.2571C45.0078 43.963 46.6501 42.9111 48.6694 42.9111C50.6886 42.9111 52.3309 43.963 52.3309 45.2571C52.3309 46.5511 50.6886 47.603 48.6694 47.603ZM48.6694 43.2895C46.8617 43.2895 45.3924 44.1711 45.3924 45.2571C45.3924 46.343 46.8617 47.2246 48.6694 47.2246C50.477 47.2246 51.9463 46.343 51.9463 45.2571C51.9463 44.1711 50.477 43.2895 48.6694 43.2895Z" fill="black"/>
<path d="M49.0506 48.8102C47.3967 48.8102 45.0814 48.1329 44.3583 45.681C44.3467 45.647 44.3391 45.6129 44.3352 45.5789C44.3121 45.4427 43.7621 42.181 45.666 40.2135C46.7544 39.0859 48.3583 38.6432 50.4352 38.8891C50.7506 38.9194 52.3775 39.1578 53.6852 41.0648C53.9814 41.4962 53.866 42.0864 53.4275 42.3778C52.9891 42.6691 52.3891 42.5556 52.0929 42.1243C51.2467 40.8945 50.2929 40.7773 50.2544 40.7735C48.7775 40.5956 47.716 40.8454 47.066 41.5151C46.8814 41.7043 46.7314 41.9237 46.6121 42.1545C48.2198 41.6059 50.3544 41.5643 52.1429 43.1043C52.9891 43.8345 53.3621 45.0189 53.0929 46.1237C52.7891 47.3686 51.7352 48.3032 50.2044 48.6854C49.8967 48.761 49.5006 48.8102 49.0583 48.8102H49.0506ZM46.2237 45.2081C46.9006 47.327 49.7006 46.8578 49.7275 46.8502C50.5583 46.6421 51.0891 46.2259 51.2198 45.681C51.3198 45.2648 51.1775 44.7881 50.8737 44.5232C49.016 42.9227 46.8352 44.0162 46.166 44.4929C46.1737 44.841 46.2083 45.1021 46.2198 45.2081H46.2237Z" fill="black"/>
<path d="M69.0259 46.6499C70.9419 46.6499 72.4951 45.6843 72.4951 44.4932C72.4951 43.302 70.9419 42.3364 69.0259 42.3364C67.1099 42.3364 65.5566 43.302 65.5566 44.4932C65.5566 45.6843 67.1099 46.6499 69.0259 46.6499Z" fill="white"/>
<path d="M69.0268 46.8394C67.0075 46.8394 65.3652 45.7875 65.3652 44.4934C65.3652 43.1994 67.0075 42.1475 69.0268 42.1475C71.046 42.1475 72.6883 43.1994 72.6883 44.4934C72.6883 45.7875 71.046 46.8394 69.0268 46.8394ZM69.0268 42.5258C67.2191 42.5258 65.7498 43.4075 65.7498 44.4934C65.7498 45.5794 67.2191 46.461 69.0268 46.461C70.8345 46.461 72.3037 45.5794 72.3037 44.4934C72.3037 43.4075 70.8345 42.5258 69.0268 42.5258Z" fill="black"/>
<path d="M69.4041 48.0954C67.7503 48.0954 65.4349 47.4181 64.7118 44.9662C64.7003 44.9321 64.6926 44.8981 64.6887 44.864C64.6656 44.7278 64.1156 41.4624 66.0195 39.4986C67.108 38.3711 68.7156 37.9284 70.7887 38.1743C71.1041 38.2046 72.731 38.4429 74.0387 40.35C74.3349 40.7813 74.2195 41.3716 73.781 41.6629C73.3426 41.9543 72.7426 41.8408 72.4464 41.4094C71.6003 40.1797 70.6464 40.0624 70.608 40.0586C69.131 39.8808 68.0695 40.1305 67.4195 40.8002C67.2349 40.9894 67.0849 41.2089 66.9656 41.4397C68.5733 40.8911 70.708 40.8494 72.4964 42.3894C73.3426 43.1159 73.7157 44.304 73.4464 45.4089C73.1426 46.6538 72.0887 47.5884 70.558 47.9705C70.2503 48.0462 69.8541 48.0954 69.4118 48.0954H69.4041ZM66.5772 44.4932C67.2541 46.6159 70.0541 46.1429 70.081 46.1354C70.9118 45.9273 71.4426 45.5111 71.5733 44.9662C71.6733 44.55 71.5349 44.0732 71.2272 43.8084C69.3695 42.2078 67.1887 43.3013 66.5195 43.7743C66.5272 44.1224 66.5618 44.3835 66.5733 44.4894L66.5772 44.4932Z" fill="black"/>
<path d="M58.4263 63.9948C58.3725 63.9948 58.3186 63.991 58.2648 63.9797C56.0802 63.6202 54.7071 62.7689 54.1763 61.4521C53.3763 59.4656 54.9148 57.3883 55.0917 57.1575C55.3994 56.7564 55.9763 56.6656 56.3994 56.9494C57.9802 58.0089 59.3879 57.6154 60.134 57.2445L58.6725 53.6008C58.5571 53.3094 58.5917 52.9802 58.7725 52.7229C58.9532 52.4656 59.2494 52.3105 59.5686 52.3105H63.2763L61.334 45.511C61.1917 45.0078 61.4879 44.4856 61.9994 44.3456C62.5109 44.2056 63.0417 44.497 63.184 45.0002L65.4686 53.0029C65.5494 53.2867 65.4917 53.5932 65.3109 53.8316C65.1302 54.0662 64.8456 54.2062 64.5456 54.2062H60.984L62.2186 57.2786C62.3686 57.6532 62.2609 58.0845 61.9456 58.3456C60.9994 59.1402 58.6956 60.1656 56.2032 59.0154C55.9494 59.5413 55.7494 60.2262 55.9686 60.7635C56.2994 61.5808 57.5763 61.9516 58.5879 62.1181C59.1109 62.2051 59.4648 62.6932 59.3763 63.2078C59.2956 63.6694 58.8917 63.9986 58.4302 63.9986L58.4263 63.9948Z" fill="black"/>
<path d="M45.8201 116.915C44.6509 116.915 43.2855 116.181 42.2432 115.545C41.7932 115.269 41.6547 114.686 41.9355 114.243C42.2163 113.801 42.8086 113.665 43.2586 113.941C45.0163 115.019 45.7009 115.042 45.874 115.023C45.897 114.925 45.8932 114.739 45.874 114.66C45.8663 114.629 45.8624 114.595 45.8586 114.565C45.7201 113.343 46.6163 112.507 47.5201 112.238C47.9432 112.083 48.074 111.932 48.0855 111.89C48.1009 111.833 48.0278 111.678 47.997 111.629C46.974 110.456 47.6624 109.079 48.3817 108.435C48.4201 108.401 48.4624 108.371 48.5047 108.341C48.7355 108.193 48.8317 108.087 48.8663 108.038C48.7817 107.898 48.4778 107.656 48.2086 107.523C47.124 107.013 46.8432 106.316 46.8009 105.825C46.7124 104.818 47.5317 104.069 47.8701 103.808C48.2663 103.346 48.3432 103.093 48.3586 103.013C48.2317 102.911 47.8393 102.801 47.5893 102.786C47.5624 102.786 47.5393 102.782 47.5124 102.779C45.9163 102.559 43.1009 103.429 42.1509 103.785C41.6547 103.97 41.1009 103.725 40.9124 103.236C40.724 102.748 40.974 102.203 41.4701 102.018C41.6278 101.961 45.3278 100.592 47.7393 100.906C48.1317 100.932 49.6432 101.118 50.1432 102.287C50.4932 103.112 50.197 104.065 49.2586 105.125C49.2086 105.181 49.1547 105.23 49.0932 105.272C48.9624 105.367 48.8086 105.533 48.7432 105.643C48.7893 105.685 48.8816 105.749 49.047 105.828C49.3278 105.961 50.7201 106.687 50.8009 107.943C50.8317 108.454 50.6547 109.196 49.6355 109.877C49.5432 109.975 49.3124 110.248 49.4586 110.407C49.4701 110.418 49.4816 110.433 49.4932 110.448C49.5701 110.543 50.224 111.394 49.9278 112.408C49.7163 113.135 49.1163 113.68 48.1393 114.024C48.1201 114.032 48.097 114.039 48.0778 114.043C48.0586 114.05 47.7624 114.149 47.7624 114.33C47.824 114.671 47.9624 115.901 47.0009 116.567C46.6509 116.809 46.247 116.911 45.8124 116.911L45.8201 116.915Z" fill="black"/>
<path d="M54.2607 201.183H24.0838C23.6838 201.183 23.3223 200.938 23.1838 200.567C21.4146 195.886 22.4415 190.074 22.9338 187.282C23.0261 186.756 23.13 186.166 23.1453 185.946C23.0569 185.534 23.2569 185.099 23.6569 184.902C24.13 184.667 24.7107 184.856 24.9453 185.326C25.1569 185.742 25.08 186.177 24.83 187.603C24.3877 190.105 23.4915 195.182 24.7761 199.288H53.6338C54.2223 197.827 54.2415 196.431 53.6992 195.031C52.53 192.019 48.7107 189.072 42.9415 186.733C42.7646 186.661 42.6492 186.612 42.603 186.589C42.13 186.355 41.9338 185.787 42.1723 185.322C42.4107 184.853 42.9877 184.663 43.4607 184.898C43.4877 184.909 43.5607 184.94 43.6684 184.981C51.6992 188.235 54.53 191.875 55.4915 194.354C56.2877 196.408 56.1646 198.523 55.1223 200.642C54.9607 200.968 54.6261 201.176 54.2569 201.176L54.2607 201.183Z" fill="black"/>
<path d="M47.9464 197.861C47.9464 197.861 47.9117 197.861 47.8964 197.861C39.2925 197.426 26.1041 196.813 25.0348 196.908C24.5079 196.957 24.0387 196.571 23.9887 196.053C23.9387 195.531 24.331 195.073 24.8579 195.023C26.4041 194.883 45.7887 195.86 47.9925 195.969C48.5233 195.996 48.931 196.442 48.9041 196.961C48.8771 197.464 48.4541 197.858 47.9464 197.858V197.861Z" fill="black"/>
<path d="M84.3546 201.183H54.2623C53.7316 201.183 53.3008 200.759 53.3008 200.237C53.3008 199.715 53.7316 199.291 54.2623 199.291H83.7277C84.3162 197.831 84.3354 196.434 83.7931 195.034C82.6239 192.023 78.8046 189.075 73.0354 186.737C72.8585 186.665 72.7431 186.616 72.6969 186.593C72.2239 186.358 72.0277 185.791 72.2662 185.325C72.5046 184.856 73.0816 184.667 73.5546 184.901C73.5816 184.913 73.6546 184.943 73.7623 184.985C81.7931 188.239 84.6239 191.879 85.5854 194.357C86.3816 196.412 86.2585 198.527 85.2162 200.646C85.0546 200.971 84.72 201.179 84.3508 201.179L84.3546 201.183Z" fill="black"/>
<path d="M53.3455 192.897C53.3186 192.897 53.2917 192.897 53.2648 192.897C52.734 192.855 52.3417 192.397 52.384 191.875C52.5378 190.044 52.8186 188.451 53.0263 187.285C53.1186 186.759 53.2224 186.169 53.2378 185.95C53.1494 185.537 53.3494 185.102 53.7494 184.905C54.2263 184.671 54.8032 184.86 55.0378 185.329C55.2494 185.745 55.1724 186.181 54.9224 187.607C54.7224 188.735 54.4494 190.282 54.3032 192.03C54.2609 192.526 53.8417 192.897 53.3455 192.897Z" fill="black"/>
<path d="M78.0382 197.861C78.0382 197.861 78.0035 197.861 77.9882 197.861C69.3843 197.426 56.1997 196.813 55.1266 196.907C54.5997 196.957 54.1305 196.571 54.0805 196.052C54.0305 195.53 54.4228 195.072 54.9497 195.023C56.4959 194.879 75.8805 195.859 78.0843 195.969C78.6151 195.996 79.0228 196.442 78.9959 196.96C78.9689 197.464 78.5459 197.857 78.0382 197.857V197.861Z" fill="black"/>
<path d="M22.7849 45.0605C22.4387 45.0605 22.0887 45.0189 21.7426 44.9281C20.5195 44.614 19.5233 43.7816 19.0156 42.6427L17.1656 38.5032C16.5887 37.2168 16.7349 35.7108 17.5426 34.5757C19.9926 31.1324 24.2195 29.3503 24.3964 29.2746C24.8849 29.0703 25.4503 29.2973 25.658 29.7778C25.8656 30.2584 25.6349 30.8146 25.1464 31.0189C25.108 31.0341 21.2464 32.6762 19.1156 35.6616C18.6926 36.2595 18.6156 37.0541 18.9233 37.7427L20.7733 41.8822C21.0464 42.4876 21.5733 42.9341 22.2233 43.1005C22.8733 43.267 23.558 43.1346 24.1003 42.7335C30.6849 37.8335 48.3849 26.9589 70.4195 31.7681C71.2695 31.9535 72.1464 31.7681 72.831 31.2497C73.5003 30.7465 73.908 29.9859 73.9464 29.1573L74.131 25.4378C74.1926 24.1892 73.3887 23.0314 72.1772 22.6227C65.2349 20.2881 47.0656 16.2054 28.3503 28.7222C27.9118 29.0173 27.3118 28.9038 27.0156 28.4724C26.7156 28.0411 26.831 27.4508 27.2695 27.1595C46.7041 14.1622 65.5849 18.4038 72.8003 20.833C74.8195 21.5103 76.1541 23.4438 76.0503 25.5286L75.8657 29.2481C75.7964 30.633 75.1157 31.9119 73.9926 32.7519C72.858 33.6032 71.4003 33.9173 69.9964 33.6108C48.7426 28.9719 31.6272 39.4984 25.2541 44.2357C24.5272 44.7768 23.6618 45.0568 22.7772 45.0568L22.7849 45.0605Z" fill="black"/>
<path d="M18.3503 36.0325C17.9618 36.0325 17.6003 35.8016 17.4541 35.4233C17.3849 35.2454 15.7888 31.0341 16.8811 25.4719C17.8811 20.3676 21.4349 13.1292 32.6618 7.62003C33.1349 7.38543 33.7157 7.5784 33.9503 8.04381C34.1888 8.513 33.9926 9.08057 33.5195 9.31138C25.108 13.4395 20.1503 18.9638 18.7849 25.7368C17.7657 30.7919 19.2349 34.7119 19.2503 34.7498C19.4388 35.2379 19.1888 35.7827 18.6926 35.9681C18.5811 36.0098 18.4657 36.0287 18.3503 36.0287V36.0325Z" fill="black"/>
<path d="M73.9533 22.9331C73.5264 22.9331 73.1379 22.6531 73.0225 22.2255C71.4264 16.2131 68.1725 11.7747 63.3494 9.03146C53.0417 3.1666 38.8764 6.87471 38.734 6.91254C38.2225 7.04876 37.6917 6.75362 37.5533 6.25038C37.4148 5.74714 37.7148 5.22498 38.2264 5.08876C38.8379 4.92606 53.3187 1.13849 64.311 7.39687C69.5956 10.405 73.1494 15.2331 74.8802 21.7525C75.0148 22.2596 74.7071 22.7742 74.1917 22.9066C74.111 22.9293 74.0302 22.9369 73.9494 22.9369L73.9533 22.9331Z" fill="black"/>
<path d="M29.4815 41.2013C29.3431 41.2013 29.2008 41.171 29.0661 41.1067C28.9238 41.0386 25.5469 39.3737 24.2777 33.6526C24.1661 33.1418 24.4931 32.6386 25.0123 32.525C25.5315 32.4115 26.0431 32.7369 26.1584 33.2477C27.2123 38.004 29.8046 39.351 29.9123 39.404C30.3815 39.6386 30.5777 40.2061 30.3431 40.6715C30.1738 41.0045 29.8354 41.1975 29.4815 41.1975V41.2013Z" fill="black"/>
<path d="M39.0545 36.4299C38.8083 36.4299 38.5622 36.3391 38.3737 36.1536C35.0891 32.9223 35.1775 26.6412 35.1852 26.3763C35.1968 25.8542 35.6352 25.4418 36.166 25.4493C36.6968 25.4607 37.1198 25.892 37.1083 26.4142C37.1083 26.4709 37.0314 32.158 39.7352 34.8142C40.1122 35.185 40.1122 35.7828 39.7352 36.1536C39.5468 36.3391 39.3006 36.4299 39.0545 36.4299Z" fill="black"/>
<path d="M53.1572 32.2636C53.1226 32.2636 53.088 32.2636 53.0534 32.2599C52.5265 32.2031 52.1419 31.7377 52.1996 31.2193C52.6226 27.3334 51.2034 22.4258 51.188 22.3766C51.0419 21.8734 51.3342 21.3512 51.8457 21.2074C52.3572 21.0636 52.888 21.3512 53.0342 21.8544C53.0957 22.0701 54.5726 27.1631 54.1111 31.4236C54.0572 31.908 53.6419 32.2674 53.1572 32.2674V32.2636Z" fill="black"/>
<path d="M64.8961 32.0745C64.723 32.0745 64.55 32.0291 64.3923 31.9345C63.9384 31.6621 63.8 31.0756 64.0807 30.6329C65.7038 28.041 64.7769 23.3226 64.7692 23.2734C64.6654 22.7626 65.0038 22.2632 65.523 22.161C66.0423 22.0588 66.55 22.3918 66.6538 22.9026C66.7 23.1259 67.7423 28.3967 65.7154 31.6243C65.5346 31.9156 65.2192 32.0745 64.8961 32.0745Z" fill="black"/>
<path d="M29.5926 27.7422C29.2311 27.7422 28.8811 27.5379 28.7195 27.1936C25.6003 20.5909 29.0465 14.6087 31.3772 11.6271C31.7003 11.2108 32.3041 11.1352 32.7272 11.453C33.1465 11.7708 33.2272 12.3649 32.9042 12.7811C30.8388 15.4222 27.7772 20.7006 30.4695 26.3952C30.6926 26.8681 30.4849 27.4319 30.0042 27.6514C29.8734 27.7119 29.7349 27.7384 29.6003 27.7384L29.5926 27.7422Z" fill="black"/>
<path d="M28.5276 53.5058C26.8392 53.5058 25.6007 53.0404 24.8353 52.1096C23.2584 50.1874 24.4623 47.2626 24.6046 46.9372C24.6084 46.9258 24.6161 46.9107 24.6238 46.8993C25.4469 45.2269 26.5584 44.2507 27.9238 44.0047C29.4469 43.7285 30.8276 44.4777 31.5546 44.9885L36.4046 42.635C35.5623 39.8615 36.6469 36.0928 36.7007 35.915C36.8469 35.4118 37.3815 35.1242 37.8892 35.268C38.4007 35.4118 38.693 35.9377 38.5469 36.4372C38.2123 37.5761 37.5507 40.9172 38.4738 42.6577C38.593 42.8847 38.6161 43.1458 38.5353 43.388C38.4546 43.6301 38.2776 43.8307 38.0469 43.9442L31.8584 46.9447C31.4969 47.1188 31.0661 47.0545 30.7738 46.7858C30.4238 46.468 29.2815 45.6734 28.2623 45.8626C27.5392 45.995 26.9007 46.6155 26.3623 47.6977C26.1007 48.3145 25.6084 50.0436 26.3315 50.9215C26.9238 51.6404 28.4315 51.8069 30.5815 51.3907C31.1007 51.2923 31.6084 51.6253 31.7123 52.1361C31.8161 52.6469 31.4738 53.1463 30.9546 53.2485C30.0623 53.4226 29.2546 53.5058 28.5276 53.5058Z" fill="black"/>
<path d="M25.153 49.3251C24.8183 49.3251 24.4914 49.151 24.3145 48.8407L21.876 44.5726C21.6145 44.1186 21.7799 43.5397 22.2453 43.2861C22.7068 43.0288 23.2953 43.1915 23.553 43.6494L25.9914 47.9175C26.253 48.3715 26.0876 48.9505 25.6222 49.204C25.4722 49.2872 25.3107 49.3251 25.153 49.3251Z" fill="black"/>
<path d="M47.1308 20.9202C46.6424 20.9202 46.2231 20.5569 46.177 20.0688C45.5231 13.6099 41.2001 10.4202 41.1577 10.3899C40.7308 10.0796 40.6385 9.48936 40.9501 9.06936C41.2654 8.64936 41.8654 8.55855 42.2924 8.86503C42.5001 9.0126 47.3539 12.5921 48.0885 19.8834C48.1424 20.4018 47.7539 20.8672 47.227 20.9164C47.1962 20.9164 47.1616 20.9202 47.1308 20.9202Z" fill="black"/>
<path d="M63.3762 20.5644C62.8493 20.5644 62.4224 20.1481 62.4147 19.6298C62.3455 14.6087 55.7686 10.4692 55.7032 10.4276C55.2532 10.1476 55.1186 9.5649 55.4032 9.12219C55.6839 8.67949 56.2801 8.54706 56.7301 8.82328C57.0378 9.01246 64.257 13.5492 64.3416 19.6033C64.3493 20.1254 63.9224 20.553 63.3916 20.5606H63.3801L63.3762 20.5644Z" fill="black"/>
<path d="M55.9343 82.6864C55.542 82.6864 55.1727 82.448 55.0304 82.062C54.8497 81.5701 55.1073 81.0291 55.6073 80.8512C67.9343 76.462 71.7381 72.3755 72.7573 69.7231C73.4073 68.028 72.8573 67.0026 72.8343 66.9609C72.1958 65.8901 71.4112 65.2507 70.5074 65.0766C69.1804 64.8193 67.865 65.5685 67.4612 65.8296C66.6458 67.0669 61.6612 74.1955 53.3497 77.0258C53.2266 77.0674 53.0997 77.0826 52.9727 77.075C52.5458 77.0485 42.3997 76.2464 32.1035 63.8923C31.765 63.4874 31.8266 62.8934 32.2381 62.5604C32.6497 62.2274 33.2535 62.288 33.592 62.6928C38.6804 68.7961 43.715 71.8685 47.042 73.3707C50.0843 74.7442 52.292 75.0923 52.9189 75.168C61.0573 72.2999 65.8881 64.7361 65.9343 64.6604C65.9958 64.562 66.0766 64.475 66.1727 64.4031C66.265 64.335 68.4343 62.7382 70.8843 63.2188C72.3497 63.5063 73.5689 64.4447 74.4997 66.0112C74.5997 66.1777 75.5073 67.782 74.6073 70.2604C72.992 74.7101 66.8227 78.8723 56.2612 82.6296C56.1535 82.6674 56.042 82.6864 55.9343 82.6864Z" fill="black"/>
<path d="M49.7991 82.6864C44.1568 82.6864 38.4145 81.2373 37.9722 81.1237C20.6645 77.3437 22.3375 67.3621 22.4183 66.9383C23.6529 61.2059 27.9837 58.3908 34.0145 59.3897L34.1029 59.4048C34.5914 59.4464 34.976 59.8551 34.976 60.347C34.976 60.8691 34.5452 61.2929 34.0145 61.2929C33.9145 61.2929 33.8375 61.2816 33.6952 61.2551C30.776 60.7746 25.676 60.9183 24.3029 67.3091C24.2491 67.6308 22.9837 75.9248 38.4029 79.2848C38.4145 79.2848 38.4298 79.2924 38.4414 79.2924C38.4991 79.3075 44.3029 80.7983 49.7952 80.7983C50.326 80.7983 50.7568 81.2221 50.7568 81.7443C50.7568 82.2664 50.326 82.6902 49.7952 82.6902L49.7991 82.6864Z" fill="black"/>
<path d="M55.7684 85.7551C55.2184 85.7551 54.6838 85.5734 54.2454 85.2329C53.7261 84.8318 53.3992 84.2567 53.3223 83.6096C53.1607 82.2778 54.13 81.0669 55.4838 80.908L57.2646 80.6999C58.6184 80.541 59.8492 81.4945 60.0107 82.8264C60.1723 84.1583 59.203 85.3691 57.8492 85.528L56.0684 85.7361C55.9684 85.7475 55.8684 85.7551 55.7723 85.7551H55.7684ZM57.5569 82.5805C57.5338 82.5805 57.5146 82.5805 57.4915 82.5805L55.7107 82.7886C55.4107 82.8226 55.1954 83.0913 55.2338 83.3864C55.2492 83.5302 55.3223 83.6551 55.4377 83.7459C55.553 83.8329 55.6954 83.8745 55.8415 83.8556L57.6223 83.6475C57.9223 83.6134 58.1377 83.3448 58.0992 83.0496C58.0646 82.7772 57.83 82.5767 57.5569 82.5767V82.5805Z" fill="black"/>
<path d="M48.9529 85.6528H47.1606C45.7991 85.6528 44.6914 84.5631 44.6914 83.2236C44.6914 81.8842 45.7991 80.7944 47.1606 80.7944H48.9529C50.3145 80.7944 51.4222 81.8842 51.4222 83.2236C51.4222 84.5631 50.3145 85.6528 48.9529 85.6528ZM47.1606 82.6863C46.8606 82.6863 46.6145 82.9285 46.6145 83.2236C46.6145 83.5188 46.8606 83.7609 47.1606 83.7609H48.9529C49.2529 83.7609 49.4991 83.5188 49.4991 83.2236C49.4991 82.9285 49.2529 82.6863 48.9529 82.6863H47.1606Z" fill="black"/>
<path d="M46.6911 91.7562C46.5488 91.7562 46.4026 91.7259 46.268 91.6578C45.7911 91.427 45.595 90.8594 45.8296 90.3902C47.2565 87.5373 47.0988 84.794 47.095 84.7675C47.0603 84.2454 47.4642 83.7989 47.9911 83.7648C48.5219 83.7346 48.9757 84.1243 49.0142 84.6427C49.0219 84.7751 49.218 87.9005 47.5526 91.2265C47.3873 91.5594 47.045 91.7562 46.6873 91.7562H46.6911Z" fill="black"/>
<path d="M57.7725 91.7561C57.3571 91.7561 56.9725 91.4875 56.8494 91.075C55.7455 87.3253 55.7032 85.0702 55.7032 84.9756C55.6955 84.4534 56.1225 84.0259 56.6532 84.0183C57.184 84.0069 57.6186 84.4307 57.6263 84.9491C57.6263 84.9718 57.6725 87.0718 58.6955 90.5491C58.8417 91.0523 58.5494 91.5745 58.0378 91.7221C57.9494 91.7486 57.8571 91.7599 57.7686 91.7599L57.7725 91.7561Z" fill="black"/>
<path d="M37.7308 116.563C37.6923 116.563 37.6539 116.563 37.6154 116.555L32.6731 115.976C32.1462 115.916 31.7693 115.443 31.8308 114.924C31.8923 114.406 32.3731 114.035 32.9 114.096L36.8654 114.561L37.9462 103.581C37.9962 103.062 38.4654 102.68 38.9962 102.729C39.5231 102.779 39.9116 103.24 39.8616 103.762L38.6846 115.704C38.6616 115.957 38.5308 116.188 38.3308 116.351C38.1577 116.487 37.9462 116.559 37.727 116.559L37.7308 116.563Z" fill="black"/>
<path d="M36.4892 100.985C36.3045 100.985 36.1199 100.932 35.9584 100.826C26.2699 94.4881 29.0391 86.0049 29.0661 85.9216C29.2353 85.4259 29.7815 85.1611 30.2853 85.3276C30.7891 85.4941 31.0584 86.0276 30.8891 86.5233C30.7891 86.8297 28.6122 93.7503 37.0238 99.2519C37.4661 99.5395 37.5853 100.13 37.293 100.565C37.1084 100.837 36.8007 100.989 36.493 100.989L36.4892 100.985Z" fill="black"/>
<path d="M10.1645 90.0991C9.64531 90.0991 9.21838 89.6942 9.203 89.1796C8.74146 73.4807 18.7376 69.0121 19.1645 68.8267C19.653 68.6186 20.2184 68.838 20.4299 69.3148C20.6415 69.7915 20.4222 70.3477 19.9376 70.5596C19.5607 70.7261 10.7068 74.7596 11.1261 89.1229C11.1415 89.645 10.7222 90.0802 10.1915 90.0953C10.1838 90.0953 10.1722 90.0953 10.1645 90.0953V90.0991Z" fill="black"/>
<path d="M52.112 125.913C51.589 125.913 51.1582 125.5 51.1505 124.982C51.1428 124.46 51.5659 124.028 52.0966 124.021C61.8466 123.866 68.5659 122.541 70.4582 122.121C75.5851 102.404 68.5659 82.2516 68.4928 82.0472C68.3159 81.5553 68.5813 81.0143 69.0851 80.844C69.5851 80.6699 70.1351 80.931 70.3082 81.4267C70.3813 81.6386 77.7236 102.714 72.1697 123.158C72.0813 123.487 71.8159 123.745 71.4813 123.828C71.1774 123.903 63.9159 125.727 52.1274 125.913C52.1236 125.913 52.1159 125.913 52.112 125.913Z" fill="black"/>
<path d="M80.2086 97.0271C80.0624 97.0271 79.9124 96.9931 79.7701 96.925C79.297 96.6866 79.1086 96.119 79.3509 95.6536C86.174 82.5201 76.4663 75.1834 76.047 74.8807C75.624 74.5704 75.5317 73.9763 75.8509 73.5563C76.1663 73.1363 76.7663 73.0493 77.1932 73.3596C77.3086 73.4428 88.6432 81.9223 81.0624 96.5163C80.8932 96.8455 80.5547 97.0309 80.2047 97.0309L80.2086 97.0271Z" fill="black"/>
<path d="M78.8497 112.552C77.392 112.552 75.7227 111.973 75.3112 111.822C74.8151 111.64 74.5612 111.095 74.7458 110.607C74.9304 110.119 75.4843 109.869 75.9804 110.051C77.292 110.531 78.8227 110.785 79.3227 110.626C79.2881 110.512 79.1997 110.361 78.9958 110.236C78.6189 110.005 78.4535 109.555 78.5881 109.139C78.7227 108.726 79.1304 108.454 79.5727 108.488C80.5227 108.556 81.6151 108.465 81.8727 108.303C81.8804 108.295 82.0151 108.166 82.0074 107.992C82.0035 107.89 81.9227 107.512 81.142 106.933C81.1227 106.918 81.0997 106.903 81.0804 106.884C80.642 106.502 80.2651 105.858 80.5151 105.2C80.8727 104.262 82.092 104.254 82.492 104.25C82.9612 104.239 83.4958 104.069 83.5804 103.944C83.5804 103.944 83.592 103.808 83.4074 103.486C83.3997 103.475 82.6766 102.234 81.3727 101.613C80.8958 101.386 80.6958 100.818 80.9266 100.349C81.1574 99.88 81.7343 99.6832 82.2112 99.9103C84.0727 100.799 85.042 102.491 85.0843 102.563C85.7035 103.649 85.5112 104.424 85.242 104.886C84.7497 105.726 83.7266 106.002 83.0651 106.097C83.6227 106.691 83.9112 107.315 83.9227 107.962C83.9458 108.95 83.3035 109.574 83.1381 109.718C82.6958 110.111 81.9535 110.289 81.2227 110.361C81.2727 110.637 81.2689 110.891 81.242 111.08C81.2343 111.133 81.2189 111.186 81.2035 111.235C81.042 111.704 80.7074 112.071 80.2304 112.295C79.8381 112.48 79.3535 112.552 78.842 112.552H78.8497Z" fill="black"/>
<path d="M74.0894 106.445C73.8817 106.445 73.6778 106.381 73.5009 106.248C73.0817 105.927 73.0048 105.333 73.3317 104.92L77.6355 99.4602C77.9624 99.0478 78.5663 98.9721 78.9855 99.2937C79.4048 99.6153 79.4817 100.209 79.1548 100.622L74.8509 106.082C74.6624 106.324 74.3778 106.449 74.0894 106.449V106.445Z" fill="black"/>
<path d="M50.4661 171.571C50.4238 171.571 50.3815 171.571 50.3392 171.564C49.8123 171.496 49.443 171.019 49.5122 170.504C51.8084 153.303 52.2776 133.374 52.2815 133.174C52.293 132.651 52.7199 132.228 53.2622 132.25C53.793 132.262 54.2122 132.693 54.2007 133.215C54.1969 133.416 53.7238 153.447 51.4161 170.75C51.3507 171.227 50.9392 171.575 50.4622 171.575L50.4661 171.571Z" fill="black"/>
<path d="M20.2733 170.478C19.7849 170.478 19.3695 170.115 19.3195 169.627C17.8041 155.01 18.581 128.883 18.5887 128.622C18.6041 128.099 19.0541 127.691 19.5772 127.706C20.1079 127.721 20.5272 128.156 20.5079 128.678C20.5002 128.939 19.7272 154.942 21.231 169.434C21.2849 169.952 20.9003 170.417 20.3733 170.47C20.3387 170.47 20.3079 170.474 20.2733 170.474V170.478Z" fill="black"/>
<path d="M70.139 170.478C70.0659 170.478 69.9967 170.47 69.9236 170.455C69.4044 170.338 69.0813 169.831 69.2005 169.324C72.0736 156.97 70.3005 129.469 70.2813 129.193C70.2467 128.671 70.6467 128.221 71.1774 128.187C71.7082 128.153 72.1659 128.546 72.2005 129.068C72.2775 130.207 74.0121 157.121 71.0775 169.744C70.9736 170.183 70.5813 170.478 70.1428 170.478H70.139Z" fill="black"/>
<path d="M17.6197 186.695C17.3697 186.695 17.1274 186.597 16.9467 186.426C16.762 186.248 16.6582 186.006 16.6582 185.749V171.337C16.6582 170.814 17.089 170.391 17.6197 170.391C18.1505 170.391 18.5813 170.814 18.5813 171.337V184.78L51.9428 184.058L52.2544 172.283H24.9505C24.4197 172.283 23.989 171.859 23.989 171.337C23.989 170.814 24.4197 170.391 24.9505 170.391H53.2428C53.5005 170.391 53.7505 170.493 53.9313 170.678C54.1121 170.864 54.212 171.11 54.2044 171.363L53.8467 185.011C53.8351 185.514 53.4197 185.919 52.9082 185.931L17.6467 186.695C17.6467 186.695 17.6313 186.695 17.6236 186.695H17.6197Z" fill="black"/>
<path d="M53.2391 186.43C52.716 186.43 52.2891 186.018 52.2776 185.503C52.266 184.981 52.6891 184.55 53.2199 184.538L77.1853 184.058L77.4968 172.283H57.0622C56.5314 172.283 56.1007 171.859 56.1007 171.337C56.1007 170.814 56.5314 170.391 57.0622 170.391H78.4814C78.7391 170.391 78.9891 170.493 79.1699 170.678C79.3507 170.864 79.4507 171.11 79.443 171.363L79.0853 185.011C79.0737 185.514 78.6583 185.923 78.143 185.931L53.2622 186.43C53.2622 186.43 53.2468 186.43 53.243 186.43H53.2391Z" fill="black"/>
<path d="M42.8722 126.915C32.9375 126.915 20.7298 124.97 20.1222 124.872C19.5991 124.789 19.2414 124.3 19.3298 123.786C19.4145 123.271 19.9106 122.919 20.4337 123.006C20.6106 123.033 38.0222 125.81 47.9722 124.8C48.4991 124.751 48.9722 125.125 49.026 125.644C49.0798 126.162 48.6952 126.627 48.1683 126.68C46.5491 126.843 44.7491 126.915 42.876 126.915H42.8722Z" fill="black"/>
<path d="M16.6146 124.289C16.2261 124.289 15.8569 124.054 15.7146 123.676C12.7569 115.9 15.5799 107.251 15.703 106.887C15.8684 106.392 16.4107 106.123 16.9146 106.286C17.4184 106.448 17.6953 106.982 17.5299 107.478C17.503 107.561 14.7992 115.87 17.5184 123.014C17.703 123.502 17.453 124.047 16.9569 124.232C16.8453 124.274 16.7338 124.293 16.6184 124.293L16.6146 124.289Z" fill="black"/>
<path d="M51.8083 122.201C51.7737 122.201 51.7391 122.201 51.7083 122.197L43.4006 121.338C42.9121 121.289 42.5391 120.88 42.5391 120.396V115.466C42.5391 114.943 42.9698 114.52 43.5006 114.52C44.0314 114.52 44.4621 114.943 44.4621 115.466V119.545L51.0583 120.229L56.4506 96.8494L44.4621 95.5288V101.416C44.4621 101.939 44.0314 102.362 43.5006 102.362C42.9698 102.362 42.5391 101.939 42.5391 101.416V94.4694C42.5391 94.2007 42.6544 93.9434 42.8583 93.7656C43.0621 93.5877 43.3314 93.4969 43.6044 93.531L57.7275 95.0861C58.0006 95.1164 58.2468 95.2602 58.4044 95.4796C58.5621 95.6991 58.6198 95.9753 58.5583 96.2364L52.7429 121.467C52.6429 121.902 52.2506 122.205 51.8044 122.205L51.8083 122.201Z" fill="black"/>
<path d="M29.8802 115.469C29.7956 115.469 29.7072 115.458 29.6225 115.435C19.0072 112.541 14.1572 106.672 11.9572 102.256C9.56101 97.4508 9.70331 93.3568 9.71101 93.1865C9.73408 92.6643 10.1879 92.2595 10.711 92.2822C11.2418 92.3049 11.6533 92.7438 11.6302 93.2659C11.6302 93.3038 11.511 97.1216 13.7225 101.507C16.561 107.134 21.7533 111.11 29.161 113.331L31.8456 101.594C31.961 101.083 32.4764 100.762 32.9956 100.879C33.5149 100.992 33.8379 101.499 33.7225 102.01L30.8149 114.728C30.7572 114.981 30.5956 115.197 30.3725 115.333C30.2225 115.42 30.0495 115.465 29.8802 115.465V115.469Z" fill="black"/>
</svg>
