<svg width="100" height="210" viewBox="0 0 100 210" fill="none" xmlns="http://www.w3.org/2000/svg">
<path d="M22.2968 117.835C16.4814 118.214 18.2044 115.471 18.2044 115.471C20.0044 114.71 19.1044 114.248 19.1044 114.248C16.0583 112.981 17.9044 111.547 17.9044 111.547C20.3506 110.62 19.3198 109.311 19.3198 109.311C16.9621 109.186 17.3044 107.96 17.3044 107.96C17.7775 105.765 21.4852 105.5 21.4852 105.5C17.0391 74.5376 35.1044 79.7328 35.1044 79.7328L24.4044 117.87L22.2968 117.832V117.835Z" fill="white"/>
<path d="M53.0921 11.4885C53.0921 11.4885 31.1844 5.97177 26.0382 31.8869C26.0382 31.8869 28.3882 43.2004 27.8228 50.3404C27.2575 57.4804 23.2344 71.3366 23.2344 71.3366C23.2344 71.3366 31.3882 76.4107 36.5036 72.521C36.5036 72.521 62.5113 75.041 64.2151 71.3858C64.2151 71.3858 74.0305 76.9518 81.4536 68.7939C81.4536 68.7939 73.7421 70.8258 79.0575 48.3804C79.0575 48.3804 87.4613 13.8345 53.0844 11.4885H53.0921Z" fill="#F8B3FF"/>
<path d="M26.7148 39.3978C26.7148 39.3978 27.9802 75.62 42.8995 75.0902C42.8995 75.0902 58.2495 78.9762 65.3841 69.2708L68.9725 52.3118C68.9725 52.3118 71.7302 53.9389 73.0418 51.5248C74.3533 49.1108 77.7148 42.4589 73.9495 40.8016C73.9495 40.8016 68.4072 41.7172 68.9725 45.3459L60.7148 41.8232L60.2033 30.8843L55.9648 39.8632C55.9648 39.8632 31.2572 36.9724 26.7148 39.3978Z" fill="white"/>
<path d="M78.9383 132.184L78.0844 131.612C77.6575 111.479 71.3383 88.3145 65.8767 78.1588C62.7844 72.4075 36.9806 76.8572 36.9806 76.8572C36.9806 76.8572 26.1113 90.9858 24.2421 111.747C23.7767 116.927 23.5113 122.229 23.3806 127.265L23.1113 127.102L23.269 154.345C23.269 154.345 23.4306 154.379 23.7267 154.44C23.7536 154.92 23.769 155.178 23.769 155.178C23.769 155.178 29.0959 155.919 36.3075 156.464C47.1959 157.819 62.7152 158.734 74.0306 155.25C76.169 154.958 77.1344 154.765 77.1344 154.765C77.1344 154.765 77.1652 154.538 77.2113 154.103C77.4498 154.001 77.6921 153.899 77.9267 153.793L78.9383 132.184Z" fill="#2BE6AE"/>
<path d="M22.6465 132.751V146.861L27.1196 149.627C27.1196 149.627 29.7465 148.628 29.7465 148.446V145.589L32.5465 144.363V140.629L31.0388 139.059L32.1003 136.788L31.1311 134.249H27.5965L27.0734 132.751H22.6465Z" fill="#FFF080"/>
<path d="M27.0997 150.247C25.8151 150.247 24.1805 149.717 22.7728 147.587C22.4843 147.148 22.6112 146.562 23.0535 146.278C23.4997 145.994 24.0958 146.119 24.3843 146.554C26.0689 149.104 27.9805 148.268 28.3074 148.098C29.4805 147.277 29.1343 146.335 28.9997 146.062C28.8574 145.782 28.8651 145.442 29.0228 145.173C29.1805 144.904 29.4612 144.715 29.7766 144.692C31.4497 144.56 31.7612 143.368 31.7881 143.232C31.9074 142.49 31.7997 141.877 31.4612 141.45C30.9151 140.757 29.892 140.655 29.8843 140.655C29.4535 140.617 29.0997 140.296 29.0228 139.876C28.9458 139.456 29.1612 139.039 29.5535 138.858C31.4574 137.969 31.192 136.641 31.0766 136.285C30.8074 135.785 30.4766 135.487 30.0612 135.373C29.2958 135.165 28.3305 135.611 28.0266 135.801C27.7381 135.982 27.3689 135.997 27.0651 135.842C26.7612 135.687 26.5612 135.384 26.5458 135.048C26.492 133.909 26.2228 133.148 25.8112 132.959C25.2343 132.698 24.0535 133.303 23.5497 133.685C23.1305 134.003 22.5266 133.928 22.1997 133.515C21.8766 133.103 21.9535 132.509 22.3728 132.187C22.6151 132.002 24.792 130.409 26.6189 131.237C27.4689 131.623 28.0305 132.422 28.2997 133.621C28.9381 133.432 29.742 133.318 30.5612 133.538C31.2305 133.716 32.1689 134.2 32.8266 135.479C32.842 135.509 32.8535 135.536 32.8651 135.566C33.1997 136.421 33.3035 138.075 32.0151 139.422C32.3497 139.63 32.6805 139.902 32.9689 140.258C33.6612 141.121 33.8997 142.229 33.6881 143.557C33.5343 144.371 32.7997 145.797 31.0535 146.357C31.1612 147.368 30.8497 148.669 29.3651 149.676C29.3458 149.687 29.3266 149.702 29.3074 149.714C29.2881 149.725 28.3651 150.243 27.0997 150.243V150.247Z" fill="black"/>
<path d="M40.6701 187.412L33.7316 189.841L27.9316 194.033L29.1009 197.594L70.9932 197.015L71.5701 190.446L70.7201 186.322L72.2047 173.158L61.6893 178.085L53.2509 175.148L45.0124 180.416L36.9855 178.894L40.6701 187.412Z" fill="#67A9F9"/>
<path d="M60.1432 105.671C64.9317 109.371 69.5509 109.541 69.5509 109.541C85.8009 109.038 84.6009 95.8745 84.6009 95.8745C83.7471 79.6837 66.5201 79.1426 66.5201 79.1426L71.974 92.8474C67.7971 95.9085 62.5394 95.8745 62.5394 95.8745C62.5394 95.8745 59.3278 93.7139 57.124 93.4982C57.124 93.4982 54.0817 92.9572 55.624 95.8745C55.624 95.8745 57.0778 97.5318 55.0047 97.9669C55.0047 97.9669 52.3586 98.5307 54.0355 100.267C54.0355 100.267 54.874 101.482 53.8586 102.174C53.8586 102.174 52.4471 103.26 54.2547 104.43C54.2547 104.43 55.2701 104.993 54.9163 105.947C54.9163 105.947 53.4624 108.898 58.797 107.161L60.1432 105.671Z" fill="white"/>
<path d="M48.6543 82.1471C48.6543 82.1471 49.5774 90.6341 57.0197 89.7979C60.9543 89.3552 62.7389 86.6498 63.2774 81.2466L48.6581 82.1471H48.6543Z" fill="white"/>
<path d="M49.7148 85.6547L62.7879 84.5801C62.7879 84.5801 61.911 90.6493 55.1302 89.9303C55.1302 89.9303 50.7725 89.1622 49.7148 85.6547Z" fill="#FF6A2F"/>
<path d="M51.8569 158.273C36.6069 158.273 23.8069 156.146 23.6069 156.116C23.1915 156.044 22.8723 155.719 22.8184 155.31C19.7069 132.517 22.3338 114.211 25.0838 102.867C28.0223 90.7473 31.6338 83.9365 31.8992 83.4446C32.03 83.1798 33.2415 80.7543 35.4223 77.8938C35.7415 77.4776 36.3415 77.3906 36.7684 77.7046C37.1915 78.0187 37.28 78.6127 36.9607 79.0289C34.8184 81.8365 33.6377 84.2543 33.6261 84.277C33.6184 84.2884 33.6107 84.3035 33.6069 84.3149C33.5684 84.383 29.8684 91.2695 26.9377 103.381C24.2646 114.438 21.7146 132.218 24.6338 154.36C29.2338 155.064 55.6492 158.746 76.2684 154.001C76.753 149.941 79.1453 127.473 75.1761 108.69C75.0684 108.179 75.403 107.676 75.9223 107.57C76.4415 107.464 76.9492 107.793 77.0607 108.304C81.4915 129.255 78.1338 154.637 78.0992 154.89C78.0453 155.276 77.7607 155.59 77.3723 155.685C69.2415 157.637 60.1877 158.273 51.8646 158.273H51.8569Z" fill="black"/>
<path d="M71.8622 93.2675C71.4583 93.2675 71.0853 93.0177 70.9506 92.6204L68.4814 85.3291C67.4891 82.828 66.3429 80.588 65.0776 78.6772C64.7891 78.2383 64.9122 77.6518 65.3583 77.368C65.8045 77.0842 66.4006 77.2053 66.6891 77.6442C68.0314 79.6723 69.2391 82.0334 70.2814 84.6631C70.2891 84.6783 70.2929 84.6934 70.2968 84.7085L72.7737 92.0226C72.9429 92.5183 72.6699 93.0556 72.166 93.2183C72.066 93.2523 71.9622 93.2675 71.8622 93.2675Z" fill="black"/>
<path d="M69.6122 110.62C69.6122 110.62 69.5891 110.62 69.5775 110.62C69.3775 110.612 64.5891 110.397 59.6122 106.548C59.1968 106.227 59.1237 105.633 59.4506 105.22C59.7775 104.808 60.3814 104.736 60.8006 105.061C65.0737 108.365 69.2468 108.705 69.6237 108.728C74.6468 108.565 78.4121 107.135 80.816 104.479C84.0775 100.873 83.7122 96.1355 83.7083 96.0901C83.3698 89.7333 80.4198 85.1512 74.9314 82.4458C70.7545 80.3836 66.5929 80.2247 66.5506 80.2209C66.0198 80.202 65.6045 79.7669 65.6237 79.2447C65.6429 78.7225 66.0929 78.3139 66.616 78.329C66.7968 78.3328 84.7352 79.0933 85.6275 95.9577C85.6468 96.1469 86.0814 101.486 82.2737 105.716C79.5006 108.796 75.2506 110.446 69.6468 110.62C69.6352 110.62 69.6275 110.62 69.616 110.62H69.6122Z" fill="black"/>
<path d="M56.1889 108.789C55.4274 108.789 54.7428 108.607 54.2851 108.092C53.5082 107.222 53.9389 106.06 54.0774 105.743C54.1197 105.565 53.8582 105.402 53.8274 105.383C53.8197 105.379 53.7928 105.364 53.7851 105.357C52.9197 104.797 52.4659 104.127 52.4312 103.37C52.3889 102.315 53.2274 101.637 53.3235 101.565C53.3389 101.554 53.3505 101.543 53.3658 101.535C53.5466 101.414 53.3928 101.1 53.3197 100.975C52.4966 100.078 52.5005 99.314 52.6505 98.8296C53.0274 97.6264 54.5543 97.2442 54.8543 97.1799C55.0351 97.1421 55.1428 97.1005 55.1966 97.0702C55.162 96.9491 55.0505 96.7523 54.9428 96.6237C54.8966 96.5707 54.8543 96.5064 54.8235 96.4459C54.1658 95.201 54.1043 94.2021 54.6428 93.4832C55.4082 92.4615 56.9197 92.6318 57.3082 92.6961C59.3582 92.9118 62.0235 94.5161 62.8697 95.0572C64.2774 94.9967 70.8043 94.4405 74.1043 89.4723C74.3928 89.0334 74.9928 88.9123 75.4351 89.1961C75.8812 89.4799 76.0043 90.0664 75.7158 90.5053C71.4428 96.9378 62.9582 96.9529 62.5889 96.9567C62.3966 96.9567 62.212 96.8961 62.0543 96.7902C61.2158 96.2264 58.6889 94.7318 57.0851 94.5729C57.0582 94.5729 57.0351 94.5653 57.012 94.5615C56.7312 94.5161 56.3505 94.535 56.2082 94.6032C56.2043 94.6864 56.2197 94.9475 56.4928 95.4886C56.7582 95.8215 57.3774 96.7372 57.0466 97.6983C56.8851 98.1675 56.4466 98.7805 55.2658 99.0264C54.9812 99.0907 54.6274 99.2534 54.512 99.3707C54.5351 99.4275 54.6043 99.5524 54.7928 99.7491C54.8274 99.7869 54.862 99.8286 54.8928 99.8702C55.4389 100.661 55.7812 102.159 54.5043 103.06C54.4351 103.12 54.3543 103.245 54.3582 103.295C54.3582 103.34 54.4543 103.514 54.8235 103.76C55.6389 104.229 56.3082 105.251 55.8812 106.405C55.8697 106.435 55.8582 106.465 55.8428 106.496C55.7966 106.598 55.7582 106.757 55.7582 106.847C55.9197 106.904 56.5889 107.04 58.5582 106.401C59.062 106.235 59.6082 106.507 59.7735 107.003C59.9389 107.498 59.6658 108.036 59.162 108.198C58.2658 108.49 57.1697 108.792 56.1928 108.792L56.1889 108.789Z" fill="black"/>
<path d="M21.3377 118.948C19.253 118.948 17.953 118.479 17.3684 117.525C16.68 116.398 17.3684 115.232 17.4492 115.104C17.5415 114.956 17.6723 114.839 17.8261 114.759C17.0184 114.256 16.5607 113.655 16.4684 112.962C16.3069 111.797 17.2607 111.017 17.3684 110.934C17.4453 110.874 17.53 110.828 17.6184 110.794C18.1377 110.597 18.3915 110.416 18.5146 110.291C17.6953 110.136 17.0992 109.807 16.7377 109.315C16.2915 108.702 16.38 108.085 16.4261 107.884C16.8684 105.871 19.1184 105.115 20.4646 104.838C18.903 93.0557 20.453 85.0908 25.0684 81.1595C29.5684 77.3303 35.1953 78.8892 35.4338 78.9573C35.9453 79.1049 36.2377 79.6308 36.0877 80.1303C35.9377 80.6298 35.403 80.9173 34.8992 80.7735C34.8338 80.7546 30.003 79.4492 26.3107 82.6049C22.1723 86.1465 20.853 94.0622 22.4953 105.501C22.5338 105.762 22.4569 106.023 22.2915 106.227C22.1223 106.431 21.88 106.556 21.6107 106.575C20.8492 106.632 18.6338 107.059 18.3146 108.229C18.403 108.304 18.7184 108.456 19.43 108.494C19.7069 108.509 19.9684 108.641 20.1377 108.861C20.4261 109.224 20.6838 109.909 20.48 110.635C20.2607 111.411 19.5915 112.035 18.4915 112.489C18.4223 112.569 18.3646 112.671 18.3723 112.712C18.3877 112.799 18.63 113.129 19.5377 113.507C19.5607 113.518 19.5877 113.53 19.6107 113.541C19.9684 113.723 20.3723 114.154 20.3492 114.756C20.3184 115.52 19.6415 115.997 19.003 116.311C18.9838 116.398 18.9761 116.492 19.0146 116.557C19.03 116.583 19.4646 117.211 22.2915 117.026C22.8223 116.996 23.28 117.385 23.3146 117.908C23.3492 118.43 22.9492 118.88 22.4184 118.914C22.0338 118.941 21.6723 118.952 21.3338 118.952L21.3377 118.948ZM18.303 108.308C18.303 108.308 18.2992 108.331 18.2953 108.342C18.2953 108.331 18.303 108.319 18.303 108.308Z" fill="black"/>
<path d="M56.6348 177.275C56.2156 177.275 55.831 177.003 55.7118 176.587C53.481 168.864 53.2579 158.33 53.2502 157.883C53.2387 157.361 53.6618 156.93 54.1925 156.919C54.7233 156.9 55.1618 157.323 55.1733 157.846C55.1733 157.952 55.4002 168.58 57.5618 176.065C57.7079 176.568 57.4118 177.09 56.9002 177.234C56.8118 177.256 56.7233 177.272 56.6387 177.272L56.6348 177.275Z" fill="black"/>
<path d="M68.6393 176.182H68.6316C68.1008 176.182 67.6739 175.75 67.6778 175.228C67.7662 162.851 67.7085 156.888 67.7085 156.831C67.7047 156.309 68.1278 155.882 68.6624 155.878H68.6739C69.2008 155.878 69.6316 156.294 69.6355 156.816C69.6355 156.877 69.6931 162.851 69.6047 175.247C69.6047 175.765 69.1701 176.185 68.6431 176.185L68.6393 176.182Z" fill="black"/>
<path d="M50.4505 178.251C49.9697 178.251 49.5544 177.896 49.4967 177.415C48.4351 168.489 48.4082 157.94 48.4082 157.834C48.4082 157.312 48.839 156.888 49.3697 156.888C49.9005 156.888 50.3313 157.312 50.3313 157.834C50.3313 157.94 50.3582 168.383 51.4044 177.2C51.4659 177.718 51.089 178.187 50.5621 178.248C50.5236 178.251 50.4851 178.255 50.4505 178.255V178.251Z" fill="black"/>
<path d="M40.6684 180.541C40.2453 180.541 39.8568 180.264 39.7414 179.841C36.0722 166.51 35.6491 158.224 35.6337 157.876C35.6107 157.354 36.0184 156.911 36.5491 156.888C37.0761 156.873 37.5299 157.266 37.553 157.789C37.5568 157.872 37.9876 166.234 41.5953 179.345C41.7337 179.848 41.4299 180.37 40.9184 180.507C40.8337 180.529 40.7491 180.541 40.6645 180.541H40.6684Z" fill="black"/>
<path d="M49.1186 198.919H29.0994C28.8378 198.919 28.5878 198.813 28.4032 198.627C26.634 196.807 26.8186 195.142 27.284 194.068C28.7186 190.765 34.7455 188.71 35.2417 188.71C35.7724 188.71 36.2032 189.134 36.2032 189.656C36.2032 190.11 35.8801 190.488 35.4494 190.579C34.2071 190.931 29.5648 192.899 28.9571 195.086C28.8917 195.328 28.6994 196.016 29.534 197.023H49.1225C49.6532 197.023 50.084 197.447 50.084 197.969C50.084 198.491 49.6532 198.915 49.1225 198.915L49.1186 198.919Z" fill="black"/>
<path d="M56.0727 90.9327C54.2727 90.9327 52.6958 90.4068 51.3766 89.37C48.2919 86.9409 47.7843 82.5668 47.765 82.3814C47.7381 82.1241 47.815 81.8668 47.9843 81.67C48.1535 81.4733 48.3958 81.3522 48.6573 81.3371L63.2766 80.4365C63.5573 80.4214 63.8343 80.5236 64.0304 80.7241C64.2266 80.9246 64.3227 81.1971 64.2958 81.4733C63.8919 85.5257 62.7189 90.2517 57.1919 90.8722C56.8112 90.9138 56.4381 90.9365 56.0727 90.9365V90.9327ZM49.8612 83.1533C50.165 84.4095 50.9035 86.5776 52.5843 87.8944C53.7535 88.8138 55.2304 89.1809 56.9727 88.9841C60.0535 88.6398 61.6266 86.7063 62.2458 82.3852L49.8612 83.1495V83.1533Z" fill="black"/>
<path d="M57.3622 94.5996C56.8622 94.5996 56.443 94.2212 56.4045 93.7218L56.1276 89.9985C56.0891 89.4764 56.4853 89.0223 57.016 88.9845C57.5468 88.9466 58.0084 89.3364 58.0468 89.8585L58.3237 93.5818C58.3622 94.1039 57.966 94.558 57.4353 94.5958C57.4122 94.5958 57.3891 94.5958 57.3622 94.5958V94.5996Z" fill="black"/>
<path d="M58.6467 110.62C58.1583 110.62 57.739 110.257 57.6929 109.769L57.466 107.529C57.4121 107.01 57.7967 106.545 58.3275 106.492C58.8621 106.439 59.3275 106.817 59.3813 107.339L59.6083 109.579C59.6621 110.098 59.2775 110.563 58.7467 110.616C58.716 110.616 58.6814 110.62 58.6506 110.62H58.6467Z" fill="black"/>
<path d="M56.0261 111.57C55.5646 111.57 55.1569 111.24 55.08 110.779C54.9915 110.264 55.3453 109.776 55.8684 109.689L61.6377 108.739C62.1646 108.652 62.6569 109 62.7453 109.515C62.8338 110.03 62.48 110.518 61.9569 110.605L56.1877 111.555C56.1338 111.562 56.08 111.566 56.0261 111.566V111.57Z" fill="black"/>
<path d="M49.2998 198.54C49.1036 198.54 48.9152 198.483 48.7536 198.374C48.669 198.317 46.6459 196.913 46.8459 194.692C47.0267 192.675 48.9844 190.817 52.6575 189.175C53.1421 188.959 53.7113 189.168 53.9305 189.644C54.1498 190.121 53.9382 190.681 53.4536 190.897C50.5498 192.198 48.8844 193.602 48.7613 194.851C48.6805 195.664 49.2921 196.334 49.6305 196.641L70.3229 196.088C71.2421 193.235 69.6498 190.303 69.6344 190.272C69.5459 190.113 69.5075 189.936 69.519 189.758L70.5036 175.501L62.0613 178.963C61.8421 179.053 61.5959 179.061 61.369 178.982L54.5113 176.594L56.8382 188.452C56.9382 188.967 56.5998 189.463 56.0767 189.561C55.5536 189.659 55.0498 189.326 54.9498 188.812L52.3036 175.33C52.2382 174.997 52.3575 174.657 52.619 174.433C52.8805 174.21 53.2421 174.146 53.5652 174.259L61.6575 177.075L71.1921 173.162C71.4998 173.037 71.8536 173.075 72.1229 173.268C72.3921 173.457 72.5459 173.775 72.5229 174.101L71.4498 189.629C71.9152 190.598 73.3536 194.056 71.869 197.397C71.719 197.734 71.3882 197.953 71.0152 197.965L49.319 198.544C49.319 198.544 49.3036 198.544 49.2921 198.544L49.2998 198.54Z" fill="black"/>
<path d="M39.762 188.358C39.3543 188.358 38.9774 188.101 38.8466 187.699L36.0658 179.182C35.962 178.864 36.0351 178.516 36.262 178.267C36.4889 178.017 36.8312 177.899 37.162 177.964L44.8389 179.417L52.1466 175.239C52.6043 174.978 53.1928 175.13 53.462 175.584C53.7274 176.034 53.5735 176.613 53.112 176.878L45.4928 181.233C45.2928 181.347 45.0582 181.388 44.8274 181.343L38.3889 180.124L40.6735 187.124C40.8351 187.62 40.5582 188.154 40.0505 188.312C39.9543 188.343 39.8543 188.358 39.7582 188.358H39.762Z" fill="black"/>
<path d="M70.4202 53.2614C69.951 53.2614 69.5394 52.9208 69.4702 52.4517C69.3933 51.9333 69.7587 51.4527 70.2817 51.3771C70.601 51.3317 70.924 51.2408 71.2317 51.1084C72.2202 50.6884 73.0317 49.8333 73.4587 48.7663C75.151 44.5322 74.2933 42.7387 73.5587 42.3452C72.5971 42.1522 71.8625 42.2657 71.3125 42.6857C70.1779 43.5522 70.1048 45.4706 70.1048 45.4895C70.0933 45.8376 69.8894 46.1554 69.5702 46.3068C69.251 46.4619 68.8741 46.4354 68.5856 46.2311C63.8471 42.9127 60.9587 43.31 60.9279 43.3138C60.6317 43.3592 60.324 43.2684 60.1087 43.0641C59.8933 42.8598 59.7779 42.5722 59.8087 42.2771C60.1433 39.2198 59.8548 35.6592 59.5779 33.3587C57.8433 36.4349 56.8279 40.3246 56.8164 40.3738C56.6856 40.8771 56.1664 41.1835 55.6548 41.0587C41.5087 37.6608 26.7779 40.7371 26.6317 40.7673C26.3779 40.8203 26.1125 40.7749 25.8971 40.6311C25.6817 40.4911 25.5317 40.2717 25.4817 40.0181C25.3779 39.4846 23.0317 26.8922 30.574 18.2311C35.3356 12.7673 42.9125 10.1792 53.1202 10.5311C53.7087 10.5462 67.7971 11.023 75.8741 21.1749C81.1779 27.8419 82.5664 37.0592 79.9971 48.5733C79.8856 49.0841 79.374 49.4095 78.851 49.296C78.3317 49.1825 78.0048 48.6792 78.1164 48.1684C80.5548 37.2333 79.2894 28.5419 74.3548 22.3403C66.8317 12.8846 53.1933 12.4268 53.0548 12.423C43.4664 12.09 36.3971 14.4549 32.0394 19.4533C26.2279 26.1165 26.8548 35.7046 27.2279 38.7203C30.7702 38.0808 42.9164 36.2798 55.201 39.0079C55.7587 37.1349 57.224 32.7911 59.4356 30.169C59.674 29.8852 60.0587 29.7641 60.4202 29.8587C60.7817 29.9533 61.0548 30.2446 61.1202 30.6079C61.1664 30.8576 62.1433 36.4198 61.8048 41.4219C63.1125 41.5203 65.4125 41.9971 68.4317 43.8587C68.6817 42.9808 69.1664 41.9176 70.1125 41.1911C71.151 40.3927 72.4817 40.1619 74.0664 40.51C74.1087 40.5176 74.151 40.5327 74.1933 40.5479C74.3048 40.5895 75.3048 40.9868 75.9048 42.3073C76.6779 44.0062 76.451 46.4127 75.2356 49.4549C74.6202 50.9911 73.4356 52.2246 71.9817 52.8452C71.5164 53.0419 71.0356 53.1781 70.5471 53.25C70.501 53.2576 70.451 53.2614 70.4048 53.2614H70.4202Z" fill="black"/>
<path d="M49.6082 76.6303C47.3774 76.6303 44.8928 76.4221 42.1428 75.9227C41.6197 75.8281 41.2774 75.3324 41.3736 74.8216C41.4697 74.307 41.9697 73.9665 42.4928 74.0649C55.8928 76.513 62.5582 71.5297 63.4544 70.7919C68.4697 61.5973 67.6659 50.1892 67.6544 50.0757C67.6159 49.5535 68.0121 49.0995 68.539 49.0616C69.0697 49.02 69.5313 49.4135 69.5697 49.9319C69.6082 50.4238 70.4428 62.1232 65.0582 71.8438C65.0082 71.9308 64.9467 72.014 64.8736 72.0822C64.6313 72.3054 59.7967 76.634 49.6005 76.634L49.6082 76.6303Z" fill="black"/>
<path d="M53.1574 54.9759C52.7459 54.9759 52.3767 54.9305 52.0921 54.8586C50.6651 54.5029 49.6805 53.6289 49.3959 52.4635C49.142 51.4267 49.4921 50.3143 50.2882 49.6294C51.869 48.271 53.7382 48.2408 55.1997 48.6797C55.1151 48.5435 55.019 48.4148 54.9074 48.3013C54.3344 47.711 53.3882 47.4916 52.1036 47.6505C52.0844 47.6505 52.069 47.6543 52.0497 47.6543C52.0382 47.6543 51.2036 47.764 50.4574 48.85C50.1613 49.2813 49.5613 49.3948 49.1228 49.1035C48.6844 48.8121 48.5651 48.2219 48.8651 47.7905C50.0767 46.0273 51.5844 45.8002 51.8882 45.77C53.8074 45.5429 55.292 45.9554 56.3074 46.9997C58.069 48.8197 57.5651 51.8316 57.5421 51.9602C57.5344 51.9943 57.5267 52.0283 57.519 52.0624C56.8459 54.344 54.6959 54.9721 53.1574 54.9721V54.9759ZM53.5267 50.3067C52.8921 50.3067 52.2036 50.4959 51.5574 51.0521C51.3036 51.2716 51.1844 51.6727 51.269 52.0208C51.3805 52.4862 51.842 52.8419 52.569 53.0235C52.5959 53.031 55.0613 53.4473 55.6574 51.5856C55.6805 51.4381 55.6997 51.2375 55.7036 50.9992C55.3267 50.7419 54.4882 50.3029 53.5267 50.3029V50.3067Z" fill="black"/>
<path d="M34.011 54.0715C33.5995 54.0715 33.2302 54.0261 32.9495 53.9542C31.5187 53.5985 30.5379 52.7245 30.2533 51.5591C29.9995 50.5223 30.3495 49.4099 31.1456 48.725C32.7264 47.3667 34.5995 47.3364 36.0572 47.7753C35.9726 47.6391 35.8764 47.5104 35.7649 47.3969C35.1918 46.8067 34.2495 46.591 32.961 46.7461C32.9418 46.7461 32.9264 46.7499 32.9072 46.7499C32.8956 46.7499 32.061 46.8596 31.3149 47.9456C31.0187 48.3769 30.4187 48.4904 29.9802 48.1991C29.5418 47.9077 29.4226 47.3175 29.7226 46.8861C30.9341 45.1229 32.4418 44.8958 32.7456 44.8656C34.6649 44.6348 36.1495 45.051 37.161 46.0953C38.9226 47.9153 38.4187 50.9272 38.3956 51.0558C38.3879 51.0899 38.3802 51.124 38.3726 51.158C37.6995 53.4396 35.5495 54.0677 34.011 54.0677V54.0715ZM34.3802 49.4023C33.7456 49.4023 33.0572 49.5915 32.411 50.1477C32.1572 50.3672 32.0379 50.7683 32.1226 51.1202C32.2341 51.5856 32.6956 51.9412 33.4226 52.1229C33.4456 52.1267 35.9149 52.5429 36.511 50.685C36.5341 50.5375 36.5533 50.3331 36.5572 50.0985C36.1802 49.8412 35.3418 49.4023 34.3802 49.4023Z" fill="black"/>
<path d="M71.5537 74.4508C70.4537 74.4508 69.2576 74.3524 67.9537 74.1254C67.4307 74.0346 67.0807 73.5427 67.173 73.0281C67.2653 72.5135 67.7653 72.173 68.2845 72.26C75.5114 73.5087 78.9807 70.4022 80.1461 68.9908C77.5614 66.8341 76.2153 63.3984 76.2384 58.9903C76.2537 55.4524 77.1345 52.5427 77.173 52.4216C77.3268 51.9222 77.8653 51.6384 78.3691 51.7897C78.8768 51.9411 79.1653 52.467 79.0114 52.9665C78.9768 53.0724 75.7961 63.7995 82.0076 68.0108C82.4114 68.287 82.5422 68.8168 82.3076 69.2406C82.1768 69.4827 79.3422 74.4433 71.5537 74.4433V74.4508Z" fill="black"/>
<path d="M31.7503 74.4282C26.9272 74.4282 22.9772 72.279 22.7657 72.1617C22.5311 72.0331 22.3618 71.8098 22.3003 71.5487C22.2388 71.2877 22.2926 71.019 22.4465 70.7996C26.1542 65.5174 26.858 50.4504 26.8657 50.299C26.8888 49.7768 27.3388 49.3758 27.8695 49.3947C28.4003 49.4174 28.8118 49.8601 28.7888 50.3823C28.7618 50.9914 28.1195 64.6623 24.6157 70.9433C26.4888 71.7606 30.9888 73.3423 35.3734 72.0255C35.8811 71.8742 36.4195 72.1541 36.5734 72.6536C36.7272 73.1531 36.4426 73.6828 35.9349 73.8342C34.5157 74.2617 33.1003 74.4282 31.7542 74.4282H31.7503Z" fill="black"/>
<path d="M45.8426 68.5555C45.5003 68.5555 45.1657 68.3738 44.9926 68.056C44.7426 67.5944 44.9195 67.023 45.3888 66.7771C46.4772 66.2057 47.1541 65.5587 47.3464 64.9003C47.358 64.8587 47.3695 64.8133 47.3772 64.7717C45.2426 65.6646 43.9157 65.7782 43.1349 65.1538C42.5695 64.6998 42.5003 64.0263 42.6118 63.5836C42.6465 63.4511 42.708 63.3301 42.7926 63.2241C43.4541 62.4144 43.8234 61.8392 44.0349 61.4495C42.408 61.7522 41.3195 61.6917 40.6618 61.2717C40.1926 60.969 40.0772 60.5755 40.0541 60.4203C40.0541 60.4052 40.0503 60.3901 40.0465 60.3749C39.558 56.1976 41.1426 53.636 41.2118 53.5263C41.4926 53.0836 42.0849 52.9474 42.5349 53.2236C42.9849 53.4998 43.1234 54.0787 42.8465 54.5214C42.8157 54.5706 41.658 56.523 41.9157 59.7279C42.258 59.7733 43.0811 59.7771 44.7849 59.3457C44.9503 59.3041 45.1234 59.3079 45.2849 59.3533C45.5964 59.4403 45.9888 59.7165 46.1541 60.2273C46.4118 61.0295 46.0311 62.0852 44.9195 63.5987C45.4195 63.4965 46.2734 63.2279 47.6618 62.5619C48.1041 62.35 48.6349 62.5014 48.8965 62.91C48.9657 63.0198 49.5695 64.0187 49.2118 65.3544C48.8849 66.5614 47.9041 67.6019 46.2926 68.4457C46.1465 68.5214 45.9926 68.5555 45.8426 68.5555Z" fill="black"/>
<path d="M44.8381 117.52C46.5534 117.048 47.2996 114.948 46.7842 113.381C46.1996 111.591 44.1804 111.111 44.0727 111.088C44.1534 111.077 45.9496 110.819 46.6304 109.226C46.6881 109.09 47.1496 107.951 46.565 106.79C45.9342 105.541 44.4881 105.042 43.3304 105.148C42.3804 105.235 41.7188 105.719 41.4419 105.946C41.3458 103.713 39.6727 102.03 37.8381 101.946C36.4573 101.886 34.7265 102.718 34.3227 104.368C33.9996 105.677 34.6073 107.111 35.8611 107.913C34.1342 107.528 32.3996 108.186 31.5534 109.514C30.8534 110.615 30.6304 112.378 31.7304 113.578C32.5188 114.437 33.7881 114.789 35.0304 114.509C34.9227 114.679 34.1611 115.901 34.6496 117.316C35.1111 118.648 36.4342 119.443 37.6419 119.473C39.3534 119.518 41.0419 118.028 41.2573 115.916C42.0534 117.241 43.5573 117.88 44.8381 117.524V117.52Z" fill="#FFF080"/>
<path d="M37.7192 120.415C37.6846 120.415 37.65 120.415 37.6154 120.415C35.8846 120.369 34.2923 119.219 33.7385 117.619C33.4692 116.839 33.4846 116.113 33.6115 115.515C32.6077 115.39 31.6846 114.94 31.0154 114.213C29.5615 112.628 29.8539 110.407 30.7385 109.014C31.4077 107.959 32.5 107.247 33.7462 106.979C33.2962 106.108 33.1539 105.109 33.3885 104.148C33.9154 102.003 36.0923 100.925 37.8808 101.004C39.8423 101.091 41.5154 102.518 42.1423 104.455C42.4692 104.334 42.8346 104.243 43.2423 104.205C44.7192 104.069 46.5808 104.689 47.4269 106.369C48.1808 107.868 47.6346 109.317 47.5192 109.593C47.2231 110.286 46.7769 110.781 46.3039 111.141C46.8962 111.606 47.4269 112.246 47.7039 113.09C48.0692 114.213 47.9423 115.519 47.3615 116.59C46.8577 117.513 46.0539 118.167 45.1039 118.432C43.9462 118.754 42.7077 118.489 41.7115 117.781C40.9385 119.355 39.4154 120.419 37.7231 120.419L37.7192 120.415ZM35.0308 113.562C35.3385 113.562 35.6346 113.706 35.8154 113.964C36.0385 114.278 36.05 114.69 35.8423 115.015C35.7346 115.178 35.2269 116.048 35.5577 117.013C35.8923 117.982 36.8692 118.508 37.6615 118.527C38.7808 118.553 40.1231 117.528 40.2962 115.818C40.3385 115.413 40.6423 115.076 41.0462 114.989C41.45 114.902 41.8692 115.08 42.0808 115.432C42.6385 116.362 43.6885 116.854 44.5731 116.612C45.1423 116.453 45.4769 116.026 45.6577 115.697C45.9923 115.084 46.0731 114.308 45.8654 113.672C45.4462 112.39 43.8731 112.015 43.8539 112.011C43.4 111.909 43.0846 111.5 43.1077 111.042C43.1308 110.585 43.4808 110.21 43.9423 110.15C43.9923 110.142 45.2692 109.953 45.7346 108.863C45.7731 108.776 46.0846 107.989 45.6962 107.209C45.2577 106.335 44.2039 106.014 43.4115 106.089C42.8 106.146 42.3385 106.434 42.0539 106.668C41.7731 106.903 41.3808 106.956 41.0462 106.812C40.7115 106.668 40.4885 106.347 40.4731 105.987C40.4039 104.345 39.1962 102.957 37.7846 102.896C36.9 102.858 35.55 103.361 35.2462 104.595C35.0154 105.529 35.4692 106.547 36.3731 107.126C36.7654 107.376 36.9154 107.864 36.7346 108.288C36.5539 108.712 36.0923 108.946 35.6346 108.84C34.3115 108.545 32.9923 109.018 32.3577 110.021C31.9269 110.694 31.5923 112.034 32.4308 112.95C32.9808 113.551 33.8923 113.797 34.8039 113.593C34.8731 113.578 34.9462 113.57 35.0192 113.57L35.0308 113.562Z" fill="black"/>
<path d="M63.9325 138.28C65.5206 139.082 67.4844 138.028 68.1555 136.522C68.9254 134.804 67.753 133.091 67.6885 133.002C67.756 133.048 69.259 134.064 70.8336 133.342C70.9679 133.28 72.075 132.747 72.4228 131.494C72.7948 130.145 72.0596 128.803 71.1311 128.104C70.3691 127.53 69.5537 127.444 69.1961 127.426C70.6252 125.708 70.5178 123.337 69.2151 122.042C68.2333 121.07 66.3922 120.523 64.9845 121.473C63.8655 122.226 63.3517 123.696 63.7411 125.133C62.7217 123.686 60.9947 123.008 59.4756 123.423C58.2173 123.768 56.8671 124.924 56.8756 126.551C56.8823 127.717 57.5857 128.831 58.6938 129.458C58.4996 129.512 57.1143 129.905 56.525 131.281C55.9717 132.578 56.4175 134.055 57.2915 134.889C58.5284 136.073 60.7806 136.104 62.359 134.685C62.0586 136.201 62.7425 137.685 63.9299 138.282L63.9325 138.28Z" fill="#FFF080"/>
<path d="M56.7105 135.635C56.6849 135.612 56.6592 135.588 56.6336 135.565C55.3824 134.368 54.9763 132.447 55.6418 130.889C55.9663 130.131 56.4659 129.603 56.9642 129.243C56.3047 128.476 55.9238 127.522 55.9193 126.537C55.9081 124.386 57.6172 122.938 59.208 122.501C60.4131 122.169 61.7 122.376 62.8033 123.015C63.055 122.068 63.6209 121.233 64.4405 120.679C66.2725 119.444 68.601 120.106 69.8802 121.369C71.2743 122.752 71.5546 124.933 70.7169 126.789C71.0404 126.919 71.372 127.097 71.6993 127.343C72.8763 128.232 73.846 129.945 73.3436 131.758C72.8949 133.374 71.5166 134.08 71.2455 134.207C70.5608 134.521 69.8948 134.591 69.3054 134.536C69.4313 135.279 69.3946 136.109 69.0326 136.92C68.548 137.998 67.5767 138.879 66.427 139.282C65.4335 139.627 64.3983 139.572 63.5168 139.129C62.4433 138.589 61.7042 137.561 61.4421 136.368C59.8118 137.014 57.9694 136.777 56.7162 135.64L56.7105 135.635ZM59.3275 128.756C59.5554 128.963 59.6755 129.272 59.639 129.581C59.5932 129.963 59.322 130.279 58.9521 130.378C58.7658 130.429 57.8047 130.726 57.4012 131.663C56.9981 132.605 57.368 133.651 57.9449 134.2C58.7584 134.969 60.4362 135.112 61.7165 133.965C62.02 133.693 62.4713 133.648 62.8288 133.855C63.1863 134.062 63.3773 134.476 63.2974 134.878C63.0874 135.94 63.529 137.01 64.3497 137.427C64.878 137.692 65.4131 137.601 65.7682 137.478C66.428 137.249 67.009 136.729 67.2824 136.119C67.834 134.887 66.9209 133.553 66.9092 133.537C66.6417 133.156 66.6828 132.642 67.0076 132.318C67.3324 131.995 67.8461 131.955 68.2261 132.223C68.2682 132.251 69.3409 132.969 70.415 132.472C70.502 132.434 71.2616 132.06 71.4977 131.222C71.7604 130.28 71.1933 129.331 70.5586 128.857C70.0705 128.491 69.53 128.394 69.1642 128.374C68.7986 128.359 68.4725 128.134 68.3213 127.803C68.1702 127.472 68.2211 127.083 68.4513 126.807C69.5036 125.544 69.5425 123.704 68.5379 122.711C67.9168 122.096 66.5729 121.551 65.5164 122.263C64.7174 122.8 64.3695 123.859 64.6498 124.895C64.7724 125.344 64.5555 125.806 64.1368 125.998C63.7182 126.19 63.2184 126.049 62.951 125.668C62.1696 124.56 60.8748 124.024 59.731 124.34C58.9594 124.549 57.8115 125.316 57.817 126.558C57.82 127.373 58.3297 128.168 59.142 128.629C59.2063 128.667 59.2627 128.708 59.3168 128.757L59.3275 128.756Z" fill="black"/>
</svg>
