<svg width="100" height="210" viewBox="0 0 100 210" fill="none" xmlns="http://www.w3.org/2000/svg">
<path d="M73.3649 40.6366C50.3065 33.0943 36.8222 54.5609 36.8222 54.5609C32.4689 50.9249 29.7846 56.0852 29.7846 56.0852C28.3926 64.4348 37.6899 63.1375 37.6899 63.1375C38.7459 83.1735 53.6295 89.7717 53.6295 89.7717C67.4203 92.4348 69.2923 85.1411 69.2923 85.1411C76.3852 71.6636 79.9926 54.5609 79.9926 54.5609C79.9926 54.5609 83.4339 43.9303 73.3612 40.6366H73.3649Z" fill="white"/>
<path d="M28.8728 166.655C28.8728 166.655 28.6697 184.904 30.7115 187.851C30.7115 187.851 38.3288 187.905 40.7066 185.087C40.7066 185.087 40.9282 172.302 42.1762 166.651H28.8765L28.8728 166.655Z" fill="white"/>
<path d="M50.9573 166.654C50.9573 166.654 48.3542 179.126 50.2853 185.735C50.2853 185.735 55.9013 186.29 61.4693 183.894C61.4693 183.894 61.7832 174.517 63.9247 166.654H50.9573Z" fill="white"/>
<path d="M29.367 181.505H40.8094L40.7024 185.09C40.7024 185.09 37.8482 188.301 30.7073 187.854L29.3633 181.505H29.367Z" fill="#FFBA57"/>
<path d="M49.5676 179.242H61.7855L61.4605 184.741C61.4605 184.741 55.6673 187.548 50.2765 185.736C50.2765 185.736 49.1984 180.994 49.5639 179.242H49.5676Z" fill="#FFBA57"/>
<path d="M28.0499 199.534C28.0499 199.534 26.861 195.022 28.0499 187.48C28.0499 187.48 37.624 188.641 39.917 184.813C39.917 184.813 51.6179 187.866 53.7336 195.466C53.7336 195.466 53.9256 198.453 52.5853 199.534H28.1422" fill="#67A9F9"/>
<path d="M49.2354 198.374C49.2354 198.374 46.8022 194.338 49.5677 185.79C49.5677 185.79 56.8637 186.049 61.4643 183.895C61.4643 183.895 79.5419 189.354 75.8569 198.374H49.2354Z" fill="#67A9F9"/>
<path d="M49.8903 47.2959C52.2903 47.1446 56.566 46.4851 61.1075 43.9265C61.1075 43.9265 61.2811 45.7355 60.7309 47.3139C60.7309 47.3139 66.4835 46.4527 70.4971 39.3067C70.4971 39.3067 54.6829 34.9968 43.75 45.1842C43.75 45.1842 43.8571 45.2887 44.0602 45.4545C45.6774 46.7878 47.7783 47.4256 49.8903 47.2923V47.2959Z" fill="#FFF080"/>
<path d="M20.7757 169.033L52.1677 169.689L52.2268 168.114L73.3652 168.636L72.3572 137.735L23.6224 136.398C23.6224 136.398 20.0557 159.663 20.7757 169.033Z" fill="#FFF080"/>
<path d="M73.1799 162.99L72.711 148.633L66.5079 149.181L65.8691 162.99H73.1799Z" fill="#FFBA57"/>
<path d="M20.7754 162.45L33.6542 161.588L33.7354 148.634L22.1231 147.549L20.7754 162.45Z" fill="#FFBA57"/>
<path d="M74.3983 134.784C73.6008 133.393 74.3983 132.139 74.3983 132.139C79.2315 128.453 76.2666 127.408 76.2666 127.408C74.1989 126.435 74.3983 124.453 74.3983 124.453C73.73 113.999 72.7478 91.7968 72.7478 91.7968V82.4599H70.5731C68.7417 88.1139 61.1466 88.7193 61.1466 88.7193C46.4069 89.8112 45.0334 79.7175 45.0334 79.7175L41.6918 76.5752L38.8303 76.9752C38.8303 76.9752 16.4143 78.9067 19.154 98.6184C19.154 98.6184 19.7448 103.375 23.2118 107.033C23.2118 107.033 24.5485 112.795 22.3885 117.177C22.3885 117.177 20.0032 119.541 23.0051 123.44C23.0051 123.44 24.1755 125.39 21.4912 127.336C21.4912 127.336 17.4851 130.017 20.6789 133.876L74.3983 134.781V134.784Z" fill="#2BE6AE"/>
<path d="M20.6797 137.739L74.3991 138.921V134.784L20.6797 133.88V137.739Z" fill="#2BE6AE"/>
<path d="M74.3995 120.456C74.3995 120.456 82.5411 111.88 80.7392 95.7789C80.7392 95.7789 79.8937 86.8311 72.7528 82.46L71.7891 92.2906L74.4032 120.456H74.3995Z" fill="#2BE6AE"/>
<path d="M31.1739 53.4731C31.1739 53.4731 19.5469 32.1326 39.0718 21.0911C41.9001 19.4911 45.0016 18.3992 48.2029 17.7506L50.097 17.3686C50.097 17.3686 76.1536 12.1073 82.0909 36.9686C82.0909 36.9686 59.0435 31.7146 36.8232 53.4731C36.8232 53.4731 34.8109 51.8911 31.1739 53.4731Z" fill="#F8B3FF"/>
<path d="M52.5371 42.0781C52.5371 42.0781 68.3217 36.7663 77.0688 44.5429C79.454 46.6618 80.7463 49.7609 80.4325 52.8961C80.3697 53.5447 80.2368 54.1357 79.9968 54.5609C79.9968 54.5609 96.003 51.2492 93.6546 43.9771C93.6546 43.9771 92.2257 39.4762 83.9697 37.5015C83.9697 37.5015 75.1783 34.8781 60.9851 38.7699C59.5377 39.1663 58.1199 39.6708 56.7426 40.2654L52.5408 42.0817L52.5371 42.0781Z" fill="#FACCFF"/>
<path d="M43.7266 92.291L57.1666 93.646L51.5173 117.642L43.7266 116.893V92.291Z" fill="white"/>
<path d="M35.131 99.624C35.131 99.624 37.5125 101.357 39.3513 101.422C39.3513 101.422 35.9913 107.073 37.9704 110.752C37.9704 110.752 35.3562 111.087 33.4325 111.174C33.4325 111.174 32.3175 103.837 35.1347 99.624H35.131Z" fill="#2BE6AE"/>
<path d="M43.6055 101.458L55.2695 101.836L51.5809 117.699L43.6055 116.881V101.458Z" fill="#FF6A2F"/>
<path d="M41.4742 111.736C48.7886 113.617 47.2932 110.366 47.2932 110.366C46.9536 109.458 47.9283 108.921 47.9283 108.921C49.6637 107.804 48.3086 106.773 48.3086 106.773C47.3339 106.114 48.1388 104.957 48.1388 104.957C49.7486 103.303 47.2083 102.766 47.2083 102.766C45.2182 102.352 46.6139 100.773 46.6139 100.773C48.0945 97.9951 45.1739 98.5104 45.1739 98.5104C43.0582 98.7158 41.2526 99.7248 41.2526 99.7248L38.8268 101.458C38.8268 101.458 36.0982 107.588 37.9665 110.748L41.4668 111.736H41.4742Z" fill="white"/>
<path d="M80.0252 54.3731C79.9772 54.3731 79.9292 54.3731 79.8812 54.3623C79.3791 54.2867 79.032 53.8254 79.1132 53.3317C80.2947 46.002 74.8301 43.7425 74.5975 43.6524C74.5754 43.6452 74.5495 43.6344 74.5274 43.6236C66.5261 39.7173 58.0117 40.1101 49.2277 44.7912C42.5631 48.3407 38.1434 53.1839 37.6523 53.865C37.5046 54.1641 37.1871 54.3731 36.8215 54.3731C36.312 54.3731 35.8984 53.9695 35.8984 53.4722C35.8984 53.2704 35.8984 52.7299 38.8929 49.9587C40.4806 48.4885 43.0726 46.3191 46.392 44.3155C53.2634 40.1713 63.8566 36.4056 75.336 41.9984C75.9821 42.2758 82.2886 45.2272 80.9372 53.6092C80.8671 54.0524 80.472 54.3695 80.0252 54.3695V54.3731Z" fill="#231F20"/>
<path d="M84.7334 53.728C84.3457 53.728 83.9838 53.4866 83.8546 53.1046C83.6958 52.6325 83.9617 52.1244 84.4491 51.9695C89.4263 50.3911 92.273 48.4271 92.6792 46.283C93.1112 44.0127 90.6743 42.0487 90.6484 42.0307C76.3555 30.9677 55.8337 42.0019 55.6269 42.1136C55.1838 42.3586 54.6189 42.2037 54.3715 41.7713C54.1241 41.3388 54.2792 40.7875 54.7223 40.546C54.9438 40.4235 60.2017 37.5622 67.4017 36.1028C77.0238 34.1496 85.4607 35.7136 91.8041 40.6253C91.9444 40.737 95.1235 43.274 94.4995 46.6001C93.9604 49.4758 90.7703 51.8577 85.0214 53.6812C84.9254 53.71 84.8294 53.7244 84.7371 53.7244L84.7334 53.728Z" fill="#231F20"/>
<path d="M31.1732 54.3731C30.8446 54.3731 30.5234 54.2002 30.3572 53.8938C30.0988 53.4182 24.0729 42.1497 28.3006 31.4938C30.8077 25.1767 36.3868 20.474 44.8864 17.5083C45.3628 17.3389 45.8944 17.5839 46.068 18.0524C46.2378 18.5209 45.9904 19.0362 45.5104 19.2056C37.5424 21.9839 32.3363 26.3335 30.0286 32.1353C26.1037 42.0128 31.9301 52.9425 31.9892 53.0506C32.2292 53.4902 32.0557 54.0344 31.6052 54.2686C31.4686 54.3407 31.3172 54.3731 31.1732 54.3731Z" fill="#231F20"/>
<path d="M82.0899 37.8688C81.669 37.8688 81.2924 37.5877 81.1927 37.1733C78.8185 27.2382 72.9367 21.0364 63.7022 18.7337C56.7274 16.9931 50.3471 18.2364 50.2844 18.2508C49.7859 18.3517 49.2985 18.0382 49.1951 17.5517C49.0917 17.0652 49.413 16.5895 49.9114 16.4886C50.1847 16.4346 56.7164 15.1517 64.0973 16.9751C70.965 18.6724 79.8191 23.4832 82.9945 36.7661C83.109 37.249 82.8025 37.7355 82.3041 37.8472C82.2339 37.8616 82.1637 37.8724 82.0936 37.8724L82.0899 37.8688Z" fill="#231F20"/>
<path d="M50.0933 48.2183C49.6133 48.2183 49.2071 47.8543 49.1739 47.3786C49.1406 46.8813 49.5246 46.4525 50.0342 46.4201C55.3917 46.0705 60.5942 43.1804 60.6496 43.1516C60.908 43.0039 61.2256 42.993 61.4951 43.1156C61.7683 43.2381 61.9603 43.4795 62.0157 43.7678C62.1597 44.5282 62.097 45.3642 61.9825 46.0597C66.753 44.4849 68.3591 40.5029 68.433 40.3192C68.6139 39.8543 69.1493 39.6201 69.6219 39.7966C70.0982 39.9732 70.3382 40.4885 70.161 40.9534C70.0687 41.1912 67.8311 46.8309 60.9154 48.2002C60.5942 48.2651 60.2582 48.1534 60.0403 47.912C59.8225 47.6705 59.7523 47.3318 59.8594 47.0291C59.9591 46.7444 60.1363 46.0921 60.2176 45.4002C58.2237 46.3444 54.2951 47.948 50.1597 48.2183C50.1376 48.2183 50.1191 48.2183 50.097 48.2183H50.0933Z" fill="#231F20"/>
<path d="M33.2306 62.9065C31.5838 62.9065 30.3358 62.4668 29.5051 61.5839C27.5445 59.5047 28.8626 55.9227 28.9217 55.7713C28.9328 55.7389 28.9475 55.7101 28.9623 55.6812C30.0478 53.5623 31.462 52.3767 33.1641 52.1497C36.0552 51.7605 38.5549 54.42 38.6583 54.5353C38.998 54.9065 38.9685 55.4758 38.5918 55.8074C38.2115 56.1389 37.6318 56.1101 37.2885 55.7425C37.27 55.7209 35.3352 53.6812 33.4078 53.9335C32.3592 54.074 31.4251 54.9173 30.6386 56.438C30.358 57.2236 29.8891 59.3353 30.8675 60.3659C31.7352 61.2812 33.7106 61.3533 36.5795 60.5749C37.0706 60.4416 37.5801 60.7227 37.7168 61.202C37.8534 61.6812 37.5654 62.1785 37.0743 62.3119C35.6158 62.7047 34.3346 62.9029 33.2343 62.9029L33.2306 62.9065Z" fill="#231F20"/>
<path d="M59.2088 84.3948C52.4666 84.3948 47.1349 82.7695 43.2876 79.5263C36.7522 74.02 37.0328 65.9551 37.0512 65.6164C37.0734 65.1191 37.5128 64.7443 38.0149 64.7551C38.5245 64.7767 38.9196 65.1984 38.8974 65.692C38.8974 65.7677 38.6537 73.2524 44.5134 78.1749C49.6974 82.5281 57.9756 83.6704 69.1226 81.5767C69.6211 81.4866 70.1085 81.8038 70.2045 82.2902C70.3005 82.7803 69.9719 83.2524 69.4734 83.3461C65.7589 84.0452 62.3325 84.3948 59.2125 84.3948H59.2088Z" fill="#231F20"/>
<path d="M59.9026 89.6776C59.1604 89.6776 58.6398 89.6235 58.4515 89.6019C45.3216 89.5731 44.1253 79.9118 44.1142 79.8145C44.0626 79.3208 44.4281 78.8776 44.9339 78.8235C45.4398 78.7767 45.8939 79.1298 45.9493 79.6199C45.9899 79.955 47.0312 87.8001 58.5106 87.8001C58.5549 87.8001 58.5992 87.8001 58.6435 87.8109C58.6989 87.8181 64.5696 88.5676 68.6349 84.51C68.993 84.1532 69.5764 84.1496 69.9419 84.4956C70.3075 84.8415 70.3112 85.4145 69.9567 85.7713C66.5413 89.1803 62.177 89.6812 59.9026 89.6812V89.6776Z" fill="#231F20"/>
<path d="M33.6175 112.074C30.1578 112.074 27.1708 111.216 24.6932 109.501C19.1548 105.67 18.2723 99.0109 18.2391 98.7298C17.4452 93.0073 18.6304 88.1568 21.7652 84.3262C27.6729 77.1118 38.2994 76.1172 38.7498 76.0812C39.2557 76.0343 39.7061 76.4019 39.7504 76.8992C39.7948 77.3965 39.4218 77.8325 38.9123 77.8758C38.8089 77.883 28.6034 78.8487 23.1978 85.4614C20.3954 88.892 19.3394 93.2776 20.0668 98.5028C20.0778 98.5749 20.9049 104.687 25.7751 108.045C29.0169 110.283 33.3443 110.838 38.6317 109.699C39.1301 109.591 39.6212 109.901 39.732 110.384C39.8428 110.87 39.5289 111.35 39.0304 111.458C37.1178 111.869 35.3123 112.074 33.6175 112.074Z" fill="#231F20"/>
<path d="M39.3553 102.319C39.3073 102.319 39.2593 102.319 39.2113 102.309C32.5873 101.307 31.114 94.6077 31.2617 91.2059C31.2839 90.7086 31.7122 90.3302 32.2217 90.3446C32.7313 90.3663 33.1264 90.7843 33.1042 91.2816C33.1042 91.3032 33.0267 93.4401 33.8205 95.6563C34.8285 98.4744 36.7374 100.114 39.4919 100.528C39.9977 100.604 40.3411 101.065 40.2636 101.555C40.1934 102.002 39.7984 102.319 39.3516 102.319H39.3553Z" fill="#231F20"/>
<path d="M76.2309 118.6C76.0721 118.6 75.9133 118.56 75.7693 118.478C75.3299 118.229 75.1786 117.678 75.4333 117.245C81.6253 106.845 80.8167 98.337 79.0481 93.0361C77.117 87.2452 73.6167 83.7533 73.0038 83.2884C72.7638 83.1875 72.5681 82.9893 72.4832 82.7262C72.3318 82.2506 72.605 81.7461 73.0924 81.5983C73.4542 81.4866 74.0007 81.3244 76.1386 83.9407C79.0222 87.4722 87.6105 100.373 77.0284 118.15C76.8585 118.438 76.5484 118.597 76.2309 118.597V118.6Z" fill="#231F20"/>
<path d="M33.6623 112.071C33.2562 112.071 32.8833 111.804 32.7725 111.404C30.6273 103.609 34.4857 99.2094 34.6519 99.0256C34.9879 98.6508 35.5713 98.6148 35.9553 98.9427C36.3356 99.2706 36.3762 99.8364 36.0402 100.211C35.8962 100.373 32.6802 104.121 34.5559 110.935C34.6888 111.415 34.3971 111.908 33.9023 112.038C33.8211 112.06 33.7399 112.071 33.6623 112.071Z" fill="#231F20"/>
<path d="M37.9712 111.652C37.5872 111.652 37.2327 111.418 37.0998 111.047C35.741 107.231 37.0776 104.344 37.133 104.222C37.3472 103.771 37.8973 103.573 38.3589 103.786C38.8204 103.995 39.0198 104.528 38.8093 104.978C38.7613 105.083 37.7422 107.364 38.8426 110.456C39.0087 110.924 38.7539 111.44 38.2739 111.602C38.1742 111.634 38.0709 111.652 37.9712 111.652Z" fill="#231F20"/>
<path d="M31.152 138.64H21.5852C21.0756 138.64 20.6621 138.237 20.6621 137.739C20.6621 137.242 21.0756 136.838 21.5852 136.838H31.152C31.6615 136.838 32.075 137.242 32.075 137.739C32.075 138.237 31.6615 138.64 31.152 138.64Z" fill="#231F20"/>
<path d="M74.3998 139.822C74.3998 139.822 74.3777 139.822 74.3629 139.822C59.59 139.271 37.2257 138.503 35.5494 138.615C35.2577 138.68 34.9438 138.608 34.7075 138.395C34.3346 138.053 34.3161 137.483 34.6669 137.123C34.913 136.866 37.2158 136.796 41.5752 136.914C44.8281 137 49.3438 137.141 54.9967 137.332C62.8614 137.599 70.7851 137.887 73.4731 137.988V136.258L22.3752 135.354C21.8657 135.343 21.4595 134.932 21.4669 134.438C21.478 133.945 21.8878 133.552 22.39 133.552H22.4084L74.4146 134.471C74.9167 134.481 75.3229 134.881 75.3229 135.372V138.921C75.3229 139.166 75.2195 139.4 75.0386 139.57C74.8651 139.732 74.6361 139.822 74.3998 139.822Z" fill="#231F20"/>
<path d="M52.1675 170.593C52.1675 170.593 52.1527 170.593 52.149 170.593L20.757 169.937C20.2881 169.926 19.9004 169.577 19.8561 169.119C19.8155 168.712 18.9478 158.888 22.965 137.577C23.0573 137.087 23.541 136.762 24.0395 136.852C24.5416 136.943 24.8739 137.411 24.7816 137.901C21.4475 155.573 21.5324 165.407 21.6468 168.15L51.2776 168.77C51.3515 166.752 51.5471 161.588 51.7835 156.452C52.4038 142.788 52.5995 142.64 53.0684 142.287C53.4708 141.984 54.0505 142.052 54.3644 142.449C54.5896 142.73 54.6118 143.101 54.4604 143.4C54.0948 144.986 53.4302 160.308 53.0905 169.725C53.0721 170.211 52.6659 170.593 52.1675 170.593Z" fill="#231F20"/>
<path d="M73.3645 169.541C73.3645 169.541 73.3497 169.541 73.3423 169.541L52.2039 169.019C51.6943 169.004 51.2919 168.593 51.303 168.096C51.314 167.599 51.735 167.195 52.2482 167.217L72.4119 167.718L71.4556 138.954C71.4408 138.456 71.8396 138.038 72.3491 138.024C72.3602 138.024 72.3676 138.024 72.3787 138.024C72.8734 138.024 73.2833 138.41 73.3017 138.896L74.2913 168.615C74.2987 168.864 74.2027 169.101 74.0254 169.278C73.8519 169.447 73.6156 169.545 73.3719 169.545L73.3645 169.541Z" fill="#231F20"/>
<path d="M30.2061 186.636C29.7814 186.636 29.4011 186.348 29.3051 185.93C27.8171 179.328 27.9501 170.071 27.9537 169.681C27.9611 169.188 28.3747 168.795 28.8768 168.795H28.8916C29.4011 168.802 29.8073 169.213 29.7999 169.71C29.7999 169.804 29.667 179.152 31.107 185.544C31.2177 186.031 30.9002 186.51 30.4054 186.618C30.339 186.633 30.2725 186.64 30.2061 186.64V186.636Z" fill="#231F20"/>
<path d="M40.7142 186.637C40.2158 186.637 39.8022 186.247 39.7912 185.757C39.6841 181.289 40.3302 174.042 40.6035 170.946C40.6662 170.219 40.7253 169.588 40.7253 169.473C40.7364 168.983 41.1462 168.583 41.6484 168.583H41.6521C42.1542 168.583 42.5641 168.972 42.5715 169.462C42.5715 169.599 42.5493 169.876 42.4422 171.101C42.169 174.168 41.5302 181.346 41.6373 185.714C41.6484 186.211 41.2459 186.622 40.7364 186.637C40.729 186.637 40.7216 186.637 40.7142 186.637Z" fill="#231F20"/>
<path d="M50.281 184.795C49.8527 184.795 49.4687 184.499 49.3764 184.074C48.2798 178.863 49.3173 169.757 49.3616 169.371C49.417 168.878 49.8711 168.517 50.3844 168.579C50.8902 168.636 51.2558 169.079 51.1967 169.577C51.1856 169.667 50.1481 178.788 51.1819 183.717C51.2853 184.204 50.9641 184.679 50.4619 184.78C50.3991 184.791 50.3364 184.798 50.2736 184.798L50.281 184.795Z" fill="#231F20"/>
<path d="M61.4657 183.346C61.4472 183.346 61.4251 183.346 61.4066 183.346C60.8971 183.314 60.5131 182.885 60.5426 182.391C60.9451 176.258 61.8681 168.355 61.8792 168.276C61.9383 167.782 62.3961 167.422 62.902 167.483C63.4078 167.541 63.7734 167.988 63.7143 168.482C63.7069 168.561 62.7838 176.42 62.3851 182.507C62.3555 182.982 61.9494 183.35 61.4657 183.35V183.346Z" fill="#231F20"/>
<path d="M50.2742 186.636C49.8902 186.636 49.5321 186.395 49.4029 186.02C49.2404 185.548 49.5099 185.036 49.9936 184.878C50.3222 184.769 50.7838 184.748 51.5444 184.708C53.3425 184.615 56.3555 184.46 59.169 183.087C59.6269 182.863 60.1807 183.043 60.4059 183.49C60.6349 183.937 60.4502 184.478 59.9924 184.697C56.8355 186.24 53.457 186.413 51.6404 186.506C51.201 186.528 50.6989 186.553 50.5659 186.589C50.4699 186.622 50.3702 186.636 50.2742 186.636Z" fill="#231F20"/>
<path d="M75.746 198.849C75.6278 198.849 75.506 198.827 75.3878 198.777C74.9189 198.582 74.6974 198.056 74.8967 197.598C75.65 195.858 75.458 194.182 74.3097 192.478C71.5774 188.413 64.61 185.869 63.1294 185.656C63.0666 185.681 63.0001 185.696 62.93 185.707C62.4241 185.775 61.9552 185.44 61.8814 184.946C61.8223 184.543 62.0217 184.161 62.3909 183.966C63.1626 183.566 65.3854 184.362 67.1134 185.101C68.6235 185.746 71.4998 187.134 73.778 189.17C76.9681 192.013 77.9392 195.173 76.5878 198.301C76.4401 198.647 76.0967 198.852 75.7386 198.852L75.746 198.849Z" fill="#231F20"/>
<path d="M52.9757 200.435H28.049C27.665 200.435 27.3179 200.2 27.185 199.847C25.4865 195.39 26.4724 189.855 26.945 187.195C27.0336 186.694 27.1333 186.132 27.1481 185.923C27.0631 185.53 27.2551 185.116 27.6391 184.928C28.0933 184.705 28.6508 184.885 28.8761 185.332C29.0791 185.728 29.0053 186.143 28.7653 187.501C28.3407 189.883 27.4804 194.719 28.7136 198.633H52.3739C52.9388 197.242 52.9573 195.912 52.4367 194.579C51.3142 191.71 47.6441 188.903 42.1056 186.676C41.9357 186.608 41.825 186.561 41.7844 186.539C41.3265 186.316 41.1419 185.775 41.3708 185.332C41.5997 184.885 42.1536 184.705 42.6077 184.928C42.6336 184.939 42.7037 184.968 42.8071 185.008C48.8219 187.426 52.8539 190.593 54.1573 193.934C54.9216 195.891 54.8034 197.905 53.8028 199.923C53.6477 200.233 53.3265 200.431 52.9721 200.431L52.9757 200.435Z" fill="#231F20"/>
<path d="M74.3984 199.274H53.4446C52.935 199.274 52.5215 198.87 52.5215 198.373C52.5215 197.876 52.935 197.472 53.4446 197.472H74.3984C74.9079 197.472 75.3215 197.876 75.3215 198.373C75.3215 198.87 74.9079 199.274 74.3984 199.274Z" fill="#231F20"/>
<path d="M73.3649 196.366C73.3649 196.366 73.3501 196.366 73.3427 196.366C73.2984 196.366 68.8639 196.265 64.4701 196.135C58.1833 195.948 54.9292 195.639 54.7076 195.209C54.4787 194.766 54.6633 194.222 55.1212 194.002C55.3612 193.887 55.627 193.879 55.8559 193.962C57.0559 194.142 67.1729 194.424 73.3833 194.564C73.8929 194.575 74.2953 194.989 74.2842 195.487C74.2732 195.977 73.8633 196.366 73.3612 196.366H73.3649Z" fill="#231F20"/>
<path d="M50.9566 197.27C50.9566 197.27 50.9234 197.27 50.9086 197.27C42.6489 196.856 29.988 196.276 28.9616 196.362C28.4557 196.409 28.0052 196.042 27.9572 195.548C27.9092 195.051 28.2859 194.615 28.7917 194.568C30.2797 194.434 48.8852 195.364 51.0009 195.469C51.5105 195.494 51.9019 195.919 51.876 196.416C51.8502 196.896 51.444 197.27 50.9529 197.27H50.9566Z" fill="#231F20"/>
<path d="M33.2478 188.759C31.121 188.759 29.8214 188.006 29.7254 187.952C29.2897 187.692 29.153 187.137 29.4189 186.712C29.6847 186.291 30.2497 186.157 30.6817 186.409C30.8294 186.496 34.0417 188.254 38.8232 184.997C39.2404 184.712 39.8164 184.813 40.1081 185.22C40.3998 185.627 40.2964 186.19 39.8792 186.474C37.2614 188.258 34.9795 188.759 33.2441 188.759H33.2478Z" fill="#231F20"/>
<path d="M37.9717 182.453C37.9089 182.453 37.8498 182.445 37.7871 182.435C37.2258 182.384 33.1384 182.406 29.5163 182.453H29.5052C28.9994 182.453 28.5895 182.056 28.5821 181.562C28.5747 181.065 28.9846 180.658 29.4941 180.651C37.8018 180.543 38.0972 180.64 38.2744 180.698C38.7581 180.86 39.0129 181.372 38.8504 181.84C38.7212 182.215 38.3594 182.449 37.9754 182.449L37.9717 182.453Z" fill="#231F20"/>
<path d="M59.5773 180.143H49.8C49.2905 180.143 48.877 179.739 48.877 179.242C48.877 178.744 49.2905 178.341 49.8 178.341H59.5773C60.0868 178.341 60.5003 178.744 60.5003 179.242C60.5003 179.739 60.0868 180.143 59.5773 180.143Z" fill="#231F20"/>
<path d="M74.3986 135.685C74.0737 135.685 73.7599 135.519 73.5937 135.224C72.7556 133.76 73.2134 132.297 73.6159 131.663C73.6713 131.573 73.7451 131.494 73.83 131.429C76.315 129.533 76.2522 128.658 76.2374 128.564C76.2042 128.369 75.9531 128.258 75.9494 128.258C75.9199 128.247 75.8903 128.236 75.8608 128.222C73.4903 127.105 73.4497 124.935 73.4719 124.456C72.811 114.088 71.8362 92.056 71.8251 91.8362C71.803 91.3389 72.198 90.9172 72.7076 90.8956C73.2134 90.8884 73.6454 91.2596 73.6713 91.7569C73.6823 91.9803 74.6608 114.07 75.3217 124.395C75.3217 124.442 75.3217 124.492 75.3217 124.539C75.3106 124.669 75.259 125.912 76.6436 126.582C76.9205 126.694 77.8805 127.159 78.0651 128.276C78.2756 129.566 77.3156 131.022 75.1297 132.723C75.0153 132.979 74.8011 133.634 75.2073 134.341C75.4546 134.777 75.2959 135.324 74.8528 135.566C74.7088 135.645 74.5574 135.681 74.4023 135.681L74.3986 135.685Z" fill="#231F20"/>
<path d="M20.6788 134.78C20.4092 134.78 20.1434 134.665 19.9588 134.445C18.8215 133.072 18.3563 131.663 18.5668 130.251C18.9028 128.002 20.8855 126.654 20.9668 126.597C22.7317 125.314 22.3329 124.171 22.2148 123.923C19.6301 120.517 20.6308 117.771 21.6092 116.676C23.5181 112.647 22.3181 107.292 22.3071 107.238C22.1963 106.752 22.5064 106.272 23.0049 106.161C23.5034 106.052 23.9944 106.355 24.1089 106.842C24.168 107.09 25.4898 112.964 23.2191 117.577C23.1748 117.667 23.1157 117.746 23.0455 117.818C22.9791 117.887 21.288 119.725 23.7397 122.907C23.7618 122.935 23.7803 122.964 23.7988 122.993C24.3489 123.908 24.6886 126.146 22.0375 128.067C21.9969 128.096 20.6012 129.061 20.3871 130.528C20.2578 131.418 20.5938 132.359 21.3914 133.317C21.7126 133.703 21.6498 134.272 21.2511 134.586C21.0812 134.719 20.8744 134.784 20.6714 134.784L20.6788 134.78Z" fill="#231F20"/>
<path d="M20.8756 163.343C20.3771 163.343 19.9562 163.246 19.79 162.694C19.6497 162.215 19.9303 161.718 20.4214 161.581C20.5396 161.548 20.6577 161.538 20.7722 161.552C21.5217 161.545 27.9574 161.094 32.6873 160.756C32.5949 158.637 32.4066 153.271 32.7353 150.712C32.798 150.219 33.2633 149.862 33.7654 149.93C34.2713 149.992 34.6294 150.442 34.5666 150.936C34.1826 153.941 34.5666 161.469 34.574 161.545C34.5999 162.035 34.2196 162.453 33.7211 162.489C33.7211 162.489 30.4829 162.723 27.2411 162.947C25.6202 163.058 23.9956 163.17 22.7771 163.246C22.1642 163.285 21.6509 163.314 21.2928 163.332C21.1525 163.339 21.0122 163.347 20.8793 163.347L20.8756 163.343ZM20.8349 161.556C21.1746 161.613 21.4663 161.851 21.566 162.193C21.4553 161.819 21.1303 161.599 20.8349 161.556Z" fill="#231F20"/>
<path d="M73.1764 163.891H65.8693C65.6182 163.891 65.3745 163.79 65.201 163.613C65.0274 163.437 64.9351 163.195 64.9462 162.95L65.585 149.141C65.6071 148.691 65.9653 148.327 66.4231 148.283L72.6151 147.732C73.1247 147.685 73.5714 148.053 73.6194 148.546C73.6674 149.044 73.2908 149.48 72.785 149.527L67.3979 150.006L66.8367 162.089H73.1801C73.6896 162.089 74.1031 162.492 74.1031 162.99C74.1031 163.487 73.6896 163.891 73.1801 163.891H73.1764Z" fill="#231F20"/>
<path d="M51.5888 62.7875C50.0011 62.7875 47.7783 62.1424 47.0842 59.8073C47.0731 59.7749 47.0657 59.7424 47.062 59.71C47.0399 59.5803 46.5119 56.474 48.3396 54.6001C49.3845 53.5298 50.9242 53.1046 52.918 53.3388C53.2208 53.3677 54.7827 53.5947 56.038 55.4109C56.3223 55.8217 56.2116 56.3839 55.7907 56.6614C55.366 56.9388 54.7937 56.8307 54.5094 56.4199C53.6971 55.2488 52.7814 55.137 52.7445 55.1298C51.323 54.9605 50.3002 55.1983 49.6762 55.8397C49.499 56.0199 49.3587 56.2253 49.2479 56.4415C50.7913 55.919 52.8405 55.883 54.5574 57.3461C55.3697 58.0415 55.7279 59.1695 55.4694 60.2217C55.1777 61.4073 54.166 62.2938 52.6965 62.6614C52.4048 62.7334 52.0208 62.7803 51.5962 62.7803L51.5888 62.7875ZM48.8713 59.3569C49.5211 61.3749 52.2091 60.928 52.235 60.9208C53.0325 60.7226 53.542 60.3298 53.6676 59.8073C53.7636 59.4109 53.627 58.9569 53.3353 58.7046C51.5519 57.1839 49.462 58.2217 48.8196 58.6722C48.827 59.0037 48.8565 59.256 48.8713 59.3533V59.3569Z" fill="#231F20"/>
<path d="M72.6865 61.7429C71.0988 61.7429 68.876 61.0978 68.1818 58.7627C68.1708 58.7302 68.1634 58.6978 68.1597 58.6654C68.1375 58.5357 67.6095 55.4293 69.4372 53.5555C70.4822 52.4816 72.0218 52.06 74.0157 52.2942C74.3185 52.323 75.8803 52.5501 77.1357 54.3663C77.42 54.7771 77.3092 55.3393 76.8883 55.6167C76.4674 55.8942 75.8914 55.7861 75.6071 55.3753C74.7948 54.2041 73.8791 54.0924 73.8422 54.0852C72.4206 53.9158 71.3978 54.1537 70.7738 54.7951C70.5966 54.9753 70.4563 55.1807 70.3455 55.3969C71.8889 54.8744 73.9381 54.8384 75.6551 56.3014C76.4674 56.9969 76.8255 58.1248 76.5671 59.1771C76.2754 60.3627 75.2637 61.2492 73.7942 61.6167C73.5025 61.6888 73.1185 61.7357 72.6938 61.7357L72.6865 61.7429ZM69.9689 58.3158C70.6188 60.3338 73.3068 59.887 73.3326 59.8798C74.1302 59.6816 74.6397 59.2888 74.7652 58.7663C74.8612 58.3699 74.7246 57.9158 74.4329 57.6636C72.6495 56.1429 70.5597 57.1807 69.9172 57.6311C69.9246 57.9627 69.9542 58.2149 69.9689 58.3122V58.3158Z" fill="#231F20"/>
<path d="M63.1268 71.7895C62.0154 71.7895 60.3133 71.4832 57.6364 70.7156C57.149 70.5751 56.8684 70.0742 57.0124 69.5985C57.1564 69.1192 57.6659 68.8453 58.157 68.9895C60.7748 69.739 62.1742 69.948 62.9016 69.9805C61.3914 68.6616 60.7416 67.6057 60.8598 66.6832C60.9373 66.0706 61.3508 65.6814 61.6831 65.5336C61.9084 65.4327 62.1668 65.4219 62.3994 65.5084C63.7767 66.0237 64.7551 66.0814 65.309 66.0489C65.7521 61.1048 62.5545 57.2093 62.5213 57.1697C62.2001 56.7841 62.2591 56.2183 62.6505 55.9012C63.0456 55.5877 63.6253 55.6417 63.9465 56.0273C64.1127 56.2219 67.9785 60.903 67.0554 66.9571C67.0074 67.2778 66.7822 67.5516 66.4684 67.667C66.3207 67.721 65.165 68.1066 63.1121 67.6165C63.4074 67.9769 63.9059 68.4814 64.7551 69.1553C64.8105 69.1985 64.8622 69.2489 64.9028 69.3066C65.261 69.7643 65.4419 70.485 65.0358 71.0652C64.7293 71.5012 64.2087 71.7931 63.1305 71.7931L63.1268 71.7895Z" fill="#231F20"/>
<path d="M60.4866 74.4671C56.9382 74.4671 54.9149 71.6815 54.3093 70.0707C54.1321 69.6022 54.3795 69.0869 54.8595 68.914C55.3358 68.7446 55.8675 68.9824 56.0447 69.4473C56.1038 69.6022 57.5216 73.1518 61.2582 72.6076C61.7641 72.532 62.233 72.8743 62.3069 73.3644C62.3807 73.8545 62.0336 74.3158 61.5315 74.3878C61.1733 74.4419 60.8262 74.4635 60.4939 74.4635L60.4866 74.4671Z" fill="#231F20"/>
<path d="M45.1887 113.224C44.1475 113.224 42.8404 113.018 41.2379 112.604C40.7432 112.478 40.4515 111.984 40.5807 111.505C40.7099 111.022 41.2158 110.733 41.7069 110.863C45.713 111.894 46.4183 111.177 46.4478 111.144C46.5438 111.036 46.4699 110.777 46.4478 110.719C46.4441 110.708 46.433 110.683 46.4293 110.672C46.0195 109.569 46.6619 108.6 47.4447 108.153C47.8029 107.919 47.8915 107.75 47.8915 107.71C47.8915 107.667 47.8176 107.551 47.7438 107.483C46.529 106.622 46.8539 105.202 47.3783 104.449C47.4078 104.409 47.4373 104.369 47.4743 104.333C47.6552 104.146 47.7216 104.027 47.7438 103.973C47.633 103.861 47.2933 103.706 47.0127 103.642C45.8866 103.407 45.4619 102.824 45.3106 102.377C44.9967 101.465 45.5875 100.589 45.8423 100.272C46.1044 99.7569 46.1192 99.5082 46.1155 99.4289C45.9826 99.3641 45.6133 99.346 45.3401 99.3893C45.3179 99.3893 45.2921 99.3965 45.2736 99.3965C43.3758 99.5803 41.7364 100.488 41.7216 100.499C41.2786 100.748 40.7136 100.596 40.4626 100.164C40.2078 99.7316 40.3629 99.1803 40.8059 98.9352C40.8872 98.892 42.7887 97.8397 45.0595 97.6091C45.4361 97.5478 46.8835 97.3893 47.6183 98.3587C48.1352 99.0433 48.0761 99.9947 47.4447 101.18C47.4115 101.242 47.3709 101.299 47.3229 101.353C47.2195 101.472 47.1161 101.66 47.0829 101.771C47.1383 101.8 47.2379 101.84 47.4115 101.876C47.7032 101.937 49.169 102.301 49.5309 103.451C49.6786 103.915 49.6823 104.643 48.8884 105.497C48.8256 105.609 48.6743 105.908 48.8478 106.027C48.8626 106.038 48.8773 106.045 48.8884 106.056C48.9807 106.124 49.7856 106.769 49.745 107.775C49.7155 108.496 49.2798 109.13 48.4453 109.667C48.4269 109.678 48.4084 109.688 48.3899 109.699C48.3715 109.71 48.1167 109.869 48.1647 110.038C48.3789 110.539 48.5376 111.53 47.8656 112.301C47.3339 112.914 46.4626 113.216 45.1961 113.216L45.1887 113.224Z" fill="#231F20"/>
<path d="M51.5801 118.6C51.5469 118.6 51.5173 118.6 51.4841 118.597L43.5087 117.779C43.0398 117.732 42.6816 117.343 42.6816 116.881V112.186C42.6816 111.688 43.0952 111.285 43.6047 111.285C44.1143 111.285 44.5278 111.688 44.5278 112.186V116.07L50.8601 116.723L56.0367 94.456L44.5278 93.1984V98.8056C44.5278 99.3029 44.1143 99.7065 43.6047 99.7065C43.0952 99.7065 42.6816 99.3029 42.6816 98.8056V92.1894C42.6816 91.9335 42.7924 91.6885 42.9881 91.5191C43.1838 91.3497 43.4459 91.2668 43.7044 91.2957L57.2626 92.7768C57.5247 92.8056 57.761 92.9425 57.9124 93.1515C58.0638 93.3605 58.1192 93.6236 58.0601 93.8722L52.4773 117.901C52.3813 118.315 52.0047 118.604 51.5764 118.604L51.5801 118.6Z" fill="#231F20"/>
<path d="M59.5971 35.0689C59.0987 35.0689 58.6851 34.6797 58.674 34.1896C58.5411 28.6905 54.7085 26.204 54.6716 26.1788C54.2433 25.9085 54.1214 25.35 54.3983 24.932C54.6753 24.5139 55.2476 24.395 55.6759 24.6653C55.8679 24.7878 60.3688 27.7031 60.5239 34.1464C60.535 34.6437 60.1325 35.0545 59.623 35.0689C59.6156 35.0689 59.6082 35.0689 59.6008 35.0689H59.5971Z" fill="#231F20"/>
<path d="M59.6451 28.2762C59.2943 28.2762 58.962 28.0816 58.8069 27.7501C58.5928 27.2996 58.7958 26.7627 59.2611 26.5537C62.1152 25.2744 62.4328 24.323 62.4623 24.0636C62.4992 23.7176 62.1891 23.4618 62.1854 23.4618C60.1398 21.9663 57.2783 25.105 57.2488 25.1375C56.9128 25.5122 56.3294 25.5483 55.9454 25.2203C55.5614 24.8924 55.5208 24.3267 55.8568 23.9519C55.8937 23.9086 56.8205 22.878 58.1312 22.1104C60.5534 20.6906 62.274 21.2744 63.2894 22.0167C63.7214 22.3303 64.4155 23.1555 64.2937 24.2546C64.1386 25.6888 62.7429 26.9753 60.0291 28.1897C59.9035 28.2438 59.7743 28.2726 59.6451 28.2726V28.2762Z" fill="#231F20"/>
<path d="M60.9992 34.3156C60.5745 34.3156 60.1942 34.0273 60.0982 33.6093C59.9875 33.1228 60.305 32.6436 60.7998 32.5354C61.9481 32.2868 65.105 31.3174 65.8841 29.8327C66.0945 29.4291 66.0982 29.0219 65.8878 28.5463C65.7918 28.3228 64.961 26.5751 62.2213 27.2129C61.7265 27.3246 61.2281 27.0291 61.1099 26.5463C60.9918 26.0634 61.2982 25.5769 61.793 25.4616C65.3044 24.6508 67.121 26.6796 67.5936 27.8688C68.0072 28.8021 67.985 29.7751 67.5235 30.658C66.209 33.1589 61.7044 34.1859 61.1948 34.294C61.1284 34.3084 61.0619 34.3156 60.9955 34.3156H60.9992Z" fill="#231F20"/>
<path d="M61.8672 104.168L61.8783 103.127L65.962 103.174C66.4161 103.177 66.7743 103.109 67.0401 102.968C67.306 102.824 67.4426 102.583 67.4463 102.241C67.4463 102.017 67.3946 101.833 67.2838 101.693C67.173 101.552 67.0106 101.451 66.8001 101.386C66.586 101.322 66.3312 101.286 66.0247 101.282L64.005 101.26L64.0161 100.32L65.5816 100.338C65.9878 100.341 66.3164 100.273 66.5675 100.125C66.8186 99.9775 66.9478 99.736 66.9515 99.3901C66.9515 99.1523 66.9035 98.9685 66.7964 98.8351C66.6893 98.7018 66.5527 98.6045 66.3829 98.5468C66.213 98.4892 66.0358 98.4568 65.8438 98.4568L61.9337 98.4135L61.9447 97.3721L65.9361 97.4189C66.4641 97.4261 66.8998 97.509 67.2469 97.6676C67.594 97.8261 67.8561 98.0423 68.0297 98.3162C68.2069 98.5901 68.2918 98.9 68.2881 99.2495C68.2881 99.5595 68.2069 99.8297 68.0592 100.053C67.9115 100.28 67.7195 100.464 67.4906 100.608C67.258 100.752 67.0032 100.853 66.73 100.918C66.4567 100.983 66.1909 101.012 65.9324 101.008L65.9398 100.522C66.2647 100.522 66.5933 100.554 66.9293 100.608C67.2653 100.662 67.5718 100.752 67.8524 100.882C68.133 101.012 68.3583 101.195 68.5318 101.441C68.7053 101.686 68.7903 101.992 68.7866 102.359C68.7792 102.961 68.5429 103.423 68.074 103.75C67.605 104.078 66.933 104.233 66.0506 104.223L61.8672 104.176V104.168ZM63.093 103.606L63.1595 97.9667L64.4813 97.9811L64.4149 103.621L63.093 103.606Z" fill="black"/>
</svg>
