<svg width="100" height="210" viewBox="0 0 100 210" fill="none" xmlns="http://www.w3.org/2000/svg">
<g clip-path="url(#clip0_1837_629042)">
<path d="M68.7871 183.564C68.872 172.826 68.7871 163.485 68.7871 163.485L68.824 162.494H54.7305L54.9077 164.379C54.9077 164.379 56.8794 178.39 59.0135 184.981H68.824L68.7871 183.561V183.564Z" fill="white"/>
<path d="M42.6637 182.653C38.2293 172.397 37.9967 164.354 37.9967 164.354L37.8379 162.494H50.1924L50.2588 164.354C50.2588 164.354 50.7277 174.591 51.7505 182.285L42.6637 182.656" fill="white"/>
<path d="M24.9811 126.879C19.3984 127.239 21.0525 124.627 21.0525 124.627C22.7805 123.902 21.9165 123.463 21.9165 123.463C18.9922 122.256 20.7645 120.89 20.7645 120.89C23.1128 120.007 22.1233 118.76 22.1233 118.76C19.8599 118.641 20.1885 117.474 20.1885 117.474C20.6427 115.383 24.2021 115.131 24.2021 115.131C19.9337 85.6429 37.2765 90.5907 37.2765 90.5907L27.0045 126.911L24.9811 126.875V126.879Z" fill="white"/>
<path d="M63.5138 84.285C81.7538 73.4669 86.251 53.2075 86.251 53.2075C91.8042 20.0832 73.8264 19.6363 73.8264 19.6363C59.419 16.7967 50.2621 34.703 50.2621 34.703C46.6547 28.9336 36.6116 15.9102 21.3513 24.9264C21.3513 24.9264 8.13283 32.7318 16.8578 61.2111C16.8578 61.2111 24.9218 83.8814 40.7839 86.4615L63.5211 84.2886L63.5138 84.285Z" fill="#F8B3FF"/>
<path d="M72.5048 102.454L70.127 95.4887C63.1227 77.9427 51.226 80.5229 51.226 80.5229C41.0463 81.9427 34.9688 94.404 34.9688 94.404C34.9688 94.404 20.5947 120.563 26.3436 162.321C26.3436 162.321 55.4057 167.211 77.5743 161.925C77.5743 161.925 80.8568 137.892 76.5885 117.86L72.5085 102.454H72.5048Z" fill="#FFF080"/>
<path d="M50.0851 197.694H30.8667C26.4137 193.153 36.6377 189.773 36.7633 189.773L38.351 189.358L38.207 189.153C35.8328 186.587 38.207 184.807 38.207 184.807C40.7104 183.066 42.4901 186.421 42.4901 186.421C40.5368 182.861 43.7196 182.285 43.7196 182.285C47.2421 181.708 47.0722 185.553 47.0722 185.553C47.0722 182.324 49.871 182.656 49.871 182.656C53.6888 182.075 51.7467 186.919 51.7467 186.919C51.7467 186.919 57.5731 189.73 52.9319 197.697H50.0814L50.0851 197.694Z" fill="#2BE6AE"/>
<path d="M41.3304 111.049C41.3304 111.049 41.5962 108.66 43.4387 108.735C43.4387 108.735 45.3919 108.591 45.7316 110.793C45.7316 110.793 46.2485 115.2 42.5378 116.847C42.5378 116.847 38.8934 117.171 37.2799 113.946C37.2799 113.946 35.8879 111.125 38.0664 109.914C38.0664 109.914 40.0159 108.959 41.3304 111.049Z" fill="#FFBA57"/>
<path d="M41.7698 128.015C41.7698 128.015 42.0357 125.625 43.8781 125.701C43.8781 125.701 45.8314 125.557 46.1711 127.759C46.1711 127.759 46.688 132.166 42.9772 133.813C42.9772 133.813 39.3329 134.137 37.7194 130.912C37.7194 130.912 36.3274 128.09 38.5058 126.88C38.5058 126.88 40.4554 125.925 41.7698 128.015Z" fill="#FFBA57"/>
<path d="M41.7698 144.98C41.7698 144.98 42.0357 142.591 43.8781 142.667C43.8781 142.667 45.8314 142.523 46.1711 144.725C46.1711 144.725 46.688 149.132 42.9772 150.779C42.9772 150.779 39.3329 151.103 37.7194 147.878C37.7194 147.878 36.3274 145.056 38.5058 143.845C38.5058 143.845 40.4554 142.89 41.7698 144.98Z" fill="#FFBA57"/>
<path d="M61.3122 115.294C65.9092 118.818 70.3436 118.981 70.3436 118.981C85.9436 118.501 84.7916 105.964 84.7916 105.964C83.9719 90.5446 67.4341 90.0293 67.4341 90.0293L72.6698 103.082C68.6599 105.997 63.6125 105.964 63.6125 105.964C63.6125 105.964 60.5295 103.907 58.4138 103.701C58.4138 103.701 55.4932 103.186 56.9738 105.964C56.9738 105.964 58.3695 107.543 56.3793 107.957C56.3793 107.957 53.839 108.494 55.4489 110.148C55.4489 110.148 56.2538 111.305 55.279 111.964C55.279 111.964 53.9239 112.999 55.6593 114.112C55.6593 114.112 56.6341 114.649 56.2944 115.557C56.2944 115.557 54.8987 118.368 60.0199 116.714L61.3122 115.294Z" fill="white"/>
<path d="M50.2871 92.8899C50.2871 92.8899 51.1733 100.973 58.3179 100.176C62.0951 99.7547 63.8083 97.1782 64.3253 92.0322L50.2908 92.8899H50.2871Z" fill="white"/>
<path d="M55.0616 189.394C55.0616 189.394 54.109 186.191 58.0266 186.327C58.0266 186.327 59.6844 186.425 60.1422 187.859C60.1422 187.859 59.4001 184.194 63.1773 184.295C63.1773 184.295 66.0721 184.363 65.8247 187.603C65.8247 187.603 66.1792 183.607 69.5318 184.536C69.5318 184.536 73.0949 185.052 70.5915 190.288C70.5915 190.288 72.5669 193.834 71.0862 197.142L50.2579 197.693C50.2579 197.693 45.2512 194.317 53.8616 190.493L55.213 189.956L55.0616 189.391V189.394Z" fill="#2BE6AE"/>
<path d="M51.3027 96.2305L63.8529 95.207C63.8529 95.207 63.011 100.987 56.5015 100.303C56.5015 100.303 52.3181 99.571 51.3027 96.2305Z" fill="#FF6A2F"/>
<path d="M37.4637 59.9135C39.6151 59.9135 41.3591 58.5792 41.3591 56.9333C41.3591 55.2874 39.6151 53.9531 37.4637 53.9531C35.3124 53.9531 33.5684 55.2874 33.5684 56.9333C33.5684 58.5792 35.3124 59.9135 37.4637 59.9135Z" fill="white"/>
<path d="M61.7743 59.5639C63.9257 59.5639 65.6697 58.2296 65.6697 56.5837C65.6697 54.9378 63.9257 53.6035 61.7743 53.6035C59.6229 53.6035 57.8789 54.9378 57.8789 56.5837C57.8789 58.2296 59.6229 59.5639 61.7743 59.5639Z" fill="white"/>
<path d="M40.8392 87.4846C40.7875 87.4846 40.7395 87.4809 40.6878 87.4737C33.942 86.3782 27.5321 81.5386 22.1561 73.4845C18.1426 67.4701 16.1266 61.8665 16.0453 61.6287C16.0416 61.6179 16.038 61.6035 16.0343 61.5927C12.3567 49.5854 12.0207 39.69 15.0336 32.1836C17.334 26.4539 20.7863 24.3638 20.934 24.2773C26.0626 21.2467 31.11 20.3494 35.9358 21.6143C40.2484 22.7422 46.5955 26.2305 52.337 36.4323C52.4109 36.562 52.4663 36.6629 52.5069 36.735C52.6509 36.8936 52.7358 37.1026 52.7358 37.3296C52.7358 37.7404 52.4478 38.108 52.038 38.2089C51.3253 38.389 51.03 37.8593 50.7161 37.3008C45.2884 27.6539 39.4213 24.3927 35.4558 23.3548C31.1358 22.2233 26.5721 23.0521 21.8903 25.8197C21.8607 25.8377 18.7481 27.762 16.6915 32.9981C14.7715 37.8845 13.4053 46.717 17.7955 61.0557C18.0576 61.7764 26.0404 83.2647 40.9943 85.6972C41.4964 85.78 41.8361 86.2413 41.7512 86.735C41.6773 87.1746 41.286 87.4882 40.8429 87.4882L40.8392 87.4846Z" fill="#231F20"/>
<path d="M63.5755 85.3078C63.2653 85.3078 62.9588 85.1528 62.7853 84.8753C62.5195 84.4501 62.6598 83.8952 63.0955 83.6393C80.5453 73.2898 85.2345 53.8916 85.4044 53.16C86.9219 44.097 87.5164 31.8735 81.7601 25.0339C78.2376 20.8501 74.0358 20.6663 73.8585 20.6591C73.8068 20.6591 73.7515 20.6519 73.7035 20.6411C60.1601 17.9744 51.2358 35.0519 51.1472 35.2249C50.9182 35.6717 50.3644 35.8483 49.9102 35.6285C49.4524 35.4051 49.2678 34.8645 49.4967 34.4213C49.5927 34.2339 51.8967 29.7726 56.0395 25.5997C61.6001 19.9961 67.8068 17.6681 73.9988 18.8609C74.7152 18.9006 79.3195 19.3294 83.1447 23.8411C88.1552 29.7474 89.5287 39.7186 87.221 53.4771C87.221 53.4916 87.2173 53.506 87.2136 53.524C87.1693 53.7294 82.4247 74.2879 64.0555 85.1816C63.9041 85.2717 63.7416 85.3114 63.5755 85.3114V85.3078Z" fill="#231F20"/>
<path d="M53.3597 165.391C38.7197 165.391 26.4317 163.366 26.2397 163.337C25.8409 163.268 25.5345 162.958 25.4828 162.569C22.4957 140.861 25.0176 123.427 27.6576 112.623C30.4785 101.081 33.9419 94.5979 34.2003 94.1259C34.5696 93.3727 40.6988 81.2394 51.1222 79.7655C51.5246 79.6862 54.5819 79.1637 58.4588 80.7241C62.1363 82.2051 67.3093 85.9313 71.0459 95.2898C71.0533 95.3042 71.0569 95.3187 71.0606 95.3331L73.4385 102.299C73.6009 102.771 73.3388 103.283 72.8551 103.438C72.3714 103.596 71.8471 103.34 71.6883 102.868L69.3179 95.9241C62.7086 79.3943 51.9345 81.4376 51.4803 81.5349C51.4582 81.5385 51.436 81.5421 51.4139 81.5457C41.836 82.8826 35.9173 94.8033 35.8582 94.9223C35.8508 94.9367 35.8471 94.9475 35.8397 94.9619C35.8028 95.0268 32.2508 101.585 29.4373 113.12C26.8711 123.65 24.4231 140.584 27.2256 161.672C31.6416 162.342 57.0003 165.848 76.7948 161.329C77.26 157.463 79.5566 136.065 75.7462 118.176C75.6428 117.69 75.964 117.214 76.4625 117.11C76.9609 117.009 77.452 117.322 77.5554 117.809C81.8089 137.762 78.5856 161.935 78.5523 162.176C78.5006 162.544 78.2274 162.843 77.8545 162.933C70.0489 164.793 61.3573 165.398 53.3671 165.398L53.3597 165.391Z" fill="black"/>
<path d="M70.4026 120.007C70.4026 120.007 70.3804 120.007 70.3694 120.007C70.1774 120 65.5804 119.794 60.8026 116.13C60.4038 115.823 60.3337 115.258 60.6475 114.865C60.9614 114.476 61.5411 114.403 61.9435 114.713C66.0457 117.859 70.0518 118.184 70.4137 118.205C75.2358 118.05 78.8506 116.688 81.1583 114.158C84.2894 110.724 83.9386 106.212 83.9349 106.169C83.61 100.115 80.778 95.7512 75.509 93.1746C71.4992 91.2107 67.5041 91.0557 67.4635 91.0557C66.954 91.0377 66.5552 90.6233 66.5737 90.126C66.5884 89.6395 66.9983 89.2539 67.4967 89.2539C67.5078 89.2539 67.5152 89.2539 67.5263 89.2539C67.6998 89.2611 84.9207 89.9818 85.7774 106.043C85.7958 106.223 86.2131 111.308 82.5577 115.337C79.8955 118.27 75.8192 119.841 70.4358 120.007C70.4247 120.007 70.4174 120.007 70.4063 120.007H70.4026Z" fill="#231F20"/>
<path d="M57.5171 118.263C56.786 118.263 56.1288 118.09 55.6894 117.6C54.9435 116.771 55.3571 115.665 55.49 115.362C55.5306 115.189 55.2648 115.027 55.2611 115.027C55.2426 115.016 55.2242 115.005 55.2094 114.994C54.3786 114.461 53.9429 113.823 53.9097 113.103C53.8691 112.097 54.674 111.452 54.7663 111.384C54.7811 111.373 54.7922 111.362 54.8069 111.355C54.9805 111.24 54.8328 110.94 54.7626 110.825C53.9725 109.971 53.9762 109.247 54.1202 108.782C54.482 107.636 55.9478 107.272 56.2358 107.211C56.4131 107.175 56.5128 107.135 56.5682 107.106C56.5312 106.984 56.4094 106.782 56.3282 106.688C56.2802 106.634 56.2395 106.576 56.2063 106.515C55.5749 105.33 55.5158 104.378 56.0328 103.694C56.7675 102.721 58.2186 102.883 58.5915 102.944C60.5595 103.149 63.1183 104.677 63.9306 105.193C65.282 105.135 71.5478 104.605 74.7158 99.8738C74.9965 99.4558 75.5688 99.3404 75.9934 99.6107C76.4217 99.881 76.5398 100.44 76.2629 100.858C72.1608 106.984 64.0118 107.005 63.6611 107.002C63.4765 107.002 63.2992 106.944 63.1478 106.843C62.3429 106.306 59.9171 104.883 58.3774 104.731C58.3515 104.731 58.3294 104.724 58.3072 104.721C58.0377 104.677 57.6722 104.695 57.5355 104.76C57.5318 104.84 57.5466 105.088 57.8088 105.603C58.0635 105.921 58.658 106.793 58.3405 107.708C58.1854 108.155 57.7645 108.739 56.6309 108.973C56.3577 109.034 56.018 109.189 55.9072 109.301C55.9294 109.355 55.9958 109.474 56.1768 109.661C56.21 109.697 56.2432 109.737 56.2728 109.776C56.7971 110.53 57.1257 111.957 55.8998 112.814C55.8334 112.872 55.7558 112.991 55.7595 113.038C55.7595 113.081 55.8518 113.247 56.2063 113.481C56.9891 113.928 57.6315 114.901 57.2217 116C57.2106 116.029 57.1995 116.058 57.1848 116.086C57.1405 116.184 57.1035 116.335 57.1035 116.422C57.2586 116.476 57.9011 116.602 59.7915 115.996C60.2752 115.841 60.7995 116.097 60.9583 116.569C61.1171 117.041 60.8549 117.553 60.3712 117.708C59.5109 117.985 58.4586 118.274 57.5208 118.274L57.5171 118.263Z" fill="#231F20"/>
<path d="M24.0615 127.938C22.0603 127.938 20.8123 127.491 20.251 126.583C19.5901 125.509 20.251 124.4 20.3286 124.277C20.4172 124.136 20.5427 124.025 20.6904 123.949C19.915 123.47 19.4756 122.897 19.387 122.237C19.232 121.127 20.1476 120.385 20.251 120.306C20.3249 120.248 20.4061 120.205 20.491 120.173C20.9563 119.996 21.2184 119.823 21.3513 119.693C20.5649 119.545 19.9889 119.232 19.6455 118.763C19.2172 118.18 19.3021 117.592 19.3464 117.401C19.771 115.484 21.931 114.763 23.2233 114.5C21.728 103.279 23.2123 95.6932 27.643 91.9491C31.963 88.3022 37.3649 89.7869 37.5938 89.8518C38.0849 89.9923 38.3655 90.4932 38.2215 90.9689C38.0775 91.4446 37.568 91.7184 37.0806 91.5815C37.0178 91.5635 32.3803 90.3202 28.8356 93.3257C24.8627 96.6986 23.5963 104.237 25.1729 115.131C25.2098 115.38 25.136 115.628 24.9772 115.823C24.8184 116.018 24.5821 116.136 24.3273 116.154C23.5963 116.209 21.4658 116.616 21.163 117.729C21.2479 117.801 21.547 117.945 22.2338 117.982C22.4996 117.996 22.7507 118.122 22.9132 118.331C23.1901 118.677 23.4375 119.329 23.2418 120.021C23.0313 120.76 22.3889 121.354 21.3329 121.787C21.2664 121.863 21.211 121.96 21.2184 122C21.2184 122 21.296 122.327 22.3372 122.756C22.3593 122.767 22.3852 122.778 22.4073 122.789C22.7507 122.965 23.1384 123.373 23.1163 123.945C23.0867 124.673 22.4369 125.127 21.824 125.427C21.8055 125.509 21.7981 125.6 21.835 125.661C21.8498 125.686 22.2633 126.284 24.9809 126.108C25.4941 126.072 25.9298 126.45 25.963 126.947C25.9963 127.445 25.6123 127.873 25.1027 127.906C24.7335 127.931 24.3864 127.942 24.0615 127.942V127.938ZM21.1483 117.805C21.1483 117.805 21.1446 117.827 21.1409 117.837C21.1409 117.827 21.1483 117.816 21.1483 117.805Z" fill="#231F20"/>
<path d="M59.0716 186.01C58.6802 186.01 58.3147 185.765 58.1929 185.38C56.0587 178.789 54.135 165.203 54.0538 164.627C53.9836 164.133 54.3381 163.679 54.8439 163.61C55.3461 163.546 55.815 163.888 55.8852 164.382C55.9036 164.522 57.8716 178.392 59.9541 184.836C60.1092 185.311 59.8396 185.816 59.3522 185.967C59.2599 185.996 59.1676 186.01 59.0753 186.01H59.0716Z" fill="#231F20"/>
<path d="M68.8489 184.591H68.8415C68.332 184.587 67.9221 184.18 67.9258 183.683C68.0107 173.077 67.9258 163.712 67.9258 163.621C67.9221 163.124 68.332 162.717 68.8415 162.713H68.8489C69.3547 162.713 69.7683 163.11 69.772 163.607C69.772 163.701 69.8569 173.077 69.772 183.701C69.7683 184.194 69.3547 184.594 68.8489 184.594V184.591Z" fill="#231F20"/>
<path d="M51.8082 183.308C51.3504 183.308 50.9553 182.976 50.8925 182.522C49.8772 174.879 49.4009 164.62 49.3935 164.515C49.3713 164.018 49.7664 163.596 50.2759 163.575C50.8002 163.542 51.2175 163.939 51.2396 164.436C51.2433 164.537 51.7159 174.724 52.7239 182.288C52.7904 182.782 52.4322 183.232 51.9264 183.297C51.8858 183.301 51.8452 183.304 51.8045 183.304L51.8082 183.308Z" fill="#231F20"/>
<path d="M42.7214 183.679C42.3633 183.679 42.0199 183.474 41.8722 183.128C37.4229 172.832 37.1423 164.839 37.1313 164.504C37.1165 164.007 37.5189 163.593 38.0285 163.578C38.5417 163.56 38.9626 163.957 38.9774 164.454C38.9774 164.533 39.2654 172.468 43.5743 182.429C43.7737 182.886 43.5522 183.416 43.0833 183.611C42.9651 183.658 42.8433 183.683 42.7251 183.683L42.7214 183.679Z" fill="#231F20"/>
<path d="M50.3202 198.72C50.1319 198.72 49.951 198.666 49.7959 198.562C49.7147 198.508 47.7725 197.171 47.9645 195.055C48.1381 193.135 50.0174 191.365 53.5436 189.801C53.7725 189.7 54.0199 189.697 54.2414 189.772C54.2414 189.772 54.2414 189.772 54.2414 189.769C54.1897 189.592 53.7541 187.996 54.7399 186.763C55.4267 185.906 56.5602 185.491 58.1257 185.553C58.4839 185.574 58.9565 185.672 59.4291 185.888C59.5584 185.481 59.7651 185.07 60.0864 184.702C60.799 183.881 61.8661 183.477 63.2691 183.52C63.4242 183.524 64.8568 183.589 65.8833 184.695C65.9387 184.753 65.9904 184.814 66.0384 184.875C66.2488 184.612 66.5036 184.367 66.8027 184.165C67.3787 183.776 68.3645 183.398 69.8008 183.783C70.1331 183.845 71.3516 184.154 72.0347 185.398C72.7141 186.634 72.5922 188.317 71.6691 190.4C72.1787 191.506 73.3417 194.619 71.9904 197.628C71.8464 197.949 71.5288 198.158 71.1707 198.169L50.3424 198.72C50.3424 198.72 50.3276 198.72 50.3165 198.72H50.3202ZM54.8101 190.363C54.9393 190.789 54.7325 191.254 54.3079 191.441C51.5128 192.684 49.9104 194.025 49.8033 195.214C49.7331 195.989 50.3128 196.619 50.6377 196.908L70.5024 196.382C71.3737 193.679 69.8562 190.868 69.8414 190.839C69.7048 190.587 69.6937 190.288 69.8156 190.028C70.6168 188.353 70.8273 187.009 70.4101 186.248C70.0888 185.664 69.4648 185.553 69.4574 185.549C69.4168 185.542 69.3799 185.535 69.3393 185.524C68.7153 185.351 68.2279 185.387 67.8513 185.639C67.1128 186.133 66.847 187.369 66.8027 187.801C66.7547 188.291 66.3079 188.666 65.8057 188.616C65.2999 188.576 64.9233 188.147 64.9602 187.654C65.0193 186.882 64.8679 186.295 64.5171 185.906C64.015 185.354 63.2101 185.311 63.2027 185.311C62.3977 185.286 61.8217 185.47 61.4894 185.852C60.9799 186.436 61.039 187.459 61.1054 187.805C61.1941 188.273 60.895 188.731 60.4224 188.846C59.9497 188.958 59.4661 188.699 59.3184 188.245C59.0599 187.434 58.0593 187.347 58.0187 187.344C57.4094 187.326 56.5676 187.394 56.191 187.855C55.7737 188.371 56.0027 189.254 56.0064 189.264C56.1393 189.744 55.855 190.237 55.3676 190.374C55.1756 190.428 54.9799 190.418 54.8027 190.356L54.8101 190.363Z" fill="#231F20"/>
<path d="M38.2691 190.18C38.0181 190.18 37.767 190.079 37.5824 189.884C36.6334 188.857 36.2014 187.79 36.3011 186.713C36.4414 185.203 37.575 184.313 37.7042 184.219C38.8119 183.448 39.7904 183.466 40.4181 183.614C40.647 183.668 40.8611 183.744 41.0642 183.837C41.1122 183.617 41.1861 183.408 41.2858 183.207C41.9504 181.859 43.4458 181.553 43.6119 181.52C45.207 181.261 46.1818 181.762 46.7245 182.23C46.9276 182.407 47.1011 182.601 47.2488 182.807C47.2931 182.763 47.3375 182.724 47.3855 182.681C48.327 181.866 49.4901 181.845 49.9036 181.87C51.4174 181.675 52.215 182.212 52.6248 182.709C53.8507 184.201 52.8796 186.854 52.6691 187.369C52.4845 187.834 51.9491 188.061 51.4728 187.881C50.9965 187.7 50.7639 187.178 50.9485 186.713C51.303 185.819 51.5836 184.32 51.1811 183.834C50.9781 183.585 50.4648 183.607 50.0735 183.664C49.9885 183.675 49.9036 183.679 49.8224 183.668C49.8224 183.668 49.0913 183.603 48.6002 184.036C48.2605 184.335 48.0759 184.843 48.0575 185.538C48.0575 185.621 48.0575 185.679 48.0575 185.708C48.0353 186.19 47.6291 186.569 47.1344 186.569C47.127 186.569 47.1196 186.569 47.1159 186.569C46.6138 186.558 46.2113 186.158 46.2113 185.668C46.2113 185.617 46.2113 185.567 46.2113 185.52C46.2039 185.059 46.071 184.061 45.4987 183.571C45.1442 183.268 44.631 183.174 43.9331 183.29C43.9331 183.29 43.2021 183.448 42.9436 183.992C42.7184 184.461 42.8587 185.181 43.3461 186.079C43.3571 186.097 43.3645 186.115 43.3719 186.126C43.6045 186.565 43.431 187.106 42.9842 187.336C42.5338 187.567 41.9799 187.401 41.7399 186.965C41.7325 186.954 41.7288 186.944 41.7214 186.933C41.5036 186.54 40.7984 185.549 39.9824 185.358C39.6131 185.272 39.2365 185.365 38.8267 185.643C38.7418 185.715 38.199 186.194 38.1399 186.882C38.0956 187.434 38.3688 188.036 38.9522 188.666C39.2919 189.034 39.2624 189.607 38.8858 189.938C38.7085 190.093 38.487 190.169 38.2691 190.169V190.18Z" fill="#231F20"/>
<path d="M50.1466 198.721H30.9281C30.6771 198.721 30.4371 198.62 30.2598 198.443C28.5614 196.71 28.7386 195.124 29.1854 194.101C30.5626 190.958 36.3484 188.998 36.8247 188.998C37.3343 188.998 37.7478 189.402 37.7478 189.899C37.7478 190.331 37.4377 190.692 37.0241 190.778C35.8315 191.113 31.3749 192.987 30.7915 195.07C30.7287 195.301 30.5441 195.957 31.3454 196.915H50.1503C50.6598 196.915 51.0734 197.319 51.0734 197.816C51.0734 198.313 50.6598 198.717 50.1503 198.717L50.1466 198.721Z" fill="#231F20"/>
<path d="M61.3788 60.4715C60.8878 60.4715 60.4447 60.4139 60.105 60.3238C58.4804 59.8949 57.3542 58.8751 57.0108 57.5274C56.697 56.2913 57.081 54.958 57.9893 54.1328C59.1302 53.0949 60.5259 52.576 62.0176 52.6301C62.9038 52.6625 63.7235 52.8859 64.4139 53.185C64.2404 52.6841 63.9819 52.2121 63.6016 51.8301C62.841 51.0661 61.6447 50.7814 60.0459 50.9868C60.0275 50.9868 60.009 50.9904 59.9905 50.994C59.961 50.994 58.8422 51.1382 57.849 52.6589C57.5758 53.0805 57.0035 53.203 56.5752 52.9364C56.1432 52.6697 56.0176 52.1112 56.2908 51.6931C57.7198 49.4985 59.4921 49.2319 59.8244 49.1994C62.025 48.922 63.7456 49.3868 64.9308 50.5832C67.1315 52.7958 66.5148 56.6661 66.489 56.8283C66.4853 56.8607 66.4779 56.8895 66.4668 56.922C65.6878 59.7039 63.177 60.4751 61.3715 60.4751L61.3788 60.4715ZM61.8072 54.4283C60.8582 54.4283 59.9979 54.7706 59.2484 55.4517C58.8348 55.8265 58.6539 56.5003 58.8053 57.0913C58.9862 57.8084 59.6028 58.3238 60.5887 58.5832C60.6219 58.5904 63.8748 59.2139 64.6798 56.4931C64.6982 56.367 64.7425 55.9814 64.7499 55.4661C64.3032 55.0913 63.2213 54.4751 61.9548 54.4283C61.9068 54.4283 61.8588 54.4283 61.8108 54.4283H61.8072Z" fill="#231F20"/>
<path d="M37.098 60.8213C36.6069 60.8213 36.1639 60.7636 35.8279 60.6736C34.2033 60.2447 33.0771 59.2249 32.7337 57.8736C32.4199 56.6375 32.8039 55.3042 33.7122 54.479C34.8568 53.4411 36.2525 52.915 37.7442 52.9763C38.6303 53.0087 39.45 53.2321 40.1405 53.5312C39.9669 53.0303 39.7085 52.5582 39.3282 52.1763C38.5676 51.4123 37.3713 51.1276 35.7725 51.333C35.754 51.333 35.7356 51.3366 35.7171 51.3402C35.6876 51.3402 34.5688 51.4844 33.5756 53.0051C33.3023 53.4267 32.73 53.5492 32.3017 53.2826C31.8697 53.0159 31.7442 52.4573 32.0174 52.0393C33.4463 49.8483 35.2186 49.5781 35.5509 49.5456C37.7516 49.2682 39.4722 49.733 40.6574 50.9294C42.858 53.142 42.2414 57.0123 42.2156 57.1745C42.2119 57.2069 42.2045 57.2357 42.1934 57.2682C41.4143 60.0501 38.9036 60.8213 37.098 60.8213ZM37.5263 54.7781C36.5774 54.7781 35.7171 55.124 34.9676 55.8015C34.554 56.1763 34.3731 56.8501 34.5245 57.4411C34.7054 58.1582 35.322 58.6736 36.3079 58.933C36.3411 58.9402 39.594 59.5637 40.3989 56.8429C40.4174 56.7168 40.4617 56.3312 40.4691 55.8159C40.0223 55.4411 38.9405 54.8249 37.674 54.7781C37.626 54.7781 37.578 54.7781 37.5263 54.7781Z" fill="#231F20"/>
<path d="M52.9389 77.1382C52.6841 77.1382 52.433 77.0373 52.2484 76.8391C51.9087 76.4679 51.9419 75.8985 52.3222 75.567C53.8472 74.2373 53.873 73.0517 53.681 72.3562C50.897 73.5346 49.3462 73.6859 48.5635 72.8751C47.9579 72.2481 48.1204 71.3364 48.4453 70.7454C48.5044 70.6409 48.5819 70.5472 48.6742 70.4751C49.5678 69.7616 49.7376 69.2607 49.7561 69.0265V69.0192C47.9542 69.2391 45.857 68.9111 45.7573 68.8967C45.3659 68.8355 45.0595 68.5364 44.9967 68.1544C44.4207 64.785 46.7801 58.6553 46.8835 58.3958C47.0644 57.931 47.5998 57.6967 48.0724 57.8733C48.5487 58.0499 48.7887 58.5688 48.6078 59.0337C48.0244 60.5364 46.6656 64.6733 46.7542 67.1994C47.6072 67.2859 49.0619 67.376 50.0995 67.1274C50.4096 67.0517 50.7382 67.1418 50.9672 67.358C51.0373 67.4265 51.6539 68.0463 51.6059 69.0733C51.5653 69.9238 51.0927 70.7634 50.1955 71.5706C50.6829 71.5201 51.7093 71.2751 53.7364 70.3526C54.1352 70.1724 54.6078 70.2877 54.8699 70.6337C55.6785 71.7003 56.4429 74.3886 53.5518 76.9075C53.3745 77.0589 53.1567 77.1346 52.9389 77.1346V77.1382Z" fill="#231F20"/>
<path d="M57.4062 101.257C55.6782 101.257 54.1644 100.76 52.8979 99.7692C49.9367 97.4557 49.4493 93.2899 49.4308 93.1134C49.405 92.8683 49.4788 92.6233 49.6413 92.4359C49.8038 92.2485 50.0364 92.1332 50.2874 92.1188L64.3219 91.2611C64.5914 91.2503 64.8573 91.344 65.0456 91.535C65.2339 91.726 65.3262 91.9854 65.3004 92.2485C64.9127 96.1079 63.7865 100.609 58.4807 101.2C58.1151 101.239 57.757 101.261 57.4062 101.261V101.257ZM51.4431 93.8485C51.7348 95.0449 52.4438 97.1097 54.0573 98.3638C55.1798 99.2395 56.5976 99.589 58.2702 99.4016C61.2278 99.0737 62.7379 97.2323 63.3324 93.1169L51.4431 93.8449V93.8485Z" fill="#231F20"/>
<path d="M58.6428 104.749C58.1628 104.749 57.7603 104.389 57.7234 103.913L57.4576 100.367C57.4206 99.8698 57.8009 99.4374 58.3105 99.4013C58.8237 99.3653 59.2631 99.7365 59.3 100.234L59.5659 103.78C59.6028 104.277 59.2225 104.709 58.7129 104.745C58.6908 104.745 58.6686 104.745 58.6428 104.745V104.749Z" fill="#231F20"/>
<path d="M59.8766 120.007C59.4077 120.007 59.0053 119.661 58.961 119.196L58.7431 117.063C58.6914 116.569 59.0606 116.126 59.5702 116.076C60.0834 116.025 60.5302 116.385 60.5819 116.883L60.7997 119.016C60.8514 119.51 60.4822 119.953 59.9726 120.003C59.9431 120.003 59.9099 120.007 59.8803 120.007H59.8766Z" fill="#231F20"/>
<path d="M57.3627 120.911C56.9197 120.911 56.5283 120.598 56.4544 120.158C56.3695 119.668 56.7092 119.203 57.2113 119.12L62.7461 118.216C63.252 118.133 63.7246 118.464 63.8095 118.955C63.8944 119.445 63.5547 119.91 63.0526 119.992L57.5178 120.897C57.4661 120.904 57.4144 120.908 57.3627 120.908V120.911Z" fill="#231F20"/>
<path d="M42.3081 117.881C41.2263 117.881 38.0767 117.6 36.5075 114.464C35.8946 113.221 35.3518 110.54 37.6669 109.254C37.6816 109.246 37.6964 109.239 37.7112 109.232C38.409 108.89 39.7715 108.648 40.9973 109.459C41.4441 108.659 42.2084 107.956 43.4084 107.956C43.4343 107.956 43.4601 107.956 43.4823 107.956C44.4718 107.902 46.3401 108.432 46.6983 110.782C46.7278 111.019 47.2484 115.891 42.9764 117.791C42.8804 117.834 42.7807 117.859 42.6773 117.866C42.6478 117.866 42.5149 117.881 42.3044 117.881H42.3081ZM38.5604 110.832C37.1979 111.618 38.1321 113.596 38.1727 113.682C39.3247 115.982 41.7284 116.09 42.3672 116.079C45.2435 114.677 44.889 111.167 44.8743 111.016C44.6896 109.809 43.8146 109.751 43.5561 109.758C43.5303 109.758 43.4896 109.758 43.4638 109.758C43.4527 109.758 43.4416 109.758 43.4269 109.758C42.5038 109.758 42.3192 111.214 42.3118 111.275C42.2638 111.657 41.9758 111.967 41.5918 112.05C41.2078 112.133 40.8127 111.971 40.6059 111.643C39.7936 110.353 38.7524 110.745 38.5604 110.832Z" fill="#231F20"/>
<path d="M42.7476 134.847C41.6657 134.847 38.5162 134.566 36.9469 131.431C36.334 130.187 35.7912 127.506 38.1063 126.22C38.1211 126.212 38.1359 126.205 38.1506 126.198C38.8485 125.856 40.2109 125.614 41.4368 126.425C41.8946 125.607 42.6774 124.883 43.9254 124.926C44.9076 124.872 46.7832 125.402 47.1414 127.751C47.1709 127.989 47.6916 132.861 43.4196 134.76C43.3236 134.803 43.2239 134.829 43.1205 134.836C43.0909 134.836 42.958 134.85 42.7476 134.85V134.847ZM38.9962 127.798C37.6152 128.594 38.5974 130.623 38.6085 130.645C39.7605 132.948 42.1716 133.059 42.8066 133.045C45.6829 131.643 45.3285 128.133 45.3137 127.982C45.1291 126.775 44.2577 126.717 43.9956 126.724C43.9697 126.724 43.9291 126.724 43.9032 126.724C43.8922 126.724 43.8811 126.724 43.87 126.724C42.9469 126.724 42.7549 128.22 42.7512 128.238C42.7069 128.62 42.4226 128.933 42.0349 129.02C41.6509 129.103 41.2522 128.94 41.0454 128.612C40.2331 127.319 39.1919 127.715 38.9999 127.802L38.9962 127.798Z" fill="#231F20"/>
<path d="M42.7476 151.816C41.6657 151.816 38.5162 151.535 36.9469 148.399C36.334 147.156 35.7912 144.475 38.1063 143.189C38.1211 143.181 38.1359 143.174 38.1506 143.167C38.8485 142.825 40.2109 142.583 41.4368 143.394C41.8836 142.594 42.6479 141.891 43.8479 141.891C43.8737 141.891 43.8996 141.891 43.9217 141.891C44.9149 141.837 46.7796 142.367 47.1377 144.717C47.1672 144.954 47.6879 149.826 43.4159 151.726C43.3199 151.769 43.2202 151.794 43.1168 151.801C43.0872 151.801 42.9543 151.816 42.7439 151.816H42.7476ZM38.9962 144.763C37.6337 145.549 38.5679 147.527 38.6085 147.614C39.7605 149.913 42.1716 150.025 42.8029 150.014C45.6792 148.612 45.3248 145.102 45.31 144.951C45.1254 143.744 44.254 143.686 43.9919 143.693C43.966 143.693 43.9254 143.693 43.8996 143.693C42.9617 143.661 42.7549 145.145 42.7476 145.21C42.6996 145.592 42.4116 145.902 42.0276 145.985C41.6436 146.068 41.2485 145.906 41.0417 145.578C40.2294 144.288 39.1882 144.681 38.9962 144.767V144.763Z" fill="#231F20"/>
</g>
<defs>
<clipPath id="clip0_1837_629042">
<rect width="100" height="210" fill="white"/>
</clipPath>
</defs>
</svg>
