<svg width="100" height="210" viewBox="0 0 100 210" fill="none" xmlns="http://www.w3.org/2000/svg">
<path d="M38.7191 91.4846C38.7191 91.4846 19.9917 69.2756 28.5468 37.8882C28.5468 37.8882 51.956 27.8629 75.7788 50.7891C75.7788 50.7891 75.7936 62.8972 68.8114 62.6053C68.8114 62.6053 68.6563 81.7332 66.0754 88.2377L38.7191 91.4846Z" fill="white"/>
<path d="M21.8604 119.43L26.5755 94.5436L13.8555 93.5742L15.4727 118.886L21.8604 119.43Z" fill="white"/>
<path d="M14.3682 101.636L25.1423 102.119L21.8599 119.43L15.4722 118.886L14.3682 101.636Z" fill="#FF6A2F"/>
<path d="M73.9618 109.69C76.7273 108.717 77.1815 107.135 77.1815 107.135C79.0498 100.32 73.9987 99.7184 73.9987 99.7184C73.467 93.4589 75.5605 88.2373 75.5605 88.2373C75.5605 88.2373 93.0141 94.9688 87.4018 109.567C87.4018 109.567 85.5335 113.34 82.539 114.068L84.1562 114.936C85.6996 115.668 86.5082 117.091 86.5082 117.091C87.6713 119.117 84.8319 119.16 84.8319 119.16C83.0227 119.174 84.0824 120.093 84.0824 120.093C86.2313 121.672 84.8356 122.792 84.8356 122.792C84.219 123.351 81.9556 123.189 81.9556 123.189C82.8565 123.736 82.7162 124.623 82.7162 124.623C82.2215 126.068 78.2522 124.623 78.2522 124.623L75.3095 123.081C75.3095 123.081 72.2892 116.839 73.0719 109.668L73.9581 109.69H73.9618Z" fill="white"/>
<path d="M66.5705 84.3135C66.5705 84.3135 72.0721 85.3982 75.5613 88.2378C75.5613 88.2378 70.6985 109.449 77.1822 124.047H32.1804C32.1804 124.047 29.9355 102.634 37.5416 89.1279L38.9521 86.9693C38.9521 86.9693 53.5256 91.5783 66.5742 84.3135H66.5705Z" fill="#67A9F9"/>
<path d="M52.7088 198.266H34.7715C30.5623 196.245 32.0798 192.003 32.0798 192.003C33.5272 185.203 44.6374 186.684 44.6374 186.684L57.9038 186.973C57.9038 186.973 61.7365 192.277 58.0995 198.266H52.7125H52.7088Z" fill="#2BE6AE"/>
<path d="M79.6299 187.751C83.9979 193.25 78.3745 198.738 78.3745 198.738L55.5523 199.142C50.3942 196.919 53.2594 191.329 53.2594 191.329C55.5376 185.809 63.4686 187.964 63.4686 187.964L76.4656 185.902C76.4656 185.902 76.5099 185.91 76.5874 185.924C77.7874 186.169 78.8766 186.803 79.6299 187.751Z" fill="#2BE6AE"/>
<path d="M68.4348 52.3135C65.8132 54.4793 62.7892 54.3315 62.7892 54.3315C58.5615 54.3748 57.6938 52.3387 57.4723 51.4919C57.3948 51.1928 57.1252 50.4829 56.9111 50.2522C56.1061 49.3766 54.9209 49.6865 54.1455 50.0396C53.2188 50.4649 52.1628 50.5982 51.1732 50.3387C48.7806 49.7153 48.8692 47.5892 48.8692 47.5892C48.0643 44.6378 44.0286 45.6216 44.0286 45.6216C38.5824 45.2288 38.7191 40.6342 38.7191 40.6342V38.9874C38.7191 38.9874 57.044 34.7856 69.6458 50.7892L68.4348 52.3135Z" fill="#F8B3FF"/>
<path d="M35.7322 86.8246C33.0701 90.5039 30.1199 88.7778 30.1199 88.7778C30.0904 88.8102 29.3482 88.2408 28.9716 87.83C27.6498 86.367 28.1667 83.7868 28.6208 82.2769C29.9833 79.9057 26.9408 79.2102 26.9408 79.2102C23.0676 77.7075 26.6085 73.7724 26.6085 73.7724C27.8528 71.1706 25.187 70.2444 25.187 70.2444C20.0916 68.5075 26.9445 62.6084 26.9445 62.6084C26.9445 62.6084 30.803 80.3922 35.7396 86.8246H35.7322Z" fill="#F8B3FF"/>
<path d="M25.3229 101.153L24.8097 100.951L23.7832 108.634C23.7832 108.634 26.4306 113.874 31.9211 113.575L33.3094 101.157C30.0786 103.326 25.3192 101.157 25.3192 101.157" fill="white"/>
<path d="M75.147 53.0734C82.8602 18.7743 53.2258 17.9382 53.2258 17.9382C22.1218 16.8644 27.6344 44.9472 27.6344 44.9472C27.6344 44.9472 45.7562 29.6499 69.6381 51.7581L75.147 53.0734Z" fill="#FFF080"/>
<path d="M38.4141 33.7151C41.2906 33.4695 43.5019 31.9251 43.3532 30.2657C43.2044 28.6062 40.7519 27.46 37.8754 27.7057C34.9989 27.9513 32.7876 29.4957 32.9363 31.1551C33.0851 32.8146 35.5376 33.9608 38.4141 33.7151Z" fill="#2BE6AE"/>
<path d="M59.5663 32.3375C59.7245 30.6789 57.5221 29.1225 54.647 28.8612C51.772 28.5999 49.313 29.7327 49.1547 31.3913C48.9965 33.0499 51.1989 34.6064 54.074 34.8676C56.949 35.1289 59.408 33.9962 59.5663 32.3375Z" fill="#2BE6AE"/>
<path d="M14.069 109.391C21.3835 111.272 19.8881 108.022 19.8881 108.022C19.5484 107.113 20.5232 106.576 20.5232 106.576C22.2586 105.459 20.9035 104.429 20.9035 104.429C19.9287 103.769 20.7336 102.613 20.7336 102.613C22.3435 100.958 19.8032 100.422 19.8032 100.422C17.813 100.007 19.2087 98.4287 19.2087 98.4287C20.6893 95.6503 17.7687 96.1657 17.7687 96.1657C15.653 96.3711 13.8475 97.3801 13.8475 97.3801C13.8475 97.3801 9.36871 103.052 14.0653 109.391H14.069Z" fill="white"/>
<path d="M58.7906 184.31C59.3887 186.025 58.0226 187.225 58.0226 187.225C50.985 191.737 44.638 186.688 44.638 186.688C44.638 186.688 42.5001 184.331 45.1217 182.512C45.1217 182.512 50.9186 179.362 57.2804 182.638C57.9746 182.994 58.5395 183.585 58.7943 184.31H58.7906Z" fill="#FFF080"/>
<path d="M76.5131 182.511C78.7913 184.194 77.2036 186.821 77.2036 186.821C74.5119 191.466 65.6134 189.379 65.6134 189.379C60.23 187.225 64.646 183.455 64.646 183.455C64.646 183.455 69.8706 179.924 75.8005 182.129C76.0553 182.223 76.2953 182.356 76.5168 182.511H76.5131Z" fill="#FFF080"/>
<path d="M76.1808 157.7L74.9033 184.356V184.864C69.4978 187.693 66.2781 183.837 66.2781 183.837C66.2781 183.837 59.1445 157.646 59.1445 157.7H76.1845" fill="white"/>
<path d="M56.5863 183.837L54.526 157.7H39.0146C39.0146 157.7 43.3826 174.378 46.894 183.837C46.894 183.837 50.4571 187.08 56.5863 184.356V183.837Z" fill="white"/>
<path d="M52.1734 157.701H31.286C31.0349 157.701 32.1795 124.047 32.1795 124.047H76.5205L76.5611 124.623C79.3118 144.274 85.5666 157.701 85.5666 157.701H52.1734Z" fill="#FFF080"/>
<path d="M79.0832 137.906C74.8592 140.598 73.9804 136.13 73.9804 136.13C72.4592 138.757 69.8413 137.69 69.8413 137.69C66.8358 136.432 68.7484 133.308 68.7484 133.308C66.7176 135.214 64.4949 133.69 64.4949 133.69C61.722 131.175 64.8456 128.814 64.8456 128.814C61.0573 127.139 63.6752 124.047 63.6752 124.047H76.5207C76.5207 124.047 77.1964 130.184 79.0832 137.906Z" fill="#FFBA57"/>
<path d="M72.286 157.701C69.1069 154.357 73.0097 152.623 73.0097 152.623C70.9863 151.589 71.854 149.376 71.854 149.376C72.8657 145.661 76.6245 147.917 76.6245 147.917C77.1082 142.695 81.0589 145.47 81.1254 145.452C81.1254 145.452 83.8651 154.31 85.5636 157.697H72.286V157.701Z" fill="#FFBA57"/>
<path d="M52.1738 124.047C52.0631 125.82 50.3277 126.332 50.3277 126.332C51.6754 127.211 50.7818 129.654 50.7818 129.654C49.5818 132.587 46.0741 130.728 46.0741 130.728C44.8741 133.416 41.7098 132.342 41.7098 132.342C38.6489 131.121 40.2144 128.335 40.2144 128.335C38.4606 129.312 36.6587 128.335 36.6587 128.335C34.8052 126.479 35.8058 124.047 35.8058 124.047H52.1701H52.1738Z" fill="#FFBA57"/>
<path d="M43.3711 157.701C44.3717 153.495 40.9674 153.65 40.9674 153.65C42.6215 150.768 40.5169 149.214 40.5169 149.214C37.9618 147.416 36.16 150.378 36.16 150.378C34.8086 146.566 31.4191 148.515 31.4117 148.811L31.2861 157.704H43.3711V157.701Z" fill="#FFBA57"/>
<path d="M50.3279 139.192L51.6461 152.432L51.8159 152.587C54.2713 155.79 56.9519 154.007 56.9519 154.007C58.8239 152.558 57.7384 150.835 57.7384 150.835C60.1199 150.493 60.3525 148.551 60.3525 148.551C60.6664 145.235 57.4651 145.199 57.4651 145.199C60.1974 143.715 59.1378 141.466 59.1378 141.466C57.5722 138.875 54.8104 140.875 54.8104 140.875C54.2233 135.83 50.3242 139.192 50.3242 139.192" fill="#FFBA57"/>
<path d="M74.837 54.9258C74.837 54.9258 79.4081 56.8573 79.4819 59.3042C79.4819 59.3042 79.925 61.1744 76.8271 62.76C76.8271 62.76 74.933 64.342 77.1705 65.9276C77.1705 65.9276 82.1847 67.7366 77.717 70.2988C77.717 70.2988 75.5792 71.906 78.677 73.2645C78.677 73.2645 82.3619 74.5726 78.9355 77.7726C78.9355 77.7726 76.3065 79.7402 73.205 80.0573C73.205 80.0573 73.0278 80.3312 67.6924 79.5852L68.8961 61.2681C68.8961 61.2681 72.3225 62.0357 73.8992 58.2195L74.8333 54.9258H74.837Z" fill="#F8B3FF"/>
<path d="M75.1474 53.9748C75.0809 53.9748 75.0145 53.9676 74.948 53.9532C74.4495 53.8451 74.1357 53.3658 74.2428 52.8793C76.7166 41.8847 75.5535 33.2865 70.7831 27.3262C64.3141 19.2397 53.3074 18.8397 53.1966 18.8361C43.988 18.519 37.2089 20.7712 33.0218 25.5316C27.7714 31.5063 27.9966 39.946 28.34 43.3118C30.2452 42.0577 34.1369 39.9316 39.5461 39.1712C46.6021 38.173 57.6643 39.4379 70.2698 51.1063C70.6391 51.4487 70.6538 52.0181 70.3031 52.3784C69.9523 52.7388 69.3689 52.7532 68.9997 52.4109C59.4809 43.5964 49.4231 39.6289 39.908 40.937C32.7191 41.9244 28.2809 45.5892 28.2366 45.6253C27.9855 45.8343 27.6421 45.8991 27.3283 45.7946C27.0181 45.6901 26.7855 45.4307 26.7265 45.1136C26.6268 44.6054 24.3745 32.6127 31.6151 24.364C36.1861 19.1604 43.4637 16.6919 53.2594 17.0307C53.7394 17.0451 65.2446 17.4667 72.2415 26.2127C77.3628 32.6163 78.644 41.7154 76.0483 53.2613C75.9523 53.6829 75.572 53.9676 75.1474 53.9676V53.9748Z" fill="#231F20"/>
<path d="M70.1257 62.1729C69.6753 62.1729 69.2802 61.8522 69.2137 61.4017C69.1399 60.908 69.4906 60.4504 69.9928 60.3819C70.2993 60.3387 70.6057 60.2522 70.9048 60.1261C71.8537 59.7261 72.6328 58.9116 73.0426 57.8954C74.6673 53.863 73.8439 52.1549 73.1386 51.7801C72.2156 51.5963 71.5103 51.7044 70.9823 52.1044C69.8931 52.9297 69.8229 54.7567 69.8229 54.7783C69.8082 55.2648 69.3983 55.6504 68.8999 55.6504C68.8925 55.6504 68.8814 55.6504 68.874 55.6504C68.3645 55.636 67.9657 55.2252 67.9768 54.7279C67.9768 54.6198 68.0654 52.0432 69.8414 50.6882C70.8383 49.9279 72.1159 49.7116 73.6371 50.0396C73.6777 50.0468 73.7183 50.0612 73.7589 50.0756C73.866 50.1153 74.826 50.4936 75.402 51.7513C76.1442 53.3693 75.9263 55.6612 74.7596 58.5549C74.1688 60.018 73.0316 61.1927 71.6359 61.7837C71.1891 61.9711 70.7239 62.1008 70.2586 62.1693C70.2143 62.1765 70.17 62.1801 70.1257 62.1801V62.1729Z" fill="#231F20"/>
<path d="M49.7482 89.146C46.7427 89.146 43.3458 88.8757 39.5427 88.1947C39.0406 88.1046 38.7082 87.6361 38.8006 87.146C38.8929 86.6559 39.3729 86.3316 39.875 86.4217C48.9581 88.0505 55.5858 87.1892 59.5513 86.1802C62.9667 85.3118 65.0381 84.1874 65.7507 83.7586C68.3021 72.573 67.9809 64.2055 67.9772 64.119C67.955 63.6217 68.3501 63.2037 68.8596 63.182C69.3729 63.1676 69.7975 63.546 69.8196 64.0433C69.8344 64.4001 70.163 72.9154 67.4676 84.5118C67.4196 84.7244 67.2904 84.9154 67.1095 85.0415C66.8141 85.2505 61.1242 89.1424 49.7482 89.1424V89.146Z" fill="#231F20"/>
<path d="M77.1815 124.948H32.1797C31.707 124.948 31.3083 124.598 31.2603 124.137C31.2381 123.917 30.6954 118.634 31.0867 111.604C31.4486 105.085 32.7187 95.82 36.7323 88.6956C36.9797 88.2596 37.5409 88.101 37.9877 88.3389C38.4344 88.5803 38.5969 89.1281 38.3532 89.5641C31.7994 101.2 32.7298 119.142 33.0326 123.146H75.8117C72.8874 115.69 72.6658 106.861 73.0203 100.616C73.3563 94.7389 74.2203 90.1443 74.5415 88.5947C71.259 86.1767 66.4406 85.2037 66.3889 85.1929C65.8904 85.0956 65.5655 84.62 65.6652 84.1299C65.7649 83.6434 66.2523 83.3263 66.7544 83.4236C66.987 83.4704 72.5255 84.5875 76.155 87.5389C76.4209 87.7551 76.539 88.0974 76.4652 88.429C76.4172 88.638 71.7464 109.528 78.0307 123.683C78.1526 123.96 78.1267 124.281 77.9569 124.537C77.787 124.793 77.4954 124.944 77.1852 124.944L77.1815 124.948Z" fill="#231F20"/>
<path d="M82.543 114.973C82.1295 114.973 81.7529 114.699 81.6495 114.292C81.5276 113.809 81.8267 113.319 82.3215 113.2C84.7178 112.616 86.3756 109.564 86.5603 109.211C88.7166 103.553 87.5129 98.4722 82.9787 94.1082C79.4969 90.7533 75.2655 89.092 75.2249 89.0776C74.7523 88.8938 74.5196 88.3713 74.7079 87.91C74.8963 87.4487 75.4316 87.2217 75.9043 87.4019C76.0889 87.474 94.1332 94.6343 88.2735 109.888C88.2624 109.914 88.2513 109.939 88.2403 109.964C88.1553 110.133 86.143 114.123 82.7719 114.948C82.6981 114.966 82.6206 114.977 82.5467 114.977L82.543 114.973Z" fill="#231F20"/>
<path d="M73.9622 110.591C73.5856 110.591 73.2311 110.364 73.0945 109.997C72.921 109.528 73.1683 109.013 73.6483 108.843C75.8637 108.061 76.2847 106.919 76.2994 106.872C76.8791 104.757 76.7942 103.103 76.0373 101.986C75.2397 100.811 73.9363 100.62 73.881 100.613C73.3788 100.544 73.0243 100.094 73.0908 99.6037C73.1573 99.1137 73.6114 98.7677 74.1136 98.8254C74.2022 98.8362 76.2736 99.1028 77.5548 100.955C78.6367 102.523 78.8139 104.681 78.0754 107.37C78.0127 107.589 77.396 109.438 74.276 110.537C74.1727 110.573 74.0656 110.591 73.9622 110.591Z" fill="#231F20"/>
<path d="M29.8023 103.02C27.2805 103.02 25.0725 102.033 24.9322 101.971C24.4707 101.762 24.2713 101.225 24.4854 100.775C24.6996 100.324 25.2497 100.13 25.7113 100.339C25.7556 100.357 30.0387 102.26 32.7857 100.415C33.203 100.133 33.779 100.234 34.0707 100.645C34.3587 101.056 34.2553 101.614 33.8343 101.899C32.5753 102.742 31.1427 103.024 29.8023 103.024V103.02Z" fill="#231F20"/>
<path d="M31.4599 114.487C25.7811 114.487 23.0709 109.261 22.9565 109.034C22.7312 108.587 22.9195 108.047 23.3774 107.827C23.8352 107.607 24.3854 107.791 24.6143 108.234C24.714 108.432 27.0771 112.933 31.8771 112.674C32.3792 112.638 32.8223 113.027 32.8519 113.524C32.8814 114.022 32.49 114.447 31.9805 114.476C31.8069 114.487 31.6334 114.49 31.4635 114.49L31.4599 114.487Z" fill="#231F20"/>
<path d="M85.5633 158.602H52.17C51.6937 158.602 51.2986 158.249 51.2506 157.787L48.9983 135.207C48.9503 134.713 49.3196 134.27 49.8291 134.223C50.3386 134.177 50.7891 134.537 50.8371 135.034L53.0082 156.804H84.1676C82.5651 152.98 77.898 140.876 75.642 124.75C75.5719 124.256 75.9263 123.802 76.4322 123.737C76.938 123.668 77.4033 124.014 77.4697 124.508C80.1688 143.787 86.3386 157.204 86.4014 157.337C86.5306 157.614 86.5085 157.939 86.3386 158.198C86.1688 158.458 85.8771 158.613 85.5633 158.613V158.602Z" fill="#231F20"/>
<path d="M52.1734 158.602H31.286C31.0349 158.602 30.7949 158.501 30.6214 158.324C30.2411 157.939 30.2004 157.899 30.7211 140.753C30.9721 132.465 31.2564 124.097 31.2601 124.015C31.2786 123.517 31.6995 123.135 32.2128 123.142C32.7223 123.16 33.1211 123.575 33.1063 124.072C32.7112 135.737 32.1758 152.923 32.1758 156.796H52.1771C52.6866 156.796 53.1001 157.2 53.1001 157.697C53.1001 158.195 52.6866 158.598 52.1771 158.598L52.1734 158.602Z" fill="#231F20"/>
<path d="M74.9035 185.261C74.9035 185.261 74.8739 185.261 74.8592 185.261C74.3496 185.24 73.9582 184.818 73.9804 184.321L75.2579 157.665C75.2801 157.168 75.7047 156.786 76.2216 156.807C76.7312 156.829 77.1225 157.251 77.1004 157.748L75.8228 184.404C75.8007 184.887 75.3908 185.261 74.8998 185.261H74.9035Z" fill="#231F20"/>
<path d="M71.0413 186.804C69.9004 186.804 68.9404 186.551 68.202 186.245C66.5293 185.557 65.5989 184.458 65.5583 184.411C65.477 184.314 65.4143 184.198 65.381 184.072C62.9737 175.236 58.3878 158.411 58.2549 157.964L59.141 157.712L59.0192 156.807C59.8241 156.706 60.0198 157.416 60.1121 157.759L61.1497 161.55C61.818 164 62.7115 167.269 63.6013 170.533L67.1053 183.395C67.685 183.982 70.3066 186.242 74.4604 184.069C74.9109 183.831 75.4684 183.997 75.7084 184.436C75.9484 184.876 75.7823 185.42 75.3318 185.654C73.7146 186.501 72.2672 186.797 71.0377 186.797L71.0413 186.804Z" fill="#231F20"/>
<path d="M56.5823 184.739C56.106 184.739 55.6998 184.379 55.6629 183.906L53.6026 157.77C53.562 157.272 53.9423 156.84 54.4518 156.804C54.9503 156.757 55.4044 157.135 55.4413 157.633L57.5017 183.769C57.5423 184.267 57.162 184.699 56.6524 184.735C56.6303 184.735 56.6044 184.735 56.5823 184.735V184.739Z" fill="#231F20"/>
<path d="M51.8339 186.357C48.3594 186.357 46.3804 184.602 46.2659 184.497C46.1588 184.4 46.0776 184.281 46.0259 184.144C42.5367 174.753 38.1613 158.09 38.1207 157.924C37.9951 157.442 38.2905 156.951 38.7853 156.829C39.28 156.706 39.7822 156.998 39.9077 157.478C39.952 157.643 44.2314 173.953 47.6764 183.301C48.3742 183.824 51.365 185.687 56.2019 183.535C56.6671 183.33 57.2136 183.528 57.424 183.982C57.6345 184.436 57.4314 184.97 56.9662 185.175C55.013 186.043 53.2923 186.353 51.8339 186.353V186.357Z" fill="#231F20"/>
<path d="M51.9078 189.986C47.3958 189.986 44.0985 187.42 44.0505 187.384C44.0136 187.355 43.9767 187.319 43.9435 187.283C43.8179 187.146 42.725 185.888 42.9096 184.296C43.0241 183.315 43.589 182.465 44.5822 181.777C44.9958 181.488 45.5755 181.586 45.8709 181.989C46.1662 182.396 46.0702 182.959 45.653 183.247C45.0992 183.633 44.8038 184.04 44.7447 184.494C44.6598 185.186 45.1361 185.852 45.2838 186.04C45.9816 186.562 51.3982 190.335 57.4425 186.515C57.7305 186.231 58.6352 185.135 57.317 183.636C56.9847 183.258 57.029 182.688 57.4167 182.364C57.8044 182.04 58.3841 182.083 58.7201 182.461C60.821 184.854 59.5841 187.06 58.6352 187.892C58.6019 187.921 58.565 187.95 58.5244 187.975C56.1982 189.467 53.9275 189.982 51.9041 189.982L51.9078 189.986Z" fill="#231F20"/>
<path d="M69.9852 190.753C67.5741 190.753 65.5728 190.299 65.3956 190.256C65.3513 190.245 65.3033 190.231 65.259 190.213C63.3648 189.456 62.2867 188.389 62.0578 187.049C61.6848 184.854 63.7932 182.984 64.0332 182.775C64.4172 182.447 65.0005 182.486 65.3365 182.861C65.6725 183.236 65.6319 183.802 65.2516 184.13C64.8085 184.512 63.7008 185.726 63.8781 186.757C64.0221 187.585 65.0338 188.169 65.8867 188.519C66.6732 188.688 74.187 190.184 76.395 186.378C76.5205 186.169 77.5064 184.382 75.9519 183.229C75.5458 182.93 75.4645 182.364 75.7747 181.967C76.0812 181.571 76.6608 181.492 77.067 181.795C79.3858 183.51 78.6879 186.133 77.9938 187.279C76.3618 190.097 72.8762 190.753 69.9815 190.753H69.9852Z" fill="#231F20"/>
<path d="M52.709 199.168H34.7717C34.6314 199.168 34.4911 199.135 34.3656 199.074C30.4997 197.218 30.5883 193.517 31.1902 191.762C31.8843 188.62 34.4985 186.595 38.752 185.903C41.813 185.405 44.645 185.773 44.7631 185.791C45.269 185.859 45.6197 186.313 45.5533 186.804C45.4831 187.297 45.0253 187.643 44.5157 187.575C44.4123 187.56 34.2437 186.288 32.9846 192.184C32.9773 192.223 32.9662 192.259 32.9514 192.299C32.8296 192.649 31.8696 195.73 34.9933 197.362H52.709C53.2185 197.362 53.632 197.766 53.632 198.263C53.632 198.76 53.2185 199.164 52.709 199.164V199.168Z" fill="#231F20"/>
<path d="M55.5557 200.043C55.4265 200.043 55.3009 200.018 55.1828 199.968C53.5323 199.258 52.4283 198.166 51.8966 196.724C50.9403 194.13 52.24 191.333 52.4209 190.966C54.4775 186.036 60.7102 186.281 63.7231 187.099C64.2142 187.233 64.5022 187.73 64.3655 188.209C64.2289 188.688 63.7231 188.97 63.2283 188.836C63.184 188.825 61.3194 188.335 59.2443 188.483C56.6412 188.667 54.9206 189.741 54.1231 191.672C54.112 191.694 54.1046 191.715 54.0935 191.737C54.0825 191.759 52.9009 194.133 53.6394 196.123C53.9828 197.042 54.6732 197.737 55.7551 198.242L77.9717 197.849C79.0092 196.696 82.7052 191.968 78.1378 187.456C77.7797 187.103 77.7834 186.533 78.1452 186.18C78.5071 185.831 79.0905 185.834 79.4523 186.188C85.888 192.541 79.1052 199.308 79.0351 199.377C78.8652 199.542 78.6363 199.636 78.4 199.64L55.5778 200.043H55.5631H55.5557Z" fill="#231F20"/>
<path d="M54.2523 62.9442C53.824 62.9442 53.4437 62.8973 53.152 62.8253C51.6787 62.4613 50.667 61.5712 50.379 60.3856C50.1206 59.3334 50.4787 58.2018 51.291 57.5099C53.008 56.0433 55.0572 56.0829 56.6006 56.6054C56.4861 56.3856 56.3458 56.1802 56.1649 55.9964C55.5409 55.3586 54.5218 55.1207 53.1335 55.2901C53.115 55.2901 53.1003 55.2901 53.0818 55.2937C53.0634 55.2937 52.1477 55.409 51.3354 56.5802C51.051 56.9946 50.475 57.1027 50.0541 56.8216C49.6332 56.5442 49.5187 55.982 49.8067 55.5712C51.0658 53.755 52.624 53.5244 52.9267 53.4991C54.9206 53.2613 56.4603 53.6865 57.5052 54.7604C59.3292 56.6307 58.8049 59.737 58.7827 59.8703C58.7754 59.9027 58.768 59.9352 58.7606 59.9676C58.0664 62.3027 55.8437 62.9478 54.256 62.9478L54.2523 62.9442ZM54.6363 58.0649C53.9495 58.0649 53.2037 58.2703 52.5095 58.8649C52.2178 59.1135 52.0812 59.5676 52.1772 59.9676C52.3027 60.4865 52.8123 60.8829 53.6098 61.0811C53.6357 61.0883 56.3237 61.5352 56.9735 59.5171C56.9883 59.4198 57.0178 59.1712 57.0252 58.8361C56.6338 58.5622 55.7034 58.0685 54.6363 58.0685V58.0649Z" fill="#231F20"/>
<path d="M34.0812 61.9999C33.6529 61.9999 33.2725 61.9531 32.9772 61.881C31.5039 61.5171 30.4922 60.627 30.2042 59.4414C29.9458 58.3891 30.3039 57.2576 31.1162 56.5657C32.8332 55.099 34.8824 55.1351 36.4258 55.6612C36.3113 55.4414 36.171 55.236 35.9901 55.0522C35.3661 54.4144 34.347 54.1765 32.9587 54.3423C32.9402 54.3423 32.9255 54.3423 32.907 54.3459C32.8885 54.3459 31.9729 54.4612 31.1605 55.6324C30.8762 56.0432 30.3002 56.1549 29.8793 55.8738C29.4584 55.5963 29.3439 55.0342 29.6319 54.6234C30.891 52.8071 32.4492 52.5765 32.7519 52.5513C34.7458 52.3171 36.2855 52.7387 37.3304 53.8125C39.1544 55.6828 38.6301 58.7891 38.6079 58.9225C38.6005 58.9549 38.5932 58.9873 38.5858 59.0198C37.8916 61.3549 35.6689 61.9999 34.0812 61.9999ZM34.4615 57.1207C33.7747 57.1207 33.0289 57.3225 32.331 57.9207C32.0393 58.1693 31.9027 58.6234 31.9987 59.0234C32.1242 59.5423 32.6338 59.9387 33.4313 60.1369C33.4609 60.1441 36.1452 60.5909 36.795 58.5729C36.8098 58.4756 36.8393 58.227 36.8467 57.8918C36.4553 57.618 35.5285 57.1243 34.4578 57.1243L34.4615 57.1207Z" fill="#231F20"/>
<path d="M50.2353 79.3911C50.0654 79.3911 49.9029 79.3695 49.7442 79.3262C48.8543 79.0812 48.5146 78.2415 48.4519 77.7803C48.4223 77.5605 48.4777 77.337 48.6069 77.1532C49.5337 75.8415 49.8291 75.0992 49.914 74.7172C47.7097 75.9352 46.3916 76.1623 45.5719 75.492C44.8703 74.9154 44.9405 73.9208 45.21 73.2469C45.2469 73.1568 45.2949 73.074 45.3577 73.0019C46.0925 72.137 46.314 71.5785 46.3731 71.265C42.6993 73.5244 41.1116 71.5821 41.0414 71.492C40.9897 71.4235 40.9454 71.3478 40.9159 71.2686C39.6383 68.0541 40.8162 61.2325 40.8679 60.9442C40.9528 60.4541 41.4328 60.1262 41.9349 60.2091C42.4371 60.292 42.7768 60.7568 42.6882 61.2505C42.378 63.0307 41.7688 68.0433 42.5663 70.4217C42.8469 70.5803 43.8623 70.901 46.1183 69.2505C46.3879 69.0559 46.7423 69.0163 47.0488 69.1496C47.4586 69.3262 48.0014 69.8019 48.1823 70.5478C48.4186 71.528 47.9866 72.692 46.9011 74.0145L46.8937 74.0469C47.2408 73.9893 48.0309 73.7442 49.6149 72.8073C49.7589 72.7208 49.9251 72.6776 50.0949 72.6776C50.5639 72.6776 51.2359 72.9082 51.5866 73.5605C52.0592 74.4397 51.7528 75.6866 50.6229 77.4559C51.0882 77.2109 52.0039 76.5298 53.5436 74.6596C53.8648 74.274 54.4445 74.2091 54.8433 74.5226C55.242 74.8361 55.3048 75.4019 54.9836 75.7911C52.9491 78.2559 51.4574 79.3983 50.2389 79.3983L50.2353 79.3911Z" fill="#231F20"/>
<path d="M37.6406 34.6486C36.3963 34.6486 35.2148 34.4108 34.2511 33.9603C32.9108 33.3333 32.1169 32.3639 32.0135 31.2324C31.8178 29.045 34.3545 27.1027 37.792 26.8072C41.2258 26.5081 44.0726 28 44.2683 30.1873C44.3717 31.3189 43.7588 32.4108 42.5514 33.254C41.488 33.9964 40.0443 34.4792 38.4898 34.6126C38.2018 34.6378 37.9175 34.6486 37.6369 34.6486H37.6406ZM38.6634 28.5729C38.4344 28.5729 38.1981 28.5837 37.9544 28.6018C35.4252 28.818 33.7637 30.0792 33.8523 31.0738C33.8929 31.5387 34.3286 32 35.0486 32.3351C35.9237 32.7423 37.12 32.9153 38.3311 32.8144C39.5421 32.7099 40.6905 32.3351 41.4806 31.7837C42.1268 31.3333 42.4738 30.8072 42.4332 30.3387C42.352 29.4378 40.8234 28.5657 38.6634 28.5657V28.5729Z" fill="#231F20"/>
<path d="M54.8985 35.8055C54.5994 35.8055 54.2967 35.7911 53.9865 35.7623C50.5527 35.4488 48.0234 33.492 48.2339 31.3046C48.4444 29.1172 51.2985 27.6506 54.7324 27.9605C58.1662 28.274 60.6954 30.2307 60.485 32.4181C60.2967 34.4073 57.9151 35.8019 54.8985 35.8019V35.8055ZM53.8056 29.7226C51.6678 29.7226 50.1576 30.5803 50.069 31.474C49.973 32.4686 51.6271 33.7406 54.1564 33.9713C56.6856 34.2019 58.5502 33.2506 58.6462 32.256C58.7422 31.2614 57.0844 29.9893 54.5588 29.7587C54.3004 29.7334 54.0493 29.7226 53.8056 29.7226Z" fill="#231F20"/>
<path d="M49.3604 31.6145C49.2275 31.6145 49.0909 31.5857 48.9617 31.5245C46.7869 30.5046 43.5746 31.1425 43.5451 31.1497C43.0466 31.247 42.5592 30.9407 42.4521 30.4542C42.3487 29.9677 42.6663 29.492 43.1647 29.3875C43.3198 29.3551 47.0158 28.6163 49.7629 29.9028C50.2244 30.119 50.4164 30.656 50.1949 31.1064C50.0361 31.4308 49.7075 31.6181 49.3604 31.6181V31.6145Z" fill="#231F20"/>
<path d="M76.1998 47.672C75.8158 47.672 75.4614 47.4378 75.3284 47.0666C71.7912 37.1387 61.1758 33.4882 59.5475 33.236C59.145 33.2288 58.7832 32.9621 58.6761 32.5657C58.5469 32.0864 58.8386 31.5928 59.3297 31.463C60.0644 31.2756 63.7789 32.5729 66.9801 34.5261C70.3807 36.6018 74.8927 40.3603 77.0675 46.472C77.2337 46.9405 76.9789 47.4558 76.4989 47.618C76.3992 47.6504 76.2958 47.6684 76.1961 47.6684L76.1998 47.672Z" fill="#231F20"/>
<path d="M27.6935 35.9892C27.5679 35.9892 27.4387 35.964 27.3169 35.9099C26.8516 35.7045 26.6449 35.1748 26.8516 34.7207C28.4615 31.2216 32.5636 30.3171 32.7372 30.2811C33.2356 30.1802 33.7267 30.4829 33.8338 30.9694C33.9409 31.4559 33.627 31.9351 33.1286 32.0396C33.0916 32.0469 29.7538 32.8036 28.5316 35.4595C28.3766 35.7946 28.0406 35.9928 27.6898 35.9928L27.6935 35.9892Z" fill="#231F20"/>
<path d="M62.9112 55.2361C62.8485 55.2361 62.8042 55.2361 62.7746 55.2361C58.2036 55.2721 56.9223 53.0487 56.5789 51.7154C56.5125 51.4523 56.3057 50.9622 56.2134 50.8397C55.8959 50.4974 55.3309 50.4974 54.5408 50.8577C53.3814 51.3875 52.1039 51.5136 50.9408 51.2109C48.6146 50.6055 47.9759 48.7496 47.95 47.7154C47.3149 45.7875 44.3832 46.4649 44.254 46.4938C44.1617 46.5154 44.062 46.5262 43.966 46.519C37.7149 46.0685 37.7999 40.6631 37.7999 40.6091C37.8146 40.119 38.2245 39.7334 38.7229 39.7334C38.7303 39.7334 38.7414 39.7334 38.7488 39.7334C39.2583 39.7478 39.6571 40.1586 39.646 40.6559C39.6386 41.0415 39.7125 44.3352 43.966 44.71C45.7125 44.3316 48.9691 44.4325 49.7666 47.355C49.7888 47.4415 49.7999 47.5316 49.7962 47.6217C49.7962 47.7586 49.822 49.0523 51.4171 49.4667C52.1593 49.6613 52.9937 49.5748 53.758 49.2217C55.3051 48.5118 56.7045 48.6703 57.6017 49.6469C58.0559 50.1406 58.366 51.2541 58.3697 51.2649C58.7389 52.6811 60.2196 53.4271 62.6602 53.4271C62.7045 53.4271 62.7488 53.4271 62.7894 53.4271C62.8042 53.4271 62.8189 53.4271 62.8337 53.4271C62.8559 53.4271 65.5476 53.5136 67.8405 51.6181C68.2319 51.2974 68.8116 51.3442 69.1402 51.7226C69.4688 52.101 69.4208 52.6703 69.0331 52.9911C66.4965 55.0848 63.6349 55.2253 62.9112 55.2253V55.2361Z" fill="#231F20"/>
<path d="M73.2086 80.9621C72.7434 80.9621 72.341 80.6162 72.293 80.1549C72.2413 79.6612 72.6068 79.218 73.1163 79.1639C75.7194 78.8973 78.0234 77.3117 78.3446 77.0847C79.168 76.3063 79.5631 75.6108 79.4597 75.1207C79.349 74.5838 78.6105 74.2018 78.3594 74.1081C78.341 74.1009 78.3188 74.0937 78.304 74.0865C76.949 73.4919 76.2068 72.7207 76.096 71.791C75.9446 70.5369 77.0339 69.6793 77.1594 69.5856C77.189 69.5639 77.2222 69.5423 77.2554 69.5243C78.3225 68.9117 78.677 68.4144 78.6511 68.1477C78.6068 67.6684 77.5619 67.0306 76.853 66.7712C76.7754 66.7423 76.7016 66.7027 76.6314 66.6558C75.6899 65.9892 75.1951 65.2108 75.1619 64.3423C75.1102 63.0522 76.1182 62.173 76.2326 62.0757C76.2843 62.0324 76.3434 61.9928 76.4062 61.9603C78.7582 60.7603 78.592 59.5279 78.5847 59.4775C78.5588 59.4018 78.5699 59.4126 78.5662 59.3297C78.5256 57.9711 76.037 56.4108 74.4751 55.7513C74.0099 55.5531 73.792 55.0234 73.9951 54.5657C74.1982 54.1081 74.741 53.8991 75.2099 54.0973C75.7305 54.3171 80.2646 56.3171 80.4086 59.2216C80.4788 59.7477 80.5305 61.8306 77.381 63.4919C77.2628 63.6144 76.9896 63.9351 77.008 64.2702C77.0265 64.5982 77.3366 64.9081 77.6283 65.1279C78.2302 65.3657 80.3385 66.3171 80.4899 67.982C80.5896 69.0847 79.8363 70.1081 78.2523 71.0342C78.101 71.1675 77.9053 71.4198 77.9274 71.5784C77.9496 71.7549 78.256 72.0829 79.0351 72.4288C79.3526 72.5477 80.9367 73.218 81.2653 74.7423C81.5163 75.9063 80.9477 77.1423 79.5816 78.4216C79.5557 78.4432 79.5299 78.4648 79.504 78.4865C79.3896 78.573 76.6277 80.6162 73.3083 80.9549C73.2751 80.9549 73.2419 80.9585 73.2123 80.9585L73.2086 80.9621Z" fill="#231F20"/>
<path d="M31.7924 90.0901C30.8989 90.0901 30.1346 89.8379 29.6398 89.5496C29.001 89.2217 28.281 88.4325 28.2737 88.4253C27.0589 87.0847 26.8706 84.8721 27.7272 82.0217C27.7457 81.9568 27.7752 81.8955 27.8084 81.8343C28.0337 81.4415 28.0964 81.1244 27.993 80.8937C27.7973 80.4613 27.0404 80.1586 26.7229 80.0865C26.6786 80.0757 26.6343 80.0613 26.59 80.0469C25.0023 79.4307 24.4595 78.4433 24.2823 77.7262C23.8133 75.8163 25.3641 73.8127 25.8072 73.2865C26.025 72.7856 26.062 72.3568 25.9106 72.0073C25.6447 71.3874 24.8693 71.0955 24.862 71.0919C23.1229 70.5009 22.5727 69.4631 22.4213 68.6991C21.8527 65.8703 25.8589 62.328 26.3167 61.9316C26.7007 61.6037 27.2804 61.6397 27.6201 62.0109C27.9561 62.382 27.9229 62.9514 27.5389 63.2829C26.0066 64.6055 23.9684 67.0487 24.2306 68.3532C24.2638 68.5154 24.3635 69.0163 25.4749 69.391C25.6373 69.4487 27.0367 69.964 27.6127 71.3118C27.982 72.173 27.9192 73.128 27.4318 74.1514C27.3949 74.2307 27.3469 74.3028 27.2878 74.364C26.8927 74.8037 25.8257 76.2919 26.0767 77.3046C26.1173 77.4667 26.2392 77.9532 27.2177 78.3496C27.6127 78.4505 29.1155 78.9154 29.6767 80.1658C29.9093 80.6847 30.0607 81.528 29.47 82.6163C29.0933 83.9028 28.6503 86.119 29.6546 87.2289C29.8946 87.4919 30.3266 87.8379 30.4927 87.9532C30.5223 87.9676 30.5555 87.982 30.585 88C30.8066 88.1226 32.8964 89.1676 34.9715 86.3028C35.2669 85.8955 35.8429 85.7982 36.2564 86.0865C36.6737 86.3748 36.7733 86.937 36.478 87.3406C34.9493 89.4559 33.2029 90.0865 31.7887 90.0865L31.7924 90.0901ZM29.6915 87.9748C29.6066 88.0181 29.5253 88.0757 29.4515 88.1514C29.5217 88.0793 29.6029 88.0217 29.6915 87.9748Z" fill="#231F20"/>
<path d="M21.864 120.331C21.8381 120.331 21.8086 120.331 21.7828 120.331L15.3914 119.787C14.9409 119.748 14.5828 119.395 14.5495 118.955L13.9292 110.418C13.8923 109.921 14.2763 109.492 14.7858 109.456C15.2843 109.423 15.7348 109.795 15.7717 110.292L16.3366 118.061L21.1071 118.468L25.4861 95.3585L15.3914 94.4792C14.8818 94.436 14.5089 93.9963 14.5532 93.5026C14.5975 93.0089 15.0369 92.6414 15.5538 92.6846L26.6603 93.654C26.9188 93.6756 27.1551 93.8053 27.3138 94.0071C27.4726 94.2089 27.5317 94.4648 27.4874 94.717L22.7723 119.604C22.6911 120.032 22.3071 120.339 21.864 120.339V120.331Z" fill="#231F20"/>
<path d="M17.7833 110.883C16.7421 110.883 15.435 110.678 13.8326 110.263C13.3415 110.137 13.0461 109.643 13.1753 109.164C13.3046 108.685 13.8067 108.396 14.3015 108.523C18.3076 109.553 19.0129 108.836 19.0387 108.804C19.1347 108.696 19.0609 108.436 19.0387 108.378C19.035 108.368 19.0239 108.342 19.0202 108.332C18.6104 107.229 19.2529 106.26 20.0356 105.813C20.3938 105.578 20.4824 105.409 20.4824 105.369C20.4824 105.326 20.4086 105.211 20.3347 105.142C19.1199 104.281 19.4449 102.861 19.9692 102.108C19.9987 102.069 20.0282 102.029 20.0652 101.993C20.2461 101.805 20.3126 101.687 20.3347 101.632C20.2239 101.521 19.8842 101.366 19.6036 101.301C18.4775 101.067 18.0529 100.483 17.9015 100.036C17.5876 99.1244 18.1821 98.2487 18.4332 97.9316C18.6953 97.4163 18.7101 97.1676 18.7064 97.0883C18.5735 97.0235 18.2042 97.0055 17.931 97.0487C17.9089 97.0487 17.883 97.0559 17.8646 97.0559C15.9815 97.2397 14.3273 98.1478 14.3089 98.1586C13.8658 98.4037 13.3009 98.2523 13.0498 97.8235C12.7987 97.3911 12.9501 96.8433 13.3932 96.5947C13.4744 96.5514 15.3759 95.4992 17.6467 95.2685C18.0233 95.2073 19.4707 95.0487 20.2055 96.0181C20.7224 96.7028 20.6633 97.6541 20.0319 98.8397C19.9987 98.901 19.9581 98.9586 19.9101 99.0127C19.8067 99.1316 19.7033 99.319 19.6701 99.4307C19.7255 99.4595 19.8252 99.4992 19.9987 99.5352C20.2904 99.5965 21.7562 99.9604 22.1181 101.11C22.2658 101.575 22.2695 102.303 21.4756 103.157C21.4129 103.269 21.2615 103.568 21.435 103.687C21.4498 103.697 21.4646 103.705 21.4756 103.715C21.5679 103.784 22.3729 104.429 22.3322 105.434C22.3027 106.155 21.867 106.789 21.0326 107.326C21.0141 107.337 20.9956 107.348 20.9809 107.359C20.9624 107.369 20.7076 107.528 20.7556 107.697C20.9698 108.198 21.1249 109.189 20.4566 109.96C19.9249 110.573 19.0535 110.876 17.787 110.876L17.7833 110.883Z" fill="#231F20"/>
<path d="M13.1054 108.793C12.7657 108.793 12.4371 108.609 12.2747 108.288C9.42052 102.616 12.2341 98.6848 12.3522 98.519C12.6513 98.1154 13.2273 98.0217 13.6408 98.3136C14.0544 98.6019 14.1504 99.1641 13.855 99.5677C13.7516 99.7118 11.5879 102.84 13.9325 107.496C14.1577 107.942 13.9694 108.483 13.5116 108.703C13.3824 108.764 13.2421 108.797 13.1054 108.797V108.793Z" fill="#231F20"/>
<path d="M19.7918 94.854C19.3414 94.854 18.95 94.5333 18.8798 94.0864L17.665 86.1873C17.606 85.8125 17.7943 85.445 18.134 85.2648L22.3838 82.9873C22.8306 82.7459 23.3918 82.908 23.6355 83.3441C23.8792 83.7801 23.7167 84.3279 23.27 84.5657L19.585 86.5405L20.7038 93.8197C20.7777 94.3134 20.4306 94.7711 19.9284 94.8432C19.8841 94.8504 19.8361 94.854 19.7918 94.854Z" fill="#231F20"/>
<path d="M81.3286 126.162C79.9292 126.162 78.3268 125.611 77.9317 125.467C77.4554 125.294 77.2117 124.775 77.3889 124.31C77.5661 123.845 78.0978 123.607 78.5741 123.78C79.8332 124.238 81.2991 124.479 81.7828 124.328C81.7495 124.22 81.6646 124.076 81.4689 123.957C81.1071 123.737 80.9483 123.308 81.0775 122.912C81.2068 122.519 81.6018 122.26 82.0228 122.292C82.9311 122.353 83.9834 122.27 84.2308 122.115C84.2381 122.108 84.3674 121.986 84.36 121.82C84.3563 121.723 84.2788 121.362 83.5292 120.811C83.5108 120.796 83.4886 120.782 83.4701 120.764C83.0492 120.4 82.6874 119.787 82.9274 119.16C83.2708 118.267 84.4412 118.26 84.8252 118.256C85.2757 118.245 85.7889 118.083 85.8701 117.964C85.8701 117.964 85.8812 117.834 85.704 117.528C85.6966 117.517 85.0025 116.335 83.7508 115.744C83.2929 115.528 83.1009 114.987 83.3225 114.541C83.544 114.094 84.0978 113.906 84.5557 114.123C86.3428 114.969 87.2732 116.58 87.3138 116.649C87.9083 117.683 87.7237 118.422 87.4652 118.861C86.9926 119.661 86.0105 119.924 85.3754 120.014C85.9108 120.58 86.1877 121.175 86.2025 121.791C86.2246 122.732 85.608 123.326 85.4492 123.46C85.0246 123.834 84.312 124.004 83.6105 124.072C83.6585 124.339 83.6548 124.577 83.6289 124.757C83.6215 124.807 83.6068 124.858 83.592 124.905C83.4369 125.351 83.1157 125.701 82.6578 125.914C82.2775 126.09 81.816 126.159 81.3249 126.159L81.3286 126.162Z" fill="#231F20"/>
<path d="M76.6575 139.672C76.2182 139.672 75.8009 139.589 75.4022 139.427C74.6009 139.096 74.0582 138.479 73.7037 137.881C72.2268 139.106 70.4102 138.901 69.4871 138.526C68.1394 137.964 67.6077 137.085 67.3935 136.443C67.2422 135.986 67.2052 135.528 67.2348 135.096C65.8686 135.355 64.6095 134.872 63.9634 134.433C63.9302 134.407 63.8969 134.382 63.8637 134.353C62.8594 133.442 62.3757 132.425 62.4274 131.333C62.4717 130.378 62.9185 129.582 63.3652 129.02C62.612 128.476 62.1394 127.809 61.9548 127.024C61.5302 125.236 62.8151 123.651 62.9628 123.478C63.2877 123.092 63.8711 123.042 64.2625 123.355C64.6538 123.672 64.7092 124.238 64.388 124.62C64.148 124.912 63.5646 125.838 63.7566 126.624C63.8859 127.16 64.3806 127.625 65.2262 127.996C65.5215 128.126 65.7246 128.4 65.7615 128.714C65.7985 129.027 65.6655 129.337 65.4108 129.532C65.108 129.766 64.3068 130.566 64.2699 131.424C64.2477 131.953 64.5099 132.465 65.0674 132.987C65.3702 133.171 66.7769 133.914 68.1062 132.667C68.4385 132.353 68.9591 132.332 69.3209 132.609C69.6828 132.89 69.7751 133.387 69.5388 133.777C69.3431 134.101 68.8889 135.124 69.1474 135.896C69.2877 136.314 69.6348 136.631 70.2034 136.869C70.5025 136.984 72.1271 137.499 73.172 135.69C73.364 135.362 73.7406 135.182 74.1246 135.243C74.5049 135.305 74.8077 135.593 74.8815 135.964C74.9628 136.357 75.3468 137.452 76.1259 137.773C76.868 138.079 77.8686 137.607 78.5775 137.157C79.0059 136.883 79.5745 137.002 79.8551 137.42C80.132 137.838 80.0138 138.396 79.5855 138.667C78.5295 139.341 77.5474 139.676 76.6538 139.676L76.6575 139.672Z" fill="#231F20"/>
<path d="M55.1095 155.398C53.9242 155.398 52.451 154.919 51.0775 153.124C50.771 152.724 50.8559 152.162 51.2621 151.863C51.6719 151.564 52.2479 151.647 52.5544 152.043C54.3304 154.364 56.1064 153.452 56.4129 153.269C57.4836 152.414 57.0922 151.542 56.9482 151.294C56.7969 151.034 56.7821 150.714 56.915 150.447C57.0479 150.177 57.3064 149.986 57.6092 149.942C59.2042 149.712 59.4258 148.562 59.4442 148.429C59.5107 147.712 59.3667 147.132 59.0086 146.746C58.4436 146.133 57.4689 146.094 57.4615 146.094C57.0442 146.09 56.6787 145.809 56.579 145.413C56.4756 145.016 56.6603 144.602 57.0258 144.404C58.7944 143.442 58.4547 142.198 58.3218 141.863C58.0301 141.402 57.6941 141.139 57.2916 141.06C56.5421 140.908 55.6486 141.395 55.3679 141.593C55.1021 141.78 54.7513 141.82 54.4523 141.69C54.1532 141.56 53.9427 141.287 53.9058 140.969C53.7802 139.892 53.4775 139.186 53.0713 139.031C52.5249 138.825 51.4836 139.405 50.9482 139.863C50.5642 140.191 49.9809 140.151 49.6449 139.78C49.3089 139.405 49.3458 138.84 49.7261 138.512C49.9476 138.321 51.9304 136.674 53.7322 137.348C54.5704 137.661 55.1612 138.389 55.4935 139.51C56.0916 139.29 56.8522 139.135 57.6535 139.29C58.307 139.42 59.2338 139.82 59.9464 140.998C59.9612 141.023 59.9759 141.052 59.9907 141.081C60.3636 141.874 60.5704 143.438 59.4221 144.8C59.7581 144.977 60.0904 145.214 60.3895 145.539C61.1058 146.314 61.4086 147.355 61.2867 148.627C61.1944 149.409 60.5778 150.811 58.9421 151.449C59.1082 152.404 58.8941 153.658 57.5353 154.706C57.5169 154.721 57.5021 154.732 57.4836 154.746C57.4652 154.757 56.483 155.391 55.1206 155.391L55.1095 155.398Z" fill="#231F20"/>
<path d="M72.2857 158.602C72.0383 158.602 71.7909 158.505 71.61 158.314C70.41 157.052 69.93 155.802 70.1774 154.591C70.362 153.69 70.9269 153.016 71.4697 152.555C70.5171 151.413 70.6722 149.914 70.9749 149.103C71.4254 147.499 72.3448 146.836 73.0426 146.566C74.0469 146.173 75.114 146.353 75.9042 146.613C76.2032 145.395 76.7792 144.562 77.6137 144.137C78.6586 143.607 79.9546 143.766 81.4685 144.613L81.5017 144.631C81.738 144.735 81.93 144.933 82.0112 145.197C82.1552 145.672 81.8783 146.177 81.3909 146.317C81.0069 146.429 80.7226 146.27 80.5528 146.177C79.3897 145.528 78.7768 145.579 78.4666 145.737C77.9829 145.982 77.6543 146.786 77.5435 148C77.514 148.31 77.322 148.584 77.0377 148.724C76.7534 148.865 76.4137 148.851 76.1405 148.685C75.7491 148.454 74.5417 147.917 73.722 148.238C73.2752 148.415 72.9466 148.876 72.7472 149.607C72.7399 149.636 72.7288 149.669 72.7177 149.697C72.6291 149.939 72.2266 151.204 73.4414 151.824C73.7552 151.982 73.9472 152.303 73.9362 152.645C73.9251 152.991 73.7183 153.297 73.3971 153.442C73.0611 153.593 72.1491 154.166 71.9903 154.951C71.8685 155.56 72.1971 156.278 72.9688 157.085C73.3159 157.449 73.2937 158.018 72.9208 158.357C72.7435 158.519 72.5183 158.598 72.2931 158.598L72.2857 158.602ZM80.9737 144.57C80.9405 144.577 80.9035 144.584 80.8666 144.595C80.9035 144.584 80.9368 144.577 80.9737 144.57Z" fill="#231F20"/>
<path d="M43.1127 133.463C42.4555 133.463 41.8536 133.344 41.4105 133.193C41.3958 133.189 41.381 133.182 41.3662 133.175C40.1995 132.71 39.4352 131.993 39.0918 131.041C38.9182 130.559 38.8776 130.083 38.9035 129.654C37.4413 129.773 36.2819 129.157 36.2155 129.121C36.1379 129.077 36.0641 129.023 36.0013 128.962C33.7564 126.71 34.9047 123.831 34.9564 123.712C35.1484 123.25 35.6838 123.027 36.1564 123.211C36.629 123.395 36.8579 123.917 36.6696 124.378C36.6364 124.461 35.9644 126.216 37.2235 127.596C37.5742 127.748 38.693 128.144 39.7601 127.55C40.1182 127.351 40.5687 127.405 40.8641 127.69C41.1595 127.975 41.2259 128.411 41.0265 128.768C41.0265 128.771 40.5428 129.672 40.8308 130.45C40.9933 130.886 41.3995 131.24 42.0345 131.499C42.3521 131.6 44.4235 132.177 45.2284 130.371C45.3318 130.141 45.5312 129.96 45.7748 129.881C46.0185 129.798 46.2881 129.82 46.5133 129.942C46.9084 130.148 48.1305 130.62 48.9945 130.313C49.4007 130.169 49.7035 129.852 49.9139 129.344C50.1133 128.775 50.3607 127.445 49.8105 127.085C49.5152 126.89 49.3564 126.548 49.4118 126.202C49.4635 125.856 49.7182 125.571 50.0579 125.474C50.165 125.441 51.1804 125.085 51.2468 124C51.2764 123.503 51.7232 123.132 52.2253 123.157C52.7349 123.186 53.1225 123.614 53.0893 124.112C53.0155 125.301 52.3915 126.115 51.7232 126.62C52.3398 127.971 51.7379 129.719 51.6493 129.968C51.2284 130.995 50.5305 131.694 49.6185 132.014C48.4739 132.418 47.2592 132.159 46.469 131.885C45.5865 133.103 44.2684 133.47 43.109 133.47L43.1127 133.463Z" fill="#231F20"/>
<path d="M43.3717 158.605C43.3015 158.605 43.2314 158.598 43.1612 158.58C42.6628 158.468 42.3563 157.982 42.4708 157.499C42.7366 156.382 42.6701 155.542 42.2788 155.074C41.8283 154.537 41.016 154.551 41.0012 154.551C40.6763 154.569 40.3551 154.393 40.1815 154.115C40.0117 153.838 40.0006 153.492 40.1594 153.211C41.4037 151.038 40.0154 149.975 39.9563 149.932C39.4837 149.6 39.0332 149.477 38.5901 149.56C37.7963 149.719 37.1354 150.537 36.9471 150.84C36.7625 151.139 36.4117 151.308 36.0572 151.268C35.7028 151.232 35.4 150.998 35.2818 150.67C34.9458 149.723 34.4585 149.16 33.8345 149.002C33.1403 148.825 32.4092 149.153 32.1729 149.312C32.0031 149.56 31.7151 149.723 31.3791 149.712C30.8695 149.697 30.4671 149.286 30.4818 148.789C30.5077 147.773 32.2172 147.286 32.8154 147.196C33.5649 147.081 35.208 147.067 36.3637 148.75C36.8289 148.342 37.4492 147.953 38.2025 147.798C39.1551 147.607 40.1409 147.841 41.0492 148.483C41.88 149.099 43.0135 150.721 42.2751 152.966C42.7477 153.128 43.2609 153.416 43.6855 153.91C44.4794 154.84 44.6751 156.184 44.2652 157.906C44.1655 158.324 43.7852 158.605 43.368 158.605H43.3717Z" fill="#231F20"/>
</svg>
