<svg width="100" height="210" viewBox="0 0 100 210" fill="none" xmlns="http://www.w3.org/2000/svg">
<path d="M25.457 113.409L27.3438 109.247C27.3438 109.247 53.2601 113.247 71.201 108.09L73.9924 111.978C73.9924 111.978 52.3924 118.883 25.457 113.409Z" fill="white"/>
<path d="M73.993 111.979C73.993 111.979 87.865 136.09 83.5708 192.188H21.2373C21.2373 192.188 15.817 160.717 25.4576 113.409C25.4576 113.409 49.7308 118.8 73.993 111.979Z" fill="#2BE6AE"/>
<path d="M48.3886 116.895C35.8298 117.31 25.6733 114.18 25.5279 114.131C25.1955 114.023 24.9742 113.546 25.0406 113.066C25.1067 112.58 25.4298 112.283 25.762 112.385C25.9738 112.45 47.2957 119.022 66.2386 111.67C66.5674 111.546 66.9096 111.827 67.0035 112.308C67.0975 112.789 66.9123 113.279 66.5835 113.403C60.5045 115.76 54.1899 116.709 48.3888 116.901L48.3886 116.895Z" fill="#241F20"/>
<path d="M17.375 80.3127C17.375 80.3127 24.8852 82.0677 31.3615 77.5596V88.8569C31.3615 88.8569 25.2655 95.3614 16.3301 93.3722L17.375 80.3091V80.3127Z" fill="white"/>
<path d="M7.88281 74.2666L8.31481 90.8144L19.3548 92.1981L20.3407 85.4198L22.0576 85.6216L23.8557 75.9999L7.88281 74.2666Z" fill="white"/>
<path d="M8.31445 100.81L17.5821 102.057L20.0818 89.4948L8.31445 88.666V100.81Z" fill="#FF6A2F"/>
<path d="M34.0023 27.5417C34.0023 27.5417 14.8909 44.5183 35.0989 67.866C35.0989 67.866 50.3334 78.194 66.7125 64.1399C66.7125 64.1399 70.2497 60.1111 69.5593 51.3723C69.5593 51.3723 75.6368 50.7309 74.4922 42.248C74.4922 42.248 69.659 36.3345 63.7328 40.3201C63.7328 40.3201 50.0159 34.666 49.8091 19.1777L34.0023 27.5381V27.5417Z" fill="white"/>
<path d="M71.8878 57.2317C69.2257 62.5218 75.1851 62.6947 75.1851 62.6947C76.8724 63.4803 76.8244 65.574 76.8244 65.574C79.0768 70.4389 82.6583 66.3956 82.6583 66.3956C83.9248 64.1145 86.646 65.2353 86.646 65.2353C91.59 65.4983 89.4448 59.9596 89.4448 59.9596C88.8688 57.5632 90.9771 57.3398 90.9771 57.3398C94.4257 54.9073 91.5531 51.6136 91.5531 51.6136C90.3272 48.8064 92.358 46.8605 92.358 46.8605C94.8872 40.8353 89.9801 41.3974 89.9801 41.3974C88.4478 40.5362 89.3672 39.001 89.3672 39.001C91.1691 31.8911 85.302 33.1055 85.302 33.1055C83.0977 33.1524 83.8731 30.3848 83.8731 30.3848C84.5044 24.7812 78.7149 27.2281 78.7149 27.2281C78.7149 27.2281 81.3069 38.5218 71.8878 57.2245V57.2317Z" fill="#F8B3FF"/>
<path d="M22.3373 28.6774C22.3373 28.6774 17.7367 26.7314 18.2389 31.1855C18.2389 31.1855 18.8518 33.3837 17.1017 33.3476C17.1017 33.3476 12.4383 32.3855 13.8709 38.0323C13.8709 38.0323 14.602 39.2503 13.3835 39.935C13.3835 39.935 9.48442 39.4882 11.4967 44.2738C11.4967 44.2738 13.1103 45.8197 12.1355 48.0503C12.1355 48.0503 9.84996 50.6666 12.5933 52.5981C12.5933 52.5981 14.2697 52.7747 13.8118 54.6774C13.8118 54.6774 12.106 59.0774 16.0346 58.8684C16.0346 58.8684 18.1983 57.9783 19.2026 59.7909C19.2026 59.7909 22.0493 63.0017 23.8401 59.1386C23.8401 59.1386 23.8032 57.4738 25.1435 56.8503C25.1435 56.8503 29.2235 56.9693 27.7613 52.5116C27.7613 52.5116 27.3404 42.144 29.8438 35.4593C29.8438 35.4593 28.6918 23.9675 22.3373 28.6774Z" fill="#F8B3FF"/>
<path d="M27.6658 41.1497C27.6658 41.1497 33.9649 23.128 46.6996 25.9353C46.6996 25.9353 42.6824 36.4722 65.2461 44.0325C65.2461 44.0325 69.0344 37.6506 72.8559 44.0325C72.8559 44.0325 74.3993 49.1569 67.827 50.1118C67.827 50.1118 67.6239 55.6758 71.8812 57.2326C71.8812 57.2326 93.0787 27.4596 64.8104 12.1443C64.8104 12.1443 39.843 1.56047 28.2159 26.8217C28.2159 26.8217 25.3433 37.2325 27.6621 41.1497H27.6658Z" fill="#F8B3FF"/>
<path d="M37.9381 94.4641C33.6772 93.9812 29.671 93.0875 29.671 93.0875C27.5368 79.7686 32.5805 67.8659 32.5805 67.8659L33.4261 65.6028L35.0987 66.1001C35.0987 66.1001 45.1824 74.0497 60.6938 66.1001L67.4322 62.792C67.4322 62.792 70.759 64.9614 72.8599 69.6352C72.8599 69.6352 63.6956 69.21 61.1184 81.9055C61.1184 81.9055 57.7805 96.7091 37.9381 94.4677V94.4641Z" fill="#FFF080"/>
<path d="M29.6699 93.088C29.6699 93.088 29.9062 105.185 27.3438 109.243C27.3438 109.243 47.7253 113.834 71.201 108.086L67.9591 90.5547C67.9591 90.5547 47.1641 97.5997 29.6699 93.0844V93.088Z" fill="white"/>
<path d="M22.9462 192.242C22.9462 192.242 17.7031 193.759 18.3973 199.211L44.6274 198.987L44.7788 199.492H77.2674C77.2674 199.492 78.4158 193.975 77.7844 192.188L22.9499 192.242H22.9462Z" fill="#67A9F9"/>
<path d="M73.52 175.888C73.52 175.888 73.1729 180.327 69.3145 181.509C69.3145 181.509 72.9994 182.803 73.52 187.131C73.52 187.131 73.9815 182.071 77.7809 181.509C77.7809 181.509 74.0369 180.724 73.52 175.888Z" fill="white"/>
<path d="M70.3423 134.024C70.3423 134.024 70.1466 136.543 67.957 137.214C67.957 137.214 70.0469 137.945 70.3423 140.403C70.3423 140.403 70.6044 137.534 72.7607 137.214C72.7607 137.214 70.6376 136.767 70.3423 134.024Z" fill="white"/>
<path d="M65.0161 123.117C65.0161 123.117 64.8204 125.636 62.6309 126.306C62.6309 126.306 64.7207 127.038 65.0161 129.496C65.0161 129.496 65.2782 126.627 67.4346 126.306C67.4346 126.306 65.3115 125.86 65.0161 123.117Z" fill="white"/>
<path d="M70.6038 65.2568C57.3189 65.7505 60.9373 83.8406 60.9373 83.8406C61.3767 89.7037 58.0684 94.9938 58.0684 94.9938C51.5552 108.096 60.749 114.068 66.6493 116.151C71.1355 117.733 76.6112 115.859 79.3767 112.064C84.0549 105.646 81.6807 95.3145 81.6807 95.3145C80.5841 68.7992 70.6075 65.2568 70.6075 65.2568H70.6038ZM75.9429 98.3595C74.6875 101.113 71.7447 102.72 68.6727 102.417C61.5429 101.711 62.0413 94.8532 62.0413 94.8532C63.6438 90.7704 62.8795 84.0352 62.8795 84.0352C62.3293 71.3217 69.5626 70.8712 69.5626 70.8712C76.9989 73.6172 77.069 92.1938 77.069 92.1938C77.1946 95.3253 76.6813 96.7451 75.9466 98.3559L75.9429 98.3595Z" fill="white"/>
<path d="M41.6332 104.623C36.512 106.277 37.9077 103.466 37.9077 103.466C38.2474 102.558 37.2726 102.021 37.2726 102.021C35.5372 100.904 36.8923 99.8734 36.8923 99.8734C37.8671 99.214 37.0621 98.0572 37.0621 98.0572C35.4523 96.4031 37.9926 95.8662 37.9926 95.8662C39.9828 95.4518 38.5871 93.8734 38.5871 93.8734C37.1064 91.095 40.0271 91.6104 40.0271 91.6104C42.1428 91.8158 45.2258 93.8734 45.2258 93.8734C45.2258 93.8734 51.5138 94.9545 57.2074 87.9923C59.7218 84.9149 61.6972 85.7113 60.6818 81.9022C59.8695 78.8644 62.0369 67.9707 68.6166 67.8662C68.6166 67.8662 72.9034 71.5995 75.3551 80.3167C77.2234 86.9545 74.4394 90.1797 69.9791 95.5095C66.1871 100.039 60.0874 104.432 50.6572 104.508C50.6572 104.508 44.288 104.641 42.6744 104.003L41.6369 104.627L41.6332 104.623Z" fill="white"/>
<path d="M4.31916 93.1204C11.6336 95.0015 10.1382 91.751 10.1382 91.751C9.79854 90.8429 10.7733 90.306 10.7733 90.306C12.5087 89.1888 11.1536 88.1582 11.1536 88.1582C10.1789 87.4988 10.9838 86.342 10.9838 86.342C12.5936 84.6879 10.0533 84.151 10.0533 84.151C8.06316 83.7366 9.45885 82.1582 9.45885 82.1582C10.9395 79.3798 8.01885 79.8951 8.01885 79.8951C5.90316 80.1006 4.09762 81.1096 4.09762 81.1096C4.09762 81.1096 0.449622 84.8177 3.27793 92.6483L4.31547 93.1204H4.31916Z" fill="white"/>
<path d="M83.5711 193.088H46.3453C46.0831 193.088 45.8321 192.98 45.6585 192.789C45.485 192.598 45.4001 192.342 45.4296 192.09C47.5305 173.499 46.5964 129.765 46.589 129.326C46.5779 128.828 46.9804 128.417 47.4936 128.407C48.0068 128.378 48.4241 128.789 48.4351 129.29C48.4462 129.722 49.3508 172.068 47.3754 191.29H82.7219C86.5324 140.363 74.9828 115.099 74.8647 114.85C74.6505 114.399 74.8536 113.863 75.3188 113.654C75.7804 113.445 76.3305 113.643 76.541 114.097C76.6628 114.36 79.6019 120.681 82.0721 133.524C84.3428 145.329 86.6062 165.102 84.4942 192.259C84.4573 192.727 84.0548 193.091 83.5748 193.091L83.5711 193.088Z" fill="#241F20"/>
<path d="M44.31 193.834C44.31 193.834 44.2879 193.834 44.2805 193.834L21.211 193.088C20.7605 193.073 20.3839 192.742 20.3248 192.306C15.51 156.637 24.0466 116.418 24.1316 116.014C24.235 115.527 24.726 115.214 25.2245 115.318C25.723 115.419 26.0405 115.899 25.9371 116.385C25.8522 116.782 17.5002 156.144 22.0528 191.311L44.3396 192.032C44.8491 192.05 45.2479 192.464 45.2331 192.962C45.2183 193.448 44.8048 193.834 44.31 193.834Z" fill="#241F20"/>
<path d="M77.265 200.392H44.7764C44.3296 200.392 43.9456 200.079 43.8681 199.65C42.9413 194.569 46.1869 191.992 48.033 191.34C48.5093 191.171 49.041 191.412 49.2146 191.881C49.3881 192.346 49.1407 192.861 48.6644 193.034C48.5019 193.095 45.1863 194.371 45.5813 198.594H76.4933C76.8995 196.346 77.2503 193.344 76.9216 192.519C76.737 192.054 76.9696 191.531 77.4423 191.351C77.9186 191.167 78.454 191.398 78.6386 191.859C79.3364 193.592 78.369 198.666 78.166 199.668C78.081 200.09 77.7007 200.396 77.2613 200.396L77.265 200.392Z" fill="#241F20"/>
<path d="M55.8969 200.393C55.86 200.393 55.8194 200.393 55.7787 200.385C55.2729 200.324 54.9147 199.874 54.9775 199.38C55.5683 194.832 54.6969 192.537 54.6858 192.511C54.5049 192.05 54.7412 191.528 55.2138 191.347C55.6864 191.167 56.2181 191.391 56.4064 191.852C56.4507 191.96 57.4661 194.54 56.8089 199.603C56.7498 200.057 56.3511 200.393 55.8932 200.393H55.8969Z" fill="#241F20"/>
<path d="M18.3969 200.111C17.9316 200.111 17.5366 199.773 17.4812 199.322C16.8572 194.411 20.6122 191.978 22.6836 191.38C23.171 191.239 23.6842 191.51 23.8319 191.989C23.9759 192.465 23.699 192.965 23.2116 193.11C23.0381 193.16 19.2313 194.342 19.2572 198.31L44.6159 198.093H44.6233C45.1292 198.093 45.5427 198.49 45.5464 198.987C45.5501 199.484 45.1402 199.892 44.6307 199.895L18.4006 200.119H18.3932L18.3969 200.111Z" fill="#241F20"/>
<path d="M28.3668 200.028C28.2671 200.028 28.1637 200.01 28.0604 199.978C27.5804 199.812 27.3256 199.3 27.4954 198.828C28.4333 196.223 27.4844 192.684 27.4733 192.648C27.3404 192.169 27.6357 191.675 28.1268 191.546C28.6179 191.419 29.1237 191.704 29.2567 192.183C29.301 192.349 30.3607 196.302 29.2345 199.423C29.1016 199.794 28.7434 200.025 28.3631 200.025L28.3668 200.028Z" fill="#241F20"/>
<path d="M73.5198 188.032C73.0509 188.032 72.6595 187.69 72.6041 187.236C72.1574 183.506 69.0337 182.367 69.0041 182.356C68.6312 182.227 68.3838 181.877 68.3949 181.492C68.4023 181.106 68.6644 180.767 69.041 180.652C72.2423 179.672 72.5894 175.975 72.6004 175.82C72.641 175.355 73.0324 174.994 73.5087 174.991H73.5198C73.9924 174.991 74.3875 175.337 74.4392 175.798C74.8786 179.881 77.8583 180.605 77.9838 180.634C78.4158 180.731 78.7186 181.117 78.7001 181.549C78.6817 181.982 78.3567 182.342 77.921 182.407C74.8712 182.857 74.4429 187.175 74.4392 187.218C74.3986 187.679 74.0072 188.032 73.5309 188.039H73.5161L73.5198 188.032ZM71.2823 181.578C72.0023 182.101 72.8257 182.883 73.457 183.993C73.8964 183.052 74.5574 182.093 75.5395 181.427C74.8306 180.922 74.0737 180.173 73.494 179.07C73.025 179.967 72.3235 180.886 71.2823 181.578Z" fill="#241F20"/>
<path d="M70.3403 141.297C69.8714 141.297 69.4764 140.958 69.4247 140.501C69.2031 138.659 67.7003 138.079 67.6376 138.054C67.272 137.917 67.0283 137.567 67.0394 137.182C67.0505 136.8 67.3053 136.461 67.6819 136.349C69.2327 135.874 69.4136 134.029 69.421 133.949C69.4616 133.488 69.8567 133.128 70.333 133.124H70.3403C70.813 133.124 71.208 133.47 71.2597 133.928C71.4739 135.913 72.8142 136.295 72.9656 136.331C73.3939 136.436 73.693 136.821 73.6708 137.25C73.6487 137.679 73.3311 138.036 72.8954 138.101C71.4887 138.31 71.2634 140.457 71.2597 140.479C71.2154 140.937 70.8203 141.29 70.3514 141.293H70.3403V141.297ZM69.7053 137.261C69.8973 137.43 70.0893 137.632 70.2702 137.863C70.4363 137.611 70.632 137.373 70.861 137.164C70.6764 136.998 70.4991 136.803 70.3293 136.576C70.1557 136.814 69.949 137.048 69.709 137.261H69.7053Z" fill="#241F20"/>
<path d="M65.0159 130.389C64.547 130.389 64.1519 130.05 64.1002 129.593C63.875 127.715 62.3353 127.153 62.3205 127.149C61.9476 127.02 61.7002 126.67 61.7113 126.285C61.7187 125.899 61.9808 125.56 62.3574 125.445C63.9082 124.969 64.0891 123.124 64.0965 123.045C64.1371 122.584 64.5322 122.223 65.0085 122.22H65.0159C65.4885 122.22 65.8836 122.566 65.9353 123.023C66.1494 125.009 67.4898 125.391 67.6411 125.427C68.0694 125.531 68.3685 125.917 68.3464 126.346C68.3242 126.775 68.0067 127.131 67.571 127.196C66.1642 127.405 65.9353 129.553 65.9353 129.575C65.891 130.032 65.4959 130.385 65.027 130.389H65.0159ZM64.3808 126.353C64.5728 126.522 64.7648 126.724 64.9458 126.955C65.1119 126.703 65.3076 126.468 65.5365 126.256C65.3519 126.09 65.1747 125.895 65.0048 125.668C64.8313 125.906 64.6245 126.14 64.3845 126.353H64.3808Z" fill="#241F20"/>
<path d="M22.7109 86.6411C22.6851 86.6411 22.6592 86.6411 22.6334 86.6411L10.8475 85.697C10.338 85.6573 9.96136 85.2213 10.002 84.724C10.0426 84.2267 10.4857 83.8591 10.9989 83.8988L21.9687 84.7781L23.6709 76.7132L8.82044 75.2645C8.82044 75.4664 8.82413 75.6862 8.82782 75.9024C8.83151 76.3204 8.83521 76.7384 8.82782 77.0519C8.82413 77.6177 8.81675 78.324 8.03028 78.4501C7.52813 78.533 7.05182 78.2015 6.9669 77.7114C6.94844 77.5961 6.95213 77.4844 6.97428 77.3763C6.99274 77.0267 6.97798 75.5709 6.95582 74.2844C6.95213 74.0285 7.05921 73.7799 7.25121 73.6033C7.4469 73.4303 7.70536 73.3438 7.96751 73.3691L24.8709 75.0159C25.1294 75.0411 25.3694 75.1745 25.5207 75.3799C25.6758 75.5853 25.7349 75.8447 25.6795 76.097L23.6081 85.924C23.5195 86.3456 23.1392 86.6447 22.7035 86.6447L22.7109 86.6411ZM7.72382 76.6736C7.34351 76.7384 7.08874 77.0123 7.00382 77.279C7.10721 76.9727 7.37675 76.7312 7.72382 76.6736Z" fill="#241F20"/>
<path d="M18.0477 102.958C18.0071 102.958 17.9665 102.958 17.9258 102.951L8.21139 101.704C7.75354 101.647 7.41016 101.265 7.41016 100.811V93.8411C7.41016 93.3438 7.82369 92.9402 8.33323 92.9402C8.84277 92.9402 9.25631 93.3438 9.25631 93.8411V100.021L17.3018 101.056L20.3148 85.4555C20.4108 84.9655 20.8908 84.6447 21.3929 84.7384C21.8951 84.8321 22.2237 85.3006 22.1277 85.7907L18.9523 102.227C18.8674 102.656 18.4834 102.962 18.0477 102.962V102.958Z" fill="#241F20"/>
<path d="M23.8559 81.2141C23.3685 81.2141 22.9587 80.8393 22.9329 80.3564C22.907 79.8591 23.2984 79.4375 23.8079 79.4123C24.9082 79.3582 28.0061 78.9005 29.1064 77.4627C29.4129 77.0663 29.9889 76.9834 30.3987 77.2825C30.8085 77.5816 30.8898 78.1438 30.5833 78.5438C28.7704 80.9114 24.3913 81.1888 23.8965 81.2141C23.8818 81.2141 23.867 81.2141 23.8522 81.2141H23.8559Z" fill="#241F20"/>
<path d="M19.6614 94.6051C19.1555 94.6051 18.742 94.2051 18.7383 93.7114C18.7383 93.2141 19.1444 92.8069 19.654 92.8033C19.7204 92.8033 26.2337 92.7204 28.3678 89.5096C28.6447 89.0916 29.2171 88.9727 29.6454 89.2429C30.0737 89.5132 30.1955 90.0718 29.9186 90.4898C27.2417 94.515 19.9752 94.6015 19.6651 94.6015H19.6614V94.6051Z" fill="#241F20"/>
<path d="M18.4833 76.2013C18.4648 76.2013 18.4427 76.2013 18.4242 76.2013C17.9147 76.1689 17.5307 75.74 17.5602 75.2464L18.0033 68.468C18.0254 68.1292 18.2433 67.8301 18.5645 67.6968L24.4205 65.2752C24.8894 65.0806 25.4322 65.2968 25.6316 65.7545C25.831 66.2121 25.6094 66.7418 25.1405 66.9364L19.8088 69.1418L19.4027 75.3653C19.3731 75.8409 18.967 76.2085 18.4833 76.2085V76.2013Z" fill="#241F20"/>
<path d="M8.0343 94.6125C6.99307 94.6125 5.68599 94.407 4.08353 93.9926C3.59246 93.8665 3.29707 93.3728 3.4263 92.8935C3.55553 92.4143 4.05769 92.1224 4.55246 92.2521C8.55861 93.2827 9.26384 92.5656 9.28969 92.5332C9.38569 92.4251 9.31184 92.1656 9.28969 92.1079C9.28599 92.0971 9.27492 92.0719 9.27122 92.0611C8.86138 90.9584 9.50384 89.989 10.2866 89.5422C10.6448 89.308 10.7334 89.1386 10.7334 89.0953C10.7334 89.0377 10.63 88.9116 10.5931 88.8755C9.37092 88.0143 9.69584 86.5908 10.2201 85.8377C10.2497 85.798 10.2792 85.7584 10.3161 85.7224C10.4971 85.535 10.5635 85.4161 10.5857 85.362C10.4749 85.2503 10.1352 85.0953 9.85461 85.0305C8.72846 84.7962 8.30384 84.2125 8.15246 83.7656C7.83861 82.8539 8.43307 81.9782 8.68415 81.6611C8.9463 81.1458 8.96107 80.8971 8.95738 80.8179C8.82446 80.753 8.45522 80.735 8.18199 80.7782C8.15984 80.7782 8.13399 80.7854 8.11553 80.7854C6.23246 80.9692 4.5783 81.8773 4.55984 81.8881C4.11676 82.1332 3.55184 81.9818 3.30076 81.553C3.04969 81.1206 3.20107 80.5728 3.64415 80.3242C3.72538 80.2809 5.62692 79.2287 7.89769 78.998C8.27061 78.9368 9.72169 78.7746 10.4565 79.7476C10.9734 80.4323 10.9143 81.3836 10.2829 82.5692C10.2497 82.6305 10.2091 82.6881 10.1611 82.7422C10.0577 82.8611 9.9543 83.0485 9.92107 83.1602C9.97646 83.189 10.0761 83.2287 10.2497 83.2647C10.5414 83.326 12.0072 83.6899 12.3691 84.8395C12.5168 85.3043 12.5205 86.0323 11.7266 86.8863C11.6638 86.998 11.5125 87.2971 11.686 87.4161C11.7008 87.4269 11.7155 87.4341 11.7266 87.4449C11.8189 87.5134 12.6238 88.1584 12.5832 89.1638C12.5537 89.8845 12.118 90.5188 11.2835 91.0557C11.2651 91.0665 11.2466 91.0773 11.2318 91.0881C11.2134 91.0989 10.9586 91.2575 11.0066 91.4269C11.2208 91.9278 11.3795 92.9188 10.7075 93.6899C10.1758 94.3025 9.30446 94.6052 8.03799 94.6052L8.0343 94.6125Z" fill="#241F20"/>
<path d="M3.00825 92.7564C2.61687 92.7564 2.25502 92.5114 2.12948 92.1294C-0.4699 84.1546 2.18856 82.151 2.49871 81.9492L3.52148 83.4483C3.52148 83.4483 3.53625 83.4411 3.55841 83.4231C3.53995 83.4375 1.74179 84.9979 3.89071 91.5816C4.04579 92.0573 3.77625 92.5618 3.29256 92.7132C3.20025 92.742 3.10425 92.7564 3.01195 92.7564H3.00825Z" fill="#241F20"/>
<path d="M47.116 70.5618C39.4213 70.5618 34.8022 67.0267 34.5179 66.7996C34.1228 66.4861 34.06 65.9204 34.3813 65.5312C34.7025 65.1456 35.2822 65.0843 35.6773 65.3942C35.7733 65.4699 45.5136 72.8573 60.2644 65.2969C60.7148 65.0663 61.2724 65.2357 61.5124 65.6753C61.7487 66.1149 61.5751 66.6591 61.1247 66.8933C55.7671 69.6393 51.0447 70.5582 47.1197 70.5582L47.116 70.5618Z" fill="#241F20"/>
<path d="M60.6926 80.7599C60.5375 80.7599 60.3824 80.7238 60.2384 80.6409C59.8027 80.3995 59.4667 80.0139 59.7621 77.7004C59.8692 76.8608 60.1498 75.1743 60.8255 73.322C62.5498 68.6157 65.5258 66.3635 69.2107 66.9797C69.7129 67.0626 70.0489 67.531 69.9639 68.0211C69.879 68.5112 69.4027 68.8391 68.8969 68.7563C67.3018 68.4896 65.9541 68.9436 64.7799 70.14C62.0735 72.9004 61.3867 78.4139 61.5049 79.4337C61.6489 79.6968 61.6563 80.0247 61.4938 80.3058C61.3239 80.5977 61.0101 80.7635 60.6889 80.7635L60.6926 80.7599Z" fill="#241F20"/>
<path d="M76.7851 95.0087C76.7851 95.0087 76.763 95.0087 76.7519 95.0087C76.2423 94.9907 75.8436 94.5727 75.862 94.0754C76.1537 86.1727 74.6694 80.5547 73.3697 77.2357C71.9667 73.643 70.4713 71.8916 70.4565 71.8736C70.1279 71.4952 70.1759 70.9258 70.5636 70.6051C70.9513 70.2844 71.531 70.3276 71.8633 70.706C72.1254 71.0087 78.2953 78.2664 77.7045 94.1403C77.686 94.6267 77.2762 95.0087 76.7814 95.0087H76.7851Z" fill="#241F20"/>
<path d="M70.2702 117.066C63.9564 117.066 57.3951 112.166 54.4007 104.612C54.2161 104.148 54.4524 103.625 54.9287 103.448C55.405 103.268 55.9404 103.499 56.1213 103.964C59.4038 112.241 67.2758 117.041 73.6598 114.663C84.4708 110.641 80.3834 93.4737 80.3428 93.3007C80.3281 93.2358 80.317 93.171 80.317 93.1061C79.9441 71.0629 70.8019 65.7944 70.7096 65.7476C70.2665 65.5061 70.1041 64.9584 70.3514 64.5259C70.5988 64.0935 71.1527 63.9349 71.5994 64.1692C72.013 64.389 81.7422 69.8376 82.1594 92.9836C82.3256 93.7007 83.2561 97.9458 82.9238 102.728C82.4401 109.726 79.4641 114.436 74.3133 116.349C73.0025 116.836 71.6364 117.07 70.2628 117.07L70.2702 117.066Z" fill="#241F20"/>
<path d="M68.9744 103.319C66.4378 103.319 64.4809 102.31 64.3738 102.252C63.9234 102.014 63.7572 101.47 64.0009 101.03C64.2446 100.591 64.8021 100.429 65.2489 100.663C65.3006 100.692 68.2027 102.155 71.1603 101.171C73.1652 100.501 74.7861 98.8539 75.9787 96.2701C76.1892 95.816 76.7357 95.6142 77.2009 95.8197C77.6661 96.0251 77.8729 96.5584 77.6624 97.0124C76.2483 100.076 74.2544 102.054 71.7363 102.886C70.78 103.203 69.8458 103.319 68.9744 103.319Z" fill="#241F20"/>
<path d="M48.5788 105.412C46.1714 105.412 44.5985 105.199 44.4656 105.178C43.9598 105.106 43.6127 104.652 43.6828 104.158C43.7567 103.664 44.2219 103.322 44.7278 103.394C44.7942 103.401 51.3554 104.288 58.3856 102.313C67.6754 99.704 73.3653 93.5634 75.2964 84.0643C75.3961 83.5742 75.8834 83.2607 76.3819 83.3544C76.8804 83.4517 77.2053 83.9238 77.1093 84.4139C74.5173 97.1634 65.7407 102.133 58.8361 104.061C54.9444 105.145 51.2484 105.408 48.5751 105.408L48.5788 105.412Z" fill="#241F20"/>
<path d="M47.0952 95.1314C46.593 95.1314 46.1832 94.7386 46.1721 94.2485C46.161 93.7512 46.5672 93.3404 47.073 93.3296C47.4976 93.3188 57.3487 92.8684 61.7389 77.3224C61.8755 76.8431 62.3813 76.562 62.8761 76.6918C63.3672 76.8251 63.6552 77.3188 63.5222 77.8017C58.7407 94.717 47.5862 95.1206 47.1136 95.1314H47.0952Z" fill="#241F20"/>
<path d="M37.0103 95.2468C33.1961 95.2468 29.5407 93.9999 29.3598 93.9387C29.0386 93.827 28.8097 93.5567 28.758 93.2288C26.6091 79.8162 31.5161 68.018 31.7266 67.5243C31.9223 67.063 32.4614 66.8468 32.9303 67.0342C33.4029 67.2252 33.6244 67.7513 33.4324 68.209C33.3844 68.3243 28.6546 79.7225 30.5007 92.3999C31.8447 92.7999 35.5407 93.7585 38.7383 93.3333C39.2441 93.2648 39.7094 93.6108 39.7795 94.1044C39.8497 94.5981 39.4952 95.0522 38.9894 95.1207C38.3395 95.2072 37.6749 95.2432 37.014 95.2432L37.0103 95.2468Z" fill="#241F20"/>
<path d="M27.345 108.991C27.249 108.991 27.1494 108.976 27.0534 108.944C26.5697 108.789 26.3075 108.277 26.4663 107.805C27.5813 104.522 28.2164 96.0466 28.2238 95.9637C28.2607 95.4664 28.7001 95.0881 29.2097 95.1313C29.7192 95.1673 30.0995 95.5998 30.0626 96.0935C30.0367 96.4502 29.4053 104.879 28.2164 108.375C28.0872 108.753 27.729 108.991 27.3414 108.991H27.345Z" fill="#241F20"/>
<path d="M47.9989 112.043C36.8592 112.043 27.285 110.155 27.1595 110.13C26.661 110.029 26.3398 109.553 26.4432 109.067C26.5466 108.58 27.0303 108.267 27.5324 108.364C27.6949 108.396 44.0924 111.629 58.7509 109.542C59.2567 109.474 59.7256 109.813 59.7958 110.303C59.8696 110.796 59.5189 111.25 59.0167 111.322C55.3613 111.841 51.5989 112.04 48.0026 112.04L47.9989 112.043Z" fill="#241F20"/>
<path d="M39.5112 106.047C38.7801 106.047 38.1229 105.874 37.6835 105.384C36.9377 104.555 37.3512 103.448 37.4841 103.146C37.5248 102.976 37.2737 102.821 37.2441 102.803C37.2368 102.8 37.2109 102.785 37.2035 102.778C36.3728 102.245 35.9371 101.607 35.9038 100.886C35.8632 99.8809 36.6681 99.2358 36.7604 99.1674C36.7752 99.1565 36.7863 99.1457 36.8011 99.1385C36.9746 99.0232 36.8269 98.7241 36.7568 98.6088C35.9666 97.7547 35.9703 97.0304 36.1143 96.5656C36.4761 95.4196 37.942 95.0556 38.23 94.9944C38.4035 94.9583 38.5069 94.9187 38.5586 94.8899C38.5254 94.7746 38.4183 94.5872 38.3149 94.4646C38.2706 94.4142 38.23 94.3565 38.2004 94.2953C37.5691 93.1097 37.51 92.1583 38.0269 91.4737C38.7617 90.5007 40.2128 90.6628 40.5857 90.7241C42.9081 90.9692 46.0466 93.0484 46.1795 93.1349C46.6004 93.416 46.7075 93.9746 46.4195 94.3854C46.1315 94.7962 45.5592 94.9007 45.1383 94.6232C44.3334 94.0863 41.9075 92.6628 40.3678 92.5115C40.342 92.5115 40.3198 92.5043 40.2977 92.5007C40.0281 92.4574 39.6589 92.4755 39.526 92.5403C39.5223 92.6196 39.5371 92.8683 39.7992 93.3836C40.054 93.7007 40.6484 94.5728 40.3309 95.4881C40.1758 95.9349 39.7549 96.5187 38.6214 96.7529C38.3481 96.8142 38.0084 96.9692 37.8977 97.0809C37.9198 97.1349 37.9863 97.2538 38.1672 97.4412C38.2004 97.4773 38.2337 97.5169 38.2632 97.5565C38.7875 98.3097 39.1161 99.7367 37.8903 100.594C37.8238 100.652 37.7463 100.771 37.75 100.818C37.75 100.861 37.8423 101.027 38.1968 101.261C38.9795 101.708 39.622 102.681 39.2121 103.78C39.2011 103.809 39.19 103.838 39.1752 103.866C39.1309 103.964 39.094 104.115 39.094 104.202C39.2491 104.256 39.8915 104.382 41.782 103.776C42.2694 103.618 42.7863 103.877 42.9488 104.349C43.1075 104.821 42.8454 105.333 42.3617 105.488C41.5014 105.766 40.4491 106.054 39.5112 106.054V106.047Z" fill="#241F20"/>
<path d="M51.0862 48.6594C50.6985 48.6594 50.3552 48.6161 50.0893 48.5512C48.7453 48.2161 47.8185 47.4017 47.5527 46.3134C47.3127 45.344 47.645 44.3026 48.3945 43.6612C49.8567 42.4143 51.5847 42.3675 52.9472 42.7603C52.877 42.6558 52.7995 42.5585 52.7109 42.4684C52.1829 41.9278 51.3078 41.7296 50.1115 41.8702C50.093 41.8702 50.0782 41.8702 50.0598 41.8738C50.0487 41.8738 49.2807 41.9747 48.5902 42.9693C48.3059 43.3837 47.7299 43.4918 47.309 43.2107C46.8881 42.9332 46.7736 42.3711 47.0616 41.9603C48.1988 40.3206 49.6167 40.1044 49.9047 40.0792C51.7028 39.8666 53.1022 40.2521 54.0549 41.2287C55.709 42.926 55.2364 45.7296 55.2142 45.8449C55.2069 45.8774 55.1995 45.9098 55.1921 45.9422C54.5607 48.072 52.5373 48.6594 51.0899 48.6594H51.0862ZM51.4333 44.3314C50.8462 44.3314 50.2075 44.5044 49.6093 45.0161C49.3767 45.2143 49.2696 45.5747 49.3472 45.8918C49.4505 46.3134 49.8752 46.6377 50.5435 46.8035C50.5656 46.8071 52.8475 47.1891 53.3976 45.4882C53.4161 45.3549 53.4345 45.1747 53.4419 44.9621C53.0912 44.7242 52.3195 44.3278 51.4333 44.3278V44.3314Z" fill="#241F20"/>
<path d="M33.9905 48.6594C33.6028 48.6594 33.2595 48.6161 32.9936 48.5512C31.6496 48.2161 30.7228 47.4017 30.457 46.3134C30.2207 45.344 30.5493 44.3026 31.2988 43.6612C32.761 42.4143 34.489 42.3675 35.8515 42.7603C35.7813 42.6558 35.7038 42.5585 35.6151 42.4684C35.0871 41.9278 34.2121 41.7296 33.0158 41.8702C32.9973 41.8702 32.9825 41.8702 32.9641 41.8738C32.953 41.8738 32.185 41.9747 31.4945 42.9693C31.2102 43.3801 30.6342 43.4918 30.2133 43.2107C29.7924 42.9332 29.6779 42.3711 29.9659 41.9603C31.1031 40.3206 32.521 40.1044 32.809 40.0792C34.6071 39.8666 36.0065 40.2521 36.9591 41.2287C38.6133 42.926 38.1407 45.7296 38.1185 45.8449C38.1111 45.8774 38.1038 45.9098 38.0964 45.9422C37.465 48.072 35.4416 48.6594 33.9942 48.6594H33.9905ZM34.3376 44.3314C33.7505 44.3314 33.1118 44.5044 32.5136 45.0161C32.281 45.2143 32.1739 45.5747 32.2515 45.8918C32.3548 46.3134 32.7795 46.6377 33.4478 46.8035C33.4699 46.8071 35.7518 47.1891 36.3019 45.4882C36.3204 45.3549 36.3388 45.1747 36.3462 44.9621C35.9918 44.7242 35.2238 44.3278 34.3376 44.3278V44.3314Z" fill="#241F20"/>
<path d="M43.8743 62.7134C43.5457 62.7134 43.2245 62.5404 43.0583 62.2377C42.8183 61.798 42.9882 61.2539 43.4386 61.0197C44.6091 60.4107 45.3365 59.7116 45.5469 59.0017C45.5765 58.8972 45.5949 58.7999 45.6023 58.7062C43.302 59.6827 41.8878 59.8233 41.0755 59.1818C40.5106 58.735 40.4442 58.0683 40.5549 57.6323C40.5882 57.5062 40.6472 57.3908 40.7285 57.2899C41.5223 56.3206 41.9285 55.6755 42.1315 55.2611C40.3371 55.6143 39.1592 55.5674 38.4614 55.1206C38.0294 54.8467 37.9038 54.4971 37.8669 54.3242C36.7445 49.1134 40.1192 45.5674 40.2632 45.4197C40.614 45.0593 41.1974 45.0449 41.5666 45.3872C41.9358 45.7296 41.9506 46.2989 41.6035 46.6593C41.4854 46.7818 38.8823 49.5566 39.6134 53.6503C39.9235 53.708 40.7838 53.7656 42.7777 53.2683C42.9365 53.2287 43.1026 53.2323 43.2614 53.2755C43.5678 53.362 43.9555 53.6287 44.118 54.1296C44.3912 54.9692 43.9518 56.1008 42.6965 57.7548C43.1986 57.6827 44.1438 57.4269 45.8349 56.6233C46.2558 56.4215 46.7691 56.5656 47.0202 56.9548C47.0903 57.0665 47.7106 58.0791 47.3414 59.4413C47.0054 60.6773 45.9863 61.744 44.31 62.6197C44.1697 62.6917 44.022 62.7242 43.878 62.7242L43.8743 62.7134ZM39.6762 53.9638C39.6762 53.9638 39.6762 53.9746 39.6762 53.9818C39.6762 53.9746 39.6762 53.971 39.6762 53.9638Z" fill="#241F20"/>
<path d="M61.6575 42.5116C61.5837 42.5116 61.5135 42.5043 61.4397 42.4863C55.0151 40.962 50.5289 38.144 48.1067 34.1115C45.0569 29.0305 46.4637 23.935 46.5264 23.7188C46.6631 23.2395 47.1726 22.9584 47.6637 23.0917C48.1547 23.2251 48.4391 23.7224 48.3061 24.2016C48.2914 24.2593 47.0581 28.8215 49.7166 33.2251C51.8803 36.807 55.9714 39.3332 61.8754 40.735C62.3701 40.8539 62.6766 41.3404 62.5547 41.8233C62.4514 42.2341 62.0747 42.5116 61.6575 42.5116Z" fill="#241F20"/>
<path d="M30.8229 36.3563C30.7195 36.3563 30.6161 36.3383 30.5128 36.3023C30.0328 36.1365 29.7817 35.6212 29.9515 35.1527C29.9958 35.0338 34.4082 23.3185 46.8291 25.041C47.3349 25.1131 47.6857 25.5672 47.6118 26.0608C47.538 26.5545 47.0728 26.8969 46.5669 26.8248C35.6525 25.3077 31.8457 35.3293 31.6906 35.7581C31.554 36.1257 31.1995 36.3563 30.8192 36.3563H30.8229Z" fill="#241F20"/>
<path d="M28.8469 26.6123C28.4592 26.6123 28.1011 26.3745 27.9719 25.9961C27.8648 25.6826 27.9423 25.3547 28.1491 25.1204C28.1934 25.0484 28.2635 24.9258 28.3559 24.7637C31.2839 19.6898 34.8839 15.7511 39.0562 13.0628C47.1091 7.86999 56.5466 7.65377 67.0992 12.4213C67.5608 12.6303 67.7639 13.1673 67.5497 13.6177C67.3355 14.0682 66.7891 14.2664 66.3239 14.0574C56.3879 9.56728 47.5559 9.74026 40.0715 14.5655C36.1466 17.0952 32.746 20.8249 29.962 25.6502C29.6186 26.2484 29.5005 26.4502 29.1349 26.5691C29.0389 26.6015 28.9392 26.6159 28.8432 26.6159L28.8469 26.6123Z" fill="#241F20"/>
<path d="M75.3293 49.5743C75.1779 49.5743 75.0229 49.5382 74.8826 49.459C74.4358 49.2175 74.277 48.6698 74.5244 48.2337C79.3244 39.8085 79.7232 31.7184 75.7022 24.1941C72.6782 18.5328 68.1478 15.3148 68.1035 15.2824C67.6899 14.9905 67.5939 14.4283 67.893 14.0247C68.1884 13.6211 68.7644 13.5274 69.1816 13.8157C69.381 13.9527 74.0702 17.2752 77.3084 23.2932C80.3102 28.8716 82.5441 37.877 76.1453 49.1058C75.9755 49.4013 75.6616 49.5707 75.3367 49.5707L75.3293 49.5743Z" fill="#241F20"/>
<path d="M67.0911 51.0121C66.6332 51.0121 66.2345 50.6806 66.1754 50.2229C66.1126 49.7292 66.4708 49.2788 66.9766 49.2175C69.3323 48.9292 70.8646 48.1833 71.5329 46.9941C72.3489 45.5454 71.6917 43.7508 71.4997 43.2932C70.6172 42.3815 69.7348 41.9887 68.8745 42.1292C67.4751 42.3526 66.3157 43.9058 66.1237 44.313C65.976 44.7598 65.496 45.0229 65.0234 44.9076C64.5286 44.7887 64.2296 44.2986 64.3514 43.8157C64.5065 43.2103 66.024 40.9616 68.2394 40.4211C69.384 40.14 71.1342 40.2193 72.9692 42.1905C73.0283 42.2553 73.08 42.3274 73.1169 42.4031C73.176 42.522 74.5496 45.3616 73.1612 47.8481C72.1939 49.5815 70.1926 50.6445 67.2092 51.0085C67.1686 51.0121 67.1317 51.0157 67.0948 51.0157L67.0911 51.0121ZM66.1422 44.2481C66.1422 44.2481 66.1348 44.2806 66.1274 44.295C66.1348 44.277 66.1385 44.2589 66.1422 44.2481Z" fill="#241F20"/>
<path d="M79.6708 68.8756C79.5157 68.8756 79.3607 68.8648 79.2019 68.8432C77.8653 68.6558 76.7834 67.6792 75.9785 65.9495C75.9231 65.827 75.8936 65.6936 75.8973 65.5603C75.8973 65.5495 75.8973 64.1765 74.9373 63.5927C74.2505 63.5603 72.4339 63.3369 71.3557 61.9387C70.4327 60.7423 70.3145 59.0666 71.005 56.9585C71.16 56.4864 71.6807 56.2234 72.1644 56.3747C72.6517 56.5261 72.9176 57.0342 72.7625 57.5062C72.2677 59.0198 72.2862 60.1405 72.8253 60.8468C73.5637 61.8162 75.144 61.7945 75.1588 61.7945C75.2991 61.7873 75.4505 61.8234 75.5797 61.881C77.4222 62.7387 77.6991 64.6846 77.7397 65.3621C78.109 66.108 78.685 66.9441 79.464 67.0594C80.4056 67.1927 81.4911 66.3026 81.901 65.8702C83.1748 63.7044 85.5859 63.8954 86.8376 64.3459C87.7163 64.3747 88.3219 64.1693 88.6357 63.7513C89.3262 62.836 88.813 60.89 88.5803 60.281C88.5656 60.245 88.5545 60.2053 88.5471 60.1693C88.296 59.1279 88.4216 58.2558 88.92 57.5711C89.4333 56.8648 90.1828 56.5981 90.5963 56.5008C91.2831 55.9747 91.6597 55.3981 91.7373 54.7423C91.896 53.445 90.8622 52.2198 90.8511 52.2053C90.792 52.1369 90.7403 52.0576 90.7034 51.9747C89.4407 49.0846 91.0468 46.9585 91.5637 46.3819C92.232 44.7351 92.3428 43.4918 91.8702 42.8792C91.3459 42.1945 90.0942 42.3026 90.0831 42.3026C89.8911 42.3243 89.688 42.2846 89.5219 42.1873C88.6911 41.7225 88.3736 41.099 88.2554 40.6558C88.0228 39.7981 88.3403 39.009 88.4991 38.6954C88.9828 36.7315 88.8647 35.3117 88.1557 34.5909C87.2474 33.6648 85.5083 33.9963 85.4899 33.9963C85.4345 34.0071 85.3791 34.0144 85.3237 34.0144C84.2567 34.0504 83.6733 33.5783 83.3631 33.1927C82.5508 32.1765 82.8647 30.6306 82.9644 30.2342C83.053 29.3981 83.0197 28.3387 82.3994 27.8954C81.5834 27.308 79.8148 27.7549 79.0837 28.0648C78.6148 28.263 78.072 28.054 77.869 27.5963C77.6659 27.1387 77.88 26.609 78.349 26.4108C78.6776 26.2702 81.6167 25.0918 83.496 26.4468C84.5705 27.2216 85.0062 28.5837 84.792 30.4936C84.7884 30.5405 84.7773 30.5873 84.7662 30.6306C84.648 31.063 84.6 31.8126 84.8179 32.0864C84.8437 32.1189 84.9176 32.209 85.2167 32.2162C85.741 32.1297 88.0117 31.8558 89.4776 33.3333C90.685 34.5513 90.9471 36.5333 90.264 39.2288C90.2419 39.3117 90.2087 39.3945 90.1644 39.4666C89.9945 39.7657 89.8874 40.1765 90.2493 40.4936H90.2788C90.9877 40.4936 92.4499 40.645 93.336 41.7837C94.2628 42.9765 94.2222 44.8035 93.2105 47.2108C93.1625 47.3225 93.0924 47.427 93.0037 47.5135C92.9447 47.5711 91.4973 49.0378 92.3576 51.1603C92.7047 51.6035 93.7902 53.1531 93.5687 54.9549C93.4173 56.1729 92.7268 57.2216 91.5194 58.0756C91.3902 58.1657 91.2388 58.2234 91.08 58.2414C91.08 58.2414 90.6407 58.3062 90.4191 58.6198C90.216 58.9117 90.253 59.3621 90.3305 59.708C90.5299 60.2486 91.4603 63.0342 90.1274 64.8144C89.4037 65.7801 88.2148 66.227 86.5939 66.1405C86.4868 66.1333 86.3834 66.1117 86.2837 66.072C86.088 65.9927 84.2973 65.3333 83.4665 66.8288C83.4333 66.8864 83.3964 66.9405 83.352 66.9909C83.1711 67.1963 81.6203 68.8792 79.6671 68.8792L79.6708 68.8756Z" fill="#241F20"/>
<path d="M81.0263 61.7871C79.7562 61.7871 78.8036 61.4268 78.1833 60.7096C77.3045 59.6934 77.4928 58.3889 77.563 58.0358C77.6331 57.2358 77.515 56.6412 77.2307 56.3529C76.987 56.1078 76.6436 56.1295 76.6325 56.1259C76.5254 56.1367 76.4405 56.1259 76.3371 56.1042C74.9304 55.7727 74.2657 54.9907 73.9519 54.3889C73.0916 52.7277 73.9187 50.6988 74.0147 50.4718C74.2103 50.0142 74.7531 49.7979 75.222 49.9889C75.691 50.1799 75.9125 50.706 75.7168 51.1637C75.547 51.5709 75.1925 52.7961 75.5987 53.5781C75.787 53.9349 76.1303 54.1799 76.651 54.3205C77.0276 54.3205 77.8399 54.4069 78.5119 55.052C79.2319 55.7439 79.531 56.8178 79.3943 58.2448C79.3907 58.288 79.3833 58.3313 79.3722 58.3709C79.3722 58.3709 79.2171 59.1169 79.5974 59.5457C79.963 59.9637 80.7605 60.0033 81.366 59.9637C81.8682 59.9313 82.315 60.306 82.3482 60.8033C82.3814 61.3006 81.9974 61.7295 81.4879 61.7619C81.3291 61.7727 81.174 61.7763 81.0227 61.7763L81.0263 61.7871Z" fill="#241F20"/>
<path d="M21.7393 61.9459C20.1037 61.9459 18.8187 60.5549 18.6673 60.3819C18.623 60.3315 18.5861 60.2774 18.5529 60.2197C17.9621 59.1567 16.6993 59.6396 16.5553 59.7008C16.4557 59.7405 16.3523 59.7657 16.2452 59.7693C14.5541 59.8594 13.6975 59.2035 13.2766 58.6414C12.1689 57.1675 12.911 54.9008 13.0846 54.4252C13.1547 54.108 13.14 53.8594 13.044 53.7189C12.9184 53.5387 12.6415 53.4954 12.6378 53.4918C12.479 53.4738 12.3461 53.4198 12.2132 53.3297C11.2052 52.6198 10.6329 51.7441 10.5073 50.7243C10.3227 49.2396 11.1757 47.9963 11.4932 47.5927C12.1061 46.036 11.0501 44.9621 11.0058 44.9152C10.9209 44.8324 10.8507 44.7279 10.8027 44.6198C9.97196 42.6414 9.94612 41.1279 10.7289 40.1261C11.4673 39.1747 12.6415 39.0306 13.2581 39.027C13.343 38.9261 13.3837 38.7603 13.2286 38.4828C13.1917 38.4143 13.1547 38.3315 13.1363 38.2558C12.5787 36.0504 12.804 34.4143 13.812 33.3981C15.0193 32.1801 16.8692 32.3783 17.3455 32.454C17.4489 32.4504 17.4969 32.4288 17.5043 32.4216C17.6077 32.2918 17.6113 31.7981 17.5117 31.4234C17.5006 31.3801 17.4895 31.3333 17.4858 31.29C17.3049 29.7008 17.6778 28.5621 18.5898 27.9062C20.1701 26.7675 22.596 27.7405 22.8655 27.8558C23.3344 28.054 23.5486 28.5837 23.3455 29.0414C23.1424 29.4954 22.5997 29.708 22.1307 29.5098C21.5806 29.2792 20.255 28.9405 19.6827 29.3549C19.2507 29.6684 19.2581 30.5152 19.3135 31.0306C19.4095 31.4234 19.6458 32.6666 18.959 33.5279C18.6932 33.863 18.191 34.2522 17.3086 34.2522C17.2864 34.2522 17.268 34.2522 17.2458 34.2522C17.1867 34.2522 17.1313 34.245 17.076 34.2342C17.0686 34.2342 15.7763 33.9999 15.1375 34.6558C14.6243 35.1783 14.5467 36.2378 14.9086 37.7261C15.0489 38.0107 15.3 38.6738 15.1043 39.3945C15.0009 39.7801 14.724 40.3243 14.0077 40.7243C13.8341 40.8216 13.6347 40.8612 13.439 40.8396C13.439 40.8396 12.5492 40.7639 12.1984 41.2252C11.8735 41.6504 11.9658 42.5873 12.4569 43.8017C12.911 44.3243 14.1775 46.0684 13.151 48.4143C13.1141 48.4972 13.0661 48.5765 13.0033 48.645C12.9997 48.6486 12.2206 49.5747 12.3461 50.5261C12.4052 50.9837 12.671 51.3909 13.151 51.7693C13.5129 51.863 14.1258 52.0972 14.5504 52.681C14.8458 53.0846 15.1412 53.7981 14.8753 54.8972C14.868 54.9369 14.8532 54.9729 14.8384 55.0089C14.6169 55.5855 14.3104 56.9801 14.7683 57.5891C14.975 57.8666 15.3997 58.0035 16.0089 57.9855C17.0649 57.6179 19.0513 57.481 20.1184 59.272C20.4175 59.5783 21.215 60.2378 21.876 60.1441C22.4003 60.0684 22.8138 59.4774 23.0833 58.9405C23.1313 58.0684 23.5523 56.681 24.9073 56.0504C25.0403 55.9891 25.1843 55.9603 25.332 55.9639C25.6458 55.9567 26.5873 55.8594 27.023 55.2828C27.5067 54.6486 27.3 53.5819 27.0415 52.7963C26.8864 52.3243 27.1523 51.8161 27.6397 51.6648C28.1233 51.5134 28.644 51.7729 28.799 52.2486C29.3677 53.9819 29.2643 55.3693 28.4926 56.3711C27.6175 57.5062 26.1664 57.7188 25.5572 57.7549C24.9221 58.1765 24.9221 59.1207 24.9221 59.1315C24.9221 59.2648 24.8963 59.3981 24.8409 59.5206C24.1763 60.9585 23.2643 61.7693 22.1344 61.9279C21.9978 61.9459 21.8649 61.9567 21.7357 61.9567L21.7393 61.9459Z" fill="#241F20"/>
</svg>
