<svg width="100" height="210" viewBox="0 0 100 210" fill="none" xmlns="http://www.w3.org/2000/svg">
<path d="M65.6148 149.124L59.5148 179.606L69.6264 180.62L71.8148 184.725L70.5571 188.365L50.8379 188.078L51.2879 148.465C51.2879 148.465 58.7494 150.119 65.6148 149.124Z" fill="#FFF080"/>
<path d="M73.0883 188.365H50.5691C49.6281 188.365 48.8652 189.116 48.8652 190.041V196.217C48.8652 197.142 49.6281 197.893 50.5691 197.893H73.0883C74.0293 197.893 74.7922 197.142 74.7922 196.217V190.041C74.7922 189.116 74.0293 188.365 73.0883 188.365Z" fill="#67A9F9"/>
<path d="M68.2002 179.795L65.0695 189.171H61.0156L64.7849 179.178L68.2002 179.795Z" fill="#67A9F9"/>
<path d="M72.6429 198.839H50.1698C48.5121 198.839 47.1621 197.511 47.1621 195.88V190.382C47.1621 188.751 48.5121 187.423 50.1698 187.423H72.6429C74.3006 187.423 75.6506 188.751 75.6506 190.382V195.88C75.6506 197.511 74.3006 198.839 72.6429 198.839ZM50.1736 189.311C49.5736 189.311 49.089 189.792 49.089 190.378V195.876C49.089 196.467 49.5775 196.943 50.1736 196.943H72.6467C73.2467 196.943 73.7313 196.463 73.7313 195.876V190.378C73.7313 189.788 73.2429 189.311 72.6467 189.311H50.1736Z" fill="black"/>
<path d="M66.6852 189.315C66.2544 189.315 65.8621 189.027 65.7506 188.596C64.5429 183.779 67.9852 180.128 68.1313 179.973C68.4967 179.594 69.1044 179.575 69.489 179.935C69.8736 180.294 69.8929 180.892 69.5275 181.271C69.4852 181.316 66.6659 184.351 67.6159 188.142C67.7429 188.649 67.4275 189.164 66.9121 189.288C66.8352 189.307 66.7583 189.315 66.6813 189.315H66.6852Z" fill="black"/>
<path d="M61.9191 189.315C61.4653 189.315 61.0614 188.997 60.9729 188.539C59.8768 182.678 63.7845 179.016 63.9499 178.86C64.3383 178.505 64.946 178.524 65.3076 178.906C65.6691 179.288 65.6499 179.886 65.2614 180.242C65.1229 180.37 61.9614 183.382 62.8614 188.195C62.9576 188.71 62.6114 189.202 62.0883 189.296C62.0306 189.308 61.9691 189.311 61.9114 189.311L61.9191 189.315Z" fill="black"/>
<path d="M51.3262 149.056L51.3377 153.415C51.3377 153.415 62.7377 155.318 64.9916 153.415L65.4762 148.931C65.4762 148.931 58.1308 149.922 51 148L51.3262 149.056Z" fill="#FFBA57"/>
<path d="M50.2878 187.87C50.2686 187.87 50.2494 187.87 50.2263 187.87C49.6955 187.836 49.2917 187.389 49.3263 186.867C50.1571 173.722 50.2224 162.692 50.2878 151.016C50.3147 146.312 50.3455 141.45 50.4263 136.414C50.434 135.892 50.8878 135.472 51.4032 135.483C51.934 135.491 52.3571 135.922 52.3494 136.444C52.2686 141.469 52.2378 146.327 52.2109 151.023C52.1417 162.726 52.0763 173.783 51.2455 186.98C51.2148 187.484 50.7917 187.87 50.2878 187.87Z" fill="black"/>
<path d="M71.243 188.558C71.143 188.558 71.043 188.543 70.9469 188.513C70.443 188.35 70.1661 187.817 70.3277 187.321C71.0084 185.263 70.8815 183.723 69.9392 182.614C67.8084 180.098 61.7815 180.272 59.6392 180.548C59.3315 180.586 59.0238 180.48 58.8084 180.257C58.5969 180.033 58.5084 179.723 58.57 179.424C59.3546 175.61 60.0661 172.277 60.693 169.337C63.3892 156.691 64.743 150.346 65.2892 137.322C65.3123 136.8 65.7584 136.391 66.2892 136.414C66.82 136.437 67.2315 136.876 67.2123 137.398C66.6584 150.577 65.293 156.975 62.5776 169.723C62.02 172.337 61.3969 175.258 60.7161 178.554C63.293 178.399 68.9046 178.433 71.42 181.399C72.7969 183.026 73.0469 185.213 72.1584 187.904C72.0276 188.305 71.6507 188.558 71.243 188.558Z" fill="black"/>
<path d="M52.0806 154.519C54.1037 155.155 56.2652 155.412 58.3806 155.473C60.496 155.533 62.596 155.397 64.5844 154.803C65.7652 154.447 65.2614 152.624 64.0729 152.979C62.2383 153.528 60.2883 153.634 58.3806 153.581C56.4729 153.528 54.4614 153.282 52.5921 152.695C51.4114 152.325 50.9037 154.148 52.0806 154.519Z" fill="black"/>
<path d="M53.1685 149.873C55.1916 150.509 57.3531 150.766 59.4685 150.827C61.5839 150.887 62.6839 150.751 64.6723 150.157C65.8531 149.801 65.3492 147.978 64.1608 148.333C62.3262 148.882 61.3762 148.988 59.4685 148.935C57.5608 148.882 55.5492 148.636 53.68 148.049C52.4992 147.679 51.9916 149.502 53.1685 149.873Z" fill="black"/>
<path d="M46.23 150.952L42.4069 179.606L50.7608 180.62L52.9492 184.726L51.8492 189.796H32.3915L31.13 150.706C31.13 150.706 39.3646 151.95 46.23 150.952Z" fill="#FFF080"/>
<path d="M29.8455 188H53.1545C54.1737 188 55 188.788 55 189.759V196.241C55 197.212 54.1737 198 53.1545 198H29.8455C28.8263 198 28 197.212 28 196.241V189.759C28 188.788 28.8263 188 29.8455 188Z" fill="#67A9F9"/>
<path d="M49.2227 179.795L46.0919 189.171H42.0419L45.8111 179.178L49.2227 179.795Z" fill="#67A9F9"/>
<path d="M46.8685 189.311C47.3954 189.311 47.8261 188.891 47.83 188.373C47.8608 184.828 50.03 181.135 50.0531 181.097C50.3223 180.646 50.1685 180.068 49.7069 179.803C49.2492 179.538 48.6608 179.689 48.3915 180.143C48.2915 180.31 45.9377 184.313 45.9069 188.358C45.9031 188.88 46.33 189.308 46.8608 189.311H46.8685Z" fill="black"/>
<path d="M43.0385 186.984C43.0385 186.984 43.0654 186.984 43.0808 186.984C43.6115 186.961 44.0231 186.522 44 186C44.5 181 46.3719 180.578 46.4834 180.469C46.8565 180.102 46.8603 179.504 46.4911 179.133C46.118 178.762 45.5142 178.755 45.1372 179.122C44.9988 179.254 42.5 180 42.0808 186.079C42.1038 186.586 42.5269 186.988 43.0423 186.988L43.0385 186.984Z" fill="black"/>
<path d="M30.0075 198.839H53.4806C55.1383 198.839 56.4883 197.511 56.4883 195.88V190.382C56.4883 188.751 55.1383 187.423 53.4806 187.423H30.0075C28.3498 187.423 26.9998 188.751 26.9998 190.382V195.88C26.9998 197.511 28.3498 198.839 30.0075 198.839ZM53.4806 189.311C54.0806 189.311 54.5652 189.792 54.5652 190.378V195.876C54.5652 196.467 54.0767 196.943 53.4806 196.943H30.0075C29.4075 196.943 28.9229 196.463 28.9229 195.876V190.378C28.9229 189.788 29.4114 189.311 30.0075 189.311H53.4806Z" fill="black"/>
<path d="M46.4414 148.675L45.5479 153.097C45.5479 153.097 33.541 153.934 31.4656 151.837L31.865 147.371C31.865 147.371 39.1639 149.954 46.4414 148.675Z" fill="#FFBA57"/>
<path d="M52.4759 188.558C52.8721 188.558 53.2413 188.316 53.3798 187.93C54.2298 185.603 54.0682 183.632 52.9028 182.073C50.749 179.19 45.7067 178.724 43.4644 178.664C44.0259 172.924 44.5144 168.062 44.9336 163.869C46.5028 148.201 47.1528 141.711 47.1836 133.52C47.1836 132.997 46.7567 132.574 46.2259 132.57C45.6951 132.57 45.2644 132.99 45.2644 133.512C45.2336 141.617 44.5874 148.076 43.0221 163.684C42.5759 168.126 42.0567 173.321 41.4528 179.519C41.4259 179.791 41.5221 180.06 41.7105 180.261C41.9028 180.457 42.1721 180.563 42.449 180.556C44.3221 180.48 49.5759 180.809 51.3567 183.197C52.1297 184.234 52.199 185.573 51.5721 187.295C51.3913 187.787 51.6528 188.328 52.1528 188.505C52.2605 188.543 52.3682 188.562 52.4759 188.562V188.558Z" fill="black"/>
<path d="M32.462 186.472C32.9813 186.472 33.4082 186.068 33.4236 185.553C33.8697 170.013 33.0312 156.612 31.8004 135.835C31.7696 135.313 31.3081 134.916 30.785 134.946C30.2543 134.976 29.8504 135.423 29.8812 135.945C31.1081 156.672 31.9466 170.028 31.5005 185.5C31.4851 186.022 31.9043 186.457 32.4351 186.472C32.4428 186.472 32.4543 186.472 32.462 186.472Z" fill="black"/>
<path d="M44.2318 153.895C42.1601 154.348 39.9843 154.411 37.8719 154.283C35.7595 154.155 33.68 153.832 31.7524 153.064C30.608 152.604 31.2722 150.833 32.4243 151.293C34.2028 152.003 36.1356 152.282 38.0404 152.399C39.9452 152.516 41.9707 152.45 43.8847 152.033C45.0938 151.768 45.4371 153.63 44.2318 153.895Z" fill="black"/>
<path d="M32.8238 146.826C34.6023 147.536 36.5351 147.815 38.4399 147.932C40.3448 148.05 41.2383 148.055 43.1523 147.638C44.3614 147.373 44.7046 149.235 43.4994 149.5C41.4277 149.953 40.3838 149.945 38.2714 149.817C36.1591 149.689 34.0795 149.366 32.1519 148.597C31.0075 148.138 31.6718 146.366 32.8238 146.826Z" fill="black"/>
<path d="M71.7148 72.7217C71.7148 72.7217 79.7456 81.8898 82.2533 92.4163C82.2533 92.4163 85.7302 105.372 80.6802 111.04L73.7956 112.856L71.7148 72.7217Z" fill="#F8B3FF"/>
<path d="M49.356 60.9498C43.7214 56.3109 33.9329 74.0834 26.9752 100.35C24.2406 110.669 21 122 19.3906 134.412C19.3906 134.412 67.0252 142.615 73.3022 138.896L73.7906 74.2196L69.8945 69.7093C69.8945 69.7093 55.6329 52.6747 49.3522 60.9536L49.356 60.9498Z" fill="#F8B3FF"/>
<path fill-rule="evenodd" clip-rule="evenodd" d="M65.7426 114.034C66.2762 113.892 66.8242 114.209 66.9665 114.743C67.297 115.982 67.6424 117.11 68.2899 118.164C68.9262 119.201 69.8835 120.21 71.4964 121.132C71.9759 121.406 72.1425 122.017 71.8685 122.496C71.5945 122.976 70.9836 123.142 70.5041 122.868C68.617 121.79 67.4077 120.55 66.5856 119.211C65.7748 117.891 65.3702 116.519 65.034 115.258C64.8917 114.724 65.2089 114.176 65.7426 114.034Z" fill="black"/>
<path d="M44.366 61.374C44.366 61.374 29.7006 61.3627 22.0275 76.4146C14.3506 91.4702 26.8814 104.914 41.7698 99.4654L42.1468 87.2135L33.016 83.2594L38.866 72.1275L44.3621 61.374H44.366Z" fill="#F8B3FF"/>
<path d="M49.0005 60C49.0005 60 47.5 69 57.9506 78.602L62.7352 72.722L64.0506 80.089C64.0506 80.089 71.9236 74.0085 71.9929 72.1241L69.9736 69.3393C69.9736 69.3393 49.389 44.8885 49.3621 59.9252L49.0005 60Z" fill="white"/>
<path d="M20.5034 65.6498C22.1093 65.6498 23.4111 64.3691 23.4111 62.7893C23.4111 61.2094 22.1093 59.9287 20.5034 59.9287C18.8975 59.9287 17.5957 61.2094 17.5957 62.7893C17.5957 64.3691 18.8975 65.6498 20.5034 65.6498Z" fill="#2BE6AE"/>
<path d="M24.935 59.5692C26.5409 59.5692 27.8427 58.2885 27.8427 56.7087C27.8427 55.1289 26.5409 53.8481 24.935 53.8481C23.3292 53.8481 22.0273 55.1289 22.0273 56.7087C22.0273 58.2885 23.3292 59.5692 24.935 59.5692Z" fill="#2BE6AE"/>
<path d="M28.5542 53.4848C30.16 53.4848 31.4619 52.2041 31.4619 50.6242C31.4619 49.0444 30.16 47.7637 28.5542 47.7637C26.9483 47.7637 25.6465 49.0444 25.6465 50.6242C25.6465 52.2041 26.9483 53.4848 28.5542 53.4848Z" fill="#2BE6AE"/>
<path d="M34.0777 48.074C36.3017 48.074 38.1046 46.0903 38.1046 43.6432C38.1046 41.1961 36.3017 39.2124 34.0777 39.2124C31.8537 39.2124 30.0508 41.1961 30.0508 43.6432C30.0508 46.0903 31.8537 48.074 34.0777 48.074Z" fill="#2BE6AE"/>
<path d="M16.4841 67.5645L10.6995 68.8093L10.2148 70.1223L15.361 74.7423L17.0495 70.2926L16.4841 67.5645Z" fill="#2BE6AE"/>
<path d="M51.105 25.5673C50.3667 24.9123 49.2285 24.9702 48.5628 25.6966C47.8971 26.4229 47.9559 27.5426 48.6942 28.1975L53.1846 32.1807C53.9229 32.8356 55.0611 32.7777 55.7268 32.0514C56.3925 31.325 56.3336 30.2053 55.5953 29.5504L51.105 25.5673Z" fill="#F8B3FF"/>
<path d="M42.3184 28.8714L45.403 55.8006C45.403 55.8006 58.5222 73.4595 61.926 74.2163L69.8991 69.706C69.8991 69.706 86.0261 65.7406 88.2953 35.8109C88.2953 35.8109 49.1761 19.3022 42.3184 28.8714Z" fill="white"/>
<path d="M50.2893 13.422C50.2893 13.422 28.7316 19.249 41.3893 50.6242C41.3893 50.6242 41.3893 50.6242 41.3931 50.6355C42.5354 53.1253 46.2277 52.8263 46.9585 50.1928L49.9123 39.5301C49.9123 39.5301 41.3277 39.4015 45.947 33.3134C45.947 33.3134 48.37 30.9901 50.4546 35.1296C50.4546 35.1296 57.8508 30.2334 73.17 32.549C73.17 32.549 77.8508 32.4658 85.77 37.6874C86.7931 38.3609 88.1816 37.6912 88.2585 36.4804C88.5854 31.3193 88.0585 20.1269 78.3662 14.3793C65.5085 6.75876 50.6047 11.1442 50.2893 13.4182V13.422Z" fill="#2BE6AE"/>
<path d="M46.9625 80.8003L44.8125 106.791L53.651 108.793L61.4433 83.4603L46.9625 80.8003Z" fill="white"/>
<path d="M50.0004 88.3564L58.4351 89.8132L53.6466 108.025L45.4043 107.26L46.2389 89.5521L50.0004 88.3564Z" fill="#FF6A2F"/>
<path d="M42.6771 88.7233L49.0425 87.4595L50.0002 88.3562L49.5579 90.4146L51.3271 92.84L51.1925 95.0724L51.3271 97.2103L49.7194 99.806L49.6156 101.694L43.9117 101.13L41.7694 99.4616C41.7694 99.4616 41.3309 88.466 42.6771 88.7195V88.7233Z" fill="white"/>
<path d="M34.7894 102.493C33.3932 102.493 31.9971 102.281 30.6278 101.853C26.3548 100.521 22.6932 97.2105 20.5817 92.7683C18.274 87.9099 19.1509 83.1878 20.3163 79.2072C21.8432 73.9818 27.5971 61.5748 47.9509 59.2137C48.4778 59.1494 48.9548 59.524 49.0201 60.0424C49.0817 60.5608 48.7048 61.03 48.1778 61.0943C28.9701 63.3229 23.5894 74.871 22.1663 79.7332C20.6355 84.9662 20.6817 88.5116 22.3278 91.9699C24.2124 95.9354 27.4509 98.8791 31.2124 100.052C34.5278 101.085 38.0163 100.654 41.2971 98.8035C41.7586 98.5424 42.3471 98.7013 42.6086 99.1553C42.874 99.6094 42.7124 100.188 42.2509 100.446C39.8317 101.808 37.3086 102.496 34.7932 102.496L34.7894 102.493Z" fill="black"/>
<path d="M41.6651 99.6205C41.2228 99.6205 40.8266 99.3178 40.7266 98.8751C40.1574 96.3172 40.5151 93.8389 40.8612 91.4475C40.9843 90.6075 41.1074 89.7372 41.1881 88.8897C41.2381 88.3675 41.7074 87.9853 42.2343 88.0345C42.7651 88.0837 43.1535 88.5416 43.1035 89.0637C43.0189 89.9567 42.892 90.8497 42.7651 91.7124C42.4266 94.0432 42.1074 96.2453 42.6035 98.4702C42.7151 98.981 42.3881 99.4843 41.8689 99.5978C41.7997 99.6129 41.7305 99.6205 41.6612 99.6205H41.6651Z" fill="black"/>
<path d="M62.4647 140.315C50.0416 140.315 35.5455 138.65 19.1993 135.336C18.6839 135.23 18.3493 134.738 18.4493 134.231C18.9339 131.771 19.4185 129.172 19.9301 126.417C21.8108 116.33 23.7531 105.902 26.0801 100.006C26.2724 99.5183 26.8301 99.28 27.3262 99.4654C27.8224 99.6545 28.0647 100.203 27.8762 100.691C25.6147 106.416 23.5993 117.223 21.8262 126.758C21.3762 129.176 20.9493 131.472 20.5224 133.667C40.9378 137.746 58.3801 139.206 72.4031 138.022C73.6839 117.658 74.457 90.4789 72.8455 74.307C72.8031 73.887 73.0493 73.4897 73.4493 73.3345C73.8493 73.1794 74.3031 73.3043 74.5647 73.641C81.6955 82.8129 88.0493 101.062 81.4455 111.475C81.1647 111.918 80.5724 112.054 80.1224 111.778C79.6724 111.502 79.5339 110.919 79.8147 110.476C82.4955 106.253 83.0224 99.8929 81.307 92.56C80.0916 87.38 77.8339 82.0373 75.0647 77.6821C76.2916 94.414 75.4955 119.845 74.2724 138.957C74.2416 139.422 73.8724 139.797 73.4031 139.838C69.9608 140.16 66.3147 140.319 62.4724 140.319L62.4647 140.315Z" fill="black"/>
<path d="M40.5733 51.4115C40.2003 51.4115 39.8426 51.1959 39.6887 50.8364C33.4964 36.4845 35.2387 23.6764 44.4657 15.6888C48.7157 12.0072 54.3464 9.64614 60.3118 9.04073C66.281 8.43154 72.2118 9.61965 77.0118 12.3818C85.0118 16.9829 89.9926 26.4461 89.408 35.9245C89.3772 36.4467 88.9234 36.8364 88.3887 36.8099C87.858 36.7796 87.4541 36.3294 87.4887 35.8072C88.031 27.0213 83.431 18.2656 76.0426 14.0126C66.8887 8.7456 53.858 10.0775 45.7387 17.1078C37.1733 24.5202 35.6157 36.5451 41.4618 50.0948C41.6695 50.5753 41.4426 51.1315 40.9541 51.3359C40.831 51.3888 40.7041 51.4115 40.5772 51.4115H40.5733Z" fill="black"/>
<path d="M33.7434 48.8835C33.655 48.8835 33.5703 48.8835 33.4819 48.8759C30.5473 48.7359 28.2742 46.2727 28.4165 43.3856C28.5588 40.4986 31.0626 38.2662 33.9973 38.4024C36.9319 38.5424 39.205 41.0056 39.0626 43.8927C38.9242 46.6927 36.5626 48.8797 33.7434 48.8797V48.8835ZM33.7396 40.2905C31.9357 40.2905 30.428 41.6867 30.3396 43.4802C30.2473 45.3267 31.7011 46.9008 33.578 46.9878C35.4588 47.0786 37.055 45.6483 37.1434 43.8019C37.2357 41.9554 35.7819 40.3813 33.905 40.2943C33.8473 40.2943 33.7934 40.2905 33.7396 40.2905Z" fill="black"/>
<path d="M28.5587 54.9716C28.4818 54.9716 28.4087 54.9716 28.3318 54.9678C27.1087 54.9111 25.9856 54.3851 25.1625 53.496C24.3394 52.6068 23.9202 51.4527 23.9779 50.2495C24.101 47.7673 26.251 45.8527 28.7741 45.9662C31.2971 46.0873 33.251 48.2024 33.1279 50.6846C33.0702 51.8878 32.5356 52.9927 31.6318 53.8024C30.7818 54.5592 29.6971 54.9716 28.5587 54.9716ZM28.551 47.8543C27.8894 47.8543 27.2625 48.0927 26.7702 48.5316C26.2433 49.0008 25.9356 49.6441 25.901 50.3403C25.8318 51.7781 26.9625 53.0078 28.4279 53.076C29.1356 53.1062 29.8164 52.8716 30.3433 52.4024C30.8702 51.9333 31.1779 51.29 31.2125 50.5938C31.2818 49.156 30.151 47.9262 28.6856 47.8581C28.6433 47.8581 28.5971 47.8581 28.5548 47.8581L28.551 47.8543Z" fill="black"/>
<path d="M24.4855 60.8743C24.4163 60.8743 24.3471 60.8743 24.274 60.8705C21.9432 60.7608 20.1355 58.8008 20.2471 56.5078C20.3009 55.3954 20.7932 54.3737 21.6317 53.6246C22.4702 52.8754 23.5509 52.4932 24.6817 52.55C25.8125 52.6029 26.8509 53.0873 27.6125 53.9121C28.374 54.737 28.7625 55.804 28.7048 56.9127C28.6471 58.0213 28.1586 59.0467 27.3202 59.7959C26.5355 60.4959 25.5317 60.8781 24.4779 60.8781L24.4855 60.8743ZM24.4779 54.4343C23.9009 54.4343 23.3548 54.6424 22.9279 55.0245C22.4702 55.4332 22.2009 55.9932 22.174 56.5986C22.1125 57.851 23.0971 58.9218 24.3702 58.9824C24.9894 59.0127 25.5779 58.8046 26.0355 58.3959C26.4932 57.9873 26.7625 57.4273 26.7894 56.8218C26.8163 56.2164 26.6086 55.6337 26.1932 55.1835C25.7779 54.7332 25.2086 54.4683 24.5932 54.4418C24.5548 54.4418 24.5163 54.4418 24.4779 54.4418V54.4343Z" fill="black"/>
<path d="M20.2349 66.9852C20.1656 66.9852 20.1003 66.9852 20.031 66.9814C17.7503 66.8717 15.9849 64.9571 16.0926 62.7133C16.2041 60.4696 18.1464 58.7252 20.431 58.8387C22.7118 58.9485 24.4772 60.8631 24.3695 63.1068C24.2618 65.2825 22.4272 66.9852 20.2349 66.9852ZM20.231 60.7268C19.058 60.7268 18.0733 61.6387 18.0156 62.8041C17.958 64.0074 18.9041 65.0328 20.1233 65.0895C21.3464 65.1501 22.3887 64.2155 22.4464 63.016C22.5041 61.8128 21.558 60.7874 20.3387 60.7306C20.3041 60.7306 20.2656 60.7306 20.231 60.7306V60.7268Z" fill="black"/>
<path d="M15.908 75.6612C15.6887 75.6612 15.4733 75.5855 15.2964 75.4455L9.60411 70.852C9.25795 70.572 9.15411 70.099 9.35026 69.7017C10.6503 67.0985 14.0118 66.6898 14.1541 66.6709C16.1695 66.4022 17.1656 67.1325 17.6464 67.7947C19.2464 70.0044 17.1926 74.299 16.7656 75.1352C16.6349 75.3925 16.3926 75.5779 16.108 75.6347C16.0426 75.6498 15.9733 75.6536 15.908 75.6536V75.6612ZM11.4964 69.9325L15.5387 73.1941C16.1656 71.6125 16.631 69.6525 16.081 68.8957C15.831 68.5514 15.2656 68.4341 14.3964 68.5514C14.3618 68.5552 12.531 68.7898 11.4964 69.9325Z" fill="black"/>
<path d="M61.9382 47.8394C61.7497 47.8394 61.5805 47.8281 61.4305 47.8091C59.9728 47.6086 58.8997 46.8481 58.4882 45.7205C58.1228 44.7178 58.3459 43.5751 59.0574 42.8108C60.4728 41.2935 62.3228 41.0627 63.8228 41.3427C63.7267 41.2178 63.6151 41.1043 63.4959 41.0021C62.8613 40.48 61.9036 40.3664 60.6459 40.6578C60.6267 40.6616 60.6113 40.6654 60.592 40.6691C60.5805 40.6691 59.7651 40.8697 59.1459 42.0237C58.8997 42.4854 58.3151 42.6632 57.8459 42.421C57.3767 42.1789 57.1959 41.6037 57.4421 41.1421C58.4459 39.2616 59.919 38.8756 60.2151 38.8151C62.092 38.38 63.6151 38.6335 64.7344 39.5605C66.6844 41.1762 66.519 44.2183 66.5113 44.347C66.5113 44.381 66.5036 44.4189 66.4997 44.4529C66.0305 47.0902 63.4613 47.8432 61.9382 47.8432V47.8394ZM62.6997 43.121C61.969 43.121 61.1651 43.3518 60.4767 44.0897C60.2497 44.3356 60.1767 44.7405 60.2997 45.081C60.4651 45.5313 60.9613 45.834 61.6959 45.9324C61.719 45.9324 64.2113 46.0837 64.5959 44.1767C64.5997 44.0291 64.5959 43.8248 64.5805 43.594C64.2305 43.4048 63.5151 43.121 62.7036 43.121H62.6997Z" fill="black"/>
<path d="M79.2116 50.6734C79.0232 50.6734 78.854 50.662 78.704 50.6431C77.2463 50.4426 76.1732 49.682 75.7616 48.5545C75.3963 47.5518 75.6193 46.4091 76.3309 45.6448C77.7463 44.1275 79.5963 43.8966 81.0963 44.1766C81.0001 44.0518 80.8886 43.9383 80.7693 43.8361C80.1347 43.3139 79.177 43.2004 77.9193 43.4918C77.9001 43.4956 77.8847 43.4993 77.8655 43.5031C77.854 43.5031 77.0386 43.7037 76.4193 44.8577C76.1732 45.3193 75.5886 45.4972 75.1193 45.255C74.6501 45.0129 74.4693 44.4377 74.7155 43.9761C75.7193 42.0993 77.1924 41.7096 77.4886 41.6491C79.3655 41.2139 80.8886 41.4675 82.0078 42.3945C83.9578 44.0102 83.7924 47.0523 83.7847 47.181C83.7847 47.215 83.777 47.2529 83.7732 47.2869C83.304 49.9242 80.7347 50.6772 79.2116 50.6772V50.6734ZM79.9732 45.9512C79.2424 45.9512 78.4386 46.182 77.7501 46.9199C77.5232 47.1658 77.4501 47.5707 77.5732 47.9112C77.7386 48.3615 78.2347 48.6642 78.9693 48.7664C78.9924 48.7664 81.4847 48.9177 81.8693 47.0107C81.8732 46.8631 81.8693 46.6588 81.854 46.428C81.504 46.2388 80.7886 45.955 79.977 45.955L79.9732 45.9512Z" fill="black"/>
<path d="M67.6343 63.1901C67.5227 63.1901 67.4073 63.1712 67.2958 63.1296C64.2496 61.9945 64.0804 58.0064 64.0766 57.8361C64.0689 57.5712 64.1727 57.3139 64.365 57.1285C64.5573 56.9431 64.8189 56.8485 65.0881 56.8599L68.1458 57.0112L66.9458 54.7031C66.7958 54.4156 66.8073 54.0712 66.9727 53.7912C67.1381 53.5112 67.442 53.3372 67.7689 53.3258L72.0881 53.1896C71.8612 52.115 71.515 50.5977 71.2266 49.3377C70.842 47.6501 70.742 47.2037 70.7227 47.0447C70.665 46.5264 71.0458 46.0572 71.5727 46.0004C72.092 45.9437 72.565 46.3107 72.6304 46.8177C72.6612 46.9918 72.8843 47.9718 73.0996 48.9215C73.4535 50.4766 73.8958 52.4139 74.1035 53.4734C74.1804 53.8556 74.0804 54.2529 73.8304 54.5556C73.5804 54.862 73.2112 55.0437 72.8112 55.055L69.342 55.1647L70.6112 57.6015C70.7689 57.9004 70.7496 58.2637 70.5612 58.5474C70.3766 58.8312 70.0458 58.9977 69.7035 58.9788L66.1458 58.801C66.3573 59.7053 66.8458 60.935 67.9689 61.3512C68.465 61.5366 68.715 62.0815 68.5266 62.5696C68.3804 62.948 68.015 63.1826 67.6266 63.1826L67.6343 63.1901Z" fill="black"/>
<path d="M46.9156 50.5905C46.8271 50.5905 46.7348 50.5792 46.6464 50.5527C46.1348 50.4051 45.8425 49.883 45.9925 49.3797L48.5964 40.5862C47.3502 40.5862 45.6271 40.3592 44.4887 39.2014C43.4771 38.1797 43.1733 36.7041 43.5771 34.8235C43.8656 33.4803 45.4618 32.2241 46.6964 31.997C47.8041 31.7927 49.8771 31.8722 51.3156 34.71C51.5541 35.1792 51.3579 35.7468 50.8848 35.9776C50.4079 36.2122 49.831 36.0192 49.5964 35.5538C48.5925 33.5749 47.4348 33.7868 47.0541 33.8587C46.4733 33.9646 45.5656 34.7403 45.4618 35.217C45.1964 36.443 45.3348 37.3397 45.8694 37.8808C46.831 38.857 48.9925 38.7322 49.7464 38.5997C50.0733 38.543 50.4079 38.6565 50.631 38.8987C50.8541 39.1408 50.931 39.4814 50.8387 39.7954L47.8464 49.9095C47.7233 50.3219 47.3387 50.5905 46.9233 50.5905H46.9156Z" fill="black"/>
<path d="M41.8692 88.4053C41.8116 88.4053 41.75 88.4016 41.6885 88.3902C38.8231 87.8567 34.6346 86.3508 32.2577 83.8535C32.0654 83.6529 31.9731 83.3805 32.0039 83.1081C32.5077 78.3859 34.7154 75.4572 37.55 72.1199C37.8923 71.7189 38.4962 71.6659 38.9039 71.9989C39.3116 72.3356 39.3654 72.9297 39.0269 73.3308C36.4116 76.407 34.5039 78.9194 33.9731 82.8621C35.9654 84.7275 39.4077 86.0405 42.05 86.5286C42.5731 86.627 42.9154 87.1189 42.8154 87.6335C42.7269 88.0875 42.3231 88.4053 41.8731 88.4053H41.8692Z" fill="black"/>
<path d="M58.1895 79.5477C57.9895 79.5477 57.7895 79.4871 57.6241 79.366C57.3818 79.192 51.1621 75.6584 49.1467 68.507C49.0044 68.0038 49.3044 67.4816 49.8159 67.3416C50.3275 67.2016 50.8582 67.4968 51.0005 68C52.4121 73.0059 56.4203 75.8623 57.9818 77.2093L60.4895 73.5655C56.9741 71.8855 52.9164 66.8606 52.4126 66.2287C52.0857 65.8163 52.1587 65.2223 52.578 64.9006C52.9972 64.579 53.6011 64.6509 53.928 65.0633C55.3434 66.8455 59.5895 71.5979 62.1818 72.1731C62.4934 72.2412 62.7472 72.4568 62.8664 72.7482C62.9818 73.0395 62.9472 73.3687 62.7703 73.626L58.9857 79.1239C58.8395 79.3358 58.6126 79.4795 58.3549 79.525C58.3011 79.5325 58.2434 79.5401 58.1895 79.5401V79.5477Z" fill="black"/>
<path d="M64.303 80.728C64.1415 80.728 63.9838 80.6902 63.8415 80.6107C63.6107 80.4859 63.4415 80.274 63.3761 80.028L61.5799 73.448C61.5069 73.1832 61.5569 72.9032 61.7107 72.6761C61.8646 72.4491 62.1107 72.2978 62.3838 72.2637C62.4184 72.2599 66.0299 71.7453 69.2722 68.9907C69.6722 68.6502 70.2799 68.6918 70.6299 69.0891C70.9761 69.4826 70.9338 70.0805 70.5299 70.4248C67.9338 72.6307 65.1761 73.5615 63.703 73.9286L64.9338 78.4388C65.9338 77.8637 67.5992 76.634 69.1646 74.2615C69.453 73.8226 70.0492 73.6978 70.4953 73.9853C70.9415 74.2691 71.0684 74.8556 70.7761 75.2945C67.9261 79.608 64.7299 80.6486 64.5953 80.6902C64.4992 80.7205 64.403 80.7356 64.303 80.7356V80.728Z" fill="black"/>
<path d="M47.851 102.647C46.6817 102.647 45.1586 102.314 43.2317 101.641C42.7317 101.467 42.4702 100.926 42.6471 100.434C42.824 99.9419 43.374 99.6846 43.874 99.8586C47.9625 101.281 48.7394 100.581 48.774 100.551C48.8894 100.438 48.8125 100.127 48.8125 100.124C48.8048 100.101 48.7971 100.082 48.7933 100.059C48.4625 98.8711 49.2163 97.91 50.0702 97.5089C50.4625 97.2932 50.5663 97.123 50.574 97.0813C50.5817 97.0359 50.5125 96.9111 50.4394 96.8316C49.2548 95.8289 49.7163 94.3684 50.3279 93.6267C50.3625 93.5851 50.3971 93.5473 50.4356 93.5132C50.6394 93.3354 50.7163 93.2143 50.7471 93.1613C50.6433 93.0365 50.301 92.8435 50.0163 92.7527C48.8663 92.4121 48.4779 91.7689 48.3586 91.2884C48.1125 90.3084 48.8048 89.4419 49.0971 89.1316C49.4163 88.617 49.451 88.3559 49.4548 88.2727C49.3202 88.1932 48.9394 88.1403 48.6548 88.1667C48.6317 88.1667 48.6048 88.1667 48.5856 88.1667C46.6163 88.2008 44.8163 89.0105 44.7971 89.0181C44.3163 89.2376 43.7433 89.0332 43.5202 88.5603C43.2971 88.0873 43.501 87.5273 43.9817 87.304C44.0702 87.2624 46.1356 86.324 48.5163 86.2749C48.9125 86.2446 50.4317 86.1992 51.1048 87.2776C51.5817 88.0381 51.4356 89.0257 50.674 90.2176C50.6356 90.2781 50.5856 90.3349 50.5356 90.3878C50.4202 90.5013 50.2933 90.6905 50.2471 90.804C50.301 90.8381 50.401 90.8873 50.5779 90.9403C50.8779 91.0311 52.3663 91.5343 52.6394 92.764C52.751 93.2635 52.6894 94.024 51.7933 94.8489C51.7163 94.9586 51.5317 95.2613 51.7048 95.4013C51.7202 95.4127 51.7317 95.424 51.7433 95.4354C51.8317 95.5148 52.6125 96.2603 52.4817 97.3084C52.3856 98.0576 51.8779 98.6894 50.9663 99.1776C50.9471 99.1889 50.9279 99.1965 50.9086 99.2078C50.8894 99.2192 50.6086 99.363 50.6433 99.5446C50.8202 100.086 50.8971 101.138 50.1356 101.887C49.6202 102.394 48.8702 102.643 47.8548 102.643L47.851 102.647Z" fill="black"/>
<path d="M78.5799 123.451C78.0568 123.451 77.6415 123.42 77.4607 123.405C76.9299 123.36 76.5376 122.906 76.5838 122.384C76.6261 121.861 77.0915 121.476 77.6222 121.521C79.0184 121.634 80.5607 121.476 80.9992 121.188C80.9338 121.086 80.8107 120.965 80.5761 120.897C80.153 120.776 79.8684 120.386 79.8838 119.951C79.8992 119.516 80.2184 119.148 80.653 119.061C81.5838 118.876 82.6145 118.498 82.8145 118.274C82.8145 118.267 82.9145 118.104 82.8568 117.941C82.8222 117.843 82.6415 117.503 81.7338 117.151C81.7107 117.143 81.6876 117.132 81.6607 117.12C81.1338 116.867 80.5953 116.349 80.6568 115.649C80.7453 114.65 81.9145 114.317 82.2992 114.211C82.7492 114.074 83.2145 113.772 83.2607 113.628C83.2607 113.628 83.2338 113.496 82.9722 113.234C82.9607 113.223 81.9261 112.224 80.503 111.971C79.9799 111.876 79.6338 111.384 79.7299 110.87C79.8261 110.355 80.3261 110.014 80.8492 110.109C82.8838 110.472 84.2838 111.842 84.3415 111.903C85.2338 112.784 85.2645 113.583 85.1299 114.097C84.8876 115.036 83.9761 115.577 83.3645 115.838C84.0645 116.261 84.5107 116.784 84.703 117.404C84.9953 118.35 84.5492 119.118 84.4299 119.3C84.1145 119.796 83.4453 120.163 82.7607 120.427C82.8838 120.681 82.953 120.923 82.9761 121.112C82.9838 121.165 82.9838 121.218 82.9799 121.271C82.953 121.767 82.7299 122.206 82.3338 122.55C81.4568 123.303 79.7492 123.447 78.5799 123.447V123.451Z" fill="black"/>
<path d="M53.6467 108.971C53.5929 108.971 53.5429 108.967 53.489 108.959L45.2467 107.616C44.7621 107.536 44.416 107.109 44.4429 106.628L44.739 101.706C44.7698 101.183 45.2275 100.786 45.7544 100.816C46.2852 100.847 46.689 101.297 46.6583 101.815L46.4121 105.887L52.9583 106.954L59.7467 83.9294L47.8583 81.9165L47.5467 87.1116C47.516 87.6338 47.0583 88.0311 46.5313 88.0008C46.0006 87.9705 45.5967 87.5202 45.6275 87.0019L46.0044 80.7511C46.0198 80.4824 46.1506 80.2327 46.366 80.0662C46.5813 79.8997 46.8583 79.8278 47.1275 79.8732L61.1352 82.2456C61.4044 82.2911 61.6429 82.4462 61.789 82.677C61.9352 82.904 61.9736 83.184 61.8967 83.4413L54.5736 108.289C54.4544 108.698 54.0736 108.971 53.6506 108.971H53.6467Z" fill="black"/>
<path d="M51.4915 25.1241C50.8101 24.3611 49.6291 24.2859 48.8535 24.9562C48.0779 25.6265 48.0016 26.7884 48.6829 27.5514L52.7902 32.1508C53.4715 32.9138 54.6526 32.9889 55.4281 32.3186C56.2037 31.6483 56.2801 30.4864 55.5987 29.7234L51.4915 25.1241Z" fill="#FFF080"/>
<path d="M54.2007 33.7256C54.1392 33.7256 54.0777 33.7256 54.0123 33.7181C53.2584 33.6689 52.5661 33.3359 52.07 32.7759L47.9623 28.1748C47.4623 27.6148 47.2161 26.8997 47.2661 26.1581C47.3161 25.4165 47.6546 24.7354 48.2238 24.2473C48.793 23.7554 49.5238 23.5132 50.2738 23.5624C51.0277 23.6116 51.72 23.9446 52.2161 24.5046L56.3238 29.1057C57.3546 30.2597 57.2392 32.0229 56.0661 33.037C55.5469 33.4873 54.8892 33.7294 54.2007 33.7294V33.7256ZM50.0854 25.4467C49.8661 25.4467 49.6546 25.5262 49.4892 25.67C49.3084 25.8289 49.1969 26.0446 49.1815 26.2829C49.1661 26.5213 49.2469 26.7521 49.4046 26.93L53.5123 31.5311C53.6738 31.7089 53.893 31.8186 54.1354 31.8338C54.3777 31.8489 54.6123 31.7694 54.793 31.6143C55.17 31.2889 55.2046 30.7251 54.8777 30.3543L50.77 25.7532C50.6084 25.5754 50.3892 25.4656 50.1469 25.4505C50.1277 25.4505 50.1084 25.4505 50.0854 25.4505V25.4467Z" fill="black"/>
<path d="M86.2884 39.0381C86.0923 39.0381 85.8961 38.9813 85.723 38.8565C74.123 30.5813 61.1538 33.3208 61.0269 33.3473C60.5077 33.4608 59.9961 33.143 59.8769 32.6322C59.7615 32.1213 60.0846 31.6181 60.6 31.5008C61.1615 31.3759 74.523 28.5305 86.85 37.3203C87.2807 37.6268 87.3769 38.217 87.0653 38.6408C86.8769 38.8943 86.5846 39.0305 86.2846 39.0305L86.2884 39.0381Z" fill="black"/>
<path fill-rule="evenodd" clip-rule="evenodd" d="M39.7824 110.04C40.3122 110.196 40.6154 110.752 40.4596 111.282C39.1205 115.835 36.3978 118.193 33.6216 119.303C30.8995 120.392 28.1946 120.258 26.8041 119.98C26.2625 119.872 25.9113 119.345 26.0196 118.804C26.1279 118.262 26.6547 117.911 27.1963 118.019C28.3058 118.241 30.6008 118.357 32.8788 117.446C35.1026 116.557 37.3799 114.665 38.5408 110.718C38.6967 110.188 39.2525 109.885 39.7824 110.04Z" fill="black"/>
</svg>
