<svg width="54" height="54" viewBox="0 0 54 54" fill="none" xmlns="http://www.w3.org/2000/svg">
<rect width="54" height="54" rx="8" fill="#31EDB5"/>
<path fill-rule="evenodd" clip-rule="evenodd" d="M32.5858 18.5858C33.3668 17.8047 34.6332 17.8047 35.4142 18.5858C36.1953 19.3668 36.1953 20.6332 35.4142 21.4142L29.8284 27L35.4142 32.5858C36.1953 33.3668 36.1953 34.6332 35.4142 35.4142C34.6332 36.1953 33.3668 36.1953 32.5858 35.4142L27 29.8284L21.4142 35.4142C20.6332 36.1953 19.3668 36.1953 18.5858 35.4142C17.8047 34.6332 17.8047 33.3668 18.5858 32.5858L24.1716 27L18.5858 21.4142C17.8047 20.6332 17.8047 19.3668 18.5858 18.5858C19.3668 17.8047 20.6332 17.8047 21.4142 18.5858L27 24.1716L32.5858 18.5858Z" fill="black"/>
</svg>
