<svg width="30" height="30" viewBox="0 0 30 30" fill="none" xmlns="http://www.w3.org/2000/svg">
<path fill-rule="evenodd" clip-rule="evenodd" d="M6.58579 6.58579C7.36684 5.80474 8.63317 5.80474 9.41421 6.58579L23.4142 20.5858C24.1953 21.3668 24.1953 22.6332 23.4142 23.4142C22.6332 24.1953 21.3668 24.1953 20.5858 23.4142L6.58579 9.41421C5.80474 8.63317 5.80474 7.36684 6.58579 6.58579Z" fill="#DFE2E6"/>
<path fill-rule="evenodd" clip-rule="evenodd" d="M23.4142 6.58579C22.6332 5.80474 21.3668 5.80474 20.5858 6.58579L6.58578 20.5858C5.80474 21.3668 5.80474 22.6332 6.58578 23.4142C7.36683 24.1953 8.63316 24.1953 9.41421 23.4142L23.4142 9.41421C24.1953 8.63317 24.1953 7.36684 23.4142 6.58579Z" fill="#DFE2E6"/>
</svg>
