<svg width="54" height="54" viewBox="0 0 54 54" fill="none" xmlns="http://www.w3.org/2000/svg">
<rect width="54" height="54" rx="8" fill="#31EDB5"/>
<path fill-rule="evenodd" clip-rule="evenodd" d="M24.3922 22.9688L24.3923 22.9689L24.3965 22.9558C24.6026 22.3076 24.9529 21.831 25.4249 21.5118C25.9005 21.1902 26.5365 21.0038 27.3503 21.0038C28.2472 21.0038 28.955 21.2545 29.4284 21.6432C29.8941 22.0255 30.1607 22.5617 30.1607 23.2146C30.1607 23.7925 30.0281 24.2192 29.7251 24.6141C29.4066 25.0291 28.8745 25.4423 28.0047 25.9298C27.0162 26.479 26.242 27.0767 25.7162 27.7984C25.182 28.5316 24.9262 29.3625 24.9262 30.3311V30.6263C24.9262 31.1685 25.081 31.6952 25.4362 32.0962C25.7979 32.5044 26.3214 32.7301 26.9501 32.7443L26.9501 32.7444H26.9614C27.5437 32.7444 28.037 32.5667 28.3908 32.1934C28.735 31.8303 28.8881 31.3441 28.9287 30.839L28.9288 30.839L28.9294 30.8298C28.9671 30.2219 29.0848 29.8363 29.3673 29.4788C29.6699 29.0958 30.195 28.702 31.1558 28.1686C33.2005 27.0334 34.5 25.4451 34.5 23.0958C34.5 21.4293 33.7579 20.0132 32.4981 19.0257C31.2468 18.0448 29.5058 17.5 27.4993 17.5C24.4531 17.5 21.9894 18.685 20.9745 20.7992C20.6778 21.3552 20.5176 21.9676 20.5072 22.5915C20.4836 22.8413 20.5181 23.0923 20.6076 23.3271C20.7001 23.57 20.8483 23.7875 21.0388 23.9655C21.2291 24.1434 21.457 24.2777 21.7051 24.3611C21.946 24.442 22.2018 24.4737 22.4555 24.4546C22.8859 24.4517 23.2936 24.3583 23.6434 24.0957C23.9938 23.8326 24.2266 23.4441 24.3922 22.9688ZM24.9292 34.9617C24.6655 35.3469 24.5289 35.8002 24.5414 36.2637C24.5437 36.5658 24.6104 36.8635 24.7365 37.1392C24.8634 37.4168 25.0474 37.6656 25.2758 37.8722C25.5041 38.0788 25.7724 38.2394 26.0643 38.3464C26.3544 38.4528 26.6632 38.5047 26.9733 38.4997C27.4484 38.5004 27.9159 38.3703 28.3164 38.1223C28.7188 37.8731 29.0379 37.5144 29.2266 37.0874C29.4156 36.6598 29.4632 36.1872 29.3614 35.732C29.2597 35.2772 29.015 34.8667 28.6655 34.5505C28.3164 34.2347 27.878 34.0264 27.4081 33.9469C26.9382 33.8675 26.4528 33.9195 26.0128 34.098C25.5726 34.2765 25.1937 34.5753 24.9292 34.9617Z" fill="black"/>
</svg>
