<svg width="30" height="30" viewBox="0 0 30 30" fill="none" xmlns="http://www.w3.org/2000/svg">
<path fill-rule="evenodd" clip-rule="evenodd" d="M12.2973 10.936L12.2975 10.9361L12.3008 10.9256C12.5128 10.2586 12.8757 9.76234 13.3685 9.42907C13.8642 9.09383 14.5209 8.90389 15.3499 8.90389C16.2648 8.90389 16.9966 9.1597 17.4915 9.566C17.9802 9.96725 18.2603 10.5317 18.2603 11.2147C18.2603 11.8109 18.1226 12.26 17.804 12.6751C17.4731 13.1063 16.9268 13.5276 16.0529 14.0172C15.071 14.5629 14.3106 15.152 13.7966 15.8574C13.2759 16.572 13.0258 17.3819 13.0258 18.3312V18.6264C13.0258 19.1503 13.1753 19.6514 13.5107 20.03C13.8512 20.4144 14.3468 20.6308 14.952 20.6444L14.952 20.6445H14.961C15.5224 20.6445 15.987 20.4738 16.3178 20.1247C16.641 19.7838 16.7891 19.3225 16.8287 18.831L16.8287 18.831L16.8292 18.8237C16.8676 18.204 16.9889 17.796 17.2884 17.4169C17.6041 17.0174 18.1441 16.6157 19.1069 16.0812C21.1308 14.9576 22.3996 13.3979 22.3996 11.0959C22.3996 9.46173 21.6729 8.07403 20.436 7.10446C19.206 6.14021 17.4881 5.6001 15.4989 5.6001C12.4736 5.6001 10.0549 6.77654 9.06337 8.84451C8.77275 9.3884 8.61622 9.98733 8.60675 10.5972C8.58389 10.8328 8.61613 11.0698 8.70063 11.2916C8.78756 11.5198 8.92701 11.7247 9.10666 11.8926C9.28622 12.0604 9.50165 12.1874 9.73654 12.2664C9.96578 12.3434 10.2094 12.3734 10.451 12.3547C10.8686 12.3524 11.2545 12.2625 11.583 12.0158C11.9118 11.769 12.1355 11.4006 12.2973 10.936ZM13.4258 18.3312C13.4258 16.5866 14.3361 15.4286 16.2479 14.3665C18.0272 13.3696 18.6603 12.5529 18.6603 11.2147C18.6603 9.70858 17.4856 8.64389 15.7124 8.51668C17.4858 8.64376 18.6607 9.70849 18.6607 11.2148C18.6607 12.5529 18.0276 13.3696 16.2483 14.3665C14.3365 15.4286 13.4262 16.5866 13.4262 18.3312V18.6264C13.4262 19.4849 13.8919 20.1555 14.8199 20.2368C13.8917 20.1556 13.4258 19.485 13.4258 18.6264V18.3312ZM16.1181 6.01862C15.9155 6.00635 15.7092 6.00012 15.4993 6.00012C12.5572 6.00012 10.3186 7.14274 9.42066 9.02538C9.15418 9.52118 9.01269 10.0666 9.00687 10.6204C8.98705 10.7992 9.01026 10.9798 9.07481 11.1492C9.13936 11.3187 9.24366 11.4728 9.38019 11.6004C9.51672 11.728 9.68209 11.826 9.86439 11.8872C9.97969 11.926 10.0999 11.9495 10.2216 11.9572C10.0998 11.9495 9.97942 11.926 9.864 11.8872C9.6817 11.8259 9.51633 11.728 9.3798 11.6004C9.24327 11.4727 9.13897 11.3187 9.07442 11.1492C9.00987 10.9798 8.98666 10.7992 9.00648 10.6204C9.0123 10.0666 9.15379 9.52115 9.42027 9.02535C10.3182 7.14272 12.5568 6.0001 15.4989 6.0001C15.7089 6.0001 15.9154 6.00634 16.1181 6.01862ZM13.0113 23.0183C12.7591 23.3868 12.6288 23.8198 12.641 24.2621C12.643 24.5502 12.7066 24.8343 12.827 25.0978C12.9481 25.3626 13.1239 25.6004 13.3425 25.7982C13.5611 25.9959 13.8182 26.1499 14.0983 26.2527C14.3771 26.3549 14.674 26.4047 14.9722 26.3998C15.4294 26.4006 15.8788 26.2755 16.2634 26.0374C16.6494 25.7983 16.9546 25.4548 17.1348 25.047C17.3152 24.6388 17.3605 24.188 17.2634 23.7539C17.1664 23.3201 16.9328 22.9277 16.598 22.6248C16.2636 22.3222 15.8428 22.122 15.391 22.0456C14.9392 21.9692 14.4727 22.0193 14.05 22.1908C13.6271 22.3622 13.2642 22.6488 13.0113 23.0183ZM15.11 22.4151C14.7995 22.3953 14.4873 22.445 14.2003 22.5614C13.847 22.7047 13.548 22.9425 13.3414 23.2442C13.1349 23.546 13.0303 23.898 13.041 24.2552C13.042 24.4876 13.0929 24.7174 13.1908 24.9314C13.2886 25.1454 13.4314 25.3392 13.6109 25.5016C13.7903 25.6639 14.0029 25.7916 14.2361 25.8771C14.4138 25.9423 14.6008 25.982 14.7906 25.9952C14.6009 25.982 14.414 25.9423 14.2364 25.8771C14.0032 25.7916 13.7907 25.664 13.6113 25.5016C13.4318 25.3392 13.289 25.1454 13.1912 24.9315C13.0933 24.7175 13.0424 24.4876 13.0414 24.2552C13.0306 23.898 13.1353 23.546 13.3418 23.2442C13.5484 22.9425 13.8474 22.7047 14.2007 22.5615C14.4876 22.4451 14.7997 22.3954 15.11 22.4151Z" fill="#C2C8CF"/>
</svg>
